<svg width="1082" height="1377" viewBox="0 0 1082 1377" fill="none" xmlns="http://www.w3.org/2000/svg">
<g filter="url(#filter0_f_1526_26346)">
<path d="M301.141 993.814C159.152 660.708 319.707 946.897 436.421 571.781C429.73 505.863 402.634 359.574 405.979 288.566C409.324 217.558 476.973 241.351 666.169 312.36C855.364 383.368 589.208 421.214 709.268 571.781C829.327 722.348 841.983 934.702 835.292 942.881C828.602 951.06 443.13 1326.92 301.141 993.814Z" fill="url(#paint0_linear_1526_26346)" fill-opacity="0.6"/>
<path d="M301.141 993.814C159.152 660.708 319.707 946.897 436.421 571.781C429.73 505.863 402.634 359.574 405.979 288.566C409.324 217.558 476.973 241.351 666.169 312.36C855.364 383.368 589.208 421.214 709.268 571.781C829.327 722.348 841.983 934.702 835.292 942.881C828.602 951.06 443.13 1326.92 301.141 993.814Z" stroke="black" stroke-width="0.697292"/>
</g>
<defs>
<filter id="filter0_f_1526_26346" x="0.326187" y="0.64064" width="1081.5" height="1375.76" filterUnits="userSpaceOnUse" color-interpolation-filters="sRGB">
<feFlood flood-opacity="0" result="BackgroundImageFix"/>
<feBlend mode="normal" in="SourceGraphic" in2="BackgroundImageFix" result="shape"/>
<feGaussianBlur stdDeviation="122.375" result="effect1_foregroundBlur_1526_26346"/>
</filter>
<linearGradient id="paint0_linear_1526_26346" x1="571.165" y1="245.739" x2="571.165" y2="1131.3" gradientUnits="userSpaceOnUse">
<stop stop-color="#15381A"/>
<stop offset="1" stop-color="#846C1F"/>
</linearGradient>
</defs>
</svg>
