<svg width="592" height="754" viewBox="0 0 592 754" fill="none" xmlns="http://www.w3.org/2000/svg">
<g filter="url(#filter0_f_2092_3826)">
<path d="M164.658 543.842C87.0189 361.701 174.81 518.188 238.629 313.076C234.97 277.033 220.154 197.043 221.983 158.216C223.812 119.389 260.802 132.399 364.253 171.226C467.704 210.053 322.172 230.747 387.82 313.076C453.467 395.405 460.388 511.52 456.729 515.992C453.071 520.464 242.297 725.982 164.658 543.842Z" fill="url(#paint0_linear_2092_3826)" fill-opacity="0.6"/>
<path d="M164.658 543.842C87.0189 361.701 174.81 518.188 238.629 313.076C234.97 277.033 220.154 197.043 221.983 158.216C223.812 119.389 260.802 132.399 364.253 171.226C467.704 210.053 322.172 230.747 387.82 313.076C453.467 395.405 460.388 511.52 456.729 515.992C453.071 520.464 242.297 725.982 164.658 543.842Z" stroke="black" stroke-width="0.381276"/>
</g>
<defs>
<filter id="filter0_f_2092_3826" x="0.174088" y="0.779556" width="591.359" height="752.257" filterUnits="userSpaceOnUse" color-interpolation-filters="sRGB">
<feFlood flood-opacity="0" result="BackgroundImageFix"/>
<feBlend mode="normal" in="SourceGraphic" in2="BackgroundImageFix" result="shape"/>
<feGaussianBlur stdDeviation="66.9139" result="effect1_foregroundBlur_2092_3826"/>
</filter>
<linearGradient id="paint0_linear_2092_3826" x1="312.306" y1="134.798" x2="312.306" y2="619.018" gradientUnits="userSpaceOnUse">
<stop stop-color="#173B1D"/>
<stop offset="1" stop-color="#725D18"/>
</linearGradient>
</defs>
</svg>
