<svg width="1082" height="1377" viewBox="0 0 1082 1377" fill="none" xmlns="http://www.w3.org/2000/svg">
<g filter="url(#filter0_f_1526_26346)">
<path d="M301.141 994.108C159.152 661.002 319.707 947.191 436.421 572.075C429.73 506.157 402.634 359.868 405.979 288.86C409.324 217.852 476.973 241.645 666.169 312.653C855.364 383.662 589.208 421.508 709.268 572.075C829.327 722.642 841.983 934.996 835.292 943.175C828.602 951.354 443.13 1327.21 301.141 994.108Z" fill="url(#paint0_linear_1526_26346)" fill-opacity="0.6"/>
<path d="M301.141 994.108C159.152 661.002 319.707 947.191 436.421 572.075C429.73 506.157 402.634 359.868 405.979 288.86C409.324 217.852 476.973 241.645 666.169 312.653C855.364 383.662 589.208 421.508 709.268 572.075C829.327 722.642 841.983 934.996 835.292 943.175C828.602 951.354 443.13 1327.21 301.141 994.108Z" stroke="black" stroke-width="0.697292"/>
</g>
<defs>
<filter id="filter0_f_1526_26346" x="0.326187" y="0.934586" width="1081.5" height="1375.76" filterUnits="userSpaceOnUse" color-interpolation-filters="sRGB">
<feFlood flood-opacity="0" result="BackgroundImageFix"/>
<feBlend mode="normal" in="SourceGraphic" in2="BackgroundImageFix" result="shape"/>
<feGaussianBlur stdDeviation="122.375" result="effect1_foregroundBlur_1526_26346"/>
</filter>
<linearGradient id="paint0_linear_1526_26346" x1="571.165" y1="246.033" x2="571.165" y2="1131.59" gradientUnits="userSpaceOnUse">
<stop stop-color="#15381A"/>
<stop offset="1" stop-color="#846C1F"/>
</linearGradient>
</defs>
</svg>
