<svg width="592" height="753" viewBox="0 0 592 753" fill="none" xmlns="http://www.w3.org/2000/svg">
<g filter="url(#filter0_f_2147_28300)">
<path d="M164.664 543.345C87.0247 361.204 174.816 517.691 238.634 312.58C234.976 276.536 220.159 196.546 221.989 157.719C223.818 118.892 260.808 131.902 364.259 170.729C467.71 209.556 322.178 230.25 387.825 312.58C453.473 394.909 460.394 511.023 456.735 515.495C453.077 519.968 242.303 725.486 164.664 543.345Z" fill="url(#paint0_linear_2147_28300)" fill-opacity="0.6"/>
<path d="M164.664 543.345C87.0247 361.204 174.816 517.691 238.634 312.58C234.976 276.536 220.159 196.546 221.989 157.719C223.818 118.892 260.808 131.902 364.259 170.729C467.71 209.556 322.178 230.25 387.825 312.58C453.473 394.909 460.394 511.023 456.735 515.495C453.077 519.968 242.303 725.486 164.664 543.345Z" stroke="black" stroke-width="0.381276"/>
</g>
<defs>
<filter id="filter0_f_2147_28300" x="0.179947" y="0.282974" width="591.359" height="752.257" filterUnits="userSpaceOnUse" color-interpolation-filters="sRGB">
<feFlood flood-opacity="0" result="BackgroundImageFix"/>
<feBlend mode="normal" in="SourceGraphic" in2="BackgroundImageFix" result="shape"/>
<feGaussianBlur stdDeviation="66.9139" result="effect1_foregroundBlur_2147_28300"/>
</filter>
<linearGradient id="paint0_linear_2147_28300" x1="312.312" y1="134.301" x2="312.312" y2="618.522" gradientUnits="userSpaceOnUse">
<stop stop-color="#1A371F"/>
<stop offset="1" stop-color="#F0C024"/>
<stop offset="1" stop-color="#816E31"/>
</linearGradient>
</defs>
</svg>
