<svg width="76" height="21" viewBox="0 0 76 21" fill="none" xmlns="http://www.w3.org/2000/svg">
<mask id="mask0_2057_101747" style="mask-type:luminance" maskUnits="userSpaceOnUse" x="0" y="0" width="76" height="21">
<path d="M75.7464 0.492188H0.835449V20.5115H75.7464V0.492188Z" fill="white"/>
</mask>
<g mask="url(#mask0_2057_101747)">
<path d="M8.97318 3.52222L2.13502 0.56897C1.99299 0.507537 1.83819 0.482839 1.68447 0.497087C1.53075 0.511335 1.38291 0.564085 1.25416 0.650616C1.12541 0.737148 1.01978 0.854763 0.946707 0.99294C0.873638 1.13112 0.835412 1.28555 0.835449 1.44241V9.04317C0.835445 9.20477 0.873973 9.36398 0.947738 9.50715C1.0215 9.65032 1.12831 9.77319 1.25901 9.86525C1.3897 9.95731 1.54041 10.0158 1.69822 10.0358C1.85603 10.0557 2.01624 10.0365 2.16514 9.97975L6.70211 8.25104L1.78671 6.1698C1.71633 6.13673 1.66129 6.07722 1.63316 6.00379C1.60503 5.93036 1.60598 5.8487 1.63583 5.77597C1.66568 5.70324 1.72209 5.64508 1.79323 5.61372C1.86437 5.58235 1.94469 5.58022 2.01735 5.60776L7.5244 7.93821L9.07249 7.34795C11.7215 6.41423 11.8594 4.54872 8.97365 3.52126M9.62132 5.93972C9.59073 6.01408 9.53239 6.0731 9.45909 6.10384C9.38578 6.13459 9.30347 6.13458 9.23017 6.10379L1.67469 2.90612C1.63837 2.89076 1.60539 2.86828 1.57762 2.83997C1.54986 2.81166 1.52785 2.77807 1.51286 2.74111C1.48258 2.66648 1.48272 2.58268 1.51324 2.50814C1.54376 2.43361 1.60217 2.37445 1.67561 2.34369C1.74905 2.31292 1.83151 2.31306 1.90485 2.34407L9.45987 5.54271C9.49626 5.55804 9.5293 5.58053 9.55712 5.60887C9.58494 5.63722 9.60698 5.67086 9.62198 5.70788C9.63698 5.74489 9.64464 5.78455 9.64452 5.82458C9.64441 5.86462 9.63652 5.90423 9.62132 5.94116" fill="#CC0066"/>
<path d="M45.6424 12.6524C45.6469 12.8813 45.6118 13.1092 45.5389 13.3259C45.4773 13.5055 45.3771 13.6689 45.2456 13.8042C45.1171 13.9328 44.9612 14.0296 44.79 14.0874C44.5993 14.151 44.3995 14.1822 44.1988 14.1797C44.1047 14.1797 43.9934 14.1754 43.8651 14.1668C43.7441 14.16 43.6248 14.1355 43.5107 14.0941C43.4521 14.0824 43.3994 14.0502 43.3617 14.0033C43.324 13.9563 43.3036 13.8974 43.304 13.8367V11.4513C43.3013 11.4051 43.3165 11.3598 43.3464 11.325C43.3783 11.2925 43.4173 11.2682 43.4603 11.2542C43.5723 11.2188 43.6876 11.1957 43.8044 11.1853C43.9267 11.1738 44.0457 11.1681 44.1612 11.1681C44.3657 11.1658 44.5693 11.1962 44.7646 11.258C44.94 11.3128 45.101 11.4074 45.2353 11.5345C45.3686 11.6649 45.4717 11.8239 45.537 11.9999C45.6127 12.2085 45.6493 12.4296 45.6448 12.6519M45.151 12.6562C45.1547 12.4915 45.1297 12.3275 45.0771 12.1716C45.0338 12.047 44.963 11.9341 44.87 11.8416C44.7809 11.7553 44.6742 11.69 44.5575 11.6503C44.4329 11.608 44.3024 11.587 44.1711 11.5881C44.0408 11.5858 43.9107 11.5974 43.7827 11.6225V13.7243C43.8473 13.7395 43.9129 13.7496 43.979 13.7545C44.0509 13.7602 44.1248 13.7631 44.2007 13.7631C44.3313 13.7719 44.4622 13.7515 44.5842 13.7033C44.7062 13.6552 44.8163 13.5804 44.9067 13.4842C45.0847 13.2477 45.1711 12.9531 45.1496 12.6562" fill="#CC0066"/>
<path d="M46.1407 11.207C46.1397 11.1688 46.146 11.1308 46.1594 11.0951C46.1729 11.0594 46.1931 11.0267 46.2189 10.999C46.2453 10.9711 46.2771 10.9492 46.3124 10.9348C46.3477 10.9204 46.3856 10.9137 46.4236 10.9153C46.461 10.914 46.4982 10.9208 46.5327 10.9353C46.5673 10.9497 46.5985 10.9714 46.6242 10.999C46.6745 11.0562 46.7023 11.1303 46.7023 11.207C46.7023 11.2838 46.6745 11.3579 46.6242 11.4151C46.5985 11.4427 46.5673 11.4644 46.5327 11.4788C46.4982 11.4932 46.461 11.5001 46.4236 11.4988C46.3856 11.5004 46.3477 11.4937 46.3124 11.4793C46.2771 11.4648 46.2453 11.443 46.2189 11.4151C46.193 11.3874 46.1728 11.3547 46.1594 11.319C46.146 11.2833 46.1397 11.2452 46.1407 11.207ZM46.6557 14.1153C46.6276 14.1265 46.5986 14.1351 46.5691 14.1412C46.5283 14.15 46.4866 14.1544 46.4448 14.1541C46.3766 14.1598 46.3086 14.1408 46.2528 14.1005C46.2305 14.0771 46.2135 14.0491 46.2029 14.0184C46.1923 13.9876 46.1885 13.9549 46.1916 13.9226V11.9045L46.2801 11.881C46.3215 11.8705 46.364 11.8655 46.4067 11.8662C46.4737 11.8607 46.5405 11.8797 46.595 11.9198C46.6168 11.9442 46.6334 11.9731 46.6435 12.0045C46.6536 12.0359 46.6571 12.0691 46.6538 12.102L46.6557 14.1153Z" fill="#CC0066"/>
<path d="M48.663 13.9133C48.5987 13.9546 48.5292 13.9868 48.4563 14.0089C48.3617 14.0365 48.2635 14.0496 48.165 14.0477C48.0382 14.0485 47.9121 14.0281 47.7917 13.9874C47.6757 13.9478 47.5697 13.8824 47.4816 13.7961C47.3866 13.7011 47.3145 13.5853 47.2707 13.4574C47.2158 13.2909 47.1901 13.1159 47.1949 12.9403C47.1918 12.7762 47.2174 12.6127 47.2707 12.4577C47.3165 12.3268 47.3908 12.2081 47.4881 12.1104C47.5834 12.0168 47.697 11.9445 47.8214 11.8981C47.9601 11.8477 48.1066 11.823 48.254 11.8253C48.3899 11.8241 48.5251 11.8443 48.655 11.8851C48.7625 11.9181 48.8649 11.9664 48.959 12.0286C49.0042 12.0602 49.0428 12.1003 49.0729 12.1468C49.1025 12.1965 49.1172 12.2538 49.1153 12.3118V14.1855C49.119 14.3266 49.0932 14.467 49.0395 14.5973C48.9926 14.7069 48.9192 14.8028 48.8263 14.8762C48.7294 14.9502 48.6188 15.0034 48.501 15.0326C48.3691 15.0658 48.2336 15.0819 48.0977 15.0804C47.9667 15.0825 47.836 15.0664 47.7093 15.0326C47.6244 15.0105 47.5423 14.9784 47.4646 14.9369C47.4043 14.8994 47.3599 14.8403 47.3404 14.7712C47.3209 14.7021 47.3276 14.6281 47.3592 14.5638C47.3788 14.5267 47.4079 14.4956 47.4434 14.4739C47.5263 14.5334 47.6174 14.5803 47.7136 14.6131C47.8301 14.6552 47.9529 14.6762 48.0765 14.6753C48.2301 14.6848 48.3824 14.6416 48.5091 14.5528C48.5633 14.5043 48.6054 14.4434 48.6322 14.3752C48.6589 14.3069 48.6695 14.2333 48.663 14.1601V13.9133ZM48.2281 13.6559C48.3156 13.6584 48.4027 13.6421 48.4836 13.6081C48.5471 13.5805 48.605 13.5412 48.6545 13.4923V12.3391C48.6038 12.3065 48.5493 12.2806 48.4921 12.2621C48.4178 12.2379 48.34 12.2262 48.2619 12.2276C48.1811 12.2243 48.1004 12.2383 48.0252 12.2686C47.95 12.2989 47.8818 12.3449 47.8251 12.4037C47.7034 12.5521 47.6436 12.743 47.6585 12.9356C47.6559 13.0488 47.6709 13.1618 47.7028 13.2704C47.7273 13.3528 47.769 13.4288 47.8251 13.4933C47.8744 13.5486 47.9359 13.5912 48.0045 13.6177C48.0761 13.6442 48.1519 13.6568 48.2281 13.6559Z" fill="#CC0066"/>
<path d="M49.6945 11.207C49.6934 11.1688 49.6997 11.1308 49.7131 11.0951C49.7265 11.0594 49.7468 11.0267 49.7726 10.999C49.799 10.9711 49.8308 10.9492 49.8661 10.9348C49.9014 10.9204 49.9393 10.9137 49.9773 10.9153C50.0147 10.914 50.0519 10.9208 50.0864 10.9352C50.121 10.9497 50.1522 10.9714 50.1778 10.999C50.2282 11.0562 50.256 11.1303 50.256 11.207C50.256 11.2838 50.2282 11.3579 50.1778 11.4151C50.1522 11.4427 50.121 11.4644 50.0864 11.4788C50.0519 11.4933 50.0147 11.5001 49.9773 11.4988C49.9393 11.5004 49.9014 11.4937 49.8661 11.4793C49.8308 11.4648 49.799 11.443 49.7726 11.4151C49.7467 11.3874 49.7265 11.3547 49.7131 11.319C49.6997 11.2833 49.6934 11.2452 49.6945 11.207ZM50.2094 14.1153C50.1813 14.1265 50.1523 14.1351 50.1228 14.1412C50.0818 14.1501 50.0399 14.1544 49.998 14.1541C49.9298 14.1598 49.8618 14.1408 49.806 14.1005C49.7837 14.0771 49.7666 14.0491 49.7561 14.0184C49.7455 13.9877 49.7417 13.955 49.7448 13.9226V11.9045L49.8333 11.881C49.8747 11.8705 49.9172 11.8655 49.9599 11.8662C50.0269 11.8607 50.0937 11.8797 50.1482 11.9198C50.17 11.9442 50.1866 11.9731 50.1967 12.0045C50.2069 12.0359 50.2104 12.0691 50.207 12.102L50.2094 14.1153Z" fill="#CC0066"/>
<path d="M51.4175 13.7147C51.4957 13.7661 51.588 13.7909 51.6811 13.7855C51.7354 13.785 51.7893 13.7771 51.8416 13.762C51.8928 13.7484 51.9424 13.729 51.9894 13.7041C52.0099 13.7311 52.0284 13.7598 52.0444 13.7898C52.072 13.8455 52.0775 13.9099 52.06 13.9697C52.0426 14.0295 52.0033 14.0802 51.9503 14.1117C51.8415 14.173 51.7177 14.2013 51.5935 14.193C51.4028 14.2029 51.2144 14.1461 51.0598 14.0323C50.9883 13.9665 50.933 13.8846 50.8982 13.7933C50.8634 13.702 50.8501 13.6036 50.8593 13.5061V11.2799C50.89 11.2691 50.9215 11.2604 50.9534 11.2541C50.995 11.2453 51.0375 11.241 51.08 11.2412C51.146 11.2357 51.2118 11.254 51.2659 11.2928C51.2877 11.3161 51.3042 11.3439 51.3144 11.3743C51.3246 11.4047 51.3281 11.437 51.3248 11.4689V11.9405H52.0171C52.0309 11.9665 52.0422 11.9937 52.051 12.0218C52.0625 12.0578 52.0682 12.0955 52.068 12.1333C52.068 12.2679 52.013 12.335 51.9032 12.3347H51.3248V13.4717C51.32 13.5168 51.326 13.5625 51.3424 13.6047C51.3588 13.6469 51.3851 13.6845 51.4189 13.7142" fill="#CC0066"/>
<path d="M53.3168 11.8242C53.5513 11.8111 53.7834 11.8785 53.9758 12.0155C54.061 12.0902 54.1277 12.1842 54.1702 12.2901C54.2127 12.3959 54.23 12.5105 54.2205 12.6245V13.7356C54.2244 13.7959 54.2078 13.8557 54.1734 13.905C54.1368 13.9488 54.0942 13.9872 54.0468 14.0188C53.9537 14.0719 53.8544 14.113 53.7512 14.1413C53.6122 14.1793 53.4687 14.1974 53.3248 14.1948C53.087 14.2089 52.8511 14.145 52.6517 14.0126C52.5709 13.9509 52.5065 13.8697 52.4641 13.7765C52.4217 13.6833 52.4027 13.5808 52.4088 13.4783C52.4036 13.3894 52.4178 13.3004 52.4503 13.2177C52.4829 13.135 52.533 13.0607 52.5971 13C52.7527 12.8762 52.942 12.8042 53.1393 12.7938L53.7597 12.7249V12.6221C53.7647 12.5646 53.7558 12.5068 53.7338 12.4537C53.7117 12.4006 53.6771 12.3538 53.6331 12.3174C53.5293 12.2484 53.4067 12.2149 53.2829 12.2217C53.1671 12.2213 53.0519 12.2385 52.9412 12.2729C52.8394 12.3039 52.7404 12.3441 52.6456 12.393C52.6159 12.365 52.5904 12.3327 52.5698 12.2973C52.5471 12.2586 52.5354 12.2143 52.5361 12.1692C52.5369 12.1241 52.55 12.0802 52.574 12.0423C52.6051 12.0019 52.6458 11.9702 52.6922 11.95C52.7825 11.9054 52.8783 11.8732 52.977 11.8543C53.0889 11.8323 53.2027 11.8216 53.3168 11.8223M53.3253 13.804C53.4179 13.8059 53.5103 13.7943 53.5997 13.7696C53.6572 13.7555 53.7116 13.7306 53.7602 13.6964V13.0918L53.2791 13.1435C53.1701 13.1509 53.0644 13.1846 52.9708 13.242C52.9366 13.2682 52.9093 13.3027 52.8916 13.3425C52.874 13.3822 52.8664 13.4258 52.8696 13.4692C52.8678 13.5158 52.8767 13.5623 52.8958 13.6047C52.9148 13.6472 52.9435 13.6845 52.9793 13.7136C53.0815 13.782 53.2033 13.8137 53.3253 13.8036" fill="#CC0066"/>
<path d="M55.102 14.1538C55.035 14.1585 54.9685 14.1396 54.9137 14.1002C54.8907 14.0772 54.8731 14.0493 54.8621 14.0185C54.8511 13.9878 54.847 13.9549 54.8501 13.9223V11.0312L54.9386 11.0078C54.98 10.9972 55.0226 10.9922 55.0653 10.9929C55.1319 10.9882 55.1981 11.0062 55.2535 11.0441C55.2766 11.0666 55.2943 11.0941 55.3054 11.1246C55.3164 11.1552 55.3204 11.1878 55.3171 11.2201V14.1155C55.2917 14.1241 55.2603 14.1327 55.2229 14.1413C55.1828 14.1504 55.1417 14.1547 55.1006 14.1543" fill="#CC0066"/>
<path d="M57.4377 13.1285V14.1153C57.4058 14.1257 57.3734 14.1343 57.3407 14.1411C57.2991 14.15 57.2566 14.1543 57.2141 14.154C57.1441 14.1602 57.0744 14.1403 57.0178 14.098C56.9954 14.0734 56.9784 14.0442 56.9679 14.0123C56.9573 13.9805 56.9535 13.9468 56.9566 13.9134V11.4552C56.9538 11.4091 56.9691 11.3637 56.999 11.329C57.0308 11.2964 57.0699 11.2722 57.1129 11.2582C57.2208 11.2212 57.3327 11.1974 57.4462 11.1874C57.5717 11.1746 57.6912 11.1682 57.8048 11.1682C58.1139 11.1426 58.4212 11.236 58.6657 11.4299C58.7597 11.5214 58.8332 11.6323 58.8813 11.7552C58.9294 11.8781 58.9509 12.0101 58.9443 12.1421C58.9502 12.2749 58.9284 12.4075 58.8804 12.5311C58.8324 12.6548 58.7592 12.7667 58.6657 12.8596C58.4321 13.0566 58.1323 13.1535 57.8297 13.1299L57.4377 13.1285ZM57.8048 12.7123C57.976 12.7222 58.1454 12.6715 58.284 12.5688C58.3438 12.5164 58.3907 12.4506 58.4211 12.3765C58.4515 12.3024 58.4645 12.2222 58.4591 12.1421C58.4657 12.0637 58.4541 11.9847 58.4251 11.9117C58.3962 11.8387 58.3507 11.7736 58.2924 11.7217C58.1518 11.6242 57.9831 11.5774 57.8133 11.5887C57.7486 11.5887 57.6824 11.5916 57.6146 11.5973C57.5536 11.6022 57.493 11.6108 57.433 11.6231V12.7128L57.8048 12.7123Z" fill="#CC0066"/>
<path d="M60.2172 11.8242C60.4517 11.811 60.6838 11.8784 60.8761 12.0155C60.9614 12.0901 61.0281 12.1842 61.0706 12.2901C61.1132 12.3959 61.1304 12.5105 61.1209 12.6245V13.7356C61.1248 13.7959 61.1082 13.8557 61.0738 13.905C61.0371 13.9488 60.9945 13.9872 60.9472 14.0188C60.854 14.0719 60.7547 14.113 60.6516 14.1413C60.5126 14.1793 60.3691 14.1974 60.2252 14.1948C59.9874 14.2089 59.7515 14.145 59.5521 14.0126C59.4713 13.9509 59.4069 13.8697 59.3645 13.7765C59.3221 13.6833 59.3031 13.5808 59.3092 13.4783C59.304 13.3894 59.3182 13.3004 59.3507 13.2177C59.3832 13.135 59.4334 13.0607 59.4975 13C59.653 12.8762 59.8424 12.8042 60.0397 12.7938L60.6601 12.7249V12.6221C60.6652 12.5646 60.6563 12.5068 60.6342 12.4537C60.6121 12.4005 60.5775 12.3537 60.5335 12.3174C60.4297 12.2484 60.3071 12.2149 60.1833 12.2217C60.0675 12.2213 59.9523 12.2385 59.8416 12.2729C59.7397 12.3039 59.6408 12.3441 59.546 12.393C59.5163 12.365 59.4907 12.3327 59.4702 12.2973C59.4474 12.2586 59.4358 12.2143 59.4365 12.1692C59.4373 12.1241 59.4504 12.0802 59.4744 12.0423C59.5055 12.0019 59.5462 11.9702 59.5926 11.95C59.6829 11.9054 59.7786 11.8732 59.8773 11.8543C59.9893 11.8323 60.1031 11.8216 60.2172 11.8223M60.2256 13.804C60.3182 13.8059 60.4106 13.7943 60.5 13.7696C60.5575 13.7554 60.6119 13.7306 60.6605 13.6964V13.0918L60.1795 13.1435C60.0705 13.1508 59.9648 13.1846 59.8712 13.242C59.8369 13.2682 59.8097 13.3027 59.792 13.3425C59.7743 13.3822 59.7668 13.4258 59.77 13.4692C59.7682 13.5158 59.7771 13.5623 59.7962 13.6047C59.8152 13.6472 59.8438 13.6845 59.8797 13.7136C59.9819 13.782 60.1037 13.8136 60.2256 13.8036" fill="#CC0066"/>
<path d="M62.1216 13.6047C62.0457 13.4475 61.9536 13.2259 61.8453 12.9398C61.7371 12.6538 61.6337 12.3306 61.5352 11.9703C61.5653 11.9343 61.6019 11.9044 61.6429 11.8822C61.6862 11.8581 61.7348 11.8456 61.7841 11.8459C61.8414 11.8431 61.8979 11.86 61.9447 11.8937C61.9949 11.9398 62.0302 12.0004 62.0459 12.0674C62.1274 12.3247 62.2112 12.5785 62.2972 12.8289C62.3832 13.0792 62.4781 13.3373 62.582 13.6033H62.5989C62.6438 13.5003 62.6895 13.3809 62.7359 13.245C62.7823 13.1092 62.8274 12.9647 62.871 12.8116C62.9146 12.6586 62.9562 12.5034 62.9957 12.3462C63.0353 12.189 63.0704 12.039 63.1011 11.8961C63.1297 11.8817 63.1593 11.8696 63.1896 11.8598C63.2252 11.8492 63.2622 11.8442 63.2993 11.8449C63.3578 11.8426 63.4156 11.8594 63.464 11.8928C63.4872 11.9111 63.5054 11.935 63.5172 11.9623C63.5289 11.9896 63.5338 12.0195 63.5314 12.0492C63.5245 12.1769 63.504 12.3034 63.4702 12.4266C63.4294 12.5953 63.3767 12.7826 63.312 12.9886C63.2474 13.1946 63.1735 13.4019 63.0903 13.6105C63.0072 13.8193 62.9234 14.0053 62.839 14.1682C62.7269 14.3945 62.5925 14.6086 62.4379 14.8073C62.3997 14.8664 62.3493 14.9165 62.2904 14.9542C62.2315 14.992 62.1653 15.0164 62.0962 15.0259C62.0601 15.028 62.0239 15.0226 61.9898 15.0101C61.9558 14.9976 61.9245 14.9783 61.8981 14.9532C61.8488 14.9029 61.8159 14.8384 61.8039 14.7685C61.8591 14.7181 61.9113 14.6644 61.9602 14.6078C62.0164 14.544 62.0727 14.4755 62.1292 14.4021C62.1857 14.3288 62.2398 14.2537 62.2915 14.1768C62.3406 14.1049 62.3836 14.0289 62.4201 13.9496C62.3651 13.9293 62.3153 13.8966 62.2746 13.8539C62.2098 13.7789 62.1578 13.6934 62.1207 13.6009" fill="#CC0066"/>
<path d="M66.461 12.3243C66.3759 12.2562 66.2692 12.2222 66.1611 12.2287C66.0803 12.2283 66.0002 12.2446 65.9258 12.2765C65.8497 12.3093 65.7798 12.3549 65.7187 12.4114C65.7244 12.4382 65.7287 12.4654 65.7314 12.4927C65.7342 12.5214 65.7356 12.5501 65.7356 12.5783V14.1143C65.7076 14.1255 65.6785 14.1341 65.649 14.1401C65.6096 14.1489 65.5693 14.1532 65.529 14.153C65.46 14.1585 65.3914 14.1396 65.3346 14.0995C65.3117 14.0764 65.2942 14.0485 65.2833 14.0177C65.2724 13.9869 65.2683 13.9541 65.2715 13.9215V12.63C65.2764 12.5739 65.2692 12.5173 65.2502 12.4643C65.2313 12.4113 65.2011 12.3632 65.1619 12.3234C65.0768 12.2553 64.9701 12.2213 64.862 12.2277C64.7816 12.2273 64.7018 12.2419 64.6267 12.2708C64.5616 12.2956 64.4994 12.3277 64.4412 12.3664V14.1167C64.4132 14.1279 64.3842 14.1365 64.3546 14.1425C64.3136 14.1514 64.2718 14.1558 64.2299 14.1554C64.1629 14.1602 64.0964 14.1412 64.0416 14.1018C64.0186 14.0789 64.001 14.051 63.99 14.0202C63.979 13.9894 63.9749 13.9565 63.9781 13.9239V12.354C63.9749 12.2921 63.9888 12.2305 64.0181 12.1761C64.0534 12.1227 64.0984 12.0767 64.1508 12.0407C64.3687 11.9028 64.6199 11.8286 64.8766 11.8264C65.0048 11.8241 65.1323 11.8452 65.2532 11.8886C65.3575 11.9264 65.4516 11.9889 65.5276 12.0708C65.6161 11.9981 65.7149 11.9396 65.8208 11.8972C65.9479 11.8476 66.0833 11.8236 66.2195 11.8264C66.331 11.8256 66.4421 11.8418 66.5489 11.8742C66.6447 11.9025 66.7333 11.9515 66.8088 12.0177C66.8828 12.0854 66.9412 12.1688 66.9796 12.2622C67.0245 12.3745 67.0461 12.495 67.0432 12.6161V14.1176C67.0123 14.1278 66.9809 14.1365 66.9491 14.1435C66.9097 14.1522 66.8694 14.1566 66.829 14.1564C66.7621 14.161 66.6956 14.1421 66.6408 14.1028C66.6178 14.0798 66.6002 14.0519 66.5892 14.0211C66.5782 13.9903 66.5741 13.9575 66.5772 13.9249V12.6334C66.5823 12.5772 66.5751 12.5206 66.5561 12.4676C66.5372 12.4146 66.5069 12.3665 66.4675 12.3267" fill="#CC0066"/>
<path d="M68.0178 13.2617C68.0449 13.4215 68.1309 13.5649 68.2583 13.6625C68.3957 13.7545 68.558 13.8001 68.7224 13.7931C68.8385 13.7946 68.9539 13.7735 69.0622 13.7309C69.1506 13.697 69.2349 13.653 69.3136 13.5999C69.3521 13.6202 69.3843 13.6511 69.4066 13.6889C69.429 13.7267 69.4406 13.7701 69.4402 13.8142C69.4397 13.8699 69.4187 13.9235 69.3813 13.9644C69.3363 14.0144 69.2817 14.0546 69.2209 14.0825C69.1457 14.1181 69.0667 14.1447 68.9855 14.1619C68.7325 14.2141 68.4705 14.1976 68.2258 14.1141C68.0897 14.0656 67.9658 13.9872 67.8629 13.8845C67.758 13.7779 67.6776 13.649 67.6276 13.5071C67.5701 13.341 67.5422 13.166 67.5452 12.99C67.542 12.8186 67.5684 12.6479 67.6233 12.4858C67.6698 12.3507 67.7439 12.2271 67.8408 12.1233C67.9332 12.0263 68.0446 11.9504 68.1679 11.9003C68.2948 11.8486 68.4303 11.8225 68.5671 11.8233C68.7008 11.8215 68.8335 11.847 68.9572 11.8984C69.0707 11.9457 69.1736 12.016 69.2596 12.1048C69.3456 12.1937 69.4129 12.2994 69.4576 12.4155C69.5064 12.5411 69.5306 12.6751 69.5291 12.8101C69.5319 12.8417 69.5285 12.8736 69.519 12.9038C69.5095 12.934 69.4943 12.962 69.4741 12.9862C69.4309 13.0266 69.3761 13.052 69.3178 13.0589L68.0178 13.2617ZM68.5666 12.2093C68.4901 12.2075 68.4142 12.2225 68.3439 12.2532C68.2737 12.2839 68.2108 12.3297 68.1595 12.3873C68.0431 12.5281 67.9822 12.7077 67.9886 12.8915L69.0858 12.724C69.0781 12.5896 69.0269 12.4615 68.9403 12.3596C68.8928 12.3081 68.8348 12.2679 68.7702 12.242C68.7057 12.216 68.6359 12.2049 68.5666 12.2093Z" fill="#CC0066"/>
<path d="M71.2938 12.3373C71.1999 12.2601 71.0812 12.2211 70.9606 12.2278C70.866 12.2263 70.7718 12.2409 70.6819 12.2708C70.6089 12.2961 70.5383 12.3281 70.471 12.3665V14.1167C70.443 14.1279 70.414 14.1366 70.3844 14.1426C70.3435 14.1515 70.3016 14.1558 70.2597 14.1555C70.1927 14.1602 70.1262 14.1413 70.0714 14.1019C70.0484 14.0789 70.0308 14.051 70.0198 14.0202C70.0088 13.9895 70.0047 13.9566 70.0079 13.924V12.3541C70.0049 12.2921 70.0188 12.2306 70.0479 12.1761C70.0833 12.1227 70.1285 12.0768 70.1811 12.0408C70.2849 11.9814 70.3946 11.9333 70.5083 11.8973C70.6549 11.8496 70.8081 11.8265 70.962 11.8288C71.2049 11.8148 71.4448 11.8885 71.6393 12.0369C71.7249 12.1156 71.7917 12.2132 71.8345 12.3221C71.8773 12.431 71.8951 12.5485 71.8864 12.6655V14.1196C71.8567 14.1303 71.8264 14.1389 71.7956 14.1454C71.7548 14.1543 71.7131 14.1587 71.6713 14.1583C71.6043 14.1631 71.5378 14.1441 71.483 14.1048C71.4601 14.0818 71.4426 14.0538 71.4316 14.0231C71.4207 13.9923 71.4167 13.9594 71.4199 13.9268V12.6832C71.4252 12.6207 71.417 12.5578 71.3959 12.4989C71.3747 12.44 71.3412 12.3865 71.2976 12.3421" fill="#CC0066"/>
<path d="M73.064 13.7147C73.1422 13.7661 73.2346 13.7909 73.3276 13.7855C73.3819 13.785 73.4359 13.7771 73.4881 13.762C73.5393 13.7484 73.5889 13.729 73.6359 13.7041C73.6564 13.7311 73.6749 13.7598 73.691 13.7898C73.7186 13.8455 73.7242 13.9099 73.7067 13.9697C73.6892 14.0295 73.6499 14.0803 73.5968 14.1117C73.488 14.173 73.3642 14.2013 73.2401 14.193C73.0493 14.2029 72.861 14.1461 72.7063 14.0323C72.6348 13.9665 72.5795 13.8847 72.5447 13.7933C72.5099 13.702 72.4966 13.6036 72.5058 13.5061V11.2799C72.5365 11.2691 72.568 11.2604 72.5999 11.2541C72.6416 11.2453 72.684 11.241 72.7265 11.2412C72.7925 11.2357 72.8583 11.254 72.9124 11.2928C72.9343 11.3161 72.9509 11.3438 72.9612 11.3742C72.9714 11.4046 72.975 11.4369 72.9717 11.4689V11.9405H73.6641C73.678 11.9664 73.6893 11.9937 73.698 12.0218C73.7095 12.0578 73.7153 12.0954 73.715 12.1333C73.715 12.2679 73.66 12.335 73.5502 12.3347H72.9717V13.4717C72.967 13.5168 72.973 13.5625 72.9894 13.6047C73.0058 13.6469 73.0321 13.6845 73.0659 13.7142" fill="#CC0066"/>
<path d="M75.7466 13.5105C75.7508 13.6056 75.7329 13.7004 75.6944 13.7873C75.6559 13.8741 75.5978 13.9505 75.5249 14.0103C75.3371 14.1441 75.1098 14.2085 74.881 14.1926C74.772 14.1934 74.6632 14.1833 74.5562 14.1624C74.4701 14.1466 74.3863 14.1192 74.3072 14.0811C74.2458 14.0516 74.1913 14.0092 74.1472 13.9568C74.1093 13.9128 74.0883 13.8564 74.0879 13.7979C74.0877 13.7523 74.0986 13.7073 74.1194 13.6669C74.1408 13.6249 74.1734 13.5899 74.2136 13.566C74.3025 13.6272 74.3971 13.6796 74.496 13.7224C74.6136 13.7717 74.7401 13.7958 74.8674 13.7932C74.9749 13.8003 75.0821 13.775 75.1756 13.7205C75.2095 13.6977 75.2371 13.6664 75.2556 13.6296C75.2741 13.5928 75.2828 13.5517 75.281 13.5105C75.2829 13.4753 75.2774 13.4401 75.2651 13.4071C75.2528 13.3742 75.2339 13.3442 75.2095 13.3191C75.1479 13.2647 75.0737 13.227 74.9939 13.2096L74.6899 13.124C74.5248 13.0859 74.3721 13.0053 74.2465 12.8901C74.1975 12.8356 74.1597 12.7716 74.1355 12.702C74.1112 12.6324 74.101 12.5586 74.1053 12.4849C74.1049 12.3953 74.1236 12.3067 74.1603 12.2252C74.1968 12.144 74.2509 12.0722 74.3185 12.0152C74.3955 11.9523 74.4838 11.905 74.5783 11.876C74.6931 11.84 74.8127 11.8226 74.9327 11.8243C75.0319 11.8233 75.131 11.8326 75.2284 11.8521C75.3062 11.8676 75.382 11.8922 75.4543 11.9253C75.5113 11.9504 75.5619 11.9885 75.6021 12.0367C75.6357 12.0768 75.6543 12.1276 75.6548 12.1802C75.6558 12.2252 75.6449 12.2696 75.6233 12.3089C75.6037 12.3441 75.5771 12.3748 75.5451 12.3988C75.468 12.3544 75.3876 12.3164 75.3046 12.285C75.197 12.2429 75.0824 12.2218 74.9671 12.2228C74.8642 12.2168 74.7618 12.2405 74.6715 12.2912C74.6435 12.3091 74.6196 12.333 74.6017 12.3613C74.5837 12.3896 74.5721 12.4215 74.5676 12.4548C74.5631 12.4882 74.5659 12.5221 74.5757 12.5543C74.5855 12.5864 74.6022 12.616 74.6245 12.6409C74.6835 12.6925 74.755 12.7273 74.8316 12.7418L75.0933 12.8107C75.2772 12.8542 75.4477 12.9435 75.5894 13.0704C75.6436 13.129 75.6856 13.1981 75.7128 13.2737C75.74 13.3493 75.7518 13.4297 75.7475 13.51" fill="#CC0066"/>
<path d="M11.3198 6.76465V15.1389C11.3198 15.6871 11.1544 16.2221 10.8457 16.6717C10.5371 17.1213 10.1001 17.4638 9.59382 17.653L2.07881 20.4618C1.96053 20.5061 1.83346 20.5207 1.70843 20.5044C1.58339 20.4881 1.46409 20.4413 1.36069 20.368C1.25729 20.2947 1.17284 20.1971 1.11454 20.0835C1.05625 19.9699 1.02583 19.8437 1.02588 19.7156V12.6099C1.02612 12.1826 1.15512 11.7656 1.39553 11.4149C1.63594 11.0643 1.97623 10.7969 2.37064 10.6487L9.31658 8.03798C10.4128 7.58691 10.8411 7.31091 11.3203 6.76704" fill="white"/>
<path d="M17.9273 8.88387C17.9194 9.19524 17.7955 9.49195 17.5805 9.71397C17.3655 9.93598 17.0756 10.0667 16.7694 10.0797H15.1945C15.1036 10.0819 15.0157 10.0473 14.9499 9.98367C14.8842 9.91998 14.846 9.83237 14.8438 9.74009V6.25398C14.8431 6.20774 14.8515 6.16183 14.8686 6.11897C14.8857 6.07611 14.9111 6.03718 14.9433 6.00448C14.9755 5.97177 15.0138 5.94597 15.056 5.9286C15.0981 5.91124 15.1433 5.90265 15.1888 5.90336H16.7087C16.936 5.91558 17.155 5.99455 17.339 6.1307C17.5231 6.26685 17.6643 6.45434 17.7456 6.67043C17.8269 6.88652 17.8448 7.12194 17.7971 7.34815C17.7494 7.57437 17.6381 7.78166 17.4768 7.9449C17.6158 8.05763 17.7284 8.20037 17.8063 8.36277C17.8843 8.52517 17.9253 8.70317 17.9273 8.88387ZM15.5122 7.6402L16.631 7.62872C16.7669 7.62418 16.896 7.56729 16.9922 7.46958C17.0883 7.37187 17.1443 7.24066 17.1487 7.10255C17.1479 6.96971 17.0964 6.84238 17.005 6.74743C16.9136 6.65248 16.7894 6.59732 16.6588 6.5936H15.5122V7.6402ZM17.2377 8.88387C17.2284 8.74311 17.168 8.61087 17.0683 8.51271C16.9686 8.41455 16.8366 8.35745 16.6978 8.35244H15.5399V9.39856H16.7308C16.8637 9.39426 16.9901 9.33865 17.0842 9.24304C17.1783 9.14744 17.233 9.01901 17.2372 8.88387" fill="white"/>
<path d="M20.6666 8.3524H20.1602V9.73958C20.1582 9.83089 20.1208 9.91771 20.0562 9.98121C19.9916 10.0447 19.905 10.0797 19.8152 10.0787C19.7267 10.0785 19.6419 10.0427 19.5793 9.97914C19.5167 9.9156 19.4813 9.82949 19.481 9.73958V6.24246C19.4838 6.15143 19.5214 6.06511 19.5858 6.00179C19.6502 5.93847 19.7364 5.90315 19.826 5.90332H21.0446C21.3579 5.91027 21.6567 6.03912 21.8793 6.2633C22.1019 6.48748 22.2314 6.78991 22.2411 7.10825C22.2353 7.36499 22.1528 7.61387 22.0047 7.82195C21.8566 8.03003 21.6498 8.18749 21.4117 8.27348L22.1855 9.55733C22.2306 9.63639 22.2437 9.7302 22.2219 9.81886C22.2001 9.90753 22.1452 9.98409 22.0688 10.0323C22.0159 10.0619 21.9565 10.0775 21.8961 10.0778C21.8381 10.0777 21.781 10.0626 21.7304 10.0339C21.6797 10.0052 21.6371 9.96381 21.6066 9.91369L20.6666 8.3524ZM21.5685 7.11351C21.5621 6.97166 21.5016 6.83792 21.3997 6.74073C21.2978 6.64354 21.1626 6.59057 21.0229 6.59308H20.1602V7.66216H21.0229C21.1667 7.6623 21.3047 7.60472 21.4068 7.50196C21.509 7.3992 21.5671 7.25959 21.5685 7.11351Z" fill="white"/>
<path d="M26.1477 10.0773C25.605 10.0714 25.0866 9.84733 24.7059 9.45411C24.3252 9.06088 24.1132 8.53049 24.1162 7.97888C24.1233 7.57276 24.2482 7.1778 24.4753 6.84355C24.7024 6.50931 25.0216 6.25067 25.3928 6.10008C25.764 5.94949 26.1707 5.91366 26.5619 5.9971C26.953 6.08053 27.3112 6.2795 27.5915 6.56905C27.8719 6.8586 28.0618 7.22582 28.1375 7.62465C28.2132 8.02348 28.1713 8.43615 28.0171 8.81088C27.8629 9.18561 27.6032 9.50571 27.2706 9.73102C26.9381 9.95632 26.5474 10.0768 26.1477 10.0773ZM24.7729 7.97888C24.7733 8.25581 24.8546 8.52638 25.0064 8.75637C25.1582 8.98636 25.3737 9.16544 25.6256 9.27096C25.8776 9.37648 26.1547 9.40369 26.4218 9.34916C26.689 9.29464 26.9342 9.16082 27.1266 8.96463C27.3189 8.76845 27.4497 8.5187 27.5023 8.24699C27.555 7.97527 27.5271 7.6938 27.4224 7.43815C27.3176 7.18251 27.1406 6.96419 26.9137 6.81079C26.6868 6.6574 26.4202 6.57583 26.1477 6.5764C25.7833 6.58003 25.4349 6.72912 25.1777 6.99151C24.9205 7.25389 24.7751 7.60852 24.7729 7.97888Z" fill="white"/>
<path d="M32.9833 10.0493C32.9402 10.0664 32.8942 10.0745 32.848 10.0731C32.8018 10.0718 32.7563 10.061 32.7142 10.0415C32.6722 10.022 32.6344 9.99405 32.6032 9.95941C32.572 9.92477 32.5479 9.8841 32.5324 9.83983L31.591 7.25682L30.6449 9.83983C30.6305 9.88422 30.6073 9.92513 30.5767 9.96003C30.5461 9.99493 30.5087 10.0231 30.467 10.0427C30.4253 10.0623 30.38 10.0731 30.334 10.0742C30.288 10.0754 30.2423 10.0669 30.1996 10.0493C30.1558 10.0341 30.1154 10.0098 30.081 9.9782C30.0466 9.94654 30.019 9.90811 29.9997 9.86524C29.9804 9.82236 29.9699 9.77594 29.9688 9.72881C29.9678 9.68168 29.9762 9.63483 29.9935 9.5911L31.2512 6.12364C31.2776 6.05436 31.3243 5.99498 31.385 5.9535C31.4457 5.91202 31.5174 5.89043 31.5905 5.89165C31.6633 5.892 31.7344 5.91422 31.7947 5.9555C31.8551 5.99678 31.9022 6.05528 31.9299 6.12364L33.1876 9.5911C33.2049 9.6348 33.2133 9.68163 33.2123 9.72873C33.2113 9.77584 33.2008 9.82224 33.1816 9.86511C33.1623 9.90798 33.1347 9.94642 33.1004 9.97809C33.066 10.0098 33.0257 10.034 32.9819 10.0493" fill="white"/>
<path d="M34.5913 9.73852V6.2591C34.5935 6.16984 34.6293 6.08485 34.6914 6.02171C34.7536 5.95858 34.8372 5.92214 34.925 5.91996H35.7544C36.0531 5.91818 36.3488 5.97976 36.6228 6.10077C36.8861 6.21815 37.1214 6.39173 37.3128 6.60972C37.5038 6.83013 37.6464 7.08944 37.7309 7.37032C37.8154 7.6512 37.8399 7.94717 37.8028 8.23845C37.7414 8.74427 37.5007 9.20998 37.1257 9.54837C36.7507 9.88676 36.2672 10.0746 35.7657 10.0767H34.9255C34.8376 10.0745 34.754 10.0381 34.6919 9.97495C34.6298 9.91182 34.5939 9.82682 34.5918 9.73756M37.1297 8.15905C37.1591 7.9637 37.146 7.76417 37.0912 7.57456C37.0363 7.38494 36.9412 7.20988 36.8125 7.06175C36.6794 6.91133 36.5161 6.79163 36.3337 6.71069C36.1513 6.62975 35.9539 6.58945 35.7548 6.5925H35.2597V9.39794H35.7661C36.1037 9.3981 36.4296 9.27186 36.6814 9.04332C36.9332 8.81478 37.0933 8.49998 37.1311 8.15905" fill="white"/>
<path d="M41.1085 9.49471C40.9419 9.75043 40.6853 9.9316 40.3913 10.001C40.0974 10.0704 39.7884 10.0227 39.5279 9.86781C39.4481 9.81859 39.3891 9.74096 39.3624 9.65001C39.3357 9.55905 39.3432 9.46125 39.3834 9.3756C39.4439 9.30463 39.5284 9.25941 39.6202 9.24895C39.7119 9.23849 39.8042 9.26356 39.8786 9.31916C39.994 9.38281 40.1288 9.39955 40.2559 9.36598C40.383 9.33241 40.4927 9.25105 40.563 9.13835C40.6018 9.0797 40.6289 9.01385 40.6426 8.94456C40.6564 8.87527 40.6565 8.80391 40.6431 8.73456C40.6297 8.66521 40.6029 8.59922 40.5644 8.54039C40.5258 8.48155 40.4763 8.43101 40.4185 8.39167C40.146 8.21612 40.1361 8.21086 39.873 8.03531C39.6125 7.86351 39.4298 7.5936 39.3651 7.28493C39.3004 6.97627 39.359 6.65412 39.5279 6.38935C39.6963 6.13574 39.9528 5.95626 40.246 5.88696C40.5392 5.81766 40.8474 5.86368 41.1085 6.01577C41.1858 6.06164 41.2427 6.13592 41.2676 6.22325C41.2925 6.31059 41.2834 6.40431 41.2422 6.48502C41.187 6.55898 41.1059 6.6085 41.0157 6.62328C40.9255 6.63807 40.8331 6.61699 40.7578 6.56442C40.6374 6.50212 40.4981 6.48909 40.3685 6.52802C40.2389 6.56696 40.129 6.65489 40.0612 6.77372C39.9935 6.89255 39.9732 7.03324 40.0045 7.16684C40.0357 7.30044 40.1162 7.41678 40.2293 7.49192C40.3705 7.58232 40.3705 7.58232 40.7692 7.84828C40.8979 7.93362 41.0088 8.04392 41.0955 8.17287C41.1823 8.30181 41.2432 8.44687 41.2747 8.59974C41.3062 8.75262 41.3077 8.91031 41.2792 9.0638C41.2507 9.21728 41.1927 9.36403 41.1085 9.49471Z" fill="white"/>
<path d="M44.8669 8.34212C44.5557 8.36459 44.2434 8.36842 43.9317 8.3536V9.74078C43.9297 9.83209 43.8924 9.91892 43.8278 9.98241C43.7632 10.0459 43.6765 10.0809 43.5867 10.0799C43.4983 10.0795 43.4136 10.0437 43.3511 9.98017C43.2886 9.91665 43.2533 9.83061 43.253 9.74078V6.25323C43.2524 6.20853 43.2606 6.16417 43.2772 6.12276C43.2937 6.08136 43.3183 6.04374 43.3494 6.01213C43.3805 5.98052 43.4175 5.95557 43.4583 5.93873C43.499 5.92189 43.5427 5.91351 43.5867 5.91409H44.8335C45.1442 5.92393 45.4392 6.05527 45.657 6.28074C45.8747 6.50621 45.9984 6.80839 46.0022 7.12428C45.9972 7.43461 45.8778 7.73172 45.6675 7.95686C45.4573 8.18201 45.1716 8.31881 44.8669 8.34021M44.7893 6.59285H43.9322V7.66193H44.7893C44.9327 7.66107 45.0701 7.60317 45.1721 7.50063C45.2741 7.39808 45.3325 7.25904 45.3348 7.11328C45.3275 6.97176 45.2667 6.83858 45.165 6.74158C45.0633 6.64459 44.9287 6.5913 44.7893 6.59285Z" fill="white"/>
<path d="M47.7822 9.73817V6.24249C47.7826 6.15266 47.8179 6.06662 47.8804 6.0031C47.9429 5.93958 48.0275 5.90373 48.1159 5.90335H50.1211C50.211 5.90219 50.2977 5.93719 50.3623 6.00071C50.4269 6.06424 50.4642 6.15114 50.4661 6.24249C50.4656 6.33532 50.4291 6.42421 50.3645 6.48986C50.2999 6.55551 50.2124 6.59261 50.1211 6.59311H48.4624V7.66219H49.7149C49.7589 7.66161 49.8025 7.66999 49.8432 7.68683C49.884 7.70367 49.921 7.72862 49.9521 7.76023C49.9832 7.79184 50.0078 7.82946 50.0243 7.87087C50.0409 7.91227 50.0492 7.95663 50.0486 8.00133C50.0492 8.04607 50.041 8.09048 50.0245 8.13194C50.0079 8.17341 49.9834 8.21108 49.9523 8.24274C49.9212 8.2744 49.8841 8.2994 49.8434 8.31627C49.8026 8.33313 49.7589 8.34153 49.7149 8.34095H48.4624V9.38707H50.1211C50.2124 9.38757 50.2999 9.42467 50.3645 9.49032C50.4291 9.55596 50.4656 9.64485 50.4661 9.73769C50.4641 9.829 50.4268 9.91583 50.3622 9.97933C50.2976 10.0428 50.2109 10.0779 50.1211 10.0768H48.1174C48.029 10.0765 47.9443 10.0406 47.8818 9.97708C47.8193 9.91356 47.784 9.82752 47.7836 9.73769" fill="white"/>
<path d="M55.7031 9.62501C55.3487 9.91148 54.909 10.067 54.4562 10.066C53.9115 10.066 53.3891 9.84614 53.0039 9.45471C52.6187 9.06328 52.4023 8.53239 52.4023 7.97882C52.4023 7.42526 52.6187 6.89436 53.0039 6.50293C53.3891 6.1115 53.9115 5.8916 54.4562 5.8916C54.8262 5.89211 55.1887 5.998 55.5026 6.19726C55.542 6.21809 55.5769 6.24681 55.6051 6.2817C55.6333 6.31659 55.6543 6.35692 55.6668 6.40027C55.6793 6.44361 55.683 6.48908 55.6777 6.53393C55.6725 6.57878 55.6584 6.62209 55.6362 6.66124C55.6136 6.70002 55.5834 6.73364 55.5474 6.76001C55.5115 6.78638 55.4705 6.80492 55.4272 6.81449C55.3839 6.82405 55.3391 6.82443 55.2956 6.81559C55.2521 6.80675 55.2109 6.78889 55.1745 6.76313C54.9574 6.63206 54.7092 6.56359 54.4567 6.5651C54.2762 6.5651 54.0974 6.60125 53.9307 6.67147C53.7639 6.7417 53.6124 6.84464 53.4848 6.97439C53.3572 7.10415 53.256 7.25819 53.187 7.4277C53.118 7.59721 53.0826 7.77888 53.0827 7.96232C53.0765 8.22505 53.1434 8.48423 53.2755 8.7101C53.4077 8.93597 53.5999 9.11938 53.83 9.23926C54.0602 9.35914 54.3189 9.41063 54.5765 9.38783C54.8341 9.36502 55.0802 9.26883 55.2865 9.11032C55.3188 9.08215 55.3564 9.06081 55.397 9.04754C55.4375 9.03427 55.4803 9.02934 55.5227 9.03304C55.5652 9.03673 55.6065 9.04898 55.6442 9.06907C55.682 9.08915 55.7154 9.11667 55.7426 9.15002C55.7992 9.21835 55.8269 9.30669 55.8196 9.39572C55.8123 9.48474 55.7705 9.56719 55.7035 9.62501" fill="white"/>
<path d="M60.3387 6.23663C60.3387 6.28096 60.3301 6.32486 60.3132 6.36577C60.2964 6.40667 60.2718 6.44378 60.2407 6.47493C60.2097 6.50608 60.1729 6.53065 60.1324 6.54722C60.0919 6.56379 60.0486 6.57203 60.005 6.57146H59.1874V9.739C59.1874 9.82825 59.1525 9.91384 59.0904 9.97695C59.0283 10.0401 58.9441 10.0755 58.8563 10.0755C58.7685 10.0755 58.6842 10.0401 58.6221 9.97695C58.56 9.91384 58.5252 9.82825 58.5252 9.739V6.57051H57.7071C57.6193 6.57051 57.5351 6.53505 57.473 6.47195C57.4109 6.40884 57.376 6.32325 57.376 6.234C57.376 6.14475 57.4109 6.05916 57.473 5.99605C57.5351 5.93294 57.6193 5.89749 57.7071 5.89749H60.0055C60.0495 5.89691 60.0931 5.90529 60.1339 5.92213C60.1746 5.93896 60.2116 5.96392 60.2427 5.99553C60.2738 6.02714 60.2984 6.06475 60.315 6.10616C60.3315 6.14757 60.3393 6.19193 60.3387 6.23663Z" fill="white"/>
<path d="M63.1944 8.3524H62.688V9.73958C62.686 9.83089 62.6487 9.91771 62.5841 9.98121C62.5195 10.0447 62.4328 10.0797 62.343 10.0787C62.2545 10.0785 62.1697 10.0427 62.1071 9.97914C62.0445 9.9156 62.0092 9.82949 62.0088 9.73958V6.24246C62.0116 6.15143 62.0492 6.06511 62.1136 6.00179C62.178 5.93847 62.2642 5.90315 62.3538 5.90332H63.5729C63.8862 5.91027 64.185 6.03912 64.4076 6.2633C64.6302 6.48748 64.7597 6.78991 64.7694 7.10825C64.7636 7.36499 64.6812 7.61387 64.5331 7.82195C64.3849 8.03003 64.1781 8.18749 63.94 8.27348L64.7138 9.55733C64.7589 9.63645 64.7718 9.7303 64.75 9.81897C64.7281 9.90764 64.6731 9.98417 64.5966 10.0323C64.5437 10.0619 64.4843 10.0775 64.4239 10.0778C64.3659 10.0777 64.3088 10.0626 64.2582 10.0339C64.2075 10.0052 64.1649 9.96381 64.1344 9.91369L63.1944 8.3524ZM64.0963 7.11351C64.0899 6.97166 64.0294 6.83792 63.9275 6.74073C63.8256 6.64354 63.6905 6.59057 63.5508 6.59308H62.688V7.66216H63.5508C63.6945 7.6623 63.8325 7.60472 63.9346 7.50196C64.0368 7.3992 64.0949 7.25959 64.0963 7.11351Z" fill="white"/>
<path d="M69.6506 6.23672V8.54995C69.6541 8.75277 69.6179 8.95427 69.544 9.14268C69.47 9.3311 69.3599 9.50267 69.22 9.64737C69.0801 9.79206 68.9133 9.90699 68.7292 9.98545C68.5452 10.0639 68.3475 10.1043 68.1479 10.1043C67.9483 10.1043 67.7507 10.0639 67.5666 9.98545C67.3826 9.90699 67.2157 9.79206 67.0758 9.64737C66.936 9.50267 66.8258 9.3311 66.7519 9.14268C66.678 8.95427 66.6417 8.75277 66.6453 8.54995V6.23672C66.6453 6.14519 66.681 6.05741 66.7447 5.99269C66.8084 5.92796 66.8948 5.8916 66.9848 5.8916C67.0749 5.8916 67.1613 5.92796 67.225 5.99269C67.2887 6.05741 67.3245 6.14519 67.3245 6.23672V8.54995C67.3245 8.77349 67.4118 8.98786 67.5674 9.14592C67.7229 9.30398 67.9338 9.39278 68.1538 9.39278C68.3737 9.39278 68.5847 9.30398 68.7403 9.14592C68.8958 8.98786 68.9832 8.77349 68.9832 8.54995V6.23672C68.9826 6.19203 68.9909 6.14766 69.0074 6.10626C69.024 6.06485 69.0486 6.02723 69.0797 5.99562C69.1108 5.96402 69.1477 5.93906 69.1885 5.92222C69.2292 5.90538 69.2729 5.897 69.3169 5.89758C69.3609 5.897 69.4045 5.90538 69.4453 5.92222C69.486 5.93906 69.523 5.96402 69.5541 5.99562C69.5852 6.02723 69.6098 6.06485 69.6264 6.10626C69.6429 6.14766 69.6512 6.19203 69.6506 6.23672Z" fill="white"/>
<path d="M75.6446 9.66474C75.6567 9.70636 75.6602 9.75003 75.6552 9.7931C75.6501 9.83617 75.6365 9.87775 75.6152 9.91532C75.5938 9.95289 75.5652 9.98566 75.531 10.0117C75.4968 10.0376 75.4578 10.0563 75.4164 10.0665H75.3994C75.3938 10.0665 75.3937 10.0665 75.3886 10.078H75.3495C75.2716 10.0774 75.1964 10.0495 75.1364 9.99901C75.0764 9.94857 75.0353 9.87867 75.02 9.80106L74.5635 7.53853L73.7233 9.82928C73.7009 9.89841 73.6577 9.95861 73.5997 10.0013C73.5418 10.044 73.472 10.0669 73.4004 10.0669C73.3288 10.0669 73.259 10.044 73.201 10.0013C73.1431 9.95861 73.0998 9.89841 73.0775 9.82928L72.3371 7.64616L71.9474 9.80106C71.9351 9.88055 71.8949 9.95288 71.8344 10.0048C71.7739 10.0567 71.6971 10.0847 71.6179 10.0838C71.6009 10.0838 71.5788 10.078 71.5623 10.078C71.5176 10.0714 71.475 10.0548 71.4375 10.0293C71.3999 10.0038 71.3684 9.97012 71.3454 9.93069C71.3185 9.89602 71.2996 9.85571 71.29 9.81269C71.2804 9.76966 71.2803 9.725 71.2898 9.68195L71.8631 6.17528C71.8774 6.09894 71.9163 6.02965 71.9738 5.97842C72.0313 5.92719 72.104 5.89698 72.1804 5.89258H72.2081C72.2799 5.89253 72.3499 5.91568 72.408 5.95866C72.466 6.00165 72.5091 6.06226 72.531 6.13175L73.4102 8.64875L74.3286 6.12027C74.35 6.05261 74.3926 5.99392 74.4499 5.95309C74.5071 5.91226 74.5759 5.89152 74.6458 5.89401H74.6628C74.7387 5.89452 74.8121 5.92277 74.8693 5.97361C74.9265 6.02445 74.9637 6.0945 74.9743 6.17097L75.6446 9.66474Z" fill="white"/>
</g>
</svg>
