<svg width="76" height="21" viewBox="0 0 76 21" fill="none" xmlns="http://www.w3.org/2000/svg">
<mask id="mask0_2057_101333" style="mask-type:luminance" maskUnits="userSpaceOnUse" x="0" y="0" width="76" height="21">
<path d="M75.7464 0.494141H0.835449V20.5135H75.7464V0.494141Z" fill="white"/>
</mask>
<g mask="url(#mask0_2057_101333)">
<path d="M8.97318 3.52417L2.13502 0.570924C1.99299 0.50949 1.83819 0.484792 1.68447 0.49904C1.53075 0.513288 1.38291 0.566038 1.25416 0.652569C1.12541 0.739101 1.01978 0.856716 0.946707 0.994893C0.873638 1.13307 0.835412 1.2875 0.835449 1.44436V9.04512C0.835445 9.20673 0.873973 9.36593 0.947738 9.5091C1.0215 9.65227 1.12831 9.77514 1.25901 9.8672C1.3897 9.95926 1.54041 10.0178 1.69822 10.0377C1.85603 10.0576 2.01624 10.0384 2.16514 9.9817L6.70211 8.253L1.78671 6.17176C1.71633 6.13868 1.66129 6.07918 1.63316 6.00574C1.60503 5.93231 1.60598 5.85065 1.63583 5.77792C1.66568 5.70519 1.72209 5.64704 1.79323 5.61567C1.86437 5.58431 1.94469 5.58217 2.01735 5.60971L7.5244 7.94016L9.07249 7.3499C11.7215 6.41619 11.8594 4.55068 8.97365 3.52321M9.62132 5.94168C9.59073 6.01604 9.53239 6.07505 9.45909 6.1058C9.38578 6.13655 9.30347 6.13653 9.23017 6.10575L1.67469 2.90807C1.63837 2.89271 1.60539 2.87024 1.57762 2.84192C1.54986 2.81361 1.52785 2.78002 1.51286 2.74306C1.48258 2.66843 1.48272 2.58463 1.51324 2.5101C1.54376 2.43557 1.60217 2.37641 1.67561 2.34564C1.74905 2.31487 1.83151 2.31501 1.90485 2.34603L9.45987 5.54466C9.49626 5.56 9.5293 5.58248 9.55712 5.61083C9.58494 5.63917 9.60698 5.67281 9.62198 5.70983C9.63698 5.74685 9.64464 5.78651 9.64452 5.82654C9.64441 5.86657 9.63652 5.90618 9.62132 5.94311" fill="#CC0066"/>
<path d="M45.6424 12.6543C45.6469 12.8832 45.6118 13.1112 45.5389 13.3278C45.4773 13.5074 45.3771 13.6708 45.2456 13.8062C45.1171 13.9347 44.9612 14.0316 44.79 14.0893C44.5993 14.153 44.3995 14.1842 44.1988 14.1816C44.1047 14.1816 43.9934 14.1773 43.8651 14.1687C43.7441 14.162 43.6248 14.1375 43.5107 14.096C43.4521 14.0843 43.3994 14.0522 43.3617 14.0052C43.324 13.9582 43.3036 13.8993 43.304 13.8387V11.4532C43.3013 11.4071 43.3165 11.3617 43.3464 11.3269C43.3783 11.2944 43.4173 11.2702 43.4603 11.2561C43.5723 11.2207 43.6876 11.1976 43.8044 11.1873C43.9267 11.1758 44.0457 11.17 44.1612 11.17C44.3657 11.1678 44.5693 11.1981 44.7646 11.26C44.94 11.3148 45.101 11.4093 45.2353 11.5365C45.3686 11.6669 45.4717 11.8259 45.537 12.0019C45.6127 12.2104 45.6493 12.4316 45.6448 12.6538M45.151 12.6581C45.1547 12.4935 45.1297 12.3294 45.0771 12.1736C45.0338 12.0489 44.963 11.936 44.87 11.8435C44.7809 11.7573 44.6742 11.692 44.5575 11.6522C44.4329 11.61 44.3024 11.589 44.1711 11.59C44.0408 11.5878 43.9107 11.5993 43.7827 11.6245V13.7263C43.8473 13.7415 43.9129 13.7516 43.979 13.7564C44.0509 13.7622 44.1248 13.765 44.2007 13.765C44.3313 13.7739 44.4622 13.7535 44.5842 13.7053C44.7062 13.6571 44.8163 13.5823 44.9067 13.4861C45.0847 13.2497 45.1711 12.9551 45.1496 12.6581" fill="#CC0066"/>
<path d="M46.1412 11.209C46.1402 11.1708 46.1465 11.1328 46.1599 11.0971C46.1733 11.0613 46.1935 11.0287 46.2194 11.0009C46.2457 10.9731 46.2776 10.9512 46.3129 10.9368C46.3482 10.9223 46.3861 10.9157 46.4241 10.9172C46.4615 10.916 46.4986 10.9228 46.5332 10.9372C46.5678 10.9517 46.5989 10.9734 46.6246 11.0009C46.675 11.0582 46.7028 11.1322 46.7028 11.209C46.7028 11.2858 46.675 11.3598 46.6246 11.4171C46.5989 11.4446 46.5678 11.4663 46.5332 11.4808C46.4986 11.4952 46.4615 11.502 46.4241 11.5008C46.3861 11.5023 46.3482 11.4957 46.3129 11.4812C46.2776 11.4668 46.2457 11.4449 46.2194 11.4171C46.1935 11.3893 46.1733 11.3567 46.1599 11.3209C46.1465 11.2852 46.1401 11.2472 46.1412 11.209ZM46.6562 14.1173C46.6281 14.1284 46.5991 14.1371 46.5696 14.1431C46.5287 14.152 46.4871 14.1563 46.4453 14.156C46.3771 14.1617 46.3091 14.1427 46.2533 14.1024C46.231 14.0791 46.2139 14.051 46.2034 14.0203C46.1928 13.9896 46.189 13.9569 46.1921 13.9245V11.9064L46.2806 11.883C46.322 11.8725 46.3645 11.8675 46.4072 11.8681C46.4742 11.8626 46.541 11.8816 46.5955 11.9217C46.6173 11.9462 46.6338 11.9751 46.644 12.0065C46.6541 12.0379 46.6576 12.0711 46.6543 12.104L46.6562 14.1173Z" fill="#CC0066"/>
<path d="M48.663 13.9152C48.5987 13.9566 48.5292 13.9888 48.4563 14.0109C48.3617 14.0385 48.2635 14.0516 48.165 14.0497C48.0382 14.0505 47.9121 14.0301 47.7917 13.9894C47.6757 13.9497 47.5697 13.8844 47.4816 13.798C47.3866 13.7031 47.3145 13.5872 47.2707 13.4594C47.2158 13.2929 47.1901 13.1178 47.1949 12.9423C47.1918 12.7781 47.2174 12.6147 47.2707 12.4597C47.3165 12.3287 47.3908 12.21 47.4881 12.1124C47.5834 12.0188 47.697 11.9464 47.8214 11.9C47.9601 11.8496 48.1066 11.825 48.254 11.8273C48.3899 11.8261 48.5251 11.8463 48.655 11.8871C48.7625 11.9201 48.8649 11.9684 48.959 12.0306C49.0042 12.0621 49.0428 12.1022 49.0729 12.1487C49.1025 12.1984 49.1172 12.2557 49.1153 12.3138V14.1874C49.119 14.3286 49.0932 14.469 49.0395 14.5993C48.9926 14.7089 48.9192 14.8048 48.8263 14.8781C48.7294 14.9521 48.6188 15.0053 48.501 15.0345C48.3691 15.0678 48.2336 15.0838 48.0977 15.0824C47.9667 15.0845 47.836 15.0684 47.7093 15.0345C47.6244 15.0124 47.5423 14.9803 47.4646 14.9389C47.4043 14.9014 47.3599 14.8423 47.3404 14.7732C47.3209 14.7041 47.3276 14.6301 47.3592 14.5658C47.3788 14.5287 47.4079 14.4976 47.4434 14.4758C47.5263 14.5353 47.6174 14.5822 47.7136 14.615C47.8301 14.6572 47.9529 14.6782 48.0765 14.6772C48.2301 14.6867 48.3824 14.6436 48.5091 14.5548C48.5633 14.5062 48.6054 14.4453 48.6322 14.3771C48.6589 14.3089 48.6695 14.2352 48.663 14.1621V13.9152ZM48.2281 13.6579C48.3156 13.6604 48.4027 13.6441 48.4836 13.6101C48.5471 13.5824 48.605 13.5432 48.6545 13.4943V12.341C48.6038 12.3084 48.5493 12.2825 48.4921 12.264C48.4178 12.2398 48.34 12.2282 48.2619 12.2296C48.1811 12.2263 48.1004 12.2403 48.0252 12.2706C47.95 12.3009 47.8818 12.3469 47.8251 12.4056C47.7034 12.554 47.6436 12.7449 47.6585 12.9375C47.6559 13.0508 47.6709 13.1638 47.7028 13.2724C47.7273 13.3547 47.769 13.4308 47.8251 13.4953C47.8744 13.5505 47.9359 13.5931 48.0045 13.6196C48.0761 13.6461 48.1519 13.6588 48.2281 13.6579Z" fill="#CC0066"/>
<path d="M49.6949 11.209C49.6939 11.1708 49.7002 11.1328 49.7136 11.0971C49.727 11.0613 49.7472 11.0287 49.7731 11.0009C49.7995 10.9731 49.8313 10.9512 49.8666 10.9368C49.9019 10.9223 49.9398 10.9157 49.9778 10.9172C50.0152 10.9159 50.0524 10.9228 50.0869 10.9372C50.1215 10.9516 50.1526 10.9733 50.1783 11.0009C50.2286 11.0582 50.2565 11.1322 50.2565 11.209C50.2565 11.2858 50.2286 11.3598 50.1783 11.4171C50.1526 11.4446 50.1215 11.4664 50.0869 11.4808C50.0524 11.4952 50.0152 11.502 49.9778 11.5008C49.9398 11.5023 49.9019 11.4957 49.8666 11.4812C49.8313 11.4668 49.7995 11.4449 49.7731 11.4171C49.7472 11.3893 49.727 11.3567 49.7136 11.3209C49.7002 11.2852 49.6939 11.2472 49.6949 11.209ZM50.2099 14.1173C50.1818 14.1284 50.1528 14.1371 50.1233 14.1431C50.0823 14.152 50.0404 14.1564 49.9985 14.156C49.9303 14.1618 49.8623 14.1428 49.8065 14.1024C49.7842 14.0791 49.7671 14.0511 49.7566 14.0203C49.746 13.9896 49.7422 13.9569 49.7453 13.9245V11.9064L49.8338 11.883C49.8752 11.8725 49.9177 11.8675 49.9604 11.8681C50.0274 11.8626 50.0942 11.8816 50.1487 11.9217C50.1705 11.9462 50.1871 11.9751 50.1972 12.0065C50.2073 12.0379 50.2109 12.0711 50.2075 12.104L50.2099 14.1173Z" fill="#CC0066"/>
<path d="M51.4175 13.7166C51.4957 13.7681 51.588 13.7929 51.6811 13.7874C51.7354 13.787 51.7893 13.7791 51.8416 13.764C51.8928 13.7503 51.9424 13.7309 51.9894 13.7061C52.0099 13.7331 52.0284 13.7617 52.0444 13.7917C52.072 13.8475 52.0775 13.9118 52.06 13.9716C52.0426 14.0314 52.0033 14.0822 51.9503 14.1136C51.8415 14.175 51.7177 14.2032 51.5935 14.1949C51.4028 14.2048 51.2144 14.1481 51.0598 14.0342C50.9883 13.9684 50.933 13.8866 50.8982 13.7953C50.8634 13.7039 50.8501 13.6056 50.8593 13.5081V11.2819C50.89 11.271 50.9215 11.2624 50.9534 11.2561C50.995 11.2472 51.0375 11.2429 51.08 11.2431C51.146 11.2377 51.2118 11.256 51.2659 11.2948C51.2877 11.3181 51.3042 11.3458 51.3144 11.3762C51.3246 11.4066 51.3281 11.4389 51.3248 11.4708V11.9425H52.0171C52.0309 11.9685 52.0422 11.9957 52.051 12.0238C52.0625 12.0598 52.0682 12.0974 52.068 12.1352C52.068 12.2698 52.013 12.3369 51.9032 12.3366H51.3248V13.4736C51.32 13.5188 51.326 13.5644 51.3424 13.6067C51.3588 13.6489 51.3851 13.6865 51.4189 13.7161" fill="#CC0066"/>
<path d="M53.3168 11.8262C53.5513 11.813 53.7834 11.8804 53.9758 12.0175C54.061 12.0921 54.1277 12.1862 54.1702 12.292C54.2127 12.3979 54.23 12.5125 54.2205 12.6264V13.7376C54.2244 13.7979 54.2078 13.8576 54.1734 13.9069C54.1368 13.9508 54.0942 13.9891 54.0468 14.0208C53.9537 14.0739 53.8544 14.115 53.7512 14.1432C53.6122 14.1813 53.4687 14.1993 53.3248 14.1968C53.087 14.2108 52.8511 14.1469 52.6517 14.0146C52.5709 13.9528 52.5065 13.8717 52.4641 13.7785C52.4217 13.6852 52.4027 13.5828 52.4088 13.4803C52.4036 13.3914 52.4178 13.3024 52.4503 13.2197C52.4829 13.137 52.533 13.0626 52.5971 13.0019C52.7527 12.8782 52.942 12.8062 53.1393 12.7958L53.7597 12.7269V12.624C53.7647 12.5666 53.7558 12.5088 53.7338 12.4557C53.7117 12.4025 53.6771 12.3557 53.6331 12.3193C53.5293 12.2504 53.4067 12.2169 53.2829 12.2237C53.1671 12.2232 53.0519 12.2405 52.9412 12.2748C52.8394 12.3059 52.7404 12.3461 52.6456 12.3949C52.6159 12.3669 52.5904 12.3347 52.5698 12.2992C52.5471 12.2606 52.5354 12.2162 52.5361 12.1711C52.5369 12.1261 52.55 12.0822 52.574 12.0443C52.6051 12.0039 52.6458 11.9721 52.6922 11.952C52.7825 11.9074 52.8783 11.8752 52.977 11.8563C53.0889 11.8343 53.2027 11.8236 53.3168 11.8243M53.3253 13.806C53.4179 13.8078 53.5103 13.7962 53.5997 13.7716C53.6572 13.7574 53.7116 13.7326 53.7602 13.6984V13.0938L53.2791 13.1454C53.1701 13.1528 53.0644 13.1866 52.9708 13.244C52.9366 13.2702 52.9093 13.3047 52.8916 13.3444C52.874 13.3841 52.8664 13.4277 52.8696 13.4712C52.8678 13.5178 52.8767 13.5642 52.8958 13.6067C52.9148 13.6491 52.9435 13.6864 52.9793 13.7156C53.0815 13.784 53.2033 13.8156 53.3253 13.8055" fill="#CC0066"/>
<path d="M55.102 14.1557C55.035 14.1604 54.9685 14.1415 54.9137 14.1021C54.8907 14.0792 54.8731 14.0513 54.8621 14.0205C54.8511 13.9897 54.847 13.9568 54.8501 13.9242V11.0331L54.9386 11.0097C54.98 10.9992 55.0226 10.9942 55.0653 10.9949C55.1319 10.9902 55.1981 11.0082 55.2535 11.0461C55.2766 11.0686 55.2943 11.0961 55.3054 11.1266C55.3164 11.1571 55.3204 11.1898 55.3171 11.2221V14.1175C55.2917 14.1261 55.2603 14.1347 55.2229 14.1433C55.1828 14.1523 55.1417 14.1566 55.1006 14.1562" fill="#CC0066"/>
<path d="M57.4377 13.1304V14.1172C57.4058 14.1276 57.3734 14.1362 57.3407 14.1431C57.2991 14.1519 57.2566 14.1562 57.2141 14.156C57.1441 14.1621 57.0744 14.1422 57.0178 14.1C56.9954 14.0753 56.9784 14.0461 56.9679 14.0143C56.9573 13.9825 56.9535 13.9488 56.9566 13.9154V11.4572C56.9538 11.4111 56.9691 11.3657 56.999 11.3309C57.0308 11.2984 57.0699 11.2741 57.1129 11.2601C57.2208 11.2232 57.3327 11.1994 57.4462 11.1893C57.5717 11.1766 57.6912 11.1702 57.8048 11.1702C58.1139 11.1445 58.4212 11.2379 58.6657 11.4318C58.7597 11.5233 58.8332 11.6343 58.8813 11.7572C58.9294 11.88 58.9509 12.012 58.9443 12.1441C58.9502 12.2769 58.9284 12.4094 58.8804 12.5331C58.8324 12.6567 58.7592 12.7687 58.6657 12.8616C58.4321 13.0586 58.1323 13.1555 57.8297 13.1319L57.4377 13.1304ZM57.8048 12.7143C57.976 12.7242 58.1454 12.6735 58.284 12.5708C58.3438 12.5184 58.3907 12.4525 58.4211 12.3785C58.4515 12.3044 58.4645 12.2241 58.4591 12.1441C58.4657 12.0656 58.4541 11.9867 58.4251 11.9136C58.3962 11.8406 58.3507 11.7755 58.2924 11.7236C58.1518 11.6262 57.9831 11.5794 57.8133 11.5907C57.7486 11.5907 57.6824 11.5935 57.6146 11.5993C57.5536 11.6041 57.493 11.6127 57.433 11.6251V12.7147L57.8048 12.7143Z" fill="#CC0066"/>
<path d="M60.2172 11.8262C60.4517 11.813 60.6838 11.8804 60.8761 12.0175C60.9614 12.0921 61.0281 12.1862 61.0706 12.292C61.1132 12.3979 61.1304 12.5125 61.1209 12.6264V13.7376C61.1248 13.7979 61.1082 13.8576 61.0738 13.9069C61.0371 13.9508 60.9945 13.9891 60.9472 14.0208C60.854 14.0738 60.7547 14.115 60.6516 14.1432C60.5126 14.1813 60.3691 14.1993 60.2252 14.1968C59.9874 14.2108 59.7515 14.1469 59.5521 14.0146C59.4713 13.9528 59.4069 13.8717 59.3645 13.7785C59.3221 13.6852 59.3031 13.5828 59.3092 13.4803C59.304 13.3914 59.3182 13.3024 59.3507 13.2197C59.3832 13.137 59.4334 13.0626 59.4975 13.0019C59.653 12.8781 59.8424 12.8061 60.0397 12.7958L60.6601 12.7269V12.624C60.6652 12.5666 60.6563 12.5088 60.6342 12.4556C60.6121 12.4025 60.5775 12.3557 60.5335 12.3193C60.4297 12.2504 60.3071 12.2169 60.1833 12.2237C60.0675 12.2232 59.9523 12.2405 59.8416 12.2748C59.7397 12.3059 59.6408 12.3461 59.546 12.3949C59.5163 12.3669 59.4907 12.3347 59.4702 12.2992C59.4474 12.2606 59.4358 12.2162 59.4365 12.1711C59.4373 12.1261 59.4504 12.0822 59.4744 12.0443C59.5055 12.0039 59.5462 11.9721 59.5926 11.952C59.6829 11.9074 59.7786 11.8752 59.8773 11.8563C59.9893 11.8343 60.1031 11.8235 60.2172 11.8243M60.2256 13.806C60.3182 13.8078 60.4106 13.7962 60.5 13.7716C60.5575 13.7574 60.6119 13.7326 60.6605 13.6984V13.0938L60.1795 13.1454C60.0705 13.1528 59.9648 13.1866 59.8712 13.244C59.8369 13.2702 59.8097 13.3047 59.792 13.3444C59.7743 13.3841 59.7668 13.4277 59.77 13.4712C59.7682 13.5178 59.7771 13.5642 59.7962 13.6067C59.8152 13.6491 59.8438 13.6864 59.8797 13.7156C59.9819 13.7839 60.1037 13.8156 60.2256 13.8055" fill="#CC0066"/>
<path d="M62.1216 13.6067C62.0457 13.4495 61.9536 13.2278 61.8453 12.9418C61.7371 12.6558 61.6337 12.3326 61.5352 11.9722C61.5653 11.9362 61.6019 11.9064 61.6429 11.8842C61.6862 11.86 61.7348 11.8475 61.7841 11.8478C61.8414 11.8451 61.8979 11.8619 61.9447 11.8957C61.9949 11.9418 62.0302 12.0024 62.0459 12.0693C62.1274 12.3267 62.2112 12.5805 62.2972 12.8308C62.3832 13.0812 62.4781 13.3393 62.582 13.6052H62.5989C62.6438 13.5022 62.6895 13.3828 62.7359 13.247C62.7823 13.1111 62.8274 12.9667 62.871 12.8136C62.9146 12.6605 62.9562 12.5054 62.9957 12.3482C63.0353 12.191 63.0704 12.0409 63.1011 11.8981C63.1297 11.8837 63.1593 11.8715 63.1896 11.8617C63.2252 11.8511 63.2622 11.8461 63.2993 11.8469C63.3578 11.8446 63.4156 11.8614 63.464 11.8947C63.4872 11.9131 63.5054 11.937 63.5172 11.9643C63.5289 11.9916 63.5338 12.0214 63.5314 12.0511C63.5245 12.1788 63.504 12.3054 63.4702 12.4285C63.4294 12.5972 63.3767 12.7846 63.312 12.9906C63.2474 13.1966 63.1735 13.4039 63.0903 13.6124C63.0072 13.8213 62.9234 14.0072 62.839 14.1702C62.7269 14.3964 62.5925 14.6105 62.4379 14.8092C62.3997 14.8684 62.3493 14.9185 62.2904 14.9562C62.2315 14.9939 62.1653 15.0183 62.0962 15.0278C62.0601 15.0299 62.0239 15.0246 61.9898 15.0121C61.9558 14.9996 61.9245 14.9802 61.8981 14.9551C61.8488 14.9049 61.8159 14.8404 61.8039 14.7705C61.8591 14.7201 61.9113 14.6664 61.9602 14.6098C62.0164 14.546 62.0727 14.4774 62.1292 14.4041C62.1857 14.3307 62.2398 14.2556 62.2915 14.1788C62.3406 14.1068 62.3836 14.0308 62.4201 13.9516C62.3651 13.9313 62.3153 13.8986 62.2746 13.8559C62.2098 13.7809 62.1578 13.6953 62.1207 13.6029" fill="#CC0066"/>
<path d="M66.461 12.3263C66.3759 12.2582 66.2692 12.2242 66.1611 12.2306C66.0803 12.2302 66.0002 12.2465 65.9258 12.2785C65.8497 12.3113 65.7798 12.3569 65.7187 12.4134C65.7244 12.4402 65.7287 12.4673 65.7314 12.4947C65.7342 12.5234 65.7356 12.5521 65.7356 12.5803V14.1162C65.7076 14.1274 65.6785 14.136 65.649 14.1421C65.6096 14.1508 65.5693 14.1552 65.529 14.155C65.46 14.1604 65.3914 14.1415 65.3346 14.1014C65.3117 14.0784 65.2942 14.0505 65.2833 14.0197C65.2724 13.9889 65.2683 13.956 65.2715 13.9235V12.632C65.2764 12.5758 65.2692 12.5192 65.2502 12.4663C65.2313 12.4133 65.2011 12.3652 65.1619 12.3253C65.0768 12.2572 64.9701 12.2232 64.862 12.2297C64.7816 12.2292 64.7018 12.2438 64.6267 12.2727C64.5616 12.2976 64.4994 12.3296 64.4412 12.3684V14.1186C64.4132 14.1298 64.3842 14.1385 64.3546 14.1445C64.3136 14.1534 64.2718 14.1577 64.2299 14.1574C64.1629 14.1621 64.0964 14.1432 64.0416 14.1038C64.0186 14.0808 64.001 14.0529 63.99 14.0221C63.979 13.9914 63.9749 13.9585 63.9781 13.9259V12.356C63.9749 12.294 63.9888 12.2324 64.0181 12.178C64.0534 12.1247 64.0984 12.0787 64.1508 12.0427C64.3687 11.9047 64.6199 11.8306 64.8766 11.8284C65.0048 11.8261 65.1323 11.8472 65.2532 11.8905C65.3575 11.9284 65.4516 11.9909 65.5276 12.0728C65.6161 12.0001 65.7149 11.9415 65.8208 11.8991C65.9479 11.8496 66.0833 11.8255 66.2195 11.8284C66.331 11.8276 66.4421 11.8437 66.5489 11.8762C66.6447 11.9045 66.7333 11.9534 66.8088 12.0197C66.8828 12.0873 66.9412 12.1708 66.9796 12.2641C67.0245 12.3764 67.0461 12.4969 67.0432 12.6181V14.1196C67.0123 14.1298 66.9809 14.1384 66.9491 14.1454C66.9097 14.1542 66.8694 14.1585 66.829 14.1583C66.7621 14.163 66.6956 14.1441 66.6408 14.1048C66.6178 14.0818 66.6002 14.0539 66.5892 14.0231C66.5782 13.9923 66.5741 13.9594 66.5772 13.9268V12.6353C66.5823 12.5791 66.5751 12.5225 66.5561 12.4695C66.5372 12.4165 66.5069 12.3684 66.4675 12.3287" fill="#CC0066"/>
<path d="M68.0178 13.2636C68.0449 13.4235 68.1309 13.5668 68.2583 13.6645C68.3957 13.7564 68.558 13.8021 68.7224 13.7951C68.8385 13.7965 68.9539 13.7754 69.0622 13.7329C69.1506 13.699 69.2349 13.655 69.3136 13.6018C69.3521 13.6222 69.3843 13.653 69.4066 13.6908C69.429 13.7286 69.4406 13.772 69.4402 13.8161C69.4397 13.8719 69.4187 13.9254 69.3813 13.9663C69.3363 14.0164 69.2817 14.0566 69.2209 14.0845C69.1457 14.12 69.0667 14.1466 68.9855 14.1639C68.7325 14.216 68.4705 14.1995 68.2258 14.116C68.0897 14.0675 67.9658 13.9891 67.8629 13.8864C67.758 13.7798 67.6776 13.6509 67.6276 13.509C67.5701 13.343 67.5422 13.1679 67.5452 12.9919C67.542 12.8205 67.5684 12.6499 67.6233 12.4878C67.6698 12.3527 67.7439 12.2291 67.8408 12.1252C67.9332 12.0283 68.0446 11.9523 68.1679 11.9023C68.2948 11.8506 68.4303 11.8244 68.5671 11.8253C68.7008 11.8234 68.8335 11.849 68.9572 11.9004C69.0707 11.9477 69.1736 12.0179 69.2596 12.1068C69.3456 12.1957 69.4129 12.3014 69.4576 12.4175C69.5064 12.5431 69.5306 12.6771 69.5291 12.8121C69.5319 12.8437 69.5285 12.8755 69.519 12.9057C69.5095 12.9359 69.4943 12.964 69.4741 12.9881C69.4309 13.0285 69.3761 13.054 69.3178 13.0608L68.0178 13.2636ZM68.5666 12.2113C68.4901 12.2095 68.4142 12.2245 68.3439 12.2552C68.2737 12.2859 68.2108 12.3316 68.1595 12.3892C68.0431 12.53 67.9822 12.7097 67.9886 12.8934L69.0858 12.726C69.0781 12.5915 69.0269 12.4634 68.9403 12.3615C68.8928 12.3101 68.8348 12.2699 68.7702 12.2439C68.7057 12.218 68.6359 12.2068 68.5666 12.2113Z" fill="#CC0066"/>
<path d="M71.2933 12.3393C71.1994 12.2621 71.0807 12.223 70.9601 12.2297C70.8655 12.2283 70.7713 12.2428 70.6814 12.2728C70.6084 12.298 70.5378 12.33 70.4705 12.3685V14.1187C70.4425 14.1299 70.4135 14.1385 70.3839 14.1445C70.343 14.1535 70.3011 14.1578 70.2592 14.1574C70.1923 14.1621 70.1257 14.1432 70.0709 14.1039C70.0479 14.0809 70.0303 14.053 70.0193 14.0222C70.0083 13.9914 70.0042 13.9585 70.0074 13.9259V12.356C70.0044 12.2941 70.0183 12.2325 70.0474 12.1781C70.0829 12.1247 70.1281 12.0787 70.1806 12.0427C70.2844 11.9833 70.3941 11.9352 70.5078 11.8992C70.6544 11.8515 70.8076 11.8284 70.9615 11.8308C71.2044 11.8167 71.4443 11.8904 71.6388 12.0389C71.7244 12.1176 71.7912 12.2151 71.834 12.3241C71.8768 12.433 71.8946 12.5504 71.8859 12.6674V14.1216C71.8563 14.1322 71.8259 14.1409 71.7951 14.1474C71.7543 14.1563 71.7126 14.1606 71.6708 14.1603C71.6039 14.165 71.5373 14.1461 71.4825 14.1067C71.4596 14.0837 71.4421 14.0558 71.4312 14.025C71.4202 13.9942 71.4162 13.9613 71.4194 13.9288V12.6851C71.4247 12.6226 71.4165 12.5597 71.3954 12.5008C71.3742 12.4419 71.3407 12.3884 71.2971 12.3441" fill="#CC0066"/>
<path d="M73.064 13.7166C73.1422 13.7681 73.2346 13.7929 73.3276 13.7874C73.3819 13.787 73.4359 13.7791 73.4881 13.764C73.5393 13.7503 73.5889 13.7309 73.6359 13.7061C73.6564 13.7331 73.6749 13.7617 73.691 13.7917C73.7186 13.8475 73.7242 13.9118 73.7067 13.9717C73.6892 14.0315 73.6499 14.0823 73.5968 14.1136C73.488 14.175 73.3642 14.2032 73.2401 14.1949C73.0493 14.2048 72.861 14.1481 72.7063 14.0342C72.6348 13.9685 72.5795 13.8866 72.5447 13.7953C72.5099 13.7039 72.4966 13.6056 72.5058 13.5081V11.2819C72.5365 11.271 72.568 11.2624 72.5999 11.2561C72.6416 11.2473 72.684 11.2429 72.7265 11.2431C72.7925 11.2377 72.8583 11.256 72.9124 11.2948C72.9343 11.318 72.9509 11.3458 72.9612 11.3762C72.9714 11.4066 72.975 11.4389 72.9717 11.4708V11.9425H73.6641C73.678 11.9684 73.6893 11.9956 73.698 12.0238C73.7095 12.0598 73.7153 12.0974 73.715 12.1352C73.715 12.2698 73.66 12.3369 73.5502 12.3366H72.9717V13.4736C72.967 13.5188 72.973 13.5644 72.9894 13.6067C73.0058 13.6489 73.0321 13.6865 73.0659 13.7161" fill="#CC0066"/>
<path d="M75.7466 13.5124C75.7508 13.6076 75.7329 13.7024 75.6944 13.7892C75.6559 13.876 75.5978 13.9525 75.5249 14.0123C75.3371 14.1461 75.1098 14.2104 74.881 14.1945C74.772 14.1953 74.6632 14.1852 74.5562 14.1644C74.4701 14.1485 74.3863 14.1212 74.3072 14.0831C74.2458 14.0535 74.1913 14.0111 74.1472 13.9587C74.1093 13.9147 74.0883 13.8584 74.0879 13.7999C74.0877 13.7543 74.0986 13.7093 74.1194 13.6688C74.1408 13.6269 74.1734 13.5919 74.2136 13.5679C74.3025 13.6292 74.3971 13.6816 74.496 13.7243C74.6136 13.7736 74.7401 13.7977 74.8674 13.7951C74.9749 13.8022 75.0821 13.7769 75.1756 13.7224C75.2095 13.6996 75.2371 13.6683 75.2556 13.6315C75.2741 13.5947 75.2828 13.5537 75.281 13.5124C75.2829 13.4772 75.2774 13.442 75.2651 13.4091C75.2528 13.3761 75.2339 13.3462 75.2095 13.3211C75.1479 13.2667 75.0737 13.229 74.9939 13.2115L74.6899 13.1259C74.5248 13.0878 74.3721 13.0073 74.2465 12.892C74.1975 12.8375 74.1597 12.7736 74.1355 12.704C74.1112 12.6344 74.101 12.5606 74.1053 12.4869C74.1049 12.3972 74.1236 12.3086 74.1603 12.2271C74.1968 12.1459 74.2509 12.0741 74.3185 12.0171C74.3955 11.9542 74.4838 11.907 74.5783 11.8779C74.6931 11.842 74.8127 11.8246 74.9327 11.8263C75.0319 11.8252 75.131 11.8345 75.2284 11.854C75.3062 11.8696 75.382 11.8941 75.4543 11.9272C75.5113 11.9523 75.5619 11.9905 75.6021 12.0387C75.6357 12.0787 75.6543 12.1295 75.6548 12.1822C75.6558 12.2272 75.6449 12.2716 75.6233 12.3108C75.6037 12.3461 75.5771 12.3767 75.5451 12.4008C75.468 12.3564 75.3876 12.3183 75.3046 12.2869C75.197 12.2448 75.0824 12.2237 74.9671 12.2247C74.8642 12.2188 74.7618 12.2425 74.6715 12.2931C74.6435 12.311 74.6196 12.335 74.6017 12.3632C74.5837 12.3915 74.5721 12.4235 74.5676 12.4568C74.5631 12.4901 74.5659 12.5241 74.5757 12.5562C74.5855 12.5884 74.6022 12.6179 74.6245 12.6428C74.6835 12.6945 74.755 12.7293 74.8316 12.7437L75.0933 12.8126C75.2772 12.8562 75.4477 12.9454 75.5894 13.0724C75.6436 13.1309 75.6856 13.2001 75.7128 13.2757C75.74 13.3512 75.7518 13.4316 75.7475 13.5119" fill="#CC0066"/>
<path d="M11.3198 6.76465V15.1389C11.3198 15.6871 11.1544 16.2221 10.8457 16.6717C10.5371 17.1213 10.1001 17.4638 9.59382 17.653L2.07881 20.4618C1.96053 20.5061 1.83346 20.5207 1.70843 20.5044C1.58339 20.4881 1.46409 20.4413 1.36069 20.368C1.25729 20.2947 1.17284 20.1971 1.11454 20.0835C1.05625 19.9699 1.02583 19.8437 1.02588 19.7156V12.6099C1.02612 12.1826 1.15512 11.7656 1.39553 11.4149C1.63594 11.0643 1.97623 10.7969 2.37064 10.6487L9.31658 8.03798C10.4128 7.58691 10.8411 7.31091 11.3203 6.76704" fill="white"/>
<path d="M17.9268 8.88387C17.9189 9.19524 17.795 9.49195 17.58 9.71397C17.365 9.93598 17.0751 10.0667 16.7689 10.0797H15.194C15.1032 10.0819 15.0152 10.0473 14.9495 9.98367C14.8837 9.91998 14.8455 9.83237 14.8433 9.74009V6.25398C14.8426 6.20774 14.851 6.16183 14.8681 6.11897C14.8852 6.07611 14.9106 6.03718 14.9428 6.00448C14.975 5.97177 15.0133 5.94597 15.0555 5.9286C15.0976 5.91124 15.1428 5.90265 15.1883 5.90336H16.7082C16.9355 5.91558 17.1545 5.99455 17.3385 6.1307C17.5226 6.26685 17.6638 6.45434 17.7451 6.67043C17.8264 6.88652 17.8443 7.12194 17.7966 7.34815C17.7489 7.57437 17.6376 7.78166 17.4763 7.9449C17.6153 8.05763 17.7279 8.20037 17.8059 8.36277C17.8838 8.52517 17.9248 8.70317 17.9268 8.88387ZM15.5117 7.6402L16.6305 7.62872C16.7664 7.62418 16.8955 7.56729 16.9917 7.46958C17.0878 7.37187 17.1438 7.24066 17.1483 7.10255C17.1475 6.96971 17.0959 6.84238 17.0045 6.74743C16.9131 6.65248 16.7889 6.59732 16.6583 6.5936H15.5117V7.6402ZM17.2372 8.88387C17.2279 8.74311 17.1675 8.61087 17.0678 8.51271C16.9681 8.41455 16.8361 8.35745 16.6973 8.35244H15.5394V9.39856H16.7303C16.8633 9.39426 16.9896 9.33865 17.0837 9.24304C17.1778 9.14744 17.2325 9.01901 17.2367 8.88387" fill="white"/>
<path d="M20.6661 8.3524H20.1597V9.73958C20.1577 9.83089 20.1204 9.91771 20.0558 9.98121C19.9912 10.0447 19.9045 10.0797 19.8147 10.0787C19.7262 10.0785 19.6414 10.0427 19.5788 9.97914C19.5162 9.9156 19.4808 9.82949 19.4805 9.73958V6.24246C19.4833 6.15143 19.5209 6.06511 19.5853 6.00179C19.6497 5.93847 19.7359 5.90315 19.8255 5.90332H21.0441C21.3574 5.91027 21.6562 6.03912 21.8788 6.2633C22.1014 6.48748 22.2309 6.78991 22.2406 7.10825C22.2348 7.36499 22.1524 7.61387 22.0043 7.82195C21.8562 8.03003 21.6494 8.18749 21.4112 8.27348L22.185 9.55733C22.2302 9.63639 22.2432 9.7302 22.2214 9.81886C22.1996 9.90753 22.1447 9.98409 22.0683 10.0323C22.0154 10.0619 21.956 10.0775 21.8956 10.0778C21.8376 10.0777 21.7805 10.0626 21.7299 10.0339C21.6792 10.0052 21.6366 9.96381 21.6061 9.91369L20.6661 8.3524ZM21.568 7.11351C21.5616 6.97166 21.5011 6.83792 21.3992 6.74073C21.2973 6.64354 21.1622 6.59057 21.0224 6.59308H20.1597V7.66216H21.0224C21.1662 7.6623 21.3042 7.60472 21.4063 7.50196C21.5085 7.3992 21.5666 7.25959 21.568 7.11351Z" fill="white"/>
<path d="M26.1477 10.0773C25.605 10.0714 25.0866 9.84733 24.7059 9.45411C24.3252 9.06088 24.1132 8.53049 24.1162 7.97888C24.1233 7.57276 24.2482 7.1778 24.4753 6.84355C24.7024 6.50931 25.0216 6.25067 25.3928 6.10008C25.764 5.94949 26.1707 5.91366 26.5619 5.9971C26.953 6.08053 27.3112 6.2795 27.5915 6.56905C27.8719 6.8586 28.0618 7.22582 28.1375 7.62465C28.2132 8.02348 28.1713 8.43615 28.0171 8.81088C27.8629 9.18561 27.6032 9.50571 27.2706 9.73102C26.9381 9.95632 26.5474 10.0768 26.1477 10.0773ZM24.7729 7.97888C24.7733 8.25581 24.8546 8.52638 25.0064 8.75637C25.1582 8.98636 25.3737 9.16544 25.6256 9.27096C25.8776 9.37648 26.1547 9.40369 26.4218 9.34916C26.689 9.29464 26.9342 9.16082 27.1266 8.96463C27.3189 8.76845 27.4497 8.5187 27.5023 8.24699C27.555 7.97527 27.5271 7.6938 27.4224 7.43815C27.3176 7.18251 27.1406 6.96419 26.9137 6.81079C26.6868 6.6574 26.4202 6.57583 26.1477 6.5764C25.7833 6.58003 25.4349 6.72912 25.1777 6.99151C24.9205 7.25389 24.7751 7.60852 24.7729 7.97888Z" fill="white"/>
<path d="M32.9828 10.0503C32.9397 10.0674 32.8937 10.0755 32.8475 10.0741C32.8013 10.0728 32.7558 10.062 32.7138 10.0425C32.6717 10.0229 32.6339 9.99502 32.6027 9.96038C32.5715 9.92574 32.5474 9.88508 32.5319 9.84081L31.5905 7.2578L30.6444 9.84081C30.63 9.8852 30.6068 9.92611 30.5762 9.96101C30.5456 9.9959 30.5082 10.024 30.4665 10.0437C30.4248 10.0633 30.3795 10.074 30.3335 10.0752C30.2875 10.0763 30.2418 10.0679 30.1992 10.0503C30.1553 10.035 30.1149 10.0108 30.0805 9.97917C30.0462 9.94752 30.0185 9.90909 29.9992 9.86621C29.9799 9.82334 29.9694 9.77692 29.9684 9.72979C29.9673 9.68266 29.9757 9.63581 29.993 9.59208L31.2507 6.12462C31.2771 6.05534 31.3238 5.99595 31.3845 5.95447C31.4452 5.91299 31.5169 5.89141 31.59 5.89263C31.6628 5.89298 31.7339 5.91519 31.7943 5.95647C31.8546 5.99775 31.9017 6.05625 31.9294 6.12462L33.1871 9.59208C33.2044 9.63578 33.2128 9.6826 33.2118 9.72971C33.2108 9.77682 33.2003 9.82322 33.1811 9.86609C33.1618 9.90895 33.1342 9.94739 33.0999 9.97907C33.0655 10.0107 33.0252 10.035 32.9814 10.0503" fill="white"/>
<path d="M34.5913 9.73949V6.26008C34.5935 6.17082 34.6293 6.08582 34.6914 6.02269C34.7536 5.95956 34.8372 5.92312 34.925 5.92094H35.7544C36.0531 5.91915 36.3488 5.98074 36.6228 6.10175C36.8861 6.21913 37.1214 6.3927 37.3128 6.6107C37.5038 6.83111 37.6464 7.09042 37.7309 7.3713C37.8154 7.65218 37.8399 7.94815 37.8028 8.23943C37.7414 8.74524 37.5007 9.21096 37.1257 9.54935C36.7507 9.88773 36.2672 10.0756 35.7657 10.0777H34.9255C34.8376 10.0755 34.754 10.0391 34.6919 9.97593C34.6298 9.91279 34.5939 9.82779 34.5918 9.73854M37.1297 8.16003C37.1591 7.96467 37.146 7.76514 37.0912 7.57553C37.0363 7.38592 36.9412 7.21086 36.8125 7.06272C36.6794 6.91231 36.5161 6.79261 36.3337 6.71167C36.1513 6.63073 35.9539 6.59043 35.7548 6.59348H35.2597V9.39892H35.7661C36.1037 9.39908 36.4296 9.27283 36.6814 9.0443C36.9332 8.81576 37.0933 8.50095 37.1311 8.16003" fill="white"/>
<path d="M41.1085 9.49568C40.9419 9.7514 40.6853 9.93257 40.3913 10.002C40.0974 10.0714 39.7884 10.0237 39.5279 9.86879C39.4481 9.81957 39.3891 9.74194 39.3624 9.65098C39.3357 9.56002 39.3432 9.46222 39.3834 9.37658C39.4439 9.30561 39.5284 9.26039 39.6202 9.24993C39.7119 9.23946 39.8042 9.26453 39.8786 9.32014C39.994 9.38379 40.1288 9.40052 40.2559 9.36696C40.383 9.33339 40.4927 9.25202 40.563 9.13933C40.6018 9.08068 40.6289 9.01482 40.6426 8.94554C40.6564 8.87625 40.6565 8.80489 40.6431 8.73553C40.6297 8.66618 40.6029 8.6002 40.5644 8.54136C40.5258 8.48253 40.4763 8.43199 40.4185 8.39264C40.146 8.21709 40.1361 8.21183 39.873 8.03628C39.6125 7.86449 39.4298 7.59458 39.3651 7.28591C39.3004 6.97724 39.359 6.6551 39.5279 6.39033C39.6963 6.13672 39.9528 5.95723 40.246 5.88793C40.5392 5.81863 40.8474 5.86466 41.1085 6.01675C41.1858 6.06262 41.2427 6.13689 41.2676 6.22423C41.2925 6.31157 41.2834 6.40528 41.2422 6.486C41.187 6.55996 41.1059 6.60948 41.0157 6.62426C40.9255 6.63905 40.8331 6.61797 40.7578 6.5654C40.6374 6.50309 40.4981 6.49007 40.3685 6.529C40.2389 6.56793 40.129 6.65586 40.0612 6.77469C39.9935 6.89352 39.9732 7.03422 40.0045 7.16782C40.0357 7.30141 40.1162 7.41775 40.2293 7.49289C40.3705 7.5833 40.3705 7.5833 40.7692 7.84925C40.8979 7.9346 41.0088 8.0449 41.0955 8.17384C41.1823 8.30279 41.2432 8.44785 41.2747 8.60072C41.3062 8.7536 41.3077 8.91129 41.2792 9.06477C41.2507 9.21826 41.1927 9.365 41.1085 9.49568Z" fill="white"/>
<path d="M44.8664 8.3431C44.5552 8.36556 44.2429 8.3694 43.9312 8.35458V9.74175C43.9292 9.83306 43.8919 9.91989 43.8273 9.98339C43.7627 10.0469 43.676 10.0819 43.5862 10.0809C43.4978 10.0805 43.4131 10.0447 43.3506 9.98114C43.2881 9.91762 43.2528 9.83158 43.2525 9.74175V6.25421C43.2519 6.20951 43.2601 6.16515 43.2767 6.12374C43.2933 6.08233 43.3178 6.04472 43.3489 6.01311C43.38 5.9815 43.417 5.95654 43.4578 5.9397C43.4985 5.92287 43.5422 5.91449 43.5862 5.91507H44.833C45.1437 5.9249 45.4387 6.05625 45.6565 6.28172C45.8742 6.50718 45.9979 6.80937 46.0018 7.12526C45.9967 7.43559 45.8773 7.73269 45.667 7.95784C45.4568 8.18299 45.1711 8.31979 44.8664 8.34119M44.7888 6.59383H43.9317V7.66291H44.7888C44.9322 7.66205 45.0697 7.60415 45.1716 7.5016C45.2736 7.39906 45.332 7.26002 45.3343 7.11425C45.327 6.97273 45.2662 6.83955 45.1645 6.74256C45.0629 6.64557 44.9282 6.59227 44.7888 6.59383Z" fill="white"/>
<path d="M47.7817 9.73915V6.24346C47.7821 6.15364 47.8174 6.06759 47.8799 6.00407C47.9424 5.94055 48.0271 5.9047 48.1154 5.90432H50.1206C50.2105 5.90317 50.2972 5.93817 50.3618 6.00169C50.4264 6.06521 50.4638 6.15212 50.4656 6.24346C50.4651 6.3363 50.4286 6.42519 50.364 6.49084C50.2994 6.55648 50.2119 6.59358 50.1206 6.59409H48.4619V7.66317H49.7144C49.7584 7.66259 49.802 7.67096 49.8428 7.6878C49.8835 7.70464 49.9205 7.7296 49.9516 7.76121C49.9827 7.79282 50.0073 7.83044 50.0239 7.87184C50.0404 7.91325 50.0487 7.95761 50.0481 8.00231C50.0487 8.04704 50.0405 8.09146 50.024 8.13292C50.0075 8.17438 49.9829 8.21206 49.9518 8.24371C49.9207 8.27537 49.8836 8.30038 49.8429 8.31724C49.8021 8.33411 49.7584 8.3425 49.7144 8.34192H48.4619V9.38805H50.1206C50.2119 9.38855 50.2994 9.42565 50.364 9.4913C50.4286 9.55694 50.4651 9.64583 50.4656 9.73866C50.4636 9.82997 50.4263 9.91681 50.3617 9.9803C50.2971 10.0438 50.2104 10.0788 50.1206 10.0778H48.1169C48.0285 10.0774 47.9438 10.0416 47.8813 9.97806C47.8188 9.91454 47.7835 9.82849 47.7831 9.73866" fill="white"/>
<path d="M55.7031 9.62599C55.3487 9.91246 54.909 10.068 54.4562 10.067C53.9115 10.067 53.3891 9.84711 53.0039 9.45568C52.6187 9.06425 52.4023 8.53336 52.4023 7.9798C52.4023 7.42623 52.6187 6.89534 53.0039 6.50391C53.3891 6.11248 53.9115 5.89258 54.4562 5.89258C54.8262 5.89309 55.1887 5.99898 55.5026 6.19823C55.542 6.21907 55.5769 6.24779 55.6051 6.28268C55.6333 6.31757 55.6543 6.3579 55.6668 6.40124C55.6793 6.44459 55.683 6.49006 55.6777 6.53491C55.6725 6.57976 55.6584 6.62306 55.6362 6.66222C55.6136 6.701 55.5834 6.73462 55.5474 6.76099C55.5115 6.78736 55.4705 6.8059 55.4272 6.81546C55.3839 6.82503 55.3391 6.8254 55.2956 6.81657C55.2521 6.80773 55.2109 6.78987 55.1745 6.76411C54.9574 6.63303 54.7092 6.56457 54.4567 6.56607C54.2762 6.56607 54.0974 6.60222 53.9307 6.67245C53.7639 6.74268 53.6124 6.84561 53.4848 6.97537C53.3572 7.10513 53.256 7.25916 53.187 7.42867C53.118 7.59819 53.0826 7.77985 53.0827 7.9633C53.0765 8.22602 53.1434 8.4852 53.2755 8.71107C53.4077 8.93695 53.5999 9.12036 53.83 9.24024C54.0602 9.36012 54.3189 9.41161 54.5765 9.3888C54.8341 9.366 55.0802 9.26981 55.2865 9.1113C55.3188 9.08313 55.3564 9.06179 55.397 9.04852C55.4375 9.03525 55.4803 9.03032 55.5227 9.03401C55.5652 9.03771 55.6065 9.04996 55.6442 9.07004C55.682 9.09013 55.7154 9.11765 55.7426 9.151C55.7992 9.21932 55.8269 9.30767 55.8196 9.39669C55.8123 9.48572 55.7705 9.56817 55.7035 9.62599" fill="white"/>
<path d="M60.3382 6.23761C60.3382 6.28194 60.3296 6.32584 60.3128 6.36674C60.2959 6.40765 60.2713 6.44476 60.2402 6.4759C60.2092 6.50705 60.1724 6.53163 60.1319 6.5482C60.0914 6.56477 60.0481 6.57301 60.0045 6.57244H59.1869V9.73998C59.1869 9.82923 59.152 9.91482 59.0899 9.97793C59.0279 10.041 58.9436 10.0765 58.8558 10.0765C58.768 10.0765 58.6837 10.041 58.6216 9.97793C58.5595 9.91482 58.5247 9.82923 58.5247 9.73998V6.57148H57.7066C57.6188 6.57148 57.5346 6.53603 57.4725 6.47292C57.4104 6.40982 57.3755 6.32422 57.3755 6.23497C57.3755 6.14573 57.4104 6.06013 57.4725 5.99703C57.5346 5.93392 57.6188 5.89847 57.7066 5.89847H60.005C60.049 5.89789 60.0926 5.90626 60.1334 5.9231C60.1741 5.93994 60.2111 5.9649 60.2422 5.99651C60.2733 6.02812 60.2979 6.06573 60.3145 6.10714C60.331 6.14855 60.3388 6.19291 60.3382 6.23761Z" fill="white"/>
<path d="M63.194 8.3524H62.6875V9.73958C62.6855 9.83089 62.6482 9.91771 62.5836 9.98121C62.519 10.0447 62.4323 10.0797 62.3425 10.0787C62.254 10.0785 62.1692 10.0427 62.1066 9.97914C62.044 9.9156 62.0087 9.82949 62.0083 9.73958V6.24246C62.0111 6.15143 62.0487 6.06511 62.1131 6.00179C62.1775 5.93847 62.2637 5.90315 62.3533 5.90332H63.5724C63.8857 5.91027 64.1845 6.03912 64.4071 6.2633C64.6297 6.48748 64.7592 6.78991 64.7689 7.10825C64.7631 7.36499 64.6807 7.61387 64.5326 7.82195C64.3845 8.03003 64.1777 8.18749 63.9395 8.27348L64.7133 9.55733C64.7584 9.63645 64.7713 9.7303 64.7495 9.81897C64.7276 9.90764 64.6726 9.98417 64.5961 10.0323C64.5432 10.0619 64.4838 10.0775 64.4234 10.0778C64.3654 10.0777 64.3083 10.0626 64.2577 10.0339C64.207 10.0052 64.1644 9.96381 64.1339 9.91369L63.194 8.3524ZM64.0958 7.11351C64.0894 6.97166 64.0289 6.83792 63.927 6.74073C63.8251 6.64354 63.69 6.59057 63.5503 6.59308H62.6875V7.66216H63.5503C63.694 7.6623 63.832 7.60472 63.9341 7.50196C64.0363 7.3992 64.0944 7.25959 64.0958 7.11351Z" fill="white"/>
<path d="M69.6506 6.2377V8.55093C69.6541 8.75375 69.6179 8.95524 69.544 9.14366C69.47 9.33208 69.3599 9.50364 69.22 9.64834C69.0801 9.79304 68.9133 9.90797 68.7292 9.98642C68.5452 10.0649 68.3475 10.1053 68.1479 10.1053C67.9483 10.1053 67.7507 10.0649 67.5666 9.98642C67.3826 9.90797 67.2157 9.79304 67.0758 9.64834C66.936 9.50364 66.8258 9.33208 66.7519 9.14366C66.678 8.95524 66.6417 8.75375 66.6453 8.55093V6.2377C66.6453 6.14617 66.681 6.05839 66.7447 5.99366C66.8084 5.92894 66.8948 5.89258 66.9848 5.89258C67.0749 5.89258 67.1613 5.92894 67.225 5.99366C67.2887 6.05839 67.3245 6.14617 67.3245 6.2377V8.55093C67.3245 8.77446 67.4118 8.98884 67.5674 9.1469C67.7229 9.30496 67.9338 9.39376 68.1538 9.39376C68.3737 9.39376 68.5847 9.30496 68.7403 9.1469C68.8958 8.98884 68.9832 8.77446 68.9832 8.55093V6.2377C68.9826 6.193 68.9909 6.14864 69.0074 6.10723C69.024 6.06583 69.0486 6.02821 69.0797 5.9966C69.1108 5.96499 69.1477 5.94004 69.1885 5.9232C69.2292 5.90636 69.2729 5.89798 69.3169 5.89856C69.3609 5.89798 69.4045 5.90636 69.4453 5.9232C69.486 5.94004 69.523 5.96499 69.5541 5.9966C69.5852 6.02821 69.6098 6.06583 69.6264 6.10723C69.6429 6.14864 69.6512 6.193 69.6506 6.2377Z" fill="white"/>
<path d="M75.6446 9.66571C75.6567 9.70733 75.6602 9.751 75.6552 9.79408C75.6501 9.83715 75.6365 9.87873 75.6152 9.9163C75.5938 9.95386 75.5652 9.98664 75.531 10.0126C75.4968 10.0386 75.4578 10.0573 75.4164 10.0675H75.3994C75.3938 10.0675 75.3937 10.0675 75.3886 10.079H75.3495C75.2716 10.0783 75.1964 10.0504 75.1364 9.99999C75.0764 9.94955 75.0353 9.87964 75.02 9.80204L74.5635 7.53951L73.7233 9.83026C73.7009 9.89939 73.6577 9.95959 73.5997 10.0023C73.5418 10.0449 73.472 10.0679 73.4004 10.0679C73.3288 10.0679 73.259 10.0449 73.201 10.0023C73.1431 9.95959 73.0998 9.89939 73.0775 9.83026L72.3371 7.64713L71.9474 9.80204C71.9351 9.88153 71.8949 9.95385 71.8344 10.0058C71.7739 10.0577 71.6971 10.0857 71.6179 10.0847C71.6009 10.0847 71.5788 10.079 71.5623 10.079C71.5176 10.0724 71.475 10.0558 71.4375 10.0303C71.3999 10.0048 71.3684 9.9711 71.3454 9.93167C71.3185 9.897 71.2996 9.85669 71.29 9.81367C71.2804 9.77064 71.2803 9.72598 71.2898 9.68293L71.8631 6.17625C71.8774 6.09992 71.9163 6.03062 71.9738 5.9794C72.0313 5.92817 72.104 5.89795 72.1804 5.89355H72.2081C72.2799 5.89351 72.3499 5.91665 72.408 5.95964C72.466 6.00262 72.5091 6.06323 72.531 6.13272L73.4102 8.64973L74.3286 6.12124C74.35 6.05359 74.3926 5.9949 74.4499 5.95407C74.5071 5.91324 74.5759 5.8925 74.6458 5.89499H74.6628C74.7387 5.89549 74.8121 5.92374 74.8693 5.97459C74.9265 6.02543 74.9637 6.09548 74.9743 6.17195L75.6446 9.66571Z" fill="white"/>
</g>
</svg>
