<svg width="76" height="21" viewBox="0 0 76 21" fill="none" xmlns="http://www.w3.org/2000/svg">
<mask id="mask0_2057_98520" style="mask-type:luminance" maskUnits="userSpaceOnUse" x="0" y="0" width="76" height="21">
<path d="M75.7462 0.0766602H0.835205V20.096H75.7462V0.0766602Z" fill="white"/>
</mask>
<g mask="url(#mask0_2057_98520)">
<path d="M8.97293 3.10766L2.13478 0.15442C1.99275 0.0929859 1.83795 0.0682883 1.68423 0.0825363C1.53051 0.0967844 1.38266 0.149534 1.25391 0.236065C1.12517 0.322597 1.01953 0.440212 0.946463 0.578389C0.873394 0.716566 0.835168 0.870995 0.835205 1.02786V8.62862C0.8352 8.79022 0.873729 8.94943 0.947494 9.0926C1.02126 9.23577 1.12806 9.35864 1.25876 9.4507C1.38946 9.54276 1.54016 9.60126 1.69797 9.6212C1.85578 9.64114 2.016 9.62193 2.1649 9.5652L6.70186 7.83649L1.78647 5.75525C1.71608 5.72218 1.66105 5.66267 1.63292 5.58924C1.60478 5.51581 1.60574 5.43415 1.63559 5.36142C1.66543 5.28868 1.72185 5.23053 1.79298 5.19917C1.86412 5.1678 1.94445 5.16567 2.0171 5.19321L7.52416 7.52366L9.07225 6.93339C11.7213 5.99968 11.8592 4.13417 8.97341 3.10671M9.62107 5.52517C9.59048 5.59953 9.53215 5.65854 9.45884 5.68929C9.38553 5.72004 9.30322 5.72003 9.22993 5.68924L1.67444 2.49157C1.63813 2.47621 1.60515 2.45373 1.57738 2.42542C1.54961 2.39711 1.52761 2.36352 1.51261 2.32656C1.48234 2.25193 1.48247 2.16812 1.513 2.09359C1.54352 2.01906 1.60192 1.9599 1.67537 1.92913C1.74881 1.89837 1.83127 1.89851 1.90461 1.92952L9.45963 5.12815C9.49601 5.14349 9.52906 5.16598 9.55688 5.19432C9.5847 5.22267 9.60674 5.25631 9.62173 5.29333C9.63673 5.33034 9.64439 5.37 9.64428 5.41003C9.64417 5.45007 9.63628 5.48968 9.62107 5.52661" fill="#CC0066"/>
<path d="M45.6422 12.2378C45.6466 12.4667 45.6116 12.6947 45.5386 12.9113C45.477 13.0909 45.3769 13.2543 45.2454 13.3896C45.1168 13.5182 44.961 13.6151 44.7898 13.6728C44.5991 13.7365 44.3993 13.7677 44.1986 13.7651C44.1044 13.7651 43.9932 13.7608 43.8649 13.7522C43.7439 13.7455 43.6245 13.721 43.5104 13.6795C43.4519 13.6678 43.3992 13.6357 43.3614 13.5887C43.3237 13.5417 43.3033 13.4828 43.3038 13.4222V11.0367C43.301 10.9906 43.3162 10.9452 43.3462 10.9104C43.378 10.8779 43.4171 10.8536 43.4601 10.8396C43.572 10.8042 43.6873 10.7811 43.8041 10.7708C43.9265 10.7593 44.0455 10.7535 44.1609 10.7535C44.3655 10.7513 44.5691 10.7816 44.7643 10.8435C44.9398 10.8983 45.1007 10.9928 45.235 11.1199C45.3684 11.2504 45.4714 11.4094 45.5367 11.5854C45.6125 11.7939 45.649 12.0151 45.6445 12.2373M45.1508 12.2416C45.1545 12.077 45.1295 11.9129 45.0769 11.7571C45.0336 11.6324 44.9627 11.5195 44.8698 11.427C44.7806 11.3408 44.674 11.2755 44.5572 11.2357C44.4327 11.1935 44.3021 11.1725 44.1708 11.1735C44.0406 11.1713 43.9104 11.1828 43.7825 11.208V13.3098C43.847 13.325 43.9127 13.3351 43.9788 13.3399C44.0506 13.3456 44.1245 13.3485 44.2005 13.3485C44.3311 13.3574 44.462 13.337 44.584 13.2888C44.706 13.2406 44.8161 13.1658 44.9065 13.0696C45.0844 12.8331 45.1708 12.5385 45.1494 12.2416" fill="#CC0066"/>
<path d="M46.1407 10.792C46.1397 10.7538 46.146 10.7158 46.1594 10.6801C46.1729 10.6444 46.1931 10.6117 46.2189 10.5839C46.2453 10.5561 46.2771 10.5342 46.3124 10.5198C46.3477 10.5053 46.3856 10.4987 46.4236 10.5002C46.461 10.499 46.4982 10.5058 46.5327 10.5202C46.5673 10.5347 46.5985 10.5564 46.6242 10.5839C46.6745 10.6412 46.7023 10.7152 46.7023 10.792C46.7023 10.8688 46.6745 10.9428 46.6242 11.0001C46.5985 11.0276 46.5673 11.0493 46.5327 11.0638C46.4982 11.0782 46.461 11.085 46.4236 11.0838C46.3856 11.0853 46.3477 11.0787 46.3124 11.0642C46.2771 11.0498 46.2453 11.0279 46.2189 11.0001C46.193 10.9723 46.1728 10.9397 46.1594 10.904C46.146 10.8682 46.1397 10.8302 46.1407 10.792ZM46.6557 13.7003C46.6276 13.7114 46.5986 13.7201 46.5691 13.7261C46.5283 13.735 46.4866 13.7393 46.4448 13.739C46.3766 13.7447 46.3086 13.7258 46.2528 13.6855C46.2305 13.6621 46.2135 13.6341 46.2029 13.6033C46.1923 13.5726 46.1885 13.5399 46.1916 13.5075V11.4894L46.2801 11.466C46.3215 11.4555 46.364 11.4505 46.4067 11.4511C46.4737 11.4457 46.5405 11.4646 46.595 11.5047C46.6168 11.5292 46.6334 11.5581 46.6435 11.5895C46.6536 11.6209 46.6571 11.6541 46.6538 11.687L46.6557 13.7003Z" fill="#CC0066"/>
<path d="M48.6627 13.4992C48.5985 13.5406 48.529 13.5728 48.4561 13.5949C48.3614 13.6225 48.2632 13.6355 48.1647 13.6336C48.0379 13.6344 47.9118 13.6141 47.7915 13.5734C47.6754 13.5337 47.5695 13.4684 47.4813 13.382C47.3864 13.2871 47.3142 13.1712 47.2704 13.0434C47.2155 12.8769 47.1899 12.7018 47.1947 12.5263C47.1915 12.3621 47.2172 12.1987 47.2704 12.0436C47.3163 11.9127 47.3906 11.794 47.4879 11.6964C47.5832 11.6027 47.6967 11.5304 47.8211 11.484C47.9599 11.4336 48.1064 11.409 48.2537 11.4113C48.3896 11.4101 48.5249 11.4302 48.6547 11.4711C48.7622 11.5041 48.8646 11.5524 48.9588 11.6146C49.0039 11.6461 49.0426 11.6862 49.0727 11.7327C49.1023 11.7824 49.117 11.8397 49.115 11.8977V13.7714C49.1188 13.9126 49.0929 14.053 49.0393 14.1832C48.9923 14.2929 48.919 14.3888 48.8261 14.4621C48.7292 14.5361 48.6185 14.5893 48.5008 14.6185C48.3689 14.6517 48.2333 14.6678 48.0974 14.6664C47.9664 14.6685 47.8358 14.6524 47.7091 14.6185C47.6241 14.5964 47.542 14.5643 47.4644 14.5229C47.404 14.4854 47.3597 14.4263 47.3401 14.3572C47.3206 14.2881 47.3273 14.2141 47.3589 14.1498C47.3786 14.1126 47.4076 14.0816 47.4432 14.0598C47.5261 14.1193 47.6171 14.1662 47.7134 14.199C47.8298 14.2411 47.9526 14.2622 48.0763 14.2612C48.2299 14.2707 48.3822 14.2276 48.5088 14.1388C48.563 14.0902 48.6052 14.0293 48.6319 13.9611C48.6587 13.8929 48.6692 13.8192 48.6627 13.746V13.4992ZM48.2278 13.2419C48.3154 13.2443 48.4024 13.228 48.4834 13.194C48.5468 13.1664 48.6047 13.1272 48.6542 13.0783V11.925C48.6036 11.8924 48.549 11.8665 48.4919 11.848C48.4175 11.8238 48.3398 11.8122 48.2617 11.8136C48.1808 11.8103 48.1002 11.8242 48.0249 11.8546C47.9497 11.8849 47.8816 11.9309 47.8249 11.9896C47.7032 12.138 47.6434 12.3289 47.6583 12.5215C47.6557 12.6348 47.6706 12.7478 47.7025 12.8563C47.7271 12.9387 47.7688 13.0148 47.8249 13.0792C47.8742 13.1345 47.9356 13.1771 48.0042 13.2036C48.0758 13.2301 48.1516 13.2428 48.2278 13.2419Z" fill="#CC0066"/>
<path d="M49.6947 10.792C49.6936 10.7538 49.7 10.7158 49.7134 10.6801C49.7268 10.6444 49.747 10.6117 49.7728 10.5839C49.7992 10.5561 49.8311 10.5342 49.8664 10.5198C49.9017 10.5053 49.9396 10.4987 49.9776 10.5002C50.0149 10.499 50.0521 10.5058 50.0867 10.5202C50.1212 10.5346 50.1524 10.5564 50.1781 10.5839C50.2284 10.6412 50.2562 10.7152 50.2562 10.792C50.2562 10.8688 50.2284 10.9428 50.1781 11.0001C50.1524 11.0277 50.1212 11.0494 50.0867 11.0638C50.0521 11.0782 50.0149 11.085 49.9776 11.0838C49.9396 11.0853 49.9017 11.0787 49.8664 11.0642C49.8311 11.0498 49.7992 11.0279 49.7728 11.0001C49.747 10.9723 49.7268 10.9397 49.7133 10.904C49.6999 10.8682 49.6936 10.8302 49.6947 10.792ZM50.2096 13.7003C50.1815 13.7114 50.1526 13.7201 50.123 13.7261C50.082 13.735 50.0402 13.7394 49.9983 13.739C49.93 13.7448 49.862 13.7258 49.8063 13.6855C49.7839 13.6621 49.7669 13.6341 49.7563 13.6033C49.7458 13.5726 49.7419 13.5399 49.7451 13.5075V11.4894L49.8335 11.466C49.8749 11.4555 49.9175 11.4505 49.9602 11.4511C50.0272 11.4457 50.094 11.4646 50.1484 11.5047C50.1703 11.5292 50.1868 11.5581 50.197 11.5895C50.2071 11.6209 50.2106 11.6541 50.2073 11.687L50.2096 13.7003Z" fill="#CC0066"/>
<path d="M51.4172 13.2996C51.4955 13.3511 51.5878 13.3759 51.6808 13.3704C51.7351 13.37 51.7891 13.3621 51.8413 13.347C51.8926 13.3333 51.9421 13.3139 51.9891 13.2891C52.0097 13.3161 52.0281 13.3447 52.0442 13.3747C52.0717 13.4305 52.0773 13.4948 52.0598 13.5546C52.0423 13.6144 52.0031 13.6652 51.9501 13.6966C51.8413 13.758 51.7174 13.7862 51.5933 13.778C51.4025 13.7878 51.2142 13.7311 51.0595 13.6172C50.9881 13.5514 50.9328 13.4696 50.898 13.3783C50.8632 13.2869 50.8498 13.1886 50.859 13.0911V10.8649C50.8897 10.854 50.9212 10.8454 50.9532 10.8391C50.9948 10.8303 51.0372 10.8259 51.0798 10.8261C51.1458 10.8207 51.2116 10.839 51.2657 10.8778C51.2875 10.9011 51.304 10.9289 51.3142 10.9592C51.3243 10.9896 51.3279 11.0219 51.3245 11.0538V11.5255H52.0169C52.0306 11.5515 52.042 11.5787 52.0508 11.6068C52.0623 11.6428 52.068 11.6804 52.0677 11.7182C52.0677 11.8528 52.0128 11.9199 51.903 11.9196H51.3245V13.0566C51.3198 13.1018 51.3258 13.1474 51.3422 13.1897C51.3586 13.2319 51.3848 13.2695 51.4186 13.2991" fill="#CC0066"/>
<path d="M53.3165 11.4101C53.5511 11.397 53.7832 11.4644 53.9755 11.6015C54.0608 11.6761 54.1274 11.7702 54.17 11.876C54.2125 11.9819 54.2297 12.0965 54.2203 12.2104V13.3216C54.2242 13.3818 54.2075 13.4416 54.1732 13.4909C54.1365 13.5348 54.0939 13.5731 54.0466 13.6048C53.9534 13.6578 53.8541 13.699 53.751 13.7272C53.612 13.7653 53.4684 13.7833 53.3245 13.7808C53.0868 13.7948 52.8508 13.7309 52.6515 13.5985C52.5707 13.5368 52.5063 13.4557 52.4639 13.3624C52.4215 13.2692 52.4025 13.1668 52.4086 13.0642C52.4034 12.9753 52.4175 12.8864 52.4501 12.8037C52.4826 12.721 52.5328 12.6466 52.5969 12.5859C52.7524 12.4622 52.9418 12.3902 53.1391 12.3797L53.7595 12.3109V12.208C53.7645 12.1506 53.7556 12.0928 53.7335 12.0396C53.7114 11.9865 53.6769 11.9397 53.6328 11.9033C53.5291 11.8344 53.4064 11.8009 53.2826 11.8076C53.1669 11.8072 53.0517 11.8245 52.9409 11.8588C52.8391 11.8899 52.7402 11.9301 52.6453 11.9789C52.6156 11.9509 52.5901 11.9187 52.5696 11.8832C52.5468 11.8446 52.5351 11.8002 52.5359 11.7551C52.5366 11.7101 52.5498 11.6661 52.5738 11.6283C52.6049 11.5879 52.6455 11.5561 52.6919 11.536C52.7822 11.4913 52.878 11.4592 52.9767 11.4403C53.0887 11.4183 53.2025 11.4075 53.3165 11.4082M53.325 13.39C53.4176 13.3918 53.51 13.3802 53.5994 13.3555C53.6569 13.3414 53.7113 13.3166 53.7599 13.2824V12.6777L53.2789 12.7294C53.1699 12.7368 53.0642 12.7706 52.9706 12.8279C52.9363 12.8541 52.9091 12.8887 52.8914 12.9284C52.8737 12.9681 52.8661 13.0117 52.8694 13.0551C52.8675 13.1018 52.8765 13.1482 52.8955 13.1907C52.9146 13.2331 52.9432 13.2704 52.9791 13.2996C53.0813 13.3679 53.2031 13.3996 53.325 13.3895" fill="#CC0066"/>
<path d="M55.1017 13.7392C55.0348 13.7439 54.9683 13.725 54.9134 13.6856C54.8905 13.6627 54.8728 13.6348 54.8619 13.604C54.8509 13.5732 54.8468 13.5403 54.8499 13.5077V10.6166L54.9384 10.5932C54.9798 10.5827 55.0224 10.5777 55.065 10.5784C55.1316 10.5737 55.1979 10.5917 55.2533 10.6296C55.2764 10.652 55.2941 10.6796 55.3051 10.7101C55.3161 10.7406 55.3201 10.7733 55.3168 10.8056V13.701C55.2914 13.7096 55.26 13.7182 55.2227 13.7268C55.1825 13.7358 55.1415 13.7401 55.1003 13.7397" fill="#CC0066"/>
<path d="M57.4374 12.7134V13.7002C57.4056 13.7106 57.3732 13.7192 57.3404 13.7261C57.2988 13.7349 57.2564 13.7393 57.2138 13.739C57.1439 13.7451 57.0742 13.7252 57.0176 13.683C56.9952 13.6583 56.9782 13.6291 56.9676 13.5973C56.9571 13.5655 56.9533 13.5318 56.9564 13.4984V11.0402C56.9536 10.9941 56.9688 10.9487 56.9987 10.9139C57.0306 10.8814 57.0697 10.8571 57.1127 10.8431C57.2206 10.8062 57.3325 10.7824 57.4459 10.7723C57.5714 10.7596 57.691 10.7532 57.8046 10.7532C58.1137 10.7275 58.421 10.8209 58.6654 11.0149C58.7594 11.1063 58.833 11.2173 58.881 11.3402C58.9291 11.4631 58.9506 11.595 58.9441 11.7271C58.95 11.8599 58.9282 11.9924 58.8802 12.1161C58.8321 12.2397 58.759 12.3517 58.6654 12.4446C58.4319 12.6416 58.1321 12.7385 57.8295 12.7149L57.4374 12.7134ZM57.8046 12.2973C57.9758 12.3072 58.1451 12.2565 58.2837 12.1538C58.3435 12.1014 58.3905 12.0355 58.4209 11.9615C58.4513 11.8874 58.4643 11.8072 58.4588 11.7271C58.4655 11.6486 58.4538 11.5697 58.4249 11.4967C58.3959 11.4236 58.3505 11.3585 58.2922 11.3066C58.1516 11.2092 57.9829 11.1624 57.813 11.1737C57.7484 11.1737 57.6822 11.1765 57.6144 11.1823C57.5534 11.1871 57.4927 11.1958 57.4327 11.2081V12.2977L57.8046 12.2973Z" fill="#CC0066"/>
<path d="M60.2169 11.4101C60.4515 11.397 60.6836 11.4644 60.8759 11.6015C60.9612 11.6761 61.0278 11.7702 61.0704 11.876C61.1129 11.9819 61.1302 12.0965 61.1207 12.2104V13.3216C61.1245 13.3818 61.1079 13.4416 61.0736 13.4909C61.0369 13.5348 60.9943 13.5731 60.947 13.6048C60.8538 13.6578 60.7545 13.699 60.6514 13.7272C60.5124 13.7653 60.3688 13.7833 60.2249 13.7808C59.9872 13.7948 59.7512 13.7309 59.5518 13.5985C59.4711 13.5368 59.4066 13.4557 59.3642 13.3624C59.3219 13.2692 59.3029 13.1668 59.309 13.0642C59.3038 12.9753 59.3179 12.8864 59.3505 12.8037C59.383 12.721 59.4331 12.6466 59.4972 12.5859C59.6528 12.4621 59.8422 12.3901 60.0395 12.3797L60.6598 12.3109V12.208C60.6649 12.1506 60.656 12.0927 60.6339 12.0396C60.6119 11.9865 60.5773 11.9397 60.5332 11.9033C60.4295 11.8344 60.3068 11.8008 60.183 11.8076C60.0673 11.8072 59.9521 11.8245 59.8413 11.8588C59.7395 11.8899 59.6406 11.9301 59.5457 11.9789C59.516 11.9509 59.4905 11.9187 59.4699 11.8832C59.4472 11.8446 59.4355 11.8002 59.4363 11.7551C59.437 11.7101 59.4501 11.6661 59.4742 11.6283C59.5053 11.5879 59.5459 11.5561 59.5923 11.536C59.6826 11.4913 59.7784 11.4592 59.8771 11.4403C59.989 11.4183 60.1029 11.4075 60.2169 11.4082M60.2254 13.39C60.318 13.3918 60.4104 13.3802 60.4998 13.3555C60.5573 13.3414 60.6117 13.3166 60.6603 13.2824V12.6777L60.1793 12.7294C60.0702 12.7368 59.9645 12.7706 59.871 12.8279C59.8367 12.8541 59.8095 12.8887 59.7918 12.9284C59.7741 12.9681 59.7665 13.0117 59.7698 13.0551C59.7679 13.1018 59.7769 13.1482 59.7959 13.1907C59.815 13.2331 59.8436 13.2704 59.8794 13.2996C59.9817 13.3679 60.1034 13.3996 60.2254 13.3895" fill="#CC0066"/>
<path d="M62.1211 13.1902C62.0452 13.033 61.9531 12.8113 61.8448 12.5253C61.7366 12.2393 61.6332 11.9161 61.5347 11.5557C61.5648 11.5197 61.6014 11.4899 61.6425 11.4677C61.6857 11.4435 61.7343 11.431 61.7837 11.4313C61.8409 11.4286 61.8974 11.4454 61.9442 11.4792C61.9944 11.5253 62.0297 11.5858 62.0454 11.6528C62.127 11.9102 62.2107 12.164 62.2967 12.4143C62.3827 12.6646 62.4776 12.9228 62.5815 13.1887H62.5984C62.6433 13.0857 62.689 12.9663 62.7354 12.8305C62.7818 12.6946 62.8269 12.5502 62.8705 12.3971C62.9141 12.244 62.9557 12.0889 62.9952 11.9317C63.0348 11.7745 63.0699 11.6244 63.1007 11.4816C63.1292 11.4672 63.1588 11.455 63.1891 11.4452C63.2247 11.4346 63.2617 11.4296 63.2988 11.4304C63.3573 11.4281 63.4151 11.4448 63.4636 11.4782C63.4867 11.4966 63.5049 11.5205 63.5167 11.5478C63.5284 11.5751 63.5333 11.6049 63.5309 11.6346C63.524 11.7623 63.5035 11.8889 63.4697 12.012C63.4289 12.1807 63.3762 12.3681 63.3115 12.5741C63.2469 12.7801 63.173 12.9874 63.0898 13.1959C63.0067 13.4048 62.9229 13.5907 62.8385 13.7537C62.7264 13.9799 62.5921 14.194 62.4374 14.3927C62.3992 14.4519 62.3489 14.502 62.2899 14.5397C62.231 14.5774 62.1648 14.6018 62.0957 14.6113C62.0596 14.6134 62.0234 14.6081 61.9893 14.5956C61.9553 14.5831 61.924 14.5637 61.8976 14.5386C61.8483 14.4884 61.8154 14.4239 61.8034 14.354C61.8586 14.3036 61.9108 14.2499 61.9597 14.1933C62.0159 14.1295 62.0722 14.0609 62.1287 13.9876C62.1852 13.9142 62.2393 13.8391 62.2911 13.7623C62.3401 13.6903 62.3831 13.6143 62.4196 13.5351C62.3646 13.5148 62.3148 13.4821 62.2741 13.4394C62.2093 13.3644 62.1573 13.2788 62.1202 13.1864" fill="#CC0066"/>
<path d="M66.4607 11.9098C66.3757 11.8417 66.269 11.8077 66.1609 11.8141C66.08 11.8137 66 11.83 65.9255 11.862C65.8495 11.8948 65.7795 11.9404 65.7184 11.9969C65.7242 12.0237 65.7284 12.0508 65.7311 12.0782C65.734 12.1069 65.7354 12.1356 65.7354 12.1638V13.6997C65.7073 13.7109 65.6783 13.7195 65.6487 13.7256C65.6093 13.7343 65.5691 13.7387 65.5287 13.7385C65.4598 13.7439 65.3911 13.725 65.3343 13.6849C65.3115 13.6619 65.2939 13.634 65.283 13.6032C65.2721 13.5724 65.2681 13.5395 65.2713 13.507V12.2155C65.2762 12.1593 65.2689 12.1027 65.25 12.0498C65.231 11.9968 65.2009 11.9487 65.1616 11.9088C65.0766 11.8407 64.9699 11.8067 64.8618 11.8132C64.7814 11.8127 64.7016 11.8273 64.6264 11.8562C64.5613 11.8811 64.4992 11.9131 64.441 11.9519V13.7021C64.4129 13.7133 64.3839 13.722 64.3544 13.728C64.3134 13.7369 64.2715 13.7412 64.2296 13.7409C64.1627 13.7456 64.0962 13.7267 64.0414 13.6873C64.0184 13.6643 64.0007 13.6364 63.9897 13.6056C63.9787 13.5749 63.9747 13.542 63.9778 13.5094V11.9395C63.9747 11.8775 63.9885 11.8159 64.0178 11.7615C64.0531 11.7081 64.0982 11.6622 64.1506 11.6261C64.3685 11.4882 64.6196 11.4141 64.8764 11.4118C65.0045 11.4096 65.1321 11.4306 65.2529 11.474C65.3573 11.5119 65.4513 11.5744 65.5273 11.6563C65.6158 11.5836 65.7147 11.525 65.8205 11.4826C65.9477 11.433 66.0831 11.409 66.2192 11.4118C66.3308 11.4111 66.4418 11.4272 66.5487 11.4597C66.6445 11.488 66.7331 11.5369 66.8085 11.6032C66.8826 11.6708 66.9409 11.7543 66.9794 11.8476C67.0242 11.9599 67.0459 12.0804 67.0429 12.2016V13.7031C67.012 13.7133 66.9806 13.7219 66.9488 13.7289C66.9094 13.7377 66.8692 13.742 66.8288 13.7418C66.7618 13.7465 66.6953 13.7276 66.6405 13.6882C66.6176 13.6653 66.5999 13.6374 66.5889 13.6066C66.5779 13.5758 66.5739 13.5429 66.577 13.5103V12.2188C66.582 12.1626 66.5748 12.106 66.5559 12.053C66.5369 12 66.5067 11.9519 66.4673 11.9122" fill="#CC0066"/>
<path d="M68.0175 12.8471C68.0446 13.007 68.1306 13.1503 68.258 13.248C68.3954 13.3399 68.5578 13.3856 68.7221 13.3786C68.8383 13.38 68.9536 13.3589 69.062 13.3164C69.1503 13.2825 69.2347 13.2385 69.3133 13.1853C69.3518 13.2057 69.384 13.2365 69.4064 13.2743C69.4287 13.3121 69.4403 13.3555 69.4399 13.3996C69.4394 13.4554 69.4184 13.5089 69.3811 13.5498C69.336 13.5999 69.2815 13.6401 69.2206 13.668C69.1454 13.7035 69.0665 13.7301 68.9853 13.7474C68.7323 13.7995 68.4703 13.783 68.2256 13.6995C68.0895 13.651 67.9656 13.5726 67.8627 13.4699C67.7578 13.3633 67.6774 13.2344 67.6273 13.0925C67.5699 12.9265 67.542 12.7514 67.5449 12.5754C67.5417 12.404 67.5682 12.2334 67.6231 12.0713C67.6695 11.9361 67.7436 11.8126 67.8406 11.7087C67.9329 11.6118 68.0444 11.5358 68.1677 11.4858C68.2945 11.4341 68.4301 11.4079 68.5668 11.4088C68.7005 11.4069 68.8332 11.4325 68.957 11.4839C69.0705 11.5312 69.1733 11.6014 69.2593 11.6903C69.3453 11.7792 69.4127 11.8849 69.4573 12.001C69.5061 12.1266 69.5304 12.2606 69.5289 12.3956C69.5316 12.4272 69.5282 12.459 69.5188 12.4892C69.5093 12.5194 69.494 12.5475 69.4738 12.5716C69.4306 12.612 69.3759 12.6375 69.3175 12.6443L68.0175 12.8471ZM68.5663 11.7948C68.4899 11.793 68.414 11.808 68.3437 11.8387C68.2734 11.8694 68.2105 11.9151 68.1592 11.9727C68.0429 12.1135 67.982 12.2932 67.9883 12.4769L69.0855 12.3095C69.0778 12.175 69.0267 12.0469 68.9401 11.945C68.8926 11.8935 68.8345 11.8534 68.77 11.8274C68.7054 11.8015 68.6356 11.7903 68.5663 11.7948Z" fill="#CC0066"/>
<path d="M71.2933 11.9228C71.1994 11.8456 71.0807 11.8065 70.9601 11.8132C70.8655 11.8118 70.7713 11.8263 70.6814 11.8563C70.6084 11.8815 70.5378 11.9135 70.4705 11.9519V13.7022C70.4425 13.7134 70.4135 13.722 70.3839 13.728C70.343 13.737 70.3011 13.7413 70.2592 13.7409C70.1923 13.7456 70.1257 13.7267 70.0709 13.6873C70.0479 13.6644 70.0303 13.6365 70.0193 13.6057C70.0083 13.5749 70.0042 13.542 70.0074 13.5094V11.9395C70.0044 11.8776 70.0183 11.816 70.0474 11.7616C70.0829 11.7082 70.1281 11.6622 70.1806 11.6262C70.2844 11.5668 70.3941 11.5187 70.5078 11.4827C70.6544 11.435 70.8076 11.4119 70.9615 11.4143C71.2044 11.4002 71.4443 11.4739 71.6388 11.6224C71.7244 11.7011 71.7912 11.7986 71.834 11.9076C71.8768 12.0165 71.8946 12.1339 71.8859 12.2509V13.705C71.8563 13.7157 71.8259 13.7244 71.7951 13.7309C71.7543 13.7398 71.7126 13.7441 71.6708 13.7438C71.6039 13.7485 71.5373 13.7296 71.4825 13.6902C71.4596 13.6672 71.4421 13.6393 71.4312 13.6085C71.4202 13.5777 71.4162 13.5448 71.4194 13.5123V12.2686C71.4247 12.2061 71.4165 12.1432 71.3954 12.0843C71.3742 12.0254 71.3407 11.9719 71.2971 11.9275" fill="#CC0066"/>
<path d="M73.0638 13.2996C73.142 13.3511 73.2343 13.3759 73.3274 13.3704C73.3817 13.37 73.4356 13.3621 73.4879 13.347C73.5391 13.3333 73.5886 13.3139 73.6356 13.2891C73.6562 13.3161 73.6746 13.3447 73.6907 13.3747C73.7184 13.4305 73.724 13.4948 73.7065 13.5547C73.689 13.6145 73.6497 13.6653 73.5966 13.6966C73.4878 13.758 73.364 13.7862 73.2398 13.778C73.0491 13.7878 72.8607 13.7311 72.706 13.6172C72.6346 13.5515 72.5793 13.4696 72.5445 13.3783C72.5097 13.2869 72.4963 13.1886 72.5055 13.0911V10.8649C72.5362 10.854 72.5677 10.8454 72.5997 10.8391C72.6413 10.8303 72.6837 10.8259 72.7263 10.8261C72.7923 10.8207 72.8581 10.839 72.9122 10.8778C72.9341 10.901 72.9507 10.9288 72.9609 10.9592C72.9712 10.9896 72.9748 11.0219 72.9715 11.0538V11.5255H73.6639C73.6777 11.5514 73.6891 11.5786 73.6978 11.6068C73.7093 11.6428 73.715 11.6804 73.7148 11.7182C73.7148 11.8528 73.6598 11.9199 73.55 11.9196H72.9715V13.0566C72.9667 13.1018 72.9728 13.1474 72.9892 13.1897C73.0056 13.2319 73.0318 13.2695 73.0657 13.2991" fill="#CC0066"/>
<path d="M75.7463 13.0954C75.7505 13.1906 75.7327 13.2854 75.6941 13.3722C75.6556 13.4591 75.5976 13.5355 75.5246 13.5953C75.3368 13.7291 75.1096 13.7934 74.8807 13.7775C74.7718 13.7783 74.663 13.7682 74.556 13.7474C74.4698 13.7315 74.3861 13.7042 74.307 13.6661C74.2456 13.6365 74.1911 13.5942 74.1469 13.5417C74.1091 13.4977 74.088 13.4414 74.0876 13.3829C74.0875 13.3373 74.0983 13.2923 74.1192 13.2518C74.1406 13.2099 74.1732 13.1749 74.2133 13.1509C74.3023 13.2122 74.3968 13.2646 74.4957 13.3073C74.6134 13.3566 74.7398 13.3807 74.8671 13.3781C74.9747 13.3852 75.0819 13.3599 75.1754 13.3054C75.2093 13.2826 75.2369 13.2513 75.2553 13.2145C75.2738 13.1777 75.2826 13.1367 75.2808 13.0954C75.2826 13.0602 75.2772 13.025 75.2649 12.9921C75.2526 12.9592 75.2336 12.9292 75.2093 12.9041C75.1477 12.8497 75.0735 12.812 74.9937 12.7946L74.6896 12.7089C74.5246 12.6708 74.3719 12.5903 74.2462 12.475C74.1972 12.4205 74.1595 12.3566 74.1352 12.287C74.111 12.2174 74.1007 12.1436 74.1051 12.0699C74.1046 11.9803 74.1234 11.8916 74.1601 11.8101C74.1966 11.7289 74.2507 11.6571 74.3183 11.6002C74.3953 11.5372 74.4835 11.49 74.5781 11.461C74.6929 11.425 74.8124 11.4076 74.9325 11.4093C75.0317 11.4082 75.1308 11.4175 75.2281 11.437C75.3059 11.4526 75.3817 11.4772 75.454 11.5102C75.5111 11.5353 75.5616 11.5735 75.6018 11.6217C75.6354 11.6617 75.6541 11.7125 75.6546 11.7652C75.6555 11.8102 75.6446 11.8546 75.623 11.8939C75.6035 11.9291 75.5769 11.9597 75.5449 11.9838C75.4678 11.9394 75.3874 11.9013 75.3044 11.8699C75.1967 11.8278 75.0822 11.8067 74.9669 11.8077C74.864 11.8018 74.7615 11.8255 74.6713 11.8762C74.6433 11.894 74.6194 11.918 74.6014 11.9463C74.5835 11.9745 74.5718 12.0065 74.5674 12.0398C74.5629 12.0731 74.5656 12.1071 74.5755 12.1392C74.5853 12.1714 74.602 12.2009 74.6242 12.2258C74.6833 12.2775 74.7547 12.3123 74.8313 12.3267L75.093 12.3956C75.277 12.4392 75.4474 12.5284 75.5891 12.6554C75.6434 12.7139 75.6854 12.7831 75.7126 12.8587C75.7398 12.9342 75.7516 13.0146 75.7473 13.095" fill="#CC0066"/>
<path d="M11.3198 6.3501V14.7243C11.3198 15.2725 11.1544 15.8075 10.8457 16.2571C10.5371 16.7067 10.1001 17.0492 9.59382 17.2385L2.07881 20.0472C1.96053 20.0916 1.83346 20.1062 1.70843 20.0898C1.58339 20.0735 1.46409 20.0267 1.36069 19.9534C1.25729 19.8802 1.17284 19.7826 1.11454 19.669C1.05625 19.5554 1.02583 19.4291 1.02588 19.301V12.1954C1.02612 11.768 1.15512 11.351 1.39553 11.0004C1.63594 10.6498 1.97623 10.3824 2.37064 10.2342L9.31658 7.62343C10.4128 7.17235 10.8411 6.89636 11.3203 6.35249" fill="white"/>
<path d="M17.9268 8.46883C17.9189 8.7802 17.795 9.07692 17.58 9.29893C17.365 9.52094 17.0751 9.65168 16.7689 9.66467H15.194C15.1032 9.66686 15.0152 9.63231 14.9495 9.56863C14.8837 9.50494 14.8455 9.41734 14.8433 9.32506V5.83894C14.8426 5.7927 14.851 5.74679 14.8681 5.70393C14.8852 5.66107 14.9106 5.62214 14.9428 5.58944C14.975 5.55674 15.0133 5.53093 15.0555 5.51356C15.0976 5.4962 15.1428 5.48761 15.1883 5.48832H16.7082C16.9355 5.50054 17.1545 5.57951 17.3385 5.71566C17.5226 5.85181 17.6638 6.0393 17.7451 6.25539C17.8264 6.47148 17.8443 6.7069 17.7966 6.93311C17.7489 7.15933 17.6376 7.36662 17.4763 7.52986C17.6153 7.64259 17.7279 7.78533 17.8059 7.94773C17.8838 8.11013 17.9248 8.28813 17.9268 8.46883ZM15.5117 7.22516L16.6305 7.21368C16.7664 7.20914 16.8955 7.15225 16.9917 7.05454C17.0878 6.95683 17.1438 6.82562 17.1483 6.68751C17.1475 6.55467 17.0959 6.42735 17.0045 6.33239C16.9131 6.23744 16.7889 6.18228 16.6583 6.17856H15.5117V7.22516ZM17.2372 8.46883C17.2279 8.32807 17.1675 8.19583 17.0678 8.09767C16.9681 7.99951 16.8361 7.94241 16.6973 7.9374H15.5394V8.98352H16.7303C16.8633 8.97922 16.9896 8.92361 17.0837 8.828C17.1778 8.7324 17.2325 8.60397 17.2367 8.46883" fill="white"/>
<path d="M20.6661 7.93736H20.1597V9.32454C20.1577 9.41585 20.1204 9.50268 20.0558 9.56617C19.9912 9.62967 19.9045 9.66471 19.8147 9.66368C19.7262 9.66343 19.6414 9.62763 19.5788 9.5641C19.5162 9.50056 19.4808 9.41445 19.4805 9.32454V5.82742C19.4833 5.7364 19.5209 5.65007 19.5853 5.58675C19.6497 5.52343 19.7359 5.48811 19.8255 5.48828H21.0441C21.3574 5.49523 21.6562 5.62408 21.8788 5.84826C22.1014 6.07244 22.2309 6.37487 22.2406 6.69321C22.2348 6.94995 22.1524 7.19883 22.0043 7.40691C21.8562 7.61499 21.6494 7.77245 21.4112 7.85844L22.185 9.14229C22.2302 9.22135 22.2432 9.31516 22.2214 9.40382C22.1996 9.49249 22.1447 9.56905 22.0683 9.61728C22.0154 9.64684 21.956 9.66246 21.8956 9.66272C21.8376 9.66267 21.7805 9.64757 21.7299 9.61886C21.6792 9.59015 21.6366 9.54877 21.6061 9.49865L20.6661 7.93736ZM21.568 6.69847C21.5616 6.55662 21.5011 6.42288 21.3992 6.32569C21.2973 6.2285 21.1622 6.17553 21.0224 6.17804H20.1597V7.24712H21.0224C21.1662 7.24726 21.3042 7.18968 21.4063 7.08692C21.5085 6.98416 21.5666 6.84455 21.568 6.69847Z" fill="white"/>
<path d="M26.1477 9.66279C25.605 9.65685 25.0866 9.43278 24.7059 9.03956C24.3252 8.64633 24.1132 8.11594 24.1162 7.56433C24.1233 7.15821 24.2482 6.76325 24.4753 6.429C24.7024 6.09476 25.0216 5.83611 25.3928 5.68553C25.764 5.53494 26.1707 5.49911 26.5619 5.58254C26.953 5.66598 27.3112 5.86495 27.5915 6.1545C27.8719 6.44405 28.0618 6.81127 28.1375 7.2101C28.2132 7.60893 28.1713 8.0216 28.0171 8.39633C27.8629 8.77106 27.6032 9.09116 27.2706 9.31647C26.9381 9.54177 26.5474 9.66225 26.1477 9.66279ZM24.7729 7.56433C24.7733 7.84126 24.8546 8.11183 25.0064 8.34182C25.1582 8.57181 25.3737 8.75089 25.6256 8.85641C25.8776 8.96192 26.1547 8.98914 26.4218 8.93461C26.689 8.88009 26.9342 8.74627 27.1266 8.55008C27.3189 8.35389 27.4497 8.10415 27.5023 7.83244C27.555 7.56072 27.5271 7.27925 27.4224 7.0236C27.3176 6.76796 27.1406 6.54964 26.9137 6.39624C26.6868 6.24285 26.4202 6.16128 26.1477 6.16184C25.7833 6.16548 25.4349 6.31457 25.1777 6.57695C24.9205 6.83934 24.7751 7.19396 24.7729 7.56433Z" fill="white"/>
<path d="M32.9828 9.6348C32.9397 9.65185 32.8937 9.65994 32.8475 9.6586C32.8013 9.65725 32.7558 9.64649 32.7138 9.62695C32.6717 9.60741 32.6339 9.5795 32.6027 9.54486C32.5715 9.51021 32.5474 9.46955 32.5319 9.42528L31.5905 6.84227L30.6444 9.42528C30.63 9.46967 30.6068 9.51058 30.5762 9.54548C30.5456 9.58038 30.5082 9.60851 30.4665 9.62815C30.4248 9.64779 30.3795 9.65852 30.3335 9.65966C30.2875 9.6608 30.2418 9.65234 30.1992 9.6348C30.1553 9.61951 30.1149 9.5953 30.0805 9.56365C30.0462 9.53199 30.0185 9.49356 29.9992 9.45069C29.9799 9.40781 29.9694 9.36139 29.9684 9.31426C29.9673 9.26713 29.9757 9.22028 29.993 9.17655L31.2507 5.70909C31.2771 5.63981 31.3238 5.58043 31.3845 5.53895C31.4452 5.49747 31.5169 5.47588 31.59 5.4771C31.6628 5.47745 31.7339 5.49967 31.7943 5.54095C31.8546 5.58222 31.9017 5.64073 31.9294 5.70909L33.1871 9.17655C33.2044 9.22025 33.2128 9.26708 33.2118 9.31418C33.2108 9.36129 33.2003 9.40769 33.1811 9.45056C33.1618 9.49343 33.1342 9.53187 33.0999 9.56354C33.0655 9.59521 33.0252 9.61946 32.9814 9.6348" fill="white"/>
<path d="M34.5911 9.32348V5.84406C34.5932 5.7548 34.6291 5.66981 34.6912 5.60667C34.7533 5.54354 34.8369 5.5071 34.9248 5.50492H35.7541C36.0528 5.50314 36.3486 5.56472 36.6225 5.68573C36.8858 5.80311 37.1212 5.97669 37.3126 6.19468C37.5036 6.41509 37.6461 6.6744 37.7306 6.95528C37.8151 7.23616 37.8397 7.53213 37.8026 7.82341C37.7412 8.32923 37.5004 8.79495 37.1254 9.13333C36.7504 9.47172 36.2669 9.65956 35.7654 9.66166H34.9252C34.8374 9.65948 34.7538 9.62305 34.6916 9.55991C34.6295 9.49678 34.5937 9.41178 34.5915 9.32252M37.1295 7.74401C37.1589 7.54866 37.1457 7.34913 37.0909 7.15952C37.0361 6.96991 36.941 6.79484 36.8122 6.64671C36.6791 6.4963 36.5159 6.37659 36.3334 6.29565C36.151 6.21471 35.9536 6.17442 35.7546 6.17746H35.2594V8.9829H35.7659C36.1035 8.98307 36.4293 8.85682 36.6811 8.62828C36.9329 8.39974 37.0931 8.08494 37.1309 7.74401" fill="white"/>
<path d="M41.1085 9.08016C40.9419 9.33588 40.6853 9.51705 40.3913 9.58644C40.0974 9.65583 39.7884 9.60817 39.5279 9.45326C39.4481 9.40404 39.3891 9.32641 39.3624 9.23545C39.3357 9.1445 39.3432 9.0467 39.3834 8.96105C39.4439 8.89008 39.5284 8.84486 39.6202 8.8344C39.7119 8.82394 39.8042 8.84901 39.8786 8.90461C39.994 8.96826 40.1288 8.985 40.2559 8.95143C40.383 8.91786 40.4927 8.8365 40.563 8.7238C40.6018 8.66515 40.6289 8.5993 40.6426 8.53001C40.6564 8.46072 40.6565 8.38936 40.6431 8.32001C40.6297 8.25065 40.6029 8.18467 40.5644 8.12584C40.5258 8.067 40.4763 8.01646 40.4185 7.97712C40.146 7.80157 40.1361 7.79631 39.873 7.62076C39.6125 7.44896 39.4298 7.17905 39.3651 6.87038C39.3004 6.56172 39.359 6.23957 39.5279 5.9748C39.6963 5.72119 39.9528 5.54171 40.246 5.47241C40.5392 5.40311 40.8474 5.44913 41.1085 5.60122C41.1858 5.64709 41.2427 5.72137 41.2676 5.8087C41.2925 5.89604 41.2834 5.98976 41.2422 6.07047C41.187 6.14443 41.1059 6.19395 41.0157 6.20873C40.9255 6.22352 40.8331 6.20244 40.7578 6.14987C40.6374 6.08757 40.4981 6.07454 40.3685 6.11347C40.2389 6.15241 40.129 6.24034 40.0612 6.35917C39.9935 6.478 39.9732 6.61869 40.0045 6.75229C40.0357 6.88589 40.1162 7.00223 40.2293 7.07737C40.3705 7.16777 40.3705 7.16777 40.7692 7.43372C40.8979 7.51907 41.0088 7.62937 41.0955 7.75831C41.1823 7.88726 41.2432 8.03232 41.2747 8.18519C41.3062 8.33807 41.3077 8.49576 41.2792 8.64925C41.2507 8.80273 41.1927 8.94948 41.1085 9.08016Z" fill="white"/>
<path d="M44.8662 7.92757C44.5549 7.95004 44.2426 7.95387 43.9309 7.93905V9.32623C43.929 9.41754 43.8916 9.50436 43.827 9.56786C43.7624 9.63136 43.6758 9.6664 43.5859 9.66537C43.4975 9.66499 43.4129 9.62914 43.3504 9.56562C43.2879 9.5021 43.2526 9.41606 43.2522 9.32623V5.83868C43.2517 5.79398 43.2599 5.74962 43.2764 5.70821C43.293 5.66681 43.3176 5.62919 43.3487 5.59758C43.3798 5.56597 43.4168 5.54102 43.4575 5.52418C43.4983 5.50734 43.542 5.49896 43.5859 5.49954H44.8328C45.1435 5.50938 45.4385 5.64072 45.6562 5.86619C45.874 6.09166 45.9977 6.39384 46.0015 6.70973C45.9965 7.02006 45.877 7.31717 45.6668 7.54231C45.4566 7.76746 45.1709 7.90426 44.8662 7.92566M44.7885 6.1783H43.9314V7.24738H44.7885C44.932 7.24652 45.0694 7.18862 45.1714 7.08607C45.2733 6.98353 45.3317 6.84449 45.3341 6.69873C45.3268 6.5572 45.266 6.42403 45.1643 6.32703C45.0626 6.23004 44.928 6.17675 44.7885 6.1783Z" fill="white"/>
<path d="M47.7822 9.32362V5.82794C47.7826 5.73811 47.8179 5.65207 47.8804 5.58855C47.9429 5.52503 48.0275 5.48917 48.1159 5.4888H50.1211C50.211 5.48764 50.2977 5.52264 50.3623 5.58616C50.4269 5.64969 50.4642 5.73659 50.4661 5.82794C50.4656 5.92077 50.4291 6.00966 50.3645 6.07531C50.2999 6.14095 50.2124 6.17806 50.1211 6.17856H48.4624V7.24764H49.7149C49.7589 7.24706 49.8025 7.25544 49.8432 7.27228C49.884 7.28911 49.921 7.31407 49.9521 7.34568C49.9832 7.37729 50.0078 7.41491 50.0243 7.45632C50.0409 7.49772 50.0492 7.54208 50.0486 7.58678C50.0492 7.63152 50.041 7.67593 50.0245 7.71739C50.0079 7.75885 49.9834 7.79653 49.9523 7.82819C49.9212 7.85985 49.8841 7.88485 49.8434 7.90172C49.8026 7.91858 49.7589 7.92698 49.7149 7.9264H48.4624V8.97252H50.1211C50.2124 8.97302 50.2999 9.01012 50.3645 9.07577C50.4291 9.14141 50.4656 9.2303 50.4661 9.32314C50.4641 9.41445 50.4268 9.50128 50.3622 9.56477C50.2976 9.62827 50.2109 9.66331 50.1211 9.66228H48.1174C48.029 9.6619 47.9443 9.62605 47.8818 9.56253C47.8193 9.49901 47.784 9.41297 47.7836 9.32314" fill="white"/>
<path d="M55.7031 9.21046C55.3487 9.49693 54.909 9.65245 54.4562 9.65149C53.9115 9.65149 53.3891 9.43158 53.0039 9.04016C52.6187 8.64873 52.4023 8.11784 52.4023 7.56427C52.4023 7.01071 52.6187 6.47981 53.0039 6.08838C53.3891 5.69695 53.9115 5.47705 54.4562 5.47705C54.8262 5.47756 55.1887 5.58345 55.5026 5.78271C55.542 5.80354 55.5769 5.83226 55.6051 5.86715C55.6333 5.90204 55.6543 5.94237 55.6668 5.98572C55.6793 6.02906 55.683 6.07453 55.6777 6.11938C55.6725 6.16423 55.6584 6.20754 55.6362 6.24669C55.6136 6.28547 55.5834 6.31909 55.5474 6.34546C55.5115 6.37183 55.4705 6.39037 55.4272 6.39994C55.3839 6.4095 55.3391 6.40988 55.2956 6.40104C55.2521 6.3922 55.2109 6.37434 55.1745 6.34858C54.9574 6.21751 54.7092 6.14904 54.4567 6.15055C54.2762 6.15055 54.0974 6.18669 53.9307 6.25692C53.7639 6.32715 53.6124 6.43009 53.4848 6.55984C53.3572 6.6896 53.256 6.84363 53.187 7.01315C53.118 7.18266 53.0826 7.36433 53.0827 7.54777C53.0765 7.81049 53.1434 8.06967 53.2755 8.29555C53.4077 8.52142 53.5999 8.70483 53.83 8.82471C54.0602 8.94459 54.3189 8.99608 54.5765 8.97328C54.8341 8.95047 55.0802 8.85428 55.2865 8.69577C55.3188 8.6676 55.3564 8.64626 55.397 8.63299C55.4375 8.61972 55.4803 8.61479 55.5227 8.61849C55.5652 8.62218 55.6065 8.63443 55.6442 8.65451C55.682 8.6746 55.7154 8.70212 55.7426 8.73547C55.7992 8.8038 55.8269 8.89214 55.8196 8.98117C55.8123 9.07019 55.7705 9.15264 55.7035 9.21046" fill="white"/>
<path d="M60.3385 5.82208C60.3385 5.86641 60.3298 5.91031 60.313 5.95122C60.2962 5.99212 60.2715 6.02923 60.2405 6.06038C60.2094 6.09153 60.1726 6.1161 60.1321 6.13267C60.0917 6.14924 60.0484 6.15748 60.0048 6.15691H59.1872V9.32445C59.1872 9.4137 59.1523 9.49929 59.0902 9.5624C59.0281 9.62551 58.9439 9.66096 58.8561 9.66096C58.7682 9.66096 58.684 9.62551 58.6219 9.5624C58.5598 9.49929 58.5249 9.4137 58.5249 9.32445V6.15596H57.7069C57.619 6.15596 57.5348 6.1205 57.4727 6.0574C57.4106 5.99429 57.3757 5.90869 57.3757 5.81945C57.3757 5.7302 57.4106 5.64461 57.4727 5.5815C57.5348 5.51839 57.619 5.48294 57.7069 5.48294H60.0052C60.0492 5.48236 60.0929 5.49074 60.1336 5.50758C60.1744 5.52441 60.2114 5.54937 60.2425 5.58098C60.2736 5.61259 60.2981 5.6502 60.3147 5.69161C60.3313 5.73302 60.339 5.77738 60.3385 5.82208Z" fill="white"/>
<path d="M63.1944 7.93736H62.688V9.32454C62.686 9.41585 62.6487 9.50268 62.5841 9.56617C62.5195 9.62967 62.4328 9.66471 62.343 9.66368C62.2545 9.66343 62.1697 9.62763 62.1071 9.5641C62.0445 9.50056 62.0092 9.41445 62.0088 9.32454V5.82742C62.0116 5.7364 62.0492 5.65007 62.1136 5.58675C62.178 5.52343 62.2642 5.48811 62.3538 5.48828H63.5729C63.8862 5.49523 64.185 5.62408 64.4076 5.84826C64.6302 6.07244 64.7597 6.37487 64.7694 6.69321C64.7636 6.94995 64.6812 7.19883 64.5331 7.40691C64.3849 7.61499 64.1781 7.77245 63.94 7.85844L64.7138 9.14229C64.7589 9.22141 64.7718 9.31526 64.75 9.40393C64.7281 9.4926 64.6731 9.56913 64.5966 9.61728C64.5437 9.64686 64.4843 9.66248 64.4239 9.66272C64.3659 9.66267 64.3088 9.64757 64.2582 9.61886C64.2075 9.59015 64.1649 9.54877 64.1344 9.49865L63.1944 7.93736ZM64.0963 6.69847C64.0899 6.55662 64.0294 6.42288 63.9275 6.32569C63.8256 6.2285 63.6905 6.17553 63.5508 6.17804H62.688V7.24712H63.5508C63.6945 7.24726 63.8325 7.18968 63.9346 7.08692C64.0368 6.98416 64.0949 6.84455 64.0963 6.69847Z" fill="white"/>
<path d="M69.6504 5.82168V8.13492C69.6539 8.33773 69.6177 8.53923 69.5437 8.72765C69.4698 8.91606 69.3597 9.08763 69.2198 9.23233C69.0799 9.37702 68.913 9.49195 68.729 9.57041C68.5449 9.64886 68.3473 9.68927 68.1477 9.68927C67.9481 9.68927 67.7505 9.64886 67.5664 9.57041C67.3823 9.49195 67.2155 9.37702 67.0756 9.23233C66.9357 9.08763 66.8256 8.91606 66.7517 8.72765C66.6777 8.53923 66.6415 8.33773 66.645 8.13492V5.82168C66.645 5.73015 66.6808 5.64237 66.7445 5.57765C66.8082 5.51293 66.8945 5.47656 66.9846 5.47656C67.0746 5.47656 67.1611 5.51293 67.2248 5.57765C67.2884 5.64237 67.3242 5.73015 67.3242 5.82168V8.13492C67.3242 8.35845 67.4116 8.57282 67.5671 8.73088C67.7227 8.88894 67.9336 8.97774 68.1535 8.97774C68.3735 8.97774 68.5845 8.88894 68.74 8.73088C68.8955 8.57282 68.9829 8.35845 68.9829 8.13492V5.82168C68.9824 5.77699 68.9906 5.73263 69.0072 5.69122C69.0238 5.64981 69.0483 5.61219 69.0794 5.58059C69.1105 5.54898 69.1475 5.52402 69.1882 5.50718C69.229 5.49034 69.2727 5.48197 69.3166 5.48254C69.3606 5.48197 69.4043 5.49034 69.445 5.50718C69.4858 5.52402 69.5228 5.54898 69.5539 5.58059C69.585 5.61219 69.6095 5.64981 69.6261 5.69122C69.6427 5.73263 69.6509 5.77699 69.6504 5.82168Z" fill="white"/>
<path d="M75.6446 9.25018C75.6567 9.29181 75.6602 9.33548 75.6552 9.37855C75.6501 9.42162 75.6365 9.4632 75.6152 9.50077C75.5938 9.53834 75.5652 9.57111 75.531 9.5971C75.4968 9.62309 75.4578 9.64177 75.4164 9.65198H75.3994C75.3938 9.65198 75.3937 9.65199 75.3886 9.66347H75.3495C75.2716 9.6628 75.1964 9.6349 75.1364 9.58446C75.0764 9.53402 75.0353 9.46412 75.02 9.38651L74.5635 7.12398L73.7233 9.41473C73.7009 9.48386 73.6577 9.54406 73.5997 9.58674C73.5418 9.62942 73.472 9.6524 73.4004 9.6524C73.3288 9.6524 73.259 9.62942 73.201 9.58674C73.1431 9.54406 73.0998 9.48386 73.0775 9.41473L72.3371 7.23161L71.9474 9.38651C71.9351 9.466 71.8949 9.53833 71.8344 9.59024C71.7739 9.64215 71.6971 9.67019 71.6179 9.66921C71.6009 9.66921 71.5788 9.66347 71.5623 9.66347C71.5176 9.65688 71.475 9.64024 71.4375 9.61475C71.3999 9.58926 71.3684 9.55557 71.3454 9.51614C71.3185 9.48147 71.2996 9.44116 71.29 9.39814C71.2804 9.35511 71.2803 9.31045 71.2898 9.2674L71.8631 5.76073C71.8774 5.68439 71.9163 5.6151 71.9738 5.56387C72.0313 5.51264 72.104 5.48243 72.1804 5.47803H72.2081C72.2799 5.47798 72.3499 5.50112 72.408 5.54411C72.466 5.5871 72.5091 5.64771 72.531 5.7172L73.4102 8.2342L74.3286 5.70571C74.35 5.63806 74.3926 5.57937 74.4499 5.53854C74.5071 5.49771 74.5759 5.47697 74.6458 5.47946H74.6628C74.7387 5.47997 74.8121 5.50822 74.8693 5.55906C74.9265 5.6099 74.9637 5.67995 74.9743 5.75642L75.6446 9.25018Z" fill="white"/>
</g>
</svg>
