<svg width="75" height="21" viewBox="0 0 75 21" fill="none" xmlns="http://www.w3.org/2000/svg">
<mask id="mask0_2057_96471" style="mask-type:luminance" maskUnits="userSpaceOnUse" x="0" y="0" width="75" height="21">
<path d="M74.9713 0.540527H0.970703V20.3228H74.9713V0.540527Z" fill="white"/>
</mask>
<g mask="url(#mask0_2057_96471)">
<path d="M9.00954 3.53518L2.25448 0.616901C2.11418 0.556195 1.96126 0.531789 1.80941 0.545869C1.65756 0.559948 1.51151 0.612073 1.38432 0.69758C1.25714 0.783087 1.15279 0.89931 1.08061 1.03585C1.00843 1.17239 0.970666 1.32499 0.970703 1.48V8.99076C0.970699 9.15045 1.00876 9.30777 1.08163 9.44925C1.1545 9.59072 1.26 9.71214 1.38911 9.80311C1.51822 9.89408 1.6671 9.95189 1.82299 9.97159C1.97888 9.9913 2.13714 9.97231 2.28424 9.91625L6.76607 8.20801L1.9104 6.15142C1.84088 6.11873 1.78651 6.05993 1.75872 5.98737C1.73093 5.91481 1.73187 5.83412 1.76136 5.76225C1.79084 5.69037 1.84657 5.63291 1.91684 5.60192C1.98712 5.57092 2.06647 5.56881 2.13824 5.59603L7.57836 7.89889L9.10764 7.31561C11.7245 6.39295 11.8607 4.54953 9.01 3.53423M9.6498 5.92406C9.61958 5.99754 9.56195 6.05585 9.48954 6.08624C9.41712 6.11663 9.33581 6.11661 9.26341 6.08619L1.79974 2.92638C1.76387 2.9112 1.73129 2.88899 1.70386 2.86101C1.67643 2.83304 1.65469 2.79984 1.63988 2.76332C1.60997 2.68957 1.61011 2.60676 1.64026 2.53311C1.67041 2.45946 1.7281 2.40101 1.80065 2.3706C1.8732 2.3402 1.95466 2.34034 2.02711 2.37099L9.49031 5.53174C9.52626 5.5469 9.5589 5.56912 9.58638 5.59713C9.61386 5.62514 9.63563 5.65838 9.65045 5.69496C9.66527 5.73154 9.67283 5.77073 9.67272 5.81029C9.67261 5.84984 9.66482 5.88899 9.6498 5.92548" fill="#CC0066"/>
<path d="M45.2341 12.5567C45.2385 12.7829 45.2039 13.0081 45.1318 13.2222C45.071 13.3997 44.972 13.5611 44.8421 13.6949C44.7151 13.8219 44.5612 13.9176 44.3921 13.9747C44.2037 14.0376 44.0063 14.0684 43.8081 14.0659C43.7151 14.0659 43.6052 14.0617 43.4784 14.0532C43.3589 14.0465 43.241 14.0223 43.1283 13.9813C43.0704 13.9697 43.0184 13.938 42.9811 13.8916C42.9438 13.8451 42.9237 13.7869 42.9241 13.727V11.3698C42.9214 11.3242 42.9364 11.2794 42.966 11.245C42.9975 11.2129 43.0361 11.1889 43.0785 11.175C43.1891 11.14 43.303 11.1172 43.4184 11.107C43.5393 11.0956 43.6568 11.09 43.7709 11.09C43.9729 11.0877 44.1741 11.1177 44.367 11.1788C44.5403 11.233 44.6992 11.3264 44.8319 11.452C44.9636 11.5809 45.0654 11.738 45.13 11.9119C45.2048 12.118 45.2409 12.3366 45.2364 12.5562M44.7487 12.5604C44.7523 12.3977 44.7276 12.2356 44.6757 12.0816C44.6329 11.9585 44.5629 11.8469 44.4711 11.7555C44.3831 11.6702 44.2777 11.6057 44.1624 11.5664C44.0393 11.5247 43.9103 11.5039 43.7806 11.505C43.652 11.5028 43.5234 11.5142 43.397 11.539V13.6159C43.4608 13.631 43.5256 13.6409 43.5909 13.6457C43.6619 13.6514 43.7349 13.6542 43.8099 13.6542C43.9389 13.663 44.0683 13.6428 44.1888 13.5952C44.3093 13.5476 44.418 13.4737 44.5074 13.3786C44.6831 13.1449 44.7685 12.8538 44.7473 12.5604" fill="#CC0066"/>
<path d="M45.7257 11.1289C45.7247 11.0911 45.7309 11.0535 45.7442 11.0183C45.7574 10.983 45.7774 10.9507 45.8029 10.9233C45.8289 10.8957 45.8604 10.8741 45.8953 10.8599C45.9302 10.8456 45.9676 10.839 46.0052 10.8405C46.042 10.8393 46.0788 10.8461 46.1129 10.8603C46.1471 10.8746 46.1778 10.896 46.2032 10.9233C46.2529 10.9798 46.2804 11.053 46.2804 11.1289C46.2804 11.2047 46.2529 11.2779 46.2032 11.3345C46.1778 11.3617 46.1471 11.3832 46.1129 11.3974C46.0788 11.4117 46.042 11.4184 46.0052 11.4172C45.9676 11.4187 45.9302 11.4121 45.8953 11.3979C45.8604 11.3836 45.8289 11.362 45.8029 11.3345C45.7774 11.3071 45.7574 11.2748 45.7442 11.2395C45.7309 11.2042 45.7246 11.1666 45.7257 11.1289ZM46.2344 14.0027C46.2066 14.0137 46.178 14.0223 46.1488 14.0282C46.1085 14.037 46.0673 14.0413 46.0261 14.041C45.9587 14.0466 45.8915 14.0279 45.8364 13.9881C45.8144 13.965 45.7975 13.9373 45.7871 13.9069C45.7767 13.8766 45.7729 13.8442 45.7759 13.8122V11.818L45.8633 11.7949C45.9042 11.7845 45.9463 11.7796 45.9884 11.7802C46.0546 11.7748 46.1206 11.7936 46.1744 11.8332C46.196 11.8573 46.2123 11.8859 46.2223 11.9169C46.2324 11.9479 46.2358 11.9808 46.2325 12.0132L46.2344 14.0027Z" fill="#CC0066"/>
<path d="M48.2164 13.8036C48.1529 13.8445 48.0843 13.8763 48.0123 13.8981C47.9188 13.9254 47.8218 13.9383 47.7245 13.9364C47.5992 13.9372 47.4746 13.9171 47.3558 13.8769C47.2411 13.8377 47.1365 13.7731 47.0494 13.6878C46.9556 13.594 46.8843 13.4795 46.841 13.3531C46.7868 13.1886 46.7614 13.0156 46.7662 12.8422C46.7631 12.68 46.7884 12.5185 46.841 12.3653C46.8863 12.2359 46.9597 12.1186 47.0559 12.0221C47.15 11.9296 47.2621 11.8581 47.3851 11.8122C47.5221 11.7624 47.6668 11.7381 47.8124 11.7404C47.9466 11.7392 48.0802 11.7591 48.2085 11.7995C48.3147 11.8321 48.4159 11.8798 48.5089 11.9413C48.5535 11.9724 48.5917 12.0121 48.6214 12.058C48.6506 12.1071 48.6652 12.1638 48.6632 12.2211V14.0725C48.6669 14.2121 48.6414 14.3508 48.5884 14.4795C48.542 14.5878 48.4696 14.6826 48.3778 14.7551C48.2821 14.8282 48.1727 14.8808 48.0565 14.9096C47.9261 14.9425 47.7922 14.9584 47.658 14.9569C47.5286 14.959 47.3995 14.9431 47.2744 14.9096C47.1904 14.8878 47.1093 14.8561 47.0326 14.8151C46.973 14.7781 46.9292 14.7197 46.9099 14.6514C46.8906 14.5831 46.8972 14.51 46.9285 14.4464C46.9479 14.4098 46.9766 14.3791 47.0117 14.3576C47.0936 14.4163 47.1835 14.4627 47.2786 14.4951C47.3936 14.5367 47.515 14.5575 47.6371 14.5566C47.7888 14.5659 47.9393 14.5233 48.0644 14.4356C48.1179 14.3876 48.1596 14.3274 48.186 14.26C48.2124 14.1926 48.2228 14.1198 48.2164 14.0475V13.8036ZM47.7868 13.5493C47.8733 13.5517 47.9593 13.5356 48.0393 13.502C48.1019 13.4747 48.1591 13.4359 48.208 13.3876V12.248C48.158 12.2158 48.1041 12.1902 48.0476 12.1719C47.9742 12.148 47.8974 12.1365 47.8203 12.1379C47.7404 12.1347 47.6607 12.1485 47.5864 12.1784C47.5121 12.2084 47.4448 12.2538 47.3888 12.3118C47.2685 12.4585 47.2094 12.6471 47.2242 12.8375C47.2216 12.9494 47.2364 13.061 47.2679 13.1683C47.2921 13.2497 47.3333 13.3249 47.3888 13.3886C47.4375 13.4432 47.4982 13.4853 47.5659 13.5115C47.6367 13.5377 47.7115 13.5502 47.7868 13.5493Z" fill="#CC0066"/>
<path d="M49.2355 11.1294C49.2344 11.0916 49.2407 11.054 49.2539 11.0187C49.2672 10.9835 49.2871 10.9512 49.3127 10.9238C49.3387 10.8962 49.3702 10.8746 49.4051 10.8604C49.4399 10.8461 49.4774 10.8395 49.5149 10.841C49.5518 10.8398 49.5885 10.8465 49.6227 10.8608C49.6568 10.875 49.6876 10.8965 49.713 10.9238C49.7627 10.9803 49.7902 11.0535 49.7902 11.1294C49.7902 11.2052 49.7627 11.2784 49.713 11.335C49.6876 11.3622 49.6568 11.3837 49.6227 11.3979C49.5885 11.4122 49.5518 11.4189 49.5149 11.4177C49.4774 11.4192 49.4399 11.4126 49.4051 11.3984C49.3702 11.3841 49.3387 11.3625 49.3127 11.335C49.2871 11.3076 49.2671 11.2753 49.2539 11.24C49.2406 11.2047 49.2344 11.1671 49.2355 11.1294ZM49.7441 14.0032C49.7164 14.0142 49.6878 14.0228 49.6586 14.0287C49.6181 14.0376 49.5768 14.0418 49.5354 14.0415C49.468 14.0472 49.4008 14.0284 49.3457 13.9886C49.3236 13.9655 49.3068 13.9378 49.2963 13.9074C49.2859 13.8771 49.2821 13.8447 49.2852 13.8127V11.8185L49.3726 11.7954C49.4135 11.785 49.4556 11.7801 49.4977 11.7807C49.5639 11.7753 49.6299 11.794 49.6837 11.8336C49.7053 11.8578 49.7216 11.8864 49.7316 11.9174C49.7416 11.9484 49.7451 11.9813 49.7418 12.0137L49.7441 14.0032Z" fill="#CC0066"/>
<path d="M50.938 13.6067C51.0153 13.6576 51.1065 13.6821 51.1984 13.6767C51.252 13.6763 51.3054 13.6685 51.3569 13.6535C51.4075 13.6401 51.4565 13.6209 51.503 13.5963C51.5233 13.623 51.5415 13.6513 51.5574 13.681C51.5845 13.7361 51.59 13.7996 51.5728 13.8587C51.5555 13.9178 51.5167 13.968 51.4644 13.9991C51.3569 14.0597 51.2345 14.0876 51.1119 14.0794C50.9235 14.0892 50.7374 14.0331 50.5846 13.9206C50.5141 13.8556 50.4595 13.7747 50.4251 13.6845C50.3907 13.5942 50.3775 13.497 50.3866 13.4007V11.2009C50.4169 11.1901 50.448 11.1816 50.4796 11.1753C50.5207 11.1666 50.5626 11.1623 50.6046 11.1626C50.6698 11.1572 50.7349 11.1752 50.7883 11.2136C50.8098 11.2366 50.8261 11.2641 50.8362 11.2941C50.8462 11.3241 50.8497 11.356 50.8464 11.3876V11.8536H51.5304C51.5439 11.8793 51.5552 11.9062 51.5639 11.934C51.5752 11.9695 51.5808 12.0067 51.5806 12.0441C51.5806 12.1771 51.5263 12.2434 51.4178 12.2431H50.8464V13.3666C50.8417 13.4112 50.8477 13.4564 50.8639 13.4981C50.8801 13.5398 50.906 13.577 50.9394 13.6063" fill="#CC0066"/>
<path d="M52.815 11.7392C53.0467 11.7262 53.276 11.7928 53.466 11.9283C53.5502 12.002 53.616 12.095 53.6581 12.1996C53.7001 12.3042 53.7171 12.4174 53.7077 12.53V13.628C53.7116 13.6876 53.6952 13.7467 53.6613 13.7954C53.625 13.8387 53.5829 13.8766 53.5362 13.9078C53.4442 13.9603 53.3461 14.001 53.2442 14.0289C53.1069 14.0665 52.9651 14.0843 52.8229 14.0818C52.588 14.0957 52.355 14.0325 52.158 13.9017C52.0782 13.8407 52.0146 13.7605 51.9727 13.6684C51.9309 13.5763 51.9121 13.475 51.9181 13.3737C51.9129 13.2859 51.9269 13.198 51.9591 13.1162C51.9912 13.0345 52.0408 12.9611 52.1041 12.9011C52.2578 12.7788 52.4448 12.7076 52.6397 12.6973L53.2525 12.6293V12.5276C53.2575 12.4709 53.2487 12.4138 53.2269 12.3613C53.2051 12.3088 53.171 12.2625 53.1275 12.2266C53.025 12.1584 52.9038 12.1253 52.7815 12.132C52.6672 12.1316 52.5534 12.1487 52.444 12.1826C52.3434 12.2133 52.2457 12.253 52.152 12.3012C52.1226 12.2736 52.0974 12.2417 52.0771 12.2067C52.0546 12.1685 52.0431 12.1246 52.0438 12.0801C52.0446 12.0356 52.0576 11.9922 52.0813 11.9548C52.112 11.9148 52.1521 11.8834 52.198 11.8635C52.2872 11.8195 52.3818 11.7877 52.4793 11.769C52.5899 11.7473 52.7024 11.7366 52.815 11.7373M52.8234 13.6956C52.9149 13.6974 53.0062 13.686 53.0945 13.6616C53.1512 13.6476 53.205 13.6231 53.253 13.5893V12.9918L52.7778 13.0429C52.6701 13.0502 52.5657 13.0836 52.4733 13.1402C52.4394 13.1661 52.4125 13.2003 52.395 13.2395C52.3776 13.2787 52.3701 13.3218 52.3733 13.3648C52.3715 13.4108 52.3803 13.4567 52.3991 13.4987C52.4179 13.5406 52.4462 13.5775 52.4816 13.6063C52.5826 13.6738 52.7029 13.7051 52.8234 13.6951" fill="#CC0066"/>
<path d="M54.5769 14.0407C54.5108 14.0453 54.4451 14.0266 54.3909 13.9877C54.3682 13.965 54.3508 13.9375 54.34 13.907C54.3291 13.8766 54.3251 13.8441 54.3282 13.8119V10.955L54.4156 10.9319C54.4565 10.9215 54.4985 10.9166 54.5407 10.9172C54.6065 10.9126 54.6719 10.9304 54.7266 10.9678C54.7494 10.99 54.767 11.0173 54.7778 11.0474C54.7887 11.0775 54.7927 11.1098 54.7894 11.1418V14.0028C54.7643 14.0113 54.7333 14.0199 54.6964 14.0284C54.6567 14.0373 54.6162 14.0416 54.5755 14.0411" fill="#CC0066"/>
<path d="M56.8854 13.0276V14.0027C56.854 14.013 56.822 14.0215 56.7896 14.0282C56.7485 14.037 56.7066 14.0412 56.6646 14.041C56.5955 14.047 56.5266 14.0274 56.4707 13.9857C56.4486 13.9613 56.4318 13.9324 56.4213 13.901C56.4109 13.8696 56.4071 13.8362 56.4102 13.8032V11.3742C56.4075 11.3286 56.4225 11.2837 56.4521 11.2494C56.4835 11.2172 56.5221 11.1933 56.5646 11.1794C56.6712 11.1429 56.7817 11.1194 56.8938 11.1095C57.0178 11.0969 57.1359 11.0906 57.2481 11.0906C57.5534 11.0652 57.857 11.1575 58.0985 11.3491C58.1913 11.4395 58.264 11.5491 58.3115 11.6706C58.359 11.792 58.3802 11.9224 58.3738 12.0529C58.3796 12.1841 58.3581 12.3151 58.3106 12.4373C58.2632 12.5595 58.1909 12.6701 58.0985 12.7619C57.8678 12.9566 57.5717 13.0523 57.2727 13.029L56.8854 13.0276ZM57.2481 12.6163C57.4173 12.6261 57.5845 12.576 57.7214 12.4745C57.7805 12.4228 57.8269 12.3577 57.8569 12.2845C57.887 12.2113 57.8998 12.132 57.8944 12.0529C57.901 11.9754 57.8895 11.8974 57.8609 11.8252C57.8323 11.753 57.7874 11.6887 57.7298 11.6374C57.5909 11.5411 57.4243 11.4949 57.2565 11.506C57.1926 11.506 57.1272 11.5089 57.0602 11.5145C57 11.5193 56.94 11.5279 56.8808 11.5401V12.6168L57.2481 12.6163Z" fill="#CC0066"/>
<path d="M59.6304 11.7392C59.8621 11.7262 60.0914 11.7928 60.2814 11.9283C60.3656 12.002 60.4315 12.095 60.4735 12.1996C60.5155 12.3042 60.5326 12.4174 60.5232 12.53V13.628C60.527 13.6876 60.5106 13.7467 60.4767 13.7954C60.4404 13.8387 60.3983 13.8766 60.3516 13.9078C60.2596 13.9603 60.1615 14.0009 60.0596 14.0289C59.9223 14.0665 59.7805 14.0843 59.6383 14.0818C59.4035 14.0957 59.1704 14.0325 58.9734 13.9017C58.8937 13.8407 58.83 13.7605 58.7881 13.6684C58.7463 13.5763 58.7275 13.475 58.7335 13.3737C58.7284 13.2859 58.7423 13.198 58.7745 13.1162C58.8066 13.0345 58.8562 12.9611 58.9195 12.9011C59.0732 12.7787 59.2602 12.7076 59.4551 12.6973L60.068 12.6293V12.5276C60.073 12.4709 60.0642 12.4137 60.0424 12.3612C60.0206 12.3087 59.9864 12.2625 59.9429 12.2266C59.8404 12.1584 59.7192 12.1253 59.597 12.132C59.4826 12.1316 59.3688 12.1487 59.2594 12.1826C59.1588 12.2133 59.0611 12.253 58.9674 12.3012C58.9381 12.2736 58.9128 12.2417 58.8925 12.2067C58.87 12.1685 58.8585 12.1246 58.8593 12.0801C58.86 12.0356 58.873 11.9922 58.8967 11.9548C58.9274 11.9148 58.9676 11.8835 59.0134 11.8635C59.1026 11.8195 59.1972 11.7877 59.2947 11.769C59.4053 11.7473 59.5178 11.7366 59.6304 11.7373M59.6388 13.6956C59.7303 13.6974 59.8216 13.686 59.9099 13.6616C59.9666 13.6476 60.0204 13.6231 60.0684 13.5893V12.9918L59.5932 13.0429C59.4855 13.0502 59.3811 13.0835 59.2887 13.1402C59.2548 13.1661 59.2279 13.2003 59.2105 13.2395C59.193 13.2787 59.1855 13.3218 59.1887 13.3648C59.1869 13.4108 59.1957 13.4567 59.2145 13.4987C59.2334 13.5406 59.2616 13.5775 59.297 13.6063C59.398 13.6738 59.5183 13.7051 59.6388 13.6951" fill="#CC0066"/>
<path d="M61.512 13.498C61.4369 13.3426 61.346 13.1236 61.239 12.8409C61.1321 12.5583 61.03 12.2389 60.9326 11.8828C60.9624 11.8473 60.9985 11.8178 61.0391 11.7959C61.0818 11.772 61.1298 11.7596 61.1786 11.7599C61.2351 11.7572 61.291 11.7739 61.3371 11.8072C61.3868 11.8528 61.4217 11.9126 61.4371 11.9788C61.5177 12.2331 61.6005 12.4839 61.6854 12.7313C61.7703 12.9786 61.8641 13.2337 61.9667 13.4965H61.9834C62.0278 13.3948 62.0729 13.2767 62.1188 13.1425C62.1646 13.0083 62.2091 12.8655 62.2522 12.7143C62.2953 12.563 62.3364 12.4097 62.3754 12.2544C62.4145 12.099 62.4492 11.9507 62.4796 11.8096C62.5078 11.7953 62.537 11.7833 62.567 11.7737C62.6022 11.7632 62.6387 11.7583 62.6753 11.759C62.7331 11.7567 62.7902 11.7733 62.8381 11.8063C62.8609 11.8244 62.8789 11.848 62.8905 11.875C62.9021 11.902 62.907 11.9315 62.9046 11.9608C62.8978 12.087 62.8775 12.2121 62.8441 12.3338C62.8038 12.5005 62.7517 12.6856 62.6879 12.8892C62.624 13.0927 62.551 13.2975 62.4689 13.5036C62.3867 13.71 62.304 13.8937 62.2206 14.0548C62.1099 14.2784 61.9772 14.4899 61.8244 14.6863C61.7866 14.7447 61.7369 14.7942 61.6787 14.8315C61.6205 14.8687 61.5551 14.8929 61.4869 14.9023C61.4512 14.9044 61.4154 14.8991 61.3817 14.8867C61.3481 14.8744 61.3173 14.8552 61.2911 14.8304C61.2424 14.7808 61.2099 14.7171 61.1981 14.648C61.2526 14.5982 61.3041 14.5451 61.3525 14.4891C61.408 14.4261 61.4636 14.3584 61.5194 14.2859C61.5752 14.2134 61.6287 14.1392 61.6798 14.0633C61.7283 13.9922 61.7707 13.9171 61.8068 13.8387C61.7524 13.8187 61.7033 13.7864 61.6631 13.7442C61.599 13.6701 61.5477 13.5856 61.511 13.4942" fill="#CC0066"/>
<path d="M65.7985 12.233C65.7144 12.1657 65.609 12.1321 65.5022 12.1385C65.4224 12.1381 65.3433 12.1542 65.2698 12.1857C65.1947 12.2181 65.1255 12.2632 65.0652 12.319C65.0709 12.3455 65.0751 12.3724 65.0777 12.3994C65.0805 12.4277 65.0819 12.4561 65.0819 12.484V14.0017C65.0542 14.0128 65.0255 14.0213 64.9963 14.0273C64.9574 14.0359 64.9176 14.0402 64.8778 14.04C64.8097 14.0454 64.7419 14.0267 64.6858 13.9871C64.6632 13.9643 64.6459 13.9367 64.6351 13.9063C64.6243 13.8759 64.6203 13.8434 64.6234 13.8113V12.535C64.6283 12.4796 64.6212 12.4237 64.6024 12.3713C64.5837 12.319 64.5539 12.2714 64.5151 12.2321C64.4311 12.1648 64.3257 12.1311 64.2189 12.1375C64.1395 12.1371 64.0607 12.1515 63.9864 12.1801C63.9221 12.2046 63.8607 12.2363 63.8033 12.2746V14.0041C63.7756 14.0152 63.7469 14.0237 63.7177 14.0296C63.6772 14.0385 63.6359 14.0427 63.5945 14.0424C63.5283 14.0471 63.4627 14.0284 63.4085 13.9894C63.3858 13.9668 63.3684 13.9392 63.3575 13.9088C63.3466 13.8783 63.3426 13.8458 63.3457 13.8136V12.2623C63.3426 12.2011 63.3563 12.1402 63.3853 12.0865C63.4201 12.0337 63.4646 11.9883 63.5164 11.9527C63.7316 11.8164 63.9797 11.7431 64.2333 11.7409C64.3599 11.7387 64.4859 11.7595 64.6053 11.8024C64.7084 11.8398 64.8013 11.9015 64.8764 11.9825C64.9638 11.9106 65.0615 11.8528 65.1661 11.8109C65.2916 11.7619 65.4254 11.7381 65.5599 11.7409C65.6701 11.7402 65.7798 11.7561 65.8854 11.7882C65.98 11.8162 66.0675 11.8645 66.142 11.93C66.2152 11.9968 66.2728 12.0793 66.3108 12.1716C66.3551 12.2825 66.3765 12.4016 66.3736 12.5213V14.005C66.343 14.0151 66.312 14.0237 66.2806 14.0306C66.2417 14.0392 66.2019 14.0435 66.1621 14.0433C66.0959 14.048 66.0302 14.0293 65.9761 13.9904C65.9534 13.9677 65.936 13.9401 65.9251 13.9097C65.9142 13.8793 65.9102 13.8468 65.9133 13.8146V12.5383C65.9183 12.4829 65.9112 12.4269 65.8925 12.3745C65.8737 12.3222 65.8438 12.2746 65.8049 12.2354" fill="#CC0066"/>
<path d="M67.3362 13.1592C67.363 13.3172 67.448 13.4588 67.5738 13.5553C67.7096 13.6461 67.8699 13.6913 68.0323 13.6843C68.147 13.6858 68.261 13.6649 68.368 13.6229C68.4553 13.5894 68.5386 13.5459 68.6163 13.4934C68.6543 13.5135 68.6861 13.544 68.7082 13.5813C68.7303 13.6187 68.7417 13.6616 68.7414 13.7051C68.7408 13.7603 68.7201 13.8132 68.6832 13.8536C68.6387 13.903 68.5848 13.9427 68.5247 13.9703C68.4504 14.0054 68.3724 14.0318 68.2922 14.0488C68.0423 14.1003 67.7835 14.084 67.5418 14.0015C67.4073 13.9536 67.2849 13.8761 67.1833 13.7746C67.0796 13.6693 67.0003 13.5419 66.9508 13.4017C66.8941 13.2376 66.8665 13.0646 66.8694 12.8907C66.8662 12.7214 66.8924 12.5527 66.9466 12.3925C66.9925 12.259 67.0657 12.1369 67.1614 12.0343C67.2527 11.9385 67.3628 11.8634 67.4845 11.814C67.6099 11.7629 67.7438 11.737 67.8789 11.7379C68.0109 11.7361 68.142 11.7613 68.2643 11.8121C68.3764 11.8588 68.478 11.9282 68.563 12.0161C68.6479 12.1039 68.7145 12.2083 68.7586 12.3231C68.8067 12.4472 68.8307 12.5796 68.8292 12.713C68.8319 12.7442 68.8286 12.7757 68.8192 12.8055C68.8099 12.8354 68.7948 12.8631 68.7748 12.887C68.7322 12.9269 68.6781 12.952 68.6205 12.9588L67.3362 13.1592ZM67.8784 12.1193C67.8029 12.1175 67.7279 12.1323 67.6585 12.1627C67.5891 12.193 67.5269 12.2382 67.4762 12.2952C67.3613 12.4343 67.3011 12.6118 67.3074 12.7934L68.3913 12.6279C68.3836 12.4951 68.3331 12.3685 68.2476 12.2678C68.2007 12.2169 68.1433 12.1772 68.0795 12.1516C68.0158 12.1259 67.9468 12.1149 67.8784 12.1193Z" fill="#CC0066"/>
<path d="M70.5731 12.2453C70.4803 12.1691 70.363 12.1305 70.2439 12.1371C70.1504 12.1356 70.0574 12.15 69.9686 12.1796C69.8965 12.2046 69.8267 12.2362 69.7603 12.2742V14.0037C69.7326 14.0147 69.704 14.0233 69.6748 14.0292C69.6343 14.038 69.593 14.0423 69.5515 14.042C69.4854 14.0466 69.4197 14.0279 69.3655 13.989C69.3428 13.9663 69.3254 13.9388 69.3146 13.9083C69.3037 13.8779 69.2997 13.8454 69.3028 13.8132V12.2619C69.2998 12.2007 69.3136 12.1399 69.3423 12.086C69.3773 12.0333 69.422 11.9879 69.4739 11.9523C69.5764 11.8936 69.6848 11.8461 69.7971 11.8105C69.9419 11.7634 70.0933 11.7406 70.2453 11.7429C70.4852 11.729 70.7222 11.8018 70.9144 11.9485C70.9989 12.0263 71.0649 12.1227 71.1072 12.2303C71.1495 12.3379 71.1671 12.454 71.1585 12.5696V14.0065C71.1292 14.0171 71.0992 14.0256 71.0688 14.032C71.0284 14.0409 70.9872 14.0451 70.946 14.0448C70.8799 14.0495 70.8141 14.0308 70.76 13.9919C70.7374 13.9691 70.72 13.9415 70.7093 13.9111C70.6985 13.8807 70.6945 13.8482 70.6977 13.816V12.5871C70.7029 12.5253 70.6948 12.4632 70.6739 12.405C70.653 12.3468 70.6199 12.2939 70.5768 12.2501" fill="#CC0066"/>
<path d="M72.3218 13.6063C72.3991 13.6571 72.4903 13.6816 72.5822 13.6762C72.6359 13.6758 72.6892 13.668 72.7408 13.6531C72.7914 13.6396 72.8403 13.6204 72.8868 13.5959C72.9071 13.6226 72.9253 13.6508 72.9412 13.6805C72.9685 13.7356 72.974 13.7992 72.9567 13.8583C72.9395 13.9174 72.9006 13.9676 72.8482 13.9986C72.7407 14.0592 72.6184 14.0871 72.4957 14.0789C72.3073 14.0887 72.1213 14.0326 71.9685 13.9201C71.8979 13.8551 71.8432 13.7743 71.8089 13.684C71.7745 13.5937 71.7613 13.4965 71.7704 13.4002V11.2004C71.8007 11.1896 71.8318 11.1811 71.8634 11.1748C71.9045 11.1661 71.9464 11.1619 71.9884 11.1621C72.0537 11.1567 72.1187 11.1747 72.1721 11.2131C72.1937 11.2361 72.2101 11.2635 72.2202 11.2935C72.2304 11.3236 72.2339 11.3555 72.2307 11.3871V11.8531H72.9147C72.9284 11.8787 72.9396 11.9057 72.9482 11.9335C72.9595 11.969 72.9652 12.0062 72.9649 12.0436C72.9649 12.1766 72.9106 12.2429 72.8021 12.2426H72.2307V13.3661C72.226 13.4108 72.232 13.4559 72.2482 13.4976C72.2644 13.5393 72.2903 13.5765 72.3237 13.6058" fill="#CC0066"/>
<path d="M74.9715 13.4051C74.9757 13.4991 74.958 13.5928 74.92 13.6786C74.8819 13.7644 74.8246 13.8399 74.7525 13.899C74.567 14.0312 74.3425 14.0948 74.1165 14.0791C74.0088 14.0799 73.9014 14.0699 73.7957 14.0493C73.7105 14.0336 73.6278 14.0066 73.5497 13.969C73.489 13.9398 73.4352 13.8979 73.3916 13.8461C73.3542 13.8026 73.3334 13.7469 73.333 13.6891C73.3329 13.644 73.3436 13.5996 73.3642 13.5596C73.3853 13.5181 73.4175 13.4836 73.4571 13.4599C73.545 13.5204 73.6384 13.5722 73.7361 13.6144C73.8524 13.6632 73.9773 13.687 74.103 13.6844C74.2093 13.6914 74.3152 13.6664 74.4075 13.6126C74.441 13.5901 74.4683 13.5591 74.4865 13.5228C74.5048 13.4864 74.5134 13.4458 74.5117 13.4051C74.5135 13.3703 74.5081 13.3355 74.4959 13.3029C74.4838 13.2704 74.4651 13.2408 74.441 13.216C74.3801 13.1622 74.3069 13.125 74.228 13.1077L73.9277 13.0231C73.7646 12.9855 73.6138 12.9059 73.4897 12.792C73.4413 12.7381 73.404 12.675 73.38 12.6062C73.356 12.5374 73.3459 12.4645 73.3502 12.3916C73.3498 12.3031 73.3683 12.2155 73.4046 12.135C73.4406 12.0547 73.494 11.9838 73.5608 11.9275C73.6369 11.8653 73.7241 11.8186 73.8175 11.7899C73.9309 11.7544 74.049 11.7372 74.1676 11.7389C74.2656 11.7378 74.3635 11.747 74.4596 11.7663C74.5365 11.7817 74.6114 11.8059 74.6828 11.8386C74.7391 11.8634 74.7891 11.9011 74.8288 11.9488C74.862 11.9883 74.8804 12.0385 74.8809 12.0906C74.8818 12.135 74.8711 12.1789 74.8497 12.2177C74.8304 12.2525 74.8041 12.2828 74.7725 12.3066C74.6964 12.2627 74.6169 12.2251 74.5349 12.1941C74.4286 12.1525 74.3155 12.1316 74.2015 12.1326C74.0999 12.1267 73.9987 12.1502 73.9096 12.2002C73.8819 12.2179 73.8583 12.2415 73.8405 12.2695C73.8228 12.2974 73.8113 12.329 73.8069 12.3619C73.8025 12.3949 73.8052 12.4284 73.8149 12.4602C73.8246 12.4919 73.8411 12.5211 73.8631 12.5457C73.9214 12.5968 73.992 12.6312 74.0676 12.6455L74.3262 12.7135C74.5079 12.7566 74.6763 12.8448 74.8162 12.9702C74.8698 13.0281 74.9113 13.0964 74.9382 13.1711C74.9651 13.2458 74.9767 13.3252 74.9725 13.4046" fill="#CC0066"/>
<path d="M11.328 6.73877V15.0138C11.328 15.5555 11.1646 16.0842 10.8597 16.5285C10.5548 16.9727 10.1231 17.3112 9.62299 17.4982L2.19931 20.2737C2.08247 20.3175 1.95695 20.332 1.83343 20.3158C1.70992 20.2997 1.59207 20.2535 1.48992 20.181C1.38777 20.1086 1.30436 20.0122 1.24677 19.8999C1.18918 19.7877 1.15913 19.663 1.15918 19.5364V12.5148C1.15942 12.0925 1.28685 11.6805 1.52434 11.334C1.76183 10.9875 2.09798 10.7233 2.48759 10.5769L9.34913 7.99702C10.432 7.55129 10.8552 7.27856 11.3285 6.74113" fill="white"/>
<path d="M17.8546 8.83247C17.8469 9.14015 17.7244 9.43335 17.5121 9.65274C17.2997 9.87212 17.0133 10.0013 16.7108 10.0141H15.155C15.0653 10.0163 14.9785 9.98217 14.9135 9.91924C14.8485 9.85631 14.8108 9.76974 14.8086 9.67855V6.23372C14.8079 6.18802 14.8163 6.14266 14.8332 6.10031C14.8501 6.05795 14.8751 6.01948 14.9069 5.98716C14.9387 5.95485 14.9766 5.92935 15.0182 5.91219C15.0599 5.89503 15.1045 5.88655 15.1494 5.88725H16.6508C16.8754 5.89932 17.0917 5.97736 17.2735 6.1119C17.4553 6.24643 17.5949 6.4317 17.6752 6.64523C17.7555 6.85876 17.7732 7.0914 17.726 7.31493C17.6789 7.53847 17.569 7.7433 17.4097 7.90461C17.547 8.01601 17.6581 8.15706 17.7352 8.31754C17.8122 8.47802 17.8527 8.65391 17.8546 8.83247ZM15.4689 7.60352L16.5741 7.59218C16.7084 7.58769 16.8359 7.53147 16.9309 7.43492C17.0259 7.33837 17.0812 7.20871 17.0856 7.07224C17.0848 6.94097 17.0339 6.81515 16.9436 6.72132C16.8533 6.62749 16.7306 6.57299 16.6015 6.56931H15.4689V7.60352ZM17.1735 8.83247C17.1642 8.69337 17.1046 8.5627 17.0061 8.4657C16.9076 8.3687 16.7772 8.31228 16.6401 8.30733H15.4963V9.34107H16.6727C16.804 9.33681 16.9289 9.28186 17.0218 9.18738C17.1147 9.09291 17.1688 8.96601 17.173 8.83247" fill="white"/>
<path d="M20.5609 8.30729H20.0606V9.67804C20.0587 9.76827 20.0218 9.85407 19.9579 9.91681C19.8941 9.97956 19.8086 10.0142 19.7198 10.0132C19.6324 10.0129 19.5486 9.97754 19.4868 9.91476C19.4249 9.85198 19.39 9.76689 19.3896 9.67804V6.22233C19.3924 6.13238 19.4296 6.04708 19.4932 5.98451C19.5568 5.92194 19.6419 5.88704 19.7305 5.88721H20.9343C21.2438 5.89408 21.5389 6.0214 21.7588 6.24293C21.9787 6.46445 22.1067 6.7633 22.1162 7.07787C22.1105 7.33157 22.0291 7.57751 21.8828 7.78312C21.7365 7.98874 21.5322 8.14433 21.297 8.2293L22.0614 9.49795C22.1059 9.57608 22.1188 9.66877 22.0973 9.75639C22.0758 9.84401 22.0215 9.91966 21.9461 9.96732C21.8937 9.99653 21.8351 10.012 21.7754 10.0122C21.7181 10.0122 21.6618 9.99725 21.6117 9.96888C21.5617 9.94051 21.5196 9.89962 21.4895 9.85009L20.5609 8.30729ZM21.4518 7.08307C21.4455 6.9429 21.3857 6.81074 21.2851 6.7147C21.1844 6.61866 21.0509 6.56632 20.9129 6.5688H20.0606V7.62522H20.9129C21.0549 7.62536 21.1912 7.56846 21.2921 7.46692C21.393 7.36538 21.4504 7.22742 21.4518 7.08307Z" fill="white"/>
<path d="M25.9756 10.0119C25.4394 10.006 24.9273 9.78462 24.5513 9.39605C24.1752 9.00748 23.9658 8.48337 23.9688 7.93829C23.9757 7.53698 24.0991 7.1467 24.3235 6.81641C24.5478 6.48612 24.8631 6.23054 25.2298 6.08174C25.5965 5.93293 25.9983 5.89753 26.3847 5.97997C26.7711 6.06242 27.125 6.25904 27.4019 6.54515C27.6788 6.83127 27.8664 7.19415 27.9411 7.58826C28.0159 7.98237 27.9745 8.39015 27.8222 8.76044C27.6699 9.13073 27.4133 9.44704 27.0848 9.66968C26.7563 9.89232 26.3704 10.0114 25.9756 10.0119ZM24.6174 7.93829C24.6179 8.21194 24.6982 8.47931 24.8481 8.70658C24.9981 8.93384 25.2109 9.1108 25.4598 9.21507C25.7087 9.31934 25.9824 9.34623 26.2463 9.29235C26.5103 9.23847 26.7525 9.10624 26.9425 8.91237C27.1325 8.71851 27.2617 8.47172 27.3137 8.20323C27.3657 7.93473 27.3382 7.65658 27.2347 7.40397C27.1312 7.15135 26.9563 6.93561 26.7322 6.78404C26.5081 6.63246 26.2448 6.55185 25.9756 6.55241C25.6156 6.55601 25.2714 6.70333 25.0173 6.96261C24.7632 7.22188 24.6196 7.57231 24.6174 7.93829Z" fill="white"/>
<path d="M32.7279 9.98449C32.6854 10.0013 32.6399 10.0093 32.5942 10.008C32.5486 10.0067 32.5037 9.99605 32.4621 9.97674C32.4206 9.95743 32.3833 9.92985 32.3524 9.89562C32.3216 9.86139 32.2978 9.82121 32.2825 9.77746L31.3525 7.22503L30.418 9.77746C30.4037 9.82132 30.3808 9.86175 30.3505 9.89623C30.3203 9.93072 30.2834 9.95852 30.2422 9.97793C30.201 9.99734 30.1562 10.0079 30.1108 10.0091C30.0654 10.0102 30.0202 10.0018 29.9781 9.98449C29.9347 9.96939 29.8949 9.94546 29.8609 9.91419C29.827 9.88291 29.7996 9.84493 29.7806 9.80256C29.7615 9.7602 29.7511 9.71433 29.7501 9.66776C29.749 9.62118 29.7573 9.57488 29.7744 9.53167L31.0168 6.10527C31.043 6.03681 31.0891 5.97813 31.1491 5.93714C31.209 5.89615 31.2798 5.87482 31.3521 5.87602C31.424 5.87637 31.4941 5.89833 31.5538 5.93912C31.6134 5.97991 31.6599 6.03771 31.6873 6.10527L32.9297 9.53167C32.9468 9.57485 32.9551 9.62113 32.9541 9.66768C32.9531 9.71423 32.9428 9.76008 32.9238 9.80244C32.9048 9.8448 32.8775 9.88278 32.8436 9.91408C32.8096 9.94538 32.7698 9.96934 32.7265 9.98449" fill="white"/>
<path d="M34.3174 9.67719V6.23897C34.3195 6.15077 34.3549 6.06678 34.4163 6.00439C34.4777 5.94201 34.5603 5.906 34.647 5.90385H35.4663C35.7614 5.90208 36.0536 5.96294 36.3242 6.08252C36.5843 6.19851 36.8167 6.37003 37.0058 6.58544C37.1945 6.80324 37.3353 7.05948 37.4188 7.33703C37.5023 7.61459 37.5265 7.90705 37.4899 8.19489C37.4292 8.69471 37.1914 9.15491 36.821 9.48929C36.4505 9.82367 35.9729 10.0093 35.4775 10.0114H34.6475C34.5607 10.0092 34.4781 9.97321 34.4167 9.91082C34.3554 9.84844 34.32 9.76444 34.3178 9.67624M36.825 8.11642C36.854 7.92339 36.841 7.72622 36.7868 7.53885C36.7327 7.35148 36.6387 7.1785 36.5116 7.03211C36.3801 6.88348 36.2188 6.7652 36.0386 6.68522C35.8584 6.60523 35.6634 6.56541 35.4668 6.56843H34.9776V9.34065H35.4779C35.8114 9.34081 36.1333 9.21606 36.382 8.99022C36.6308 8.76439 36.789 8.45331 36.8263 8.11642" fill="white"/>
<path d="M40.7545 9.43648C40.5899 9.68917 40.3364 9.8682 40.046 9.93677C39.7556 10.0053 39.4504 9.95824 39.1931 9.80517C39.1142 9.75653 39.0559 9.67982 39.0296 9.58994C39.0032 9.50006 39.0106 9.40342 39.0504 9.31879C39.1101 9.24866 39.1936 9.20397 39.2842 9.19363C39.3749 9.1833 39.466 9.20807 39.5395 9.26301C39.6535 9.32591 39.7867 9.34245 39.9122 9.30928C40.0378 9.27611 40.1462 9.19571 40.2156 9.08434C40.254 9.02639 40.2807 8.96131 40.2943 8.89285C40.3078 8.82438 40.308 8.75386 40.2947 8.68533C40.2815 8.6168 40.2551 8.5516 40.217 8.49346C40.1789 8.43532 40.1299 8.38538 40.0729 8.3465C39.8037 8.17303 39.7939 8.16783 39.534 7.99436C39.2766 7.8246 39.0961 7.55788 39.0322 7.25287C38.9683 6.94786 39.0262 6.62953 39.1931 6.3679C39.3594 6.11729 39.6128 5.93993 39.9025 5.87145C40.1921 5.80297 40.4965 5.84844 40.7545 5.99874C40.8308 6.04406 40.8871 6.11746 40.9117 6.20376C40.9362 6.29007 40.9273 6.38267 40.8866 6.46243C40.832 6.53552 40.7519 6.58445 40.6628 6.59906C40.5737 6.61367 40.4825 6.59284 40.4081 6.54089C40.2891 6.47932 40.1515 6.46645 40.0235 6.50492C39.8955 6.5434 39.7868 6.63028 39.7199 6.74771C39.653 6.86513 39.633 7.00416 39.6639 7.13618C39.6947 7.26819 39.7742 7.38315 39.8859 7.4574C40.0254 7.54674 40.0254 7.54674 40.4193 7.80954C40.5464 7.89388 40.656 8.00287 40.7417 8.13029C40.8273 8.25771 40.8875 8.40105 40.9186 8.55211C40.9498 8.70318 40.9513 8.859 40.9231 9.01067C40.895 9.16234 40.8377 9.30735 40.7545 9.43648Z" fill="white"/>
<path d="M44.4665 8.29726C44.159 8.31946 43.8505 8.32325 43.5426 8.3086V9.67935C43.5406 9.76958 43.5037 9.85538 43.4399 9.91813C43.3761 9.98087 43.2905 10.0155 43.2018 10.0145C43.1144 10.0141 43.0308 9.97868 42.969 9.91591C42.9073 9.85314 42.8725 9.76812 42.8721 9.67935V6.2331C42.8715 6.18893 42.8797 6.1451 42.896 6.10418C42.9124 6.06326 42.9367 6.02609 42.9674 5.99486C42.9981 5.96362 43.0347 5.93896 43.0749 5.92232C43.1152 5.90568 43.1583 5.89741 43.2018 5.89798H44.4334C44.7404 5.9077 45.0318 6.03749 45.2469 6.26028C45.462 6.48308 45.5842 6.78169 45.588 7.09384C45.583 7.40049 45.465 7.69408 45.2573 7.91656C45.0497 8.13904 44.7674 8.27422 44.4665 8.29537M44.3897 6.5687H43.543V7.62512H44.3897C44.5314 7.62427 44.6672 7.56706 44.7679 7.46573C44.8686 7.36439 44.9263 7.227 44.9286 7.08296C44.9214 6.94312 44.8614 6.81152 44.7609 6.71567C44.6605 6.61983 44.5275 6.56717 44.3897 6.5687Z" fill="white"/>
<path d="M47.3467 9.67763V6.22334C47.347 6.13457 47.3819 6.04955 47.4437 5.98678C47.5054 5.92401 47.589 5.88858 47.6763 5.88821H49.6571C49.7459 5.88707 49.8316 5.92165 49.8954 5.98442C49.9592 6.0472 49.9961 6.13307 49.9979 6.22334C49.9975 6.31507 49.9614 6.40291 49.8976 6.46778C49.8338 6.53265 49.7473 6.56931 49.6571 6.5698H48.0186V7.62623H49.2558C49.2993 7.62566 49.3424 7.63393 49.3826 7.65057C49.4229 7.66721 49.4595 7.69187 49.4902 7.72311C49.5209 7.75434 49.5452 7.79152 49.5615 7.83243C49.5779 7.87335 49.5861 7.91718 49.5855 7.96135C49.5861 8.00556 49.578 8.04945 49.5617 8.09042C49.5454 8.13139 49.5211 8.16862 49.4904 8.1999C49.4596 8.23119 49.423 8.25589 49.3828 8.27256C49.3425 8.28923 49.2993 8.29752 49.2558 8.29695H48.0186V9.33068H49.6571C49.7473 9.33118 49.8338 9.36784 49.8976 9.43271C49.9614 9.49758 49.9975 9.58541 49.9979 9.67715C49.996 9.76738 49.9591 9.85318 49.8953 9.91593C49.8315 9.97867 49.7459 10.0133 49.6571 10.0123H47.6778C47.5904 10.0119 47.5068 9.97648 47.445 9.91371C47.3833 9.85094 47.3484 9.76592 47.3481 9.67715" fill="white"/>
<path d="M55.1727 9.56518C54.8226 9.84826 54.3883 10.0019 53.941 10.001C53.4029 10.001 52.8869 9.78369 52.5064 9.39689C52.1259 9.0101 51.9121 8.48549 51.9121 7.93848C51.9121 7.39147 52.1259 6.86686 52.5064 6.48007C52.8869 6.09327 53.4029 5.87598 53.941 5.87598C54.3065 5.87648 54.6646 5.98111 54.9746 6.17801C55.0136 6.1986 55.048 6.22698 55.0759 6.26146C55.1038 6.29593 55.1246 6.33579 55.1369 6.37862C55.1492 6.42145 55.1529 6.46638 55.1477 6.5107C55.1425 6.55502 55.1286 6.59781 55.1067 6.63651C55.0844 6.67483 55.0545 6.70805 55.019 6.7341C54.9834 6.76016 54.943 6.77849 54.9002 6.78793C54.8574 6.79738 54.8131 6.79776 54.7702 6.78902C54.7272 6.78029 54.6865 6.76264 54.6506 6.73718C54.4361 6.60766 54.1909 6.54001 53.9415 6.5415C53.7631 6.5415 53.5866 6.57722 53.4219 6.64661C53.2571 6.71601 53.1075 6.81773 52.9814 6.94595C52.8554 7.07417 52.7554 7.22638 52.6873 7.39388C52.6191 7.56139 52.5841 7.74091 52.5842 7.92218C52.5781 8.18179 52.6441 8.4379 52.7747 8.6611C52.9053 8.8843 53.0951 9.06554 53.3225 9.184C53.5498 9.30246 53.8054 9.35334 54.0599 9.33081C54.3144 9.30827 54.5574 9.21322 54.7612 9.05659C54.7932 9.02875 54.8303 9.00766 54.8703 8.99455C54.9104 8.98144 54.9526 8.97657 54.9946 8.98022C55.0365 8.98387 55.0773 8.99597 55.1146 9.01582C55.1519 9.03567 55.1849 9.06286 55.2118 9.09582C55.2677 9.16333 55.2951 9.25063 55.2878 9.3386C55.2806 9.42657 55.2394 9.50805 55.1732 9.56518" fill="white"/>
<path d="M59.75 6.21699C59.75 6.2608 59.7414 6.30417 59.7248 6.3446C59.7082 6.38502 59.6838 6.42169 59.6532 6.45247C59.6225 6.48325 59.5861 6.50753 59.5462 6.5239C59.5062 6.54028 59.4634 6.54842 59.4203 6.54786H58.6127V9.67789C58.6127 9.76608 58.5782 9.85066 58.5169 9.91302C58.4555 9.97538 58.3723 10.0104 58.2856 10.0104C58.1988 10.0104 58.1156 9.97538 58.0543 9.91302C57.9929 9.85066 57.9585 9.76608 57.9585 9.67789V6.54691H57.1503C57.0636 6.54691 56.9804 6.51188 56.9191 6.44952C56.8577 6.38716 56.8232 6.30258 56.8232 6.21439C56.8232 6.1262 56.8577 6.04162 56.9191 5.97926C56.9804 5.9169 57.0636 5.88186 57.1503 5.88186H59.4208C59.4642 5.88129 59.5074 5.88957 59.5476 5.90621C59.5879 5.92285 59.6244 5.94751 59.6551 5.97874C59.6859 6.00998 59.7101 6.04715 59.7265 6.08807C59.7429 6.12898 59.7505 6.17282 59.75 6.21699Z" fill="white"/>
<path d="M62.5726 8.30729H62.0723V9.67804C62.0704 9.76827 62.0335 9.85407 61.9697 9.91681C61.9059 9.97956 61.8202 10.0142 61.7315 10.0132C61.6441 10.0129 61.5603 9.97754 61.4985 9.91476C61.4366 9.85198 61.4017 9.76689 61.4014 9.67804V6.22233C61.4041 6.13238 61.4413 6.04708 61.5049 5.98451C61.5686 5.92194 61.6536 5.88704 61.7422 5.88721H62.9465C63.256 5.89408 63.5511 6.0214 63.771 6.24293C63.9909 6.46445 64.1188 6.7633 64.1284 7.07787C64.1227 7.33157 64.0413 7.57751 63.895 7.78312C63.7487 7.98874 63.5444 8.14433 63.3091 8.2293L64.0735 9.49795C64.118 9.57613 64.1308 9.66887 64.1092 9.75649C64.0876 9.84412 64.0333 9.91974 63.9577 9.96732C63.9054 9.99654 63.8468 10.012 63.7871 10.0122C63.7298 10.0122 63.6735 9.99725 63.6234 9.96888C63.5734 9.94051 63.5313 9.89962 63.5012 9.85009L62.5726 8.30729ZM63.4635 7.08307C63.4572 6.9429 63.3974 6.81074 63.2968 6.7147C63.1961 6.61866 63.0626 6.56632 62.9246 6.5688H62.0723V7.62522H62.9246C63.0666 7.62536 63.2029 7.56846 63.3038 7.46692C63.4047 7.36538 63.4621 7.22742 63.4635 7.08307Z" fill="white"/>
<path d="M68.9495 6.21652V8.50236C68.953 8.70278 68.9172 8.90189 68.8442 9.08808C68.7712 9.27426 68.6624 9.4438 68.5242 9.58678C68.386 9.72977 68.2212 9.84334 68.0393 9.92086C67.8575 9.99839 67.6623 10.0383 67.4651 10.0383C67.2679 10.0383 67.0727 9.99839 66.8909 9.92086C66.7091 9.84334 66.5442 9.72977 66.4061 9.58678C66.2679 9.4438 66.1591 9.27426 66.086 9.08808C66.013 8.90189 65.9772 8.70278 65.9807 8.50236V6.21652C65.9807 6.12608 66.016 6.03933 66.079 5.97538C66.1419 5.91142 66.2272 5.87549 66.3161 5.87549C66.4051 5.87549 66.4905 5.91142 66.5534 5.97538C66.6163 6.03933 66.6516 6.12608 66.6516 6.21652V8.50236C66.6516 8.72325 66.738 8.93509 66.8916 9.09128C67.0453 9.24746 67.2536 9.33521 67.4709 9.33521C67.6882 9.33521 67.8966 9.24746 68.0502 9.09128C68.2039 8.93509 68.2902 8.72325 68.2902 8.50236V6.21652C68.2897 6.17236 68.2978 6.12852 68.3142 6.0876C68.3305 6.04668 68.3548 6.00951 68.3855 5.97828C68.4162 5.94705 68.4528 5.92238 68.493 5.90574C68.5333 5.88911 68.5764 5.88083 68.6199 5.8814C68.6633 5.88083 68.7064 5.88911 68.7467 5.90574C68.7869 5.92238 68.8235 5.94705 68.8542 5.97828C68.885 6.00951 68.9092 6.04668 68.9256 6.0876C68.9419 6.12852 68.9501 6.17236 68.9495 6.21652Z" fill="white"/>
<path d="M74.8704 9.60494C74.8823 9.64606 74.8858 9.68922 74.8808 9.73178C74.8758 9.77434 74.8624 9.81543 74.8413 9.85255C74.8202 9.88967 74.7919 9.92206 74.7582 9.94774C74.7244 9.97343 74.6859 9.99188 74.6449 10.002H74.6282C74.6226 10.002 74.6226 10.002 74.6175 10.0133H74.5789C74.5019 10.0127 74.4276 9.9851 74.3683 9.93525C74.3091 9.88541 74.2685 9.81633 74.2534 9.73964L73.8024 7.50391L72.9724 9.76754C72.9504 9.83585 72.9077 9.89533 72.8504 9.93751C72.7931 9.97968 72.7242 10.0024 72.6534 10.0024C72.5827 10.0024 72.5138 9.97968 72.4565 9.93751C72.3993 9.89533 72.3566 9.83585 72.3345 9.76754L71.6031 7.61026L71.2181 9.73964C71.2059 9.8182 71.1663 9.88967 71.1065 9.94096C71.0468 9.99226 70.9708 10.02 70.8926 10.019C70.8759 10.019 70.854 10.0133 70.8377 10.0133C70.7936 10.0068 70.7515 9.99037 70.7144 9.96518C70.6773 9.93999 70.6462 9.9067 70.6234 9.86774C70.5969 9.83348 70.5782 9.79365 70.5687 9.75114C70.5592 9.70862 70.5591 9.66449 70.5685 9.62195L71.1349 6.15679C71.1489 6.08136 71.1874 6.01289 71.2442 5.96227C71.301 5.91165 71.3729 5.88179 71.4483 5.87744H71.4757C71.5466 5.8774 71.6158 5.90027 71.6731 5.94274C71.7304 5.98522 71.773 6.04511 71.7947 6.11378L72.6632 8.60098L73.5704 6.10243C73.5916 6.03558 73.6336 5.97759 73.6902 5.93724C73.7467 5.89689 73.8147 5.8764 73.8837 5.87886H73.9005C73.9756 5.87936 74.048 5.90727 74.1045 5.95751C74.161 6.00775 74.1978 6.07697 74.2083 6.15254L74.8704 9.60494Z" fill="white"/>
</g>
</svg>
