<svg width="76" height="21" viewBox="0 0 76 21" fill="none" xmlns="http://www.w3.org/2000/svg">
<mask id="mask0_2057_106169" style="mask-type:luminance" maskUnits="userSpaceOnUse" x="0" y="0" width="76" height="21">
<path d="M75.7745 0.235352H0.863525V20.2547H75.7745V0.235352Z" fill="white"/>
</mask>
<g mask="url(#mask0_2057_106169)">
<path d="M9.00126 3.26538L2.1631 0.312135C2.02107 0.250701 1.86627 0.226003 1.71255 0.240251C1.55883 0.254499 1.41098 0.307249 1.28223 0.39378C1.15349 0.480312 1.04785 0.597927 0.974783 0.736104C0.901714 0.874281 0.863488 1.02871 0.863525 1.18558V8.78633C0.863521 8.94794 0.90205 9.10714 0.975814 9.25031C1.04958 9.39348 1.15638 9.51635 1.28708 9.60841C1.41778 9.70047 1.56849 9.75898 1.72629 9.77892C1.8841 9.79886 2.04432 9.77964 2.19322 9.72291L6.73018 7.99421L1.81479 5.91297C1.7444 5.87989 1.68937 5.82039 1.66124 5.74695C1.6331 5.67352 1.63406 5.59186 1.66391 5.51913C1.69375 5.4464 1.75017 5.38825 1.8213 5.35688C1.89244 5.32552 1.97277 5.32338 2.04542 5.35092L7.55248 7.68138L9.10057 7.09111C11.7496 6.1574 11.8875 4.29189 9.00173 3.26442M9.64939 5.68289C9.6188 5.75725 9.56047 5.81626 9.48716 5.84701C9.41385 5.87776 9.33154 5.87774 9.25825 5.84696L1.70276 2.64928C1.66645 2.63392 1.63347 2.61145 1.6057 2.58314C1.57793 2.55482 1.55593 2.52123 1.54093 2.48428C1.51066 2.40964 1.51079 2.32584 1.54132 2.25131C1.57184 2.17678 1.63024 2.11762 1.70369 2.08685C1.77713 2.05608 1.85959 2.05622 1.93293 2.08724L9.48795 5.28587C9.52433 5.30121 9.55738 5.32369 9.5852 5.35204C9.61302 5.38038 9.63506 5.41402 9.65005 5.45104C9.66505 5.48806 9.67271 5.52772 9.6726 5.56775C9.67249 5.60778 9.6646 5.6474 9.64939 5.68432" fill="#CC0066"/>
<path d="M45.6707 12.3955C45.6752 12.6245 45.6401 12.8524 45.5672 13.069C45.5056 13.2486 45.4054 13.412 45.2739 13.5474C45.1454 13.6759 44.9895 13.7728 44.8183 13.8305C44.6276 13.8942 44.4279 13.9254 44.2271 13.9229C44.133 13.9229 44.0218 13.9186 43.8934 13.9099C43.7725 13.9032 43.6531 13.8787 43.539 13.8372C43.4804 13.8255 43.4277 13.7934 43.39 13.7464C43.3523 13.6994 43.3319 13.6405 43.3324 13.5799V11.1944C43.3296 11.1483 43.3448 11.1029 43.3747 11.0681C43.4066 11.0356 43.4456 11.0114 43.4886 10.9974C43.6006 10.9619 43.7159 10.9388 43.8327 10.9285C43.9551 10.917 44.074 10.9113 44.1895 10.9113C44.394 10.909 44.5976 10.9393 44.7929 11.0012C44.9684 11.056 45.1293 11.1505 45.2636 11.2777C45.3969 11.4081 45.5 11.5671 45.5653 11.7431C45.641 11.9516 45.6776 12.1728 45.6731 12.3951M45.1793 12.3994C45.183 12.2347 45.158 12.0706 45.1055 11.9148C45.0621 11.7902 44.9913 11.6772 44.8983 11.5848C44.8092 11.4985 44.7025 11.4332 44.5858 11.3934C44.4613 11.3512 44.3307 11.3302 44.1994 11.3312C44.0691 11.329 43.939 11.3405 43.8111 11.3657V13.4675C43.8756 13.4827 43.9412 13.4928 44.0073 13.4976C44.0792 13.5034 44.1531 13.5062 44.229 13.5062C44.3596 13.5151 44.4905 13.4947 44.6125 13.4465C44.7345 13.3983 44.8446 13.3235 44.9351 13.2274C45.113 12.9909 45.1994 12.6963 45.1779 12.3994" fill="#CC0066"/>
<path d="M46.1691 10.9502C46.168 10.912 46.1744 10.874 46.1878 10.8383C46.2012 10.8026 46.2214 10.7699 46.2472 10.7421C46.2736 10.7143 46.3055 10.6924 46.3407 10.678C46.376 10.6635 46.4139 10.6569 46.452 10.6584C46.4893 10.6572 46.5265 10.664 46.561 10.6784C46.5956 10.6929 46.6268 10.7146 46.6525 10.7421C46.7028 10.7994 46.7306 10.8734 46.7306 10.9502C46.7306 11.027 46.7028 11.101 46.6525 11.1583C46.6268 11.1858 46.5956 11.2075 46.561 11.222C46.5265 11.2364 46.4893 11.2432 46.452 11.242C46.4139 11.2435 46.376 11.2369 46.3407 11.2224C46.3055 11.208 46.2736 11.1861 46.2472 11.1583C46.2213 11.1305 46.2011 11.0979 46.1877 11.0622C46.1743 11.0264 46.168 10.9884 46.1691 10.9502ZM46.684 13.8585C46.6559 13.8696 46.627 13.8783 46.5974 13.8843C46.5566 13.8932 46.5149 13.8975 46.4731 13.8972C46.4049 13.9029 46.3369 13.884 46.2811 13.8437C46.2588 13.8203 46.2418 13.7923 46.2312 13.7615C46.2206 13.7308 46.2168 13.6981 46.2199 13.6657V11.6476L46.3084 11.6242C46.3498 11.6137 46.3923 11.6087 46.435 11.6093C46.502 11.6039 46.5688 11.6229 46.6233 11.6629C46.6451 11.6874 46.6617 11.7163 46.6718 11.7477C46.682 11.7791 46.6855 11.8123 46.6821 11.8452L46.684 13.8585Z" fill="#CC0066"/>
<path d="M48.691 13.6564C48.6268 13.6978 48.5573 13.73 48.4844 13.7521C48.3897 13.7797 48.2915 13.7928 48.1931 13.7909C48.0662 13.7917 47.9401 13.7713 47.8198 13.7306C47.7038 13.6909 47.5978 13.6256 47.5096 13.5393C47.4147 13.4443 47.3426 13.3284 47.2988 13.2006C47.2438 13.0341 47.2182 12.8591 47.223 12.6835C47.2198 12.5193 47.2455 12.3559 47.2988 12.2009C47.3446 12.0699 47.4189 11.9512 47.5162 11.8536C47.6115 11.76 47.725 11.6876 47.8495 11.6412C47.9882 11.5908 48.1347 11.5662 48.282 11.5685C48.4179 11.5673 48.5532 11.5875 48.683 11.6283C48.7906 11.6613 48.8929 11.7096 48.9871 11.7718C49.0322 11.8033 49.0709 11.8435 49.101 11.89C49.1306 11.9396 49.1453 11.997 49.1434 12.055V13.9286C49.1471 14.0698 49.1213 14.2102 49.0676 14.3405C49.0206 14.4501 48.9473 14.546 48.8544 14.6193C48.7575 14.6933 48.6468 14.7465 48.5291 14.7758C48.3972 14.809 48.2617 14.825 48.1257 14.8236C47.9948 14.8257 47.8641 14.8096 47.7374 14.7758C47.6525 14.7536 47.5703 14.7215 47.4927 14.6801C47.4323 14.6426 47.388 14.5835 47.3685 14.5144C47.3489 14.4453 47.3557 14.3713 47.3872 14.307C47.4069 14.2699 47.436 14.2388 47.4715 14.2171C47.5544 14.2765 47.6454 14.3234 47.7417 14.3563C47.8581 14.3984 47.981 14.4194 48.1046 14.4184C48.2582 14.4279 48.4105 14.3848 48.5371 14.296C48.5914 14.2474 48.6335 14.1866 48.6603 14.1183C48.687 14.0501 48.6976 13.9764 48.691 13.9033V13.6564ZM48.2561 13.3991C48.3437 13.4016 48.4308 13.3853 48.5117 13.3513C48.5751 13.3236 48.633 13.2844 48.6826 13.2355V12.0822C48.6319 12.0496 48.5773 12.0238 48.5202 12.0052C48.4458 11.981 48.3681 11.9694 48.29 11.9708C48.2091 11.9675 48.1285 11.9815 48.0533 12.0118C47.978 12.0421 47.9099 12.0881 47.8532 12.1468C47.7315 12.2952 47.6717 12.4861 47.6866 12.6787C47.684 12.792 47.6989 12.905 47.7308 13.0136C47.7554 13.096 47.7971 13.172 47.8532 13.2365C47.9025 13.2917 47.964 13.3343 48.0325 13.3608C48.1042 13.3874 48.1799 13.4 48.2561 13.3991Z" fill="#CC0066"/>
<path d="M49.7228 10.9502C49.7217 10.912 49.728 10.874 49.7415 10.8383C49.7549 10.8026 49.7751 10.7699 49.8009 10.7421C49.8273 10.7143 49.8592 10.6924 49.8945 10.678C49.9298 10.6635 49.9677 10.6569 50.0057 10.6584C50.043 10.6572 50.0802 10.664 50.1147 10.6784C50.1493 10.6928 50.1805 10.7146 50.2062 10.7421C50.2565 10.7994 50.2843 10.8734 50.2843 10.9502C50.2843 11.027 50.2565 11.101 50.2062 11.1583C50.1805 11.1859 50.1493 11.2076 50.1147 11.222C50.0802 11.2364 50.043 11.2433 50.0057 11.242C49.9677 11.2435 49.9298 11.2369 49.8945 11.2224C49.8592 11.208 49.8273 11.1861 49.8009 11.1583C49.7751 11.1305 49.7548 11.0979 49.7414 11.0622C49.728 11.0264 49.7217 10.9884 49.7228 10.9502ZM50.2377 13.8585C50.2096 13.8696 50.1806 13.8783 50.1511 13.8843C50.1101 13.8932 50.0683 13.8976 50.0264 13.8972C49.9581 13.903 49.8901 13.884 49.8343 13.8437C49.812 13.8203 49.795 13.7923 49.7844 13.7616C49.7738 13.7308 49.77 13.6981 49.7731 13.6657V11.6476L49.8616 11.6242C49.903 11.6137 49.9456 11.6087 49.9882 11.6093C50.0553 11.6039 50.122 11.6229 50.1765 11.6629C50.1984 11.6874 50.2149 11.7163 50.225 11.7477C50.2352 11.7791 50.2387 11.8123 50.2354 11.8452L50.2377 13.8585Z" fill="#CC0066"/>
<path d="M51.4453 13.4568C51.5235 13.5083 51.6159 13.5331 51.7089 13.5276C51.7632 13.5272 51.8172 13.5193 51.8694 13.5042C51.9206 13.4906 51.9702 13.4711 52.0172 13.4463C52.0378 13.4733 52.0562 13.502 52.0723 13.5319C52.0998 13.5877 52.1054 13.652 52.0879 13.7118C52.0704 13.7716 52.0312 13.8224 51.9781 13.8539C51.8694 13.9152 51.7455 13.9435 51.6214 13.9352C51.4306 13.945 51.2423 13.8883 51.0876 13.7745C51.0162 13.7087 50.9609 13.6268 50.9261 13.5355C50.8913 13.4441 50.8779 13.3458 50.8871 13.2483V11.0221C50.9178 11.0112 50.9493 11.0026 50.9812 10.9963C51.0229 10.9875 51.0653 10.9832 51.1078 10.9834C51.1739 10.9779 51.2397 10.9962 51.2938 11.035C51.3155 11.0583 51.3321 11.0861 51.3422 11.1165C51.3524 11.1469 51.3559 11.1791 51.3526 11.2111V11.6827H52.045C52.0587 11.7087 52.0701 11.7359 52.0789 11.764C52.0903 11.8 52.0961 11.8376 52.0958 11.8755C52.0958 12.01 52.0409 12.0772 51.9311 12.0769H51.3526V13.2139C51.3478 13.259 51.3539 13.3047 51.3703 13.3469C51.3867 13.3891 51.4129 13.4267 51.4467 13.4564" fill="#CC0066"/>
<path d="M53.3449 11.5684C53.5794 11.5552 53.8115 11.6226 54.0038 11.7597C54.0891 11.8343 54.1557 11.9284 54.1983 12.0342C54.2408 12.1401 54.258 12.2547 54.2486 12.3686V13.4798C54.2525 13.54 54.2359 13.5998 54.2015 13.6491C54.1649 13.693 54.1222 13.7313 54.0749 13.763C53.9817 13.816 53.8824 13.8572 53.7793 13.8854C53.6403 13.9235 53.4968 13.9415 53.3529 13.939C53.1151 13.953 52.8792 13.8891 52.6798 13.7567C52.599 13.695 52.5346 13.6139 52.4922 13.5206C52.4498 13.4274 52.4308 13.325 52.4369 13.2224C52.4317 13.1335 52.4459 13.0446 52.4784 12.9619C52.511 12.8792 52.5611 12.8048 52.6252 12.7441C52.7808 12.6204 52.9701 12.5484 53.1674 12.5379L53.7878 12.4691V12.3662C53.7928 12.3088 53.7839 12.251 53.7618 12.1978C53.7398 12.1447 53.7052 12.0979 53.6612 12.0615C53.5574 11.9926 53.4347 11.9591 53.311 11.9659C53.1952 11.9654 53.08 11.9827 52.9693 12.017C52.8674 12.0481 52.7685 12.0883 52.6737 12.1371C52.644 12.1091 52.6185 12.0769 52.5979 12.0414C52.5751 12.0028 52.5634 11.9584 52.5642 11.9133C52.5649 11.8683 52.5781 11.8243 52.6021 11.7865C52.6332 11.7461 52.6738 11.7143 52.7202 11.6942C52.8106 11.6495 52.9064 11.6174 53.005 11.5985C53.117 11.5765 53.2308 11.5657 53.3449 11.5664M53.3533 13.5482C53.446 13.55 53.5384 13.5384 53.6278 13.5137C53.6852 13.4996 53.7396 13.4748 53.7883 13.4406V12.8359L53.3072 12.8876C53.1982 12.895 53.0925 12.9288 52.9989 12.9861C52.9646 13.0123 52.9374 13.0469 52.9197 13.0866C52.902 13.1263 52.8945 13.1699 52.8977 13.2134C52.8958 13.26 52.9048 13.3064 52.9238 13.3489C52.9429 13.3913 52.9715 13.4286 53.0074 13.4578C53.1096 13.5261 53.2314 13.5578 53.3533 13.5477" fill="#CC0066"/>
<path d="M55.1303 13.8969C55.0633 13.9016 54.9968 13.8827 54.942 13.8434C54.919 13.8204 54.9014 13.7925 54.8904 13.7617C54.8794 13.7309 54.8753 13.698 54.8785 13.6654V10.7744L54.967 10.7509C55.0083 10.7404 55.0509 10.7354 55.0936 10.7361C55.1602 10.7314 55.2264 10.7494 55.2818 10.7873C55.3049 10.8098 55.3227 10.8373 55.3337 10.8678C55.3447 10.8983 55.3487 10.931 55.3454 10.9633V13.8587C55.32 13.8673 55.2886 13.8759 55.2512 13.8845C55.2111 13.8935 55.17 13.8979 55.1289 13.8974" fill="#CC0066"/>
<path d="M57.4655 12.8716V13.8584C57.4337 13.8688 57.4013 13.8774 57.3685 13.8843C57.3269 13.8931 57.2845 13.8975 57.2419 13.8972C57.172 13.9033 57.1022 13.8834 57.0456 13.8412C57.0233 13.8165 57.0063 13.7873 56.9957 13.7555C56.9852 13.7237 56.9813 13.69 56.9845 13.6566V11.1984C56.9817 11.1523 56.9969 11.1069 57.0268 11.0721C57.0587 11.0396 57.0977 11.0153 57.1407 11.0013C57.2487 10.9644 57.3605 10.9406 57.474 10.9305C57.5995 10.9178 57.719 10.9114 57.8326 10.9114C58.1417 10.8857 58.449 10.9791 58.6935 11.1731C58.7875 11.2645 58.861 11.3755 58.9091 11.4984C58.9572 11.6213 58.9787 11.7532 58.9722 11.8853C58.978 12.0181 58.9562 12.1506 58.9082 12.2743C58.8602 12.3979 58.787 12.5099 58.6935 12.6028C58.46 12.7998 58.1602 12.8967 57.8576 12.8731L57.4655 12.8716ZM57.8326 12.4555C58.0039 12.4654 58.1732 12.4147 58.3118 12.312C58.3716 12.2596 58.4186 12.1937 58.449 12.1197C58.4794 12.0456 58.4924 11.9654 58.4869 11.8853C58.4935 11.8068 58.4819 11.7279 58.453 11.6549C58.424 11.5818 58.3786 11.5167 58.3203 11.4648C58.1796 11.3674 58.011 11.3206 57.8411 11.3319C57.7765 11.3319 57.7103 11.3347 57.6425 11.3405C57.5815 11.3453 57.5208 11.354 57.4608 11.3663V12.456L57.8326 12.4555Z" fill="#CC0066"/>
<path d="M60.245 11.5684C60.4795 11.5552 60.7117 11.6226 60.904 11.7597C60.9892 11.8343 61.0559 11.9284 61.0985 12.0342C61.141 12.1401 61.1582 12.2547 61.1487 12.3686V13.4798C61.1526 13.54 61.136 13.5998 61.1016 13.6491C61.065 13.693 61.0223 13.7313 60.975 13.763C60.8819 13.816 60.7826 13.8572 60.6794 13.8854C60.5405 13.9235 60.3969 13.9415 60.253 13.939C60.0152 13.953 59.7793 13.8891 59.5799 13.7567C59.4992 13.695 59.4347 13.6139 59.3923 13.5206C59.3499 13.4274 59.331 13.325 59.337 13.2224C59.3318 13.1335 59.346 13.0446 59.3785 12.9619C59.4111 12.8792 59.4612 12.8048 59.5253 12.7441C59.6809 12.6203 59.8702 12.5483 60.0676 12.5379L60.6879 12.4691V12.3662C60.693 12.3088 60.6841 12.2509 60.662 12.1978C60.6399 12.1447 60.6053 12.0979 60.5613 12.0615C60.4576 11.9926 60.3349 11.959 60.2111 11.9659C60.0953 11.9654 59.9801 11.9827 59.8694 12.017C59.7676 12.0481 59.6686 12.0883 59.5738 12.1371C59.5441 12.1091 59.5186 12.0769 59.498 12.0414C59.4753 12.0028 59.4636 11.9584 59.4643 11.9133C59.4651 11.8683 59.4782 11.8243 59.5022 11.7865C59.5333 11.7461 59.574 11.7143 59.6204 11.6942C59.7107 11.6495 59.8065 11.6174 59.9052 11.5985C60.0171 11.5765 60.1309 11.5657 60.245 11.5664M60.2535 13.5482C60.3461 13.55 60.4385 13.5384 60.5279 13.5137C60.5853 13.4996 60.6398 13.4748 60.6884 13.4406V12.8359L60.2073 12.8876C60.0983 12.895 59.9926 12.9288 59.899 12.9861C59.8648 13.0123 59.8375 13.0469 59.8199 13.0866C59.8022 13.1263 59.7946 13.1699 59.7979 13.2134C59.796 13.26 59.8049 13.3064 59.824 13.3489C59.843 13.3913 59.8716 13.4286 59.9075 13.4578C60.0097 13.5261 60.1315 13.5578 60.2535 13.5477" fill="#CC0066"/>
<path d="M62.1495 13.3479C62.0735 13.1907 61.9814 12.9691 61.8732 12.683C61.7649 12.397 61.6615 12.0738 61.563 11.7134C61.5931 11.6774 61.6297 11.6476 61.6708 11.6254C61.714 11.6012 61.7626 11.5887 61.812 11.5891C61.8692 11.5863 61.9258 11.6031 61.9725 11.6369C62.0228 11.683 62.0581 11.7436 62.0737 11.8105C62.1553 12.0679 62.2391 12.3217 62.325 12.572C62.411 12.8224 62.5059 13.0805 62.6098 13.3465H62.6267C62.6716 13.2435 62.7173 13.124 62.7637 12.9882C62.8102 12.8523 62.8552 12.7079 62.8988 12.5548C62.9424 12.4017 62.984 12.2466 63.0235 12.0894C63.0631 11.9322 63.0982 11.7821 63.129 11.6393C63.1575 11.6249 63.1871 11.6127 63.2175 11.6029C63.2531 11.5923 63.29 11.5873 63.3271 11.5881C63.3856 11.5858 63.4434 11.6026 63.4919 11.6359C63.515 11.6543 63.5332 11.6782 63.545 11.7055C63.5568 11.7328 63.5616 11.7626 63.5592 11.7923C63.5524 11.92 63.5318 12.0466 63.498 12.1698C63.4572 12.3385 63.4045 12.5258 63.3398 12.7318C63.2752 12.9378 63.2013 13.1451 63.1181 13.3536C63.035 13.5625 62.9512 13.7484 62.8668 13.9114C62.7548 14.1376 62.6204 14.3518 62.4658 14.5504C62.4275 14.6096 62.3772 14.6597 62.3182 14.6974C62.2593 14.7351 62.1931 14.7595 62.1241 14.769C62.0879 14.7712 62.0517 14.7658 62.0176 14.7533C61.9836 14.7408 61.9524 14.7214 61.9259 14.6963C61.8766 14.6461 61.8437 14.5816 61.8317 14.5117C61.8869 14.4613 61.9391 14.4076 61.988 14.351C62.0442 14.2872 62.1005 14.2186 62.157 14.1453C62.2135 14.0719 62.2676 13.9968 62.3194 13.92C62.3684 13.8481 62.4114 13.7721 62.4479 13.6928C62.3929 13.6725 62.3432 13.6398 62.3024 13.5971C62.2376 13.5221 62.1856 13.4366 62.1485 13.3441" fill="#CC0066"/>
<path d="M66.4888 12.0675C66.4038 11.9994 66.297 11.9654 66.1889 11.9718C66.1081 11.9715 66.0281 11.9877 65.9536 12.0197C65.8776 12.0525 65.8076 12.0981 65.7465 12.1546C65.7523 12.1814 65.7565 12.2086 65.7592 12.2359C65.762 12.2646 65.7635 12.2933 65.7635 12.3215V13.8574C65.7354 13.8686 65.7064 13.8773 65.6768 13.8833C65.6374 13.8921 65.5972 13.8964 65.5568 13.8962C65.4879 13.9017 65.4192 13.8827 65.3624 13.8426C65.3395 13.8196 65.322 13.7917 65.3111 13.7609C65.3002 13.7301 65.2962 13.6972 65.2993 13.6647V12.3732C65.3043 12.317 65.297 12.2605 65.2781 12.2075C65.2591 12.1545 65.229 12.1064 65.1897 12.0666C65.1046 11.9985 64.9979 11.9644 64.8898 11.9709C64.8095 11.9704 64.7297 11.985 64.6545 12.0139C64.5894 12.0388 64.5272 12.0709 64.4691 12.1096V13.8598C64.441 13.871 64.412 13.8797 64.3824 13.8857C64.3414 13.8946 64.2996 13.8989 64.2577 13.8986C64.1907 13.9033 64.1243 13.8844 64.0695 13.845C64.0465 13.822 64.0288 13.7941 64.0178 13.7634C64.0068 13.7326 64.0028 13.6997 64.0059 13.6671V12.0972C64.0028 12.0352 64.0166 11.9736 64.0459 11.9192C64.0812 11.8659 64.1262 11.8199 64.1786 11.7839C64.3966 11.6459 64.6477 11.5718 64.9044 11.5696C65.0326 11.5673 65.1601 11.5884 65.281 11.6317C65.3854 11.6696 65.4794 11.7321 65.5554 11.814C65.6439 11.7413 65.7427 11.6827 65.8486 11.6404C65.9758 11.5908 66.1112 11.5667 66.2473 11.5696C66.3589 11.5688 66.4699 11.5849 66.5768 11.6174C66.6725 11.6457 66.7612 11.6946 66.8366 11.7609C66.9106 11.8285 66.969 11.912 67.0075 12.0053C67.0523 12.1176 67.0739 12.2381 67.071 12.3593V13.8608C67.0401 13.871 67.0087 13.8796 66.9769 13.8866C66.9375 13.8954 66.8972 13.8997 66.8569 13.8995C66.7899 13.9042 66.7234 13.8853 66.6686 13.846C66.6456 13.823 66.628 13.7951 66.617 13.7643C66.606 13.7335 66.6019 13.7006 66.605 13.668V12.3765C66.6101 12.3204 66.6029 12.2637 66.584 12.2107C66.565 12.1577 66.5347 12.1096 66.4954 12.0699" fill="#CC0066"/>
<path d="M68.0456 13.0039C68.0727 13.1637 68.1587 13.3071 68.2861 13.4047C68.4235 13.4966 68.5858 13.5423 68.7502 13.5353C68.8663 13.5367 68.9817 13.5156 69.0901 13.4731C69.1784 13.4392 69.2628 13.3952 69.3414 13.3421C69.3799 13.3624 69.4121 13.3932 69.4344 13.4311C69.4568 13.4689 69.4684 13.5122 69.468 13.5564C69.4675 13.6121 69.4465 13.6657 69.4092 13.7066C69.3641 13.7566 69.3095 13.7968 69.2487 13.8247C69.1735 13.8602 69.0945 13.8869 69.0133 13.9041C68.7604 13.9562 68.4983 13.9397 68.2536 13.8563C68.1176 13.8078 67.9937 13.7294 67.8907 13.6267C67.7859 13.5201 67.7055 13.3912 67.6554 13.2493C67.598 13.0832 67.5701 12.9081 67.573 12.7322C67.5698 12.5608 67.5963 12.3901 67.6512 12.228C67.6976 12.0929 67.7717 11.9693 67.8686 11.8654C67.961 11.7685 68.0724 11.6926 68.1957 11.6425C68.3226 11.5908 68.4582 11.5646 68.5949 11.5655C68.7286 11.5637 68.8613 11.5892 68.9851 11.6406C69.0986 11.6879 69.2014 11.7581 69.2874 11.847C69.3734 11.9359 69.4408 12.0416 69.4854 12.1577C69.5342 12.2833 69.5585 12.4173 69.5569 12.5523C69.5597 12.5839 69.5563 12.6157 69.5468 12.646C69.5374 12.6762 69.5221 12.7042 69.5019 12.7284C69.4587 12.7688 69.404 12.7942 69.3456 12.8011L68.0456 13.0039ZM68.5944 11.9515C68.518 11.9497 68.442 11.9647 68.3718 11.9954C68.3015 12.0261 68.2386 12.0718 68.1873 12.1295C68.0709 12.2703 68.01 12.4499 68.0164 12.6336L69.1136 12.4662C69.1059 12.3318 69.0547 12.2037 68.9681 12.1017C68.9207 12.0503 68.8626 12.0101 68.7981 11.9842C68.7335 11.9582 68.6637 11.9471 68.5944 11.9515Z" fill="#CC0066"/>
<path d="M71.3216 12.0805C71.2277 12.0033 71.109 11.9643 70.9884 11.9709C70.8938 11.9695 70.7996 11.984 70.7097 12.014C70.6367 12.0392 70.5661 12.0713 70.4989 12.1097V13.8599C70.4708 13.8711 70.4418 13.8797 70.4123 13.8857C70.3713 13.8947 70.3294 13.899 70.2875 13.8986C70.2206 13.9033 70.1541 13.8844 70.0992 13.8451C70.0763 13.8221 70.0586 13.7942 70.0476 13.7634C70.0366 13.7326 70.0326 13.6997 70.0357 13.6671V12.0972C70.0327 12.0353 70.0466 11.9737 70.0757 11.9193C70.1112 11.8659 70.1564 11.8199 70.2089 11.7839C70.3127 11.7246 70.4224 11.6765 70.5361 11.6404C70.6827 11.5928 70.8359 11.5697 70.9898 11.572C71.2327 11.5579 71.4726 11.6316 71.6671 11.7801C71.7527 11.8588 71.8195 11.9563 71.8623 12.0653C71.9051 12.1742 71.9229 12.2916 71.9143 12.4086V13.8628C71.8846 13.8734 71.8542 13.8821 71.8234 13.8886C71.7826 13.8975 71.7409 13.9018 71.6991 13.9015C71.6322 13.9062 71.5657 13.8873 71.5108 13.8479C71.4879 13.8249 71.4704 13.797 71.4595 13.7662C71.4486 13.7354 71.4446 13.7026 71.4478 13.67V12.4263C71.453 12.3638 71.4448 12.301 71.4237 12.242C71.4025 12.1831 71.369 12.1296 71.3254 12.0853" fill="#CC0066"/>
<path d="M73.0918 13.4568C73.1701 13.5083 73.2624 13.5331 73.3555 13.5276C73.4097 13.5272 73.4637 13.5193 73.5159 13.5042C73.5672 13.4906 73.6167 13.4711 73.6637 13.4463C73.6843 13.4733 73.7027 13.502 73.7188 13.5319C73.7464 13.5877 73.7521 13.6521 73.7346 13.7119C73.7171 13.7717 73.6777 13.8225 73.6246 13.8539C73.5159 13.9152 73.392 13.9435 73.2679 13.9352C73.0771 13.945 72.8888 13.8883 72.7341 13.7745C72.6627 13.7087 72.6074 13.6269 72.5725 13.5355C72.5377 13.4442 72.5244 13.3458 72.5336 13.2483V11.0221C72.5643 11.0112 72.5958 11.0026 72.6278 10.9963C72.6694 10.9875 72.7118 10.9832 72.7543 10.9834C72.8204 10.9779 72.8862 10.9962 72.9403 11.035C72.9621 11.0582 72.9788 11.086 72.989 11.1164C72.9992 11.1468 73.0028 11.1791 72.9996 11.2111V11.6827H73.692C73.7058 11.7086 73.7172 11.7359 73.7259 11.764C73.7374 11.8 73.7431 11.8376 73.7428 11.8755C73.7428 12.01 73.6879 12.0772 73.578 12.0769H72.9996V13.2139C72.9948 13.259 73.0009 13.3047 73.0173 13.3469C73.0337 13.3891 73.0599 13.4267 73.0937 13.4564" fill="#CC0066"/>
<path d="M75.7746 13.2546C75.7788 13.3498 75.761 13.4446 75.7225 13.5314C75.684 13.6182 75.6259 13.6946 75.553 13.7545C75.3652 13.8883 75.1379 13.9526 74.909 13.9367C74.8001 13.9375 74.6913 13.9274 74.5843 13.9066C74.4982 13.8907 74.4144 13.8634 74.3353 13.8253C74.2739 13.7957 74.2194 13.7533 74.1753 13.7009C74.1374 13.6569 74.1163 13.6005 74.116 13.5421C74.1158 13.4964 74.1267 13.4514 74.1475 13.411C74.1689 13.369 74.2015 13.3341 74.2416 13.3101C74.3306 13.3714 74.4251 13.4238 74.524 13.4665C74.6417 13.5158 74.7682 13.5399 74.8954 13.5373C75.003 13.5444 75.1102 13.5191 75.2037 13.4646C75.2376 13.4418 75.2652 13.4105 75.2837 13.3737C75.3021 13.3369 75.3109 13.2959 75.3091 13.2546C75.3109 13.2194 75.3055 13.1842 75.2932 13.1513C75.2809 13.1183 75.2619 13.0884 75.2376 13.0633C75.176 13.0089 75.1018 12.9712 75.022 12.9537L74.7179 12.8681C74.5529 12.83 74.4002 12.7495 74.2745 12.6342C74.2255 12.5797 74.1878 12.5158 74.1635 12.4462C74.1393 12.3766 74.1291 12.3028 74.1334 12.2291C74.1329 12.1394 74.1517 12.0508 74.1884 11.9693C74.2249 11.8881 74.279 11.8163 74.3466 11.7593C74.4236 11.6964 74.5118 11.6492 74.6064 11.6201C74.7212 11.5842 74.8407 11.5668 74.9608 11.5685C75.06 11.5674 75.1591 11.5767 75.2564 11.5962C75.3342 11.6118 75.41 11.6363 75.4824 11.6694C75.5394 11.6945 75.59 11.7327 75.6301 11.7809C75.6637 11.8209 75.6824 11.8717 75.6829 11.9244C75.6839 11.9693 75.673 12.0138 75.6513 12.053C75.6318 12.0883 75.6052 12.1189 75.5732 12.143C75.4961 12.0986 75.4157 12.0605 75.3327 12.0291C75.225 11.987 75.1105 11.9659 74.9952 11.9669C74.8923 11.961 74.7898 11.9847 74.6996 12.0353C74.6716 12.0532 74.6477 12.0772 74.6297 12.1054C74.6118 12.1337 74.6002 12.1656 74.5957 12.199C74.5912 12.2323 74.594 12.2663 74.6038 12.2984C74.6136 12.3305 74.6303 12.3601 74.6526 12.385C74.7116 12.4367 74.783 12.4715 74.8596 12.4859L75.1214 12.5548C75.3053 12.5984 75.4757 12.6876 75.6174 12.8145C75.6717 12.8731 75.7137 12.9423 75.7409 13.0178C75.7681 13.0934 75.7799 13.1738 75.7756 13.2541" fill="#CC0066"/>
<path d="M11.3482 6.50684V14.8811C11.3482 15.4293 11.1827 15.9643 10.874 16.4138C10.5654 16.8634 10.1284 17.206 9.62214 17.3952L2.10713 20.204C1.98885 20.2483 1.86178 20.2629 1.73675 20.2466C1.61171 20.2303 1.49241 20.1835 1.38901 20.1102C1.28561 20.0369 1.20116 19.9393 1.14287 19.8257C1.08457 19.7121 1.05415 19.5859 1.0542 19.4578V12.3521C1.05444 11.9248 1.18344 11.5077 1.42385 11.1571C1.66426 10.8065 2.00455 10.5391 2.39896 10.3909L9.3449 7.78016C10.4411 7.32909 10.8695 7.05309 11.3486 6.50923" fill="white"/>
<path d="M17.9551 8.62606C17.9472 8.93743 17.8233 9.23414 17.6083 9.45616C17.3934 9.67817 17.1034 9.8089 16.7972 9.8219H15.2223C15.1315 9.82408 15.0435 9.78954 14.9778 9.72585C14.912 9.66217 14.8738 9.57456 14.8716 9.48228V5.99617C14.8709 5.94993 14.8794 5.90402 14.8965 5.86116C14.9135 5.8183 14.9389 5.77936 14.9711 5.74666C15.0033 5.71396 15.0416 5.68816 15.0838 5.67079C15.126 5.65342 15.1711 5.64484 15.2166 5.64555H16.7365C16.9638 5.65777 17.1828 5.73674 17.3668 5.87289C17.5509 6.00904 17.6921 6.19652 17.7734 6.41261C17.8548 6.62871 17.8726 6.86413 17.8249 7.09034C17.7772 7.31655 17.666 7.52384 17.5046 7.68709C17.6436 7.79982 17.7562 7.94255 17.8342 8.10496C17.9122 8.26736 17.9532 8.44536 17.9551 8.62606ZM15.54 7.38239L16.6588 7.37091C16.7947 7.36637 16.9238 7.30948 17.02 7.21177C17.1161 7.11406 17.1721 6.98285 17.1766 6.84474C17.1758 6.7119 17.1242 6.58457 17.0328 6.48962C16.9414 6.39466 16.8173 6.33951 16.6866 6.33579H15.54V7.38239ZM17.2655 8.62606C17.2562 8.4853 17.1958 8.35305 17.0961 8.2549C16.9964 8.15674 16.8644 8.09964 16.7257 8.09463H15.5678V9.14075H16.7586C16.8916 9.13644 17.018 9.08083 17.112 8.98523C17.2061 8.88962 17.2608 8.7612 17.2651 8.62606" fill="white"/>
<path d="M20.6947 8.09459H20.1882V9.48176C20.1863 9.57307 20.1489 9.6599 20.0843 9.7234C20.0197 9.7869 19.9331 9.82193 19.8432 9.8209C19.7548 9.82065 19.67 9.78486 19.6074 9.72132C19.5448 9.65779 19.5094 9.57168 19.509 9.48176V5.98465C19.5118 5.89362 19.5495 5.80729 19.6139 5.74398C19.6783 5.68066 19.7644 5.64534 19.854 5.64551H21.0727C21.386 5.65246 21.6848 5.78131 21.9074 6.00549C22.13 6.22967 22.2595 6.5321 22.2692 6.85044C22.2633 7.10718 22.1809 7.35606 22.0328 7.56414C21.8847 7.77222 21.6779 7.92968 21.4398 8.01566L22.2136 9.29952C22.2587 9.37858 22.2718 9.47238 22.25 9.56105C22.2282 9.64972 22.1733 9.72628 22.0969 9.77451C22.0439 9.80406 21.9846 9.81969 21.9241 9.81995C21.8661 9.8199 21.8091 9.8048 21.7584 9.77609C21.7078 9.74737 21.6652 9.706 21.6347 9.65588L20.6947 8.09459ZM21.5965 6.8557C21.5902 6.71385 21.5296 6.5801 21.4278 6.48291C21.3259 6.38572 21.1907 6.33276 21.051 6.33527H20.1882V7.40435H21.051C21.1948 7.40448 21.3327 7.34691 21.4349 7.24415C21.5371 7.14139 21.5952 7.00178 21.5965 6.8557Z" fill="white"/>
<path d="M26.1763 9.81952C25.6335 9.81359 25.1152 9.58952 24.7345 9.19629C24.3538 8.80307 24.1418 8.27268 24.1448 7.72106C24.1519 7.31494 24.2768 6.91999 24.5039 6.58574C24.731 6.2515 25.0501 5.99285 25.4213 5.84227C25.7926 5.69168 26.1993 5.65585 26.5904 5.73928C26.9816 5.82271 27.3398 6.02169 27.6201 6.31124C27.9004 6.60078 28.0903 6.96801 28.166 7.36684C28.2417 7.76567 28.1999 8.17834 28.0456 8.55307C27.8914 8.9278 27.6317 9.2479 27.2992 9.4732C26.9666 9.69851 26.576 9.81899 26.1763 9.81952ZM24.8014 7.72106C24.8019 7.99799 24.8832 8.26857 25.0349 8.49856C25.1867 8.72855 25.4022 8.90763 25.6542 9.01315C25.9061 9.11866 26.1832 9.14588 26.4504 9.09135C26.7176 9.03683 26.9628 8.90301 27.1551 8.70682C27.3475 8.51063 27.4782 8.26089 27.5309 7.98917C27.5835 7.71746 27.5557 7.43598 27.4509 7.18034C27.3461 6.9247 27.1691 6.70637 26.9422 6.55298C26.7154 6.39959 26.4488 6.31802 26.1763 6.31858C25.8119 6.32222 25.4635 6.47131 25.2062 6.73369C24.949 6.99607 24.8036 7.3507 24.8014 7.72106Z" fill="white"/>
<path d="M33.0111 9.79153C32.968 9.80859 32.922 9.81668 32.8758 9.81533C32.8296 9.81399 32.7841 9.80322 32.7421 9.78369C32.7 9.76415 32.6623 9.73623 32.631 9.70159C32.5998 9.66695 32.5757 9.62629 32.5602 9.58202L31.6188 6.99901L30.6728 9.58202C30.6583 9.62641 30.6351 9.66732 30.6045 9.70222C30.5739 9.73711 30.5366 9.76525 30.4948 9.78489C30.4531 9.80453 30.4078 9.81526 30.3618 9.8164C30.3158 9.81754 30.2701 9.80908 30.2275 9.79153C30.1836 9.77625 30.1432 9.75204 30.1089 9.72038C30.0745 9.68873 30.0468 9.6503 30.0275 9.60742C30.0082 9.56455 29.9977 9.51813 29.9967 9.471C29.9956 9.42387 30.004 9.37702 30.0213 9.33329L31.279 5.86583C31.3055 5.79655 31.3522 5.73716 31.4128 5.69568C31.4735 5.6542 31.5453 5.63262 31.6184 5.63384C31.6911 5.63419 31.7622 5.65641 31.8226 5.69768C31.883 5.73896 31.93 5.79746 31.9577 5.86583L33.2154 9.33329C33.2328 9.37699 33.2412 9.42382 33.2401 9.47092C33.2391 9.51803 33.2286 9.56443 33.2094 9.6073C33.1902 9.65017 33.1625 9.68861 33.1282 9.72028C33.0939 9.75195 33.0536 9.7762 33.0097 9.79153" fill="white"/>
<path d="M34.6194 9.4807V6.00129C34.6215 5.91203 34.6574 5.82703 34.7195 5.7639C34.7816 5.70077 34.8653 5.66433 34.9531 5.66215H35.7825C36.0812 5.66036 36.3769 5.72195 36.6509 5.84296C36.9141 5.96034 37.1495 6.13392 37.3409 6.35191C37.5319 6.57232 37.6745 6.83163 37.759 7.11251C37.8435 7.39339 37.868 7.68936 37.8309 7.98064C37.7695 8.48645 37.5288 8.95217 37.1538 9.29056C36.7788 9.62894 36.2952 9.81678 35.7937 9.81889H34.9536C34.8657 9.8167 34.7821 9.78027 34.72 9.71714C34.6578 9.654 34.622 9.56901 34.6198 9.47975M37.1578 7.90124C37.1872 7.70589 37.174 7.50635 37.1192 7.31674C37.0644 7.12713 36.9693 6.95207 36.8406 6.80394C36.7075 6.65352 36.5442 6.53382 36.3618 6.45288C36.1793 6.37194 35.982 6.33164 35.7829 6.33469H35.2878V9.14013H35.7942C36.1318 9.14029 36.4576 9.01405 36.7094 8.78551C36.9612 8.55697 37.1214 8.24216 37.1592 7.90124" fill="white"/>
<path d="M41.1369 9.2369C40.9703 9.49262 40.7136 9.67378 40.4196 9.74318C40.1257 9.81257 39.8167 9.76491 39.5563 9.61C39.4764 9.56078 39.4174 9.48315 39.3907 9.39219C39.364 9.30123 39.3715 9.20343 39.4118 9.11779C39.4722 9.04682 39.5567 9.0016 39.6485 8.99114C39.7403 8.98068 39.8325 9.00574 39.9069 9.06135C40.0223 9.125 40.1572 9.14173 40.2842 9.10817C40.4113 9.0746 40.5211 8.99323 40.5913 8.88054C40.6301 8.82189 40.6572 8.75603 40.6709 8.68675C40.6847 8.61746 40.6848 8.5461 40.6714 8.47675C40.658 8.40739 40.6312 8.34141 40.5927 8.28257C40.5542 8.22374 40.5046 8.1732 40.4468 8.13385C40.1743 7.9583 40.1644 7.95304 39.9013 7.7775C39.6408 7.6057 39.4581 7.33579 39.3934 7.02712C39.3287 6.71845 39.3873 6.39631 39.5563 6.13154C39.7246 5.87793 39.9811 5.69844 40.2743 5.62914C40.5675 5.55985 40.8757 5.60587 41.1369 5.75796C41.2141 5.80383 41.271 5.8781 41.2959 5.96544C41.3208 6.05278 41.3117 6.14649 41.2705 6.22721C41.2153 6.30117 41.1342 6.35069 41.044 6.36547C40.9538 6.38026 40.8615 6.35918 40.7862 6.30661C40.6657 6.24431 40.5264 6.23128 40.3968 6.27021C40.2673 6.30914 40.1573 6.39707 40.0896 6.5159C40.0218 6.63474 40.0015 6.77543 40.0328 6.90903C40.064 7.04262 40.1445 7.15897 40.2576 7.23411C40.3988 7.32451 40.3988 7.32451 40.7975 7.59046C40.9262 7.67581 41.0371 7.78611 41.1238 7.91505C41.2106 8.044 41.2715 8.18906 41.303 8.34193C41.3345 8.49481 41.336 8.6525 41.3075 8.80598C41.279 8.95947 41.221 9.10621 41.1369 9.2369Z" fill="white"/>
<path d="M44.8945 8.08529C44.5833 8.10775 44.271 8.11159 43.9593 8.09677V9.48394C43.9573 9.57525 43.9199 9.66208 43.8553 9.72558C43.7907 9.78907 43.7041 9.82411 43.6143 9.82308C43.5259 9.8227 43.4412 9.78685 43.3787 9.72333C43.3162 9.65981 43.2809 9.57377 43.2805 9.48394V5.99639C43.28 5.9517 43.2882 5.90734 43.3048 5.86593C43.3213 5.82452 43.3459 5.7869 43.377 5.7553C43.4081 5.72369 43.4451 5.69873 43.4859 5.68189C43.5266 5.66505 43.5703 5.65668 43.6143 5.65725H44.8611C45.1718 5.66709 45.4668 5.79844 45.6845 6.0239C45.9023 6.24937 46.026 6.55156 46.0298 6.86744C46.0248 7.17777 45.9053 7.47488 45.6951 7.70003C45.4849 7.92518 45.1992 8.06197 44.8945 8.08337M44.8169 6.33601H43.9597V7.40509H44.8169C44.9603 7.40424 45.0977 7.34634 45.1997 7.24379C45.3017 7.14124 45.3601 7.0022 45.3624 6.85644C45.3551 6.71492 45.2943 6.58174 45.1926 6.48475C45.0909 6.38776 44.9563 6.33446 44.8169 6.33601Z" fill="white"/>
<path d="M47.8103 9.48036V5.98468C47.8107 5.89485 47.846 5.8088 47.9085 5.74528C47.971 5.68177 48.0556 5.64591 48.144 5.64554H50.1491C50.2391 5.64438 50.3258 5.67938 50.3904 5.7429C50.455 5.80643 50.4923 5.89333 50.4942 5.98468C50.4937 6.07751 50.4572 6.1664 50.3926 6.23205C50.328 6.29769 50.2405 6.33479 50.1491 6.3353H48.4905V7.40438H49.743C49.7869 7.4038 49.8306 7.41218 49.8713 7.42901C49.9121 7.44585 49.9491 7.47081 49.9802 7.50242C50.0113 7.53403 50.0359 7.57165 50.0524 7.61305C50.069 7.65446 50.0772 7.69882 50.0767 7.74352C50.0773 7.78825 50.0691 7.83267 50.0526 7.87413C50.036 7.91559 50.0115 7.95327 49.9804 7.98493C49.9493 8.01659 49.9122 8.04159 49.8714 8.05845C49.8307 8.07532 49.787 8.08371 49.743 8.08314H48.4905V9.12926H50.1491C50.2405 9.12976 50.328 9.16686 50.3926 9.23251C50.4572 9.29815 50.4937 9.38704 50.4942 9.47987C50.4922 9.57118 50.4549 9.65802 50.3903 9.72151C50.3257 9.78501 50.239 9.82005 50.1491 9.81902H48.1454C48.0571 9.81864 47.9724 9.78279 47.9099 9.71927C47.8474 9.65575 47.8121 9.5697 47.8117 9.47987" fill="white"/>
<path d="M55.7311 9.3672C55.3768 9.65367 54.9371 9.80919 54.4843 9.80822C53.9396 9.80822 53.4172 9.58832 53.032 9.19689C52.6468 8.80546 52.4304 8.27457 52.4304 7.72101C52.4304 7.16744 52.6468 6.63655 53.032 6.24512C53.4172 5.85369 53.9396 5.63379 54.4843 5.63379C54.8543 5.6343 55.2168 5.74019 55.5306 5.93945C55.5701 5.96028 55.6049 5.989 55.6332 6.02389C55.6614 6.05878 55.6824 6.09911 55.6949 6.14246C55.7074 6.1858 55.7111 6.23127 55.7058 6.27612C55.7006 6.32097 55.6865 6.36428 55.6643 6.40343C55.6417 6.44221 55.6115 6.47583 55.5755 6.5022C55.5395 6.52857 55.4986 6.54711 55.4553 6.55667C55.4119 6.56624 55.3671 6.56661 55.3236 6.55778C55.2802 6.54894 55.2389 6.53108 55.2026 6.50532C54.9854 6.37424 54.7373 6.30578 54.4847 6.30728C54.3042 6.30728 54.1255 6.34343 53.9587 6.41366C53.792 6.48389 53.6405 6.58682 53.5129 6.71658C53.3853 6.84634 53.2841 7.00037 53.2151 7.16989C53.1461 7.3394 53.1107 7.52107 53.1108 7.70451C53.1046 7.96723 53.1714 8.22641 53.3036 8.45229C53.4358 8.67816 53.628 8.86157 53.8581 8.98145C54.0882 9.10133 54.347 9.15282 54.6046 9.13001C54.8622 9.10721 55.1083 9.01102 55.3146 8.85251C55.3469 8.82434 55.3845 8.803 55.4251 8.78973C55.4656 8.77646 55.5083 8.77153 55.5508 8.77523C55.5933 8.77892 55.6346 8.79117 55.6723 8.81125C55.7101 8.83134 55.7435 8.85886 55.7707 8.89221C55.8273 8.96054 55.855 9.04888 55.8477 9.1379C55.8404 9.22693 55.7986 9.30938 55.7316 9.3672" fill="white"/>
<path d="M60.3666 5.97882C60.3666 6.02315 60.3579 6.06705 60.3411 6.10795C60.3242 6.14886 60.2996 6.18597 60.2686 6.21712C60.2375 6.24827 60.2007 6.27284 60.1602 6.28941C60.1198 6.30598 60.0765 6.31422 60.0328 6.31365H59.2153V9.48119C59.2153 9.57044 59.1804 9.65603 59.1183 9.71914C59.0562 9.78225 58.972 9.8177 58.8841 9.8177C58.7963 9.8177 58.7121 9.78225 58.65 9.71914C58.5879 9.65603 58.553 9.57044 58.553 9.48119V6.31269H57.7349C57.6471 6.31269 57.5629 6.27724 57.5008 6.21413C57.4387 6.15103 57.4038 6.06543 57.4038 5.97619C57.4038 5.88694 57.4387 5.80134 57.5008 5.73824C57.5629 5.67513 57.6471 5.63968 57.7349 5.63968H60.0333C60.0773 5.6391 60.1209 5.64748 60.1617 5.66431C60.2024 5.68115 60.2394 5.70611 60.2705 5.73772C60.3016 5.76933 60.3262 5.80694 60.3428 5.84835C60.3594 5.88976 60.3671 5.93412 60.3666 5.97882Z" fill="white"/>
<path d="M63.2225 8.09459H62.7161V9.48176C62.7141 9.57307 62.6768 9.6599 62.6122 9.7234C62.5476 9.7869 62.4609 9.82193 62.371 9.8209C62.2826 9.82065 62.1978 9.78486 62.1352 9.72132C62.0726 9.65779 62.0372 9.57168 62.0369 9.48176V5.98465C62.0397 5.89362 62.0773 5.80729 62.1417 5.74398C62.2061 5.68066 62.2923 5.64534 62.3819 5.64551H63.601C63.9143 5.65246 64.213 5.78131 64.4356 6.00549C64.6583 6.22967 64.7878 6.5321 64.7974 6.85044C64.7916 7.10718 64.7092 7.35606 64.5611 7.56414C64.413 7.77222 64.2062 7.92968 63.9681 8.01566L64.7419 9.29952C64.787 9.37864 64.7999 9.47248 64.778 9.56116C64.7561 9.64983 64.7011 9.72636 64.6247 9.77451C64.5717 9.80408 64.5124 9.81971 64.452 9.81995C64.394 9.8199 64.3369 9.8048 64.2863 9.77609C64.2356 9.74737 64.193 9.706 64.1625 9.65588L63.2225 8.09459ZM64.1243 6.8557C64.118 6.71385 64.0575 6.5801 63.9556 6.48291C63.8537 6.38572 63.7185 6.33276 63.5788 6.33527H62.7161V7.40435H63.5788C63.7226 7.40448 63.8605 7.34691 63.9627 7.24415C64.0649 7.14139 64.123 7.00178 64.1243 6.8557Z" fill="white"/>
<path d="M69.6787 5.97891V8.29214C69.6822 8.49496 69.646 8.69645 69.572 8.88487C69.4981 9.07329 69.388 9.24486 69.2481 9.38955C69.1082 9.53425 68.9414 9.64918 68.7573 9.72763C68.5732 9.80609 68.3756 9.8465 68.176 9.8465C67.9764 9.8465 67.7788 9.80609 67.5947 9.72763C67.4106 9.64918 67.2438 9.53425 67.1039 9.38955C66.964 9.24486 66.8539 9.07329 66.78 8.88487C66.706 8.69645 66.6698 8.49496 66.6733 8.29214V5.97891C66.6733 5.88738 66.7091 5.7996 66.7728 5.73487C66.8365 5.67015 66.9228 5.63379 67.0129 5.63379C67.103 5.63379 67.1894 5.67015 67.2531 5.73487C67.3168 5.7996 67.3525 5.88738 67.3525 5.97891V8.29214C67.3525 8.51567 67.4399 8.73005 67.5955 8.88811C67.751 9.04617 67.9619 9.13497 68.1819 9.13497C68.4018 9.13497 68.6128 9.04617 68.7683 8.88811C68.9239 8.73005 69.0113 8.51567 69.0113 8.29214V5.97891C69.0107 5.93421 69.0189 5.88985 69.0355 5.84844C69.0521 5.80704 69.0766 5.76942 69.1077 5.73781C69.1388 5.7062 69.1758 5.68125 69.2166 5.66441C69.2573 5.64757 69.301 5.63919 69.345 5.63977C69.389 5.63919 69.4326 5.64757 69.4733 5.66441C69.5141 5.68125 69.5511 5.7062 69.5822 5.73781C69.6133 5.76942 69.6379 5.80704 69.6544 5.84844C69.671 5.88985 69.6792 5.93421 69.6787 5.97891Z" fill="white"/>
<path d="M75.673 9.40692C75.685 9.44854 75.6885 9.49221 75.6835 9.53529C75.6784 9.57836 75.6648 9.61994 75.6435 9.65751C75.6221 9.69507 75.5935 9.72785 75.5593 9.75384C75.5251 9.77983 75.4862 9.7985 75.4447 9.80872H75.4277C75.4221 9.80872 75.422 9.80872 75.4169 9.8202H75.3778C75.2999 9.81954 75.2247 9.79164 75.1647 9.7412C75.1047 9.69076 75.0636 9.62085 75.0483 9.54325L74.5918 7.28072L73.7516 9.57147C73.7293 9.6406 73.686 9.7008 73.6281 9.74348C73.5701 9.78616 73.5003 9.80914 73.4287 9.80914C73.3571 9.80914 73.2873 9.78616 73.2294 9.74348C73.1714 9.7008 73.1282 9.6406 73.1058 9.57147L72.3654 7.38835L71.9757 9.54325C71.9634 9.62274 71.9233 9.69506 71.8627 9.74698C71.8022 9.79889 71.7254 9.82693 71.6462 9.82594C71.6292 9.82594 71.6071 9.8202 71.5906 9.8202C71.546 9.81362 71.5033 9.79697 71.4658 9.77148C71.4282 9.746 71.3968 9.71231 71.3737 9.67288C71.3468 9.63821 71.3279 9.5979 71.3183 9.55488C71.3087 9.51185 71.3086 9.46719 71.3181 9.42414L71.8914 5.91746C71.9057 5.84113 71.9447 5.77183 72.0021 5.72061C72.0596 5.66938 72.1324 5.63916 72.2087 5.63477H72.2365C72.3083 5.63472 72.3783 5.65786 72.4363 5.70085C72.4943 5.74384 72.5374 5.80444 72.5594 5.87393L73.4386 8.39094L74.3569 5.86245C74.3784 5.7948 74.4209 5.73611 74.4782 5.69528C74.5354 5.65445 74.6042 5.63371 74.6741 5.6362H74.6911C74.7671 5.63671 74.8404 5.66496 74.8976 5.7158C74.9548 5.76664 74.9921 5.83669 75.0027 5.91316L75.673 9.40692Z" fill="white"/>
</g>
</svg>
