<svg width="76" height="21" viewBox="0 0 76 21" fill="none" xmlns="http://www.w3.org/2000/svg">
<mask id="mask0_2057_101115" style="mask-type:luminance" maskUnits="userSpaceOnUse" x="0" y="0" width="76" height="21">
<path d="M75.7743 0.195312H0.863281V20.2146H75.7743V0.195312Z" fill="white"/>
</mask>
<g mask="url(#mask0_2057_101115)">
<path d="M9.00101 3.22534L2.16285 0.272095C2.02082 0.210662 1.86603 0.185964 1.71231 0.200212C1.55859 0.21446 1.41074 0.26721 1.28199 0.353741C1.15324 0.440273 1.04761 0.557888 0.974539 0.696065C0.90147 0.834242 0.863244 0.988671 0.863281 1.14554V8.74629C0.863277 8.9079 0.901805 9.0671 0.97557 9.21027C1.04933 9.35344 1.15614 9.47631 1.28684 9.56837C1.41754 9.66043 1.56824 9.71894 1.72605 9.73888C1.88386 9.75882 2.04407 9.7396 2.19298 9.68287L6.72994 7.95417L1.81454 5.87293C1.74416 5.83985 1.68913 5.78035 1.66099 5.70692C1.63286 5.63348 1.63382 5.55183 1.66366 5.47909C1.69351 5.40636 1.74992 5.34821 1.82106 5.31684C1.8922 5.28548 1.97253 5.28334 2.04518 5.31088L7.55223 7.64134L9.10033 7.05107C11.7494 6.11736 11.8873 4.25185 9.00148 3.22438M9.64915 5.64285C9.61856 5.71721 9.56022 5.77622 9.48692 5.80697C9.41361 5.83772 9.3313 5.8377 9.25801 5.80692L1.70252 2.60924C1.6662 2.59389 1.63322 2.57141 1.60546 2.5431C1.57769 2.51478 1.55568 2.48119 1.54069 2.44424C1.51041 2.3696 1.51055 2.2858 1.54107 2.21127C1.57159 2.13674 1.63 2.07758 1.70344 2.04681C1.77688 2.01604 1.85934 2.01618 1.93269 2.0472L9.4877 5.24583C9.52409 5.26117 9.55714 5.28365 9.58495 5.312C9.61277 5.34034 9.63481 5.37399 9.64981 5.411C9.66481 5.44802 9.67247 5.48768 9.67236 5.52771C9.67224 5.56774 9.66436 5.60736 9.64915 5.64428" fill="#CC0066"/>
<path d="M45.6707 12.3555C45.6752 12.5844 45.6401 12.8124 45.5672 13.029C45.5056 13.2086 45.4054 13.372 45.2739 13.5073C45.1454 13.6359 44.9895 13.7328 44.8183 13.7905C44.6276 13.8542 44.4279 13.8853 44.2271 13.8828C44.133 13.8828 44.0218 13.8785 43.8934 13.8699C43.7725 13.8631 43.6531 13.8386 43.539 13.7972C43.4804 13.7855 43.4277 13.7534 43.39 13.7064C43.3523 13.6594 43.3319 13.6005 43.3324 13.5399V11.1544C43.3296 11.1083 43.3448 11.0629 43.3747 11.0281C43.4066 10.9956 43.4456 10.9713 43.4886 10.9573C43.6006 10.9219 43.7159 10.8988 43.8327 10.8884C43.9551 10.877 44.074 10.8712 44.1895 10.8712C44.394 10.8689 44.5976 10.8993 44.7929 10.9611C44.9684 11.016 45.1293 11.1105 45.2636 11.2376C45.3969 11.3681 45.5 11.5271 45.5653 11.703C45.641 11.9116 45.6776 12.1328 45.6731 12.355M45.1793 12.3593C45.183 12.1946 45.158 12.0306 45.1055 11.8748C45.0621 11.7501 44.9913 11.6372 44.8983 11.5447C44.8092 11.4585 44.7025 11.3931 44.5858 11.3534C44.4613 11.3112 44.3307 11.2901 44.1994 11.2912C44.0691 11.289 43.939 11.3005 43.8111 11.3256V13.4274C43.8756 13.4427 43.9412 13.4527 44.0073 13.4576C44.0792 13.4633 44.1531 13.4662 44.229 13.4662C44.3596 13.475 44.4905 13.4547 44.6125 13.4065C44.7345 13.3583 44.8446 13.2835 44.9351 13.1873C45.113 12.9508 45.1994 12.6562 45.1779 12.3593" fill="#CC0066"/>
<path d="M46.1691 10.9102C46.168 10.872 46.1744 10.8339 46.1878 10.7982C46.2012 10.7625 46.2214 10.7299 46.2472 10.7021C46.2736 10.6742 46.3055 10.6524 46.3407 10.6379C46.376 10.6235 46.4139 10.6168 46.452 10.6184C46.4893 10.6172 46.5265 10.624 46.561 10.6384C46.5956 10.6528 46.6268 10.6745 46.6525 10.7021C46.7028 10.7593 46.7306 10.8334 46.7306 10.9102C46.7306 10.9869 46.7028 11.061 46.6525 11.1182C46.6268 11.1458 46.5956 11.1675 46.561 11.1819C46.5265 11.1964 46.4893 11.2032 46.452 11.202C46.4139 11.2035 46.376 11.1968 46.3407 11.1824C46.3055 11.168 46.2736 11.1461 46.2472 11.1182C46.2213 11.0905 46.2011 11.0578 46.1877 11.0221C46.1743 10.9864 46.168 10.9484 46.1691 10.9102ZM46.684 13.8184C46.6559 13.8296 46.627 13.8382 46.5974 13.8443C46.5566 13.8532 46.5149 13.8575 46.4731 13.8572C46.4049 13.8629 46.3369 13.8439 46.2811 13.8036C46.2588 13.7802 46.2418 13.7522 46.2312 13.7215C46.2206 13.6908 46.2168 13.6581 46.2199 13.6257V11.6076L46.3084 11.5841C46.3498 11.5736 46.3923 11.5687 46.435 11.5693C46.502 11.5638 46.5688 11.5828 46.6233 11.6229C46.6451 11.6474 46.6617 11.6762 46.6718 11.7076C46.682 11.739 46.6855 11.7723 46.6821 11.8051L46.684 13.8184Z" fill="#CC0066"/>
<path d="M48.6908 13.6164C48.6265 13.6578 48.557 13.6899 48.4842 13.7121C48.3895 13.7397 48.2913 13.7527 48.1928 13.7508C48.066 13.7516 47.9399 13.7313 47.8196 13.6905C47.7035 13.6509 47.5976 13.5856 47.5094 13.4992C47.4145 13.4043 47.3423 13.2884 47.2985 13.1606C47.2436 12.994 47.2179 12.819 47.2227 12.6435C47.2196 12.4793 47.2453 12.3159 47.2985 12.1608C47.3443 12.0299 47.4187 11.9112 47.516 11.8136C47.6113 11.7199 47.7248 11.6476 47.8492 11.6012C47.988 11.5508 48.1345 11.5262 48.2818 11.5285C48.4177 11.5273 48.553 11.5474 48.6828 11.5883C48.7903 11.6212 48.8927 11.6696 48.9869 11.7318C49.032 11.7633 49.0707 11.8034 49.1008 11.8499C49.1304 11.8996 49.1451 11.9569 49.1431 12.0149V13.8886C49.1468 14.0298 49.121 14.1701 49.0674 14.3004C49.0204 14.4101 48.9471 14.5059 48.8541 14.5793C48.7573 14.6533 48.6466 14.7065 48.5289 14.7357C48.397 14.7689 48.2614 14.785 48.1255 14.7835C47.9945 14.7857 47.8639 14.7696 47.7372 14.7357C47.6522 14.7136 47.5701 14.6815 47.4924 14.64C47.4321 14.6026 47.3877 14.5434 47.3682 14.4744C47.3487 14.4053 47.3554 14.3313 47.387 14.2669C47.4066 14.2298 47.4357 14.1988 47.4712 14.177C47.5542 14.2365 47.6452 14.2834 47.7414 14.3162C47.8579 14.3583 47.9807 14.3794 48.1043 14.3784C48.2579 14.3879 48.4102 14.3448 48.5369 14.2559C48.5911 14.2074 48.6333 14.1465 48.66 14.0783C48.6868 14.0101 48.6973 13.9364 48.6908 13.8632V13.6164ZM48.2559 13.3591C48.3435 13.3615 48.4305 13.3452 48.5115 13.3112C48.5749 13.2836 48.6328 13.2443 48.6823 13.1955V12.0422C48.6316 12.0096 48.5771 11.9837 48.5199 11.9652C48.4456 11.941 48.3678 11.9294 48.2898 11.9308C48.2089 11.9275 48.1283 11.9414 48.053 11.9717C47.9778 12.0021 47.9097 12.0481 47.853 12.1068C47.7312 12.2552 47.6714 12.4461 47.6864 12.6387C47.6838 12.752 47.6987 12.865 47.7306 12.9735C47.7551 13.0559 47.7969 13.1319 47.853 13.1964C47.9023 13.2517 47.9637 13.2943 48.0323 13.3208C48.1039 13.3473 48.1797 13.36 48.2559 13.3591Z" fill="#CC0066"/>
<path d="M49.7228 10.9102C49.7217 10.872 49.728 10.8339 49.7415 10.7982C49.7549 10.7625 49.7751 10.7299 49.8009 10.7021C49.8273 10.6742 49.8592 10.6524 49.8945 10.6379C49.9298 10.6235 49.9677 10.6168 50.0057 10.6184C50.043 10.6171 50.0802 10.6239 50.1147 10.6384C50.1493 10.6528 50.1805 10.6745 50.2062 10.7021C50.2565 10.7593 50.2843 10.8334 50.2843 10.9102C50.2843 10.9869 50.2565 11.061 50.2062 11.1182C50.1805 11.1458 50.1493 11.1675 50.1147 11.182C50.0802 11.1964 50.043 11.2032 50.0057 11.202C49.9677 11.2035 49.9298 11.1968 49.8945 11.1824C49.8592 11.168 49.8273 11.1461 49.8009 11.1182C49.7751 11.0905 49.7548 11.0578 49.7414 11.0221C49.728 10.9864 49.7217 10.9484 49.7228 10.9102ZM50.2377 13.8184C50.2096 13.8296 50.1806 13.8382 50.1511 13.8443C50.1101 13.8532 50.0683 13.8575 50.0264 13.8572C49.9581 13.8629 49.8901 13.844 49.8343 13.8036C49.812 13.7803 49.795 13.7522 49.7844 13.7215C49.7738 13.6908 49.77 13.6581 49.7731 13.6257V11.6076L49.8616 11.5841C49.903 11.5736 49.9456 11.5687 49.9882 11.5693C50.0553 11.5638 50.122 11.5828 50.1765 11.6229C50.1984 11.6474 50.2149 11.6762 50.225 11.7076C50.2352 11.739 50.2387 11.7723 50.2354 11.8051L50.2377 13.8184Z" fill="#CC0066"/>
<path d="M51.4458 13.4178C51.524 13.4693 51.6163 13.4941 51.7094 13.4886C51.7637 13.4881 51.8177 13.4802 51.8699 13.4651C51.9211 13.4515 51.9707 13.4321 52.0177 13.4073C52.0383 13.4343 52.0567 13.4629 52.0728 13.4929C52.1003 13.5487 52.1059 13.613 52.0884 13.6728C52.0709 13.7326 52.0316 13.7834 51.9786 13.8148C51.8699 13.8762 51.746 13.9044 51.6218 13.8961C51.4311 13.906 51.2427 13.8493 51.0881 13.7354C51.0167 13.6696 50.9614 13.5878 50.9266 13.4964C50.8917 13.4051 50.8784 13.3067 50.8876 13.2092V10.9831C50.9183 10.9722 50.9498 10.9636 50.9817 10.9572C51.0234 10.9484 51.0658 10.9441 51.1083 10.9443C51.1743 10.9388 51.2402 10.9571 51.2943 10.996C51.316 11.0192 51.3326 11.047 51.3427 11.0774C51.3529 11.1078 51.3564 11.1401 51.3531 11.172V11.6436H52.0454C52.0592 11.6696 52.0705 11.6968 52.0793 11.725C52.0908 11.7609 52.0965 11.7986 52.0963 11.8364C52.0963 11.971 52.0414 12.0381 51.9315 12.0378H51.3531V13.1748C51.3483 13.2199 51.3544 13.2656 51.3708 13.3078C51.3872 13.3501 51.4134 13.3876 51.4472 13.4173" fill="#CC0066"/>
<path d="M53.3451 11.5273C53.5797 11.5142 53.8118 11.5816 54.0041 11.7187C54.0893 11.7933 54.156 11.8874 54.1985 11.9932C54.2411 12.0991 54.2583 12.2137 54.2488 12.3276V13.4388C54.2527 13.499 54.2361 13.5588 54.2018 13.6081C54.1651 13.652 54.1225 13.6903 54.0752 13.7219C53.982 13.775 53.8827 13.8162 53.7795 13.8444C53.6406 13.8825 53.497 13.9005 53.3531 13.898C53.1153 13.912 52.8794 13.8481 52.68 13.7157C52.5993 13.654 52.5348 13.5729 52.4924 13.4796C52.4501 13.3864 52.4311 13.2839 52.4371 13.1814C52.4319 13.0925 52.4461 13.0035 52.4787 12.9209C52.5112 12.8382 52.5613 12.7638 52.6254 12.7031C52.781 12.5793 52.9703 12.5073 53.1677 12.4969L53.788 12.428V12.3252C53.793 12.2678 53.7842 12.2099 53.7621 12.1568C53.74 12.1037 53.7054 12.0569 53.6614 12.0205C53.5577 11.9516 53.435 11.9181 53.3112 11.9248C53.1954 11.9244 53.0803 11.9417 52.9695 11.976C52.8677 12.0071 52.7687 12.0473 52.6739 12.0961C52.6442 12.0681 52.6187 12.0359 52.5981 12.0004C52.5754 11.9617 52.5637 11.9174 52.5644 11.8723C52.5652 11.8273 52.5783 11.7833 52.6024 11.7455C52.6334 11.705 52.6741 11.6733 52.7205 11.6531C52.8108 11.6085 52.9066 11.5764 53.0053 11.5575C53.1172 11.5355 53.2311 11.5247 53.3451 11.5254M53.3536 13.5072C53.4462 13.509 53.5386 13.4974 53.628 13.4727C53.6855 13.4586 53.7399 13.4338 53.7885 13.3995V12.7949L53.3074 12.8466C53.1984 12.854 53.0927 12.8878 52.9992 12.9451C52.9649 12.9713 52.9376 13.0059 52.92 13.0456C52.9023 13.0853 52.8947 13.1289 52.8979 13.1723C52.8961 13.219 52.905 13.2654 52.9241 13.3078C52.9431 13.3503 52.9718 13.3876 53.0076 13.4168C53.1099 13.4851 53.2316 13.5168 53.3536 13.5067" fill="#CC0066"/>
<path d="M55.1303 13.8569C55.0633 13.8616 54.9968 13.8427 54.942 13.8033C54.919 13.7804 54.9014 13.7525 54.8904 13.7217C54.8794 13.6909 54.8753 13.658 54.8785 13.6254V10.7343L54.967 10.7109C55.0083 10.7003 55.0509 10.6954 55.0936 10.6961C55.1602 10.6913 55.2264 10.7093 55.2818 10.7472C55.3049 10.7697 55.3227 10.7973 55.3337 10.8278C55.3447 10.8583 55.3487 10.8909 55.3454 10.9233V13.8186C55.32 13.8272 55.2886 13.8358 55.2512 13.8445C55.2111 13.8535 55.17 13.8578 55.1289 13.8574" fill="#CC0066"/>
<path d="M57.4655 12.8316V13.8184C57.4337 13.8288 57.4013 13.8374 57.3685 13.8442C57.3269 13.8531 57.2845 13.8574 57.2419 13.8571C57.172 13.8633 57.1022 13.8434 57.0456 13.8012C57.0233 13.7765 57.0063 13.7473 56.9957 13.7155C56.9852 13.6837 56.9813 13.6499 56.9845 13.6165V11.1584C56.9817 11.1122 56.9969 11.0669 57.0268 11.0321C57.0587 10.9996 57.0977 10.9753 57.1407 10.9613C57.2487 10.9243 57.3605 10.9006 57.474 10.8905C57.5995 10.8777 57.719 10.8714 57.8326 10.8714C58.1417 10.8457 58.449 10.9391 58.6935 11.133C58.7875 11.2245 58.861 11.3354 58.9091 11.4583C58.9572 11.5812 58.9787 11.7132 58.9722 11.8453C58.978 11.9781 58.9562 12.1106 58.9082 12.2342C58.8602 12.3579 58.787 12.4698 58.6935 12.5628C58.46 12.7597 58.1602 12.8567 57.8576 12.833L57.4655 12.8316ZM57.8326 12.4154C58.0039 12.4253 58.1732 12.3746 58.3118 12.2719C58.3716 12.2195 58.4186 12.1537 58.449 12.0796C58.4794 12.0056 58.4924 11.9253 58.4869 11.8453C58.4935 11.7668 58.4819 11.6879 58.453 11.6148C58.424 11.5418 58.3786 11.4767 58.3203 11.4248C58.1796 11.3273 58.011 11.2805 57.8411 11.2918C57.7765 11.2918 57.7103 11.2947 57.6425 11.3004C57.5815 11.3053 57.5208 11.3139 57.4608 11.3263V12.4159L57.8326 12.4154Z" fill="#CC0066"/>
<path d="M60.245 11.5273C60.4795 11.5142 60.7117 11.5816 60.904 11.7187C60.9892 11.7933 61.0559 11.8873 61.0985 11.9932C61.141 12.0991 61.1582 12.2137 61.1487 12.3276V13.4388C61.1526 13.499 61.136 13.5588 61.1016 13.6081C61.065 13.652 61.0223 13.6903 60.975 13.7219C60.8819 13.775 60.7826 13.8161 60.6794 13.8444C60.5405 13.8825 60.3969 13.9005 60.253 13.898C60.0152 13.912 59.7793 13.8481 59.5799 13.7157C59.4992 13.654 59.4347 13.5729 59.3923 13.4796C59.3499 13.3864 59.331 13.2839 59.337 13.1814C59.3318 13.0925 59.346 13.0035 59.3785 12.9209C59.4111 12.8382 59.4612 12.7638 59.5253 12.7031C59.6809 12.5793 59.8702 12.5073 60.0676 12.4969L60.6879 12.428V12.3252C60.693 12.2678 60.6841 12.2099 60.662 12.1568C60.6399 12.1037 60.6053 12.0569 60.5613 12.0205C60.4576 11.9515 60.3349 11.918 60.2111 11.9248C60.0953 11.9244 59.9801 11.9417 59.8694 11.976C59.7676 12.0071 59.6686 12.0473 59.5738 12.0961C59.5441 12.0681 59.5186 12.0359 59.498 12.0004C59.4753 11.9617 59.4636 11.9174 59.4643 11.8723C59.4651 11.8273 59.4782 11.7833 59.5022 11.7455C59.5333 11.7051 59.574 11.6733 59.6204 11.6531C59.7107 11.6085 59.8065 11.5764 59.9052 11.5575C60.0171 11.5355 60.1309 11.5247 60.245 11.5254M60.2535 13.5072C60.3461 13.509 60.4385 13.4974 60.5279 13.4727C60.5853 13.4586 60.6398 13.4338 60.6884 13.3995V12.7949L60.2073 12.8466C60.0983 12.854 59.9926 12.8878 59.899 12.9451C59.8648 12.9713 59.8375 13.0059 59.8199 13.0456C59.8022 13.0853 59.7946 13.1289 59.7979 13.1723C59.796 13.219 59.8049 13.2654 59.824 13.3078C59.843 13.3503 59.8716 13.3876 59.9075 13.4168C60.0097 13.4851 60.1315 13.5167 60.2535 13.5067" fill="#CC0066"/>
<path d="M62.1495 13.3079C62.0735 13.1506 61.9814 12.929 61.8732 12.643C61.7649 12.3569 61.6615 12.0337 61.563 11.6734C61.5931 11.6374 61.6297 11.6075 61.6708 11.5854C61.714 11.5612 61.7626 11.5487 61.812 11.549C61.8692 11.5463 61.9258 11.5631 61.9725 11.5969C62.0228 11.643 62.0581 11.7035 62.0737 11.7705C62.1553 12.0278 62.2391 12.2817 62.325 12.532C62.411 12.7823 62.5059 13.0405 62.6098 13.3064H62.6267C62.6716 13.2034 62.7173 13.084 62.7637 12.9481C62.8102 12.8123 62.8552 12.6678 62.8988 12.5148C62.9424 12.3617 62.984 12.2066 63.0235 12.0494C63.0631 11.8921 63.0982 11.7421 63.129 11.5992C63.1575 11.5848 63.1871 11.5727 63.2175 11.5629C63.2531 11.5523 63.29 11.5473 63.3271 11.5481C63.3856 11.5458 63.4434 11.5625 63.4919 11.5959C63.515 11.6142 63.5332 11.6381 63.545 11.6654C63.5568 11.6927 63.5616 11.7226 63.5592 11.7523C63.5524 11.88 63.5318 12.0066 63.498 12.1297C63.4572 12.2984 63.4045 12.4858 63.3398 12.6918C63.2752 12.8978 63.2013 13.105 63.1181 13.3136C63.035 13.5225 62.9512 13.7084 62.8668 13.8713C62.7548 14.0976 62.6204 14.3117 62.4658 14.5104C62.4275 14.5695 62.3772 14.6197 62.3182 14.6574C62.2593 14.6951 62.1931 14.7195 62.1241 14.729C62.0879 14.7311 62.0517 14.7258 62.0176 14.7133C61.9836 14.7008 61.9524 14.6814 61.9259 14.6563C61.8766 14.606 61.8437 14.5416 61.8317 14.4716C61.8869 14.4212 61.9391 14.3676 61.988 14.3109C62.0442 14.2472 62.1005 14.1786 62.157 14.1052C62.2135 14.0319 62.2676 13.9568 62.3194 13.8799C62.3684 13.808 62.4114 13.732 62.4479 13.6527C62.3929 13.6324 62.3432 13.5997 62.3024 13.5571C62.2376 13.482 62.1856 13.3965 62.1485 13.304" fill="#CC0066"/>
<path d="M66.4888 12.0275C66.4038 11.9594 66.297 11.9253 66.1889 11.9318C66.1081 11.9314 66.0281 11.9477 65.9536 11.9796C65.8776 12.0124 65.8076 12.058 65.7465 12.1145C65.7523 12.1414 65.7565 12.1685 65.7592 12.1958C65.762 12.2245 65.7635 12.2532 65.7635 12.2815V13.8174C65.7354 13.8286 65.7064 13.8372 65.6768 13.8432C65.6374 13.852 65.5972 13.8564 65.5568 13.8562C65.4879 13.8616 65.4192 13.8427 65.3624 13.8026C65.3395 13.7796 65.322 13.7516 65.3111 13.7208C65.3002 13.6901 65.2962 13.6572 65.2993 13.6246V12.3331C65.3043 12.277 65.297 12.2204 65.2781 12.1674C65.2591 12.1145 65.229 12.0663 65.1897 12.0265C65.1046 11.9584 64.9979 11.9244 64.8898 11.9308C64.8095 11.9304 64.7297 11.945 64.6545 11.9739C64.5894 11.9987 64.5272 12.0308 64.4691 12.0696V13.8198C64.441 13.831 64.412 13.8396 64.3824 13.8456C64.3414 13.8546 64.2996 13.8589 64.2577 13.8585C64.1907 13.8633 64.1243 13.8444 64.0695 13.805C64.0465 13.782 64.0288 13.7541 64.0178 13.7233C64.0068 13.6925 64.0028 13.6596 64.0059 13.627V12.0571C64.0028 11.9952 64.0166 11.9336 64.0459 11.8792C64.0812 11.8258 64.1262 11.7799 64.1786 11.7438C64.3966 11.6059 64.6477 11.5318 64.9044 11.5295C65.0326 11.5273 65.1601 11.5483 65.281 11.5917C65.3854 11.6296 65.4794 11.692 65.5554 11.774C65.6439 11.7012 65.7427 11.6427 65.8486 11.6003C65.9758 11.5507 66.1112 11.5267 66.2473 11.5295C66.3589 11.5288 66.4699 11.5449 66.5768 11.5774C66.6725 11.6056 66.7612 11.6546 66.8366 11.7209C66.9106 11.7885 66.969 11.872 67.0075 11.9653C67.0523 12.0776 67.0739 12.1981 67.071 12.3193V13.8208C67.0401 13.831 67.0087 13.8396 66.9769 13.8466C66.9375 13.8554 66.8972 13.8597 66.8569 13.8595C66.7899 13.8642 66.7234 13.8453 66.6686 13.8059C66.6456 13.7829 66.628 13.755 66.617 13.7243C66.606 13.6935 66.6019 13.6606 66.605 13.628V12.3365C66.6101 12.2803 66.6029 12.2237 66.584 12.1707C66.565 12.1177 66.5347 12.0696 66.4954 12.0299" fill="#CC0066"/>
<path d="M68.0456 12.9638C68.0727 13.1237 68.1587 13.267 68.2861 13.3647C68.4235 13.4566 68.5858 13.5023 68.7502 13.4953C68.8663 13.4967 68.9817 13.4756 69.0901 13.4331C69.1784 13.3991 69.2628 13.3552 69.3414 13.302C69.3799 13.3224 69.4121 13.3532 69.4344 13.391C69.4568 13.4288 69.4684 13.4722 69.468 13.5163C69.4675 13.5721 69.4465 13.6256 69.4092 13.6665C69.3641 13.7166 69.3095 13.7568 69.2487 13.7847C69.1735 13.8202 69.0945 13.8468 69.0133 13.8641C68.7604 13.9162 68.4983 13.8997 68.2536 13.8162C68.1176 13.7677 67.9937 13.6893 67.8907 13.5866C67.7859 13.48 67.7055 13.3511 67.6554 13.2092C67.598 13.0432 67.5701 12.8681 67.573 12.6921C67.5698 12.5207 67.5963 12.3501 67.6512 12.188C67.6976 12.0528 67.7717 11.9293 67.8686 11.8254C67.961 11.7285 68.0724 11.6525 68.1957 11.6025C68.3226 11.5508 68.4582 11.5246 68.5949 11.5255C68.7286 11.5236 68.8613 11.5492 68.9851 11.6006C69.0986 11.6479 69.2014 11.7181 69.2874 11.807C69.3734 11.8959 69.4408 12.0016 69.4854 12.1177C69.5342 12.2433 69.5585 12.3773 69.5569 12.5123C69.5597 12.5439 69.5563 12.5757 69.5468 12.6059C69.5374 12.6361 69.5221 12.6642 69.5019 12.6883C69.4587 12.7287 69.404 12.7542 69.3456 12.761L68.0456 12.9638ZM68.5944 11.9115C68.518 11.9097 68.442 11.9247 68.3718 11.9554C68.3015 11.9861 68.2386 12.0318 68.1873 12.0894C68.0709 12.2302 68.01 12.4099 68.0164 12.5936L69.1136 12.4262C69.1059 12.2917 69.0547 12.1636 68.9681 12.0617C68.9207 12.0102 68.8626 11.9701 68.7981 11.9441C68.7335 11.9182 68.6637 11.907 68.5944 11.9115Z" fill="#CC0066"/>
<path d="M71.3216 12.0404C71.2277 11.9633 71.109 11.9242 70.9884 11.9309C70.8938 11.9294 70.7996 11.944 70.7097 11.974C70.6367 11.9992 70.5661 12.0312 70.4989 12.0696V13.8199C70.4708 13.831 70.4418 13.8397 70.4123 13.8457C70.3713 13.8546 70.3294 13.859 70.2875 13.8586C70.2206 13.8633 70.1541 13.8444 70.0992 13.805C70.0763 13.7821 70.0586 13.7542 70.0476 13.7234C70.0366 13.6926 70.0326 13.6597 70.0357 13.6271V12.0572C70.0327 11.9953 70.0466 11.9337 70.0757 11.8792C70.1112 11.8258 70.1564 11.7799 70.2089 11.7439C70.3127 11.6845 70.4224 11.6364 70.5361 11.6004C70.6827 11.5527 70.8359 11.5296 70.9898 11.532C71.2327 11.5179 71.4726 11.5916 71.6671 11.74C71.7527 11.8187 71.8195 11.9163 71.8623 12.0252C71.9051 12.1342 71.9229 12.2516 71.9143 12.3686V13.8227C71.8846 13.8334 71.8542 13.842 71.8234 13.8486C71.7826 13.8575 71.7409 13.8618 71.6991 13.8615C71.6322 13.8662 71.5657 13.8473 71.5108 13.8079C71.4879 13.7849 71.4704 13.757 71.4595 13.7262C71.4486 13.6954 71.4446 13.6625 71.4478 13.63V12.3863C71.453 12.3238 71.4448 12.2609 71.4237 12.202C71.4025 12.1431 71.369 12.0896 71.3254 12.0452" fill="#CC0066"/>
<path d="M73.0918 13.4178C73.1701 13.4692 73.2624 13.494 73.3555 13.4886C73.4097 13.4881 73.4637 13.4803 73.5159 13.4651C73.5672 13.4515 73.6167 13.4321 73.6637 13.4073C73.6843 13.4343 73.7027 13.4629 73.7188 13.4929C73.7464 13.5486 73.7521 13.613 73.7346 13.6728C73.7171 13.7327 73.6777 13.7834 73.6246 13.8148C73.5159 13.8762 73.392 13.9044 73.2679 13.8961C73.0771 13.906 72.8888 13.8493 72.7341 13.7354C72.6627 13.6696 72.6074 13.5878 72.5725 13.4964C72.5377 13.4051 72.5244 13.3067 72.5336 13.2092V10.9831C72.5643 10.9722 72.5958 10.9635 72.6278 10.9572C72.6694 10.9484 72.7118 10.9441 72.7543 10.9443C72.8204 10.9388 72.8862 10.9571 72.9403 10.996C72.9621 11.0192 72.9788 11.047 72.989 11.0774C72.9992 11.1077 73.0028 11.14 72.9996 11.172V11.6436H73.692C73.7058 11.6696 73.7172 11.6968 73.7259 11.725C73.7374 11.7609 73.7431 11.7986 73.7428 11.8364C73.7428 11.971 73.6879 12.0381 73.578 12.0378H72.9996V13.1748C72.9948 13.2199 73.0009 13.2656 73.0173 13.3078C73.0337 13.3501 73.0599 13.3876 73.0937 13.4173" fill="#CC0066"/>
<path d="M75.7744 13.2136C75.7786 13.3087 75.7607 13.4036 75.7222 13.4904C75.6837 13.5772 75.6256 13.6536 75.5527 13.7135C75.3649 13.8473 75.1376 13.9116 74.9088 13.8957C74.7998 13.8965 74.6911 13.8864 74.5841 13.8656C74.4979 13.8497 74.4142 13.8223 74.335 13.7842C74.2737 13.7547 74.2192 13.7123 74.175 13.6599C74.1371 13.6159 74.1161 13.5595 74.1157 13.5011C74.1156 13.4554 74.1264 13.4104 74.1473 13.37C74.1687 13.328 74.2013 13.293 74.2414 13.2691C74.3303 13.3304 74.4249 13.3827 74.5238 13.4255C74.6415 13.4748 74.7679 13.4989 74.8952 13.4963C75.0028 13.5034 75.11 13.4781 75.2034 13.4236C75.2374 13.4008 75.2649 13.3695 75.2834 13.3327C75.3019 13.2959 75.3106 13.2549 75.3089 13.2136C75.3107 13.1784 75.3053 13.1432 75.293 13.1103C75.2806 13.0773 75.2617 13.0473 75.2373 13.0223C75.1757 12.9678 75.1016 12.9301 75.0218 12.9127L74.7177 12.8271C74.5526 12.789 74.4 12.7085 74.2743 12.5932C74.2253 12.5387 74.1876 12.4747 74.1633 12.4052C74.139 12.3356 74.1288 12.2617 74.1331 12.188C74.1327 12.0984 74.1514 12.0098 74.1882 11.9283C74.2246 11.8471 74.2787 11.7753 74.3464 11.7183C74.4234 11.6554 74.5116 11.6081 74.6062 11.5791C74.7209 11.5432 74.8405 11.5257 74.9606 11.5275C75.0598 11.5264 75.1589 11.5357 75.2562 11.5552C75.334 11.5708 75.4098 11.5953 75.4821 11.6284C75.5392 11.6535 75.5897 11.6916 75.6299 11.7398C75.6635 11.7799 75.6822 11.8307 75.6826 11.8833C75.6836 11.9283 75.6727 11.9728 75.6511 12.012C75.6316 12.0472 75.6049 12.0779 75.573 12.1019C75.4959 12.0576 75.4155 12.0195 75.3324 11.9881C75.2248 11.946 75.1103 11.9249 74.9949 11.9259C74.892 11.92 74.7896 11.9437 74.6994 11.9943C74.6713 12.0122 74.6475 12.0361 74.6295 12.0644C74.6116 12.0927 74.5999 12.1246 74.5954 12.158C74.5909 12.1913 74.5937 12.2252 74.6035 12.2574C74.6134 12.2895 74.63 12.3191 74.6523 12.344C74.7114 12.3956 74.7828 12.4305 74.8594 12.4449L75.1211 12.5138C75.3051 12.5574 75.4755 12.6466 75.6172 12.7735C75.6715 12.8321 75.7135 12.9013 75.7407 12.9768C75.7679 13.0524 75.7797 13.1328 75.7754 13.2131" fill="#CC0066"/>
<path d="M11.3477 6.46777V14.842C11.3477 15.3902 11.1822 15.9252 10.8735 16.3748C10.5649 16.8244 10.1279 17.1669 9.62165 17.3561L2.10664 20.1649C1.98836 20.2092 1.86129 20.2239 1.73626 20.2075C1.61122 20.1912 1.49192 20.1444 1.38852 20.0711C1.28512 19.9978 1.20067 19.9002 1.14238 19.7866C1.08408 19.6731 1.05366 19.5468 1.05371 19.4187V12.313C1.05395 11.8857 1.18295 11.4687 1.42336 11.1181C1.66377 10.7675 2.00406 10.5001 2.39847 10.3519L9.34441 7.7411C10.4406 7.29003 10.869 7.01403 11.3481 6.47016" fill="white"/>
<path d="M17.9546 8.58602C17.9468 8.89739 17.8228 9.1941 17.6078 9.41612C17.3929 9.63813 17.1029 9.76886 16.7967 9.78186H15.2218C15.131 9.78404 15.043 9.7495 14.9773 9.68582C14.9115 9.62213 14.8734 9.53452 14.8711 9.44224V5.95613C14.8704 5.90989 14.8789 5.86398 14.896 5.82112C14.9131 5.77826 14.9385 5.73932 14.9706 5.70662C15.0028 5.67392 15.0411 5.64812 15.0833 5.63075C15.1255 5.61338 15.1706 5.6048 15.2161 5.60551H16.736C16.9633 5.61773 17.1823 5.6967 17.3664 5.83285C17.5504 5.969 17.6917 6.15648 17.773 6.37258C17.8543 6.58867 17.8722 6.82409 17.8244 7.0503C17.7767 7.27651 17.6655 7.4838 17.5042 7.64705C17.6431 7.75978 17.7557 7.90251 17.8337 8.06492C17.9117 8.22732 17.9527 8.40532 17.9546 8.58602ZM15.5395 7.34235L16.6583 7.33087C16.7942 7.32633 16.9233 7.26944 17.0195 7.17173C17.1156 7.07402 17.1716 6.94281 17.1761 6.8047C17.1753 6.67186 17.1237 6.54453 17.0323 6.44958C16.9409 6.35462 16.8168 6.29947 16.6861 6.29575H15.5395V7.34235ZM17.2651 8.58602C17.2557 8.44526 17.1953 8.31302 17.0956 8.21486C16.9959 8.1167 16.8639 8.0596 16.7252 8.05459H15.5673V9.10071H16.7581C16.8911 9.0964 17.0175 9.04079 17.1115 8.94519C17.2056 8.84958 17.2603 8.72116 17.2646 8.58602" fill="white"/>
<path d="M20.6945 8.05455H20.188V9.44172C20.186 9.53303 20.1487 9.61986 20.0841 9.68336C20.0195 9.74686 19.9329 9.78189 19.843 9.78086C19.7545 9.78061 19.6697 9.74482 19.6071 9.68128C19.5445 9.61775 19.5092 9.53164 19.5088 9.44172V5.94461C19.5116 5.85358 19.5492 5.76725 19.6136 5.70394C19.678 5.64062 19.7642 5.6053 19.8538 5.60547H21.0724C21.3857 5.61242 21.6845 5.74127 21.9071 5.96545C22.1297 6.18963 22.2592 6.49206 22.2689 6.8104C22.2631 7.06714 22.1807 7.31602 22.0326 7.5241C21.8845 7.73218 21.6777 7.88964 21.4396 7.97562L22.2134 9.25948C22.2585 9.33854 22.2715 9.43234 22.2497 9.52101C22.2279 9.60968 22.173 9.68624 22.0966 9.73447C22.0437 9.76403 21.9843 9.77965 21.9239 9.77991C21.8659 9.77986 21.8089 9.76476 21.7582 9.73605C21.7075 9.70733 21.665 9.66596 21.6344 9.61584L20.6945 8.05455ZM21.5963 6.81566C21.59 6.67381 21.5294 6.54006 21.4275 6.44287C21.3256 6.34569 21.1905 6.29272 21.0508 6.29523H20.188V7.36431H21.0508C21.1945 7.36444 21.3325 7.30687 21.4347 7.20411C21.5368 7.10135 21.5949 6.96174 21.5963 6.81566Z" fill="white"/>
<path d="M26.1756 9.78046C25.6328 9.77453 25.1144 9.55046 24.7337 9.15723C24.3531 8.76401 24.1411 8.23361 24.1441 7.682C24.1511 7.27588 24.276 6.88092 24.5031 6.54668C24.7302 6.21243 25.0494 5.95379 25.4206 5.8032C25.7918 5.65262 26.1985 5.61679 26.5897 5.70022C26.9809 5.78365 27.3391 5.98263 27.6194 6.27217C27.8997 6.56172 28.0896 6.92895 28.1653 7.32778C28.241 7.72661 28.1991 8.13928 28.0449 8.514C27.8907 8.88873 27.631 9.20884 27.2985 9.43414C26.9659 9.65945 26.5753 9.77993 26.1756 9.78046ZM24.8007 7.682C24.8012 7.95893 24.8824 8.2295 25.0342 8.45949C25.186 8.68948 25.4015 8.86857 25.6535 8.97408C25.9054 9.0796 26.1825 9.10682 26.4497 9.05229C26.7168 8.99776 26.9621 8.86395 27.1544 8.66776C27.3467 8.47157 27.4775 8.22183 27.5301 7.95011C27.5828 7.6784 27.555 7.39692 27.4502 7.14128C27.3454 6.88564 27.1684 6.66731 26.9415 6.51392C26.7146 6.36053 26.4481 6.27895 26.1756 6.27952C25.8111 6.28315 25.4627 6.43225 25.2055 6.69463C24.9483 6.95701 24.8029 7.31164 24.8007 7.682Z" fill="white"/>
<path d="M33.0106 9.75247C32.9676 9.76953 32.9215 9.77762 32.8753 9.77627C32.8291 9.77493 32.7836 9.76416 32.7416 9.74462C32.6995 9.72509 32.6618 9.69717 32.6305 9.66253C32.5993 9.62789 32.5752 9.58723 32.5597 9.54296L31.6184 6.95994L30.6723 9.54296C30.6578 9.58735 30.6346 9.62826 30.604 9.66316C30.5734 9.69805 30.5361 9.72619 30.4943 9.74583C30.4526 9.76547 30.4073 9.77619 30.3613 9.77733C30.3154 9.77848 30.2696 9.77002 30.227 9.75247C30.1831 9.73718 30.1427 9.71297 30.1084 9.68132C30.074 9.64967 30.0463 9.61124 30.027 9.56836C30.0077 9.52549 29.9972 9.47907 29.9962 9.43194C29.9951 9.38481 30.0035 9.33795 30.0208 9.29423L31.2785 5.82677C31.305 5.75748 31.3517 5.6981 31.4124 5.65662C31.473 5.61514 31.5448 5.59356 31.6179 5.59478C31.6907 5.59513 31.7617 5.61734 31.8221 5.65862C31.8825 5.6999 31.9295 5.7584 31.9573 5.82677L33.2149 9.29423C33.2323 9.33792 33.2407 9.38475 33.2396 9.43186C33.2386 9.47897 33.2282 9.52537 33.2089 9.56823C33.1897 9.6111 33.162 9.64954 33.1277 9.68122C33.0934 9.71289 33.0531 9.73713 33.0092 9.75247" fill="white"/>
<path d="M34.6191 9.44066V5.96125C34.6213 5.87199 34.6571 5.78699 34.7193 5.72386C34.7814 5.66073 34.865 5.62429 34.9529 5.62211H35.7822C36.0809 5.62032 36.3767 5.68191 36.6506 5.80292C36.9139 5.9203 37.1492 6.09388 37.3407 6.31187C37.5317 6.53228 37.6742 6.79159 37.7587 7.07247C37.8432 7.35335 37.8677 7.64932 37.8306 7.9406C37.7693 8.44641 37.5285 8.91213 37.1535 9.25052C36.7785 9.58891 36.295 9.77674 35.7935 9.77885H34.9533C34.8655 9.77666 34.7818 9.74023 34.7197 9.6771C34.6576 9.61397 34.6217 9.52897 34.6196 9.43971M37.1576 7.8612C37.187 7.66585 37.1738 7.46632 37.119 7.2767C37.0642 7.08709 36.969 6.91203 36.8403 6.7639C36.7072 6.61348 36.544 6.49378 36.3615 6.41284C36.1791 6.3319 35.9817 6.2916 35.7827 6.29465H35.2875V9.10009H35.794C36.1316 9.10025 36.4574 8.97401 36.7092 8.74547C36.961 8.51693 37.1211 8.20212 37.159 7.8612" fill="white"/>
<path d="M41.1364 9.19783C40.9698 9.45355 40.7131 9.63472 40.4192 9.70411C40.1252 9.7735 39.8162 9.72584 39.5558 9.57093C39.4759 9.52172 39.4169 9.44409 39.3902 9.35313C39.3635 9.26217 39.371 9.16437 39.4113 9.07873C39.4717 9.00776 39.5562 8.96254 39.648 8.95207C39.7398 8.94161 39.832 8.96668 39.9064 9.02229C40.0218 9.08594 40.1567 9.10267 40.2837 9.0691C40.4108 9.03554 40.5206 8.95417 40.5908 8.84148C40.6297 8.78282 40.6567 8.71697 40.6704 8.64768C40.6842 8.5784 40.6844 8.50703 40.6709 8.43768C40.6575 8.36833 40.6308 8.30235 40.5922 8.24351C40.5537 8.18467 40.5041 8.13414 40.4463 8.09479C40.1738 7.91924 40.1639 7.91398 39.9008 7.73843C39.6403 7.56664 39.4576 7.29673 39.3929 6.98806C39.3282 6.67939 39.3868 6.35725 39.5558 6.09248C39.7241 5.83887 39.9807 5.65938 40.2738 5.59008C40.567 5.52078 40.8752 5.5668 41.1364 5.7189C41.2136 5.76476 41.2706 5.83904 41.2954 5.92638C41.3203 6.01372 41.3112 6.10743 41.27 6.18814C41.2148 6.26211 41.1337 6.31162 41.0435 6.32641C40.9533 6.3412 40.861 6.32012 40.7857 6.26755C40.6653 6.20524 40.5259 6.19222 40.3963 6.23115C40.2668 6.27008 40.1568 6.35801 40.0891 6.47684C40.0213 6.59567 40.001 6.73637 40.0323 6.86996C40.0636 7.00356 40.144 7.1199 40.2571 7.19504C40.3983 7.28545 40.3983 7.28545 40.797 7.5514C40.9257 7.63674 41.0366 7.74705 41.1234 7.87599C41.2101 8.00494 41.271 8.14999 41.3025 8.30287C41.334 8.45574 41.3355 8.61344 41.307 8.76692C41.2785 8.92041 41.2206 9.06715 41.1364 9.19783Z" fill="white"/>
<path d="M44.8943 8.04525C44.583 8.06771 44.2707 8.07155 43.959 8.05673V9.4439C43.957 9.53521 43.9197 9.62204 43.8551 9.68554C43.7905 9.74903 43.7039 9.78407 43.614 9.78304C43.5256 9.78266 43.4409 9.74681 43.3784 9.68329C43.3159 9.61977 43.2807 9.53373 43.2803 9.4439V5.95636C43.2797 5.91166 43.2879 5.8673 43.3045 5.82589C43.3211 5.78448 43.3457 5.74687 43.3768 5.71526C43.4079 5.68365 43.4449 5.65869 43.4856 5.64185C43.5264 5.62501 43.57 5.61664 43.614 5.61722H44.8609C45.1716 5.62705 45.4666 5.7584 45.6843 5.98386C45.902 6.20933 46.0257 6.51152 46.0296 6.8274C46.0245 7.13773 45.9051 7.43484 45.6949 7.65999C45.4847 7.88514 45.199 8.02193 44.8943 8.04333M44.8166 6.29597H43.9595V7.36505H44.8166C44.9601 7.3642 45.0975 7.3063 45.1995 7.20375C45.3014 7.1012 45.3598 6.96216 45.3621 6.8164C45.3549 6.67488 45.294 6.5417 45.1924 6.44471C45.0907 6.34772 44.9561 6.29442 44.8166 6.29597Z" fill="white"/>
<path d="M47.8101 9.44129V5.94561C47.8104 5.85578 47.8457 5.76974 47.9082 5.70622C47.9707 5.6427 48.0554 5.60685 48.1438 5.60647H50.1489C50.2388 5.60532 50.3255 5.64032 50.3901 5.70384C50.4548 5.76736 50.4921 5.85426 50.4939 5.94561C50.4934 6.03845 50.4569 6.12734 50.3923 6.19298C50.3277 6.25863 50.2403 6.29573 50.1489 6.29623H48.4902V7.36531H49.7427C49.7867 7.36474 49.8303 7.37311 49.8711 7.38995C49.9118 7.40679 49.9489 7.43175 49.98 7.46336C50.0111 7.49496 50.0356 7.53258 50.0522 7.57399C50.0687 7.6154 50.077 7.65976 50.0764 7.70445C50.0771 7.74919 50.0689 7.7936 50.0523 7.83507C50.0358 7.87653 50.0112 7.9142 49.9801 7.94586C49.949 7.97752 49.912 8.00252 49.8712 8.01939C49.8304 8.03626 49.7867 8.04465 49.7427 8.04407H48.4902V9.09019H50.1489C50.2403 9.0907 50.3277 9.1278 50.3923 9.19344C50.4569 9.25909 50.4934 9.34798 50.4939 9.44081C50.492 9.53212 50.4546 9.61895 50.39 9.68245C50.3254 9.74595 50.2388 9.78099 50.1489 9.77996H48.1452C48.0568 9.77958 47.9721 9.74373 47.9096 9.68021C47.8471 9.61669 47.8118 9.53064 47.8115 9.44081" fill="white"/>
<path d="M55.7309 9.32814C55.3765 9.61461 54.9368 9.77012 54.484 9.76916C53.9393 9.76916 53.4169 9.54926 53.0318 9.15783C52.6466 8.7664 52.4302 8.23551 52.4302 7.68195C52.4302 7.12838 52.6466 6.59749 53.0318 6.20606C53.4169 5.81463 53.9393 5.59473 54.484 5.59473C54.8541 5.59523 55.2166 5.70112 55.5304 5.90038C55.5698 5.92121 55.6047 5.94994 55.6329 5.98483C55.6611 6.01972 55.6821 6.06005 55.6946 6.10339C55.7071 6.14674 55.7108 6.19221 55.7056 6.23706C55.7003 6.28191 55.6862 6.32521 55.6641 6.36437C55.6415 6.40315 55.6112 6.43677 55.5753 6.46314C55.5393 6.48951 55.4984 6.50805 55.455 6.51761C55.4117 6.52717 55.3669 6.52755 55.3234 6.51871C55.2799 6.50988 55.2387 6.49202 55.2023 6.46625C54.9852 6.33518 54.737 6.26672 54.4845 6.26822C54.304 6.26822 54.1253 6.30437 53.9585 6.3746C53.7917 6.44483 53.6402 6.54776 53.5126 6.67752C53.385 6.80727 53.2839 6.96131 53.2149 7.13082C53.1459 7.30034 53.1104 7.482 53.1106 7.66544C53.1043 7.92817 53.1712 8.18735 53.3034 8.41322C53.4356 8.6391 53.6277 8.8225 53.8579 8.94238C54.088 9.06226 54.3467 9.11376 54.6044 9.09095C54.862 9.06815 55.1081 8.97196 55.3143 8.81345C55.3467 8.78528 55.3843 8.76393 55.4248 8.75067C55.4654 8.7374 55.5081 8.73247 55.5506 8.73616C55.593 8.73986 55.6343 8.7521 55.6721 8.77219C55.7098 8.79228 55.7432 8.8198 55.7704 8.85315C55.827 8.92147 55.8548 9.00982 55.8474 9.09884C55.8401 9.18787 55.7984 9.27032 55.7314 9.32814" fill="white"/>
<path d="M60.3661 5.93975C60.3661 5.98409 60.3574 6.02798 60.3406 6.06889C60.3238 6.1098 60.2991 6.1469 60.2681 6.17805C60.237 6.2092 60.2002 6.23378 60.1597 6.25035C60.1193 6.26692 60.076 6.27516 60.0324 6.27459H59.2148V9.44213C59.2148 9.53138 59.1799 9.61697 59.1178 9.68008C59.0557 9.74319 58.9715 9.77864 58.8836 9.77864C58.7958 9.77864 58.7116 9.74319 58.6495 9.68008C58.5874 9.61697 58.5525 9.53138 58.5525 9.44213V6.27363H57.7344C57.6466 6.27363 57.5624 6.23818 57.5003 6.17507C57.4382 6.11196 57.4033 6.02637 57.4033 5.93712C57.4033 5.84787 57.4382 5.76228 57.5003 5.69917C57.5624 5.63607 57.6466 5.60061 57.7344 5.60061H60.0328C60.0768 5.60004 60.1205 5.60841 60.1612 5.62525C60.2019 5.64209 60.239 5.66705 60.2701 5.69866C60.3012 5.73026 60.3257 5.76788 60.3423 5.80929C60.3589 5.8507 60.3666 5.89506 60.3661 5.93975Z" fill="white"/>
<path d="M63.2223 8.05455H62.7158V9.44172C62.7138 9.53303 62.6765 9.61986 62.6119 9.68336C62.5473 9.74686 62.4607 9.78189 62.3708 9.78086C62.2823 9.78061 62.1975 9.74482 62.1349 9.68128C62.0723 9.61775 62.037 9.53164 62.0366 9.44172V5.94461C62.0394 5.85358 62.077 5.76725 62.1415 5.70394C62.2059 5.64062 62.292 5.6053 62.3816 5.60547H63.6007C63.914 5.61242 64.2128 5.74127 64.4354 5.96545C64.658 6.18963 64.7875 6.49206 64.7972 6.8104C64.7914 7.06714 64.709 7.31602 64.5609 7.5241C64.4128 7.73218 64.206 7.88964 63.9679 7.97562L64.7416 9.25948C64.7867 9.3386 64.7997 9.43244 64.7778 9.52112C64.7559 9.60979 64.7009 9.68632 64.6244 9.73447C64.5715 9.76404 64.5121 9.77967 64.4517 9.77991C64.3937 9.77986 64.3367 9.76476 64.286 9.73605C64.2354 9.70733 64.1928 9.66596 64.1622 9.61584L63.2223 8.05455ZM64.1241 6.81566C64.1177 6.67381 64.0572 6.54006 63.9553 6.44287C63.8535 6.34569 63.7183 6.29272 63.5786 6.29523H62.7158V7.36431H63.5786C63.7223 7.36444 63.8603 7.30687 63.9625 7.20411C64.0646 7.10135 64.1227 6.96174 64.1241 6.81566Z" fill="white"/>
<path d="M69.6784 5.93985V8.25308C69.682 8.45589 69.6457 8.65739 69.5718 8.84581C69.4979 9.03423 69.3877 9.20579 69.2479 9.35049C69.108 9.49519 68.9411 9.61012 68.7571 9.68857C68.573 9.76703 68.3754 9.80743 68.1758 9.80743C67.9762 9.80743 67.7785 9.76703 67.5945 9.68857C67.4104 9.61012 67.2436 9.49519 67.1037 9.35049C66.9638 9.20579 66.8537 9.03423 66.7797 8.84581C66.7058 8.65739 66.6696 8.45589 66.6731 8.25308V5.93985C66.6731 5.84832 66.7089 5.76053 66.7725 5.69581C66.8362 5.63109 66.9226 5.59473 67.0127 5.59473C67.1027 5.59473 67.1891 5.63109 67.2528 5.69581C67.3165 5.76053 67.3523 5.84832 67.3523 5.93985V8.25308C67.3523 8.47661 67.4397 8.69099 67.5952 8.84905C67.7507 9.00711 67.9617 9.09591 68.1816 9.09591C68.4016 9.09591 68.6126 9.00711 68.7681 8.84905C68.9236 8.69099 69.011 8.47661 69.011 8.25308V5.93985C69.0104 5.89515 69.0187 5.85079 69.0353 5.80938C69.0518 5.76797 69.0764 5.73036 69.1075 5.69875C69.1386 5.66714 69.1756 5.64218 69.2163 5.62535C69.2571 5.60851 69.3007 5.60013 69.3447 5.60071C69.3887 5.60013 69.4323 5.60851 69.4731 5.62535C69.5138 5.64218 69.5509 5.66714 69.582 5.69875C69.6131 5.73036 69.6376 5.76797 69.6542 5.80938C69.6708 5.85079 69.679 5.89515 69.6784 5.93985Z" fill="white"/>
<path d="M75.6725 9.36786C75.6845 9.40948 75.688 9.45315 75.683 9.49622C75.6779 9.5393 75.6643 9.58088 75.643 9.61844C75.6216 9.65601 75.593 9.68878 75.5588 9.71478C75.5246 9.74077 75.4857 9.75944 75.4442 9.76966H75.4272C75.4216 9.76966 75.4216 9.76966 75.4164 9.78114H75.3773C75.2994 9.78048 75.2242 9.75258 75.1642 9.70214C75.1042 9.6517 75.0631 9.58179 75.0479 9.50418L74.5913 7.24166L73.7511 9.53241C73.7288 9.60154 73.6856 9.66174 73.6276 9.70442C73.5696 9.7471 73.4998 9.77007 73.4282 9.77007C73.3566 9.77007 73.2869 9.7471 73.2289 9.70442C73.1709 9.66174 73.1277 9.60154 73.1053 9.53241L72.365 7.34928L71.9752 9.50418C71.9629 9.58368 71.9228 9.656 71.8623 9.70792C71.8018 9.75983 71.7249 9.78786 71.6457 9.78688C71.6288 9.78688 71.6066 9.78114 71.5901 9.78114C71.5455 9.77456 71.5028 9.75791 71.4653 9.73242C71.4277 9.70693 71.3963 9.67324 71.3732 9.63381C71.3463 9.59915 71.3274 9.55884 71.3178 9.51581C71.3082 9.47279 71.3081 9.42813 71.3176 9.38508L71.8909 5.8784C71.9052 5.80207 71.9442 5.73277 72.0017 5.68154C72.0591 5.63032 72.1319 5.6001 72.2082 5.5957H72.236C72.3078 5.59566 72.3778 5.6188 72.4358 5.66179C72.4938 5.70477 72.5369 5.76538 72.5589 5.83487L73.4381 8.35187L74.3564 5.82339C74.3779 5.75574 74.4205 5.69705 74.4777 5.65622C74.535 5.61539 74.6037 5.59464 74.6736 5.59714H74.6906C74.7666 5.59764 74.8399 5.62589 74.8971 5.67673C74.9543 5.72758 74.9916 5.79762 75.0022 5.87409L75.6725 9.36786Z" fill="white"/>
</g>
</svg>
