<svg width="76" height="21" viewBox="0 0 76 21" fill="none" xmlns="http://www.w3.org/2000/svg">
<mask id="mask0_2057_109141" style="mask-type:luminance" maskUnits="userSpaceOnUse" x="0" y="0" width="76" height="21">
<path d="M75.7464 0.669922H0.835449V20.6892H75.7464V0.669922Z" fill="white"/>
</mask>
<g mask="url(#mask0_2057_109141)">
<path d="M8.97318 3.70093L2.13502 0.747681C1.99299 0.686248 1.83819 0.66155 1.68447 0.675798C1.53075 0.690046 1.38291 0.742796 1.25416 0.829327C1.12541 0.915859 1.01978 1.03347 0.946707 1.17165C0.873638 1.30983 0.835412 1.46426 0.835449 1.62112V9.22188C0.835445 9.38349 0.873973 9.54269 0.947738 9.68586C1.0215 9.82903 1.12831 9.9519 1.25901 10.044C1.3897 10.136 1.54041 10.1945 1.69822 10.2145C1.85603 10.2344 2.01624 10.2152 2.16514 10.1585L6.70211 8.42975L1.78671 6.34852C1.71633 6.31544 1.66129 6.25594 1.63316 6.1825C1.60503 6.10907 1.60598 6.02741 1.63583 5.95468C1.66568 5.88195 1.72209 5.82379 1.79323 5.79243C1.86437 5.76107 1.94469 5.75893 2.01735 5.78647L7.5244 8.11692L9.07249 7.52666C11.7215 6.59294 11.8594 4.72744 8.97365 3.69997M9.62132 6.11844C9.59073 6.19279 9.53239 6.25181 9.45909 6.28256C9.38578 6.31331 9.30347 6.31329 9.23017 6.2825L1.67469 3.08483C1.63837 3.06947 1.60539 3.04699 1.57762 3.01868C1.54986 2.99037 1.52785 2.95678 1.51286 2.91982C1.48258 2.84519 1.48272 2.76139 1.51324 2.68685C1.54376 2.61232 1.60217 2.55317 1.67561 2.5224C1.74905 2.49163 1.83151 2.49177 1.90485 2.52279L9.45987 5.72142C9.49626 5.73676 9.5293 5.75924 9.55712 5.78758C9.58494 5.81593 9.60698 5.84957 9.62198 5.88659C9.63698 5.9236 9.64464 5.96326 9.64452 6.0033C9.64441 6.04333 9.63652 6.08294 9.62132 6.11987" fill="#CC0066"/>
<path d="M45.6424 12.8311C45.6469 13.06 45.6118 13.2879 45.5389 13.5046C45.4773 13.6842 45.3771 13.8476 45.2456 13.9829C45.1171 14.1115 44.9612 14.2083 44.79 14.2661C44.5993 14.3297 44.3995 14.3609 44.1988 14.3584C44.1047 14.3584 43.9934 14.3541 43.8651 14.3455C43.7441 14.3387 43.6248 14.3142 43.5107 14.2728C43.4521 14.2611 43.3994 14.229 43.3617 14.182C43.324 14.135 43.3036 14.0761 43.304 14.0154V11.63C43.3013 11.5839 43.3165 11.5385 43.3464 11.5037C43.3783 11.4712 43.4173 11.4469 43.4603 11.4329C43.5723 11.3975 43.6876 11.3744 43.8044 11.364C43.9267 11.3525 44.0457 11.3468 44.1612 11.3468C44.3657 11.3445 44.5693 11.3749 44.7646 11.4367C44.94 11.4916 45.101 11.5861 45.2353 11.7132C45.3686 11.8437 45.4717 12.0026 45.537 12.1786C45.6127 12.3872 45.6493 12.6083 45.6448 12.8306M45.151 12.8349C45.1547 12.6702 45.1297 12.5062 45.0771 12.3504C45.0338 12.2257 44.963 12.1128 44.87 12.0203C44.7809 11.934 44.6742 11.8687 44.5575 11.829C44.4329 11.7867 44.3024 11.7657 44.1711 11.7668C44.0408 11.7645 43.9107 11.7761 43.7827 11.8012V13.903C43.8473 13.9182 43.9129 13.9283 43.979 13.9332C44.0509 13.9389 44.1248 13.9418 44.2007 13.9418C44.3313 13.9506 44.4622 13.9302 44.5842 13.8821C44.7062 13.8339 44.8163 13.7591 44.9067 13.6629C45.0847 13.4264 45.1711 13.1318 45.1496 12.8349" fill="#CC0066"/>
<path d="M46.1407 11.3858C46.1397 11.3476 46.146 11.3095 46.1594 11.2738C46.1729 11.2381 46.1931 11.2054 46.2189 11.1777C46.2453 11.1498 46.2771 11.1279 46.3124 11.1135C46.3477 11.0991 46.3856 11.0924 46.4236 11.094C46.461 11.0927 46.4982 11.0996 46.5327 11.114C46.5673 11.1284 46.5985 11.1501 46.6242 11.1777C46.6745 11.2349 46.7023 11.309 46.7023 11.3858C46.7023 11.4625 46.6745 11.5366 46.6242 11.5938C46.5985 11.6214 46.5673 11.6431 46.5327 11.6575C46.4982 11.6719 46.461 11.6788 46.4236 11.6775C46.3856 11.6791 46.3477 11.6724 46.3124 11.658C46.2771 11.6436 46.2453 11.6217 46.2189 11.5938C46.193 11.5661 46.1728 11.5334 46.1594 11.4977C46.146 11.462 46.1397 11.424 46.1407 11.3858ZM46.6557 14.294C46.6276 14.3052 46.5986 14.3138 46.5691 14.3199C46.5283 14.3288 46.4866 14.3331 46.4448 14.3328C46.3766 14.3385 46.3086 14.3195 46.2528 14.2792C46.2305 14.2558 46.2135 14.2278 46.2029 14.1971C46.1923 14.1663 46.1885 14.1337 46.1916 14.1013V12.0832L46.2801 12.0597C46.3215 12.0492 46.364 12.0442 46.4067 12.0449C46.4737 12.0394 46.5405 12.0584 46.595 12.0985C46.6168 12.1229 46.6334 12.1518 46.6435 12.1832C46.6536 12.2146 46.6571 12.2478 46.6538 12.2807L46.6557 14.294Z" fill="#CC0066"/>
<path d="M48.663 14.092C48.5987 14.1333 48.5292 14.1655 48.4563 14.1877C48.3617 14.2153 48.2635 14.2283 48.165 14.2264C48.0382 14.2272 47.9121 14.2068 47.7917 14.1661C47.6757 14.1265 47.5697 14.0611 47.4816 13.9748C47.3866 13.8799 47.3145 13.764 47.2707 13.6361C47.2158 13.4696 47.1901 13.2946 47.1949 13.1191C47.1918 12.9549 47.2174 12.7914 47.2707 12.6364C47.3165 12.5055 47.3908 12.3868 47.4881 12.2891C47.5834 12.1955 47.697 12.1232 47.8214 12.0768C47.9601 12.0264 48.1066 12.0017 48.254 12.0041C48.3899 12.0029 48.5251 12.023 48.655 12.0638C48.7625 12.0968 48.8649 12.1451 48.959 12.2073C49.0042 12.2389 49.0428 12.279 49.0729 12.3255C49.1025 12.3752 49.1172 12.4325 49.1153 12.4905V14.3642C49.119 14.5054 49.0932 14.6457 49.0395 14.776C48.9926 14.8856 48.9192 14.9815 48.8263 15.0549C48.7294 15.1289 48.6188 15.1821 48.501 15.2113C48.3691 15.2445 48.2336 15.2606 48.0977 15.2591C47.9667 15.2612 47.836 15.2451 47.7093 15.2113C47.6244 15.1892 47.5423 15.1571 47.4646 15.1156C47.4043 15.0782 47.3599 15.019 47.3404 14.9499C47.3209 14.8809 47.3276 14.8068 47.3592 14.7425C47.3788 14.7054 47.4079 14.6744 47.4434 14.6526C47.5263 14.7121 47.6174 14.759 47.7136 14.7918C47.8301 14.8339 47.9529 14.855 48.0765 14.854C48.2301 14.8635 48.3824 14.8204 48.5091 14.7315C48.5633 14.683 48.6054 14.6221 48.6322 14.5539C48.6589 14.4856 48.6695 14.412 48.663 14.3388V14.092ZM48.2281 13.8347C48.3156 13.8371 48.4027 13.8208 48.4836 13.7868C48.5471 13.7592 48.605 13.7199 48.6545 13.6711V12.5178C48.6038 12.4852 48.5493 12.4593 48.4921 12.4408C48.4178 12.4166 48.34 12.405 48.2619 12.4063C48.1811 12.403 48.1004 12.417 48.0252 12.4473C47.95 12.4777 47.8818 12.5236 47.8251 12.5824C47.7034 12.7308 47.6436 12.9217 47.6585 13.1143C47.6559 13.2275 47.6709 13.3405 47.7028 13.4491C47.7273 13.5315 47.769 13.6075 47.8251 13.672C47.8744 13.7273 47.9359 13.7699 48.0045 13.7964C48.0761 13.8229 48.1519 13.8356 48.2281 13.8347Z" fill="#CC0066"/>
<path d="M49.6945 11.3858C49.6934 11.3476 49.6997 11.3095 49.7131 11.2738C49.7265 11.2381 49.7468 11.2054 49.7726 11.1777C49.799 11.1498 49.8308 11.1279 49.8661 11.1135C49.9014 11.0991 49.9393 11.0924 49.9773 11.094C50.0147 11.0927 50.0519 11.0995 50.0864 11.1139C50.121 11.1284 50.1522 11.1501 50.1778 11.1777C50.2282 11.2349 50.256 11.309 50.256 11.3858C50.256 11.4625 50.2282 11.5366 50.1778 11.5938C50.1522 11.6214 50.121 11.6431 50.0864 11.6576C50.0519 11.672 50.0147 11.6788 49.9773 11.6775C49.9393 11.6791 49.9014 11.6724 49.8661 11.658C49.8308 11.6436 49.799 11.6217 49.7726 11.5938C49.7467 11.5661 49.7265 11.5334 49.7131 11.4977C49.6997 11.462 49.6934 11.424 49.6945 11.3858ZM50.2094 14.294C50.1813 14.3052 50.1523 14.3138 50.1228 14.3199C50.0818 14.3288 50.0399 14.3331 49.998 14.3328C49.9298 14.3385 49.8618 14.3195 49.806 14.2792C49.7837 14.2558 49.7666 14.2278 49.7561 14.1971C49.7455 14.1664 49.7417 14.1337 49.7448 14.1013V12.0832L49.8333 12.0597C49.8747 12.0492 49.9172 12.0442 49.9599 12.0449C50.0269 12.0394 50.0937 12.0584 50.1482 12.0985C50.17 12.1229 50.1866 12.1518 50.1967 12.1832C50.2069 12.2146 50.2104 12.2478 50.207 12.2807L50.2094 14.294Z" fill="#CC0066"/>
<path d="M51.4175 13.8934C51.4957 13.9449 51.588 13.9696 51.6811 13.9642C51.7354 13.9637 51.7893 13.9558 51.8416 13.9407C51.8928 13.9271 51.9424 13.9077 51.9894 13.8828C52.0099 13.9099 52.0284 13.9385 52.0444 13.9685C52.072 14.0242 52.0775 14.0886 52.06 14.1484C52.0426 14.2082 52.0033 14.2589 51.9503 14.2904C51.8415 14.3518 51.7177 14.38 51.5935 14.3717C51.4028 14.3816 51.2144 14.3249 51.0598 14.211C50.9883 14.1452 50.933 14.0634 50.8982 13.972C50.8634 13.8807 50.8501 13.7823 50.8593 13.6848V11.4586C50.89 11.4478 50.9215 11.4391 50.9534 11.4328C50.995 11.424 51.0375 11.4197 51.08 11.4199C51.146 11.4144 51.2118 11.4327 51.2659 11.4716C51.2877 11.4948 51.3042 11.5226 51.3144 11.553C51.3246 11.5834 51.3281 11.6157 51.3248 11.6476V12.1192H52.0171C52.0309 12.1452 52.0422 12.1724 52.051 12.2005C52.0625 12.2365 52.0682 12.2742 52.068 12.312C52.068 12.4466 52.013 12.5137 51.9032 12.5134H51.3248V13.6504C51.32 13.6955 51.326 13.7412 51.3424 13.7834C51.3588 13.8257 51.3851 13.8632 51.4189 13.8929" fill="#CC0066"/>
<path d="M53.3168 12.0029C53.5513 11.9898 53.7834 12.0572 53.9758 12.1943C54.061 12.2689 54.1277 12.363 54.1702 12.4688C54.2127 12.5747 54.23 12.6892 54.2205 12.8032V13.9144C54.2244 13.9746 54.2078 14.0344 54.1734 14.0837C54.1368 14.1276 54.0942 14.1659 54.0468 14.1975C53.9537 14.2506 53.8544 14.2918 53.7512 14.32C53.6122 14.358 53.4687 14.3761 53.3248 14.3736C53.087 14.3876 52.8511 14.3237 52.6517 14.1913C52.5709 14.1296 52.5065 14.0484 52.4641 13.9552C52.4217 13.862 52.4027 13.7595 52.4088 13.657C52.4036 13.5681 52.4178 13.4791 52.4503 13.3964C52.4829 13.3138 52.533 13.2394 52.5971 13.1787C52.7527 13.0549 52.942 12.9829 53.1393 12.9725L53.7597 12.9036V12.8008C53.7647 12.7433 53.7558 12.6855 53.7338 12.6324C53.7117 12.5793 53.6771 12.5325 53.6331 12.4961C53.5293 12.4272 53.4067 12.3936 53.2829 12.4004C53.1671 12.4 53.0519 12.4173 52.9412 12.4516C52.8394 12.4827 52.7404 12.5228 52.6456 12.5717C52.6159 12.5437 52.5904 12.5114 52.5698 12.476C52.5471 12.4373 52.5354 12.393 52.5361 12.3479C52.5369 12.3029 52.55 12.2589 52.574 12.221C52.6051 12.1806 52.6458 12.1489 52.6922 12.1287C52.7825 12.0841 52.8783 12.0519 52.977 12.0331C53.0889 12.011 53.2027 12.0003 53.3168 12.001M53.3253 13.9828C53.4179 13.9846 53.5103 13.973 53.5997 13.9483C53.6572 13.9342 53.7116 13.9094 53.7602 13.8751V13.2705L53.2791 13.3222C53.1701 13.3296 53.0644 13.3634 52.9708 13.4207C52.9366 13.4469 52.9093 13.4815 52.8916 13.5212C52.874 13.5609 52.8664 13.6045 52.8696 13.6479C52.8678 13.6946 52.8767 13.741 52.8958 13.7834C52.9148 13.8259 52.9435 13.8632 52.9793 13.8924C53.0815 13.9607 53.2033 13.9924 53.3253 13.9823" fill="#CC0066"/>
<path d="M55.102 14.3315C55.035 14.3362 54.9685 14.3173 54.9137 14.2779C54.8907 14.255 54.8731 14.2271 54.8621 14.1963C54.8511 14.1655 54.847 14.1326 54.8501 14.1V11.2089L54.9386 11.1855C54.98 11.175 55.0226 11.17 55.0653 11.1707C55.1319 11.1659 55.1981 11.184 55.2535 11.2218C55.2766 11.2443 55.2943 11.2719 55.3054 11.3024C55.3164 11.3329 55.3204 11.3656 55.3171 11.3979V14.2932C55.2917 14.3018 55.2603 14.3105 55.2229 14.3191C55.1828 14.3281 55.1417 14.3324 55.1006 14.332" fill="#CC0066"/>
<path d="M57.4377 13.3072V14.294C57.4058 14.3044 57.3734 14.313 57.3407 14.3198C57.2991 14.3287 57.2566 14.333 57.2141 14.3327C57.1441 14.3389 57.0744 14.319 57.0178 14.2768C56.9954 14.2521 56.9784 14.2229 56.9679 14.1911C56.9573 14.1592 56.9535 14.1255 56.9566 14.0921V11.634C56.9538 11.5878 56.9691 11.5425 56.999 11.5077C57.0308 11.4752 57.0699 11.4509 57.1129 11.4369C57.2208 11.3999 57.3327 11.3762 57.4462 11.3661C57.5717 11.3533 57.6912 11.3469 57.8048 11.3469C58.1139 11.3213 58.4212 11.4147 58.6657 11.6086C58.7597 11.7001 58.8332 11.811 58.8813 11.9339C58.9294 12.0568 58.9509 12.1888 58.9443 12.3208C58.9502 12.4536 58.9284 12.5862 58.8804 12.7098C58.8324 12.8335 58.7592 12.9454 58.6657 13.0383C58.4321 13.2353 58.1323 13.3322 57.8297 13.3086L57.4377 13.3072ZM57.8048 12.891C57.976 12.9009 58.1454 12.8502 58.284 12.7475C58.3438 12.6951 58.3907 12.6293 58.4211 12.5552C58.4515 12.4812 58.4645 12.4009 58.4591 12.3208C58.4657 12.2424 58.4541 12.1635 58.4251 12.0904C58.3962 12.0174 58.3507 11.9523 58.2924 11.9004C58.1518 11.8029 57.9831 11.7561 57.8133 11.7674C57.7486 11.7674 57.6824 11.7703 57.6146 11.776C57.5536 11.7809 57.493 11.7895 57.433 11.8018V12.8915L57.8048 12.891Z" fill="#CC0066"/>
<path d="M60.2172 12.0029C60.4517 11.9898 60.6838 12.0571 60.8761 12.1943C60.9614 12.2688 61.0281 12.3629 61.0706 12.4688C61.1132 12.5746 61.1304 12.6892 61.1209 12.8032V13.9144C61.1248 13.9746 61.1082 14.0344 61.0738 14.0837C61.0371 14.1276 60.9945 14.1659 60.9472 14.1975C60.854 14.2506 60.7547 14.2917 60.6516 14.32C60.5126 14.358 60.3691 14.3761 60.2252 14.3736C59.9874 14.3876 59.7515 14.3237 59.5521 14.1913C59.4713 14.1296 59.4069 14.0484 59.3645 13.9552C59.3221 13.862 59.3031 13.7595 59.3092 13.657C59.304 13.5681 59.3182 13.4791 59.3507 13.3964C59.3832 13.3138 59.4334 13.2394 59.4975 13.1787C59.653 13.0549 59.8424 12.9829 60.0397 12.9725L60.6601 12.9036V12.8008C60.6652 12.7433 60.6563 12.6855 60.6342 12.6324C60.6121 12.5793 60.5775 12.5325 60.5335 12.4961C60.4297 12.4271 60.3071 12.3936 60.1833 12.4004C60.0675 12.4 59.9523 12.4173 59.8416 12.4516C59.7397 12.4827 59.6408 12.5228 59.546 12.5717C59.5163 12.5437 59.4907 12.5114 59.4702 12.476C59.4474 12.4373 59.4358 12.393 59.4365 12.3479C59.4373 12.3029 59.4504 12.2589 59.4744 12.221C59.5055 12.1806 59.5462 12.1489 59.5926 12.1287C59.6829 12.0841 59.7786 12.0519 59.8773 12.0331C59.9893 12.011 60.1031 12.0003 60.2172 12.001M60.2256 13.9828C60.3182 13.9846 60.4106 13.973 60.5 13.9483C60.5575 13.9342 60.6119 13.9093 60.6605 13.8751V13.2705L60.1795 13.3222C60.0705 13.3296 59.9648 13.3633 59.8712 13.4207C59.8369 13.4469 59.8097 13.4815 59.792 13.5212C59.7743 13.5609 59.7668 13.6045 59.77 13.6479C59.7682 13.6946 59.7771 13.741 59.7962 13.7834C59.8152 13.8259 59.8438 13.8632 59.8797 13.8924C59.9819 13.9607 60.1037 13.9923 60.2256 13.9823" fill="#CC0066"/>
<path d="M62.1216 13.7834C62.0457 13.6262 61.9536 13.4046 61.8453 13.1186C61.7371 12.8325 61.6337 12.5093 61.5352 12.149C61.5653 12.113 61.6019 12.0831 61.6429 12.061C61.6862 12.0368 61.7348 12.0243 61.7841 12.0246C61.8414 12.0218 61.8979 12.0387 61.9447 12.0724C61.9949 12.1186 62.0302 12.1791 62.0459 12.2461C62.1274 12.5034 62.2112 12.7572 62.2972 13.0076C62.3832 13.2579 62.4781 13.5161 62.582 13.782H62.5989C62.6438 13.679 62.6895 13.5596 62.7359 13.4237C62.7823 13.2879 62.8274 13.1434 62.871 12.9904C62.9146 12.8373 62.9562 12.6822 62.9957 12.5249C63.0353 12.3677 63.0704 12.2177 63.1011 12.0748C63.1297 12.0604 63.1593 12.0483 63.1896 12.0385C63.2252 12.0279 63.2622 12.0229 63.2993 12.0236C63.3578 12.0213 63.4156 12.0381 63.464 12.0715C63.4872 12.0898 63.5054 12.1137 63.5172 12.141C63.5289 12.1683 63.5338 12.1982 63.5314 12.2279C63.5245 12.3556 63.504 12.4821 63.4702 12.6053C63.4294 12.774 63.3767 12.9613 63.312 13.1673C63.2474 13.3733 63.1735 13.5806 63.0903 13.7892C63.0072 13.9981 62.9234 14.184 62.839 14.3469C62.7269 14.5732 62.5925 14.7873 62.4379 14.986C62.3997 15.0451 62.3493 15.0952 62.2904 15.133C62.2315 15.1707 62.1653 15.1951 62.0962 15.2046C62.0601 15.2067 62.0239 15.2014 61.9898 15.1889C61.9558 15.1764 61.9245 15.157 61.8981 15.1319C61.8488 15.0816 61.8159 15.0171 61.8039 14.9472C61.8591 14.8968 61.9113 14.8432 61.9602 14.7865C62.0164 14.7227 62.0727 14.6542 62.1292 14.5808C62.1857 14.5075 62.2398 14.4324 62.2915 14.3555C62.3406 14.2836 62.3836 14.2076 62.4201 14.1283C62.3651 14.108 62.3153 14.0753 62.2746 14.0327C62.2098 13.9576 62.1578 13.8721 62.1207 13.7796" fill="#CC0066"/>
<path d="M66.461 12.5031C66.3759 12.435 66.2692 12.4009 66.1611 12.4074C66.0803 12.407 66.0002 12.4233 65.9258 12.4552C65.8497 12.488 65.7798 12.5336 65.7187 12.5901C65.7244 12.617 65.7287 12.6441 65.7314 12.6714C65.7342 12.7001 65.7356 12.7288 65.7356 12.7571V14.293C65.7076 14.3042 65.6785 14.3128 65.649 14.3188C65.6096 14.3276 65.5693 14.3319 65.529 14.3317C65.46 14.3372 65.3914 14.3183 65.3346 14.2782C65.3117 14.2551 65.2942 14.2272 65.2833 14.1964C65.2724 14.1657 65.2683 14.1328 65.2715 14.1002V12.8087C65.2764 12.7526 65.2692 12.696 65.2502 12.643C65.2313 12.59 65.2011 12.5419 65.1619 12.5021C65.0768 12.434 64.9701 12.4 64.862 12.4064C64.7816 12.406 64.7018 12.4206 64.6267 12.4495C64.5616 12.4743 64.4994 12.5064 64.4412 12.5452V14.2954C64.4132 14.3066 64.3842 14.3152 64.3546 14.3212C64.3136 14.3302 64.2718 14.3345 64.2299 14.3341C64.1629 14.3389 64.0964 14.32 64.0416 14.2806C64.0186 14.2576 64.001 14.2297 63.99 14.1989C63.979 14.1681 63.9749 14.1352 63.9781 14.1026V12.5327C63.9749 12.4708 63.9888 12.4092 64.0181 12.3548C64.0534 12.3014 64.0984 12.2555 64.1508 12.2194C64.3687 12.0815 64.6199 12.0073 64.8766 12.0051C65.0048 12.0028 65.1323 12.0239 65.2532 12.0673C65.3575 12.1052 65.4516 12.1676 65.5276 12.2495C65.6161 12.1768 65.7149 12.1183 65.8208 12.0759C65.9479 12.0263 66.0833 12.0023 66.2195 12.0051C66.331 12.0044 66.4421 12.0205 66.5489 12.0529C66.6447 12.0812 66.7333 12.1302 66.8088 12.1964C66.8828 12.2641 66.9412 12.3476 66.9796 12.4409C67.0245 12.5532 67.0461 12.6737 67.0432 12.7948V14.2963C67.0123 14.3066 66.9809 14.3152 66.9491 14.3222C66.9097 14.3309 66.8694 14.3353 66.829 14.3351C66.7621 14.3398 66.6956 14.3208 66.6408 14.2815C66.6178 14.2585 66.6002 14.2306 66.5892 14.1998C66.5782 14.1691 66.5741 14.1362 66.5772 14.1036V12.8121C66.5823 12.7559 66.5751 12.6993 66.5561 12.6463C66.5372 12.5933 66.5069 12.5452 66.4675 12.5055" fill="#CC0066"/>
<path d="M68.0178 13.4404C68.0449 13.6002 68.1309 13.7436 68.2583 13.8412C68.3957 13.9332 68.558 13.9788 68.7224 13.9718C68.8385 13.9733 68.9539 13.9522 69.0622 13.9096C69.1506 13.8757 69.2349 13.8317 69.3136 13.7786C69.3521 13.799 69.3843 13.8298 69.4066 13.8676C69.429 13.9054 69.4406 13.9488 69.4402 13.9929C69.4397 14.0486 69.4187 14.1022 69.3813 14.1431C69.3363 14.1931 69.2817 14.2333 69.2209 14.2612C69.1457 14.2968 69.0667 14.3234 68.9855 14.3406C68.7325 14.3928 68.4705 14.3763 68.2258 14.2928C68.0897 14.2443 67.9658 14.1659 67.8629 14.0632C67.758 13.9566 67.6776 13.8277 67.6276 13.6858C67.5701 13.5198 67.5422 13.3447 67.5452 13.1687C67.542 12.9973 67.5684 12.8267 67.6233 12.6645C67.6698 12.5294 67.7439 12.4058 67.8408 12.302C67.9332 12.2051 68.0446 12.1291 68.1679 12.0791C68.2948 12.0273 68.4303 12.0012 68.5671 12.002C68.7008 12.0002 68.8335 12.0257 68.9572 12.0771C69.0707 12.1245 69.1736 12.1947 69.2596 12.2835C69.3456 12.3724 69.4129 12.4781 69.4576 12.5942C69.5064 12.7198 69.5306 12.8538 69.5291 12.9888C69.5319 13.0204 69.5285 13.0523 69.519 13.0825C69.5095 13.1127 69.4943 13.1407 69.4741 13.1649C69.4309 13.2053 69.3761 13.2308 69.3178 13.2376L68.0178 13.4404ZM68.5666 12.3881C68.4901 12.3863 68.4142 12.4012 68.3439 12.4319C68.2737 12.4626 68.2108 12.5084 68.1595 12.566C68.0431 12.7068 67.9822 12.8864 67.9886 13.0702L69.0858 12.9028C69.0781 12.7683 69.0269 12.6402 68.9403 12.5383C68.8928 12.4868 68.8348 12.4467 68.7702 12.4207C68.7057 12.3947 68.6359 12.3836 68.5666 12.3881Z" fill="#CC0066"/>
<path d="M71.2938 12.516C71.1999 12.4388 71.0812 12.3998 70.9606 12.4065C70.866 12.405 70.7718 12.4196 70.6819 12.4495C70.6089 12.4748 70.5383 12.5068 70.471 12.5452V14.2954C70.443 14.3066 70.414 14.3153 70.3844 14.3213C70.3435 14.3302 70.3016 14.3345 70.2597 14.3342C70.1927 14.3389 70.1262 14.32 70.0714 14.2806C70.0484 14.2576 70.0308 14.2297 70.0198 14.199C70.0088 14.1682 70.0047 14.1353 70.0079 14.1027V12.5328C70.0049 12.4709 70.0188 12.4093 70.0479 12.3548C70.0833 12.3014 70.1285 12.2555 70.1811 12.2195C70.2849 12.1601 70.3946 12.112 70.5083 12.076C70.6549 12.0283 70.8081 12.0052 70.962 12.0076C71.2049 11.9935 71.4448 12.0672 71.6393 12.2156C71.7249 12.2943 71.7917 12.3919 71.8345 12.5008C71.8773 12.6097 71.8951 12.7272 71.8864 12.8442V14.2983C71.8567 14.309 71.8264 14.3176 71.7956 14.3241C71.7548 14.3331 71.7131 14.3374 71.6713 14.3371C71.6043 14.3418 71.5378 14.3228 71.483 14.2835C71.4601 14.2605 71.4426 14.2326 71.4316 14.2018C71.4207 14.171 71.4167 14.1381 71.4199 14.1055V12.8619C71.4252 12.7994 71.417 12.7365 71.3959 12.6776C71.3747 12.6187 71.3412 12.5652 71.2976 12.5208" fill="#CC0066"/>
<path d="M73.064 13.8934C73.1422 13.9448 73.2346 13.9696 73.3276 13.9642C73.3819 13.9637 73.4359 13.9558 73.4881 13.9407C73.5393 13.9271 73.5889 13.9077 73.6359 13.8828C73.6564 13.9099 73.6749 13.9385 73.691 13.9685C73.7186 14.0242 73.7242 14.0886 73.7067 14.1484C73.6892 14.2082 73.6499 14.259 73.5968 14.2904C73.488 14.3518 73.3642 14.38 73.2401 14.3717C73.0493 14.3816 72.861 14.3249 72.7063 14.211C72.6348 14.1452 72.5795 14.0634 72.5447 13.972C72.5099 13.8807 72.4966 13.7823 72.5058 13.6848V11.4586C72.5365 11.4478 72.568 11.4391 72.5999 11.4328C72.6416 11.424 72.684 11.4197 72.7265 11.4199C72.7925 11.4144 72.8583 11.4327 72.9124 11.4716C72.9343 11.4948 72.9509 11.5225 72.9612 11.5529C72.9714 11.5833 72.975 11.6156 72.9717 11.6476V12.1192H73.6641C73.678 12.1452 73.6893 12.1724 73.698 12.2005C73.7095 12.2365 73.7153 12.2742 73.715 12.312C73.715 12.4466 73.66 12.5137 73.5502 12.5134H72.9717V13.6504C72.967 13.6955 72.973 13.7412 72.9894 13.7834C73.0058 13.8257 73.0321 13.8632 73.0659 13.8929" fill="#CC0066"/>
<path d="M75.7466 13.6892C75.7508 13.7843 75.7329 13.8791 75.6944 13.966C75.6559 14.0528 75.5978 14.1292 75.5249 14.189C75.3371 14.3228 75.1098 14.3872 74.881 14.3713C74.772 14.3721 74.6632 14.362 74.5562 14.3412C74.4701 14.3253 74.3863 14.2979 74.3072 14.2598C74.2458 14.2303 74.1913 14.1879 74.1472 14.1355C74.1093 14.0915 74.0883 14.0351 74.0879 13.9767C74.0877 13.931 74.0986 13.886 74.1194 13.8456C74.1408 13.8036 74.1734 13.7686 74.2136 13.7447C74.3025 13.8059 74.3971 13.8583 74.496 13.9011C74.6136 13.9504 74.7401 13.9745 74.8674 13.9719C74.9749 13.979 75.0821 13.9537 75.1756 13.8992C75.2095 13.8764 75.2371 13.8451 75.2556 13.8083C75.2741 13.7715 75.2828 13.7305 75.281 13.6892C75.2829 13.654 75.2774 13.6188 75.2651 13.5858C75.2528 13.5529 75.2339 13.5229 75.2095 13.4978C75.1479 13.4434 75.0737 13.4057 74.9939 13.3883L74.6899 13.3027C74.5248 13.2646 74.3721 13.184 74.2465 13.0688C74.1975 13.0143 74.1597 12.9503 74.1355 12.8807C74.1112 12.8112 74.101 12.7373 74.1053 12.6636C74.1049 12.574 74.1236 12.4854 74.1603 12.4039C74.1968 12.3227 74.2509 12.2509 74.3185 12.1939C74.3955 12.131 74.4838 12.0837 74.5783 12.0547C74.6931 12.0188 74.8127 12.0013 74.9327 12.003C75.0319 12.002 75.131 12.0113 75.2284 12.0308C75.3062 12.0463 75.382 12.0709 75.4543 12.104C75.5113 12.1291 75.5619 12.1672 75.6021 12.2154C75.6357 12.2555 75.6543 12.3063 75.6548 12.3589C75.6558 12.4039 75.6449 12.4483 75.6233 12.4876C75.6037 12.5228 75.5771 12.5535 75.5451 12.5775C75.468 12.5331 75.3876 12.4951 75.3046 12.4637C75.197 12.4216 75.0824 12.4005 74.9671 12.4015C74.8642 12.3955 74.7618 12.4193 74.6715 12.4699C74.6435 12.4878 74.6196 12.5117 74.6017 12.54C74.5837 12.5683 74.5721 12.6002 74.5676 12.6336C74.5631 12.6669 74.5659 12.7008 74.5757 12.733C74.5855 12.7651 74.6022 12.7947 74.6245 12.8196C74.6835 12.8712 74.755 12.9061 74.8316 12.9205L75.0933 12.9894C75.2772 13.0329 75.4477 13.1222 75.5894 13.2491C75.6436 13.3077 75.6856 13.3768 75.7128 13.4524C75.74 13.528 75.7518 13.6084 75.7475 13.6887" fill="#CC0066"/>
<path d="M11.3203 6.94336V15.3176C11.3203 15.8658 11.1548 16.4008 10.8462 16.8504C10.5375 17.3 10.1006 17.6425 9.5943 17.8317L2.0793 20.6405C1.96102 20.6848 1.83395 20.6994 1.70891 20.6831C1.58388 20.6668 1.46458 20.62 1.36118 20.5467C1.25777 20.4734 1.17333 20.3758 1.11503 20.2622C1.05674 20.1486 1.02632 20.0224 1.02637 19.8943V12.7886C1.02661 12.3613 1.15561 11.9443 1.39602 11.5937C1.63643 11.243 1.97672 10.9757 2.37112 10.8274L9.31707 8.21669C10.4133 7.76562 10.8416 7.48962 11.3208 6.94575" fill="white"/>
<path d="M17.9273 9.06161C17.9194 9.37298 17.7955 9.66969 17.5805 9.8917C17.3655 10.1137 17.0756 10.2444 16.7694 10.2574H15.1945C15.1036 10.2596 15.0157 10.2251 14.9499 10.1614C14.8842 10.0977 14.846 10.0101 14.8438 9.91783V6.43172C14.8431 6.38548 14.8515 6.33957 14.8686 6.29671C14.8857 6.25385 14.9111 6.21491 14.9433 6.18221C14.9755 6.14951 15.0138 6.12371 15.056 6.10634C15.0981 6.08897 15.1433 6.08039 15.1888 6.0811H16.7087C16.936 6.09331 17.155 6.17229 17.339 6.30844C17.5231 6.44459 17.6643 6.63207 17.7456 6.84816C17.8269 7.06425 17.8448 7.29967 17.7971 7.52589C17.7494 7.7521 17.6381 7.95939 17.4768 8.12264C17.6158 8.23536 17.7284 8.3781 17.8063 8.5405C17.8843 8.70291 17.9253 8.88091 17.9273 9.06161ZM15.5122 7.81793L16.631 7.80645C16.7669 7.80191 16.896 7.74502 16.9922 7.64731C17.0883 7.5496 17.1443 7.41839 17.1487 7.28029C17.1479 7.14745 17.0964 7.02012 17.005 6.92516C16.9136 6.83021 16.7894 6.77505 16.6588 6.77133H15.5122V7.81793ZM17.2377 9.06161C17.2284 8.92084 17.168 8.7886 17.0683 8.69044C16.9686 8.59229 16.8366 8.53518 16.6978 8.53018H15.5399V9.5763H16.7308C16.8637 9.57199 16.9901 9.51638 17.0842 9.42077C17.1783 9.32517 17.233 9.19674 17.2372 9.06161" fill="white"/>
<path d="M20.6671 8.53014H20.1607V9.91731C20.1587 10.0086 20.1213 10.0954 20.0567 10.1589C19.9921 10.2224 19.9055 10.2575 19.8156 10.2565C19.7272 10.2562 19.6424 10.2204 19.5798 10.1569C19.5172 10.0933 19.4818 10.0072 19.4814 9.91731V6.4202C19.4843 6.32917 19.5219 6.24284 19.5863 6.17952C19.6507 6.11621 19.7368 6.08089 19.8265 6.08106H21.0451C21.3584 6.08801 21.6572 6.21686 21.8798 6.44104C22.1024 6.66522 22.2319 6.96765 22.2416 7.28599C22.2357 7.54272 22.1533 7.79161 22.0052 7.99969C21.8571 8.20777 21.6503 8.36522 21.4122 8.45121L22.186 9.73506C22.2311 9.81413 22.2442 9.90793 22.2224 9.9966C22.2006 10.0853 22.1457 10.1618 22.0693 10.2101C22.0163 10.2396 21.957 10.2552 21.8966 10.2555C21.8386 10.2554 21.7815 10.2403 21.7309 10.2116C21.6802 10.1829 21.6376 10.1415 21.6071 10.0914L20.6671 8.53014ZM21.569 7.29125C21.5626 7.14939 21.5021 7.01565 21.4002 6.91846C21.2983 6.82127 21.1631 6.7683 21.0234 6.77082H20.1607V7.8399H21.0234C21.1672 7.84003 21.3051 7.78245 21.4073 7.6797C21.5095 7.57694 21.5676 7.43732 21.569 7.29125Z" fill="white"/>
<path d="M26.1482 10.256C25.6055 10.2501 25.0871 10.026 24.7064 9.63282C24.3257 9.23959 24.1137 8.7092 24.1167 8.15759C24.1238 7.75147 24.2487 7.35651 24.4758 7.02227C24.7029 6.68802 25.0221 6.42938 25.3933 6.27879C25.7645 6.1282 26.1712 6.09237 26.5623 6.17581C26.9535 6.25924 27.3117 6.45821 27.592 6.74776C27.8723 7.03731 28.0623 7.40453 28.138 7.80336C28.2137 8.20219 28.1718 8.61486 28.0176 8.98959C27.8633 9.36432 27.6037 9.68442 27.2711 9.90973C26.9385 10.135 26.5479 10.2555 26.1482 10.256ZM24.7734 8.15759C24.7738 8.43452 24.8551 8.70509 25.0069 8.93508C25.1587 9.16507 25.3742 9.34415 25.6261 9.44967C25.8781 9.55519 26.1551 9.5824 26.4223 9.52788C26.6895 9.47335 26.9347 9.33953 27.1271 9.14334C27.3194 8.94716 27.4501 8.69741 27.5028 8.4257C27.5554 8.15398 27.5276 7.87251 27.4228 7.61686C27.3181 7.36122 27.141 7.1429 26.9142 6.9895C26.6873 6.83611 26.4207 6.75454 26.1482 6.75511C25.7838 6.75874 25.4354 6.90784 25.1782 7.17022C24.9209 7.4326 24.7756 7.78723 24.7734 8.15759Z" fill="white"/>
<path d="M32.9833 10.2281C32.9402 10.2451 32.8942 10.2532 32.848 10.2519C32.8018 10.2505 32.7563 10.2397 32.7142 10.2202C32.6722 10.2007 32.6344 10.1728 32.6032 10.1381C32.572 10.1035 32.5479 10.0628 32.5324 10.0185L31.591 7.43553L30.6449 10.0185C30.6305 10.0629 30.6073 10.1038 30.5767 10.1387C30.5461 10.1736 30.5087 10.2018 30.467 10.2214C30.4253 10.2411 30.38 10.2518 30.334 10.2529C30.288 10.2541 30.2423 10.2456 30.1996 10.2281C30.1558 10.2128 30.1154 10.1886 30.081 10.1569C30.0466 10.1253 30.019 10.0868 29.9997 10.0439C29.9804 10.0011 29.9699 9.95466 29.9688 9.90753C29.9678 9.86039 29.9762 9.81354 29.9935 9.76981L31.2512 6.30235C31.2776 6.23307 31.3243 6.17369 31.385 6.13221C31.4457 6.09073 31.5174 6.06914 31.5905 6.07036C31.6633 6.07071 31.7344 6.09293 31.7947 6.13421C31.8551 6.17549 31.9022 6.23399 31.9299 6.30235L33.1876 9.76981C33.2049 9.81351 33.2133 9.86034 33.2123 9.90745C33.2113 9.95455 33.2008 10.001 33.1816 10.0438C33.1623 10.0867 33.1347 10.1251 33.1004 10.1568C33.066 10.1885 33.0257 10.2127 32.9819 10.2281" fill="white"/>
<path d="M34.5918 9.91723V6.43781C34.5939 6.34855 34.6298 6.26356 34.6919 6.20042C34.754 6.13729 34.8377 6.10085 34.9255 6.09867H35.7549C36.0536 6.09689 36.3493 6.15847 36.6233 6.27948C36.8866 6.39686 37.1219 6.57044 37.3133 6.78843C37.5043 7.00884 37.6469 7.26815 37.7314 7.54903C37.8159 7.82991 37.8404 8.12588 37.8033 8.41716C37.7419 8.92298 37.5012 9.3887 37.1262 9.72708C36.7512 10.0655 36.2677 10.2533 35.7662 10.2554H34.926C34.8381 10.2532 34.7545 10.2168 34.6924 10.1537C34.6303 10.0905 34.5944 10.0055 34.5923 9.91627M37.1302 8.33776C37.1596 8.14241 37.1465 7.94288 37.0916 7.75327C37.0368 7.56366 36.9417 7.38859 36.813 7.24046C36.6799 7.09005 36.5166 6.97034 36.3342 6.8894C36.1518 6.80846 35.9544 6.76817 35.7553 6.77121H35.2602V9.57665H35.7666C36.1042 9.57682 36.4301 9.45057 36.6819 9.22203C36.9337 8.99349 37.0938 8.67869 37.1316 8.33776" fill="white"/>
<path d="M41.109 9.67342C40.9424 9.92914 40.6858 10.1103 40.3918 10.1797C40.0979 10.2491 39.7889 10.2014 39.5284 10.0465C39.4486 9.9973 39.3895 9.91968 39.3628 9.82872C39.3361 9.73776 39.3437 9.63996 39.3839 9.55431C39.4444 9.48334 39.5289 9.43812 39.6207 9.42766C39.7124 9.4172 39.8047 9.44227 39.8791 9.49787C39.9945 9.56152 40.1293 9.57826 40.2564 9.54469C40.3834 9.51112 40.4932 9.42976 40.5635 9.31706C40.6023 9.25841 40.6294 9.19256 40.6431 9.12327C40.6568 9.05398 40.657 8.98262 40.6436 8.91327C40.6302 8.84392 40.6034 8.77794 40.5649 8.7191C40.5263 8.66026 40.4768 8.60972 40.419 8.57038C40.1465 8.39483 40.1366 8.38957 39.8735 8.21402C39.613 8.04223 39.4302 7.77231 39.3655 7.46364C39.3008 7.15498 39.3594 6.83284 39.5284 6.56806C39.6968 6.31445 39.9533 6.13497 40.2465 6.06567C40.5397 5.99637 40.8478 6.04239 41.109 6.19449C41.1863 6.24035 41.2432 6.31463 41.2681 6.40197C41.293 6.4893 41.2839 6.58302 41.2427 6.66373C41.1875 6.73769 41.1064 6.78721 41.0162 6.802C40.926 6.81678 40.8336 6.7957 40.7583 6.74313C40.6379 6.68083 40.4986 6.6678 40.369 6.70673C40.2394 6.74567 40.1294 6.8336 40.0617 6.95243C39.994 7.07126 39.9737 7.21195 40.005 7.34555C40.0362 7.47915 40.1167 7.59549 40.2298 7.67063C40.371 7.76103 40.371 7.76103 40.7697 8.02699C40.8984 8.11233 41.0093 8.22263 41.096 8.35158C41.1827 8.48052 41.2436 8.62558 41.2752 8.77846C41.3067 8.93133 41.3082 9.08902 41.2797 9.24251C41.2512 9.39599 41.1932 9.54274 41.109 9.67342Z" fill="white"/>
<path d="M44.8669 8.52083C44.5557 8.5433 44.2434 8.54713 43.9317 8.53231V9.91949C43.9297 10.0108 43.8924 10.0976 43.8278 10.1611C43.7632 10.2246 43.6765 10.2597 43.5867 10.2586C43.4983 10.2583 43.4136 10.2224 43.3511 10.1589C43.2886 10.0954 43.2533 10.0093 43.253 9.91949V6.43194C43.2524 6.38724 43.2606 6.34288 43.2772 6.30147C43.2937 6.26007 43.3183 6.22245 43.3494 6.19084C43.3805 6.15923 43.4175 6.13428 43.4583 6.11744C43.499 6.1006 43.5427 6.09222 43.5867 6.0928H44.8335C45.1442 6.10264 45.4392 6.23398 45.657 6.45945C45.8747 6.68492 45.9984 6.9871 46.0022 7.30299C45.9972 7.61332 45.8778 7.91043 45.6675 8.13558C45.4573 8.36072 45.1716 8.49752 44.8669 8.51892M44.7893 6.77156H43.9322V7.84064H44.7893C44.9327 7.83978 45.0701 7.78188 45.1721 7.67934C45.2741 7.57679 45.3325 7.43775 45.3348 7.29199C45.3275 7.15047 45.2667 7.01729 45.165 6.92029C45.0633 6.8233 44.9287 6.77001 44.7893 6.77156Z" fill="white"/>
<path d="M47.7827 9.91688V6.4212C47.7831 6.33137 47.8184 6.24533 47.8809 6.18181C47.9434 6.11829 48.028 6.08244 48.1164 6.08206H50.1216C50.2115 6.0809 50.2982 6.1159 50.3628 6.17943C50.4274 6.24295 50.4647 6.32985 50.4666 6.4212C50.4661 6.51403 50.4296 6.60293 50.365 6.66857C50.3004 6.73422 50.2129 6.77132 50.1216 6.77182H48.4629V7.8409H49.7154C49.7594 7.84032 49.803 7.8487 49.8437 7.86554C49.8845 7.88238 49.9215 7.90733 49.9526 7.93894C49.9837 7.97055 50.0083 8.00817 50.0248 8.04958C50.0414 8.09099 50.0496 8.13534 50.0491 8.18004C50.0497 8.22478 50.0415 8.26919 50.025 8.31065C50.0084 8.35212 49.9839 8.38979 49.9528 8.42145C49.9217 8.45311 49.8846 8.47811 49.8438 8.49498C49.8031 8.51185 49.7594 8.52024 49.7154 8.51966H48.4629V9.56578H50.1216C50.2129 9.56628 50.3004 9.60338 50.365 9.66903C50.4296 9.73468 50.4661 9.82356 50.4666 9.9164C50.4646 10.0077 50.4273 10.0945 50.3627 10.158C50.2981 10.2215 50.2114 10.2566 50.1216 10.2555H48.1179C48.0295 10.2552 47.9448 10.2193 47.8823 10.1558C47.8198 10.0923 47.7845 10.0062 47.7841 9.9164" fill="white"/>
<path d="M55.7035 9.80372C55.3492 10.0902 54.9095 10.2457 54.4567 10.2447C53.912 10.2447 53.3896 10.0248 53.0044 9.63342C52.6192 9.24199 52.4028 8.7111 52.4028 8.15753C52.4028 7.60397 52.6192 7.07307 53.0044 6.68164C53.3896 6.29021 53.912 6.07031 54.4567 6.07031C54.8267 6.07082 55.1892 6.17671 55.503 6.37597C55.5425 6.3968 55.5773 6.42552 55.6056 6.46041C55.6338 6.4953 55.6548 6.53563 55.6673 6.57898C55.6798 6.62233 55.6835 6.66779 55.6782 6.71264C55.673 6.75749 55.6589 6.8008 55.6367 6.83996C55.6141 6.87873 55.5839 6.91236 55.5479 6.93872C55.512 6.96509 55.471 6.98364 55.4277 6.9932C55.3844 7.00276 55.3395 7.00314 55.2961 6.9943C55.2526 6.98546 55.2113 6.9676 55.175 6.94184C54.9579 6.81077 54.7097 6.7423 54.4572 6.74381C54.2766 6.74381 54.0979 6.77996 53.9312 6.85018C53.7644 6.92041 53.6129 7.02335 53.4853 7.1531C53.3577 7.28286 53.2565 7.4369 53.1875 7.60641C53.1185 7.77592 53.0831 7.95759 53.0832 8.14103C53.077 8.40376 53.1438 8.66294 53.276 8.88881C53.4082 9.11468 53.6004 9.29809 53.8305 9.41797C54.0607 9.53785 54.3194 9.58934 54.577 9.56654C54.8346 9.54373 55.0807 9.44755 55.287 9.28903C55.3193 9.26086 55.3569 9.23952 55.3975 9.22625C55.438 9.21298 55.4808 9.20805 55.5232 9.21175C55.5657 9.21544 55.607 9.22769 55.6447 9.24778C55.6825 9.26786 55.7159 9.29538 55.7431 9.32873C55.7997 9.39706 55.8274 9.4854 55.8201 9.57443C55.8128 9.66345 55.771 9.7459 55.704 9.80372" fill="white"/>
<path d="M60.3387 6.41534C60.3387 6.45968 60.3301 6.50357 60.3132 6.54448C60.2964 6.58539 60.2718 6.62249 60.2407 6.65364C60.2097 6.68479 60.1729 6.70936 60.1324 6.72593C60.0919 6.74251 60.0486 6.75074 60.005 6.75017H59.1874V9.91771C59.1874 10.007 59.1525 10.0926 59.0904 10.1557C59.0283 10.2188 58.9441 10.2542 58.8563 10.2542C58.7685 10.2542 58.6842 10.2188 58.6221 10.1557C58.56 10.0926 58.5252 10.007 58.5252 9.91771V6.74922H57.7071C57.6193 6.74922 57.5351 6.71377 57.473 6.65066C57.4109 6.58755 57.376 6.50196 57.376 6.41271C57.376 6.32346 57.4109 6.23787 57.473 6.17476C57.5351 6.11165 57.6193 6.0762 57.7071 6.0762H60.0055C60.0495 6.07562 60.0931 6.084 60.1339 6.10084C60.1746 6.11768 60.2116 6.14263 60.2427 6.17424C60.2738 6.20585 60.2984 6.24347 60.315 6.28487C60.3315 6.32628 60.3393 6.37064 60.3387 6.41534Z" fill="white"/>
<path d="M63.1944 8.53014H62.688V9.91731C62.686 10.0086 62.6487 10.0954 62.5841 10.1589C62.5195 10.2224 62.4328 10.2575 62.343 10.2565C62.2545 10.2562 62.1697 10.2204 62.1071 10.1569C62.0445 10.0933 62.0092 10.0072 62.0088 9.91731V6.4202C62.0116 6.32917 62.0492 6.24284 62.1136 6.17952C62.178 6.11621 62.2642 6.08089 62.3538 6.08106H63.5729C63.8862 6.08801 64.185 6.21686 64.4076 6.44104C64.6302 6.66522 64.7597 6.96765 64.7694 7.28599C64.7636 7.54272 64.6812 7.79161 64.5331 7.99969C64.3849 8.20777 64.1781 8.36522 63.94 8.45121L64.7138 9.73506C64.7589 9.81418 64.7718 9.90803 64.75 9.9967C64.7281 10.0854 64.6731 10.1619 64.5966 10.2101C64.5437 10.2396 64.4843 10.2553 64.4239 10.2555C64.3659 10.2554 64.3088 10.2403 64.2582 10.2116C64.2075 10.1829 64.1649 10.1415 64.1344 10.0914L63.1944 8.53014ZM64.0963 7.29125C64.0899 7.14939 64.0294 7.01565 63.9275 6.91846C63.8256 6.82127 63.6905 6.7683 63.5508 6.77082H62.688V7.8399H63.5508C63.6945 7.84003 63.8325 7.78245 63.9346 7.6797C64.0368 7.57694 64.0949 7.43732 64.0963 7.29125Z" fill="white"/>
<path d="M69.6511 6.41543V8.72867C69.6546 8.93148 69.6184 9.13298 69.5445 9.3214C69.4705 9.50981 69.3604 9.68138 69.2205 9.82608C69.0806 9.97077 68.9138 10.0857 68.7297 10.1642C68.5456 10.2426 68.348 10.283 68.1484 10.283C67.9488 10.283 67.7512 10.2426 67.5671 10.1642C67.3831 10.0857 67.2162 9.97077 67.0763 9.82608C66.9364 9.68138 66.8263 9.50981 66.7524 9.3214C66.6785 9.13298 66.6422 8.93148 66.6457 8.72867V6.41543C66.6457 6.3239 66.6815 6.23612 66.7452 6.1714C66.8089 6.10668 66.8952 6.07031 66.9853 6.07031C67.0754 6.07031 67.1618 6.10668 67.2255 6.1714C67.2892 6.23612 67.3249 6.3239 67.3249 6.41543V8.72867C67.3249 8.9522 67.4123 9.16657 67.5679 9.32463C67.7234 9.48269 67.9343 9.57149 68.1543 9.57149C68.3742 9.57149 68.5852 9.48269 68.7407 9.32463C68.8963 9.16657 68.9837 8.9522 68.9837 8.72867V6.41543C68.9831 6.37074 68.9913 6.32638 69.0079 6.28497C69.0245 6.24356 69.049 6.20594 69.0801 6.17434C69.1112 6.14273 69.1482 6.11777 69.189 6.10093C69.2297 6.08409 69.2734 6.07572 69.3174 6.07629C69.3614 6.07572 69.405 6.08409 69.4457 6.10093C69.4865 6.11777 69.5235 6.14273 69.5546 6.17434C69.5857 6.20594 69.6103 6.24356 69.6268 6.28497C69.6434 6.32638 69.6517 6.37074 69.6511 6.41543Z" fill="white"/>
<path d="M75.6451 9.84345C75.6572 9.88507 75.6607 9.92874 75.6556 9.97181C75.6506 10.0149 75.637 10.0565 75.6156 10.094C75.5943 10.1316 75.5656 10.1644 75.5315 10.1904C75.4973 10.2164 75.4583 10.235 75.4168 10.2452H75.3999C75.3942 10.2452 75.3942 10.2452 75.389 10.2567H75.35C75.2721 10.2561 75.1969 10.2282 75.1369 10.1777C75.0769 10.1273 75.0358 10.0574 75.0205 9.97977L74.564 7.71724L73.7238 10.008C73.7014 10.0771 73.6582 10.1373 73.6002 10.18C73.5422 10.2227 73.4724 10.2457 73.4009 10.2457C73.3293 10.2457 73.2595 10.2227 73.2015 10.18C73.1436 10.1373 73.1003 10.0771 73.078 10.008L72.3376 7.82487L71.9479 9.97977C71.9356 10.0593 71.8954 10.1316 71.8349 10.1835C71.7744 10.2354 71.6975 10.2634 71.6184 10.2625C71.6014 10.2625 71.5793 10.2567 71.5628 10.2567C71.5181 10.2501 71.4755 10.2335 71.4379 10.208C71.4004 10.1825 71.3689 10.1488 71.3458 10.1094C71.319 10.0747 71.3001 10.0344 71.2905 9.9914C71.2808 9.94838 71.2808 9.90371 71.2903 9.86066L71.8636 6.35399C71.8779 6.27765 71.9168 6.20836 71.9743 6.15713C72.0318 6.1059 72.1045 6.07569 72.1809 6.07129H72.2086C72.2804 6.07125 72.3504 6.09439 72.4085 6.13737C72.4665 6.18036 72.5096 6.24097 72.5315 6.31046L73.4107 8.82746L74.3291 6.29898C74.3505 6.23133 74.3931 6.17263 74.4504 6.1318C74.5076 6.09097 74.5764 6.07023 74.6463 6.07272H74.6632C74.7392 6.07323 74.8125 6.10148 74.8697 6.15232C74.9269 6.20316 74.9642 6.27321 74.9748 6.34968L75.6451 9.84345Z" fill="white"/>
</g>
</svg>
