<svg width="185" height="32" viewBox="0 0 185 32" fill="none" xmlns="http://www.w3.org/2000/svg">
<path d="M30.2472 3.17145H23.8212C23.6111 3.17649 23.4021 3.13921 23.2066 3.06179C23.011 2.98438 22.8328 2.8684 22.6824 2.72067C22.532 2.57295 22.4125 2.39646 22.3309 2.20159C22.2494 2.00672 22.2074 1.7974 22.2074 1.58595C22.2074 1.3745 22.2494 1.16519 22.3309 0.970317C22.4125 0.775448 22.532 0.598959 22.6824 0.451233C22.8328 0.303507 23.011 0.187526 23.2066 0.110112C23.4021 0.0326973 23.6111 -0.00458815 23.8212 0.000450319H30.2472C30.4573 -0.00458815 30.6664 0.0326973 30.8619 0.110112C31.0575 0.187526 31.2357 0.303507 31.3861 0.451233C31.5364 0.598959 31.6559 0.775448 31.7375 0.970317C31.8191 1.16519 31.8611 1.3745 31.8611 1.58595C31.8611 1.7974 31.8191 2.00672 31.7375 2.20159C31.6559 2.39646 31.5364 2.57295 31.3861 2.72067C31.2357 2.8684 31.0575 2.98438 30.8619 3.06179C30.6664 3.13921 30.4573 3.17649 30.2472 3.17145Z" fill="#1D365A"/>
<path d="M33.4376 7.97614H23.8223C23.6122 7.98118 23.4032 7.9439 23.2077 7.86648C23.0121 7.78907 22.8339 7.67309 22.6835 7.52536C22.5331 7.37763 22.4136 7.20115 22.332 7.00628C22.2505 6.81141 22.2085 6.60209 22.2085 6.39064C22.2085 6.17919 22.2505 5.96987 22.332 5.775C22.4136 5.58014 22.5331 5.40365 22.6835 5.25592C22.8339 5.10819 23.0121 4.99221 23.2077 4.9148C23.4032 4.83738 23.6122 4.8001 23.8223 4.80514H33.4376C33.6477 4.8001 33.8567 4.83738 34.0523 4.9148C34.2479 4.99221 34.4261 5.10819 34.5765 5.25592C34.7268 5.40365 34.8463 5.58014 34.9279 5.775C35.0095 5.96987 35.0515 6.17919 35.0515 6.39064C35.0515 6.60209 35.0095 6.81141 34.9279 7.00628C34.8463 7.20115 34.7268 7.37763 34.5765 7.52536C34.4261 7.67309 34.2479 7.78907 34.0523 7.86648C33.8567 7.9439 33.6477 7.98118 33.4376 7.97614Z" fill="#1D365A"/>
<path d="M36.6052 12.7807H23.822C23.4106 12.7708 23.0193 12.5995 22.7318 12.3032C22.4443 12.0069 22.2833 11.6093 22.2833 11.1952C22.2833 10.7811 22.4443 10.3835 22.7318 10.0872C23.0193 9.79095 23.4106 9.61957 23.822 9.6097H36.6052C36.8153 9.60466 37.0243 9.64195 37.2199 9.71936C37.4155 9.79678 37.5937 9.91276 37.744 10.0605C37.8944 10.2082 38.0139 10.3847 38.0954 10.5796C38.177 10.7744 38.2191 10.9838 38.2191 11.1952C38.2191 11.4067 38.177 11.616 38.0954 11.8108C38.0139 12.0057 37.8944 12.1822 37.744 12.3299C37.5937 12.4776 37.4155 12.5936 37.2199 12.671C37.0243 12.7485 36.8153 12.7857 36.6052 12.7807Z" fill="#1D365A"/>
<path d="M30.2472 22.3901H23.8212C23.6111 22.3952 23.4021 22.3579 23.2066 22.2805C23.011 22.2031 22.8328 22.0871 22.6824 21.9394C22.532 21.7916 22.4125 21.6151 22.3309 21.4203C22.2494 21.2254 22.2074 21.0161 22.2074 20.8046C22.2074 20.5932 22.2494 20.3839 22.3309 20.189C22.4125 19.9941 22.532 19.8177 22.6824 19.6699C22.8328 19.5222 23.011 19.4062 23.2066 19.3288C23.4021 19.2514 23.6111 19.2141 23.8212 19.2191H30.2472C30.4573 19.2141 30.6664 19.2514 30.8619 19.3288C31.0575 19.4062 31.2357 19.5222 31.3861 19.6699C31.5364 19.8177 31.6559 19.9941 31.7375 20.189C31.8191 20.3839 31.8611 20.5932 31.8611 20.8046C31.8611 21.0161 31.8191 21.2254 31.7375 21.4203C31.6559 21.6151 31.5364 21.7916 31.3861 21.9394C31.2357 22.0871 31.0575 22.2031 30.8619 22.2805C30.6664 22.3579 30.4573 22.3952 30.2472 22.3901Z" fill="#1D365A"/>
<path d="M28.6527 27.1939H23.819C23.6089 27.1989 23.4 27.1617 23.2044 27.0842C23.0088 27.0068 22.8306 26.8909 22.6802 26.7431C22.5299 26.5954 22.4104 26.4189 22.3288 26.224C22.2472 26.0292 22.2052 25.8199 22.2052 25.6084C22.2052 25.397 22.2472 25.1876 22.3288 24.9928C22.4104 24.7979 22.5299 24.6214 22.6802 24.4737C22.8306 24.326 23.0088 24.21 23.2044 24.1326C23.4 24.0552 23.6089 24.0179 23.819 24.0229H28.6527C28.8628 24.0179 29.0717 24.0552 29.2673 24.1326C29.4629 24.21 29.6411 24.326 29.7915 24.4737C29.9418 24.6214 30.0613 24.7979 30.1429 24.9928C30.2245 25.1876 30.2665 25.397 30.2665 25.6084C30.2665 25.8199 30.2245 26.0292 30.1429 26.224C30.0613 26.4189 29.9418 26.5954 29.7915 26.7431C29.6411 26.8909 29.4629 27.0068 29.2673 27.0842C29.0717 27.1617 28.8628 27.1989 28.6527 27.1939Z" fill="#1D365A"/>
<path d="M19.0983 3.17145H15.8624C15.6523 3.17649 15.4433 3.13921 15.2477 3.06179C15.0522 2.98438 14.874 2.8684 14.7236 2.72067C14.5732 2.57295 14.4538 2.39646 14.3722 2.20159C14.2906 2.00672 14.2486 1.7974 14.2486 1.58595C14.2486 1.3745 14.2906 1.16519 14.3722 0.970317C14.4538 0.775448 14.5732 0.598959 14.7236 0.451233C14.874 0.303507 15.0522 0.187526 15.2477 0.110112C15.4433 0.0326973 15.6523 -0.00458815 15.8624 0.000450319H19.0983C19.3084 -0.00458815 19.5174 0.0326973 19.713 0.110112C19.9085 0.187526 20.0867 0.303507 20.2371 0.451233C20.3875 0.598959 20.5069 0.775448 20.5885 0.970317C20.6701 1.16519 20.7121 1.3745 20.7121 1.58595C20.7121 1.7974 20.6701 2.00672 20.5885 2.20159C20.5069 2.39646 20.3875 2.57295 20.2371 2.72067C20.0867 2.8684 19.9085 2.98438 19.713 3.06179C19.5174 3.13921 19.3084 3.17649 19.0983 3.17145Z" fill="#82AEC9"/>
<path d="M19.0997 7.97602H12.7005C12.4904 7.98106 12.2814 7.94377 12.0859 7.86636C11.8903 7.78895 11.7121 7.67296 11.5617 7.52524C11.4113 7.37751 11.2918 7.20102 11.2102 7.00615C11.1287 6.81128 11.0866 6.60197 11.0866 6.39052C11.0866 6.17907 11.1287 5.96975 11.2102 5.77488C11.2918 5.58001 11.4113 5.40352 11.5617 5.2558C11.7121 5.10807 11.8903 4.99209 12.0859 4.91468C12.2814 4.83726 12.4904 4.79998 12.7005 4.80502H19.0997C19.3098 4.79998 19.5188 4.83726 19.7143 4.91468C19.9099 4.99209 20.0881 5.10807 20.2385 5.2558C20.3889 5.40352 20.5084 5.58001 20.59 5.77488C20.6715 5.96975 20.7135 6.17907 20.7135 6.39052C20.7135 6.60197 20.6715 6.81128 20.59 7.00615C20.5084 7.20102 20.3889 7.37751 20.2385 7.52524C20.0881 7.67296 19.9099 7.78895 19.7143 7.86636C19.5188 7.94377 19.3098 7.98106 19.0997 7.97602Z" fill="#82AEC9"/>
<path d="M19.098 12.7807H9.53193C9.32183 12.7857 9.11282 12.7485 8.91725 12.671C8.72167 12.5936 8.54346 12.4776 8.39309 12.3299C8.24272 12.1822 8.12322 12.0057 8.04163 11.8108C7.96005 11.616 7.91805 11.4067 7.91805 11.1952C7.91805 10.9838 7.96005 10.7744 8.04163 10.5796C8.12322 10.3847 8.24272 10.2082 8.39309 10.0605C8.54346 9.91276 8.72167 9.79678 8.91725 9.71936C9.11282 9.64195 9.32183 9.60466 9.53193 9.6097H19.098C19.3081 9.60466 19.5171 9.64195 19.7127 9.71936C19.9083 9.79678 20.0865 9.91276 20.2368 10.0605C20.3872 10.2082 20.5067 10.3847 20.5883 10.5796C20.6699 10.7744 20.7119 10.9838 20.7119 11.1952C20.7119 11.4067 20.6699 11.616 20.5883 11.8108C20.5067 12.0057 20.3872 12.1822 20.2368 12.3299C20.0865 12.4776 19.9083 12.5936 19.7127 12.671C19.5171 12.7485 19.3081 12.7857 19.098 12.7807Z" fill="#82AEC9"/>
<path d="M19.0983 17.5855H6.33035C6.12025 17.5905 5.9113 17.5532 5.71573 17.4758C5.52015 17.3984 5.34194 17.2824 5.19157 17.1347C5.0412 16.9869 4.92169 16.8105 4.84011 16.6156C4.75853 16.4207 4.71648 16.2114 4.71648 16C4.71648 15.7885 4.75853 15.5792 4.84011 15.3843C4.92169 15.1894 5.0412 15.013 5.19157 14.8652C5.34194 14.7175 5.52015 14.6015 5.71573 14.5241C5.9113 14.4467 6.12025 14.4094 6.33035 14.4145H19.0983C19.3084 14.4094 19.5174 14.4467 19.713 14.5241C19.9085 14.6015 20.0868 14.7175 20.2371 14.8652C20.3875 15.013 20.507 15.1894 20.5886 15.3843C20.6702 15.5792 20.7122 15.7885 20.7122 16C20.7122 16.2114 20.6702 16.4207 20.5886 16.6156C20.507 16.8105 20.3875 16.9869 20.2371 17.1347C20.0868 17.2824 19.9085 17.3984 19.713 17.4758C19.5174 17.5532 19.3084 17.5905 19.0983 17.5855Z" fill="#82AEC9"/>
<path d="M39.7948 17.5855H23.8223C23.6122 17.5905 23.4032 17.5532 23.2077 17.4758C23.0121 17.3984 22.8339 17.2824 22.6835 17.1347C22.5331 16.9869 22.4136 16.8105 22.332 16.6156C22.2505 16.4207 22.2085 16.2114 22.2085 16C22.2085 15.7885 22.2505 15.5792 22.332 15.3843C22.4136 15.1894 22.5331 15.013 22.6835 14.8652C22.8339 14.7175 23.0121 14.6015 23.2077 14.5241C23.4032 14.4467 23.6122 14.4094 23.8223 14.4145H39.7948C40.0049 14.4094 40.2139 14.4467 40.4094 14.5241C40.605 14.6015 40.7832 14.7175 40.9336 14.8652C41.084 15.013 41.2035 15.1894 41.285 15.3843C41.3666 15.5792 41.4086 15.7885 41.4086 16C41.4086 16.2114 41.3666 16.4207 41.285 16.6156C41.2035 16.8105 41.084 16.9869 40.9336 17.1347C40.7832 17.2824 40.605 17.3984 40.4094 17.4758C40.2139 17.5532 40.0049 17.5905 39.7948 17.5855Z" fill="#82AEC9"/>
<path d="M19.0987 22.3901H9.52092C9.31082 22.3952 9.10187 22.3579 8.90629 22.2805C8.71072 22.2031 8.53251 22.0871 8.38214 21.9394C8.23177 21.7916 8.11226 21.6151 8.03068 21.4203C7.9491 21.2254 7.90704 21.0161 7.90704 20.8046C7.90704 20.5932 7.9491 20.3839 8.03068 20.189C8.11226 19.9941 8.23177 19.8177 8.38214 19.6699C8.53251 19.5222 8.71072 19.4062 8.90629 19.3288C9.10187 19.2514 9.31082 19.2141 9.52092 19.2191H19.0987C19.3088 19.2141 19.5178 19.2514 19.7134 19.3288C19.9089 19.4062 20.0871 19.5222 20.2375 19.6699C20.3878 19.8177 20.5073 19.9941 20.5889 20.189C20.6705 20.3839 20.7126 20.5932 20.7126 20.8046C20.7126 21.0161 20.6705 21.2254 20.5889 21.4203C20.5073 21.6151 20.3878 21.7916 20.2375 21.9394C20.0871 22.0871 19.9089 22.2031 19.7134 22.2805C19.5178 22.3579 19.3088 22.3952 19.0987 22.3901Z" fill="#82AEC9"/>
<path d="M39.7966 22.3901H34.9693C34.5578 22.3803 34.1665 22.2089 33.879 21.9126C33.5915 21.6164 33.4305 21.2187 33.4305 20.8046C33.4305 20.3906 33.5915 19.9929 33.879 19.6966C34.1665 19.4004 34.5578 19.229 34.9693 19.2191H39.7966C40.0067 19.2141 40.2157 19.2514 40.4113 19.3288C40.6069 19.4062 40.7851 19.5222 40.9355 19.6699C41.0858 19.8177 41.2053 19.9941 41.2869 20.189C41.3684 20.3839 41.4105 20.5932 41.4105 20.8046C41.4105 21.0161 41.3684 21.2254 41.2869 21.4203C41.2053 21.6151 41.0858 21.7916 40.9355 21.9394C40.7851 22.0871 40.6069 22.2031 40.4113 22.2805C40.2157 22.3579 40.0067 22.3952 39.7966 22.3901Z" fill="#82AEC9"/>
<path d="M19.0972 27.194H12.6873C12.4772 27.1991 12.2682 27.1618 12.0726 27.0844C11.877 27.007 11.6988 26.891 11.5484 26.7433C11.3981 26.5955 11.2786 26.419 11.197 26.2242C11.1154 26.0293 11.0734 25.82 11.0734 25.6085C11.0734 25.3971 11.1154 25.1878 11.197 24.9929C11.2786 24.798 11.3981 24.6215 11.5484 24.4738C11.6988 24.3261 11.877 24.2101 12.0726 24.1327C12.2682 24.0553 12.4772 24.018 12.6873 24.023H19.0972C19.3073 24.018 19.5163 24.0553 19.7118 24.1327C19.9074 24.2101 20.0856 24.3261 20.236 24.4738C20.3864 24.6215 20.5059 24.798 20.5875 24.9929C20.669 25.1878 20.711 25.3971 20.711 25.6085C20.711 25.82 20.669 26.0293 20.5875 26.2242C20.5059 26.419 20.3864 26.5955 20.236 26.7433C20.0856 26.891 19.9074 27.007 19.7118 27.0844C19.5163 27.1618 19.3073 27.1991 19.0972 27.194Z" fill="#82AEC9"/>
<path d="M40.0923 27.194H33.4004C32.9889 27.1842 32.5976 27.0128 32.3101 26.7165C32.0226 26.4203 31.8616 26.0226 31.8616 25.6085C31.8616 25.1945 32.0226 24.7968 32.3101 24.5005C32.5976 24.2043 32.9889 24.0329 33.4004 24.023H40.0923C40.3024 24.018 40.5114 24.0553 40.7069 24.1327C40.9025 24.2101 41.0807 24.3261 41.2311 24.4738C41.3814 24.6215 41.501 24.798 41.5825 24.9929C41.6641 25.1878 41.7061 25.3971 41.7061 25.6085C41.7061 25.82 41.6641 26.0293 41.5825 26.2242C41.501 26.419 41.3814 26.5955 41.2311 26.7433C41.0807 26.891 40.9025 27.007 40.7069 27.0844C40.5114 27.1618 40.3024 27.1991 40.0923 27.194Z" fill="#82AEC9"/>
<path d="M19.0983 31.9996H15.8624C15.6523 32.0046 15.4433 31.9673 15.2477 31.8899C15.0522 31.8125 14.874 31.6965 14.7236 31.5488C14.5732 31.4011 14.4538 31.2246 14.3722 31.0297C14.2906 30.8348 14.2486 30.6255 14.2486 30.4141C14.2486 30.2026 14.2906 29.9933 14.3722 29.7984C14.4538 29.6036 14.5732 29.4271 14.7236 29.2794C14.874 29.1316 15.0522 29.0156 15.2477 28.9382C15.4433 28.8608 15.6523 28.8235 15.8624 28.8286H19.0983C19.3084 28.8235 19.5174 28.8608 19.713 28.9382C19.9085 29.0156 20.0867 29.1316 20.2371 29.2794C20.3875 29.4271 20.5069 29.6036 20.5885 29.7984C20.6701 29.9933 20.7121 30.2026 20.7121 30.4141C20.7121 30.6255 20.6701 30.8348 20.5885 31.0297C20.5069 31.2246 20.3875 31.4011 20.2371 31.5488C20.0867 31.6965 19.9085 31.8125 19.713 31.8899C19.5174 31.9673 19.3084 32.0046 19.0983 31.9996Z" fill="#82AEC9"/>
<path d="M30.2472 31.9996H23.8212C23.6111 32.0046 23.4021 31.9673 23.2066 31.8899C23.011 31.8125 22.8328 31.6965 22.6824 31.5488C22.532 31.4011 22.4125 31.2246 22.3309 31.0297C22.2494 30.8348 22.2074 30.6255 22.2074 30.4141C22.2074 30.2026 22.2494 29.9933 22.3309 29.7984C22.4125 29.6036 22.532 29.4271 22.6824 29.2794C22.8328 29.1316 23.011 29.0156 23.2066 28.9382C23.4021 28.8608 23.6111 28.8235 23.8212 28.8286H30.2472C30.4573 28.8235 30.6664 28.8608 30.8619 28.9382C31.0575 29.0156 31.2357 29.1316 31.3861 29.2794C31.5364 29.4271 31.6559 29.6036 31.7375 29.7984C31.8191 29.9933 31.8611 30.2026 31.8611 30.4141C31.8611 30.6255 31.8191 30.8348 31.7375 31.0297C31.6559 31.2246 31.5364 31.4011 31.3861 31.5488C31.2357 31.6965 31.0575 31.8125 30.8619 31.8899C30.6664 31.9673 30.4573 32.0046 30.2472 31.9996Z" fill="#82AEC9"/>
<path d="M12.7602 2.79681C12.7602 3.03639 12.6895 3.27058 12.5573 3.46978C12.425 3.66898 12.2369 3.82423 12.0169 3.91591C11.7969 4.00759 11.5549 4.03158 11.3213 3.98484C11.0878 3.9381 10.8733 3.82274 10.7049 3.65333C10.5365 3.48393 10.4219 3.2681 10.3754 3.03313C10.329 2.79816 10.3528 2.55461 10.4439 2.33327C10.535 2.11193 10.6893 1.92275 10.8873 1.78965C11.0853 1.65655 11.3181 1.58551 11.5562 1.58551C11.8755 1.58551 12.1817 1.71313 12.4075 1.94029C12.6333 2.16746 12.7602 2.47556 12.7602 2.79681Z" fill="#1D365A"/>
<path d="M12.7161 30.0018C12.7161 30.2414 12.6455 30.4756 12.5132 30.6748C12.3809 30.874 12.1929 31.0292 11.9729 31.1209C11.7529 31.2126 11.5108 31.2366 11.2773 31.1899C11.0437 31.1431 10.8292 31.0278 10.6609 30.8584C10.4925 30.6889 10.3778 30.4731 10.3314 30.2381C10.2849 30.0032 10.3087 29.7596 10.3999 29.5383C10.491 29.3169 10.6453 29.1278 10.8433 28.9947C11.0413 28.8616 11.274 28.7905 11.5122 28.7905C11.8315 28.7905 12.1377 28.9181 12.3635 29.1453C12.5893 29.3725 12.7161 29.6806 12.7161 30.0018Z" fill="#1D365A"/>
<path d="M8.72997 7.97603H7.13844C6.92941 7.97603 6.72893 7.89248 6.58112 7.74377C6.43332 7.59506 6.3503 7.39337 6.3503 7.18306C6.3503 6.97275 6.43332 6.77104 6.58112 6.62233C6.72893 6.47362 6.92941 6.39008 7.13844 6.39008H8.72997C8.939 6.39008 9.13948 6.47362 9.28729 6.62233C9.4351 6.77104 9.51812 6.97275 9.51812 7.18306C9.51812 7.39337 9.4351 7.59506 9.28729 7.74377C9.13948 7.89248 8.939 7.97603 8.72997 7.97603Z" fill="#1D365A"/>
<path d="M5.53992 12.7807H2.36139C2.15236 12.7807 1.95188 12.6972 1.80408 12.5485C1.65627 12.3998 1.57325 12.198 1.57325 11.9877C1.57325 11.7774 1.65627 11.5757 1.80408 11.427C1.95188 11.2783 2.15236 11.1948 2.36139 11.1948H5.53992C5.74895 11.1948 5.94943 11.2783 6.09724 11.427C6.24505 11.5757 6.32812 11.7774 6.32812 11.9877C6.32812 12.198 6.24505 12.3998 6.09724 12.5485C5.94943 12.6972 5.74895 12.7807 5.53992 12.7807Z" fill="#1D365A"/>
<path d="M5.5618 20.771H0.788129C0.579099 20.771 0.378673 20.6874 0.230866 20.5387C0.0830595 20.39 -1.52588e-05 20.1883 -1.52588e-05 19.978C-1.52588e-05 19.7677 0.0830595 19.566 0.230866 19.4173C0.378673 19.2685 0.579099 19.185 0.788129 19.185H5.5618C5.77083 19.185 5.97131 19.2685 6.11911 19.4173C6.26692 19.566 6.34994 19.7677 6.34994 19.978C6.34994 20.1883 6.26692 20.39 6.11911 20.5387C5.97131 20.6874 5.77083 20.771 5.5618 20.771Z" fill="#1D365A"/>
<path d="M8.73713 25.5584H7.13844C6.92941 25.5584 6.72893 25.4749 6.58112 25.3262C6.43332 25.1775 6.3503 24.9758 6.3503 24.7654C6.3503 24.5551 6.43332 24.3534 6.58112 24.2047C6.72893 24.056 6.92941 23.9725 7.13844 23.9725H8.73713C8.94616 23.9725 9.14664 24.056 9.29445 24.2047C9.44225 24.3534 9.52527 24.5551 9.52527 24.7654C9.52527 24.9758 9.44225 25.1775 9.29445 25.3262C9.14664 25.4749 8.94616 25.5584 8.73713 25.5584Z" fill="#1D365A"/>
<path d="M58.2046 14.9502C58.6325 15.4858 58.8622 16.1543 58.8545 16.8414C58.8665 17.4403 58.7031 18.0294 58.3845 18.5354C58.0501 19.0404 57.578 19.4376 57.0248 19.6792C56.362 19.9686 55.6445 20.1093 54.9222 20.0917H49.7753V8.08581H54.6984C55.4165 8.06822 56.1301 8.20294 56.793 8.48118C57.3354 8.7086 57.7993 9.09167 58.1267 9.58261C58.4308 10.0597 58.5884 10.6163 58.5797 11.183C58.6017 11.815 58.4056 12.4352 58.0247 12.9382C57.6446 13.415 57.1285 13.7632 56.5459 13.9361C57.2051 14.0542 57.7967 14.4159 58.2046 14.9502ZM52.1679 13.0409H54.3574C54.8276 13.0717 55.2936 12.9346 55.6732 12.6536C55.8296 12.5167 55.9526 12.3454 56.0326 12.153C56.1127 11.9606 56.1478 11.7523 56.1351 11.5441C56.1472 11.3347 56.1119 11.1252 56.0319 10.9314C55.9519 10.7377 55.8293 10.5647 55.6732 10.4256C55.2961 10.1389 54.8291 9.99823 54.3574 10.0293H52.1679V13.0409ZM55.9382 17.724C56.1028 17.5792 56.2322 17.3984 56.3166 17.1955C56.401 16.9925 56.4382 16.7728 56.4251 16.5532C56.4366 16.3251 56.3964 16.0974 56.3075 15.8872C56.2186 15.6771 56.0835 15.49 55.9122 15.3401C55.5184 15.0306 55.0265 14.8748 54.5274 14.9015H52.1679V18.1356H54.5794C55.067 18.1656 55.5492 18.0193 55.939 17.7231" fill="#1D365A"/>
<path d="M64.3478 10.8562C64.8667 10.5634 65.4537 10.4148 66.0485 10.4257V12.9572H65.4156C65.0961 12.9052 64.7688 12.9321 64.4619 13.0356C64.155 13.1391 63.8777 13.3162 63.6539 13.5514C63.4301 13.7867 63.2665 14.0732 63.1772 14.3862C63.0879 14.6993 63.0755 15.0294 63.1412 15.3483V20.0963H60.7485V10.5635H63.1385V12.0431C63.4339 11.5511 63.8488 11.1426 64.3442 10.8562" fill="#1D365A"/>
<path d="M69.586 19.6378C68.8621 19.2366 68.2662 18.637 67.8674 17.9087C67.4391 17.1181 67.2231 16.2287 67.2408 15.3285C67.2224 14.4261 67.4436 13.535 67.8817 12.7474C68.2933 12.0171 68.9007 11.418 69.6344 11.0182C70.4001 10.6173 71.2506 10.4079 72.1139 10.4079C72.9771 10.4079 73.8276 10.6173 74.5933 11.0182C75.3269 11.4181 75.9342 12.0172 76.3459 12.7474C76.7844 13.5349 77.006 14.426 76.9878 15.3285C77.0061 16.2328 76.7785 17.1249 76.3298 17.9087C75.9064 18.6387 75.2909 19.2371 74.5512 19.6378C73.7804 20.051 72.9182 20.2611 72.0449 20.2484C71.1855 20.2617 70.3373 20.0514 69.5825 19.6378M73.2677 17.8312C73.6585 17.6095 73.9765 17.2777 74.1824 16.8766C74.4228 16.3973 74.5404 15.8651 74.5244 15.3285C74.5492 14.9502 74.4993 14.5708 74.3776 14.212C74.2559 13.8533 74.0649 13.5223 73.8155 13.2382C73.5924 13.002 73.3228 12.815 73.024 12.6893C72.7252 12.5636 72.4037 12.5017 72.0798 12.5078C71.7584 12.5007 71.4391 12.5622 71.1429 12.688C70.8467 12.8139 70.5803 13.0014 70.3612 13.2382C69.8673 13.8169 69.6186 14.5673 69.6684 15.3285C69.6184 16.0867 69.8604 16.8352 70.3442 17.4188C70.5589 17.6563 70.8219 17.8446 71.1154 17.9708C71.4088 18.0969 71.7259 18.1581 72.0449 18.15C72.4729 18.1514 72.894 18.041 73.2677 17.8312Z" fill="#1D365A"/>
<path d="M78.8001 12.7311C79.1488 12.0225 79.6881 11.4266 80.3567 11.011C81.0189 10.6076 81.7802 10.3989 82.5542 10.4085C83.1988 10.3938 83.8367 10.5418 84.4098 10.839C84.9092 11.0991 85.3444 11.4684 85.6835 11.9197V10.5634H88.095V20.0962H85.6835V18.7012C85.3534 19.1683 84.9166 19.5488 84.4098 19.8107C83.8319 20.1121 83.188 20.2629 82.5372 20.2493C81.7664 20.2569 81.0096 20.0419 80.3567 19.6297C79.6882 19.2026 79.1496 18.5984 78.8001 17.8834C78.4061 17.0789 78.2097 16.191 78.2273 15.2942C78.2103 14.4056 78.4067 13.5269 78.8001 12.7311ZM85.3407 13.8226C85.1286 13.4209 84.8085 13.0873 84.417 12.8599C84.0378 12.6383 83.6068 12.5223 83.1683 12.524C82.7279 12.5191 82.2946 12.6361 81.9158 12.8621C81.5369 13.0881 81.2271 13.4144 81.02 13.8055C80.7769 14.2628 80.656 14.7758 80.6691 15.2942C80.6573 15.818 80.778 16.3361 81.02 16.8C81.2326 17.2086 81.552 17.5512 81.9438 17.7907C82.3121 18.0164 82.7352 18.1354 83.1665 18.1347C83.6049 18.1365 84.0359 18.0209 84.4152 17.7997C84.8066 17.5718 85.1267 17.2379 85.3389 16.836C85.5638 16.3665 85.6806 15.8519 85.6806 15.3307C85.6806 14.8094 85.5638 14.2949 85.3389 13.8253" fill="#1D365A"/>
<path d="M90.3218 12.7304C90.667 12.0236 91.2047 11.4301 91.8722 11.0189C92.5397 10.6077 93.3095 10.3957 94.0921 10.4077C94.7022 10.4066 95.3045 10.5448 95.8536 10.8121C96.3792 11.0549 96.8373 11.4242 97.1874 11.8874V7.36279H99.6158V20.0936H97.1874V18.6833C96.878 19.1657 96.4476 19.5574 95.9396 19.819C95.3634 20.1154 94.723 20.2633 94.076 20.2494C93.3028 20.2564 92.5436 20.0415 91.8874 19.6298C91.2152 19.2047 90.6736 18.6002 90.3228 17.8836C89.9287 17.079 89.7322 16.1911 89.7499 15.2944C89.7328 14.4057 89.9294 13.5261 90.3228 12.7304M96.8633 13.8228C96.6514 13.4212 96.3317 13.0876 95.9405 12.86C95.5616 12.6386 95.1309 12.5226 94.6927 12.5241C94.2523 12.5193 93.8191 12.6362 93.4402 12.8622C93.0614 13.0882 92.7515 13.4146 92.5444 13.8057C92.3014 14.263 92.1804 14.7759 92.1935 15.2944C92.1817 15.8181 92.3025 16.3363 92.5444 16.8002C92.757 17.2088 93.0764 17.5513 93.4682 17.7908C93.8365 18.0165 94.2596 18.1356 94.6909 18.1348C95.129 18.1365 95.5597 18.0209 95.9387 17.7998C96.3299 17.5718 96.6496 17.2379 96.8616 16.8362C97.0868 16.3667 97.2037 15.8521 97.2037 15.3308C97.2037 14.8095 97.0868 14.295 96.8616 13.8255" fill="#1D365A"/>
<path d="M103.406 19.8252C102.829 19.5749 102.326 19.181 101.944 18.6806C101.592 18.219 101.387 17.6617 101.354 17.0811H103.765C103.787 17.2621 103.847 17.4366 103.939 17.5935C104.031 17.7503 104.155 17.8862 104.302 17.9925C104.642 18.2413 105.054 18.3682 105.473 18.3528C105.849 18.3747 106.223 18.2784 106.542 18.0772C106.66 18.0019 106.757 17.8977 106.825 17.7744C106.892 17.6511 106.927 17.5127 106.927 17.372C106.928 17.2217 106.883 17.0746 106.799 16.9501C106.716 16.8257 106.596 16.7297 106.457 16.6749C105.974 16.4612 105.473 16.2912 104.96 16.167C104.37 16.0313 103.79 15.8531 103.225 15.6339C102.775 15.4511 102.376 15.1619 102.061 14.7909C101.718 14.3577 101.545 13.813 101.574 13.2599C101.572 12.7437 101.73 12.2398 102.027 11.8189C102.357 11.3604 102.807 11.0031 103.327 10.7868C103.957 10.5211 104.636 10.3919 105.319 10.4077C106.292 10.357 107.251 10.6594 108.021 11.2597C108.355 11.5432 108.627 11.894 108.818 12.2895C109.01 12.6851 109.117 13.1165 109.133 13.5562H106.841C106.83 13.3813 106.782 13.2107 106.701 13.0556C106.62 12.9004 106.508 12.7641 106.371 12.6556C106.057 12.4545 105.695 12.3404 105.323 12.3246C104.951 12.3088 104.581 12.3919 104.251 12.5655C104.139 12.6373 104.049 12.7369 103.987 12.8545C103.926 12.9721 103.896 13.1037 103.901 13.2365C103.9 13.3925 103.945 13.5452 104.03 13.6755C104.115 13.8058 104.237 13.9078 104.379 13.9687C104.856 14.1898 105.355 14.3598 105.867 14.4757C106.443 14.6134 107.009 14.7919 107.56 15.0097C108.007 15.1953 108.403 15.4873 108.714 15.8608C109.055 16.2927 109.234 16.8321 109.218 17.3837C109.225 17.9125 109.066 18.4299 108.765 18.8634C108.436 19.3208 107.986 19.6757 107.466 19.8874C106.84 20.1457 106.168 20.2714 105.491 20.2566C104.774 20.2685 104.062 20.1247 103.405 19.8351" fill="#1D365A"/>
<path d="M114.815 10.8472C115.388 10.547 116.026 10.3962 116.671 10.4086C117.445 10.3988 118.206 10.6072 118.868 11.0102C119.535 11.4242 120.074 12.0167 120.425 12.7213C120.82 13.5194 121.017 14.4021 120.998 15.2934C121.015 16.1902 120.819 17.078 120.425 17.8827C120.075 18.5974 119.537 19.2015 118.868 19.6289C118.21 20.0427 117.447 20.2578 116.671 20.2485C116.032 20.2619 115.4 20.1139 114.833 19.818C114.331 19.5554 113.891 19.1867 113.543 18.7373V24.638H111.148V10.5635H113.543V11.9396C113.877 11.4807 114.312 11.1066 114.815 10.8472ZM118.202 13.8057C117.988 13.4074 117.668 13.0768 117.279 12.851C116.901 12.6342 116.474 12.5215 116.039 12.5241C115.609 12.5231 115.186 12.6392 114.816 12.86C114.426 13.0926 114.107 13.4288 113.893 13.8318C113.663 14.2966 113.543 14.809 113.543 15.3286C113.543 15.8481 113.663 16.3605 113.893 16.8254C114.107 17.2283 114.426 17.5644 114.816 17.7971C115.19 18.0178 115.616 18.1334 116.049 18.1318C116.482 18.1302 116.907 18.0115 117.279 17.7881C117.668 17.5505 117.987 17.2117 118.202 16.8073C118.445 16.3412 118.566 15.82 118.552 15.2934C118.566 14.775 118.445 14.2629 118.202 13.8057Z" fill="#1D365A"/>
<path d="M131.444 16.0509H124.519C124.539 16.6643 124.796 17.2457 125.235 17.6719C125.658 18.063 126.216 18.273 126.791 18.2573C127.186 18.281 127.579 18.1834 127.918 17.9774C128.257 17.7713 128.525 17.4667 128.688 17.1037H131.271C131.005 18.0102 130.453 18.8048 129.698 19.3669C128.871 19.9741 127.866 20.2857 126.843 20.2522C125.986 20.266 125.141 20.0555 124.389 19.6416C123.671 19.2408 123.084 18.6405 122.696 17.9124C122.28 17.118 122.071 16.2301 122.09 15.3322C122.07 14.4293 122.276 13.5359 122.688 12.734C123.068 12.0083 123.651 11.4104 124.364 11.0138C125.121 10.621 125.96 10.4146 126.811 10.4117C127.663 10.4087 128.503 10.6092 129.263 10.9967C129.965 11.376 130.541 11.9528 130.922 12.6565C131.325 13.4153 131.528 14.2656 131.512 15.126C131.514 15.4368 131.491 15.7473 131.444 16.0545M129.032 14.4334C129.037 14.1512 128.98 13.8715 128.865 13.6142C128.749 13.3569 128.579 13.1286 128.365 12.9456C127.922 12.569 127.356 12.3699 126.776 12.3863C126.227 12.3695 125.692 12.5626 125.279 12.9267C124.857 13.3206 124.593 13.8556 124.535 14.4316L129.032 14.4334Z" fill="#1D365A"/>
<path d="M133.499 12.7393C133.879 12.0193 134.454 11.4227 135.158 11.0191C135.9 10.603 136.738 10.3923 137.587 10.4085C138.629 10.3677 139.655 10.6797 140.501 11.2947C141.29 11.9155 141.838 12.7951 142.049 13.7804H139.466C139.345 13.3899 139.102 13.0491 138.773 12.8086C138.418 12.5644 137.995 12.441 137.565 12.4565C137.255 12.4437 136.946 12.5048 136.664 12.6348C136.382 12.7649 136.134 12.9602 135.941 13.2049C135.55 13.8405 135.342 14.5735 135.342 15.3213C135.342 16.0691 135.55 16.802 135.941 17.4377C136.134 17.6823 136.382 17.8777 136.664 18.0077C136.946 18.1378 137.255 18.1989 137.565 18.1861C137.983 18.2221 138.4 18.1116 138.746 17.8732C139.092 17.6348 139.345 17.2833 139.463 16.8784H142.045C141.82 17.8529 141.271 18.7209 140.488 19.3388C139.651 19.967 138.626 20.2886 137.582 20.2502C136.733 20.2665 135.895 20.0558 135.154 19.6396C134.45 19.2359 133.875 18.6394 133.495 17.9195C133.101 17.1139 132.896 16.2281 132.896 15.3303C132.896 14.4325 133.101 13.5467 133.495 12.7411" fill="#1D365A"/>
<path d="M146.76 12.5421V17.1532C146.748 17.2791 146.762 17.4062 146.802 17.5262C146.842 17.6462 146.906 17.7566 146.99 17.8503C147.215 18.0152 147.492 18.0915 147.768 18.0646H148.88V20.0945H147.375C145.358 20.0945 144.349 19.1084 144.349 17.1361V12.543H143.217V10.5617H144.345V8.20667H146.756V10.5635H148.876V12.5448L146.76 12.5421Z" fill="#1D365A"/>
<path d="M154.441 10.8562C154.96 10.5633 155.547 10.4147 156.142 10.4257V12.9572H155.509C155.189 12.905 154.862 12.9317 154.555 13.0352C154.248 13.1386 153.97 13.3156 153.746 13.551C153.523 13.7863 153.359 14.0729 153.27 14.386C153.18 14.6991 153.168 15.0294 153.234 15.3483V20.0963H150.84V10.5635H153.234V12.0431C153.529 11.5509 153.945 11.1425 154.441 10.8562Z" fill="#1D365A"/>
<path d="M166.737 10.5635V20.0946H164.325V18.8905C164.01 19.3099 163.596 19.6438 163.12 19.8622C162.615 20.0991 162.063 20.2194 161.505 20.2143C160.819 20.2288 160.141 20.066 159.535 19.7415C158.961 19.4212 158.493 18.9363 158.193 18.3483C157.853 17.669 157.686 16.9156 157.706 16.1553V10.5635H160.1V15.8113C160.058 16.4444 160.26 17.0694 160.664 17.5567C160.862 17.7632 161.102 17.9246 161.368 18.03C161.633 18.1353 161.918 18.1821 162.203 18.1673C162.49 18.1832 162.778 18.137 163.047 18.0317C163.315 17.9264 163.558 17.7644 163.759 17.5567C164.163 17.0694 164.364 16.4444 164.323 15.8113V10.5635H166.737Z" fill="#1D365A"/>
<path d="M183.815 11.5011C184.185 11.903 184.471 12.3762 184.655 12.8923C184.838 13.4084 184.916 13.9565 184.884 14.5037V20.0946H182.49V14.8297C182.532 14.2069 182.329 13.5923 181.925 13.1185C181.724 12.9168 181.483 12.7597 181.218 12.6575C180.953 12.5553 180.67 12.5101 180.386 12.5251C180.102 12.5108 179.817 12.5561 179.551 12.6583C179.284 12.7605 179.042 12.9172 178.839 13.1185C178.636 13.3519 178.481 13.6231 178.383 13.9167C178.285 14.2103 178.245 14.5206 178.266 14.8297V20.0946H175.872V14.8297C175.914 14.207 175.712 13.5927 175.308 13.1185C175.107 12.9168 174.867 12.7598 174.602 12.6576C174.337 12.5553 174.053 12.5102 173.77 12.5251C173.482 12.5096 173.195 12.5543 172.926 12.6565C172.656 12.7587 172.411 12.916 172.205 13.1185C172.003 13.3519 171.848 13.6232 171.749 13.9168C171.651 14.2104 171.611 14.5206 171.632 14.8297V20.0946H169.238V10.5636H171.632V11.7163C171.947 11.3094 172.355 10.985 172.821 10.7707C173.322 10.5377 173.868 10.4202 174.42 10.4267C175.11 10.4145 175.792 10.5771 176.403 10.8995C176.976 11.2063 177.446 11.6762 177.754 12.2504C178.07 11.692 178.535 11.2335 179.097 10.9265C179.845 10.5181 180.702 10.3542 181.547 10.4575C182.393 10.5608 183.186 10.9261 183.816 11.5029" fill="#1D365A"/>
</svg>
