<svg width="13" height="13" viewBox="0 0 13 13" fill="none" xmlns="http://www.w3.org/2000/svg">
<path d="M9.53634 0.445312H4.20743C2.60106 0.445312 1.29883 1.84771 1.29883 3.57766V9.31648C1.29883 11.0464 2.60106 12.4488 4.20743 12.4488H9.53634C11.1427 12.4488 12.4449 11.0464 12.4449 9.31648V3.57766C12.4449 1.84771 11.1427 0.445312 9.53634 0.445312Z" stroke="#0A2804" stroke-width="0.797265" stroke-linecap="round" stroke-linejoin="round"/>
<path d="M6.87186 9.59078C8.4841 9.59078 9.79108 8.18326 9.79108 6.447C9.79108 4.71074 8.4841 3.30322 6.87186 3.30322C5.25962 3.30322 3.95264 4.71074 3.95264 6.447C3.95264 8.18326 5.25962 9.59078 6.87186 9.59078Z" stroke="#0A2804" stroke-width="0.797265" stroke-linecap="round" stroke-linejoin="round"/>
<path d="M10.0566 2.7298C10.2032 2.7298 10.322 2.60184 10.322 2.444C10.322 2.28616 10.2032 2.1582 10.0566 2.1582C9.91008 2.1582 9.79126 2.28616 9.79126 2.444C9.79126 2.60184 9.91008 2.7298 10.0566 2.7298Z" stroke="#0A2804" stroke-width="0.797265" stroke-linecap="round" stroke-linejoin="round"/>
</svg>
