<svg width="93" height="17" viewBox="0 0 93 17" fill="none" xmlns="http://www.w3.org/2000/svg">
<path d="M15.6558 2.30108H12.4417C12.3366 2.3036 12.2321 2.28495 12.1343 2.24623C12.0365 2.20751 11.9473 2.1495 11.8721 2.07562C11.7969 2.00173 11.7371 1.91346 11.6963 1.81599C11.6555 1.71853 11.6345 1.61383 11.6345 1.50807C11.6345 1.40232 11.6555 1.29762 11.6963 1.20016C11.7371 1.10269 11.7969 1.01442 11.8721 0.940533C11.9473 0.866646 12.0365 0.808637 12.1343 0.769917C12.2321 0.731198 12.3366 0.712549 12.4417 0.715069H15.6558C15.7608 0.712549 15.8654 0.731198 15.9632 0.769917C16.061 0.808637 16.1501 0.866646 16.2254 0.940533C16.3006 1.01442 16.3603 1.10269 16.4011 1.20016C16.4419 1.29762 16.4629 1.40232 16.4629 1.50807C16.4629 1.61383 16.4419 1.71853 16.4011 1.81599C16.3603 1.91346 16.3006 2.00173 16.2254 2.07562C16.1501 2.1495 16.061 2.20751 15.9632 2.24623C15.8654 2.28495 15.7608 2.3036 15.6558 2.30108Z" fill="#AB2346"/>
<path d="M17.2516 4.7044H12.4424C12.3373 4.70692 12.2328 4.68827 12.135 4.64955C12.0372 4.61083 11.9481 4.55282 11.8728 4.47894C11.7976 4.40505 11.7379 4.31678 11.6971 4.21931C11.6563 4.12185 11.6353 4.01715 11.6353 3.91139C11.6353 3.80564 11.6563 3.70094 11.6971 3.60348C11.7379 3.50601 11.7976 3.41774 11.8728 3.34385C11.9481 3.26997 12.0372 3.21196 12.135 3.17324C12.2328 3.13452 12.3373 3.11587 12.4424 3.11839H17.2516C17.3567 3.11587 17.4613 3.13452 17.5591 3.17324C17.6569 3.21196 17.746 3.26997 17.8212 3.34385C17.8965 3.41774 17.9562 3.50601 17.997 3.60348C18.0378 3.70094 18.0588 3.80564 18.0588 3.91139C18.0588 4.01715 18.0378 4.12185 17.997 4.21931C17.9562 4.31678 17.8965 4.40505 17.8212 4.47894C17.746 4.55282 17.6569 4.61083 17.5591 4.64955C17.4613 4.68827 17.3567 4.70692 17.2516 4.7044Z" fill="#AB2346"/>
<path d="M18.8356 7.10674H12.442C12.2362 7.10181 12.0405 7.01609 11.8967 6.86791C11.7529 6.71973 11.6724 6.52084 11.6724 6.31374C11.6724 6.10663 11.7529 5.90774 11.8967 5.75956C12.0405 5.61138 12.2362 5.52567 12.442 5.52073H18.8356C18.9407 5.51821 19.0452 5.53686 19.143 5.57558C19.2409 5.6143 19.33 5.67231 19.4052 5.7462C19.4804 5.82008 19.5402 5.90835 19.581 6.00582C19.6218 6.10329 19.6428 6.20798 19.6428 6.31374C19.6428 6.4195 19.6218 6.52419 19.581 6.62165C19.5402 6.71912 19.4804 6.80739 19.4052 6.88128C19.33 6.95517 19.2409 7.01318 19.143 7.0519C19.0452 7.09062 18.9407 7.10926 18.8356 7.10674Z" fill="#AB2346"/>
<path d="M15.6558 11.9134H12.4417C12.3366 11.9159 12.2321 11.8973 12.1343 11.8585C12.0365 11.8198 11.9473 11.7618 11.8721 11.6879C11.7969 11.614 11.7371 11.5258 11.6963 11.4283C11.6555 11.3308 11.6345 11.2261 11.6345 11.1204C11.6345 11.0146 11.6555 10.9099 11.6963 10.8125C11.7371 10.715 11.7969 10.6267 11.8721 10.5528C11.9473 10.479 12.0365 10.4209 12.1343 10.3822C12.2321 10.3435 12.3366 10.3249 12.4417 10.3274H15.6558C15.7608 10.3249 15.8654 10.3435 15.9632 10.3822C16.061 10.4209 16.1501 10.479 16.2254 10.5528C16.3006 10.6267 16.3603 10.715 16.4011 10.8125C16.4419 10.9099 16.4629 11.0146 16.4629 11.1204C16.4629 11.2261 16.4419 11.3308 16.4011 11.4283C16.3603 11.5258 16.3006 11.614 16.2254 11.6879C16.1501 11.7618 16.061 11.8198 15.9632 11.8585C15.8654 11.8973 15.7608 11.9159 15.6558 11.9134Z" fill="#AB2346"/>
<path d="M14.8586 14.3167H12.441C12.3359 14.3192 12.2314 14.3006 12.1336 14.2619C12.0358 14.2231 11.9466 14.1651 11.8714 14.0912C11.7962 14.0174 11.7364 13.9291 11.6956 13.8316C11.6548 13.7341 11.6338 13.6295 11.6338 13.5237C11.6338 13.4179 11.6548 13.3132 11.6956 13.2158C11.7364 13.1183 11.7962 13.03 11.8714 12.9562C11.9466 12.8823 12.0358 12.8243 12.1336 12.7855C12.2314 12.7468 12.3359 12.7282 12.441 12.7307H14.8586C14.9637 12.7282 15.0682 12.7468 15.166 12.7855C15.2638 12.8243 15.353 12.8823 15.4282 12.9562C15.5034 13.03 15.5631 13.1183 15.6039 13.2158C15.6448 13.3132 15.6658 13.4179 15.6658 13.5237C15.6658 13.6295 15.6448 13.7341 15.6039 13.8316C15.5631 13.9291 15.5034 14.0174 15.4282 14.0912C15.353 14.1651 15.2638 14.2231 15.166 14.2619C15.0682 14.3006 14.9637 14.3192 14.8586 14.3167Z" fill="#AB2346"/>
<path d="M10.0799 2.30108H8.46149C8.35641 2.3036 8.25187 2.28495 8.15405 2.24623C8.05624 2.20751 7.9671 2.1495 7.89189 2.07562C7.81668 2.00173 7.75694 1.91346 7.71613 1.81599C7.67533 1.71853 7.6543 1.61383 7.6543 1.50807C7.6543 1.40232 7.67533 1.29762 7.71613 1.20016C7.75694 1.10269 7.81668 1.01442 7.89189 0.940533C7.9671 0.866646 8.05624 0.808637 8.15405 0.769917C8.25187 0.731198 8.35641 0.712549 8.46149 0.715069H10.0799C10.185 0.712549 10.2896 0.731198 10.3874 0.769917C10.4852 0.808637 10.5743 0.866646 10.6495 0.940533C10.7247 1.01442 10.7845 1.10269 10.8253 1.20016C10.8661 1.29762 10.8871 1.40232 10.8871 1.50807C10.8871 1.61383 10.8661 1.71853 10.8253 1.81599C10.7845 1.91346 10.7247 2.00173 10.6495 2.07562C10.5743 2.1495 10.4852 2.20751 10.3874 2.24623C10.2896 2.28495 10.185 2.3036 10.0799 2.30108Z" fill="#82AEC9"/>
<path d="M10.0798 4.7044H6.87922C6.77413 4.70692 6.66962 4.68827 6.57181 4.64955C6.47399 4.61083 6.38485 4.55282 6.30964 4.47894C6.23444 4.40505 6.17466 4.31678 6.13386 4.21931C6.09306 4.12185 6.07202 4.01715 6.07202 3.91139C6.07202 3.80564 6.09306 3.70094 6.13386 3.60348C6.17466 3.50601 6.23444 3.41774 6.30964 3.34385C6.38485 3.26997 6.47399 3.21196 6.57181 3.17324C6.66962 3.13452 6.77413 3.11587 6.87922 3.11839H10.0798C10.1849 3.11587 10.2895 3.13452 10.3873 3.17324C10.4851 3.21196 10.5742 3.26997 10.6494 3.34385C10.7246 3.41774 10.7844 3.50601 10.8252 3.60348C10.866 3.70094 10.887 3.80564 10.887 3.91139C10.887 4.01715 10.866 4.12185 10.8252 4.21931C10.7844 4.31678 10.7246 4.40505 10.6494 4.47894C10.5742 4.55282 10.4851 4.61083 10.3873 4.64955C10.2895 4.68827 10.1849 4.70692 10.0798 4.7044Z" fill="#82AEC9"/>
<path d="M10.0791 7.10674H5.2945C5.18942 7.10926 5.08488 7.09062 4.98706 7.0519C4.88924 7.01318 4.80011 6.95517 4.7249 6.88128C4.64969 6.80739 4.58992 6.71912 4.54912 6.62165C4.50831 6.52419 4.4873 6.4195 4.4873 6.31374C4.4873 6.20798 4.50831 6.10329 4.54912 6.00582C4.58992 5.90835 4.64969 5.82008 4.7249 5.7462C4.80011 5.67231 4.88924 5.6143 4.98706 5.57558C5.08488 5.53686 5.18942 5.51821 5.2945 5.52073H10.0791C10.1842 5.51821 10.2887 5.53686 10.3865 5.57558C10.4843 5.6143 10.5735 5.67231 10.6487 5.7462C10.7239 5.82008 10.7837 5.90835 10.8245 6.00582C10.8653 6.10329 10.8863 6.20798 10.8863 6.31374C10.8863 6.4195 10.8653 6.52419 10.8245 6.62165C10.7837 6.71912 10.7239 6.80739 10.6487 6.88128C10.5735 6.95517 10.4843 7.01318 10.3865 7.0519C10.2887 7.09062 10.1842 7.10926 10.0791 7.10674Z" fill="#82AEC9"/>
<path d="M10.0797 9.51006H3.69367C3.58859 9.51258 3.48408 9.49393 3.38626 9.45521C3.28844 9.41649 3.19931 9.35849 3.1241 9.2846C3.04889 9.21071 2.98912 9.12244 2.94831 9.02497C2.90751 8.92751 2.88647 8.82282 2.88647 8.71706C2.88647 8.6113 2.90751 8.50661 2.94831 8.40914C2.98912 8.31167 3.04889 8.2234 3.1241 8.14952C3.19931 8.07563 3.28844 8.01762 3.38626 7.9789C3.48408 7.94018 3.58859 7.92153 3.69367 7.92405H10.0797C10.1848 7.92153 10.2893 7.94018 10.3871 7.9789C10.4849 8.01762 10.5741 8.07563 10.6493 8.14952C10.7245 8.2234 10.7843 8.31167 10.8251 8.40914C10.8659 8.50661 10.8869 8.6113 10.8869 8.71706C10.8869 8.82282 10.8659 8.92751 10.8251 9.02497C10.7843 9.12244 10.7245 9.21071 10.6493 9.2846C10.5741 9.35849 10.4849 9.41649 10.3871 9.45521C10.2893 9.49393 10.1848 9.51258 10.0797 9.51006Z" fill="#82AEC9"/>
<path d="M20.4312 9.51006H12.4425C12.3374 9.51258 12.2328 9.49393 12.135 9.45521C12.0372 9.41649 11.9481 9.35849 11.8728 9.2846C11.7976 9.21071 11.7379 9.12244 11.6971 9.02497C11.6563 8.92751 11.6353 8.82282 11.6353 8.71706C11.6353 8.6113 11.6563 8.50661 11.6971 8.40914C11.7379 8.31167 11.7976 8.2234 11.8728 8.14952C11.9481 8.07563 12.0372 8.01762 12.135 7.9789C12.2328 7.94018 12.3374 7.92153 12.4425 7.92405H20.4312C20.5363 7.92153 20.6408 7.94018 20.7387 7.9789C20.8365 8.01762 20.9256 8.07563 21.0008 8.14952C21.076 8.2234 21.1358 8.31167 21.1766 8.40914C21.2174 8.50661 21.2384 8.6113 21.2384 8.71706C21.2384 8.82282 21.2174 8.92751 21.1766 9.02497C21.1358 9.12244 21.076 9.21071 21.0008 9.2846C20.9256 9.35849 20.8365 9.41649 20.7387 9.45521C20.6408 9.49393 20.5363 9.51258 20.4312 9.51006Z" fill="#82AEC9"/>
<path d="M10.0795 11.9134H5.28913C5.18405 11.9159 5.07954 11.8973 4.98172 11.8585C4.8839 11.8198 4.79477 11.7618 4.71956 11.6879C4.64435 11.614 4.58458 11.5258 4.54377 11.4283C4.50297 11.3308 4.48193 11.2261 4.48193 11.1204C4.48193 11.0146 4.50297 10.9099 4.54377 10.8125C4.58458 10.715 4.64435 10.6267 4.71956 10.5528C4.79477 10.479 4.8839 10.4209 4.98172 10.3822C5.07954 10.3435 5.18405 10.3249 5.28913 10.3274H10.0795C10.1846 10.3249 10.2892 10.3435 10.387 10.3822C10.4848 10.4209 10.5739 10.479 10.6491 10.5528C10.7243 10.6267 10.7841 10.715 10.8249 10.8125C10.8657 10.9099 10.8867 11.0146 10.8867 11.1204C10.8867 11.2261 10.8657 11.3308 10.8249 11.4283C10.7841 11.5258 10.7243 11.614 10.6491 11.6879C10.5739 11.7618 10.4848 11.8198 10.387 11.8585C10.2892 11.8973 10.1846 11.9159 10.0795 11.9134Z" fill="#82AEC9"/>
<path d="M20.4314 11.9134H18.0169C17.8112 11.9084 17.6154 11.8227 17.4716 11.6746C17.3278 11.5264 17.2473 11.3275 17.2473 11.1204C17.2473 10.9133 17.3278 10.7144 17.4716 10.5662C17.6154 10.418 17.8112 10.3323 18.0169 10.3274H20.4314C20.5365 10.3249 20.641 10.3435 20.7388 10.3822C20.8367 10.4209 20.9258 10.479 21.001 10.5528C21.0762 10.6267 21.136 10.715 21.1768 10.8125C21.2176 10.9099 21.2386 11.0146 21.2386 11.1204C21.2386 11.2261 21.2176 11.3308 21.1768 11.4283C21.136 11.5258 21.0762 11.614 21.001 11.6879C20.9258 11.7618 20.8367 11.8198 20.7388 11.8585C20.641 11.8973 20.5365 11.9159 20.4314 11.9134Z" fill="#82AEC9"/>
<path d="M10.0791 14.3167H6.87312C6.76803 14.3192 6.66349 14.3006 6.56568 14.2619C6.46786 14.2231 6.37872 14.1651 6.30351 14.0912C6.22831 14.0174 6.16853 13.9291 6.12773 13.8316C6.08692 13.7341 6.06592 13.6295 6.06592 13.5237C6.06592 13.4179 6.08692 13.3132 6.12773 13.2158C6.16853 13.1183 6.22831 13.03 6.30351 12.9562C6.37872 12.8823 6.46786 12.8243 6.56568 12.7855C6.66349 12.7468 6.76803 12.7282 6.87312 12.7307H10.0791C10.1842 12.7282 10.2887 12.7468 10.3865 12.7855C10.4843 12.8243 10.5735 12.8823 10.6487 12.9562C10.7239 13.03 10.7837 13.1183 10.8245 13.2158C10.8653 13.3132 10.8863 13.4179 10.8863 13.5237C10.8863 13.6295 10.8653 13.7341 10.8245 13.8316C10.7837 13.9291 10.7239 14.0174 10.6487 14.0912C10.5735 14.1651 10.4843 14.2231 10.3865 14.2619C10.2887 14.3006 10.1842 14.3192 10.0791 14.3167Z" fill="#82AEC9"/>
<path d="M20.5798 14.3167H17.2328C17.027 14.3118 16.8313 14.2261 16.6875 14.0779C16.5436 13.9297 16.4631 13.7308 16.4631 13.5237C16.4631 13.3166 16.5436 13.1177 16.6875 12.9695C16.8313 12.8213 17.027 12.7356 17.2328 12.7307H20.5798C20.6849 12.7282 20.7894 12.7468 20.8872 12.7855C20.985 12.8243 21.0742 12.8823 21.1494 12.9562C21.2246 13.03 21.2843 13.1183 21.3251 13.2158C21.366 13.3132 21.387 13.4179 21.387 13.5237C21.387 13.6295 21.366 13.7341 21.3251 13.8316C21.2843 13.9291 21.2246 14.0174 21.1494 14.0912C21.0742 14.1651 20.985 14.2231 20.8872 14.2619C20.7894 14.3006 20.6849 14.3192 20.5798 14.3167Z" fill="#82AEC9"/>
<path d="M10.0799 16.719H8.46149C8.35641 16.7216 8.25187 16.7029 8.15405 16.6642C8.05624 16.6255 7.9671 16.5675 7.89189 16.4936C7.81668 16.4197 7.75694 16.3314 7.71613 16.234C7.67533 16.1365 7.6543 16.0318 7.6543 15.926C7.6543 15.8203 7.67533 15.7156 7.71613 15.6181C7.75694 15.5207 7.81668 15.4324 7.89189 15.3585C7.9671 15.2846 8.05624 15.2266 8.15405 15.1879C8.25187 15.1492 8.35641 15.1305 8.46149 15.133H10.0799C10.185 15.1305 10.2896 15.1492 10.3874 15.1879C10.4852 15.2266 10.5743 15.2846 10.6495 15.3585C10.7247 15.4324 10.7845 15.5207 10.8253 15.6181C10.8661 15.7156 10.8871 15.8203 10.8871 15.926C10.8871 16.0318 10.8661 16.1365 10.8253 16.234C10.7845 16.3314 10.7247 16.4197 10.6495 16.4936C10.5743 16.5675 10.4852 16.6255 10.3874 16.6642C10.2896 16.7029 10.185 16.7216 10.0799 16.719Z" fill="#82AEC9"/>
<path d="M15.6558 16.719H12.4417C12.3366 16.7216 12.2321 16.7029 12.1343 16.6642C12.0365 16.6255 11.9473 16.5675 11.8721 16.4936C11.7969 16.4197 11.7371 16.3314 11.6963 16.234C11.6555 16.1365 11.6345 16.0318 11.6345 15.926C11.6345 15.8203 11.6555 15.7156 11.6963 15.6181C11.7371 15.5207 11.7969 15.4324 11.8721 15.3585C11.9473 15.2846 12.0365 15.2266 12.1343 15.1879C12.2321 15.1492 12.3366 15.1305 12.4417 15.133H15.6558C15.7608 15.1305 15.8654 15.1492 15.9632 15.1879C16.061 15.2266 16.1501 15.2846 16.2254 15.3585C16.3006 15.4324 16.3603 15.5207 16.4011 15.6181C16.4419 15.7156 16.4629 15.8203 16.4629 15.926C16.4629 16.0318 16.4419 16.1365 16.4011 16.234C16.3603 16.3314 16.3006 16.4197 16.2254 16.4936C16.1501 16.5675 16.061 16.6255 15.9632 16.6642C15.8654 16.7029 15.7608 16.7216 15.6558 16.719Z" fill="#82AEC9"/>
<path d="M6.90965 2.11366C6.90965 2.23348 6.87433 2.35062 6.80817 2.45025C6.742 2.54988 6.64795 2.62753 6.53792 2.67339C6.42789 2.71924 6.30682 2.73124 6.19001 2.70786C6.0732 2.68449 5.96591 2.62678 5.88169 2.54206C5.79748 2.45733 5.74013 2.34938 5.71689 2.23185C5.69366 2.11433 5.70558 1.99252 5.75116 1.88181C5.79674 1.77111 5.87391 1.67649 5.97293 1.60992C6.07196 1.54334 6.18838 1.50781 6.30748 1.50781C6.46718 1.50781 6.62034 1.57164 6.73327 1.68526C6.84619 1.79888 6.90965 1.95298 6.90965 2.11366Z" fill="#1D365A"/>
<path d="M6.88646 15.7201C6.88646 15.8399 6.85114 15.9571 6.78497 16.0567C6.71881 16.1563 6.62475 16.234 6.51472 16.2798C6.40469 16.3257 6.28362 16.3377 6.16681 16.3143C6.05001 16.2909 5.94271 16.2332 5.8585 16.1485C5.77429 16.0638 5.71693 15.9558 5.6937 15.8383C5.67047 15.7208 5.68239 15.599 5.72797 15.4883C5.77354 15.3775 5.85074 15.2829 5.94977 15.2164C6.04879 15.1498 6.16519 15.1143 6.28429 15.1143C6.44399 15.1143 6.59717 15.1781 6.7101 15.2917C6.82303 15.4053 6.88646 15.5594 6.88646 15.7201Z" fill="#1D365A"/>
<path d="M4.89334 4.70437H4.09732C3.99277 4.70437 3.8925 4.66258 3.81858 4.5882C3.74465 4.51382 3.70312 4.41294 3.70312 4.30775C3.70312 4.20256 3.74465 4.10168 3.81858 4.0273C3.8925 3.95292 3.99277 3.91113 4.09732 3.91113H4.89334C4.99789 3.91113 5.09817 3.95292 5.17209 4.0273C5.24602 4.10168 5.28754 4.20256 5.28754 4.30775C5.28754 4.41294 5.24602 4.51382 5.17209 4.5882C5.09817 4.66258 4.99789 4.70437 4.89334 4.70437Z" fill="#1D365A"/>
<path d="M3.29818 7.10768H1.70841C1.60386 7.10768 1.50359 7.0659 1.42966 6.99152C1.35573 6.91714 1.31421 6.81626 1.31421 6.71107C1.31421 6.60588 1.35573 6.505 1.42966 6.43062C1.50359 6.35624 1.60386 6.31445 1.70841 6.31445H3.29818C3.40273 6.31445 3.503 6.35624 3.57693 6.43062C3.65086 6.505 3.69241 6.60588 3.69241 6.71107C3.69241 6.81626 3.65086 6.91714 3.57693 6.99152C3.503 7.0659 3.40273 7.10768 3.29818 7.10768Z" fill="#1D365A"/>
<path d="M3.3089 11.1038H0.921298C0.816749 11.1038 0.716505 11.062 0.642577 10.9876C0.56865 10.9132 0.5271 10.8124 0.5271 10.7072C0.5271 10.602 0.56865 10.5011 0.642577 10.4267C0.716505 10.3523 0.816749 10.3105 0.921298 10.3105H3.3089C3.41345 10.3105 3.51372 10.3523 3.58765 10.4267C3.66157 10.5011 3.7031 10.602 3.7031 10.7072C3.7031 10.8124 3.66157 10.9132 3.58765 10.9876C3.51372 11.062 3.41345 11.1038 3.3089 11.1038Z" fill="#1D365A"/>
<path d="M4.89692 13.4983H4.09732C3.99277 13.4983 3.8925 13.4565 3.81858 13.3821C3.74465 13.3078 3.70312 13.2069 3.70312 13.1017C3.70312 12.9965 3.74465 12.8956 3.81858 12.8212C3.8925 12.7469 3.99277 12.7051 4.09732 12.7051H4.89692C5.00147 12.7051 5.10175 12.7469 5.17567 12.8212C5.2496 12.8956 5.29112 12.9965 5.29112 13.1017C5.29112 13.2069 5.2496 13.3078 5.17567 13.3821C5.10175 13.4565 5.00147 13.4983 4.89692 13.4983Z" fill="#1D365A"/>
<path d="M29.6386 8.19185C29.8526 8.45973 29.9675 8.7941 29.9637 9.13778C29.9697 9.4373 29.8879 9.73198 29.7286 9.98507C29.5614 10.2376 29.3252 10.4363 29.0485 10.5571C28.717 10.7019 28.3582 10.7723 27.9969 10.7634H25.4226V4.75858H27.885C28.2441 4.74978 28.601 4.81715 28.9326 4.95632C29.2039 5.07007 29.4359 5.26167 29.5997 5.50721C29.7518 5.74581 29.8306 6.02423 29.8262 6.30765C29.8372 6.62376 29.7392 6.93396 29.5486 7.18556C29.3585 7.424 29.1004 7.59817 28.809 7.68465C29.1387 7.74375 29.4346 7.92464 29.6386 8.19185ZM26.6193 7.23691H27.7144C27.9496 7.25231 28.1826 7.18372 28.3725 7.04322C28.4507 6.97472 28.5122 6.88905 28.5523 6.79283C28.5923 6.6966 28.6099 6.5924 28.6035 6.48828C28.6096 6.38352 28.5919 6.27874 28.5519 6.18184C28.5119 6.08493 28.4506 5.99842 28.3725 5.92883C28.1839 5.78544 27.9503 5.71509 27.7144 5.73063H26.6193V7.23691ZM28.505 9.57922C28.5874 9.50679 28.6521 9.41636 28.6943 9.31486C28.7365 9.21336 28.7551 9.10348 28.7486 8.99364C28.7543 8.87956 28.7342 8.76565 28.6898 8.66054C28.6453 8.55543 28.5777 8.46185 28.4921 8.38689C28.2951 8.23206 28.0491 8.15415 27.7994 8.16753H26.6193V9.78507H27.8254C28.0693 9.80007 28.3105 9.7269 28.5055 9.57877" fill="#AB2346"/>
<path d="M32.7111 6.14528C32.9706 5.99883 33.2642 5.92452 33.5617 5.92997V7.19616H33.2452C33.0854 7.17014 32.9217 7.18359 32.7682 7.23537C32.6147 7.28714 32.476 7.37567 32.3641 7.49335C32.2521 7.61103 32.1703 7.75432 32.1256 7.91088C32.0809 8.06744 32.0748 8.23259 32.1076 8.39209V10.7668H30.9109V5.99888H32.1062V6.73896C32.254 6.49284 32.4615 6.28855 32.7093 6.14528" fill="#AB2346"/>
<path d="M35.331 10.5364C34.9689 10.3357 34.6709 10.0358 34.4714 9.67152C34.2572 9.27608 34.1492 8.83127 34.158 8.381C34.1488 7.92965 34.2594 7.48399 34.4786 7.09003C34.6844 6.7248 34.9882 6.42512 35.3552 6.22518C35.7382 6.02463 36.1636 5.91992 36.5953 5.91992C37.0271 5.91992 37.4524 6.02463 37.8354 6.22518C38.2024 6.42516 38.5061 6.72483 38.712 7.09003C38.9313 7.48394 39.0422 7.9296 39.033 8.381C39.0422 8.83329 38.9284 9.27951 38.704 9.67152C38.4922 10.0367 38.1844 10.3359 37.8144 10.5364C37.4289 10.743 36.9976 10.8481 36.5608 10.8418C36.131 10.8484 35.7067 10.7432 35.3292 10.5364M37.1724 9.63278C37.3679 9.52187 37.5269 9.35591 37.6299 9.15531C37.7502 8.91557 37.809 8.64941 37.801 8.381C37.8134 8.19181 37.7884 8.00203 37.7275 7.8226C37.6667 7.64316 37.5711 7.47762 37.4464 7.33552C37.3348 7.21737 37.2 7.12388 37.0505 7.06099C36.9011 6.9981 36.7403 6.96718 36.5783 6.97021C36.4175 6.96667 36.2578 6.99739 36.1096 7.06035C35.9615 7.12331 35.8283 7.21709 35.7187 7.33552C35.4717 7.62496 35.3473 8.00031 35.3722 8.381C35.3472 8.76024 35.4682 9.13462 35.7102 9.42648C35.8176 9.54529 35.9491 9.63946 36.0959 9.70257C36.2427 9.76568 36.4013 9.79626 36.5608 9.79224C36.7749 9.79292 36.9855 9.73772 37.1724 9.63278Z" fill="#AB2346"/>
<path d="M39.9399 7.08212C40.1143 6.72771 40.384 6.42963 40.7184 6.22177C41.0497 6.02004 41.4304 5.91565 41.8176 5.92042C42.1399 5.91306 42.459 5.98709 42.7456 6.13574C42.9954 6.26587 43.2131 6.45055 43.3827 6.67627V5.9979H44.5888V10.7658H43.3827V10.0681C43.2176 10.3017 42.9991 10.492 42.7456 10.623C42.4566 10.7738 42.1345 10.8492 41.809 10.8424C41.4235 10.8462 41.045 10.7387 40.7184 10.5325C40.3841 10.3189 40.1147 10.0167 39.9399 9.6591C39.7428 9.25669 39.6446 8.81259 39.6534 8.36408C39.6449 7.91963 39.7431 7.48014 39.9399 7.08212ZM43.2112 7.62805C43.1051 7.42714 42.9451 7.26029 42.7492 7.14653C42.5596 7.03567 42.344 6.97767 42.1247 6.97851C41.9044 6.97609 41.6877 7.03459 41.4982 7.14762C41.3088 7.26065 41.1538 7.42388 41.0502 7.61949C40.9286 7.84822 40.8681 8.10478 40.8747 8.36408C40.8688 8.62603 40.9292 8.8852 41.0502 9.11722C41.1565 9.3216 41.3163 9.49292 41.5122 9.6127C41.6965 9.72558 41.9081 9.78513 42.1238 9.78477C42.343 9.78568 42.5586 9.72785 42.7483 9.61721C42.9441 9.50321 43.1042 9.33622 43.2103 9.13523C43.3228 8.90038 43.3813 8.64302 43.3813 8.38232C43.3813 8.12161 43.3228 7.86426 43.2103 7.6294" fill="#AB2346"/>
<path d="M45.7026 7.0821C45.8753 6.72862 46.1442 6.43177 46.4781 6.2261C46.8119 6.02044 47.197 5.91443 47.5884 5.92041C47.8935 5.91983 48.1947 5.98898 48.4694 6.12266C48.7323 6.24411 48.9614 6.42883 49.1365 6.66049V4.39746H50.3511V10.7649H49.1365V10.0595C48.9818 10.3008 48.7665 10.4967 48.5124 10.6275C48.2242 10.7758 47.9039 10.8498 47.5803 10.8429C47.1936 10.8463 46.8139 10.7388 46.4857 10.5329C46.1495 10.3203 45.8786 10.018 45.7031 9.65954C45.506 9.25714 45.4077 8.81303 45.4166 8.36451C45.408 7.92006 45.5063 7.48012 45.7031 7.0821M48.9744 7.62849C48.8685 7.42764 48.7085 7.26079 48.5129 7.14697C48.3234 7.03619 48.1079 6.97819 47.8888 6.97895C47.6685 6.97653 47.4518 7.03502 47.2623 7.14806C47.0728 7.26109 46.9179 7.42432 46.8143 7.61993C46.6927 7.84865 46.6322 8.10522 46.6388 8.36451C46.6329 8.62647 46.6933 8.88564 46.8143 9.11765C46.9206 9.32204 47.0804 9.49336 47.2763 9.61314C47.4605 9.72605 47.6721 9.78559 47.8879 9.78521C48.107 9.78604 48.3224 9.72821 48.512 9.61765C48.7076 9.50358 48.8675 9.3366 48.9736 9.13567C49.0862 8.90085 49.1447 8.64349 49.1447 8.38276C49.1447 8.12203 49.0862 7.86466 48.9736 7.62984" fill="#AB2346"/>
<path d="M52.2463 10.63C51.9582 10.5048 51.7066 10.3078 51.5152 10.0575C51.3394 9.82662 51.2366 9.5479 51.2202 9.25751H52.4263C52.4373 9.34805 52.4669 9.4353 52.5132 9.51376C52.5594 9.59222 52.6213 9.66018 52.6949 9.71336C52.8645 9.8378 53.0708 9.90126 53.2805 9.89354C53.4686 9.9045 53.6554 9.85633 53.8151 9.7557C53.8742 9.71805 53.9228 9.66596 53.9565 9.60428C53.9901 9.54261 54.0077 9.47337 54.0076 9.40301C54.008 9.3278 53.9858 9.25423 53.9438 9.19199C53.9019 9.12975 53.8422 9.08177 53.7726 9.05436C53.5311 8.94743 53.2805 8.86241 53.024 8.80031C52.7287 8.73244 52.4385 8.64332 52.1559 8.53365C51.931 8.44222 51.7314 8.2976 51.5739 8.11204C51.4023 7.89537 51.3157 7.62292 51.3303 7.34628C51.3291 7.08813 51.4083 6.83609 51.5569 6.62557C51.7219 6.39625 51.9469 6.21754 52.2069 6.10937C52.5222 5.97647 52.8618 5.91185 53.2035 5.91973C53.6901 5.89439 54.1696 6.0456 54.5547 6.34585C54.7219 6.48766 54.8578 6.66313 54.9535 6.86095C55.0493 7.05878 55.1029 7.27458 55.1107 7.49448H53.9646C53.959 7.40701 53.9352 7.3217 53.8947 7.2441C53.8542 7.16649 53.798 7.09833 53.7296 7.04404C53.5723 6.94348 53.3915 6.88638 53.2053 6.87847C53.0191 6.87057 52.8341 6.91213 52.669 6.99899C52.6134 7.0349 52.5681 7.0847 52.5374 7.14353C52.5067 7.20235 52.4917 7.26817 52.4939 7.33457C52.4934 7.41259 52.5159 7.489 52.5586 7.55417C52.6012 7.61934 52.662 7.67036 52.7335 7.70078C52.9719 7.81139 53.2213 7.89639 53.4775 7.95438C53.7656 8.02327 54.0485 8.11253 54.3241 8.22149C54.5479 8.31429 54.7459 8.46036 54.9012 8.64716C55.072 8.86319 55.1614 9.13296 55.1537 9.40886C55.1569 9.67331 55.0777 9.93213 54.9272 10.1489C54.7626 10.3777 54.5373 10.5552 54.2771 10.6611C53.964 10.7903 53.6278 10.8531 53.2895 10.8458C52.9306 10.8517 52.5747 10.7798 52.2459 10.635" fill="#AB2346"/>
<path d="M57.9534 6.13964C58.2396 5.98951 58.5587 5.91409 58.8815 5.92027C59.2686 5.91539 59.6493 6.01962 59.9806 6.22117C60.314 6.42822 60.5836 6.72456 60.7591 7.07701C60.9567 7.47619 61.055 7.91765 61.0457 8.36348C61.0544 8.81199 60.9561 9.25606 60.7591 9.6585C60.5842 10.016 60.3148 10.3182 59.9806 10.5319C59.6512 10.7389 59.2698 10.8464 58.8815 10.8418C58.562 10.8485 58.246 10.7745 57.9623 10.6265C57.711 10.4951 57.4908 10.3107 57.3168 10.086V13.0373H56.1191V5.99775H57.3168V6.68603C57.484 6.4565 57.7017 6.2694 57.9534 6.13964ZM59.647 7.61935C59.5402 7.42015 59.3804 7.25481 59.1855 7.14188C58.9967 7.03344 58.7828 6.97704 58.5654 6.97836C58.3502 6.97786 58.1389 7.03591 57.9538 7.14638C57.7586 7.26271 57.5989 7.43085 57.4923 7.63241C57.3769 7.86491 57.3169 8.1212 57.3169 8.38105C57.3169 8.64089 57.3769 8.89718 57.4923 9.12968C57.5989 9.33119 57.7586 9.49933 57.9538 9.61571C58.1407 9.72609 58.3536 9.78391 58.5703 9.78311C58.7869 9.78232 58.9994 9.72295 59.1855 9.6112C59.3803 9.49238 59.5398 9.32293 59.647 9.12067C59.769 8.88754 59.8294 8.62683 59.8225 8.36348C59.8292 8.10418 59.7687 7.84805 59.647 7.61935Z" fill="#AB2346"/>
<path d="M66.2709 8.7424H62.807C62.8172 9.04922 62.9457 9.34001 63.1652 9.5532C63.3769 9.74879 63.656 9.8538 63.9433 9.84599C64.141 9.85782 64.3375 9.80899 64.507 9.70595C64.6765 9.60292 64.8109 9.45054 64.8924 9.26897H66.184C66.0513 9.72239 65.7751 10.1198 65.3974 10.4009C64.9838 10.7047 64.4811 10.8605 63.9693 10.8437C63.5408 10.8506 63.118 10.7454 62.7421 10.5383C62.3832 10.3379 62.0892 10.0376 61.8955 9.67347C61.6872 9.27614 61.5828 8.83206 61.592 8.38295C61.5821 7.93138 61.6851 7.48453 61.8915 7.08342C62.0814 6.72049 62.3727 6.42142 62.7296 6.22308C63.1082 6.02661 63.5277 5.92338 63.9537 5.92189C64.3797 5.9204 64.7999 6.02069 65.1799 6.21452C65.5307 6.40422 65.819 6.69271 66.0094 7.04469C66.2112 7.42421 66.3128 7.84948 66.3045 8.2798C66.3056 8.43528 66.2943 8.59059 66.2705 8.74421M65.0644 7.93341C65.0669 7.79228 65.0382 7.65235 64.9806 7.52368C64.9229 7.39501 64.8376 7.2808 64.7308 7.18928C64.5089 7.00092 64.2259 6.90134 63.9357 6.90955C63.6612 6.90114 63.3937 6.99771 63.1871 7.17982C62.9763 7.37683 62.844 7.64443 62.8151 7.93251L65.0644 7.93341Z" fill="#AB2346"/>
<path d="M67.298 7.08647C67.4879 6.72636 67.7756 6.42798 68.1276 6.22612C68.4984 6.01798 68.9176 5.9126 69.3422 5.92072C69.8637 5.9003 70.377 6.05636 70.7999 6.36396C71.1946 6.67447 71.4685 7.11441 71.574 7.60718H70.2824C70.2219 7.41187 70.1003 7.24142 69.9358 7.12115C69.7582 6.99899 69.5464 6.93727 69.3314 6.94503C69.1763 6.93862 69.0219 6.96918 68.8808 7.03423C68.7396 7.09928 68.6158 7.19698 68.5193 7.31935C68.3235 7.63729 68.2198 8.00388 68.2198 8.37789C68.2198 8.7519 68.3235 9.11849 68.5193 9.43643C68.6158 9.5588 68.7396 9.6565 68.8808 9.72155C69.0219 9.7866 69.1763 9.81716 69.3314 9.81075C69.5404 9.82878 69.7491 9.77349 69.9221 9.65427C70.0951 9.53504 70.2218 9.35924 70.2806 9.15671H71.5722C71.4595 9.64412 71.1848 10.0782 70.7936 10.3873C70.3749 10.7015 69.862 10.8623 69.3399 10.8432C68.9153 10.8513 68.4962 10.7459 68.1253 10.5378C67.7734 10.3358 67.4857 10.0375 67.2957 9.67742C67.0988 9.27448 66.9963 8.83143 66.9963 8.3824C66.9963 7.93336 67.0988 7.49031 67.2957 7.08737" fill="#AB2346"/>
<path d="M73.9305 6.98777V9.29403C73.9246 9.35703 73.9319 9.42056 73.9517 9.48059C73.9716 9.54061 74.0037 9.59581 74.046 9.64268C74.1582 9.72517 74.2967 9.76332 74.435 9.74988H74.9911V10.7652H74.2385C73.2293 10.7652 72.7248 10.2719 72.7248 9.28548V6.98822H72.1584V5.99725H72.723V4.81934H73.9287V5.99815H74.9893V6.98912L73.9305 6.98777Z" fill="#AB2346"/>
<path d="M77.7725 6.14528C78.0321 5.99882 78.3257 5.9245 78.6232 5.92997V7.19616H78.3067C78.1468 7.17003 77.9831 7.18341 77.8295 7.23514C77.676 7.28687 77.5372 7.37541 77.4253 7.49312C77.3133 7.61082 77.2315 7.75416 77.1868 7.91077C77.1422 8.06739 77.1361 8.23257 77.1691 8.39209V10.7668H75.9714V5.99889H77.1691V6.73896C77.3167 6.49278 77.5247 6.28847 77.7725 6.14528Z" fill="#AB2346"/>
<path d="M83.923 5.99902V10.7661H82.7169V10.1638C82.5592 10.3736 82.3521 10.5406 82.1143 10.6498C81.8613 10.7684 81.5852 10.8285 81.3062 10.826C80.9631 10.8332 80.624 10.7518 80.3212 10.5895C80.0337 10.4293 79.8 10.1867 79.6496 9.89265C79.4796 9.55291 79.396 9.17606 79.4061 8.79582V5.99902H80.6037V8.62375C80.5828 8.94039 80.6838 9.25299 80.8857 9.49671C80.9849 9.60003 81.1049 9.68075 81.2376 9.73343C81.3704 9.78611 81.5128 9.80954 81.6553 9.80211C81.7992 9.8101 81.9431 9.78697 82.0773 9.73429C82.2115 9.68161 82.333 9.6006 82.4335 9.49671C82.6355 9.25301 82.7365 8.9404 82.7155 8.62375V5.99902H83.923Z" fill="#AB2346"/>
<path d="M92.4639 6.46738C92.6492 6.66841 92.7921 6.90511 92.884 7.16322C92.9759 7.42133 93.0148 7.69549 92.9985 7.96916V10.7655H91.8014V8.13222C91.8224 7.82071 91.7209 7.51335 91.5188 7.27638C91.4183 7.17547 91.2979 7.09691 91.1653 7.04578C91.0328 6.99465 90.891 6.97208 90.7492 6.97954C90.6068 6.97239 90.4645 6.99509 90.3312 7.04618C90.198 7.09728 90.0767 7.17567 89.9751 7.27638C89.8738 7.39308 89.7963 7.52874 89.7472 7.6756C89.698 7.82245 89.6782 7.97762 89.6886 8.13222V10.7655H88.4915V8.13222C88.5124 7.8208 88.4111 7.51354 88.2094 7.27638C88.1089 7.1755 87.9885 7.09695 87.8559 7.04582C87.7234 6.99469 87.5816 6.97211 87.4398 6.97954C87.296 6.9718 87.1523 6.99419 87.0176 7.04528C86.8829 7.09638 86.7602 7.17508 86.6573 7.27638C86.556 7.39311 86.4785 7.52878 86.4294 7.67562C86.3802 7.82247 86.3603 7.97762 86.3707 8.13222V10.7655H85.1731V5.99847H86.3707V6.57504C86.5282 6.37151 86.7321 6.20926 86.9653 6.10207C87.2157 5.98554 87.4889 5.92676 87.7649 5.93001C88.11 5.92392 88.4512 6.00524 88.757 6.16649C89.0433 6.31993 89.2783 6.55496 89.4326 6.84215C89.5908 6.56286 89.8234 6.33355 90.1041 6.18C90.4786 5.97575 90.907 5.89377 91.3299 5.94542C91.7528 5.99707 92.1493 6.1798 92.4644 6.46828" fill="#AB2346"/>
</svg>
