<svg width="93" height="17" viewBox="0 0 93 17" fill="none" xmlns="http://www.w3.org/2000/svg">
<path d="M15.6277 1.73956H12.4136C12.3085 1.74207 12.204 1.72343 12.1062 1.68471C12.0084 1.64599 11.9192 1.58798 11.844 1.51409C11.7688 1.44021 11.7091 1.35193 11.6683 1.25447C11.6275 1.157 11.6064 1.05231 11.6064 0.946551C11.6064 0.840792 11.6275 0.7361 11.6683 0.638635C11.7091 0.541169 11.7688 0.452896 11.844 0.379009C11.9192 0.305123 12.0084 0.247113 12.1062 0.208394C12.204 0.169674 12.3085 0.151026 12.4136 0.153546H15.6277C15.7328 0.151026 15.8373 0.169674 15.9351 0.208394C16.0329 0.247113 16.1221 0.305123 16.1973 0.379009C16.2725 0.452896 16.3322 0.541169 16.373 0.638635C16.4138 0.7361 16.4349 0.840792 16.4349 0.946551C16.4349 1.05231 16.4138 1.157 16.373 1.25447C16.3322 1.35193 16.2725 1.44021 16.1973 1.51409C16.1221 1.58798 16.0329 1.64599 15.9351 1.68471C15.8373 1.72343 15.7328 1.74207 15.6277 1.73956Z" fill="#AB2346"/>
<path d="M17.2238 4.14288H12.4146C12.3095 4.1454 12.205 4.12675 12.1072 4.08803C12.0094 4.04931 11.9202 3.9913 11.845 3.91741C11.7698 3.84353 11.71 3.75525 11.6692 3.65779C11.6284 3.56032 11.6074 3.45563 11.6074 3.34987C11.6074 3.24411 11.6284 3.13942 11.6692 3.04195C11.71 2.94449 11.7698 2.85622 11.845 2.78233C11.9202 2.70844 12.0094 2.65043 12.1072 2.61171C12.205 2.57299 12.3095 2.55435 12.4146 2.55687H17.2238C17.3289 2.55435 17.4334 2.57299 17.5312 2.61171C17.6291 2.65043 17.7182 2.70844 17.7934 2.78233C17.8686 2.85622 17.9284 2.94449 17.9692 3.04195C18.01 3.13942 18.031 3.24411 18.031 3.34987C18.031 3.45563 18.01 3.56032 17.9692 3.65779C17.9284 3.75525 17.8686 3.84353 17.7934 3.91741C17.7182 3.9913 17.6291 4.04931 17.5312 4.08803C17.4334 4.12675 17.3289 4.1454 17.2238 4.14288Z" fill="#AB2346"/>
<path d="M18.8073 6.54522H12.4136C12.2079 6.54028 12.0122 6.45457 11.8684 6.30639C11.7245 6.15821 11.644 5.95932 11.644 5.75221C11.644 5.54511 11.7245 5.34622 11.8684 5.19804C12.0122 5.04986 12.2079 4.96414 12.4136 4.95921H18.8073C18.9124 4.95669 19.0169 4.97534 19.1147 5.01406C19.2125 5.05278 19.3017 5.11078 19.3769 5.18467C19.4521 5.25856 19.5118 5.34683 19.5526 5.4443C19.5934 5.54176 19.6145 5.64645 19.6145 5.75221C19.6145 5.85797 19.5934 5.96266 19.5526 6.06013C19.5118 6.1576 19.4521 6.24587 19.3769 6.31976C19.3017 6.39364 19.2125 6.45165 19.1147 6.49037C19.0169 6.52909 18.9124 6.54774 18.8073 6.54522Z" fill="#AB2346"/>
<path d="M15.6277 11.3519H12.4136C12.3085 11.3544 12.204 11.3357 12.1062 11.297C12.0084 11.2583 11.9192 11.2003 11.844 11.1264C11.7688 11.0525 11.7091 10.9642 11.6683 10.8668C11.6275 10.7693 11.6064 10.6646 11.6064 10.5589C11.6064 10.4531 11.6275 10.3484 11.6683 10.2509C11.7091 10.1535 11.7688 10.0652 11.844 9.99132C11.9192 9.91743 12.0084 9.85942 12.1062 9.8207C12.204 9.78198 12.3085 9.76333 12.4136 9.76585H15.6277C15.7328 9.76333 15.8373 9.78198 15.9351 9.8207C16.0329 9.85942 16.1221 9.91743 16.1973 9.99132C16.2725 10.0652 16.3322 10.1535 16.373 10.2509C16.4138 10.3484 16.4349 10.4531 16.4349 10.5589C16.4349 10.6646 16.4138 10.7693 16.373 10.8668C16.3322 10.9642 16.2725 11.0525 16.1973 11.1264C16.1221 11.2003 16.0329 11.2583 15.9351 11.297C15.8373 11.3357 15.7328 11.3544 15.6277 11.3519Z" fill="#AB2346"/>
<path d="M14.8308 13.7552H12.4132C12.3081 13.7577 12.2036 13.739 12.1057 13.7003C12.0079 13.6616 11.9188 13.6036 11.8436 13.5297C11.7684 13.4558 11.7086 13.3676 11.6678 13.2701C11.627 13.1726 11.606 13.0679 11.606 12.9622C11.606 12.8564 11.627 12.7517 11.6678 12.6543C11.7086 12.5568 11.7684 12.4685 11.8436 12.3946C11.9188 12.3207 12.0079 12.2627 12.1057 12.224C12.2036 12.1853 12.3081 12.1667 12.4132 12.1692H14.8308C14.9358 12.1667 15.0404 12.1853 15.1382 12.224C15.236 12.2627 15.3251 12.3207 15.4003 12.3946C15.4755 12.4685 15.5353 12.5568 15.5761 12.6543C15.6169 12.7517 15.6379 12.8564 15.6379 12.9622C15.6379 13.0679 15.6169 13.1726 15.5761 13.2701C15.5353 13.3676 15.4755 13.4558 15.4003 13.5297C15.3251 13.6036 15.236 13.6616 15.1382 13.7003C15.0404 13.739 14.9358 13.7577 14.8308 13.7552Z" fill="#AB2346"/>
<path d="M10.0516 1.73956H8.43317C8.32809 1.74207 8.22355 1.72343 8.12573 1.68471C8.02792 1.64599 7.93878 1.58798 7.86357 1.51409C7.78836 1.44021 7.72862 1.35193 7.68781 1.25447C7.64701 1.157 7.62598 1.05231 7.62598 0.946551C7.62598 0.840792 7.64701 0.7361 7.68781 0.638635C7.72862 0.541169 7.78836 0.452896 7.86357 0.379009C7.93878 0.305123 8.02792 0.247113 8.12573 0.208394C8.22355 0.169674 8.32809 0.151026 8.43317 0.153546H10.0516C10.1567 0.151026 10.2612 0.169674 10.3591 0.208394C10.4569 0.247113 10.546 0.305123 10.6212 0.379009C10.6964 0.452896 10.7562 0.541169 10.797 0.638635C10.8378 0.7361 10.8588 0.840792 10.8588 0.946551C10.8588 1.05231 10.8378 1.157 10.797 1.25447C10.7562 1.35193 10.6964 1.44021 10.6212 1.51409C10.546 1.58798 10.4569 1.64599 10.3591 1.68471C10.2612 1.72343 10.1567 1.74207 10.0516 1.73956Z" fill="#82AEC9"/>
<path d="M10.0518 4.14288H6.85114C6.74606 4.1454 6.64155 4.12675 6.54373 4.08803C6.44591 4.04931 6.35678 3.9913 6.28157 3.91741C6.20636 3.84353 6.14659 3.75525 6.10578 3.65779C6.06498 3.56032 6.04395 3.45563 6.04395 3.34987C6.04395 3.24411 6.06498 3.13942 6.10578 3.04195C6.14659 2.94449 6.20636 2.85622 6.28157 2.78233C6.35678 2.70844 6.44591 2.65043 6.54373 2.61171C6.64155 2.57299 6.74606 2.55435 6.85114 2.55687H10.0518C10.1568 2.55435 10.2614 2.57299 10.3592 2.61171C10.457 2.65043 10.5462 2.70844 10.6214 2.78233C10.6966 2.85622 10.7563 2.94449 10.7971 3.04195C10.838 3.13942 10.859 3.24411 10.859 3.34987C10.859 3.45563 10.838 3.56032 10.7971 3.65779C10.7563 3.75525 10.6966 3.84353 10.6214 3.91741C10.5462 3.9913 10.457 4.04931 10.3592 4.08803C10.2614 4.12675 10.1568 4.1454 10.0518 4.14288Z" fill="#82AEC9"/>
<path d="M10.0512 6.54522H5.26667C5.16158 6.54774 5.05705 6.52909 4.95923 6.49037C4.86141 6.45165 4.77228 6.39364 4.69707 6.31976C4.62186 6.24587 4.56209 6.1576 4.52128 6.06013C4.48048 5.96266 4.45947 5.85797 4.45947 5.75221C4.45947 5.64645 4.48048 5.54176 4.52128 5.4443C4.56209 5.34683 4.62186 5.25856 4.69707 5.18467C4.77228 5.11078 4.86141 5.05278 4.95923 5.01406C5.05705 4.97534 5.16158 4.95669 5.26667 4.95921H10.0512C10.1563 4.95669 10.2609 4.97534 10.3587 5.01406C10.4565 5.05278 10.5456 5.11078 10.6208 5.18467C10.6961 5.25856 10.7558 5.34683 10.7966 5.4443C10.8374 5.54176 10.8584 5.64645 10.8584 5.75221C10.8584 5.85797 10.8374 5.96266 10.7966 6.06013C10.7558 6.1576 10.6961 6.24587 10.6208 6.31976C10.5456 6.39364 10.4565 6.45165 10.3587 6.49037C10.2609 6.52909 10.1563 6.54774 10.0512 6.54522Z" fill="#82AEC9"/>
<path d="M10.0516 8.94854H3.6656C3.56051 8.95106 3.456 8.93241 3.35818 8.89369C3.26037 8.85497 3.17123 8.79696 3.09602 8.72308C3.02081 8.64919 2.96104 8.56092 2.92024 8.46345C2.87943 8.36598 2.8584 8.26129 2.8584 8.15553C2.8584 8.04977 2.87943 7.94508 2.92024 7.84762C2.96104 7.75015 3.02081 7.66188 3.09602 7.58799C3.17123 7.51411 3.26037 7.45609 3.35818 7.41737C3.456 7.37866 3.56051 7.36001 3.6656 7.36253H10.0516C10.1567 7.36001 10.2612 7.37866 10.359 7.41737C10.4569 7.45609 10.546 7.51411 10.6212 7.58799C10.6964 7.66188 10.7562 7.75015 10.797 7.84762C10.8378 7.94508 10.8588 8.04977 10.8588 8.15553C10.8588 8.26129 10.8378 8.36598 10.797 8.46345C10.7562 8.56092 10.6964 8.64919 10.6212 8.72308C10.546 8.79696 10.4569 8.85497 10.359 8.89369C10.2612 8.93241 10.1567 8.95106 10.0516 8.94854Z" fill="#82AEC9"/>
<path d="M20.4034 8.94854H12.4146C12.3095 8.95106 12.205 8.93241 12.1072 8.89369C12.0094 8.85497 11.9202 8.79696 11.845 8.72308C11.7698 8.64919 11.71 8.56092 11.6692 8.46345C11.6284 8.36598 11.6074 8.26129 11.6074 8.15553C11.6074 8.04977 11.6284 7.94508 11.6692 7.84762C11.71 7.75015 11.7698 7.66188 11.845 7.58799C11.9202 7.51411 12.0094 7.45609 12.1072 7.41737C12.205 7.37866 12.3095 7.36001 12.4146 7.36253H20.4034C20.5085 7.36001 20.613 7.37866 20.7108 7.41737C20.8086 7.45609 20.8978 7.51411 20.973 7.58799C21.0482 7.66188 21.108 7.75015 21.1488 7.84762C21.1896 7.94508 21.2106 8.04977 21.2106 8.15553C21.2106 8.26129 21.1896 8.36598 21.1488 8.46345C21.108 8.56092 21.0482 8.64919 20.973 8.72308C20.8978 8.79696 20.8086 8.85497 20.7108 8.89369C20.613 8.93241 20.5085 8.95106 20.4034 8.94854Z" fill="#82AEC9"/>
<path d="M10.0517 11.3519H5.2613C5.15621 11.3544 5.0517 11.3357 4.95389 11.297C4.85607 11.2583 4.76693 11.2003 4.69172 11.1264C4.61652 11.0525 4.55674 10.9642 4.51594 10.8668C4.47514 10.7693 4.4541 10.6646 4.4541 10.5589C4.4541 10.4531 4.47514 10.3484 4.51594 10.2509C4.55674 10.1535 4.61652 10.0652 4.69172 9.99132C4.76693 9.91743 4.85607 9.85942 4.95389 9.8207C5.0517 9.78198 5.15621 9.76333 5.2613 9.76585H10.0517C10.1568 9.76333 10.2613 9.78198 10.3592 9.8207C10.457 9.85942 10.5461 9.91743 10.6213 9.99132C10.6965 10.0652 10.7563 10.1535 10.7971 10.2509C10.8379 10.3484 10.8589 10.4531 10.8589 10.5589C10.8589 10.6646 10.8379 10.7693 10.7971 10.8668C10.7563 10.9642 10.6965 11.0525 10.6213 11.1264C10.5461 11.2003 10.457 11.2583 10.3592 11.297C10.2613 11.3357 10.1568 11.3544 10.0517 11.3519Z" fill="#82AEC9"/>
<path d="M20.4033 11.3519H17.9889C17.7831 11.3469 17.5874 11.2612 17.4436 11.113C17.2997 10.9649 17.2192 10.766 17.2192 10.5589C17.2192 10.3517 17.2997 10.1529 17.4436 10.0047C17.5874 9.8565 17.7831 9.77079 17.9889 9.76585H20.4033C20.5084 9.76333 20.6129 9.78198 20.7108 9.8207C20.8086 9.85942 20.8977 9.91743 20.9729 9.99132C21.0481 10.0652 21.1079 10.1535 21.1487 10.2509C21.1895 10.3484 21.2105 10.4531 21.2105 10.5589C21.2105 10.6646 21.1895 10.7693 21.1487 10.8668C21.1079 10.9642 21.0481 11.0525 20.9729 11.1264C20.8977 11.2003 20.8086 11.2583 20.7108 11.297C20.6129 11.3357 20.5084 11.3544 20.4033 11.3519Z" fill="#82AEC9"/>
<path d="M10.0513 13.7552H6.84528C6.7402 13.7577 6.63566 13.739 6.53784 13.7003C6.44003 13.6616 6.35089 13.6036 6.27568 13.5297C6.20047 13.4558 6.1407 13.3676 6.0999 13.2701C6.05909 13.1726 6.03809 13.0679 6.03809 12.9622C6.03809 12.8564 6.05909 12.7517 6.0999 12.6543C6.1407 12.5568 6.20047 12.4685 6.27568 12.3946C6.35089 12.3207 6.44003 12.2627 6.53784 12.224C6.63566 12.1853 6.7402 12.1667 6.84528 12.1692H10.0513C10.1563 12.1667 10.2609 12.1853 10.3587 12.224C10.4565 12.2627 10.5456 12.3207 10.6209 12.3946C10.6961 12.4685 10.7558 12.5568 10.7966 12.6543C10.8374 12.7517 10.8585 12.8564 10.8585 12.9622C10.8585 13.0679 10.8374 13.1726 10.7966 13.2701C10.7558 13.3676 10.6961 13.4558 10.6209 13.5297C10.5456 13.6036 10.4565 13.6616 10.3587 13.7003C10.2609 13.739 10.1563 13.7577 10.0513 13.7552Z" fill="#82AEC9"/>
<path d="M20.5517 13.7552H17.2047C16.9989 13.7502 16.8032 13.6645 16.6594 13.5164C16.5156 13.3682 16.4351 13.1693 16.4351 12.9622C16.4351 12.7551 16.5156 12.5562 16.6594 12.408C16.8032 12.2598 16.9989 12.1741 17.2047 12.1692H20.5517C20.6568 12.1667 20.7613 12.1853 20.8591 12.224C20.9569 12.2627 21.0461 12.3207 21.1213 12.3946C21.1965 12.4685 21.2563 12.5568 21.2971 12.6543C21.3379 12.7517 21.3589 12.8564 21.3589 12.9622C21.3589 13.0679 21.3379 13.1726 21.2971 13.2701C21.2563 13.3676 21.1965 13.4558 21.1213 13.5297C21.0461 13.6036 20.9569 13.6616 20.8591 13.7003C20.7613 13.739 20.6568 13.7577 20.5517 13.7552Z" fill="#82AEC9"/>
<path d="M10.0516 16.1585H8.43317C8.32809 16.161 8.22355 16.1424 8.12573 16.1037C8.02792 16.0649 7.93878 16.0069 7.86357 15.933C7.78836 15.8591 7.72862 15.7709 7.68781 15.6734C7.64701 15.5759 7.62598 15.4713 7.62598 15.3655C7.62598 15.2597 7.64701 15.155 7.68781 15.0576C7.72862 14.9601 7.78836 14.8718 7.86357 14.798C7.93878 14.7241 8.02792 14.6661 8.12573 14.6273C8.22355 14.5886 8.32809 14.57 8.43317 14.5725H10.0516C10.1567 14.57 10.2612 14.5886 10.3591 14.6273C10.4569 14.6661 10.546 14.7241 10.6212 14.798C10.6964 14.8718 10.7562 14.9601 10.797 15.0576C10.8378 15.155 10.8588 15.2597 10.8588 15.3655C10.8588 15.4713 10.8378 15.5759 10.797 15.6734C10.7562 15.7709 10.6964 15.8591 10.6212 15.933C10.546 16.0069 10.4569 16.0649 10.3591 16.1037C10.2612 16.1424 10.1567 16.161 10.0516 16.1585Z" fill="#82AEC9"/>
<path d="M15.6277 16.1575H12.4136C12.3085 16.16 12.204 16.1414 12.1062 16.1027C12.0084 16.064 11.9192 16.0059 11.844 15.9321C11.7688 15.8582 11.7091 15.7699 11.6683 15.6724C11.6275 15.575 11.6064 15.4703 11.6064 15.3645C11.6064 15.2588 11.6275 15.1541 11.6683 15.0566C11.7091 14.9591 11.7688 14.8709 11.844 14.797C11.9192 14.7231 12.0084 14.6651 12.1062 14.6264C12.204 14.5876 12.3085 14.569 12.4136 14.5715H15.6277C15.7328 14.569 15.8373 14.5876 15.9351 14.6264C16.0329 14.6651 16.1221 14.7231 16.1973 14.797C16.2725 14.8709 16.3322 14.9591 16.373 15.0566C16.4138 15.1541 16.4349 15.2588 16.4349 15.3645C16.4349 15.4703 16.4138 15.575 16.373 15.6724C16.3322 15.7699 16.2725 15.8582 16.1973 15.9321C16.1221 16.0059 16.0329 16.064 15.9351 16.1027C15.8373 16.1414 15.7328 16.16 15.6277 16.1575Z" fill="#82AEC9"/>
<path d="M6.88158 1.55214C6.88158 1.67196 6.84626 1.78909 6.78009 1.88873C6.71392 1.98836 6.61987 2.06601 6.50984 2.11186C6.39981 2.15772 6.27874 2.16972 6.16193 2.14634C6.04512 2.12296 5.93783 2.06526 5.85362 1.98053C5.7694 1.8958 5.71205 1.78785 5.68882 1.67033C5.66558 1.55281 5.67751 1.43099 5.72308 1.32029C5.76866 1.20958 5.84583 1.11496 5.94486 1.04839C6.04388 0.981821 6.16031 0.946289 6.2794 0.946289C6.43911 0.946289 6.59226 1.01012 6.70519 1.12374C6.81812 1.23736 6.88158 1.39146 6.88158 1.55214Z" fill="#1D365A"/>
<path d="M6.85863 15.1586C6.85863 15.2784 6.82331 15.3955 6.75714 15.4952C6.69098 15.5948 6.59692 15.6725 6.48689 15.7183C6.37686 15.7642 6.25579 15.7762 6.13898 15.7528C6.02217 15.7294 5.91488 15.6717 5.83067 15.587C5.74645 15.5022 5.6891 15.3943 5.66587 15.2768C5.64263 15.1592 5.65456 15.0374 5.70013 14.9267C5.74571 14.816 5.82291 14.7214 5.92194 14.6548C6.02096 14.5883 6.13736 14.5527 6.25645 14.5527C6.41616 14.5527 6.56934 14.6166 6.68227 14.7302C6.7952 14.8438 6.85863 14.9979 6.85863 15.1586Z" fill="#1D365A"/>
<path d="M4.86551 4.14284H4.06949C3.96494 4.14284 3.86467 4.10105 3.79074 4.02667C3.71682 3.95229 3.67529 3.85142 3.67529 3.74623C3.67529 3.64104 3.71682 3.54016 3.79074 3.46578C3.86467 3.3914 3.96494 3.34961 4.06949 3.34961H4.86551C4.97006 3.34961 5.07033 3.3914 5.14426 3.46578C5.21819 3.54016 5.25971 3.64104 5.25971 3.74623C5.25971 3.85142 5.21819 3.95229 5.14426 4.02667C5.07033 4.10105 4.97006 4.14284 4.86551 4.14284Z" fill="#1D365A"/>
<path d="M3.27059 6.54616H1.68082C1.57627 6.54616 1.476 6.50438 1.40207 6.43C1.32814 6.35562 1.28662 6.25473 1.28662 6.14955C1.28662 6.04436 1.32814 5.94348 1.40207 5.8691C1.476 5.79472 1.57627 5.75293 1.68082 5.75293H3.27059C3.37514 5.75293 3.47542 5.79472 3.54934 5.8691C3.62327 5.94348 3.66482 6.04436 3.66482 6.14955C3.66482 6.25473 3.62327 6.35562 3.54934 6.43C3.47542 6.50438 3.37514 6.54616 3.27059 6.54616Z" fill="#1D365A"/>
<path d="M3.28082 10.5423H0.893222C0.788673 10.5423 0.688428 10.5005 0.614501 10.4261C0.540574 10.3517 0.499023 10.2508 0.499023 10.1456C0.499023 10.0404 0.540574 9.93957 0.614501 9.86519C0.688428 9.79081 0.788673 9.74902 0.893222 9.74902H3.28082C3.38537 9.74902 3.48564 9.79081 3.55957 9.86519C3.6335 9.93957 3.67502 10.0404 3.67502 10.1456C3.67502 10.2508 3.6335 10.3517 3.55957 10.4261C3.48564 10.5005 3.38537 10.5423 3.28082 10.5423Z" fill="#1D365A"/>
<path d="M4.86909 12.9368H4.06949C3.96494 12.9368 3.86467 12.895 3.79074 12.8206C3.71682 12.7462 3.67529 12.6454 3.67529 12.5402C3.67529 12.435 3.71682 12.3341 3.79074 12.2597C3.86467 12.1853 3.96494 12.1436 4.06949 12.1436H4.86909C4.97364 12.1436 5.07391 12.1853 5.14784 12.2597C5.22177 12.3341 5.26329 12.435 5.26329 12.5402C5.26329 12.6454 5.22177 12.7462 5.14784 12.8206C5.07391 12.895 4.97364 12.9368 4.86909 12.9368Z" fill="#1D365A"/>
<path d="M29.611 7.63033C29.8251 7.89821 29.94 8.23258 29.9361 8.57626C29.9421 8.87578 29.8603 9.17046 29.701 9.42354C29.5338 9.67611 29.2976 9.87475 29.021 9.9956C28.6894 10.1403 28.3306 10.2107 27.9693 10.2019H25.395V4.19705H27.8574C28.2165 4.18825 28.5734 4.25563 28.905 4.3948C29.1763 4.50854 29.4083 4.70014 29.5721 4.94569C29.7242 5.18429 29.803 5.46271 29.7986 5.74613C29.8096 6.06224 29.7116 6.37244 29.521 6.62404C29.3309 6.86248 29.0728 7.03665 28.7814 7.12313C29.1111 7.18222 29.407 7.36311 29.611 7.63033ZM26.5917 6.67539H27.6868C27.922 6.69079 28.1551 6.6222 28.3449 6.4817C28.4231 6.4132 28.4846 6.32753 28.5247 6.2313C28.5648 6.13508 28.5823 6.03088 28.5759 5.92675C28.582 5.822 28.5644 5.71722 28.5243 5.62032C28.4843 5.52341 28.423 5.4369 28.3449 5.3673C28.1563 5.22391 27.9227 5.15357 27.6868 5.16911H26.5917V6.67539ZM28.4775 9.01769C28.5598 8.94527 28.6245 8.85484 28.6667 8.75334C28.709 8.65183 28.7275 8.54195 28.721 8.43212C28.7267 8.31803 28.7066 8.20413 28.6622 8.09902C28.6177 7.9939 28.5501 7.90033 28.4645 7.82537C28.2675 7.67054 28.0215 7.59262 27.7719 7.606H26.5917V9.22355H27.7978C28.0417 9.23855 28.2829 9.16538 28.4779 9.01724" fill="#AB2346"/>
<path d="M32.683 5.58278C32.9426 5.43633 33.2362 5.36202 33.5337 5.36747V6.63366H33.2171C33.0573 6.60764 32.8936 6.62109 32.7401 6.67287C32.5866 6.72464 32.4479 6.81317 32.336 6.93085C32.224 7.04853 32.1422 7.19182 32.0975 7.34838C32.0529 7.50494 32.0467 7.67009 32.0795 7.82959V10.2043H30.8828V5.43638H32.0782V6.17646C32.2259 5.93034 32.4335 5.72605 32.6812 5.58278" fill="#AB2346"/>
<path d="M35.3029 9.97484C34.9408 9.77416 34.6428 9.47427 34.4433 9.10999C34.2291 8.71456 34.1211 8.26975 34.1299 7.81948C34.1207 7.36812 34.2314 6.92247 34.4505 6.5285C34.6564 6.16327 34.9601 5.8636 35.3271 5.66366C35.7101 5.46311 36.1355 5.3584 36.5672 5.3584C36.999 5.3584 37.4244 5.46311 37.8073 5.66366C38.1743 5.86364 38.478 6.1633 38.684 6.5285C38.9032 6.92241 39.0141 7.36808 39.005 7.81948C39.0141 8.27177 38.9003 8.71799 38.6759 9.10999C38.4641 9.47514 38.1563 9.77441 37.7863 9.97484C37.4008 10.1815 36.9695 10.2866 36.5327 10.2802C36.1029 10.2869 35.6787 10.1817 35.3011 9.97484M37.1443 9.07126C37.3398 8.96034 37.4988 8.79439 37.6019 8.59378C37.7221 8.35405 37.7809 8.08788 37.7729 7.81948C37.7853 7.63029 37.7603 7.44051 37.6995 7.26107C37.6386 7.08164 37.5431 6.9161 37.4183 6.774C37.3067 6.65585 37.1719 6.56236 37.0224 6.49947C36.873 6.43657 36.7122 6.40566 36.5502 6.40869C36.3894 6.40515 36.2297 6.43587 36.0816 6.49883C35.9334 6.56179 35.8002 6.65556 35.6906 6.774C35.4436 7.06344 35.3192 7.43879 35.3441 7.81948C35.3191 8.19872 35.4401 8.57309 35.6821 8.86495C35.7895 8.98377 35.9211 9.07793 36.0678 9.14104C36.2146 9.20416 36.3732 9.23474 36.5327 9.23071C36.7468 9.2314 36.9574 9.17619 37.1443 9.07126Z" fill="#AB2346"/>
<path d="M39.9121 6.52059C40.0865 6.16618 40.3562 5.86811 40.6906 5.66024C41.0218 5.45851 41.4026 5.35412 41.7897 5.3589C42.1121 5.35154 42.4312 5.42556 42.7178 5.57421C42.9676 5.70434 43.1852 5.88903 43.3549 6.11474V5.43638H44.561V10.2043H43.3549V9.50658C43.1897 9.74021 42.9713 9.93052 42.7178 10.0615C42.4287 10.2123 42.1067 10.2877 41.7812 10.2809C41.3957 10.2847 41.0172 10.1772 40.6906 9.97099C40.3562 9.75738 40.0869 9.45517 39.9121 9.09758C39.715 8.69517 39.6167 8.25107 39.6255 7.80255C39.617 7.35811 39.7153 6.91862 39.9121 6.52059ZM43.1834 7.06653C43.0773 6.86562 42.9172 6.69876 42.7214 6.585C42.5318 6.47415 42.3162 6.41615 42.0968 6.41699C41.8766 6.41456 41.6599 6.47306 41.4704 6.5861C41.2809 6.69913 41.1259 6.86236 41.0224 7.05797C40.9008 7.28669 40.8403 7.54326 40.8469 7.80255C40.8409 8.06451 40.9013 8.32368 41.0224 8.55569C41.1287 8.76008 41.2884 8.93139 41.4844 9.05118C41.6686 9.16406 41.8802 9.2236 42.0959 9.22325C42.3152 9.22416 42.5308 9.16632 42.7205 9.05568C42.9163 8.94169 43.0764 8.7747 43.1825 8.57371C43.295 8.33885 43.3534 8.0815 43.3534 7.82079C43.3534 7.56009 43.295 7.30273 43.1825 7.06788" fill="#AB2346"/>
<path d="M45.6748 6.52058C45.8475 6.1671 46.1164 5.87025 46.4502 5.66458C46.7841 5.45891 47.1691 5.3529 47.5605 5.35889C47.8657 5.3583 48.1669 5.42746 48.4416 5.56113C48.7045 5.68259 48.9336 5.86731 49.1087 6.09896V3.83594H50.3233V10.2034H49.1087V9.49801C48.9539 9.73929 48.7387 9.93522 48.4846 10.066C48.1964 10.2143 47.8761 10.2883 47.5525 10.2813C47.1657 10.2848 46.786 10.1773 46.4578 9.97142C46.1216 9.7588 45.8507 9.45643 45.6753 9.09801C45.4782 8.69561 45.3799 8.25151 45.3887 7.80299C45.3802 7.35854 45.4785 6.91859 45.6753 6.52058M48.9466 7.06697C48.8406 6.86612 48.6807 6.69927 48.485 6.58544C48.2955 6.47466 48.0801 6.41667 47.8609 6.41743C47.6407 6.415 47.424 6.4735 47.2345 6.58654C47.045 6.69957 46.89 6.8628 46.7865 7.05841C46.6649 7.28713 46.6044 7.54369 46.6109 7.80299C46.605 8.06494 46.6655 8.32411 46.7865 8.55613C46.8928 8.76052 47.0525 8.93183 47.2485 9.05162C47.4327 9.16452 47.6443 9.22407 47.86 9.22369C48.0791 9.22452 48.2946 9.16669 48.4841 9.05612C48.6798 8.94206 48.8397 8.77508 48.9457 8.57415C49.0584 8.33933 49.1168 8.08196 49.1168 7.82123C49.1168 7.5605 49.0584 7.30314 48.9457 7.06832" fill="#AB2346"/>
<path d="M52.2185 10.0685C51.9304 9.9433 51.6788 9.74626 51.4874 9.49598C51.3116 9.2651 51.2088 8.98638 51.1924 8.69599H52.3985C52.4095 8.78652 52.4391 8.87378 52.4853 8.95224C52.5316 9.0307 52.5935 9.09866 52.6671 9.15184C52.8367 9.27628 53.0429 9.33974 53.2527 9.33201C53.4408 9.34298 53.6276 9.29481 53.7872 9.19418C53.8463 9.15652 53.895 9.10443 53.9286 9.04276C53.9623 8.98109 53.9799 8.91184 53.9798 8.84148C53.9802 8.76628 53.958 8.69271 53.916 8.63047C53.874 8.56823 53.8143 8.52024 53.7447 8.49284C53.5032 8.38591 53.2527 8.30089 52.9962 8.23879C52.7008 8.17092 52.4107 8.0818 52.1281 7.97213C51.9032 7.8807 51.7036 7.73607 51.5461 7.55051C51.3745 7.33385 51.2878 7.06139 51.3025 6.78476C51.3013 6.52661 51.3805 6.27456 51.529 6.06405C51.694 5.83473 51.9191 5.65602 52.1791 5.54784C52.4944 5.41494 52.834 5.35033 53.1757 5.35821C53.6623 5.33287 54.1417 5.48408 54.5269 5.78432C54.6941 5.92614 54.8299 6.10161 54.9257 6.29943C55.0215 6.49725 55.075 6.71306 55.0829 6.93296H53.9368C53.9312 6.84549 53.9074 6.76018 53.8669 6.68257C53.8264 6.60497 53.7701 6.5368 53.7017 6.48251C53.5445 6.38196 53.3636 6.32486 53.1774 6.31695C52.9913 6.30904 52.8063 6.35061 52.6411 6.43747C52.5856 6.47338 52.5402 6.52318 52.5096 6.582C52.4789 6.64082 52.4639 6.70665 52.4661 6.77305C52.4656 6.85106 52.4881 6.92748 52.5307 6.99265C52.5734 7.05782 52.6342 7.10884 52.7056 7.13926C52.9441 7.24987 53.1935 7.33487 53.4497 7.39286C53.7378 7.46175 54.0207 7.551 54.2963 7.65997C54.5201 7.75276 54.7181 7.89884 54.8734 8.08564C55.0441 8.30167 55.1335 8.57143 55.1259 8.84734C55.1291 9.11179 55.0499 9.3706 54.8993 9.58741C54.7348 9.8162 54.5095 9.9937 54.2493 10.0996C53.9362 10.2288 53.6 10.2916 53.2617 10.2843C52.9028 10.2902 52.5468 10.2183 52.218 10.0734" fill="#AB2346"/>
<path d="M57.9251 5.57812C58.2113 5.42799 58.5304 5.35256 58.8532 5.35875C59.2403 5.35386 59.621 5.45809 59.9523 5.65965C60.2857 5.8667 60.5553 6.16304 60.7308 6.51549C60.9284 6.91467 61.0267 7.35612 61.0173 7.80195C61.0261 8.25046 60.9278 8.69454 60.7308 9.09698C60.5559 9.45447 60.2865 9.75663 59.9523 9.97039C59.6229 10.1774 59.2415 10.2849 58.8532 10.2803C58.5337 10.287 58.2177 10.2129 57.934 10.065C57.6827 9.93359 57.4625 9.74922 57.2884 9.52445V12.4757H56.0908V5.43623H57.2884V6.12451C57.4556 5.89498 57.6733 5.70788 57.9251 5.57812ZM59.6187 7.05782C59.5119 6.85862 59.3521 6.69329 59.1571 6.58035C58.9683 6.47192 58.7545 6.41552 58.5371 6.41684C58.3219 6.41634 58.1106 6.47439 57.9255 6.58486C57.7302 6.70118 57.5705 6.86933 57.4639 7.07089C57.3486 7.30339 57.2886 7.55968 57.2886 7.81952C57.2886 8.07937 57.3486 8.33565 57.4639 8.56816C57.5706 8.76967 57.7303 8.9378 57.9255 9.05419C58.1124 9.16456 58.3253 9.22238 58.542 9.22159C58.7586 9.2208 58.9711 9.16142 59.1571 9.04968C59.352 8.93085 59.5114 8.76141 59.6187 8.55915C59.7406 8.32601 59.8011 8.0653 59.7942 7.80195C59.8008 7.54265 59.7403 7.28652 59.6187 7.05782Z" fill="#AB2346"/>
<path d="M66.2426 8.18088H62.7787C62.7889 8.4877 62.9173 8.77849 63.1369 8.99168C63.3486 9.18727 63.6277 9.29228 63.915 9.28447C64.1126 9.2963 64.3092 9.24746 64.4787 9.14443C64.6482 9.04139 64.7826 8.88901 64.8641 8.70745H66.1557C66.023 9.16086 65.7468 9.5583 65.3691 9.83941C64.9555 10.1431 64.4528 10.299 63.9409 10.2822C63.5125 10.2891 63.0896 10.1839 62.7138 9.9768C62.3548 9.77638 62.0609 9.47611 61.8672 9.11195C61.6589 8.71462 61.5545 8.27054 61.5636 7.82143C61.5538 7.36985 61.6567 6.92301 61.8632 6.5219C62.0531 6.15897 62.3444 5.8599 62.7013 5.66156C63.0798 5.46508 63.4994 5.36186 63.9254 5.36037C64.3513 5.35888 64.7716 5.45917 65.1515 5.65299C65.5024 5.84269 65.7907 6.13118 65.9811 6.48316C66.1829 6.86268 66.2845 7.28796 66.2762 7.71828C66.2773 7.87375 66.2659 8.02906 66.2421 8.18268M65.036 7.37189C65.0386 7.23076 65.0099 7.09083 64.9523 6.96216C64.8946 6.83349 64.8093 6.71928 64.7025 6.62775C64.4806 6.43939 64.1976 6.33982 63.9074 6.34803C63.6329 6.33961 63.3654 6.43619 63.1588 6.6183C62.9479 6.8153 62.8156 7.08291 62.7868 7.37099L65.036 7.37189Z" fill="#AB2346"/>
<path d="M67.2699 6.52593C67.4598 6.16581 67.7475 5.86743 68.0995 5.66558C68.4704 5.45744 68.8895 5.35205 69.3141 5.36018C69.8356 5.33975 70.3489 5.49581 70.7718 5.80341C71.1665 6.11393 71.4404 6.55387 71.5459 7.04664H70.2543C70.1938 6.85133 70.0722 6.68087 69.9078 6.56061C69.7302 6.43844 69.5184 6.37672 69.3034 6.38448C69.1483 6.37807 68.9938 6.40863 68.8527 6.47369C68.7116 6.53874 68.5877 6.63643 68.4912 6.7588C68.2954 7.07674 68.1917 7.44333 68.1917 7.81734C68.1917 8.19136 68.2954 8.55795 68.4912 8.87588C68.5877 8.99826 68.7116 9.09595 68.8527 9.161C68.9938 9.22605 69.1483 9.25662 69.3034 9.2502C69.5123 9.26824 69.721 9.21294 69.894 9.09372C70.0671 8.97449 70.1937 8.79869 70.2525 8.59616H71.5441C71.4314 9.08357 71.1567 9.51769 70.7656 9.82677C70.3468 10.141 69.8339 10.3018 69.3119 10.2826C68.8873 10.2908 68.4681 10.1854 68.0973 9.97722C67.7453 9.77528 67.4576 9.47693 67.2677 9.11687C67.0707 8.71394 66.9683 8.27089 66.9683 7.82185C66.9683 7.37281 67.0707 6.92976 67.2677 6.52683" fill="#AB2346"/>
<path d="M73.9026 6.42625V8.73251C73.8968 8.79551 73.904 8.85904 73.9239 8.91906C73.9438 8.97909 73.9759 9.03429 74.0181 9.08115C74.1304 9.16364 74.2688 9.20179 74.4072 9.18836H74.9632V10.2037H74.2106C73.2015 10.2037 72.697 9.71042 72.697 8.72395V6.4267H72.1306V5.43572H72.6952V4.25781H73.9008V5.43662H74.9614V6.4276L73.9026 6.42625Z" fill="#AB2346"/>
<path d="M77.7445 5.58278C78.004 5.43632 78.2976 5.362 78.5951 5.36747V6.63366H78.2786C78.1187 6.60753 77.955 6.62091 77.8014 6.67264C77.6479 6.72437 77.5092 6.81291 77.3972 6.93062C77.2852 7.04832 77.2034 7.19166 77.1587 7.34827C77.1141 7.50489 77.108 7.67007 77.141 7.82959V10.2043H75.9434V5.43639H77.141V6.17646C77.2887 5.93028 77.4966 5.72597 77.7445 5.58278Z" fill="#AB2346"/>
<path d="M83.8949 5.43652V10.2036H82.6888V9.60132C82.5311 9.8111 82.324 9.97812 82.0862 10.0873C81.8332 10.2059 81.5571 10.266 81.2781 10.2635C80.9351 10.2707 80.5959 10.1893 80.2931 10.027C80.0056 9.86676 79.7719 9.62422 79.6216 9.33015C79.4516 8.99041 79.3679 8.61356 79.378 8.23332V5.43652H80.5756V8.06125C80.5547 8.37789 80.6557 8.69049 80.8577 8.93421C80.9568 9.03753 81.0768 9.11825 81.2095 9.17093C81.3423 9.22361 81.4847 9.24704 81.6273 9.23961C81.7711 9.2476 81.915 9.22447 82.0492 9.17179C82.1835 9.11911 82.3049 9.0381 82.4054 8.93421C82.6074 8.69051 82.7084 8.3779 82.6874 8.06125V5.43652H83.8949Z" fill="#AB2346"/>
<path d="M92.4359 5.90586C92.6212 6.10688 92.764 6.34359 92.8559 6.6017C92.9478 6.85981 92.9867 7.13397 92.9704 7.40764V10.204H91.7733V7.5707C91.7943 7.25918 91.6928 6.95183 91.4907 6.71486C91.3902 6.61395 91.2698 6.53539 91.1372 6.48426C91.0047 6.43312 90.8629 6.41056 90.7211 6.41801C90.5787 6.41087 90.4364 6.43356 90.3032 6.48466C90.1699 6.53576 90.0486 6.61415 89.9471 6.71486C89.8457 6.83156 89.7683 6.96722 89.7191 7.11408C89.6699 7.26093 89.6501 7.4161 89.6606 7.5707V10.204H88.4634V7.5707C88.4843 7.25928 88.383 6.95202 88.1813 6.71486C88.0808 6.61397 87.9604 6.53543 87.8278 6.4843C87.6953 6.43317 87.5535 6.41059 87.4117 6.41801C87.268 6.41027 87.1242 6.43266 86.9895 6.48376C86.8548 6.53486 86.7321 6.61355 86.6292 6.71486C86.5279 6.83159 86.4504 6.96725 86.4013 7.1141C86.3521 7.26095 86.3322 7.4161 86.3426 7.5707V10.204H85.145V5.43695H86.3426V6.01352C86.5001 5.80999 86.704 5.64773 86.9372 5.54055C87.1877 5.42402 87.4609 5.36523 87.7368 5.36848C88.082 5.3624 88.4231 5.44372 88.7289 5.60497C89.0152 5.75841 89.2503 5.99344 89.4045 6.28063C89.5627 6.00134 89.7953 5.77202 90.076 5.61848C90.4506 5.41422 90.8789 5.33224 91.3019 5.3839C91.7248 5.43555 92.1212 5.61828 92.4363 5.90676" fill="#AB2346"/>
</svg>
