<svg width="13" height="14" viewBox="0 0 13 14" fill="none" xmlns="http://www.w3.org/2000/svg">
<path d="M9.53585 1.2666H4.20695C2.60057 1.2666 1.29834 2.669 1.29834 4.39895V10.1378C1.29834 11.8677 2.60057 13.2701 4.20695 13.2701H9.53585C11.1422 13.2701 12.4445 11.8677 12.4445 10.1378V4.39895C12.4445 2.669 11.1422 1.2666 9.53585 1.2666Z" stroke="#0A2804" stroke-width="0.797265" stroke-linecap="round" stroke-linejoin="round"/>
<path d="M6.87137 10.4116C8.48361 10.4116 9.79059 9.00406 9.79059 7.2678C9.79059 5.53154 8.48361 4.12402 6.87137 4.12402C5.25913 4.12402 3.95215 5.53154 3.95215 7.2678C3.95215 9.00406 5.25913 10.4116 6.87137 10.4116Z" stroke="#0A2804" stroke-width="0.797265" stroke-linecap="round" stroke-linejoin="round"/>
<path d="M10.0559 3.55109C10.2025 3.55109 10.3213 3.42313 10.3213 3.26529C10.3213 3.10745 10.2025 2.97949 10.0559 2.97949C9.90934 2.97949 9.79053 3.10745 9.79053 3.26529C9.79053 3.42313 9.90934 3.55109 10.0559 3.55109Z" stroke="#0A2804" stroke-width="0.797265" stroke-linecap="round" stroke-linejoin="round"/>
</svg>
