<svg width="93" height="17" viewBox="0 0 93 17" fill="none" xmlns="http://www.w3.org/2000/svg">
<path d="M15.6279 2.14288H12.4139C12.3088 2.1454 12.2043 2.12675 12.1064 2.08803C12.0086 2.04931 11.9195 1.9913 11.8443 1.91741C11.7691 1.84353 11.7093 1.75525 11.6685 1.65779C11.6277 1.56032 11.6067 1.45563 11.6067 1.34987C11.6067 1.24411 11.6277 1.13942 11.6685 1.04195C11.7093 0.944489 11.7691 0.856216 11.8443 0.78233C11.9195 0.708443 12.0086 0.650434 12.1064 0.611714C12.2043 0.572995 12.3088 0.554346 12.4139 0.556866H15.6279C15.733 0.554346 15.8375 0.572995 15.9354 0.611714C16.0332 0.650434 16.1223 0.708443 16.1975 0.78233C16.2727 0.856216 16.3325 0.944489 16.3733 1.04195C16.4141 1.13942 16.4351 1.24411 16.4351 1.34987C16.4351 1.45563 16.4141 1.56032 16.3733 1.65779C16.3325 1.75525 16.2727 1.84353 16.1975 1.91741C16.1223 1.9913 16.0332 2.04931 15.9354 2.08803C15.8375 2.12675 15.733 2.1454 15.6279 2.14288Z" fill="#AB2346"/>
<path d="M17.2236 4.54571H12.4143C12.3093 4.54823 12.2048 4.52958 12.1069 4.49086C12.0091 4.45214 11.92 4.39413 11.8448 4.32025C11.7696 4.24636 11.7098 4.15809 11.669 4.06062C11.6282 3.96315 11.6072 3.85846 11.6072 3.7527C11.6072 3.64694 11.6282 3.54225 11.669 3.44479C11.7098 3.34732 11.7696 3.25905 11.8448 3.18516C11.92 3.11127 12.0091 3.05327 12.1069 3.01455C12.2048 2.97583 12.3093 2.95718 12.4143 2.9597H17.2236C17.3287 2.95718 17.4332 2.97583 17.531 3.01455C17.6288 3.05327 17.718 3.11127 17.7932 3.18516C17.8684 3.25905 17.9281 3.34732 17.9689 3.44479C18.0097 3.54225 18.0308 3.64694 18.0308 3.7527C18.0308 3.85846 18.0097 3.96315 17.9689 4.06062C17.9281 4.15809 17.8684 4.24636 17.7932 4.32025C17.718 4.39413 17.6288 4.45214 17.531 4.49086C17.4332 4.52958 17.3287 4.54823 17.2236 4.54571Z" fill="#AB2346"/>
<path d="M18.8075 6.94903H12.4139C12.2081 6.94409 12.0124 6.85838 11.8686 6.7102C11.7248 6.56202 11.6443 6.36313 11.6443 6.15602C11.6443 5.94892 11.7248 5.75003 11.8686 5.60185C12.0124 5.45367 12.2081 5.36795 12.4139 5.36302H18.8075C18.9126 5.3605 19.0171 5.37915 19.115 5.41787C19.2128 5.45659 19.3019 5.51459 19.3771 5.58848C19.4523 5.66237 19.5121 5.75064 19.5529 5.84811C19.5937 5.94557 19.6147 6.05026 19.6147 6.15602C19.6147 6.26178 19.5937 6.36647 19.5529 6.46394C19.5121 6.5614 19.4523 6.64968 19.3771 6.72356C19.3019 6.79745 19.2128 6.85546 19.115 6.89418C19.0171 6.9329 18.9126 6.95155 18.8075 6.94903Z" fill="#AB2346"/>
<path d="M15.6279 11.7557H12.4139C12.3088 11.7582 12.2043 11.7395 12.1064 11.7008C12.0086 11.6621 11.9195 11.6041 11.8443 11.5302C11.7691 11.4563 11.7093 11.368 11.6685 11.2706C11.6277 11.1731 11.6067 11.0684 11.6067 10.9627C11.6067 10.8569 11.6277 10.7522 11.6685 10.6547C11.7093 10.5573 11.7691 10.469 11.8443 10.3951C11.9195 10.3212 12.0086 10.2632 12.1064 10.2245C12.2043 10.1858 12.3088 10.1671 12.4139 10.1697H15.6279C15.733 10.1671 15.8375 10.1858 15.9354 10.2245C16.0332 10.2632 16.1223 10.3212 16.1975 10.3951C16.2727 10.469 16.3325 10.5573 16.3733 10.6547C16.4141 10.7522 16.4351 10.8569 16.4351 10.9627C16.4351 11.0684 16.4141 11.1731 16.3733 11.2706C16.3325 11.368 16.2727 11.4563 16.1975 11.5302C16.1223 11.6041 16.0332 11.6621 15.9354 11.7008C15.8375 11.7395 15.733 11.7582 15.6279 11.7557Z" fill="#AB2346"/>
<path d="M14.8305 14.158H12.4129C12.3078 14.1605 12.2033 14.1419 12.1055 14.1032C12.0077 14.0644 11.9185 14.0064 11.8433 13.9325C11.7681 13.8587 11.7084 13.7704 11.6676 13.6729C11.6267 13.5755 11.6057 13.4708 11.6057 13.365C11.6057 13.2592 11.6267 13.1546 11.6676 13.0571C11.7084 12.9596 11.7681 12.8714 11.8433 12.7975C11.9185 12.7236 12.0077 12.6656 12.1055 12.6269C12.2033 12.5881 12.3078 12.5695 12.4129 12.572H14.8305C14.9356 12.5695 15.0401 12.5881 15.1379 12.6269C15.2357 12.6656 15.3249 12.7236 15.4001 12.7975C15.4753 12.8714 15.5351 12.9596 15.5759 13.0571C15.6167 13.1546 15.6377 13.2592 15.6377 13.365C15.6377 13.4708 15.6167 13.5755 15.5759 13.6729C15.5351 13.7704 15.4753 13.8587 15.4001 13.9325C15.3249 14.0064 15.2357 14.0644 15.1379 14.1032C15.0401 14.1419 14.9356 14.1605 14.8305 14.158Z" fill="#AB2346"/>
<path d="M10.0519 2.14288H8.43342C8.32833 2.1454 8.2238 2.12675 8.12598 2.08803C8.02816 2.04931 7.93902 1.9913 7.86382 1.91741C7.78861 1.84353 7.72886 1.75525 7.68806 1.65779C7.64725 1.56032 7.62622 1.45563 7.62622 1.34987C7.62622 1.24411 7.64725 1.13942 7.68806 1.04195C7.72886 0.944489 7.78861 0.856216 7.86382 0.78233C7.93902 0.708443 8.02816 0.650434 8.12598 0.611714C8.2238 0.572995 8.32833 0.554346 8.43342 0.556866H10.0519C10.1569 0.554346 10.2615 0.572995 10.3593 0.611714C10.4571 0.650434 10.5462 0.708443 10.6215 0.78233C10.6967 0.856216 10.7564 0.944489 10.7972 1.04195C10.838 1.13942 10.8591 1.24411 10.8591 1.34987C10.8591 1.45563 10.838 1.56032 10.7972 1.65779C10.7564 1.75525 10.6967 1.84353 10.6215 1.91741C10.5462 1.9913 10.4571 2.04931 10.3593 2.08803C10.2615 2.12675 10.1569 2.1454 10.0519 2.14288Z" fill="#82AEC9"/>
<path d="M10.0518 4.54571H6.85114C6.74606 4.54823 6.64155 4.52958 6.54373 4.49086C6.44591 4.45214 6.35678 4.39413 6.28157 4.32025C6.20636 4.24636 6.14659 4.15809 6.10578 4.06062C6.06498 3.96315 6.04395 3.85846 6.04395 3.7527C6.04395 3.64694 6.06498 3.54225 6.10578 3.44479C6.14659 3.34732 6.20636 3.25905 6.28157 3.18516C6.35678 3.11127 6.44591 3.05327 6.54373 3.01455C6.64155 2.97583 6.74606 2.95718 6.85114 2.9597H10.0518C10.1568 2.95718 10.2614 2.97583 10.3592 3.01455C10.457 3.05327 10.5462 3.11127 10.6214 3.18516C10.6966 3.25905 10.7563 3.34732 10.7971 3.44479C10.838 3.54225 10.859 3.64694 10.859 3.7527C10.859 3.85846 10.838 3.96315 10.7971 4.06062C10.7563 4.15809 10.6966 4.24636 10.6214 4.32025C10.5462 4.39413 10.457 4.45214 10.3592 4.49086C10.2614 4.52958 10.1568 4.54823 10.0518 4.54571Z" fill="#82AEC9"/>
<path d="M10.0512 6.94903H5.26667C5.16158 6.95155 5.05705 6.9329 4.95923 6.89418C4.86141 6.85546 4.77228 6.79745 4.69707 6.72356C4.62186 6.64968 4.56209 6.5614 4.52128 6.46394C4.48048 6.36647 4.45947 6.26178 4.45947 6.15602C4.45947 6.05026 4.48048 5.94557 4.52128 5.84811C4.56209 5.75064 4.62186 5.66237 4.69707 5.58848C4.77228 5.51459 4.86141 5.45659 4.95923 5.41787C5.05705 5.37915 5.16158 5.3605 5.26667 5.36302H10.0512C10.1563 5.3605 10.2609 5.37915 10.3587 5.41787C10.4565 5.45659 10.5456 5.51459 10.6208 5.58848C10.6961 5.66237 10.7558 5.75064 10.7966 5.84811C10.8374 5.94557 10.8584 6.05026 10.8584 6.15602C10.8584 6.26178 10.8374 6.36647 10.7966 6.46394C10.7558 6.5614 10.6961 6.64968 10.6208 6.72356C10.5456 6.79745 10.4565 6.85546 10.3587 6.89418C10.2609 6.9329 10.1563 6.95155 10.0512 6.94903Z" fill="#82AEC9"/>
<path d="M10.0519 9.35235H3.66584C3.56075 9.35487 3.45624 9.33622 3.35843 9.2975C3.26061 9.25878 3.17147 9.20077 3.09627 9.12688C3.02106 9.053 2.96128 8.96472 2.92048 8.86726C2.87968 8.76979 2.85864 8.6651 2.85864 8.55934C2.85864 8.45358 2.87968 8.34889 2.92048 8.25143C2.96128 8.15396 3.02106 8.06569 3.09627 7.9918C3.17147 7.91791 3.26061 7.8599 3.35843 7.82118C3.45624 7.78246 3.56075 7.76382 3.66584 7.76634H10.0519C10.157 7.76382 10.2615 7.78246 10.3593 7.82118C10.4571 7.8599 10.5462 7.91791 10.6215 7.9918C10.6967 8.06569 10.7564 8.15396 10.7972 8.25143C10.838 8.34889 10.8591 8.45358 10.8591 8.55934C10.8591 8.6651 10.838 8.76979 10.7972 8.86726C10.7564 8.96472 10.6967 9.053 10.6215 9.12688C10.5462 9.20077 10.4571 9.25878 10.3593 9.2975C10.2615 9.33622 10.157 9.35487 10.0519 9.35235Z" fill="#82AEC9"/>
<path d="M20.4034 9.35235H12.4146C12.3095 9.35487 12.205 9.33622 12.1072 9.2975C12.0094 9.25878 11.9202 9.20077 11.845 9.12688C11.7698 9.053 11.71 8.96472 11.6692 8.86726C11.6284 8.76979 11.6074 8.6651 11.6074 8.55934C11.6074 8.45358 11.6284 8.34889 11.6692 8.25143C11.71 8.15396 11.7698 8.06569 11.845 7.9918C11.9202 7.91791 12.0094 7.8599 12.1072 7.82118C12.205 7.78246 12.3095 7.76382 12.4146 7.76634H20.4034C20.5085 7.76382 20.613 7.78246 20.7108 7.82118C20.8086 7.8599 20.8978 7.91791 20.973 7.9918C21.0482 8.06569 21.108 8.15396 21.1488 8.25143C21.1896 8.34889 21.2106 8.45358 21.2106 8.55934C21.2106 8.6651 21.1896 8.76979 21.1488 8.86726C21.108 8.96472 21.0482 9.053 20.973 9.12688C20.8978 9.20077 20.8086 9.25878 20.7108 9.2975C20.613 9.33622 20.5085 9.35487 20.4034 9.35235Z" fill="#82AEC9"/>
<path d="M10.0517 11.7557H5.2613C5.15621 11.7582 5.0517 11.7395 4.95389 11.7008C4.85607 11.6621 4.76693 11.6041 4.69172 11.5302C4.61652 11.4563 4.55674 11.368 4.51594 11.2706C4.47514 11.1731 4.4541 11.0684 4.4541 10.9627C4.4541 10.8569 4.47514 10.7522 4.51594 10.6547C4.55674 10.5573 4.61652 10.469 4.69172 10.3951C4.76693 10.3212 4.85607 10.2632 4.95389 10.2245C5.0517 10.1858 5.15621 10.1671 5.2613 10.1697H10.0517C10.1568 10.1671 10.2613 10.1858 10.3592 10.2245C10.457 10.2632 10.5461 10.3212 10.6213 10.3951C10.6965 10.469 10.7563 10.5573 10.7971 10.6547C10.8379 10.7522 10.8589 10.8569 10.8589 10.9627C10.8589 11.0684 10.8379 11.1731 10.7971 11.2706C10.7563 11.368 10.6965 11.4563 10.6213 11.5302C10.5461 11.6041 10.457 11.6621 10.3592 11.7008C10.2613 11.7395 10.1568 11.7582 10.0517 11.7557Z" fill="#82AEC9"/>
<path d="M20.4033 11.7557H17.9889C17.7831 11.7507 17.5874 11.665 17.4436 11.5168C17.2997 11.3687 17.2192 11.1698 17.2192 10.9627C17.2192 10.7556 17.2997 10.5567 17.4436 10.4085C17.5874 10.2603 17.7831 10.1746 17.9889 10.1697H20.4033C20.5084 10.1671 20.6129 10.1858 20.7108 10.2245C20.8086 10.2632 20.8977 10.3212 20.9729 10.3951C21.0481 10.469 21.1079 10.5573 21.1487 10.6547C21.1895 10.7522 21.2105 10.8569 21.2105 10.9627C21.2105 11.0684 21.1895 11.1731 21.1487 11.2706C21.1079 11.368 21.0481 11.4563 20.9729 11.5302C20.8977 11.6041 20.8086 11.6621 20.7108 11.7008C20.6129 11.7395 20.5084 11.7582 20.4033 11.7557Z" fill="#82AEC9"/>
<path d="M10.051 14.158H6.84504C6.73995 14.1605 6.63542 14.1419 6.5376 14.1032C6.43978 14.0644 6.35065 14.0064 6.27544 13.9325C6.20023 13.8587 6.14046 13.7704 6.09965 13.6729C6.05885 13.5755 6.03784 13.4708 6.03784 13.365C6.03784 13.2592 6.05885 13.1546 6.09965 13.0571C6.14046 12.9596 6.20023 12.8714 6.27544 12.7975C6.35065 12.7236 6.43978 12.6656 6.5376 12.6269C6.63542 12.5881 6.73995 12.5695 6.84504 12.572H10.051C10.1561 12.5695 10.2606 12.5881 10.3585 12.6269C10.4563 12.6656 10.5454 12.7236 10.6206 12.7975C10.6958 12.8714 10.7556 12.9596 10.7964 13.0571C10.8372 13.1546 10.8582 13.2592 10.8582 13.365C10.8582 13.4708 10.8372 13.5755 10.7964 13.6729C10.7556 13.7704 10.6958 13.8587 10.6206 13.9325C10.5454 14.0064 10.4563 14.0644 10.3585 14.1032C10.2606 14.1419 10.1561 14.1605 10.051 14.158Z" fill="#82AEC9"/>
<path d="M20.5517 14.158H17.2047C16.9989 14.1531 16.8032 14.0674 16.6594 13.9192C16.5156 13.771 16.4351 13.5721 16.4351 13.365C16.4351 13.1579 16.5156 12.959 16.6594 12.8108C16.8032 12.6627 16.9989 12.5769 17.2047 12.572H20.5517C20.6568 12.5695 20.7613 12.5881 20.8591 12.6269C20.9569 12.6656 21.0461 12.7236 21.1213 12.7975C21.1965 12.8714 21.2563 12.9596 21.2971 13.0571C21.3379 13.1546 21.3589 13.2592 21.3589 13.365C21.3589 13.4708 21.3379 13.5755 21.2971 13.6729C21.2563 13.7704 21.1965 13.8587 21.1213 13.9325C21.0461 14.0064 20.9569 14.0644 20.8591 14.1032C20.7613 14.1419 20.6568 14.1605 20.5517 14.158Z" fill="#82AEC9"/>
<path d="M10.0519 16.5618H8.43342C8.32833 16.5643 8.2238 16.5457 8.12598 16.507C8.02816 16.4683 7.93902 16.4102 7.86382 16.3364C7.78861 16.2625 7.72886 16.1742 7.68806 16.0767C7.64725 15.9793 7.62622 15.8746 7.62622 15.7688C7.62622 15.6631 7.64725 15.5584 7.68806 15.4609C7.72886 15.3634 7.78861 15.2752 7.86382 15.2013C7.93902 15.1274 8.02816 15.0694 8.12598 15.0307C8.2238 14.9919 8.32833 14.9733 8.43342 14.9758H10.0519C10.1569 14.9733 10.2615 14.9919 10.3593 15.0307C10.4571 15.0694 10.5462 15.1274 10.6215 15.2013C10.6967 15.2752 10.7564 15.3634 10.7972 15.4609C10.838 15.5584 10.8591 15.6631 10.8591 15.7688C10.8591 15.8746 10.838 15.9793 10.7972 16.0767C10.7564 16.1742 10.6967 16.2625 10.6215 16.3364C10.5462 16.4102 10.4571 16.4683 10.3593 16.507C10.2615 16.5457 10.1569 16.5643 10.0519 16.5618Z" fill="#82AEC9"/>
<path d="M15.6277 16.5618H12.4136C12.3085 16.5643 12.204 16.5457 12.1062 16.507C12.0084 16.4683 11.9192 16.4102 11.844 16.3364C11.7688 16.2625 11.7091 16.1742 11.6683 16.0767C11.6275 15.9793 11.6064 15.8746 11.6064 15.7688C11.6064 15.6631 11.6275 15.5584 11.6683 15.4609C11.7091 15.3634 11.7688 15.2752 11.844 15.2013C11.9192 15.1274 12.0084 15.0694 12.1062 15.0307C12.204 14.9919 12.3085 14.9733 12.4136 14.9758H15.6277C15.7328 14.9733 15.8373 14.9919 15.9351 15.0307C16.0329 15.0694 16.1221 15.1274 16.1973 15.2013C16.2725 15.2752 16.3322 15.3634 16.373 15.4609C16.4138 15.5584 16.4349 15.6631 16.4349 15.7688C16.4349 15.8746 16.4138 15.9793 16.373 16.0767C16.3322 16.1742 16.2725 16.2625 16.1973 16.3364C16.1221 16.4102 16.0329 16.4683 15.9351 16.507C15.8373 16.5457 15.7328 16.5643 15.6277 16.5618Z" fill="#82AEC9"/>
<path d="M6.88158 1.95546C6.88158 2.07528 6.84626 2.19241 6.78009 2.29205C6.71392 2.39168 6.61987 2.46933 6.50984 2.51518C6.39981 2.56104 6.27874 2.57304 6.16193 2.54966C6.04512 2.52628 5.93783 2.46858 5.85362 2.38385C5.7694 2.29912 5.71205 2.19117 5.68882 2.07365C5.66558 1.95613 5.67751 1.83431 5.72308 1.72361C5.76866 1.6129 5.84583 1.51828 5.94486 1.45171C6.04388 1.38514 6.16031 1.34961 6.2794 1.34961C6.43911 1.34961 6.59226 1.41344 6.70519 1.52706C6.81812 1.64068 6.88158 1.79478 6.88158 1.95546Z" fill="#1D365A"/>
<path d="M6.85863 15.5629C6.85863 15.6827 6.82331 15.7998 6.75714 15.8995C6.69098 15.9991 6.59692 16.0767 6.48689 16.1226C6.37686 16.1685 6.25579 16.1805 6.13898 16.1571C6.02217 16.1337 5.91488 16.076 5.83067 15.9913C5.74645 15.9065 5.6891 15.7986 5.66587 15.6811C5.64263 15.5635 5.65456 15.4417 5.70013 15.331C5.74571 15.2203 5.82291 15.1257 5.92194 15.0591C6.02096 14.9926 6.13736 14.957 6.25645 14.957C6.41616 14.957 6.56934 15.0209 6.68227 15.1345C6.7952 15.2481 6.85863 15.4022 6.85863 15.5629Z" fill="#1D365A"/>
<path d="M4.86527 4.54567H4.06925C3.9647 4.54567 3.86443 4.50389 3.7905 4.42951C3.71657 4.35513 3.67505 4.25425 3.67505 4.14906C3.67505 4.04387 3.71657 3.94299 3.7905 3.86861C3.86443 3.79423 3.9647 3.75244 4.06925 3.75244H4.86527C4.96982 3.75244 5.07009 3.79423 5.14402 3.86861C5.21794 3.94299 5.25947 4.04387 5.25947 4.14906C5.25947 4.25425 5.21794 4.35513 5.14402 4.42951C5.07009 4.50389 4.96982 4.54567 4.86527 4.54567Z" fill="#1D365A"/>
<path d="M3.27035 6.94948H1.68058C1.57603 6.94948 1.47575 6.9077 1.40183 6.83332C1.3279 6.75894 1.28638 6.65805 1.28638 6.55287C1.28638 6.44768 1.3279 6.3468 1.40183 6.27242C1.47575 6.19804 1.57603 6.15625 1.68058 6.15625H3.27035C3.3749 6.15625 3.47517 6.19804 3.5491 6.27242C3.62303 6.3468 3.66458 6.44768 3.66458 6.55287C3.66458 6.65805 3.62303 6.75894 3.5491 6.83332C3.47517 6.9077 3.3749 6.94948 3.27035 6.94948Z" fill="#1D365A"/>
<path d="M3.28082 10.9451H0.893222C0.788673 10.9451 0.688428 10.9033 0.614501 10.8289C0.540574 10.7545 0.499023 10.6537 0.499023 10.5485C0.499023 10.4433 0.540574 10.3424 0.614501 10.268C0.688428 10.1936 0.788673 10.1519 0.893222 10.1519H3.28082C3.38537 10.1519 3.48564 10.1936 3.55957 10.268C3.6335 10.3424 3.67502 10.4433 3.67502 10.5485C3.67502 10.6537 3.6335 10.7545 3.55957 10.8289C3.48564 10.9033 3.38537 10.9451 3.28082 10.9451Z" fill="#1D365A"/>
<path d="M4.86909 13.3401H4.06949C3.96494 13.3401 3.86467 13.2983 3.79074 13.2239C3.71682 13.1496 3.67529 13.0487 3.67529 12.9435C3.67529 12.8383 3.71682 12.7374 3.79074 12.663C3.86467 12.5887 3.96494 12.5469 4.06949 12.5469H4.86909C4.97364 12.5469 5.07391 12.5887 5.14784 12.663C5.22177 12.7374 5.26329 12.8383 5.26329 12.9435C5.26329 13.0487 5.22177 13.1496 5.14784 13.2239C5.07391 13.2983 4.97364 13.3401 4.86909 13.3401Z" fill="#1D365A"/>
<path d="M29.6108 8.03463C29.8248 8.30251 29.9397 8.63687 29.9358 8.98055C29.9419 9.28008 29.8601 9.57476 29.7008 9.82784C29.5335 10.0804 29.2974 10.279 29.0207 10.3999C28.6892 10.5446 28.3303 10.615 27.9691 10.6062H25.3948V4.60135H27.8571C28.2163 4.59255 28.5732 4.65993 28.9047 4.79909C29.176 4.91284 29.4081 5.10444 29.5718 5.34999C29.7239 5.58858 29.8027 5.867 29.7984 6.15042C29.8094 6.46653 29.7113 6.77674 29.5208 7.02834C29.3307 7.26678 29.0726 7.44095 28.7812 7.52743C29.1109 7.58652 29.4068 7.76741 29.6108 8.03463ZM26.5915 7.07969H27.6866C27.9218 7.09508 28.1548 7.02649 28.3447 6.88599C28.4229 6.81749 28.4844 6.73182 28.5245 6.6356C28.5645 6.53938 28.582 6.43518 28.5757 6.33105C28.5817 6.22629 28.5641 6.12152 28.5241 6.02461C28.4841 5.92771 28.4227 5.8412 28.3447 5.7716C28.1561 5.62821 27.9225 5.55786 27.6866 5.57341H26.5915V7.07969ZM28.4772 9.42199C28.5595 9.34957 28.6243 9.25914 28.6665 9.15763C28.7087 9.05613 28.7273 8.94625 28.7208 8.83641C28.7265 8.72233 28.7064 8.60843 28.6619 8.50331C28.6175 8.3982 28.5499 8.30463 28.4642 8.22967C28.2672 8.07484 28.0212 7.99692 27.7716 8.0103H26.5915V9.62784H27.7976C28.0415 9.64284 28.2827 9.56968 28.4776 9.42154" fill="#AB2346"/>
<path d="M32.6833 5.98707C32.9428 5.84063 33.2364 5.76632 33.5339 5.77176V7.03796H33.2174C33.0576 7.01194 32.8938 7.02539 32.7403 7.07716C32.5868 7.12893 32.4482 7.21747 32.3362 7.33515C32.2243 7.45283 32.1425 7.59612 32.0978 7.75268C32.0531 7.90924 32.0469 8.07438 32.0798 8.23388V10.6086H30.8831V5.84068H32.0784V6.58076C32.2262 6.33464 32.4337 6.13035 32.6815 5.98707" fill="#AB2346"/>
<path d="M35.3029 10.3787C34.9408 10.178 34.6428 9.87808 34.4433 9.5138C34.2291 9.11837 34.1211 8.67356 34.1299 8.22328C34.1207 7.77193 34.2314 7.32627 34.4505 6.93231C34.6564 6.56708 34.9601 6.26741 35.3271 6.06746C35.7101 5.86692 36.1355 5.76221 36.5672 5.76221C36.999 5.76221 37.4244 5.86692 37.8073 6.06746C38.1743 6.26745 38.478 6.56711 38.684 6.93231C38.9032 7.32622 39.0141 7.77189 39.005 8.22328C39.0141 8.67558 38.9003 9.1218 38.6759 9.5138C38.4641 9.87895 38.1563 10.1782 37.7863 10.3787C37.4008 10.5853 36.9695 10.6904 36.5327 10.6841C36.1029 10.6907 35.6787 10.5855 35.3011 10.3787M37.1443 9.47507C37.3398 9.36415 37.4988 9.1982 37.6019 8.99759C37.7221 8.75785 37.7809 8.49169 37.7729 8.22328C37.7853 8.0341 37.7603 7.84432 37.6995 7.66488C37.6386 7.48544 37.5431 7.31991 37.4183 7.17781C37.3067 7.05966 37.1719 6.96617 37.0224 6.90327C36.873 6.84038 36.7122 6.80947 36.5502 6.8125C36.3894 6.80896 36.2297 6.83968 36.0816 6.90264C35.9334 6.9656 35.8002 7.05937 35.6906 7.17781C35.4436 7.46724 35.3192 7.84259 35.3441 8.22328C35.3191 8.60253 35.4401 8.9769 35.6821 9.26876C35.7895 9.38758 35.9211 9.48174 36.0678 9.54485C36.2146 9.60796 36.3732 9.63855 36.5327 9.63452C36.7468 9.63521 36.9574 9.58 37.1443 9.47507Z" fill="#AB2346"/>
<path d="M39.9118 6.9244C40.0862 6.56999 40.356 6.27192 40.6904 6.06405C41.0216 5.86232 41.4023 5.75793 41.7895 5.76271C42.1119 5.75535 42.4309 5.82937 42.7176 5.97802C42.9673 6.10815 43.185 6.29284 43.3546 6.51855V5.84019H44.5608V10.6081H43.3546V9.91039C43.1895 10.144 42.971 10.3343 42.7176 10.4653C42.4285 10.6161 42.1065 10.6915 41.781 10.6847C41.3954 10.6885 41.0169 10.581 40.6904 10.3748C40.356 10.1612 40.0866 9.85898 39.9118 9.50138C39.7147 9.09897 39.6165 8.65488 39.6253 8.20636C39.6168 7.76192 39.7151 7.32243 39.9118 6.9244ZM43.1832 7.47034C43.0771 7.26943 42.917 7.10257 42.7211 6.98881C42.5315 6.87796 42.3159 6.81996 42.0966 6.8208C41.8763 6.81837 41.6596 6.87687 41.4702 6.98991C41.2807 7.10294 41.1257 7.26617 41.0221 7.46178C40.9006 7.6905 40.8401 7.94707 40.8466 8.20636C40.8407 8.46832 40.9011 8.72749 41.0221 8.9595C41.1285 9.16389 41.2882 9.3352 41.4841 9.45499C41.6684 9.56787 41.88 9.62741 42.0957 9.62706C42.315 9.62797 42.5305 9.57013 42.7202 9.45949C42.916 9.3455 43.0761 9.17851 43.1823 8.97752C43.2948 8.74266 43.3532 8.48531 43.3532 8.2246C43.3532 7.9639 43.2948 7.70654 43.1823 7.47169" fill="#AB2346"/>
<path d="M45.6748 6.9239C45.8475 6.57042 46.1164 6.27357 46.4502 6.0679C46.7841 5.86223 47.1691 5.75622 47.5605 5.76221C47.8657 5.76162 48.1669 5.83078 48.4416 5.96446C48.7045 6.08591 48.9336 6.27063 49.1087 6.50228V4.23926H50.3233V10.6067H49.1087V9.90133C48.9539 10.1426 48.7387 10.3385 48.4846 10.4693C48.1964 10.6176 47.8761 10.6916 47.5525 10.6846C47.1657 10.6881 46.786 10.5806 46.4578 10.3747C46.1216 10.1621 45.8507 9.85975 45.6753 9.50133C45.4782 9.09893 45.3799 8.65483 45.3887 8.20631C45.3802 7.76186 45.4785 7.32191 45.6753 6.9239M48.9466 7.47029C48.8406 7.26944 48.6807 7.10259 48.485 6.98876C48.2955 6.87798 48.0801 6.81999 47.8609 6.82075C47.6407 6.81832 47.424 6.87682 47.2345 6.98986C47.045 7.10289 46.89 7.26612 46.7865 7.46173C46.6649 7.69045 46.6044 7.94701 46.6109 8.20631C46.605 8.46827 46.6655 8.72743 46.7865 8.95945C46.8928 9.16384 47.0525 9.33515 47.2485 9.45494C47.4327 9.56784 47.6443 9.62739 47.86 9.62701C48.0791 9.62784 48.2946 9.57001 48.4841 9.45944C48.6798 9.34538 48.8397 9.1784 48.9457 8.97747C49.0584 8.74265 49.1168 8.48528 49.1168 8.22455C49.1168 7.96382 49.0584 7.70646 48.9457 7.47164" fill="#AB2346"/>
<path d="M52.2183 10.4728C51.9301 10.3476 51.6785 10.1506 51.4872 9.90027C51.3114 9.66939 51.2086 9.39067 51.1921 9.10029H52.3982C52.4093 9.19082 52.4388 9.27807 52.4851 9.35653C52.5313 9.43499 52.5932 9.50296 52.6669 9.55613C52.8365 9.68058 53.0427 9.74403 53.2525 9.73631C53.4405 9.74728 53.6273 9.69911 53.787 9.59847C53.8461 9.56082 53.8947 9.50873 53.9284 9.44706C53.962 9.38538 53.9796 9.31614 53.9795 9.24578C53.9799 9.17057 53.9577 9.097 53.9158 9.03476C53.8738 8.97253 53.8141 8.92454 53.7445 8.89714C53.503 8.7902 53.2525 8.70518 52.9959 8.64309C52.7006 8.57521 52.4105 8.48609 52.1278 8.37642C51.903 8.28499 51.7033 8.14037 51.5458 7.95481C51.3742 7.73814 51.2876 7.46569 51.3023 7.18906C51.3011 6.9309 51.3803 6.67886 51.5288 6.46835C51.6938 6.23902 51.9188 6.06032 52.1789 5.95214C52.4941 5.81924 52.8337 5.75462 53.1755 5.7625C53.662 5.73717 54.1415 5.88837 54.5266 6.18862C54.6938 6.33044 54.8297 6.5059 54.9255 6.70373C55.0212 6.90155 55.0748 7.11735 55.0827 7.33725H53.9366C53.931 7.24978 53.9072 7.16448 53.8667 7.08687C53.8262 7.00927 53.7699 6.9411 53.7015 6.88681C53.5442 6.78626 53.3634 6.72915 53.1772 6.72125C52.991 6.71334 52.806 6.75491 52.6409 6.84177C52.5853 6.87767 52.54 6.92748 52.5093 6.9863C52.4786 7.04512 52.4637 7.11095 52.4658 7.17734C52.4654 7.25536 52.4879 7.33177 52.5305 7.39695C52.5731 7.46212 52.634 7.51313 52.7054 7.54356C52.9439 7.65416 53.1933 7.73917 53.4494 7.79716C53.7375 7.86604 54.0204 7.9553 54.2961 8.06427C54.5198 8.15706 54.7179 8.30313 54.8731 8.48993C55.0439 8.70597 55.1333 8.97573 55.1256 9.25163C55.1288 9.51608 55.0496 9.7749 54.8991 9.99171C54.7345 10.2205 54.5093 10.398 54.2491 10.5039C53.936 10.6331 53.5997 10.6959 53.2614 10.6885C52.9026 10.6945 52.5466 10.6226 52.2178 10.4777" fill="#AB2346"/>
<path d="M57.9253 5.98192C58.2116 5.8318 58.5307 5.75637 58.8534 5.76256C59.2405 5.75767 59.6212 5.8619 59.9525 6.06345C60.2859 6.27051 60.5555 6.56685 60.7311 6.9193C60.9286 7.31848 61.0269 7.75993 61.0176 8.20576C61.0263 8.65427 60.928 9.09835 60.7311 9.50079C60.5561 9.85828 60.2867 10.1604 59.9525 10.3742C59.6231 10.5812 59.2417 10.6887 58.8534 10.6841C58.534 10.6908 58.2179 10.6167 57.9343 10.4688C57.6829 10.3374 57.4628 10.153 57.2887 9.92826V12.8796H56.0911V5.84004H57.2887V6.52831C57.4559 6.29878 57.6736 6.11169 57.9253 5.98192ZM59.619 7.46163C59.5122 7.26243 59.3523 7.0971 59.1574 6.98416C58.9686 6.87573 58.7547 6.81933 58.5373 6.82065C58.3221 6.82014 58.1108 6.8782 57.9258 6.98866C57.7305 7.10499 57.5708 7.27314 57.4642 7.47469C57.3489 7.7072 57.2888 7.96349 57.2888 8.22333C57.2888 8.48318 57.3489 8.73946 57.4642 8.97196C57.5708 9.17348 57.7305 9.34161 57.9258 9.45799C58.1126 9.56837 58.3255 9.62619 58.5422 9.6254C58.7589 9.62461 58.9713 9.56523 59.1574 9.45349C59.3522 9.33466 59.5117 9.16522 59.619 8.96296C59.7409 8.72982 59.8013 8.46911 59.7945 8.20576C59.8011 7.94646 59.7406 7.69033 59.619 7.46163Z" fill="#AB2346"/>
<path d="M66.2428 8.58469H62.779C62.7891 8.89151 62.9176 9.1823 63.1371 9.39549C63.3488 9.59108 63.6279 9.69609 63.9152 9.68828C64.1129 9.70011 64.3095 9.65127 64.4789 9.54824C64.6484 9.4452 64.7828 9.29282 64.8643 9.11126H66.156C66.0232 9.56467 65.747 9.96211 65.3694 10.2432C64.9557 10.5469 64.453 10.7028 63.9412 10.686C63.5127 10.6929 63.0899 10.5877 62.714 10.3806C62.3551 10.1802 62.0612 9.87992 61.8674 9.51575C61.6592 9.11843 61.5547 8.67434 61.5639 8.22524C61.554 7.77366 61.657 7.32682 61.8634 6.92571C62.0533 6.56278 62.3447 6.2637 62.7015 6.06536C63.0801 5.86889 63.4996 5.76566 63.9256 5.76418C64.3516 5.76269 64.7719 5.86298 65.1518 6.0568C65.5026 6.2465 65.7909 6.53499 65.9814 6.88697C66.1831 7.26649 66.2847 7.69176 66.2764 8.12209C66.2776 8.27756 66.2662 8.43287 66.2424 8.58649M65.0363 7.77569C65.0388 7.63457 65.0102 7.49464 64.9525 7.36597C64.8948 7.23729 64.8095 7.12309 64.7027 7.03156C64.4809 6.8432 64.1978 6.74363 63.9076 6.75184C63.6331 6.74342 63.3656 6.84 63.1591 7.02211C62.9482 7.21911 62.8159 7.48672 62.787 7.77479L65.0363 7.77569Z" fill="#AB2346"/>
<path d="M67.2702 6.92876C67.46 6.56865 67.7477 6.27026 68.0997 6.06841C68.4706 5.86027 68.8898 5.75488 69.3144 5.76301C69.8359 5.74258 70.3491 5.89864 70.7721 6.20624C71.1667 6.51676 71.4406 6.9567 71.5461 7.44947H70.2545C70.194 7.25416 70.0725 7.0837 69.908 6.96344C69.7304 6.84128 69.5186 6.77955 69.3036 6.78732C69.1485 6.7809 68.9941 6.81147 68.8529 6.87652C68.7118 6.94157 68.5879 7.03926 68.4915 7.16164C68.2957 7.47957 68.192 7.84616 68.192 8.22018C68.192 8.59419 68.2957 8.96078 68.4915 9.27872C68.5879 9.40109 68.7118 9.49878 68.8529 9.56383C68.9941 9.62889 69.1485 9.65945 69.3036 9.65303C69.5126 9.67107 69.7213 9.61578 69.8943 9.49655C70.0673 9.37733 70.1939 9.20152 70.2527 8.99899H71.5444C71.4316 9.4864 71.157 9.92052 70.7658 10.2296C70.347 10.5438 69.8341 10.7046 69.3121 10.6854C68.8875 10.6936 68.4684 10.5882 68.0975 10.38C67.7456 10.1781 67.4579 9.87976 67.2679 9.5197C67.0709 9.11677 66.9685 8.67372 66.9685 8.22468C66.9685 7.77564 67.0709 7.33259 67.2679 6.92966" fill="#AB2346"/>
<path d="M73.9024 6.83005V9.13632C73.8965 9.19932 73.9038 9.26285 73.9237 9.32287C73.9436 9.3829 73.9756 9.4381 74.0179 9.48496C74.1301 9.56745 74.2686 9.6056 74.4069 9.59217H74.963V10.6075H74.2104C73.2013 10.6075 72.6967 10.1142 72.6967 9.12776V6.8305H72.1304V5.83953H72.6949V4.66162H73.9006V5.84043H74.9612V6.83141L73.9024 6.83005Z" fill="#AB2346"/>
<path d="M77.7445 5.98708C78.004 5.84061 78.2976 5.7663 78.5951 5.77177V7.03796H78.2786C78.1187 7.01183 77.955 7.0252 77.8014 7.07694C77.6479 7.12867 77.5092 7.21721 77.3972 7.33491C77.2852 7.45262 77.2034 7.59596 77.1587 7.75257C77.1141 7.90918 77.108 8.07437 77.141 8.23388V10.6086H75.9434V5.84068H77.141V6.58076C77.2887 6.33458 77.4966 6.13027 77.7445 5.98708Z" fill="#AB2346"/>
<path d="M83.8949 5.84033V10.6074H82.6888V10.0051C82.5311 10.2149 82.324 10.3819 82.0862 10.4912C81.8332 10.6097 81.5571 10.6698 81.2781 10.6673C80.9351 10.6745 80.5959 10.5931 80.2931 10.4308C80.0056 10.2706 79.7719 10.028 79.6216 9.73396C79.4516 9.39421 79.3679 9.01737 79.378 8.63713V5.84033H80.5756V8.46506C80.5547 8.7817 80.6557 9.0943 80.8577 9.33802C80.9568 9.44133 81.0768 9.52205 81.2095 9.57474C81.3423 9.62742 81.4847 9.65085 81.6273 9.64342C81.7711 9.65141 81.915 9.62828 82.0492 9.5756C82.1835 9.52292 82.3049 9.44191 82.4054 9.33802C82.6074 9.09432 82.7084 8.7817 82.6874 8.46506V5.84033H83.8949Z" fill="#AB2346"/>
<path d="M92.4359 6.30918C92.6212 6.5102 92.764 6.74691 92.8559 7.00502C92.9478 7.26313 92.9867 7.53729 92.9704 7.81096V10.6073H91.7733V7.97402C91.7943 7.6625 91.6928 7.35515 91.4907 7.11818C91.3902 7.01727 91.2698 6.93871 91.1372 6.88758C91.0047 6.83644 90.8629 6.81388 90.7211 6.82134C90.5787 6.81419 90.4364 6.83688 90.3032 6.88798C90.1699 6.93908 90.0486 7.01747 89.9471 7.11818C89.8457 7.23488 89.7683 7.37054 89.7191 7.5174C89.6699 7.66425 89.6501 7.81942 89.6606 7.97402V10.6073H88.4634V7.97402C88.4843 7.6626 88.383 7.35534 88.1813 7.11818C88.0808 7.01729 87.9604 6.93875 87.8278 6.88762C87.6953 6.83649 87.5535 6.81391 87.4117 6.82134C87.268 6.8136 87.1242 6.83598 86.9895 6.88708C86.8548 6.93818 86.7321 7.01687 86.6292 7.11818C86.5279 7.23491 86.4504 7.37057 86.4013 7.51742C86.3521 7.66427 86.3322 7.81942 86.3426 7.97402V10.6073H85.145V5.84027H86.3426V6.41684C86.5001 6.21331 86.704 6.05105 86.9372 5.94387C87.1877 5.82734 87.4609 5.76855 87.7368 5.7718C88.082 5.76572 88.4231 5.84704 88.7289 6.00829C89.0152 6.16173 89.2503 6.39676 89.4045 6.68395C89.5627 6.40466 89.7953 6.17534 90.076 6.0218C90.4506 5.81755 90.8789 5.73556 91.3019 5.78722C91.7248 5.83887 92.1212 6.0216 92.4363 6.31008" fill="#AB2346"/>
</svg>
