<svg width="93" height="17" viewBox="0 0 93 17" fill="none" xmlns="http://www.w3.org/2000/svg">
<path d="M15.656 2.4417H12.4419C12.3368 2.44422 12.2323 2.42558 12.1345 2.38686C12.0367 2.34814 11.9476 2.29013 11.8724 2.21624C11.7972 2.14235 11.7374 2.05408 11.6966 1.95662C11.6558 1.85915 11.6348 1.75446 11.6348 1.6487C11.6348 1.54294 11.6558 1.43825 11.6966 1.34078C11.7374 1.24332 11.7972 1.15504 11.8724 1.08116C11.9476 1.00727 12.0367 0.949262 12.1345 0.910542C12.2323 0.871823 12.3368 0.853174 12.4419 0.855694H15.656C15.7611 0.853174 15.8656 0.871823 15.9634 0.910542C16.0613 0.949262 16.1504 1.00727 16.2256 1.08116C16.3008 1.15504 16.3606 1.24332 16.4014 1.34078C16.4422 1.43825 16.4632 1.54294 16.4632 1.6487C16.4632 1.75446 16.4422 1.85915 16.4014 1.95662C16.3606 2.05408 16.3008 2.14235 16.2256 2.21624C16.1504 2.29013 16.0613 2.34814 15.9634 2.38686C15.8656 2.42558 15.7611 2.44422 15.656 2.4417Z" fill="#AB2346"/>
<path d="M17.2519 4.84503H12.4427C12.3376 4.84755 12.2331 4.8289 12.1353 4.79018C12.0374 4.75146 11.9483 4.69345 11.8731 4.61956C11.7979 4.54568 11.7381 4.4574 11.6973 4.35994C11.6565 4.26247 11.6355 4.15778 11.6355 4.05202C11.6355 3.94626 11.6565 3.84157 11.6973 3.7441C11.7381 3.64664 11.7979 3.55836 11.8731 3.48448C11.9483 3.41059 12.0374 3.35258 12.1353 3.31386C12.2331 3.27514 12.3376 3.25649 12.4427 3.25901H17.2519C17.357 3.25649 17.4615 3.27514 17.5593 3.31386C17.6571 3.35258 17.7463 3.41059 17.8215 3.48448C17.8967 3.55836 17.9564 3.64664 17.9972 3.7441C18.038 3.84157 18.0591 3.94626 18.0591 4.05202C18.0591 4.15778 18.038 4.26247 17.9972 4.35994C17.9564 4.4574 17.8967 4.54568 17.8215 4.61956C17.7463 4.69345 17.6571 4.75146 17.5593 4.79018C17.4615 4.8289 17.357 4.84755 17.2519 4.84503Z" fill="#AB2346"/>
<path d="M18.8358 7.24737H12.4422C12.2364 7.24243 12.0407 7.15672 11.8969 7.00854C11.7531 6.86036 11.6726 6.66147 11.6726 6.45436C11.6726 6.24726 11.7531 6.04837 11.8969 5.90019C12.0407 5.75201 12.2364 5.66629 12.4422 5.66136H18.8358C18.9409 5.65884 19.0455 5.67749 19.1433 5.71621C19.2411 5.75493 19.3302 5.81293 19.4054 5.88682C19.4807 5.96071 19.5404 6.04898 19.5812 6.14645C19.622 6.24391 19.643 6.3486 19.643 6.45436C19.643 6.56012 19.622 6.66481 19.5812 6.76228C19.5404 6.85974 19.4807 6.94802 19.4054 7.0219C19.3302 7.09579 19.2411 7.1538 19.1433 7.19252C19.0455 7.23124 18.9409 7.24989 18.8358 7.24737Z" fill="#AB2346"/>
<path d="M15.656 12.054H12.4419C12.3368 12.0565 12.2323 12.0379 12.1345 11.9992C12.0367 11.9604 11.9476 11.9024 11.8724 11.8285C11.7972 11.7547 11.7374 11.6664 11.6966 11.5689C11.6558 11.4715 11.6348 11.3668 11.6348 11.261C11.6348 11.1552 11.6558 11.0506 11.6966 10.9531C11.7374 10.8556 11.7972 10.7674 11.8724 10.6935C11.9476 10.6196 12.0367 10.5616 12.1345 10.5228C12.2323 10.4841 12.3368 10.4655 12.4419 10.468H15.656C15.7611 10.4655 15.8656 10.4841 15.9634 10.5228C16.0613 10.5616 16.1504 10.6196 16.2256 10.6935C16.3008 10.7674 16.3606 10.8556 16.4014 10.9531C16.4422 11.0506 16.4632 11.1552 16.4632 11.261C16.4632 11.3668 16.4422 11.4715 16.4014 11.5689C16.3606 11.6664 16.3008 11.7547 16.2256 11.8285C16.1504 11.9024 16.0613 11.9604 15.9634 11.9992C15.8656 12.0379 15.7611 12.0565 15.656 12.054Z" fill="#AB2346"/>
<path d="M14.8588 14.4573H12.4412C12.3361 14.4598 12.2316 14.4412 12.1338 14.4025C12.036 14.3638 11.9469 14.3058 11.8717 14.2319C11.7964 14.158 11.7367 14.0697 11.6959 13.9722C11.6551 13.8748 11.634 13.7701 11.634 13.6643C11.634 13.5586 11.6551 13.4539 11.6959 13.3564C11.7367 13.2589 11.7964 13.1707 11.8717 13.0968C11.9469 13.0229 12.036 12.9649 12.1338 12.9262C12.2316 12.8874 12.3361 12.8688 12.4412 12.8713H14.8588C14.9639 12.8688 15.0684 12.8874 15.1662 12.9262C15.2641 12.9649 15.3532 13.0229 15.4284 13.0968C15.5036 13.1707 15.5634 13.2589 15.6042 13.3564C15.645 13.4539 15.666 13.5586 15.666 13.6643C15.666 13.7701 15.645 13.8748 15.6042 13.9722C15.5634 14.0697 15.5036 14.158 15.4284 14.2319C15.3532 14.3058 15.2641 14.3638 15.1662 14.4025C15.0684 14.4412 14.9639 14.4598 14.8588 14.4573Z" fill="#AB2346"/>
<path d="M10.0799 2.4417H8.46149C8.35641 2.44422 8.25187 2.42558 8.15405 2.38686C8.05624 2.34814 7.9671 2.29013 7.89189 2.21624C7.81668 2.14235 7.75694 2.05408 7.71613 1.95662C7.67533 1.85915 7.6543 1.75446 7.6543 1.6487C7.6543 1.54294 7.67533 1.43825 7.71613 1.34078C7.75694 1.24332 7.81668 1.15504 7.89189 1.08116C7.9671 1.00727 8.05624 0.949262 8.15405 0.910542C8.25187 0.871823 8.35641 0.853174 8.46149 0.855694H10.0799C10.185 0.853174 10.2896 0.871823 10.3874 0.910542C10.4852 0.949262 10.5743 1.00727 10.6495 1.08116C10.7247 1.15504 10.7845 1.24332 10.8253 1.34078C10.8661 1.43825 10.8871 1.54294 10.8871 1.6487C10.8871 1.75446 10.8661 1.85915 10.8253 1.95662C10.7845 2.05408 10.7247 2.14235 10.6495 2.21624C10.5743 2.29013 10.4852 2.34814 10.3874 2.38686C10.2896 2.42558 10.185 2.44422 10.0799 2.4417Z" fill="#82AEC9"/>
<path d="M10.0801 4.84503H6.87946C6.77438 4.84755 6.66987 4.8289 6.57205 4.79018C6.47423 4.75146 6.3851 4.69345 6.30989 4.61956C6.23468 4.54568 6.17491 4.4574 6.1341 4.35994C6.0933 4.26247 6.07227 4.15778 6.07227 4.05202C6.07227 3.94626 6.0933 3.84157 6.1341 3.7441C6.17491 3.64664 6.23468 3.55836 6.30989 3.48448C6.3851 3.41059 6.47423 3.35258 6.57205 3.31386C6.66987 3.27514 6.77438 3.25649 6.87946 3.25901H10.0801C10.1852 3.25649 10.2897 3.27514 10.3875 3.31386C10.4853 3.35258 10.5745 3.41059 10.6497 3.48448C10.7249 3.55836 10.7847 3.64664 10.8255 3.7441C10.8663 3.84157 10.8873 3.94626 10.8873 4.05202C10.8873 4.15778 10.8663 4.26247 10.8255 4.35994C10.7847 4.4574 10.7249 4.54568 10.6497 4.61956C10.5745 4.69345 10.4853 4.75146 10.3875 4.79018C10.2897 4.8289 10.1852 4.84755 10.0801 4.84503Z" fill="#82AEC9"/>
<path d="M10.0793 7.24737H5.29475C5.18966 7.24989 5.08512 7.23124 4.98731 7.19252C4.88949 7.1538 4.80035 7.09579 4.72514 7.0219C4.64994 6.94802 4.59016 6.85974 4.54936 6.76228C4.50856 6.66481 4.48755 6.56012 4.48755 6.45436C4.48755 6.3486 4.50856 6.24391 4.54936 6.14645C4.59016 6.04898 4.64994 5.96071 4.72514 5.88682C4.80035 5.81293 4.88949 5.75493 4.98731 5.71621C5.08512 5.67749 5.18966 5.65884 5.29475 5.66136H10.0793C10.1844 5.65884 10.2889 5.67749 10.3868 5.71621C10.4846 5.75493 10.5737 5.81293 10.6489 5.88682C10.7241 5.96071 10.7839 6.04898 10.8247 6.14645C10.8655 6.24391 10.8865 6.3486 10.8865 6.45436C10.8865 6.56012 10.8655 6.66481 10.8247 6.76228C10.7839 6.85974 10.7241 6.94802 10.6489 7.0219C10.5737 7.09579 10.4846 7.1538 10.3868 7.19252C10.2889 7.23124 10.1844 7.24989 10.0793 7.24737Z" fill="#82AEC9"/>
<path d="M10.08 9.65069H3.69392C3.58883 9.65321 3.48432 9.63456 3.3865 9.59584C3.28869 9.55712 3.19955 9.49911 3.12434 9.42522C3.04913 9.35134 2.98936 9.26306 2.94856 9.1656C2.90775 9.06813 2.88672 8.96344 2.88672 8.85768C2.88672 8.75192 2.90775 8.64723 2.94856 8.54977C2.98936 8.4523 3.04913 8.36403 3.12434 8.29014C3.19955 8.21625 3.28869 8.15824 3.3865 8.11952C3.48432 8.0808 3.58883 8.06216 3.69392 8.06468H10.08C10.185 8.06216 10.2896 8.0808 10.3874 8.11952C10.4852 8.15824 10.5743 8.21625 10.6495 8.29014C10.7247 8.36403 10.7845 8.4523 10.8253 8.54977C10.8661 8.64723 10.8871 8.75192 10.8871 8.85768C10.8871 8.96344 10.8661 9.06813 10.8253 9.1656C10.7845 9.26306 10.7247 9.35134 10.6495 9.42522C10.5743 9.49911 10.4852 9.55712 10.3874 9.59584C10.2896 9.63456 10.185 9.65321 10.08 9.65069Z" fill="#82AEC9"/>
<path d="M20.4315 9.65069H12.4427C12.3376 9.65321 12.2331 9.63456 12.1353 9.59584C12.0374 9.55712 11.9483 9.49911 11.8731 9.42522C11.7979 9.35134 11.7381 9.26306 11.6973 9.1656C11.6565 9.06813 11.6355 8.96344 11.6355 8.85768C11.6355 8.75192 11.6565 8.64723 11.6973 8.54977C11.7381 8.4523 11.7979 8.36403 11.8731 8.29014C11.9483 8.21625 12.0374 8.15824 12.1353 8.11952C12.2331 8.0808 12.3376 8.06216 12.4427 8.06468H20.4315C20.5366 8.06216 20.6411 8.0808 20.7389 8.11952C20.8367 8.15824 20.9259 8.21625 21.0011 8.29014C21.0763 8.36403 21.136 8.4523 21.1768 8.54977C21.2177 8.64723 21.2387 8.75192 21.2387 8.85768C21.2387 8.96344 21.2177 9.06813 21.1768 9.1656C21.136 9.26306 21.0763 9.35134 21.0011 9.42522C20.9259 9.49911 20.8367 9.55712 20.7389 9.59584C20.6411 9.63456 20.5366 9.65321 20.4315 9.65069Z" fill="#82AEC9"/>
<path d="M10.0798 12.054H5.28938C5.18429 12.0565 5.07978 12.0379 4.98196 11.9992C4.88414 11.9604 4.79501 11.9024 4.7198 11.8285C4.64459 11.7547 4.58482 11.6664 4.54402 11.5689C4.50321 11.4715 4.48218 11.3668 4.48218 11.261C4.48218 11.1552 4.50321 11.0506 4.54402 10.9531C4.58482 10.8556 4.64459 10.7674 4.7198 10.6935C4.79501 10.6196 4.88414 10.5616 4.98196 10.5228C5.07978 10.4841 5.18429 10.4655 5.28938 10.468H10.0798C10.1849 10.4655 10.2894 10.4841 10.3872 10.5228C10.4851 10.5616 10.5742 10.6196 10.6494 10.6935C10.7246 10.7674 10.7843 10.8556 10.8252 10.9531C10.866 11.0506 10.887 11.1552 10.887 11.261C10.887 11.3668 10.866 11.4715 10.8252 11.5689C10.7843 11.6664 10.7246 11.7547 10.6494 11.8285C10.5742 11.9024 10.4851 11.9604 10.3872 11.9992C10.2894 12.0379 10.1849 12.0565 10.0798 12.054Z" fill="#82AEC9"/>
<path d="M20.4316 12.054H18.0172C17.8114 12.0491 17.6157 11.9634 17.4719 11.8152C17.3281 11.667 17.2476 11.4681 17.2476 11.261C17.2476 11.0539 17.3281 10.855 17.4719 10.7068C17.6157 10.5586 17.8114 10.4729 18.0172 10.468H20.4316C20.5367 10.4655 20.6413 10.4841 20.7391 10.5228C20.8369 10.5616 20.926 10.6196 21.0012 10.6935C21.0765 10.7674 21.1362 10.8556 21.177 10.9531C21.2178 11.0506 21.2388 11.1552 21.2388 11.261C21.2388 11.3668 21.2178 11.4715 21.177 11.5689C21.1362 11.6664 21.0765 11.7547 21.0012 11.8285C20.926 11.9024 20.8369 11.9604 20.7391 11.9992C20.6413 12.0379 20.5367 12.0565 20.4316 12.054Z" fill="#82AEC9"/>
<path d="M10.0793 14.4573H6.87336C6.76827 14.4598 6.66374 14.4412 6.56592 14.4025C6.4681 14.3638 6.37897 14.3058 6.30376 14.2319C6.22855 14.158 6.16878 14.0697 6.12797 13.9722C6.08717 13.8748 6.06616 13.7701 6.06616 13.6643C6.06616 13.5586 6.08717 13.4539 6.12797 13.3564C6.16878 13.2589 6.22855 13.1707 6.30376 13.0968C6.37897 13.0229 6.4681 12.9649 6.56592 12.9262C6.66374 12.8874 6.76827 12.8688 6.87336 12.8713H10.0793C10.1844 12.8688 10.289 12.8874 10.3868 12.9262C10.4846 12.9649 10.5737 13.0229 10.6489 13.0968C10.7241 13.1707 10.7839 13.2589 10.8247 13.3564C10.8655 13.4539 10.8865 13.5586 10.8865 13.6643C10.8865 13.7701 10.8655 13.8748 10.8247 13.9722C10.7839 14.0697 10.7241 14.158 10.6489 14.2319C10.5737 14.3058 10.4846 14.3638 10.3868 14.4025C10.289 14.4412 10.1844 14.4598 10.0793 14.4573Z" fill="#82AEC9"/>
<path d="M20.58 14.4573H17.233C17.0272 14.4524 16.8315 14.3667 16.6877 14.2185C16.5439 14.0703 16.4634 13.8714 16.4634 13.6643C16.4634 13.4572 16.5439 13.2583 16.6877 13.1101C16.8315 12.962 17.0272 12.8763 17.233 12.8713H20.58C20.6851 12.8688 20.7896 12.8874 20.8874 12.9262C20.9853 12.9649 21.0744 13.0229 21.1496 13.0968C21.2248 13.1707 21.2846 13.2589 21.3254 13.3564C21.3662 13.4539 21.3872 13.5586 21.3872 13.6643C21.3872 13.7701 21.3662 13.8748 21.3254 13.9722C21.2846 14.0697 21.2248 14.158 21.1496 14.2319C21.0744 14.3058 20.9853 14.3638 20.8874 14.4025C20.7896 14.4412 20.6851 14.4598 20.58 14.4573Z" fill="#82AEC9"/>
<path d="M10.0799 16.8606H8.46149C8.35641 16.8632 8.25187 16.8445 8.15405 16.8058C8.05624 16.7671 7.9671 16.7091 7.89189 16.6352C7.81668 16.5613 7.75694 16.473 7.71613 16.3756C7.67533 16.2781 7.6543 16.1734 7.6543 16.0676C7.6543 15.9619 7.67533 15.8572 7.71613 15.7597C7.75694 15.6623 7.81668 15.574 7.89189 15.5001C7.9671 15.4262 8.05624 15.3682 8.15405 15.3295C8.25187 15.2908 8.35641 15.2721 8.46149 15.2746H10.0799C10.185 15.2721 10.2896 15.2908 10.3874 15.3295C10.4852 15.3682 10.5743 15.4262 10.6495 15.5001C10.7247 15.574 10.7845 15.6623 10.8253 15.7597C10.8661 15.8572 10.8871 15.9619 10.8871 16.0676C10.8871 16.1734 10.8661 16.2781 10.8253 16.3756C10.7845 16.473 10.7247 16.5613 10.6495 16.6352C10.5743 16.7091 10.4852 16.7671 10.3874 16.8058C10.2896 16.8445 10.185 16.8632 10.0799 16.8606Z" fill="#82AEC9"/>
<path d="M15.656 16.8606H12.4419C12.3368 16.8632 12.2323 16.8445 12.1345 16.8058C12.0367 16.7671 11.9476 16.7091 11.8724 16.6352C11.7972 16.5613 11.7374 16.473 11.6966 16.3756C11.6558 16.2781 11.6348 16.1734 11.6348 16.0676C11.6348 15.9619 11.6558 15.8572 11.6966 15.7597C11.7374 15.6623 11.7972 15.574 11.8724 15.5001C11.9476 15.4262 12.0367 15.3682 12.1345 15.3295C12.2323 15.2908 12.3368 15.2721 12.4419 15.2746H15.656C15.7611 15.2721 15.8656 15.2908 15.9634 15.3295C16.0613 15.3682 16.1504 15.4262 16.2256 15.5001C16.3008 15.574 16.3606 15.6623 16.4014 15.7597C16.4422 15.8572 16.4632 15.9619 16.4632 16.0676C16.4632 16.1734 16.4422 16.2781 16.4014 16.3756C16.3606 16.473 16.3008 16.5613 16.2256 16.6352C16.1504 16.7091 16.0613 16.7671 15.9634 16.8058C15.8656 16.8445 15.7611 16.8632 15.656 16.8606Z" fill="#82AEC9"/>
<path d="M6.9099 2.25428C6.9099 2.37411 6.87458 2.49124 6.80841 2.59087C6.74224 2.6905 6.64819 2.76816 6.53816 2.81401C6.42813 2.85987 6.30706 2.87187 6.19025 2.84849C6.07344 2.82511 5.96615 2.76741 5.88194 2.68268C5.79772 2.59795 5.74037 2.49 5.71714 2.37248C5.6939 2.25496 5.70583 2.13314 5.7514 2.02244C5.79698 1.91173 5.87415 1.81711 5.97318 1.75054C6.0722 1.68397 6.18863 1.64844 6.30772 1.64844C6.46743 1.64844 6.62058 1.71227 6.73351 1.82589C6.84644 1.9395 6.9099 2.0936 6.9099 2.25428Z" fill="#1D365A"/>
<path d="M6.8867 15.8607C6.8867 15.9806 6.85138 16.0977 6.78522 16.1973C6.71905 16.2969 6.625 16.3746 6.51497 16.4205C6.40494 16.4663 6.28387 16.4783 6.16706 16.4549C6.05025 16.4316 5.94296 16.3739 5.85874 16.2891C5.77453 16.2044 5.71718 16.0964 5.69394 15.9789C5.67071 15.8614 5.68263 15.7396 5.72821 15.6289C5.77379 15.5182 5.85099 15.4236 5.95001 15.357C6.04904 15.2904 6.16544 15.2549 6.28453 15.2549C6.44423 15.2549 6.59742 15.3187 6.71035 15.4323C6.82327 15.5459 6.8867 15.7 6.8867 15.8607Z" fill="#1D365A"/>
<path d="M4.89359 4.84499H4.09757C3.99302 4.84499 3.89275 4.8032 3.81882 4.72882C3.74489 4.65444 3.70337 4.55356 3.70337 4.44837C3.70337 4.34319 3.74489 4.2423 3.81882 4.16792C3.89275 4.09354 3.99302 4.05176 4.09757 4.05176H4.89359C4.99814 4.05176 5.09841 4.09354 5.17234 4.16792C5.24626 4.2423 5.28779 4.34319 5.28779 4.44837C5.28779 4.55356 5.24626 4.65444 5.17234 4.72882C5.09841 4.8032 4.99814 4.84499 4.89359 4.84499Z" fill="#1D365A"/>
<path d="M3.29867 7.24733H1.7089C1.60435 7.24733 1.50407 7.20555 1.43015 7.13117C1.35622 7.05679 1.3147 6.95591 1.3147 6.85072C1.3147 6.74553 1.35622 6.64465 1.43015 6.57027C1.50407 6.49589 1.60435 6.4541 1.7089 6.4541H3.29867C3.40322 6.4541 3.50349 6.49589 3.57742 6.57027C3.65135 6.64465 3.6929 6.74553 3.6929 6.85072C3.6929 6.95591 3.65135 7.05679 3.57742 7.13117C3.50349 7.20555 3.40322 7.24733 3.29867 7.24733Z" fill="#1D365A"/>
<path d="M3.30914 11.2444H0.921542C0.816994 11.2444 0.716749 11.2026 0.642822 11.1282C0.568894 11.0539 0.527344 10.953 0.527344 10.8478C0.527344 10.7426 0.568894 10.6417 0.642822 10.5673C0.716749 10.493 0.816994 10.4512 0.921542 10.4512H3.30914C3.41369 10.4512 3.51396 10.493 3.58789 10.5673C3.66182 10.6417 3.70334 10.7426 3.70334 10.8478C3.70334 10.953 3.66182 11.0539 3.58789 11.1282C3.51396 11.2026 3.41369 11.2444 3.30914 11.2444Z" fill="#1D365A"/>
<path d="M4.89717 13.6389H4.09757C3.99302 13.6389 3.89275 13.5971 3.81882 13.5228C3.74489 13.4484 3.70337 13.3475 3.70337 13.2423C3.70337 13.1371 3.74489 13.0363 3.81882 12.9619C3.89275 12.8875 3.99302 12.8457 4.09757 12.8457H4.89717C5.00172 12.8457 5.10199 12.8875 5.17592 12.9619C5.24984 13.0363 5.29137 13.1371 5.29137 13.2423C5.29137 13.3475 5.24984 13.4484 5.17592 13.5228C5.10199 13.5971 5.00172 13.6389 4.89717 13.6389Z" fill="#1D365A"/>
<path d="M29.6389 8.33345C29.8529 8.60134 29.9678 8.9357 29.9639 9.27938C29.9699 9.5789 29.8882 9.87358 29.7288 10.1267C29.5616 10.3792 29.3255 10.5779 29.0488 10.6987C28.7173 10.8435 28.3584 10.9139 27.9971 10.905H25.4229V4.90018H27.8852C28.2443 4.89138 28.6013 4.95876 28.9328 5.09792C29.2041 5.21167 29.4361 5.40327 29.5999 5.64881C29.752 5.88741 29.8308 6.16583 29.8264 6.44925C29.8375 6.76536 29.7394 7.07556 29.5489 7.32716C29.3588 7.56561 29.1007 7.73978 28.8093 7.82625C29.139 7.88535 29.4348 8.06624 29.6389 8.33345ZM26.6195 7.37851H27.7146C27.9498 7.39391 28.1829 7.32532 28.3728 7.18482C28.451 7.11632 28.5125 7.03065 28.5525 6.93443C28.5926 6.8382 28.6101 6.73401 28.6038 6.62988C28.6098 6.52512 28.5922 6.42035 28.5522 6.32344C28.5122 6.22654 28.4508 6.14003 28.3728 6.07043C28.1841 5.92704 27.9506 5.85669 27.7146 5.87223H26.6195V7.37851ZM28.5053 9.72082C28.5876 9.64839 28.6524 9.55796 28.6946 9.45646C28.7368 9.35496 28.7554 9.24508 28.7488 9.13524C28.7546 9.02116 28.7344 8.90725 28.69 8.80214C28.6456 8.69703 28.578 8.60345 28.4923 8.52849C28.2953 8.37366 28.0493 8.29575 27.7997 8.30913H26.6195V9.92667H27.8257C28.0696 9.94167 28.3107 9.86851 28.5057 9.72037" fill="#AB2346"/>
<path d="M32.7113 6.2859C32.9709 6.13946 33.2645 6.06515 33.562 6.07059V7.33679H33.2454C33.0856 7.31076 32.9219 7.32422 32.7684 7.37599C32.6149 7.42776 32.4762 7.5163 32.3643 7.63398C32.2524 7.75165 32.1705 7.89494 32.1259 8.05151C32.0812 8.20807 32.075 8.37321 32.1079 8.53271V10.9074H30.9111V6.13951H32.1065V6.87959C32.2543 6.63347 32.4618 6.42918 32.7096 6.2859" fill="#AB2346"/>
<path d="M35.331 10.677C34.9689 10.4763 34.6709 10.1764 34.4714 9.81214C34.2572 9.41671 34.1492 8.9719 34.158 8.52162C34.1488 8.07027 34.2594 7.62461 34.4786 7.23065C34.6844 6.86542 34.9882 6.56575 35.3552 6.3658C35.7382 6.16526 36.1636 6.06055 36.5953 6.06055C37.0271 6.06055 37.4524 6.16526 37.8354 6.3658C38.2024 6.56579 38.5061 6.86545 38.712 7.23065C38.9313 7.62456 39.0422 8.07023 39.033 8.52162C39.0422 8.97392 38.9284 9.42014 38.704 9.81214C38.4922 10.1773 38.1844 10.4766 37.8144 10.677C37.4289 10.8837 36.9976 10.9887 36.5608 10.9824C36.131 10.989 35.7067 10.8838 35.3292 10.677M37.1724 9.77341C37.3679 9.66249 37.5269 9.49654 37.6299 9.29593C37.7502 9.05619 37.809 8.79003 37.801 8.52162C37.8134 8.33244 37.7884 8.14266 37.7275 7.96322C37.6667 7.78378 37.5711 7.61825 37.4464 7.47615C37.3348 7.358 37.2 7.26451 37.0505 7.20161C36.9011 7.13872 36.7403 7.10781 36.5783 7.11084C36.4175 7.1073 36.2578 7.13802 36.1096 7.20098C35.9615 7.26394 35.8283 7.35771 35.7187 7.47615C35.4717 7.76558 35.3473 8.14093 35.3722 8.52162C35.3472 8.90087 35.4682 9.27524 35.7102 9.5671C35.8176 9.68592 35.9491 9.78008 36.0959 9.84319C36.2427 9.9063 36.4013 9.93689 36.5608 9.93286C36.7749 9.93355 36.9855 9.87834 37.1724 9.77341Z" fill="#AB2346"/>
<path d="M39.9401 7.22274C40.1145 6.86833 40.3843 6.57026 40.7187 6.36239C41.0499 6.16066 41.4307 6.05627 41.8178 6.06105C42.1402 6.05369 42.4593 6.12771 42.7459 6.27636C42.9957 6.40649 43.2133 6.59118 43.383 6.81689V6.13853H44.5891V10.9065H43.383V10.2087C43.2178 10.4424 42.9993 10.6327 42.7459 10.7637C42.4568 10.9144 42.1348 10.9898 41.8093 10.983C41.4238 10.9869 41.0453 10.8793 40.7187 10.6731C40.3843 10.4595 40.1149 10.1573 39.9401 9.79972C39.7431 9.39731 39.6448 8.95322 39.6536 8.5047C39.6451 8.06026 39.7434 7.62077 39.9401 7.22274ZM43.2115 7.76868C43.1054 7.56777 42.9453 7.40091 42.7495 7.28715C42.5598 7.1763 42.3442 7.1183 42.1249 7.11914C41.9046 7.11671 41.688 7.17521 41.4985 7.28825C41.309 7.40128 41.154 7.56451 41.0504 7.76012C40.9289 7.98884 40.8684 8.24541 40.8749 8.5047C40.869 8.76666 40.9294 9.02583 41.0504 9.25784C41.1568 9.46223 41.3165 9.63354 41.5125 9.75333C41.6967 9.86621 41.9083 9.92575 42.124 9.9254C42.3433 9.92631 42.5589 9.86847 42.7486 9.75783C42.9444 9.64384 43.1044 9.47685 43.2106 9.27586C43.3231 9.041 43.3815 8.78365 43.3815 8.52294C43.3815 8.26223 43.3231 8.00488 43.2106 7.77003" fill="#AB2346"/>
<path d="M45.7031 7.22273C45.8758 6.86925 46.1447 6.57239 46.4785 6.36673C46.8124 6.16106 47.1974 6.05505 47.5889 6.06104C47.894 6.06045 48.1952 6.12961 48.4699 6.26328C48.7328 6.38474 48.9619 6.56945 49.137 6.80111V4.53809H50.3516V10.9055H49.137V10.2002C48.9822 10.4414 48.767 10.6374 48.5129 10.7682C48.2247 10.9164 47.9044 10.9904 47.5808 10.9835C47.1941 10.987 46.8143 10.8795 46.4862 10.6736C46.15 10.461 45.879 10.1586 45.7036 9.80016C45.5065 9.39776 45.4082 8.95366 45.4171 8.50514C45.4085 8.06069 45.5068 7.62074 45.7036 7.22273M48.9749 7.76912C48.8689 7.56826 48.709 7.40142 48.5134 7.28759C48.3239 7.17681 48.1084 7.11882 47.8892 7.11958C47.669 7.11715 47.4523 7.17565 47.2628 7.28868C47.0733 7.40172 46.9183 7.56495 46.8148 7.76055C46.6932 7.98928 46.6327 8.24584 46.6393 8.50514C46.6334 8.76709 46.6938 9.02626 46.8148 9.25828C46.9211 9.46267 47.0808 9.63398 47.2768 9.75377C47.461 9.86667 47.6726 9.92622 47.8883 9.92584C48.1075 9.92667 48.3229 9.86883 48.5125 9.75827C48.7081 9.64421 48.868 9.47723 48.974 9.2763C49.0867 9.04148 49.1452 8.78411 49.1452 8.52338C49.1452 8.26265 49.0867 8.00528 48.974 7.77047" fill="#AB2346"/>
<path d="M52.2466 10.7706C51.9585 10.6455 51.7068 10.4484 51.5155 10.1981C51.3397 9.96724 51.2369 9.68853 51.2205 9.39814H52.4266C52.4376 9.48867 52.4672 9.57593 52.5134 9.65439C52.5596 9.73284 52.6215 9.80081 52.6952 9.85399C52.8648 9.97843 53.071 10.0419 53.2808 10.0342C53.4689 10.0451 53.6557 9.99696 53.8153 9.89633C53.8744 9.85867 53.923 9.80658 53.9567 9.74491C53.9904 9.68324 54.008 9.61399 54.0078 9.54363C54.0083 9.46843 53.986 9.39485 53.9441 9.33262C53.9021 9.27038 53.8424 9.22239 53.7728 9.19499C53.5313 9.08805 53.2808 9.00304 53.0242 8.94094C52.7289 8.87306 52.4388 8.78395 52.1561 8.67428C51.9313 8.58285 51.7316 8.43822 51.5741 8.25266C51.4026 8.036 51.3159 7.76354 51.3306 7.48691C51.3294 7.22875 51.4086 6.97671 51.5571 6.7662C51.7221 6.53688 51.9472 6.35817 52.2072 6.24999C52.5225 6.11709 52.862 6.05247 53.2038 6.06035C53.6903 6.03502 54.1698 6.18622 54.5549 6.48647C54.7222 6.62829 54.858 6.80375 54.9538 7.00158C55.0496 7.1994 55.1031 7.41521 55.111 7.6351H53.9649C53.9593 7.54763 53.9355 7.46233 53.895 7.38472C53.8545 7.30712 53.7982 7.23895 53.7298 7.18466C53.5725 7.08411 53.3917 7.02701 53.2055 7.0191C53.0193 7.01119 52.8344 7.05276 52.6692 7.13962C52.6137 7.17553 52.5683 7.22533 52.5376 7.28415C52.5069 7.34297 52.492 7.4088 52.4942 7.47519C52.4937 7.55321 52.5162 7.62963 52.5588 7.6948C52.6014 7.75997 52.6623 7.81098 52.7337 7.84141C52.9722 7.95201 53.2216 8.03702 53.4778 8.09501C53.7659 8.16389 54.0488 8.25315 54.3244 8.36212C54.5481 8.45491 54.7462 8.60098 54.9015 8.78779C55.0722 9.00382 55.1616 9.27358 55.1539 9.54949C55.1572 9.81394 55.0779 10.0728 54.9274 10.2896C54.7629 10.5183 54.5376 10.6958 54.2774 10.8017C53.9643 10.9309 53.6281 10.9938 53.2897 10.9864C52.9309 10.9923 52.5749 10.9204 52.2461 10.7756" fill="#AB2346"/>
<path d="M57.9534 6.28026C58.2396 6.13014 58.5587 6.05471 58.8815 6.0609C59.2686 6.05601 59.6493 6.16024 59.9806 6.36179C60.314 6.56885 60.5836 6.86519 60.7591 7.21764C60.9567 7.61682 61.055 8.05827 61.0457 8.5041C61.0544 8.95261 60.9561 9.39669 60.7591 9.79913C60.5842 10.1566 60.3148 10.4588 59.9806 10.6725C59.6512 10.8795 59.2698 10.9871 58.8815 10.9824C58.562 10.9891 58.246 10.9151 57.9623 10.7671C57.711 10.6357 57.4908 10.4514 57.3168 10.2266V13.1779H56.1191V6.13838H57.3168V6.82665C57.484 6.59712 57.7017 6.41003 57.9534 6.28026ZM59.647 7.75997C59.5402 7.56077 59.3804 7.39544 59.1855 7.2825C58.9967 7.17407 58.7828 7.11767 58.5654 7.11899C58.3502 7.11848 58.1389 7.17654 57.9538 7.287C57.7586 7.40333 57.5989 7.57148 57.4923 7.77303C57.3769 8.00553 57.3169 8.26183 57.3169 8.52167C57.3169 8.78152 57.3769 9.0378 57.4923 9.2703C57.5989 9.47182 57.7586 9.63995 57.9538 9.75633C58.1407 9.86671 58.3536 9.92453 58.5703 9.92374C58.7869 9.92295 58.9994 9.86357 59.1855 9.75183C59.3803 9.633 59.5398 9.46356 59.647 9.2613C59.769 9.02816 59.8294 8.76745 59.8225 8.5041C59.8292 8.2448 59.7687 7.98867 59.647 7.75997Z" fill="#AB2346"/>
<path d="M66.2712 8.88303H62.8073C62.8175 9.18985 62.9459 9.48064 63.1654 9.69383C63.3772 9.88942 63.6562 9.99443 63.9435 9.98662C64.1412 9.99845 64.3378 9.94961 64.5073 9.84658C64.6767 9.74354 64.8111 9.59116 64.8927 9.4096H66.1843C66.0515 9.86301 65.7754 10.2605 65.3977 10.5416C64.984 10.8453 64.4813 11.0011 63.9695 10.9843C63.5411 10.9912 63.1182 10.886 62.7424 10.6789C62.3834 10.4785 62.0895 10.1783 61.8958 9.81409C61.6875 9.41677 61.583 8.97268 61.5922 8.52358C61.5823 8.072 61.6853 7.62516 61.8917 7.22405C62.0816 6.86112 62.373 6.56204 62.7298 6.3637C63.1084 6.16723 63.5279 6.064 63.9539 6.06252C64.3799 6.06103 64.8002 6.16132 65.1801 6.35514C65.531 6.54484 65.8192 6.83333 66.0097 7.18531C66.2115 7.56483 66.313 7.9901 66.3047 8.42043C66.3059 8.5759 66.2945 8.73121 66.2707 8.88483M65.0646 8.07403C65.0671 7.93291 65.0385 7.79298 64.9808 7.6643C64.9231 7.53563 64.8379 7.42143 64.7311 7.3299C64.5092 7.14154 64.2261 7.04197 63.9359 7.05018C63.6614 7.04176 63.3939 7.13834 63.1874 7.32044C62.9765 7.51745 62.8442 7.78506 62.8153 8.07313L65.0646 8.07403Z" fill="#AB2346"/>
<path d="M67.2982 7.2271C67.4881 6.86699 67.7758 6.5686 68.1278 6.36675C68.4987 6.15861 68.9178 6.05322 69.3424 6.06135C69.8639 6.04092 70.3772 6.19698 70.8002 6.50458C71.1948 6.8151 71.4687 7.25504 71.5742 7.74781H70.2826C70.2221 7.5525 70.1006 7.38204 69.9361 7.26178C69.7585 7.13962 69.5467 7.07789 69.3317 7.08566C69.1766 7.07924 69.0221 7.10981 68.881 7.17486C68.7399 7.23991 68.616 7.3376 68.5195 7.45998C68.3238 7.77791 68.2201 8.1445 68.2201 8.51852C68.2201 8.89253 68.3238 9.25912 68.5195 9.57706C68.616 9.69943 68.7399 9.79712 68.881 9.86217C69.0221 9.92722 69.1766 9.95779 69.3317 9.95137C69.5406 9.96941 69.7493 9.91412 69.9224 9.79489C70.0954 9.67567 70.222 9.49986 70.2808 9.29733H71.5724C71.4597 9.78474 71.1851 10.2189 70.7939 10.5279C70.3751 10.8421 69.8622 11.003 69.3402 10.9838C68.9156 10.9919 68.4965 10.8865 68.1256 10.6784C67.7736 10.4765 67.4859 10.1781 67.296 9.81804C67.099 9.41511 66.9966 8.97206 66.9966 8.52302C66.9966 8.07398 67.099 7.63093 67.296 7.228" fill="#AB2346"/>
<path d="M73.9307 7.12839V9.43466C73.9249 9.49766 73.9321 9.56119 73.952 9.62121C73.9719 9.68124 74.004 9.73644 74.0462 9.7833C74.1585 9.86579 74.2969 9.90394 74.4353 9.89051H74.9913V10.9058H74.2387C73.2296 10.9058 72.725 10.4126 72.725 9.4261V7.12884H72.1587V6.13787H72.7232V4.95996H73.9289V6.13877H74.9895V7.12975L73.9307 7.12839Z" fill="#AB2346"/>
<path d="M77.7725 6.2859C78.0321 6.13944 78.3257 6.06513 78.6232 6.07059V7.33679H78.3067C78.1468 7.31066 77.9831 7.32403 77.8295 7.37577C77.676 7.4275 77.5372 7.51604 77.4253 7.63374C77.3133 7.75145 77.2315 7.89479 77.1868 8.0514C77.1422 8.20801 77.1361 8.3732 77.1691 8.53271V10.9074H75.9714V6.13951H77.1691V6.87959C77.3167 6.63341 77.5247 6.4291 77.7725 6.2859Z" fill="#AB2346"/>
<path d="M83.923 6.13965V10.9067H82.7169V10.3044C82.5592 10.5142 82.3521 10.6812 82.1143 10.7905C81.8613 10.909 81.5852 10.9691 81.3062 10.9666C80.9631 10.9738 80.624 10.8924 80.3212 10.7301C80.0337 10.5699 79.8 10.3273 79.6496 10.0333C79.4796 9.69353 79.396 9.31669 79.4061 8.93645V6.13965H80.6037V8.76438C80.5828 9.08101 80.6838 9.39361 80.8857 9.63734C80.9849 9.74065 81.1049 9.82137 81.2376 9.87405C81.3704 9.92674 81.5128 9.95016 81.6553 9.94274C81.7992 9.95072 81.9431 9.9276 82.0773 9.87492C82.2115 9.82224 82.333 9.74122 82.4335 9.63734C82.6355 9.39363 82.7365 9.08102 82.7155 8.76438V6.13965H83.923Z" fill="#AB2346"/>
<path d="M92.4639 6.60899C92.6492 6.81001 92.7921 7.04671 92.884 7.30482C92.9759 7.56293 93.0148 7.83709 92.9985 8.11076V10.9071H91.8014V8.27382C91.8224 7.96231 91.7209 7.65495 91.5188 7.41798C91.4183 7.31707 91.2979 7.23851 91.1653 7.18738C91.0328 7.13625 90.891 7.11368 90.7492 7.12114C90.6068 7.11399 90.4645 7.13669 90.3312 7.18779C90.198 7.23888 90.0767 7.31727 89.9751 7.41798C89.8738 7.53469 89.7963 7.67035 89.7472 7.8172C89.698 7.96405 89.6782 8.11922 89.6886 8.27382V10.9071H88.4915V8.27382C88.5124 7.9624 88.4111 7.65514 88.2094 7.41798C88.1089 7.3171 87.9885 7.23855 87.8559 7.18742C87.7234 7.13629 87.5816 7.11371 87.4398 7.12114C87.296 7.1134 87.1523 7.13579 87.0176 7.18689C86.8829 7.23798 86.7602 7.31668 86.6573 7.41798C86.556 7.53471 86.4785 7.67038 86.4294 7.81722C86.3802 7.96407 86.3603 8.11922 86.3707 8.27382V10.9071H85.1731V6.14007H86.3707V6.71664C86.5282 6.51312 86.7321 6.35086 86.9653 6.24367C87.2157 6.12714 87.4889 6.06836 87.7649 6.07161C88.11 6.06552 88.4512 6.14684 88.757 6.30809C89.0433 6.46154 89.2783 6.69657 89.4326 6.98375C89.5908 6.70447 89.8234 6.47515 90.1041 6.3216C90.4786 6.11735 90.907 6.03537 91.3299 6.08702C91.7528 6.13867 92.1493 6.32141 92.4644 6.60989" fill="#AB2346"/>
</svg>
