<svg width="13" height="14" viewBox="0 0 13 14" fill="none" xmlns="http://www.w3.org/2000/svg">
<path d="M9.53634 1.33203H4.20743C2.60106 1.33203 1.29883 2.73443 1.29883 4.46438V10.2032C1.29883 11.9331 2.60106 13.3355 4.20743 13.3355H9.53634C11.1427 13.3355 12.4449 11.9331 12.4449 10.2032V4.46438C12.4449 2.73443 11.1427 1.33203 9.53634 1.33203Z" stroke="#0A2804" stroke-width="0.797265" stroke-linecap="round" stroke-linejoin="round"/>
<path d="M6.87186 10.477C8.4841 10.477 9.79108 9.06949 9.79108 7.33323C9.79108 5.59697 8.4841 4.18945 6.87186 4.18945C5.25962 4.18945 3.95264 5.59697 3.95264 7.33323C3.95264 9.06949 5.25962 10.477 6.87186 10.477Z" stroke="#0A2804" stroke-width="0.797265" stroke-linecap="round" stroke-linejoin="round"/>
<path d="M10.0566 3.61652C10.2032 3.61652 10.322 3.48856 10.322 3.33072C10.322 3.17288 10.2032 3.04492 10.0566 3.04492C9.91008 3.04492 9.79126 3.17288 9.79126 3.33072C9.79126 3.48856 9.91008 3.61652 10.0566 3.61652Z" stroke="#0A2804" stroke-width="0.797265" stroke-linecap="round" stroke-linejoin="round"/>
</svg>
