<svg width="15" height="17" viewBox="0 0 15 17" fill="none" xmlns="http://www.w3.org/2000/svg">
<path d="M10.8242 0.905762H4.16497C2.15758 0.905762 0.530273 2.65825 0.530273 4.82005V11.9915C0.530273 14.1533 2.15758 15.9058 4.16497 15.9058H10.8242C12.8315 15.9058 14.4588 14.1533 14.4588 11.9915V4.82005C14.4588 2.65825 12.8315 0.905762 10.8242 0.905762Z" stroke="#0A2804" stroke-width="0.996289" stroke-linecap="round" stroke-linejoin="round"/>
<path d="M7.49464 12.3342C9.50935 12.3342 11.1426 10.5753 11.1426 8.40562C11.1426 6.23593 9.50935 4.47705 7.49464 4.47705C5.47993 4.47705 3.84668 6.23593 3.84668 8.40562C3.84668 10.5753 5.47993 12.3342 7.49464 12.3342Z" stroke="#0A2804" stroke-width="0.996289" stroke-linecap="round" stroke-linejoin="round"/>
<path d="M11.4742 3.76067C11.6574 3.76067 11.8058 3.60077 11.8058 3.40353C11.8058 3.20628 11.6574 3.04639 11.4742 3.04639C11.2911 3.04639 11.1426 3.20628 11.1426 3.40353C11.1426 3.60077 11.2911 3.76067 11.4742 3.76067Z" stroke="#0A2804" stroke-width="0.996289" stroke-linecap="round" stroke-linejoin="round"/>
</svg>
