<svg width="93" height="17" viewBox="0 0 93 17" fill="none" xmlns="http://www.w3.org/2000/svg">
<path d="M15.6282 2.18584H12.4141C12.309 2.18836 12.2045 2.16972 12.1067 2.131C12.0089 2.09228 11.9197 2.03427 11.8445 1.96038C11.7693 1.8865 11.7095 1.79822 11.6687 1.70076C11.6279 1.60329 11.6069 1.4986 11.6069 1.39284C11.6069 1.28708 11.6279 1.18239 11.6687 1.08492C11.7095 0.987458 11.7693 0.899185 11.8445 0.825298C11.9197 0.751412 12.0089 0.693402 12.1067 0.654683C12.2045 0.615963 12.309 0.597315 12.4141 0.599835H15.6282C15.7332 0.597315 15.8378 0.615963 15.9356 0.654683C16.0334 0.693402 16.1226 0.751412 16.1978 0.825298C16.273 0.899185 16.3327 0.987458 16.3735 1.08492C16.4143 1.18239 16.4354 1.28708 16.4354 1.39284C16.4354 1.4986 16.4143 1.60329 16.3735 1.70076C16.3327 1.79822 16.273 1.8865 16.1978 1.96038C16.1226 2.03427 16.0334 2.09228 15.9356 2.131C15.8378 2.16972 15.7332 2.18836 15.6282 2.18584Z" fill="#AB2346"/>
<path d="M17.2238 4.58917H12.4146C12.3095 4.59169 12.205 4.57304 12.1072 4.53432C12.0094 4.4956 11.9202 4.43759 11.845 4.3637C11.7698 4.28982 11.71 4.20154 11.6692 4.10408C11.6284 4.00661 11.6074 3.90192 11.6074 3.79616C11.6074 3.6904 11.6284 3.58571 11.6692 3.48824C11.71 3.39078 11.7698 3.30251 11.845 3.22862C11.9202 3.15473 12.0094 3.09672 12.1072 3.058C12.205 3.01928 12.3095 3.00063 12.4146 3.00315H17.2238C17.3289 3.00063 17.4334 3.01928 17.5312 3.058C17.6291 3.09672 17.7182 3.15473 17.7934 3.22862C17.8686 3.30251 17.9284 3.39078 17.9692 3.48824C18.01 3.58571 18.031 3.6904 18.031 3.79616C18.031 3.90192 18.01 4.00661 17.9692 4.10408C17.9284 4.20154 17.8686 4.28982 17.7934 4.3637C17.7182 4.43759 17.6291 4.4956 17.5312 4.53432C17.4334 4.57304 17.3289 4.59169 17.2238 4.58917Z" fill="#AB2346"/>
<path d="M18.8078 6.99151H12.4141C12.2083 6.98657 12.0127 6.90086 11.8688 6.75268C11.725 6.6045 11.6445 6.40561 11.6445 6.1985C11.6445 5.9914 11.725 5.79251 11.8688 5.64433C12.0127 5.49615 12.2083 5.41043 12.4141 5.4055H18.8078C18.9129 5.40298 19.0174 5.42163 19.1152 5.46035C19.213 5.49907 19.3022 5.55707 19.3774 5.63096C19.4526 5.70485 19.5123 5.79312 19.5531 5.89059C19.5939 5.98805 19.615 6.09274 19.615 6.1985C19.615 6.30426 19.5939 6.40895 19.5531 6.50642C19.5123 6.60388 19.4526 6.69216 19.3774 6.76604C19.3022 6.83993 19.213 6.89794 19.1152 6.93666C19.0174 6.97538 18.9129 6.99403 18.8078 6.99151Z" fill="#AB2346"/>
<path d="M15.6277 11.7982H12.4136C12.3085 11.8007 12.204 11.782 12.1062 11.7433C12.0084 11.7046 11.9192 11.6466 11.844 11.5727C11.7688 11.4988 11.7091 11.4105 11.6683 11.3131C11.6275 11.2156 11.6064 11.1109 11.6064 11.0051C11.6064 10.8994 11.6275 10.7947 11.6683 10.6972C11.7091 10.5998 11.7688 10.5115 11.844 10.4376C11.9192 10.3637 12.0084 10.3057 12.1062 10.267C12.204 10.2283 12.3085 10.2096 12.4136 10.2121H15.6277C15.7328 10.2096 15.8373 10.2283 15.9351 10.267C16.0329 10.3057 16.1221 10.3637 16.1973 10.4376C16.2725 10.5115 16.3322 10.5998 16.373 10.6972C16.4138 10.7947 16.4349 10.8994 16.4349 11.0051C16.4349 11.1109 16.4138 11.2156 16.373 11.3131C16.3322 11.4105 16.2725 11.4988 16.1973 11.5727C16.1221 11.6466 16.0329 11.7046 15.9351 11.7433C15.8373 11.782 15.7328 11.8007 15.6277 11.7982Z" fill="#AB2346"/>
<path d="M14.8308 14.2015H12.4132C12.3081 14.204 12.2036 14.1853 12.1057 14.1466C12.0079 14.1079 11.9188 14.0499 11.8436 13.976C11.7684 13.9021 11.7086 13.8138 11.6678 13.7164C11.627 13.6189 11.606 13.5142 11.606 13.4085C11.606 13.3027 11.627 13.198 11.6678 13.1005C11.7086 13.0031 11.7684 12.9148 11.8436 12.8409C11.9188 12.767 12.0079 12.709 12.1057 12.6703C12.2036 12.6316 12.3081 12.6129 12.4132 12.6155H14.8308C14.9358 12.6129 15.0404 12.6316 15.1382 12.6703C15.236 12.709 15.3251 12.767 15.4003 12.8409C15.4755 12.9148 15.5353 13.0031 15.5761 13.1005C15.6169 13.198 15.6379 13.3027 15.6379 13.4085C15.6379 13.5142 15.6169 13.6189 15.5761 13.7164C15.5353 13.8138 15.4755 13.9021 15.4003 13.976C15.3251 14.0499 15.236 14.1079 15.1382 14.1466C15.0404 14.1853 14.9358 14.204 14.8308 14.2015Z" fill="#AB2346"/>
<path d="M10.0516 2.18584H8.43317C8.32809 2.18836 8.22355 2.16972 8.12573 2.131C8.02792 2.09228 7.93878 2.03427 7.86357 1.96038C7.78836 1.8865 7.72862 1.79822 7.68781 1.70076C7.64701 1.60329 7.62598 1.4986 7.62598 1.39284C7.62598 1.28708 7.64701 1.18239 7.68781 1.08492C7.72862 0.987458 7.78836 0.899185 7.86357 0.825298C7.93878 0.751412 8.02792 0.693402 8.12573 0.654683C8.22355 0.615963 8.32809 0.597315 8.43317 0.599835H10.0516C10.1567 0.597315 10.2612 0.615963 10.3591 0.654683C10.4569 0.693402 10.546 0.751412 10.6212 0.825298C10.6964 0.899185 10.7562 0.987458 10.797 1.08492C10.8378 1.18239 10.8588 1.28708 10.8588 1.39284C10.8588 1.4986 10.8378 1.60329 10.797 1.70076C10.7562 1.79822 10.6964 1.8865 10.6212 1.96038C10.546 2.03427 10.4569 2.09228 10.3591 2.131C10.2612 2.16972 10.1567 2.18836 10.0516 2.18584Z" fill="#82AEC9"/>
<path d="M10.0518 4.58917H6.85114C6.74606 4.59169 6.64155 4.57304 6.54373 4.53432C6.44591 4.4956 6.35678 4.43759 6.28157 4.3637C6.20636 4.28982 6.14659 4.20154 6.10578 4.10408C6.06498 4.00661 6.04395 3.90192 6.04395 3.79616C6.04395 3.6904 6.06498 3.58571 6.10578 3.48824C6.14659 3.39078 6.20636 3.30251 6.28157 3.22862C6.35678 3.15473 6.44591 3.09672 6.54373 3.058C6.64155 3.01928 6.74606 3.00063 6.85114 3.00315H10.0518C10.1568 3.00063 10.2614 3.01928 10.3592 3.058C10.457 3.09672 10.5462 3.15473 10.6214 3.22862C10.6966 3.30251 10.7563 3.39078 10.7971 3.48824C10.838 3.58571 10.859 3.6904 10.859 3.79616C10.859 3.90192 10.838 4.00661 10.7971 4.10408C10.7563 4.20154 10.6966 4.28982 10.6214 4.3637C10.5462 4.43759 10.457 4.4956 10.3592 4.53432C10.2614 4.57304 10.1568 4.59169 10.0518 4.58917Z" fill="#82AEC9"/>
<path d="M10.0512 6.99151H5.26667C5.16158 6.99403 5.05705 6.97538 4.95923 6.93666C4.86141 6.89794 4.77228 6.83993 4.69707 6.76604C4.62186 6.69216 4.56209 6.60388 4.52128 6.50642C4.48048 6.40895 4.45947 6.30426 4.45947 6.1985C4.45947 6.09274 4.48048 5.98805 4.52128 5.89059C4.56209 5.79312 4.62186 5.70485 4.69707 5.63096C4.77228 5.55707 4.86141 5.49907 4.95923 5.46035C5.05705 5.42163 5.16158 5.40298 5.26667 5.4055H10.0512C10.1563 5.40298 10.2609 5.42163 10.3587 5.46035C10.4565 5.49907 10.5456 5.55707 10.6208 5.63096C10.6961 5.70485 10.7558 5.79312 10.7966 5.89059C10.8374 5.98805 10.8584 6.09274 10.8584 6.1985C10.8584 6.30426 10.8374 6.40895 10.7966 6.50642C10.7558 6.60388 10.6961 6.69216 10.6208 6.76604C10.5456 6.83993 10.4565 6.89794 10.3587 6.93666C10.2609 6.97538 10.1563 6.99403 10.0512 6.99151Z" fill="#82AEC9"/>
<path d="M10.0516 9.39483H3.6656C3.56051 9.39735 3.456 9.3787 3.35818 9.33998C3.26037 9.30126 3.17123 9.24325 3.09602 9.16936C3.02081 9.09548 2.96104 9.00721 2.92024 8.90974C2.87943 8.81227 2.8584 8.70758 2.8584 8.60182C2.8584 8.49606 2.87943 8.39137 2.92024 8.29391C2.96104 8.19644 3.02081 8.10817 3.09602 8.03428C3.17123 7.96039 3.26037 7.90238 3.35818 7.86366C3.456 7.82494 3.56051 7.8063 3.6656 7.80882H10.0516C10.1567 7.8063 10.2612 7.82494 10.359 7.86366C10.4569 7.90238 10.546 7.96039 10.6212 8.03428C10.6964 8.10817 10.7562 8.19644 10.797 8.29391C10.8378 8.39137 10.8588 8.49606 10.8588 8.60182C10.8588 8.70758 10.8378 8.81227 10.797 8.90974C10.7562 9.00721 10.6964 9.09548 10.6212 9.16936C10.546 9.24325 10.4569 9.30126 10.359 9.33998C10.2612 9.3787 10.1567 9.39735 10.0516 9.39483Z" fill="#82AEC9"/>
<path d="M20.4034 9.39483H12.4146C12.3095 9.39735 12.205 9.3787 12.1072 9.33998C12.0094 9.30126 11.9202 9.24325 11.845 9.16936C11.7698 9.09548 11.71 9.00721 11.6692 8.90974C11.6284 8.81227 11.6074 8.70758 11.6074 8.60182C11.6074 8.49606 11.6284 8.39137 11.6692 8.29391C11.71 8.19644 11.7698 8.10817 11.845 8.03428C11.9202 7.96039 12.0094 7.90238 12.1072 7.86366C12.205 7.82494 12.3095 7.8063 12.4146 7.80882H20.4034C20.5085 7.8063 20.613 7.82494 20.7108 7.86366C20.8086 7.90238 20.8978 7.96039 20.973 8.03428C21.0482 8.10817 21.108 8.19644 21.1488 8.29391C21.1896 8.39137 21.2106 8.49606 21.2106 8.60182C21.2106 8.70758 21.1896 8.81227 21.1488 8.90974C21.108 9.00721 21.0482 9.09548 20.973 9.16936C20.8978 9.24325 20.8086 9.30126 20.7108 9.33998C20.613 9.3787 20.5085 9.39735 20.4034 9.39483Z" fill="#82AEC9"/>
<path d="M10.0512 11.7982H5.26081C5.15572 11.8007 5.05122 11.782 4.9534 11.7433C4.85558 11.7046 4.76644 11.6466 4.69124 11.5727C4.61603 11.4988 4.55625 11.4105 4.51545 11.3131C4.47465 11.2156 4.45361 11.1109 4.45361 11.0051C4.45361 10.8994 4.47465 10.7947 4.51545 10.6972C4.55625 10.5998 4.61603 10.5115 4.69124 10.4376C4.76644 10.3637 4.85558 10.3057 4.9534 10.267C5.05122 10.2283 5.15572 10.2096 5.26081 10.2121H10.0512C10.1563 10.2096 10.2609 10.2283 10.3587 10.267C10.4565 10.3057 10.5456 10.3637 10.6208 10.4376C10.696 10.5115 10.7558 10.5998 10.7966 10.6972C10.8374 10.7947 10.8584 10.8994 10.8584 11.0051C10.8584 11.1109 10.8374 11.2156 10.7966 11.3131C10.7558 11.4105 10.696 11.4988 10.6208 11.5727C10.5456 11.6466 10.4565 11.7046 10.3587 11.7433C10.2609 11.782 10.1563 11.8007 10.0512 11.7982Z" fill="#82AEC9"/>
<path d="M20.4033 11.7982H17.9889C17.7831 11.7932 17.5874 11.7075 17.4436 11.5593C17.2997 11.4111 17.2192 11.2122 17.2192 11.0051C17.2192 10.798 17.2997 10.5991 17.4436 10.451C17.5874 10.3028 17.7831 10.2171 17.9889 10.2121H20.4033C20.5084 10.2096 20.6129 10.2283 20.7108 10.267C20.8086 10.3057 20.8977 10.3637 20.9729 10.4376C21.0481 10.5115 21.1079 10.5998 21.1487 10.6972C21.1895 10.7947 21.2105 10.8994 21.2105 11.0051C21.2105 11.1109 21.1895 11.2156 21.1487 11.3131C21.1079 11.4105 21.0481 11.4988 20.9729 11.5727C20.8977 11.6466 20.8086 11.7046 20.7108 11.7433C20.6129 11.782 20.5084 11.8007 20.4033 11.7982Z" fill="#82AEC9"/>
<path d="M10.0513 14.2015H6.84528C6.7402 14.204 6.63566 14.1853 6.53784 14.1466C6.44003 14.1079 6.35089 14.0499 6.27568 13.976C6.20047 13.9021 6.1407 13.8138 6.0999 13.7164C6.05909 13.6189 6.03809 13.5142 6.03809 13.4085C6.03809 13.3027 6.05909 13.198 6.0999 13.1005C6.1407 13.0031 6.20047 12.9148 6.27568 12.8409C6.35089 12.767 6.44003 12.709 6.53784 12.6703C6.63566 12.6316 6.7402 12.6129 6.84528 12.6155H10.0513C10.1563 12.6129 10.2609 12.6316 10.3587 12.6703C10.4565 12.709 10.5456 12.767 10.6209 12.8409C10.6961 12.9148 10.7558 13.0031 10.7966 13.1005C10.8374 13.198 10.8585 13.3027 10.8585 13.4085C10.8585 13.5142 10.8374 13.6189 10.7966 13.7164C10.7558 13.8138 10.6961 13.9021 10.6209 13.976C10.5456 14.0499 10.4565 14.1079 10.3587 14.1466C10.2609 14.1853 10.1563 14.204 10.0513 14.2015Z" fill="#82AEC9"/>
<path d="M20.5517 14.2015H17.2047C16.9989 14.1965 16.8032 14.1108 16.6594 13.9626C16.5156 13.8145 16.4351 13.6156 16.4351 13.4085C16.4351 13.2014 16.5156 13.0025 16.6594 12.8543C16.8032 12.7061 16.9989 12.6204 17.2047 12.6155H20.5517C20.6568 12.6129 20.7613 12.6316 20.8591 12.6703C20.9569 12.709 21.0461 12.767 21.1213 12.8409C21.1965 12.9148 21.2563 13.0031 21.2971 13.1005C21.3379 13.198 21.3589 13.3027 21.3589 13.4085C21.3589 13.5142 21.3379 13.6189 21.2971 13.7164C21.2563 13.8138 21.1965 13.9021 21.1213 13.976C21.0461 14.0499 20.9569 14.1079 20.8591 14.1466C20.7613 14.1853 20.6568 14.204 20.5517 14.2015Z" fill="#82AEC9"/>
<path d="M10.0516 16.6038H8.43317C8.32809 16.6063 8.22355 16.5877 8.12573 16.549C8.02792 16.5102 7.93878 16.4522 7.86357 16.3783C7.78836 16.3045 7.72862 16.2162 7.68781 16.1187C7.64701 16.0213 7.62598 15.9166 7.62598 15.8108C7.62598 15.705 7.64701 15.6004 7.68781 15.5029C7.72862 15.4054 7.78836 15.3172 7.86357 15.2433C7.93878 15.1694 8.02792 15.1114 8.12573 15.0726C8.22355 15.0339 8.32809 15.0153 8.43317 15.0178H10.0516C10.1567 15.0153 10.2612 15.0339 10.3591 15.0726C10.4569 15.1114 10.546 15.1694 10.6212 15.2433C10.6964 15.3172 10.7562 15.4054 10.797 15.5029C10.8378 15.6004 10.8588 15.705 10.8588 15.8108C10.8588 15.9166 10.8378 16.0213 10.797 16.1187C10.7562 16.2162 10.6964 16.3045 10.6212 16.3783C10.546 16.4522 10.4569 16.5102 10.3591 16.549C10.2612 16.5877 10.1567 16.6063 10.0516 16.6038Z" fill="#82AEC9"/>
<path d="M15.6277 16.6038H12.4136C12.3085 16.6063 12.204 16.5877 12.1062 16.549C12.0084 16.5102 11.9192 16.4522 11.844 16.3783C11.7688 16.3045 11.7091 16.2162 11.6683 16.1187C11.6275 16.0213 11.6064 15.9166 11.6064 15.8108C11.6064 15.705 11.6275 15.6004 11.6683 15.5029C11.7091 15.4054 11.7688 15.3172 11.844 15.2433C11.9192 15.1694 12.0084 15.1114 12.1062 15.0726C12.204 15.0339 12.3085 15.0153 12.4136 15.0178H15.6277C15.7328 15.0153 15.8373 15.0339 15.9351 15.0726C16.0329 15.1114 16.1221 15.1694 16.1973 15.2433C16.2725 15.3172 16.3322 15.4054 16.373 15.5029C16.4138 15.6004 16.4349 15.705 16.4349 15.8108C16.4349 15.9166 16.4138 16.0213 16.373 16.1187C16.3322 16.2162 16.2725 16.3045 16.1973 16.3783C16.1221 16.4522 16.0329 16.5102 15.9351 16.549C15.8373 16.5877 15.7328 16.6063 15.6277 16.6038Z" fill="#82AEC9"/>
<path d="M6.88158 1.99745C6.88158 2.11727 6.84626 2.23441 6.78009 2.33404C6.71392 2.43367 6.61987 2.51132 6.50984 2.55718C6.39981 2.60303 6.27874 2.61503 6.16193 2.59165C6.04512 2.56828 5.93783 2.51057 5.85362 2.42584C5.7694 2.34112 5.71205 2.23317 5.68882 2.11564C5.66558 1.99812 5.67751 1.8763 5.72308 1.7656C5.76866 1.6549 5.84583 1.56028 5.94486 1.4937C6.04388 1.42713 6.16031 1.3916 6.2794 1.3916C6.43911 1.3916 6.59226 1.45543 6.70519 1.56905C6.81812 1.68267 6.88158 1.83677 6.88158 1.99745Z" fill="#1D365A"/>
<path d="M6.85814 15.6049C6.85814 15.7247 6.82282 15.8418 6.75665 15.9415C6.69049 16.0411 6.59643 16.1187 6.4864 16.1646C6.37637 16.2105 6.2553 16.2224 6.13849 16.1991C6.02169 16.1757 5.91439 16.118 5.83018 16.0333C5.74597 15.9485 5.68861 15.8406 5.66538 15.7231C5.64214 15.6055 5.65407 15.4837 5.69965 15.373C5.74522 15.2623 5.82242 15.1677 5.92145 15.1011C6.02047 15.0346 6.13687 14.999 6.25597 14.999C6.41567 14.999 6.56885 15.0629 6.68178 15.1765C6.79471 15.2901 6.85814 15.4442 6.85814 15.6049Z" fill="#1D365A"/>
<path d="M4.86551 4.58913H4.06949C3.96494 4.58913 3.86467 4.54734 3.79074 4.47296C3.71682 4.39858 3.67529 4.2977 3.67529 4.19252C3.67529 4.08733 3.71682 3.98644 3.79074 3.91206C3.86467 3.83768 3.96494 3.7959 4.06949 3.7959H4.86551C4.97006 3.7959 5.07033 3.83768 5.14426 3.91206C5.21819 3.98644 5.25971 4.08733 5.25971 4.19252C5.25971 4.2977 5.21819 4.39858 5.14426 4.47296C5.07033 4.54734 4.97006 4.58913 4.86551 4.58913Z" fill="#1D365A"/>
<path d="M3.27059 6.99147H1.68082C1.57627 6.99147 1.476 6.94969 1.40207 6.87531C1.32814 6.80093 1.28662 6.70005 1.28662 6.59486C1.28662 6.48967 1.32814 6.38879 1.40207 6.31441C1.476 6.24003 1.57627 6.19824 1.68082 6.19824H3.27059C3.37514 6.19824 3.47542 6.24003 3.54934 6.31441C3.62327 6.38879 3.66482 6.48967 3.66482 6.59486C3.66482 6.70005 3.62327 6.80093 3.54934 6.87531C3.47542 6.94969 3.37514 6.99147 3.27059 6.99147Z" fill="#1D365A"/>
<path d="M3.28082 10.9885H0.893222C0.788673 10.9885 0.688428 10.9468 0.614501 10.8724C0.540574 10.798 0.499023 10.6971 0.499023 10.5919C0.499023 10.4867 0.540574 10.3859 0.614501 10.3115C0.688428 10.2371 0.788673 10.1953 0.893222 10.1953H3.28082C3.38537 10.1953 3.48564 10.2371 3.55957 10.3115C3.6335 10.3859 3.67502 10.4867 3.67502 10.5919C3.67502 10.6971 3.6335 10.798 3.55957 10.8724C3.48564 10.9468 3.38537 10.9885 3.28082 10.9885Z" fill="#1D365A"/>
<path d="M4.86909 13.3831H4.06949C3.96494 13.3831 3.86467 13.3413 3.79074 13.2669C3.71682 13.1925 3.67529 13.0916 3.67529 12.9865C3.67529 12.8813 3.71682 12.7804 3.79074 12.706C3.86467 12.6316 3.96494 12.5898 4.06949 12.5898H4.86909C4.97364 12.5898 5.07391 12.6316 5.14784 12.706C5.22177 12.7804 5.26329 12.8813 5.26329 12.9865C5.26329 13.0916 5.22177 13.1925 5.14784 13.2669C5.07391 13.3413 4.97364 13.3831 4.86909 13.3831Z" fill="#1D365A"/>
<path d="M29.6105 8.07662C29.8246 8.3445 29.9395 8.67887 29.9356 9.02255C29.9416 9.32207 29.8599 9.61675 29.7005 9.86983C29.5333 10.1224 29.2972 10.321 29.0205 10.4419C28.689 10.5866 28.3301 10.657 27.9688 10.6482H25.3945V4.64334H27.8569C28.216 4.63454 28.573 4.70192 28.9045 4.84109C29.1758 4.95483 29.4078 5.14643 29.5716 5.39198C29.7237 5.63058 29.8025 5.909 29.7981 6.19242C29.8092 6.50853 29.7111 6.81873 29.5206 7.07033C29.3305 7.30877 29.0723 7.48294 28.7809 7.56942C29.1106 7.62851 29.4065 7.8094 29.6105 8.07662ZM26.5912 7.12168H27.6863C27.9215 7.13708 28.1546 7.06849 28.3444 6.92799C28.4226 6.85949 28.4842 6.77382 28.5242 6.67759C28.5643 6.58137 28.5818 6.47717 28.5754 6.37304C28.5815 6.26829 28.5639 6.16351 28.5239 6.0666C28.4838 5.9697 28.4225 5.88319 28.3444 5.81359C28.1558 5.6702 27.9222 5.59986 27.6863 5.6154H26.5912V7.12168ZM28.477 9.46398C28.5593 9.39156 28.624 9.30113 28.6662 9.19963C28.7085 9.09812 28.727 8.98824 28.7205 8.87841C28.7263 8.76432 28.7061 8.65042 28.6617 8.54531C28.6172 8.44019 28.5497 8.34662 28.464 8.27166C28.267 8.11683 28.021 8.03891 27.7714 8.05229H26.5912V9.66984H27.7974C28.0412 9.68483 28.2824 9.61167 28.4774 9.46353" fill="#AB2346"/>
<path d="M32.683 6.02907C32.9426 5.88262 33.2362 5.80831 33.5337 5.81376V7.07995H33.2171C33.0573 7.05393 32.8936 7.06738 32.7401 7.11915C32.5866 7.17093 32.4479 7.25946 32.336 7.37714C32.224 7.49482 32.1422 7.63811 32.0975 7.79467C32.0529 7.95123 32.0467 8.11638 32.0795 8.27587V10.6506H30.8828V5.88267H32.0782V6.62275C32.2259 6.37663 32.4335 6.17234 32.6812 6.02907" fill="#AB2346"/>
<path d="M35.3029 10.4211C34.9408 10.2205 34.6428 9.92056 34.4433 9.55628C34.2291 9.16085 34.1211 8.71604 34.1299 8.26577C34.1207 7.81441 34.2314 7.36875 34.4505 6.97479C34.6564 6.60956 34.9601 6.30989 35.3271 6.10994C35.7101 5.9094 36.1355 5.80469 36.5672 5.80469C36.999 5.80469 37.4244 5.9094 37.8073 6.10994C38.1743 6.30993 38.478 6.60959 38.684 6.97479C38.9032 7.3687 39.0141 7.81437 39.005 8.26577C39.0141 8.71806 38.9003 9.16428 38.6759 9.55628C38.4641 9.92143 38.1563 10.2207 37.7863 10.4211C37.4008 10.6278 36.9695 10.7329 36.5327 10.7265C36.1029 10.7332 35.6787 10.628 35.3011 10.4211M37.1443 9.51755C37.3398 9.40663 37.4988 9.24068 37.6019 9.04007C37.7221 8.80033 37.7809 8.53417 37.7729 8.26577C37.7853 8.07658 37.7603 7.8868 37.6995 7.70736C37.6386 7.52793 37.5431 7.36239 37.4183 7.22029C37.3067 7.10214 37.1719 7.00865 37.0224 6.94575C36.873 6.88286 36.7122 6.85195 36.5502 6.85498C36.3894 6.85144 36.2297 6.88216 36.0816 6.94512C35.9334 7.00808 35.8002 7.10185 35.6906 7.22029C35.4436 7.50973 35.3192 7.88508 35.3441 8.26577C35.3191 8.64501 35.4401 9.01938 35.6821 9.31124C35.7895 9.43006 35.9211 9.52422 36.0678 9.58733C36.2146 9.65045 36.3732 9.68103 36.5327 9.677C36.7468 9.67769 36.9574 9.62248 37.1443 9.51755Z" fill="#AB2346"/>
<path d="M39.9116 6.96688C40.086 6.61247 40.3557 6.3144 40.6901 6.10653C41.0213 5.9048 41.4021 5.80041 41.7892 5.80519C42.1116 5.79783 42.4307 5.87185 42.7173 6.0205C42.9671 6.15063 43.1847 6.33532 43.3544 6.56103V5.88267H44.5605V10.6506H43.3544V9.95287C43.1893 10.1865 42.9708 10.3768 42.7173 10.5078C42.4283 10.6586 42.1062 10.734 41.7807 10.7272C41.3952 10.731 41.0167 10.6234 40.6901 10.4173C40.3558 10.2037 40.0864 9.90146 39.9116 9.54386C39.7145 9.14145 39.6163 8.69736 39.6251 8.24884C39.6166 7.8044 39.7148 7.36491 39.9116 6.96688ZM43.1829 7.51282C43.0768 7.31191 42.9167 7.14505 42.7209 7.03129C42.5313 6.92044 42.3157 6.86244 42.0964 6.86328C41.8761 6.86085 41.6594 6.91935 41.4699 7.03239C41.2804 7.14542 41.1255 7.30865 41.0219 7.50426C40.9003 7.73298 40.8398 7.98955 40.8464 8.24884C40.8404 8.5108 40.9009 8.76997 41.0219 9.00198C41.1282 9.20637 41.2879 9.37768 41.4839 9.49747C41.6681 9.61035 41.8797 9.66989 42.0954 9.66954C42.3147 9.67045 42.5303 9.61261 42.72 9.50197C42.9158 9.38798 43.0759 9.22099 43.182 9.02C43.2945 8.78514 43.3529 8.52779 43.3529 8.26708C43.3529 8.00638 43.2945 7.74902 43.182 7.51417" fill="#AB2346"/>
<path d="M45.6748 6.96687C45.8475 6.61339 46.1164 6.31654 46.4502 6.11087C46.7841 5.9052 47.1691 5.79919 47.5605 5.80518C47.8657 5.80459 48.1669 5.87375 48.4416 6.00742C48.7045 6.12888 48.9336 6.31359 49.1087 6.54525V4.28223H50.3233V10.6497H49.1087V9.94429C48.9539 10.1856 48.7387 10.3815 48.4846 10.5123C48.1964 10.6606 47.8761 10.7346 47.5525 10.7276C47.1657 10.7311 46.786 10.6236 46.4578 10.4177C46.1216 10.2051 45.8507 9.90272 45.6753 9.5443C45.4782 9.1419 45.3799 8.6978 45.3887 8.24928C45.3802 7.80483 45.4785 7.36488 45.6753 6.96687M48.9466 7.51326C48.8406 7.31241 48.6807 7.14556 48.485 7.03173C48.2955 6.92095 48.0801 6.86296 47.8609 6.86372C47.6407 6.86129 47.424 6.91979 47.2345 7.03282C47.045 7.14586 46.89 7.30909 46.7865 7.5047C46.6649 7.73342 46.6044 7.98998 46.6109 8.24928C46.605 8.51123 46.6655 8.7704 46.7865 9.00242C46.8928 9.20681 47.0525 9.37812 47.2485 9.49791C47.4327 9.61081 47.6443 9.67036 47.86 9.66998C48.0791 9.67081 48.2946 9.61297 48.4841 9.50241C48.6798 9.38835 48.8397 9.22137 48.9457 9.02044C49.0584 8.78562 49.1168 8.52825 49.1168 8.26752C49.1168 8.00679 49.0584 7.74942 48.9457 7.51461" fill="#AB2346"/>
<path d="M52.218 10.5148C51.9299 10.3896 51.6783 10.1925 51.4869 9.94227C51.3111 9.71139 51.2083 9.43267 51.1919 9.14228H52.398C52.409 9.23281 52.4386 9.32007 52.4848 9.39853C52.5311 9.47699 52.593 9.54495 52.6666 9.59813C52.8362 9.72257 53.0425 9.78603 53.2522 9.7783C53.4403 9.78927 53.6271 9.7411 53.7868 9.64047C53.8458 9.60281 53.8945 9.55072 53.9281 9.48905C53.9618 9.42738 53.9794 9.35813 53.9793 9.28777C53.9797 9.21257 53.9575 9.139 53.9155 9.07676C53.8736 9.01452 53.8138 8.96653 53.7442 8.93913C53.5027 8.8322 53.2522 8.74718 52.9957 8.68508C52.7003 8.6172 52.4102 8.52809 52.1276 8.41842C51.9027 8.32699 51.7031 8.18236 51.5456 7.9968C51.374 7.78014 51.2873 7.50768 51.302 7.23105C51.3008 6.9729 51.38 6.72085 51.5285 6.51034C51.6935 6.28102 51.9186 6.10231 52.1786 5.99413C52.4939 5.86123 52.8335 5.79661 53.1752 5.80449C53.6618 5.77916 54.1412 5.93037 54.5264 6.23061C54.6936 6.37243 54.8295 6.5479 54.9252 6.74572C55.021 6.94354 55.0745 7.15935 55.0824 7.37924H53.9363C53.9307 7.29178 53.9069 7.20647 53.8664 7.12886C53.8259 7.05126 53.7696 6.98309 53.7013 6.9288C53.544 6.82825 53.3631 6.77115 53.177 6.76324C52.9908 6.75533 52.8058 6.7969 52.6406 6.88376C52.5851 6.91967 52.5398 6.96947 52.5091 7.02829C52.4784 7.08711 52.4634 7.15294 52.4656 7.21934C52.4651 7.29735 52.4876 7.37377 52.5302 7.43894C52.5729 7.50411 52.6337 7.55512 52.7051 7.58555C52.9436 7.69616 53.193 7.78116 53.4492 7.83915C53.7373 7.90804 54.0202 7.99729 54.2958 8.10626C54.5196 8.19905 54.7176 8.34513 54.8729 8.53193C55.0436 8.74796 55.1331 9.01772 55.1254 9.29363C55.1286 9.55808 55.0494 9.81689 54.8989 10.0337C54.7343 10.2625 54.509 10.44 54.2488 10.5459C53.9357 10.675 53.5995 10.7379 53.2612 10.7305C52.9023 10.7365 52.5464 10.6646 52.2176 10.5197" fill="#AB2346"/>
<path d="M57.9251 6.02441C58.2113 5.87428 58.5304 5.79885 58.8532 5.80504C59.2403 5.80015 59.621 5.90438 59.9523 6.10594C60.2857 6.31299 60.5553 6.60933 60.7308 6.96178C60.9284 7.36096 61.0267 7.80241 61.0173 8.24824C61.0261 8.69675 60.9278 9.14083 60.7308 9.54327C60.5559 9.90076 60.2865 10.2029 59.9523 10.4167C59.6229 10.6236 59.2415 10.7312 58.8532 10.7266C58.5337 10.7333 58.2177 10.6592 57.934 10.5113C57.6827 10.3799 57.4625 10.1955 57.2884 9.97074V12.922H56.0908V5.88252H57.2884V6.57079C57.4556 6.34126 57.6733 6.15417 57.9251 6.02441ZM59.6187 7.50411C59.5119 7.30491 59.3521 7.13958 59.1571 7.02664C58.9683 6.91821 58.7545 6.86181 58.5371 6.86313C58.3219 6.86262 58.1106 6.92068 57.9255 7.03115C57.7302 7.14747 57.5705 7.31562 57.4639 7.51717C57.3486 7.74968 57.2886 8.00597 57.2886 8.26581C57.2886 8.52566 57.3486 8.78194 57.4639 9.01445C57.5706 9.21596 57.7303 9.38409 57.9255 9.50047C58.1124 9.61085 58.3253 9.66867 58.542 9.66788C58.7586 9.66709 58.9711 9.60771 59.1571 9.49597C59.352 9.37714 59.5114 9.2077 59.6187 9.00544C59.7406 8.7723 59.8011 8.51159 59.7942 8.24824C59.8008 7.98894 59.7403 7.73281 59.6187 7.50411Z" fill="#AB2346"/>
<path d="M66.2426 8.62717H62.7787C62.7889 8.93399 62.9173 9.22478 63.1369 9.43797C63.3486 9.63356 63.6277 9.73857 63.915 9.73076C64.1126 9.74259 64.3092 9.69375 64.4787 9.59072C64.6482 9.48768 64.7826 9.3353 64.8641 9.15374H66.1557C66.023 9.60715 65.7468 10.0046 65.3691 10.2857C64.9555 10.5894 64.4528 10.7453 63.9409 10.7285C63.5125 10.7354 63.0896 10.6301 62.7138 10.4231C62.3548 10.2227 62.0609 9.9224 61.8672 9.55824C61.6589 9.16091 61.5545 8.71682 61.5636 8.26772C61.5538 7.81614 61.6567 7.3693 61.8632 6.96819C62.0531 6.60526 62.3444 6.30618 62.7013 6.10784C63.0798 5.91137 63.4994 5.80814 63.9254 5.80666C64.3513 5.80517 64.7716 5.90546 65.1515 6.09928C65.5024 6.28898 65.7907 6.57747 65.9811 6.92945C66.1829 7.30897 66.2845 7.73424 66.2762 8.16457C66.2773 8.32004 66.2659 8.47535 66.2421 8.62897M65.036 7.81818C65.0386 7.67705 65.0099 7.53712 64.9523 7.40845C64.8946 7.27978 64.8093 7.16557 64.7025 7.07404C64.4806 6.88568 64.1976 6.78611 63.9074 6.79432C63.6329 6.7859 63.3654 6.88248 63.1588 7.06459C62.9479 7.26159 62.8156 7.5292 62.7868 7.81727L65.036 7.81818Z" fill="#AB2346"/>
<path d="M67.2704 6.97124C67.4603 6.61113 67.748 6.31274 68.1 6.11089C68.4709 5.90275 68.89 5.79736 69.3146 5.80549C69.8361 5.78506 70.3494 5.94112 70.7723 6.24873C71.167 6.55924 71.4409 6.99918 71.5464 7.49195H70.2548C70.1943 7.29664 70.0727 7.12619 69.9082 7.00592C69.7307 6.88376 69.5189 6.82203 69.3039 6.8298C69.1487 6.82338 68.9943 6.85395 68.8532 6.919C68.712 6.98405 68.5882 7.08174 68.4917 7.20412C68.2959 7.52205 68.1922 7.88864 68.1922 8.26266C68.1922 8.63667 68.2959 9.00326 68.4917 9.3212C68.5882 9.44357 68.712 9.54126 68.8532 9.60631C68.9943 9.67137 69.1487 9.70193 69.3039 9.69551C69.5128 9.71355 69.7215 9.65826 69.8945 9.53903C70.0675 9.41981 70.1942 9.244 70.253 9.04147H71.5446C71.4319 9.52888 71.1572 9.963 70.766 10.2721C70.3473 10.5863 69.8344 10.7471 69.3124 10.7279C68.8878 10.7361 68.4686 10.6307 68.0978 10.4225C67.7458 10.2206 67.4581 9.92224 67.2682 9.56218C67.0712 9.15925 66.9688 8.7162 66.9688 8.26716C66.9688 7.81812 67.0712 7.37507 67.2682 6.97214" fill="#AB2346"/>
<path d="M73.9024 6.87253V9.1788C73.8965 9.2418 73.9038 9.30533 73.9237 9.36535C73.9436 9.42538 73.9756 9.48058 74.0179 9.52744C74.1301 9.60993 74.2686 9.64808 74.4069 9.63465H74.963V10.6499H74.2104C73.2013 10.6499 72.6967 10.1567 72.6967 9.17024V6.87299H72.1304V5.88201H72.6949V4.7041H73.9006V5.88291H74.9612V6.87389L73.9024 6.87253Z" fill="#AB2346"/>
<path d="M77.7445 6.02907C78.004 5.8826 78.2976 5.80829 78.5951 5.81376V7.07995H78.2786C78.1187 7.05382 77.955 7.0672 77.8014 7.11893C77.6479 7.17066 77.5092 7.2592 77.3972 7.37691C77.2852 7.49461 77.2034 7.63795 77.1587 7.79456C77.1141 7.95118 77.108 8.11636 77.141 8.27588V10.6506H75.9434V5.88268H77.141V6.62275C77.2887 6.37657 77.4966 6.17226 77.7445 6.02907Z" fill="#AB2346"/>
<path d="M83.8951 5.88379V10.6508H82.689V10.0486C82.5313 10.2584 82.3242 10.4254 82.0864 10.5346C81.8334 10.6531 81.5574 10.7133 81.2783 10.7107C80.9353 10.718 80.5962 10.6365 80.2934 10.4743C80.0059 10.314 79.7721 10.0715 79.6218 9.77742C79.4518 9.43767 79.3681 9.06083 79.3783 8.68059V5.88379H80.5759V8.50852C80.5549 8.82516 80.6559 9.13775 80.8579 9.38148C80.957 9.48479 81.077 9.56551 81.2098 9.6182C81.3426 9.67088 81.485 9.6943 81.6275 9.68688C81.7714 9.69487 81.9153 9.67174 82.0495 9.61906C82.1837 9.56638 82.3052 9.48536 82.4056 9.38148C82.6077 9.13778 82.7087 8.82516 82.6877 8.50852V5.88379H83.8951Z" fill="#AB2346"/>
<path d="M92.4359 6.35215C92.6212 6.55317 92.764 6.78988 92.8559 7.04799C92.9478 7.3061 92.9867 7.58026 92.9704 7.85393V10.6503H91.7733V8.01699C91.7943 7.70547 91.6928 7.39812 91.4907 7.16114C91.3902 7.06024 91.2698 6.98168 91.1372 6.93054C91.0047 6.87941 90.8629 6.85685 90.7211 6.8643C90.5787 6.85716 90.4364 6.87985 90.3032 6.93095C90.1699 6.98205 90.0486 7.06044 89.9471 7.16114C89.8457 7.27785 89.7683 7.41351 89.7191 7.56036C89.6699 7.70722 89.6501 7.86239 89.6606 8.01699V10.6503H88.4634V8.01699C88.4843 7.70556 88.383 7.39831 88.1813 7.16114C88.0808 7.06026 87.9604 6.98172 87.8278 6.93059C87.6953 6.87945 87.5535 6.85687 87.4117 6.8643C87.268 6.85656 87.1242 6.87895 86.9895 6.93005C86.8548 6.98115 86.7321 7.05984 86.6292 7.16114C86.5279 7.27788 86.4504 7.41354 86.4013 7.56039C86.3521 7.70724 86.3322 7.86239 86.3426 8.01699V10.6503H85.145V5.88324H86.3426V6.4598C86.5001 6.25628 86.704 6.09402 86.9372 5.98684C87.1877 5.87031 87.4609 5.81152 87.7368 5.81477C88.082 5.80869 88.4231 5.89001 88.7289 6.05125C89.0152 6.2047 89.2503 6.43973 89.4045 6.72692C89.5627 6.44763 89.7953 6.21831 90.076 6.06477C90.4506 5.86051 90.8789 5.77853 91.3019 5.83018C91.7248 5.88184 92.1212 6.06457 92.4363 6.35305" fill="#AB2346"/>
</svg>
