<svg width="93" height="17" viewBox="0 0 93 17" fill="none" xmlns="http://www.w3.org/2000/svg">
<path d="M15.6282 2.18487H12.4141C12.309 2.18739 12.2045 2.16874 12.1067 2.13002C12.0089 2.0913 11.9197 2.03329 11.8445 1.95941C11.7693 1.88552 11.7095 1.79725 11.6687 1.69978C11.6279 1.60231 11.6069 1.49762 11.6069 1.39186C11.6069 1.2861 11.6279 1.18141 11.6687 1.08395C11.7095 0.986481 11.7693 0.898208 11.8445 0.824322C11.9197 0.750435 12.0089 0.692426 12.1067 0.653706C12.2045 0.614987 12.309 0.596338 12.4141 0.598858H15.6282C15.7332 0.596338 15.8378 0.614987 15.9356 0.653706C16.0334 0.692426 16.1226 0.750435 16.1978 0.824322C16.273 0.898208 16.3327 0.986481 16.3735 1.08395C16.4143 1.18141 16.4354 1.2861 16.4354 1.39186C16.4354 1.49762 16.4143 1.60231 16.3735 1.69978C16.3327 1.79725 16.273 1.88552 16.1978 1.95941C16.1226 2.03329 16.0334 2.0913 15.9356 2.13002C15.8378 2.16874 15.7332 2.18739 15.6282 2.18487Z" fill="#AB2346"/>
<path d="M17.2243 4.58819H12.4151C12.31 4.59071 12.2055 4.57206 12.1077 4.53334C12.0098 4.49462 11.9207 4.43661 11.8455 4.36273C11.7703 4.28884 11.7105 4.20057 11.6697 4.1031C11.6289 4.00563 11.6079 3.90094 11.6079 3.79518C11.6079 3.68942 11.6289 3.58473 11.6697 3.48727C11.7105 3.3898 11.7703 3.30153 11.8455 3.22764C11.9207 3.15376 12.0098 3.09575 12.1077 3.05703C12.2055 3.01831 12.31 2.99966 12.4151 3.00218H17.2243C17.3294 2.99966 17.4339 3.01831 17.5317 3.05703C17.6296 3.09575 17.7187 3.15376 17.7939 3.22764C17.8691 3.30153 17.9289 3.3898 17.9697 3.48727C18.0105 3.58473 18.0315 3.68942 18.0315 3.79518C18.0315 3.90094 18.0105 4.00563 17.9697 4.1031C17.9289 4.20057 17.8691 4.28884 17.7939 4.36273C17.7187 4.43661 17.6296 4.49462 17.5317 4.53334C17.4339 4.57206 17.3294 4.59071 17.2243 4.58819Z" fill="#AB2346"/>
<path d="M18.8078 6.99053H12.4141C12.2083 6.98559 12.0127 6.89988 11.8688 6.7517C11.725 6.60352 11.6445 6.40463 11.6445 6.19753C11.6445 5.99042 11.725 5.79153 11.8688 5.64335C12.0127 5.49517 12.2083 5.40946 12.4141 5.40452H18.8078C18.9129 5.402 19.0174 5.42065 19.1152 5.45937C19.213 5.49809 19.3022 5.5561 19.3774 5.62998C19.4526 5.70387 19.5123 5.79214 19.5531 5.88961C19.5939 5.98708 19.615 6.09177 19.615 6.19753C19.615 6.30329 19.5939 6.40798 19.5531 6.50544C19.5123 6.60291 19.4526 6.69118 19.3774 6.76507C19.3022 6.83895 19.213 6.89697 19.1152 6.93569C19.0174 6.9744 18.9129 6.99305 18.8078 6.99053Z" fill="#AB2346"/>
<path d="M15.6282 11.7972H12.4141C12.309 11.7997 12.2045 11.781 12.1067 11.7423C12.0089 11.7036 11.9197 11.6456 11.8445 11.5717C11.7693 11.4978 11.7095 11.4095 11.6687 11.3121C11.6279 11.2146 11.6069 11.1099 11.6069 11.0042C11.6069 10.8984 11.6279 10.7937 11.6687 10.6963C11.7095 10.5988 11.7693 10.5105 11.8445 10.4366C11.9197 10.3627 12.0089 10.3047 12.1067 10.266C12.2045 10.2273 12.309 10.2086 12.4141 10.2112H15.6282C15.7332 10.2086 15.8378 10.2273 15.9356 10.266C16.0334 10.3047 16.1226 10.3627 16.1978 10.4366C16.273 10.5105 16.3327 10.5988 16.3735 10.6963C16.4143 10.7937 16.4354 10.8984 16.4354 11.0042C16.4354 11.1099 16.4143 11.2146 16.3735 11.3121C16.3327 11.4095 16.273 11.4978 16.1978 11.5717C16.1226 11.6456 16.0334 11.7036 15.9356 11.7423C15.8378 11.781 15.7332 11.7997 15.6282 11.7972Z" fill="#AB2346"/>
<path d="M14.8312 14.2005H12.4136C12.3086 14.203 12.204 14.1844 12.1062 14.1456C12.0084 14.1069 11.9193 14.0489 11.8441 13.975C11.7689 13.9011 11.7091 13.8129 11.6683 13.7154C11.6275 13.6179 11.6064 13.5132 11.6064 13.4075C11.6064 13.3017 11.6275 13.197 11.6683 13.0996C11.7091 13.0021 11.7689 12.9138 11.8441 12.8399C11.9193 12.7661 12.0084 12.7081 12.1062 12.6693C12.204 12.6306 12.3086 12.612 12.4136 12.6145H14.8312C14.9363 12.612 15.0408 12.6306 15.1387 12.6693C15.2365 12.7081 15.3256 12.7661 15.4008 12.8399C15.476 12.9138 15.5358 13.0021 15.5766 13.0996C15.6174 13.197 15.6384 13.3017 15.6384 13.4075C15.6384 13.5132 15.6174 13.6179 15.5766 13.7154C15.5358 13.8129 15.476 13.9011 15.4008 13.975C15.3256 14.0489 15.2365 14.1069 15.1387 14.1456C15.0408 14.1844 14.9363 14.203 14.8312 14.2005Z" fill="#AB2346"/>
<path d="M10.0521 2.18487H8.43366C8.32858 2.18739 8.22404 2.16874 8.12622 2.13002C8.0284 2.0913 7.93927 2.03329 7.86406 1.95941C7.78885 1.88552 7.72911 1.79725 7.6883 1.69978C7.6475 1.60231 7.62646 1.49762 7.62646 1.39186C7.62646 1.2861 7.6475 1.18141 7.6883 1.08395C7.72911 0.986481 7.78885 0.898208 7.86406 0.824322C7.93927 0.750435 8.0284 0.692426 8.12622 0.653706C8.22404 0.614987 8.32858 0.596338 8.43366 0.598858H10.0521C10.1572 0.596338 10.2617 0.614987 10.3595 0.653706C10.4574 0.692426 10.5465 0.750435 10.6217 0.824322C10.6969 0.898208 10.7567 0.986481 10.7975 1.08395C10.8383 1.18141 10.8593 1.2861 10.8593 1.39186C10.8593 1.49762 10.8383 1.60231 10.7975 1.69978C10.7567 1.79725 10.6969 1.88552 10.6217 1.95941C10.5465 2.03329 10.4574 2.0913 10.3595 2.13002C10.2617 2.16874 10.1572 2.18739 10.0521 2.18487Z" fill="#82AEC9"/>
<path d="M10.0522 4.58819H6.85163C6.74655 4.59071 6.64204 4.57206 6.54422 4.53334C6.4464 4.49462 6.35727 4.43661 6.28206 4.36273C6.20685 4.28884 6.14708 4.20057 6.10627 4.1031C6.06547 4.00563 6.04443 3.90094 6.04443 3.79518C6.04443 3.68942 6.06547 3.58473 6.10627 3.48727C6.14708 3.3898 6.20685 3.30153 6.28206 3.22764C6.35727 3.15376 6.4464 3.09575 6.54422 3.05703C6.64204 3.01831 6.74655 2.99966 6.85163 3.00218H10.0522C10.1573 2.99966 10.2619 3.01831 10.3597 3.05703C10.4575 3.09575 10.5466 3.15376 10.6218 3.22764C10.6971 3.30153 10.7568 3.3898 10.7976 3.48727C10.8384 3.58473 10.8594 3.68942 10.8594 3.79518C10.8594 3.90094 10.8384 4.00563 10.7976 4.1031C10.7568 4.20057 10.6971 4.28884 10.6218 4.36273C10.5466 4.43661 10.4575 4.49462 10.3597 4.53334C10.2619 4.57206 10.1573 4.59071 10.0522 4.58819Z" fill="#82AEC9"/>
<path d="M10.0517 6.99053H5.26716C5.16207 6.99305 5.05754 6.9744 4.95972 6.93569C4.8619 6.89697 4.77277 6.83895 4.69756 6.76507C4.62235 6.69118 4.56258 6.60291 4.52177 6.50544C4.48097 6.40798 4.45996 6.30329 4.45996 6.19753C4.45996 6.09177 4.48097 5.98708 4.52177 5.88961C4.56258 5.79214 4.62235 5.70387 4.69756 5.62998C4.77277 5.5561 4.8619 5.49809 4.95972 5.45937C5.05754 5.42065 5.16207 5.402 5.26716 5.40452H10.0517C10.1568 5.402 10.2614 5.42065 10.3592 5.45937C10.457 5.49809 10.5461 5.5561 10.6213 5.62998C10.6965 5.70387 10.7563 5.79214 10.7971 5.88961C10.8379 5.98708 10.8589 6.09177 10.8589 6.19753C10.8589 6.30329 10.8379 6.40798 10.7971 6.50544C10.7563 6.60291 10.6965 6.69118 10.6213 6.76507C10.5461 6.83895 10.457 6.89697 10.3592 6.93569C10.2614 6.9744 10.1568 6.99305 10.0517 6.99053Z" fill="#82AEC9"/>
<path d="M10.0521 9.39385H3.66608C3.561 9.39637 3.45649 9.37772 3.35867 9.339C3.26085 9.30028 3.17172 9.24227 3.09651 9.16839C3.0213 9.0945 2.96153 9.00623 2.92072 8.90876C2.87992 8.8113 2.85889 8.70661 2.85889 8.60085C2.85889 8.49509 2.87992 8.3904 2.92072 8.29293C2.96153 8.19546 3.0213 8.10719 3.09651 8.0333C3.17172 7.95942 3.26085 7.90141 3.35867 7.86269C3.45649 7.82397 3.561 7.80532 3.66608 7.80784H10.0521C10.1572 7.80532 10.2617 7.82397 10.3595 7.86269C10.4574 7.90141 10.5465 7.95942 10.6217 8.0333C10.6969 8.10719 10.7567 8.19546 10.7975 8.29293C10.8383 8.3904 10.8593 8.49509 10.8593 8.60085C10.8593 8.70661 10.8383 8.8113 10.7975 8.90876C10.7567 9.00623 10.6969 9.0945 10.6217 9.16839C10.5465 9.24227 10.4574 9.30028 10.3595 9.339C10.2617 9.37772 10.1572 9.39637 10.0521 9.39385Z" fill="#82AEC9"/>
<path d="M20.4039 9.39385H12.4151C12.31 9.39637 12.2055 9.37772 12.1077 9.339C12.0098 9.30028 11.9207 9.24227 11.8455 9.16839C11.7703 9.0945 11.7105 9.00623 11.6697 8.90876C11.6289 8.8113 11.6079 8.70661 11.6079 8.60085C11.6079 8.49509 11.6289 8.3904 11.6697 8.29293C11.7105 8.19546 11.7703 8.10719 11.8455 8.0333C11.9207 7.95942 12.0098 7.90141 12.1077 7.86269C12.2055 7.82397 12.31 7.80532 12.4151 7.80784H20.4039C20.509 7.80532 20.6135 7.82397 20.7113 7.86269C20.8091 7.90141 20.8983 7.95942 20.9735 8.0333C21.0487 8.10719 21.1085 8.19546 21.1493 8.29293C21.1901 8.3904 21.2111 8.49509 21.2111 8.60085C21.2111 8.70661 21.1901 8.8113 21.1493 8.90876C21.1085 9.00623 21.0487 9.0945 20.9735 9.16839C20.8983 9.24227 20.8091 9.30028 20.7113 9.339C20.6135 9.37772 20.509 9.39637 20.4039 9.39385Z" fill="#82AEC9"/>
<path d="M10.0522 11.7972H5.26179C5.1567 11.7997 5.05219 11.781 4.95437 11.7423C4.85656 11.7036 4.76742 11.6456 4.69221 11.5717C4.617 11.4978 4.55723 11.4095 4.51643 11.3121C4.47562 11.2146 4.45459 11.1099 4.45459 11.0042C4.45459 10.8984 4.47562 10.7937 4.51643 10.6963C4.55723 10.5988 4.617 10.5105 4.69221 10.4366C4.76742 10.3627 4.85656 10.3047 4.95437 10.266C5.05219 10.2273 5.1567 10.2086 5.26179 10.2112H10.0522C10.1573 10.2086 10.2618 10.2273 10.3596 10.266C10.4575 10.3047 10.5466 10.3627 10.6218 10.4366C10.697 10.5105 10.7568 10.5988 10.7976 10.6963C10.8384 10.7937 10.8594 10.8984 10.8594 11.0042C10.8594 11.1099 10.8384 11.2146 10.7976 11.3121C10.7568 11.4095 10.697 11.4978 10.6218 11.5717C10.5466 11.6456 10.4575 11.7036 10.3596 11.7423C10.2618 11.781 10.1573 11.7997 10.0522 11.7972Z" fill="#82AEC9"/>
<path d="M20.4038 11.7972H17.9894C17.7836 11.7922 17.5879 11.7065 17.444 11.5583C17.3002 11.4102 17.2197 11.2113 17.2197 11.0042C17.2197 10.7971 17.3002 10.5982 17.444 10.45C17.5879 10.3018 17.7836 10.2161 17.9894 10.2112H20.4038C20.5089 10.2086 20.6134 10.2273 20.7113 10.266C20.8091 10.3047 20.8982 10.3627 20.9734 10.4366C21.0486 10.5105 21.1084 10.5988 21.1492 10.6963C21.19 10.7937 21.211 10.8984 21.211 11.0042C21.211 11.1099 21.19 11.2146 21.1492 11.3121C21.1084 11.4095 21.0486 11.4978 20.9734 11.5717C20.8982 11.6456 20.8091 11.7036 20.7113 11.7423C20.6134 11.781 20.5089 11.7997 20.4038 11.7972Z" fill="#82AEC9"/>
<path d="M10.0513 14.2005H6.84528C6.7402 14.203 6.63566 14.1844 6.53784 14.1456C6.44003 14.1069 6.35089 14.0489 6.27568 13.975C6.20047 13.9011 6.1407 13.8129 6.0999 13.7154C6.05909 13.6179 6.03809 13.5132 6.03809 13.4075C6.03809 13.3017 6.05909 13.197 6.0999 13.0996C6.1407 13.0021 6.20047 12.9138 6.27568 12.8399C6.35089 12.7661 6.44003 12.7081 6.53784 12.6693C6.63566 12.6306 6.7402 12.612 6.84528 12.6145H10.0513C10.1563 12.612 10.2609 12.6306 10.3587 12.6693C10.4565 12.7081 10.5456 12.7661 10.6209 12.8399C10.6961 12.9138 10.7558 13.0021 10.7966 13.0996C10.8374 13.197 10.8585 13.3017 10.8585 13.4075C10.8585 13.5132 10.8374 13.6179 10.7966 13.7154C10.7558 13.8129 10.6961 13.9011 10.6209 13.975C10.5456 14.0489 10.4565 14.1069 10.3587 14.1456C10.2609 14.1844 10.1563 14.203 10.0513 14.2005Z" fill="#82AEC9"/>
<path d="M20.5522 14.2005H17.2052C16.9994 14.1956 16.8037 14.1098 16.6599 13.9617C16.5161 13.8135 16.4355 13.6146 16.4355 13.4075C16.4355 13.2004 16.5161 13.0015 16.6599 12.8533C16.8037 12.7051 16.9994 12.6194 17.2052 12.6145H20.5522C20.6573 12.612 20.7618 12.6306 20.8596 12.6693C20.9574 12.7081 21.0466 12.7661 21.1218 12.8399C21.197 12.9138 21.2568 13.0021 21.2976 13.0996C21.3384 13.197 21.3594 13.3017 21.3594 13.4075C21.3594 13.5132 21.3384 13.6179 21.2976 13.7154C21.2568 13.8129 21.197 13.9011 21.1218 13.975C21.0466 14.0489 20.9574 14.1069 20.8596 14.1456C20.7618 14.1844 20.6573 14.203 20.5522 14.2005Z" fill="#82AEC9"/>
<path d="M10.0521 16.6028H8.43366C8.32858 16.6054 8.22404 16.5867 8.12622 16.548C8.0284 16.5093 7.93927 16.4513 7.86406 16.3774C7.78885 16.3035 7.72911 16.2152 7.6883 16.1177C7.6475 16.0203 7.62646 15.9156 7.62646 15.8098C7.62646 15.7041 7.6475 15.5994 7.6883 15.5019C7.72911 15.4044 7.78885 15.3162 7.86406 15.2423C7.93927 15.1684 8.0284 15.1104 8.12622 15.0717C8.22404 15.033 8.32858 15.0143 8.43366 15.0168H10.0521C10.1572 15.0143 10.2617 15.033 10.3595 15.0717C10.4574 15.1104 10.5465 15.1684 10.6217 15.2423C10.6969 15.3162 10.7567 15.4044 10.7975 15.5019C10.8383 15.5994 10.8593 15.7041 10.8593 15.8098C10.8593 15.9156 10.8383 16.0203 10.7975 16.1177C10.7567 16.2152 10.6969 16.3035 10.6217 16.3774C10.5465 16.4513 10.4574 16.5093 10.3595 16.548C10.2617 16.5867 10.1572 16.6054 10.0521 16.6028Z" fill="#82AEC9"/>
<path d="M15.6282 16.6028H12.4141C12.309 16.6054 12.2045 16.5867 12.1067 16.548C12.0089 16.5093 11.9197 16.4513 11.8445 16.3774C11.7693 16.3035 11.7095 16.2152 11.6687 16.1177C11.6279 16.0203 11.6069 15.9156 11.6069 15.8098C11.6069 15.7041 11.6279 15.5994 11.6687 15.5019C11.7095 15.4044 11.7693 15.3162 11.8445 15.2423C11.9197 15.1684 12.0089 15.1104 12.1067 15.0717C12.2045 15.033 12.309 15.0143 12.4141 15.0168H15.6282C15.7332 15.0143 15.8378 15.033 15.9356 15.0717C16.0334 15.1104 16.1226 15.1684 16.1978 15.2423C16.273 15.3162 16.3327 15.4044 16.3735 15.5019C16.4143 15.5994 16.4354 15.7041 16.4354 15.8098C16.4354 15.9156 16.4143 16.0203 16.3735 16.1177C16.3327 16.2152 16.273 16.3035 16.1978 16.3774C16.1226 16.4513 16.0334 16.5093 15.9356 16.548C15.8378 16.5867 15.7332 16.6054 15.6282 16.6028Z" fill="#82AEC9"/>
<path d="M6.88207 1.99647C6.88207 2.1163 6.84674 2.23343 6.78058 2.33306C6.71441 2.43269 6.62036 2.51034 6.51033 2.5562C6.4003 2.60206 6.27923 2.61405 6.16242 2.59068C6.04561 2.5673 5.93832 2.5096 5.85411 2.42487C5.76989 2.34014 5.71254 2.23219 5.6893 2.11467C5.66607 1.99714 5.678 1.87533 5.72357 1.76462C5.76915 1.65392 5.84632 1.5593 5.94535 1.49273C6.04437 1.42616 6.1608 1.39062 6.27989 1.39062C6.4396 1.39062 6.59275 1.45446 6.70568 1.56807C6.81861 1.68169 6.88207 1.83579 6.88207 1.99647Z" fill="#1D365A"/>
<path d="M6.85912 15.6039C6.85912 15.7237 6.8238 15.8409 6.75763 15.9405C6.69146 16.0401 6.59741 16.1178 6.48738 16.1636C6.37735 16.2095 6.25628 16.2215 6.13947 16.1981C6.02266 16.1747 5.91537 16.117 5.83116 16.0323C5.74694 15.9476 5.68959 15.8396 5.66636 15.7221C5.64312 15.6046 5.65505 15.4827 5.70062 15.372C5.7462 15.2613 5.8234 15.1667 5.92242 15.1001C6.02145 15.0336 6.13785 14.998 6.25694 14.998C6.41665 14.998 6.56983 15.0619 6.68276 15.1755C6.79568 15.2891 6.85912 15.4432 6.85912 15.6039Z" fill="#1D365A"/>
<path d="M4.866 4.58815H4.06998C3.96543 4.58815 3.86516 4.54637 3.79123 4.47199C3.7173 4.39761 3.67578 4.29673 3.67578 4.19154C3.67578 4.08635 3.7173 3.98547 3.79123 3.91109C3.86516 3.83671 3.96543 3.79492 4.06998 3.79492H4.866C4.97055 3.79492 5.07082 3.83671 5.14475 3.91109C5.21868 3.98547 5.2602 4.08635 5.2602 4.19154C5.2602 4.29673 5.21868 4.39761 5.14475 4.47199C5.07082 4.54637 4.97055 4.58815 4.866 4.58815Z" fill="#1D365A"/>
<path d="M3.27108 6.9905H1.68131C1.57676 6.9905 1.47649 6.94871 1.40256 6.87433C1.32863 6.79995 1.28711 6.69907 1.28711 6.59388C1.28711 6.48869 1.32863 6.38781 1.40256 6.31343C1.47649 6.23905 1.57676 6.19727 1.68131 6.19727H3.27108C3.37563 6.19727 3.4759 6.23905 3.54983 6.31343C3.62376 6.38781 3.66531 6.48869 3.66531 6.59388C3.66531 6.69907 3.62376 6.79995 3.54983 6.87433C3.4759 6.94871 3.37563 6.9905 3.27108 6.9905Z" fill="#1D365A"/>
<path d="M3.28131 10.9876H0.89371C0.789162 10.9876 0.688917 10.9458 0.61499 10.8714C0.541062 10.797 0.499512 10.6961 0.499512 10.591C0.499512 10.4858 0.541062 10.3849 0.61499 10.3105C0.688917 10.2361 0.789162 10.1943 0.89371 10.1943H3.28131C3.38586 10.1943 3.48613 10.2361 3.56006 10.3105C3.63398 10.3849 3.67551 10.4858 3.67551 10.591C3.67551 10.6961 3.63398 10.797 3.56006 10.8714C3.48613 10.9458 3.38586 10.9876 3.28131 10.9876Z" fill="#1D365A"/>
<path d="M4.86909 13.3821H4.06949C3.96494 13.3821 3.86467 13.3403 3.79074 13.2659C3.71682 13.1916 3.67529 13.0907 3.67529 12.9855C3.67529 12.8803 3.71682 12.7794 3.79074 12.705C3.86467 12.6307 3.96494 12.5889 4.06949 12.5889H4.86909C4.97364 12.5889 5.07391 12.6307 5.14784 12.705C5.22177 12.7794 5.26329 12.8803 5.26329 12.9855C5.26329 13.0907 5.22177 13.1916 5.14784 13.2659C5.07391 13.3403 4.97364 13.3821 4.86909 13.3821Z" fill="#1D365A"/>
<path d="M29.611 8.07662C29.8251 8.3445 29.94 8.67887 29.9361 9.02255C29.9421 9.32207 29.8603 9.61675 29.701 9.86983C29.5338 10.1224 29.2976 10.321 29.021 10.4419C28.6894 10.5866 28.3306 10.657 27.9693 10.6482H25.395V4.64334H27.8574C28.2165 4.63454 28.5734 4.70192 28.905 4.84109C29.1763 4.95483 29.4083 5.14643 29.5721 5.39198C29.7242 5.63058 29.803 5.909 29.7986 6.19242C29.8096 6.50853 29.7116 6.81873 29.521 7.07033C29.3309 7.30877 29.0728 7.48294 28.7814 7.56942C29.1111 7.62851 29.407 7.8094 29.611 8.07662ZM26.5917 7.12168H27.6868C27.922 7.13708 28.1551 7.06849 28.3449 6.92799C28.4231 6.85949 28.4846 6.77382 28.5247 6.67759C28.5648 6.58137 28.5823 6.47717 28.5759 6.37304C28.582 6.26829 28.5644 6.16351 28.5243 6.0666C28.4843 5.9697 28.423 5.88319 28.3449 5.81359C28.1563 5.6702 27.9227 5.59986 27.6868 5.6154H26.5917V7.12168ZM28.4775 9.46398C28.5598 9.39156 28.6245 9.30113 28.6667 9.19963C28.709 9.09812 28.7275 8.98824 28.721 8.87841C28.7267 8.76432 28.7066 8.65042 28.6622 8.54531C28.6177 8.44019 28.5501 8.34662 28.4645 8.27166C28.2675 8.11683 28.0215 8.03891 27.7719 8.05229H26.5917V9.66984H27.7978C28.0417 9.68483 28.2829 9.61167 28.4779 9.46353" fill="#AB2346"/>
<path d="M32.6835 6.02809C32.943 5.88165 33.2366 5.80733 33.5342 5.81278V7.07897H33.2176C33.0578 7.05295 32.8941 7.06641 32.7406 7.11818C32.5871 7.16995 32.4484 7.25849 32.3365 7.37616C32.2245 7.49384 32.1427 7.63713 32.098 7.79369C32.0534 7.95026 32.0472 8.1154 32.08 8.2749V10.6496H30.8833V5.8817H32.0787V6.62177C32.2264 6.37566 32.434 6.17136 32.6817 6.02809" fill="#AB2346"/>
<path d="M35.3034 10.4202C34.9413 10.2195 34.6433 9.91959 34.4438 9.55531C34.2296 9.15987 34.1216 8.71506 34.1304 8.26479C34.1212 7.81343 34.2319 7.36778 34.451 6.97382C34.6569 6.60859 34.9606 6.30891 35.3276 6.10897C35.7106 5.90842 36.136 5.80371 36.5677 5.80371C36.9995 5.80371 37.4248 5.90842 37.8078 6.10897C38.1748 6.30895 38.4785 6.60862 38.6844 6.97382C38.9037 7.36773 39.0146 7.81339 39.0055 8.26479C39.0146 8.71708 38.9008 9.1633 38.6764 9.55531C38.4646 9.92046 38.1568 10.2197 37.7868 10.4202C37.4013 10.6268 36.97 10.7319 36.5332 10.7256C36.1034 10.7322 35.6792 10.627 35.3016 10.4202M37.1448 9.51657C37.3403 9.40566 37.4993 9.2397 37.6023 9.0391C37.7226 8.79936 37.7814 8.5332 37.7734 8.26479C37.7858 8.0756 37.7608 7.88582 37.7 7.70638C37.6391 7.52695 37.5436 7.36141 37.4188 7.21931C37.3072 7.10116 37.1724 7.00767 37.0229 6.94478C36.8735 6.88189 36.7127 6.85097 36.5507 6.854C36.3899 6.85046 36.2302 6.88118 36.0821 6.94414C35.9339 7.0071 35.8007 7.10088 35.6911 7.21931C35.4441 7.50875 35.3197 7.8841 35.3446 8.26479C35.3196 8.64403 35.4406 9.0184 35.6826 9.31027C35.79 9.42908 35.9215 9.52324 36.0683 9.58636C36.2151 9.64947 36.3737 9.68005 36.5332 9.67602C36.7473 9.67671 36.9579 9.62151 37.1448 9.51657Z" fill="#AB2346"/>
<path d="M39.9121 6.9659C40.0865 6.6115 40.3562 6.31342 40.6906 6.10556C41.0218 5.90382 41.4026 5.79944 41.7897 5.80421C42.1121 5.79685 42.4312 5.87088 42.7178 6.01952C42.9676 6.14966 43.1852 6.33434 43.3549 6.56005V5.88169H44.561V10.6496H43.3549V9.95189C43.1897 10.1855 42.9713 10.3758 42.7178 10.5068C42.4287 10.6576 42.1067 10.733 41.7812 10.7262C41.3957 10.73 41.0172 10.6225 40.6906 10.4163C40.3562 10.2027 40.0869 9.90048 39.9121 9.54289C39.715 9.14048 39.6167 8.69638 39.6255 8.24786C39.617 7.80342 39.7153 7.36393 39.9121 6.9659ZM43.1834 7.51184C43.0773 7.31093 42.9172 7.14407 42.7214 7.03032C42.5318 6.91946 42.3162 6.86146 42.0968 6.8623C41.8766 6.85988 41.6599 6.91837 41.4704 7.03141C41.2809 7.14444 41.1259 7.30767 41.0224 7.50328C40.9008 7.73201 40.8403 7.98857 40.8469 8.24786C40.8409 8.50982 40.9013 8.76899 41.0224 9.001C41.1287 9.20539 41.2884 9.37671 41.4844 9.49649C41.6686 9.60937 41.8802 9.66892 42.0959 9.66856C42.3152 9.66947 42.5308 9.61163 42.7205 9.501C42.9163 9.387 43.0764 9.22001 43.1825 9.01902C43.295 8.78417 43.3534 8.52681 43.3534 8.26611C43.3534 8.0054 43.295 7.74805 43.1825 7.51319" fill="#AB2346"/>
<path d="M45.6753 6.96589C45.8479 6.61241 46.1169 6.31556 46.4507 6.10989C46.7846 5.90423 47.1696 5.79821 47.561 5.8042C47.8662 5.80362 48.1674 5.87277 48.4421 6.00645C48.705 6.1279 48.9341 6.31262 49.1092 6.54428V4.28125H50.3238V10.6487H49.1092V9.94332C48.9544 10.1846 48.7391 10.3805 48.4851 10.5113C48.1969 10.6596 47.8766 10.7336 47.553 10.7266C47.1662 10.7301 46.7865 10.6226 46.4583 10.4167C46.1221 10.2041 45.8512 9.90175 45.6758 9.54332C45.4787 9.14093 45.3804 8.69682 45.3892 8.2483C45.3807 7.80385 45.479 7.3639 45.6758 6.96589M48.9471 7.51228C48.8411 7.31143 48.6812 7.14458 48.4855 7.03076C48.296 6.91998 48.0806 6.86198 47.8614 6.86274C47.6411 6.86032 47.4245 6.91881 47.235 7.03185C47.0455 7.14488 46.8905 7.30811 46.7869 7.50372C46.6654 7.73244 46.6049 7.98901 46.6114 8.2483C46.6055 8.51026 46.6659 8.76942 46.7869 9.00144C46.8933 9.20583 47.053 9.37715 47.249 9.49693C47.4332 9.60984 47.6448 9.66938 47.8605 9.669C48.0796 9.66983 48.2951 9.612 48.4846 9.50144C48.6803 9.38737 48.8402 9.22039 48.9462 9.01946C49.0588 8.78464 49.1173 8.52728 49.1173 8.26655C49.1173 8.00582 49.0588 7.74845 48.9462 7.51363" fill="#AB2346"/>
<path d="M52.2185 10.5138C51.9304 10.3886 51.6788 10.1916 51.4874 9.94129C51.3116 9.71041 51.2088 9.43169 51.1924 9.1413H52.3985C52.4095 9.23184 52.4391 9.31909 52.4853 9.39755C52.5316 9.47601 52.5935 9.54397 52.6671 9.59715C52.8367 9.72159 53.0429 9.78505 53.2527 9.77733C53.4408 9.78829 53.6276 9.74012 53.7872 9.63949C53.8463 9.60184 53.895 9.54975 53.9286 9.48807C53.9623 9.4264 53.9799 9.35716 53.9798 9.28679C53.9802 9.21159 53.958 9.13802 53.916 9.07578C53.874 9.01354 53.8143 8.96555 53.7447 8.93815C53.5032 8.83122 53.2527 8.7462 52.9962 8.6841C52.7008 8.61623 52.4107 8.52711 52.1281 8.41744C51.9032 8.32601 51.7036 8.18139 51.5461 7.99583C51.3745 7.77916 51.2878 7.50671 51.3025 7.23007C51.3013 6.97192 51.3805 6.71988 51.529 6.50936C51.694 6.28004 51.9191 6.10133 52.1791 5.99316C52.4944 5.86025 52.834 5.79564 53.1757 5.80352C53.6623 5.77818 54.1417 5.92939 54.5269 6.22964C54.6941 6.37145 54.8299 6.54692 54.9257 6.74474C55.0215 6.94257 55.075 7.15837 55.0829 7.37827H53.9368C53.9312 7.2908 53.9074 7.20549 53.8669 7.12789C53.8264 7.05028 53.7701 6.98212 53.7017 6.92782C53.5445 6.82727 53.3636 6.77017 53.1774 6.76226C52.9913 6.75436 52.8063 6.79592 52.6411 6.88278C52.5856 6.91869 52.5402 6.96849 52.5096 7.02731C52.4789 7.08614 52.4639 7.15196 52.4661 7.21836C52.4656 7.29638 52.4881 7.37279 52.5307 7.43796C52.5734 7.50313 52.6342 7.55415 52.7056 7.58457C52.9441 7.69518 53.1935 7.78018 53.4497 7.83817C53.7378 7.90706 54.0207 7.99632 54.2963 8.10528C54.5201 8.19807 54.7181 8.34415 54.8734 8.53095C55.0441 8.74698 55.1335 9.01675 55.1259 9.29265C55.1291 9.5571 55.0499 9.81592 54.8993 10.0327C54.7348 10.2615 54.5095 10.439 54.2493 10.5449C53.9362 10.6741 53.6 10.7369 53.2617 10.7296C52.9028 10.7355 52.5468 10.6636 52.218 10.5188" fill="#AB2346"/>
<path d="M57.9256 6.02343C58.2118 5.8733 58.5309 5.79788 58.8537 5.80406C59.2408 5.79918 59.6215 5.90341 59.9527 6.10496C60.2862 6.31201 60.5558 6.60835 60.7313 6.9608C60.9289 7.35998 61.0272 7.80144 61.0178 8.24727C61.0265 8.69577 60.9283 9.13985 60.7313 9.54229C60.5563 9.89978 60.287 10.2019 59.9527 10.4157C59.6234 10.6227 59.2419 10.7302 58.8537 10.7256C58.5342 10.7323 58.2182 10.6583 57.9345 10.5103C57.6832 10.3789 57.463 10.1945 57.2889 9.96976V12.9211H56.0913V5.88154H57.2889V6.56982C57.4561 6.34029 57.6738 6.15319 57.9256 6.02343ZM59.6192 7.50314C59.5124 7.30393 59.3526 7.1386 59.1576 7.02567C58.9688 6.91723 58.755 6.86083 58.5376 6.86215C58.3224 6.86165 58.1111 6.9197 57.926 7.03017C57.7307 7.14649 57.571 7.31464 57.4644 7.5162C57.3491 7.7487 57.2891 8.00499 57.2891 8.26483C57.2891 8.52468 57.3491 8.78097 57.4644 9.01347C57.5711 9.21498 57.7308 9.38312 57.926 9.4995C58.1129 9.60988 58.3258 9.66769 58.5424 9.6669C58.7591 9.66611 58.9716 9.60673 59.1576 9.49499C59.3525 9.37617 59.5119 9.20672 59.6192 9.00446C59.7411 8.77133 59.8016 8.51061 59.7947 8.24727C59.8013 7.98797 59.7408 7.73184 59.6192 7.50314Z" fill="#AB2346"/>
<path d="M66.2431 8.62619H62.7792C62.7894 8.93301 62.9178 9.2238 63.1374 9.43699C63.3491 9.63258 63.6281 9.73759 63.9155 9.72978C64.1131 9.74161 64.3097 9.69278 64.4792 9.58974C64.6487 9.48671 64.7831 9.33433 64.8646 9.15276H66.1562C66.0235 9.60617 65.7473 10.0036 65.3696 10.2847C64.9559 10.5884 64.4532 10.7443 63.9414 10.7275C63.513 10.7344 63.0901 10.6292 62.7143 10.4221C62.3553 10.2217 62.0614 9.92142 61.8677 9.55726C61.6594 9.15993 61.5549 8.71585 61.5641 8.26674C61.5542 7.81517 61.6572 7.36832 61.8636 6.96721C62.0536 6.60428 62.3449 6.30521 62.7017 6.10687C63.0803 5.9104 63.4999 5.80717 63.9258 5.80568C64.3518 5.80419 64.7721 5.90448 65.152 6.09831C65.5029 6.28801 65.7912 6.5765 65.9816 6.92847C66.1834 7.30799 66.285 7.73327 66.2766 8.16359C66.2778 8.31906 66.2664 8.47438 66.2426 8.628M65.0365 7.8172C65.039 7.67607 65.0104 7.53614 64.9527 7.40747C64.8951 7.2788 64.8098 7.16459 64.703 7.07307C64.4811 6.88471 64.1981 6.78513 63.9079 6.79334C63.6334 6.78493 63.3659 6.8815 63.1593 7.06361C62.9484 7.26062 62.8161 7.52822 62.7872 7.8163L65.0365 7.8172Z" fill="#AB2346"/>
<path d="M67.2704 6.96928C67.4603 6.60917 67.748 6.31079 68.1 6.10894C68.4709 5.9008 68.89 5.79541 69.3146 5.80354C69.8361 5.78311 70.3494 5.93917 70.7723 6.24677C71.167 6.55729 71.4409 6.99723 71.5464 7.49H70.2548C70.1943 7.29469 70.0727 7.12423 69.9082 7.00397C69.7307 6.8818 69.5189 6.82008 69.3039 6.82784C69.1487 6.82143 68.9943 6.85199 68.8532 6.91704C68.712 6.9821 68.5882 7.07979 68.4917 7.20216C68.2959 7.5201 68.1922 7.88669 68.1922 8.2607C68.1922 8.63471 68.2959 9.00131 68.4917 9.31924C68.5882 9.44161 68.712 9.53931 68.8532 9.60436C68.9943 9.66941 69.1487 9.69998 69.3039 9.69356C69.5128 9.7116 69.7215 9.6563 69.8945 9.53708C70.0675 9.41785 70.1942 9.24205 70.253 9.03952H71.5446C71.4319 9.52693 71.1572 9.96105 70.766 10.2701C70.3473 10.5843 69.8344 10.7452 69.3124 10.726C68.8878 10.7341 68.4686 10.6287 68.0978 10.4206C67.7458 10.2186 67.4581 9.92028 67.2682 9.56023C67.0712 9.1573 66.9688 8.71425 66.9688 8.26521C66.9688 7.81617 67.0712 7.37312 67.2682 6.97018" fill="#AB2346"/>
<path d="M73.9029 6.87058V9.17685C73.897 9.23984 73.9043 9.30338 73.9242 9.3634C73.944 9.42342 73.9761 9.47862 74.0184 9.52549C74.1306 9.60798 74.2691 9.64613 74.4074 9.6327H74.9635V10.648H74.2109C73.2018 10.648 72.6972 10.1548 72.6972 9.16829V6.87103H72.1309V5.88006H72.6954V4.70215H73.9011V5.88096H74.9617V6.87193L73.9029 6.87058Z" fill="#AB2346"/>
<path d="M77.745 6.02809C78.0045 5.88163 78.2981 5.80731 78.5956 5.81278V7.07897H78.2791C78.1192 7.05284 77.9555 7.06622 77.8019 7.11795C77.6484 7.16969 77.5096 7.25822 77.3977 7.37593C77.2857 7.49363 77.2039 7.63697 77.1592 7.79359C77.1146 7.9502 77.1085 8.11539 77.1415 8.2749V10.6496H75.9438V5.8817H77.1415V6.62178C77.2892 6.3756 77.4971 6.17129 77.745 6.02809Z" fill="#AB2346"/>
<path d="M83.8956 5.88184V10.6489H82.6895V10.0466C82.5318 10.2564 82.3247 10.4234 82.0869 10.5327C81.8339 10.6512 81.5578 10.7113 81.2788 10.7088C80.9358 10.716 80.5967 10.6346 80.2939 10.4723C80.0064 10.3121 79.7726 10.0695 79.6223 9.77546C79.4523 9.43572 79.3686 9.05888 79.3788 8.67864V5.88184H80.5764V8.50657C80.5554 8.8232 80.6564 9.1358 80.8584 9.37953C80.9575 9.48284 81.0775 9.56356 81.2103 9.61624C81.343 9.66893 81.4855 9.69235 81.628 9.68493C81.7719 9.69291 81.9157 9.66979 82.05 9.6171C82.1842 9.56442 82.3056 9.48341 82.4061 9.37953C82.6082 9.13582 82.7092 8.82321 82.6882 8.50657V5.88184H83.8956Z" fill="#AB2346"/>
<path d="M92.4364 6.35117C92.6216 6.5522 92.7645 6.7889 92.8564 7.04701C92.9483 7.30512 92.9872 7.57928 92.9709 7.85295V10.6493H91.7738V8.01601C91.7948 7.7045 91.6933 7.39714 91.4912 7.16017C91.3907 7.05926 91.2703 6.9807 91.1377 6.92957C91.0052 6.87843 90.8634 6.85587 90.7216 6.86333C90.5792 6.85618 90.4369 6.87888 90.3036 6.92997C90.1704 6.98107 90.0491 7.05946 89.9475 7.16017C89.8462 7.27687 89.7688 7.41253 89.7196 7.55939C89.6704 7.70624 89.6506 7.86141 89.6611 8.01601V10.6493H88.4639V8.01601C88.4848 7.70459 88.3835 7.39733 88.1818 7.16017C88.0813 7.05928 87.9609 6.98074 87.8283 6.92961C87.6958 6.87848 87.554 6.8559 87.4122 6.86333C87.2685 6.85559 87.1247 6.87797 86.99 6.92907C86.8553 6.98017 86.7326 7.05886 86.6297 7.16017C86.5284 7.2769 86.4509 7.41256 86.4018 7.55941C86.3526 7.70626 86.3327 7.86141 86.3431 8.01601V10.6493H85.1455V5.88226H86.3431V6.45883C86.5006 6.2553 86.7045 6.09305 86.9377 5.98586C87.1882 5.86933 87.4613 5.81055 87.7373 5.81379C88.0825 5.80771 88.4236 5.88903 88.7294 6.05028C89.0157 6.20372 89.2507 6.43875 89.405 6.72594C89.5632 6.44665 89.7958 6.21734 90.0765 6.06379C90.451 5.85954 90.8794 5.77755 91.3023 5.82921C91.7252 5.88086 92.1217 6.06359 92.4368 6.35207" fill="#AB2346"/>
</svg>
