<svg width="93" height="17" viewBox="0 0 93 17" fill="none" xmlns="http://www.w3.org/2000/svg">
<path d="M15.6282 2.55889H12.4141C12.309 2.56141 12.2045 2.54276 12.1067 2.50404C12.0089 2.46532 11.9197 2.40732 11.8445 2.33343C11.7693 2.25954 11.7095 2.17127 11.6687 2.0738C11.6279 1.97634 11.6069 1.87165 11.6069 1.76589C11.6069 1.66013 11.6279 1.55544 11.6687 1.45797C11.7095 1.3605 11.7693 1.27223 11.8445 1.19835C11.9197 1.12446 12.0089 1.06645 12.1067 1.02773C12.2045 0.98901 12.309 0.970361 12.4141 0.972881H15.6282C15.7332 0.970361 15.8378 0.98901 15.9356 1.02773C16.0334 1.06645 16.1226 1.12446 16.1978 1.19835C16.273 1.27223 16.3327 1.3605 16.3735 1.45797C16.4143 1.55544 16.4354 1.66013 16.4354 1.76589C16.4354 1.87165 16.4143 1.97634 16.3735 2.0738C16.3327 2.17127 16.273 2.25954 16.1978 2.33343C16.1226 2.40732 16.0334 2.46532 15.9356 2.50404C15.8378 2.54276 15.7332 2.56141 15.6282 2.55889Z" fill="#AB2346"/>
<path d="M17.2243 4.96221H12.4151C12.31 4.96473 12.2055 4.94608 12.1077 4.90736C12.0098 4.86865 11.9207 4.81064 11.8455 4.73675C11.7703 4.66286 11.7105 4.57459 11.6697 4.47712C11.6289 4.37966 11.6079 4.27497 11.6079 4.16921C11.6079 4.06345 11.6289 3.95876 11.6697 3.86129C11.7105 3.76382 11.7703 3.67555 11.8455 3.60167C11.9207 3.52778 12.0098 3.46977 12.1077 3.43105C12.2055 3.39233 12.31 3.37368 12.4151 3.3762H17.2243C17.3294 3.37368 17.4339 3.39233 17.5317 3.43105C17.6296 3.46977 17.7187 3.52778 17.7939 3.60167C17.8691 3.67555 17.9289 3.76382 17.9697 3.86129C18.0105 3.95876 18.0315 4.06345 18.0315 4.16921C18.0315 4.27497 18.0105 4.37966 17.9697 4.47712C17.9289 4.57459 17.8691 4.66286 17.7939 4.73675C17.7187 4.81064 17.6296 4.86865 17.5317 4.90736C17.4339 4.94608 17.3294 4.96473 17.2243 4.96221Z" fill="#AB2346"/>
<path d="M18.8083 7.36455H12.4146C12.2088 7.35962 12.0131 7.27391 11.8693 7.12573C11.7255 6.97755 11.645 6.77865 11.645 6.57155C11.645 6.36444 11.7255 6.16556 11.8693 6.01738C12.0131 5.8692 12.2088 5.78348 12.4146 5.77855H18.8083C18.9133 5.77603 19.0179 5.79467 19.1157 5.83339C19.2135 5.87211 19.3026 5.93012 19.3779 6.00401C19.4531 6.07789 19.5128 6.16617 19.5536 6.26363C19.5944 6.3611 19.6155 6.46579 19.6155 6.57155C19.6155 6.67731 19.5944 6.782 19.5536 6.87947C19.5128 6.97693 19.4531 7.0652 19.3779 7.13909C19.3026 7.21298 19.2135 7.27099 19.1157 7.30971C19.0179 7.34843 18.9133 7.36707 18.8083 7.36455Z" fill="#AB2346"/>
<path d="M15.6282 12.1712H12.4141C12.309 12.1737 12.2045 12.1551 12.1067 12.1163C12.0089 12.0776 11.9197 12.0196 11.8445 11.9457C11.7693 11.8718 11.7095 11.7836 11.6687 11.6861C11.6279 11.5886 11.6069 11.4839 11.6069 11.3782C11.6069 11.2724 11.6279 11.1677 11.6687 11.0703C11.7095 10.9728 11.7693 10.8845 11.8445 10.8107C11.9197 10.7368 12.0089 10.6788 12.1067 10.64C12.2045 10.6013 12.309 10.5827 12.4141 10.5852H15.6282C15.7332 10.5827 15.8378 10.6013 15.9356 10.64C16.0334 10.6788 16.1226 10.7368 16.1978 10.8107C16.273 10.8845 16.3327 10.9728 16.3735 11.0703C16.4143 11.1677 16.4354 11.2724 16.4354 11.3782C16.4354 11.4839 16.4143 11.5886 16.3735 11.6861C16.3327 11.7836 16.273 11.8718 16.1978 11.9457C16.1226 12.0196 16.0334 12.0776 15.9356 12.1163C15.8378 12.1551 15.7332 12.1737 15.6282 12.1712Z" fill="#AB2346"/>
<path d="M14.8312 14.5745H12.4136C12.3086 14.577 12.204 14.5584 12.1062 14.5197C12.0084 14.4809 11.9193 14.4229 11.8441 14.3491C11.7689 14.2752 11.7091 14.1869 11.6683 14.0894C11.6275 13.992 11.6064 13.8873 11.6064 13.7815C11.6064 13.6758 11.6275 13.5711 11.6683 13.4736C11.7091 13.3761 11.7689 13.2879 11.8441 13.214C11.9193 13.1401 12.0084 13.0821 12.1062 13.0434C12.204 13.0046 12.3086 12.986 12.4136 12.9885H14.8312C14.9363 12.986 15.0408 13.0046 15.1387 13.0434C15.2365 13.0821 15.3256 13.1401 15.4008 13.214C15.476 13.2879 15.5358 13.3761 15.5766 13.4736C15.6174 13.5711 15.6384 13.6758 15.6384 13.7815C15.6384 13.8873 15.6174 13.992 15.5766 14.0894C15.5358 14.1869 15.476 14.2752 15.4008 14.3491C15.3256 14.4229 15.2365 14.4809 15.1387 14.5197C15.0408 14.5584 14.9363 14.577 14.8312 14.5745Z" fill="#AB2346"/>
<path d="M10.0521 2.55889H8.43366C8.32858 2.56141 8.22404 2.54276 8.12622 2.50404C8.0284 2.46532 7.93927 2.40732 7.86406 2.33343C7.78885 2.25954 7.72911 2.17127 7.6883 2.0738C7.6475 1.97634 7.62646 1.87165 7.62646 1.76589C7.62646 1.66013 7.6475 1.55544 7.6883 1.45797C7.72911 1.3605 7.78885 1.27223 7.86406 1.19835C7.93927 1.12446 8.0284 1.06645 8.12622 1.02773C8.22404 0.98901 8.32858 0.970361 8.43366 0.972881H10.0521C10.1572 0.970361 10.2617 0.98901 10.3595 1.02773C10.4574 1.06645 10.5465 1.12446 10.6217 1.19835C10.6969 1.27223 10.7567 1.3605 10.7975 1.45797C10.8383 1.55544 10.8593 1.66013 10.8593 1.76589C10.8593 1.87165 10.8383 1.97634 10.7975 2.0738C10.7567 2.17127 10.6969 2.25954 10.6217 2.33343C10.5465 2.40732 10.4574 2.46532 10.3595 2.50404C10.2617 2.54276 10.1572 2.56141 10.0521 2.55889Z" fill="#82AEC9"/>
<path d="M10.0522 4.96221H6.85163C6.74655 4.96473 6.64204 4.94608 6.54422 4.90736C6.4464 4.86865 6.35727 4.81064 6.28206 4.73675C6.20685 4.66286 6.14708 4.57459 6.10627 4.47712C6.06547 4.37966 6.04443 4.27497 6.04443 4.16921C6.04443 4.06345 6.06547 3.95876 6.10627 3.86129C6.14708 3.76382 6.20685 3.67555 6.28206 3.60167C6.35727 3.52778 6.4464 3.46977 6.54422 3.43105C6.64204 3.39233 6.74655 3.37368 6.85163 3.3762H10.0522C10.1573 3.37368 10.2619 3.39233 10.3597 3.43105C10.4575 3.46977 10.5466 3.52778 10.6218 3.60167C10.6971 3.67555 10.7568 3.76382 10.7976 3.86129C10.8384 3.95876 10.8594 4.06345 10.8594 4.16921C10.8594 4.27497 10.8384 4.37966 10.7976 4.47712C10.7568 4.57459 10.6971 4.66286 10.6218 4.73675C10.5466 4.81064 10.4575 4.86865 10.3597 4.90736C10.2619 4.94608 10.1573 4.96473 10.0522 4.96221Z" fill="#82AEC9"/>
<path d="M10.0517 7.36455H5.26716C5.16207 7.36707 5.05754 7.34843 4.95972 7.30971C4.8619 7.27099 4.77277 7.21298 4.69756 7.13909C4.62235 7.0652 4.56258 6.97693 4.52177 6.87947C4.48097 6.782 4.45996 6.67731 4.45996 6.57155C4.45996 6.46579 4.48097 6.3611 4.52177 6.26363C4.56258 6.16617 4.62235 6.07789 4.69756 6.00401C4.77277 5.93012 4.8619 5.87211 4.95972 5.83339C5.05754 5.79467 5.16207 5.77603 5.26716 5.77855H10.0517C10.1568 5.77603 10.2614 5.79467 10.3592 5.83339C10.457 5.87211 10.5461 5.93012 10.6213 6.00401C10.6965 6.07789 10.7563 6.16617 10.7971 6.26363C10.8379 6.3611 10.8589 6.46579 10.8589 6.57155C10.8589 6.67731 10.8379 6.782 10.7971 6.87947C10.7563 6.97693 10.6965 7.0652 10.6213 7.13909C10.5461 7.21298 10.457 7.27099 10.3592 7.30971C10.2614 7.34843 10.1568 7.36707 10.0517 7.36455Z" fill="#82AEC9"/>
<path d="M10.0521 9.76787H3.66608C3.561 9.77039 3.45649 9.75174 3.35867 9.71303C3.26085 9.67431 3.17172 9.6163 3.09651 9.54241C3.0213 9.46852 2.96153 9.38025 2.92072 9.28279C2.87992 9.18532 2.85889 9.08063 2.85889 8.97487C2.85889 8.86911 2.87992 8.76442 2.92072 8.66695C2.96153 8.56949 3.0213 8.48121 3.09651 8.40733C3.17172 8.33344 3.26085 8.27543 3.35867 8.23671C3.45649 8.19799 3.561 8.17935 3.66608 8.18187H10.0521C10.1572 8.17935 10.2617 8.19799 10.3595 8.23671C10.4574 8.27543 10.5465 8.33344 10.6217 8.40733C10.6969 8.48121 10.7567 8.56949 10.7975 8.66695C10.8383 8.76442 10.8593 8.86911 10.8593 8.97487C10.8593 9.08063 10.8383 9.18532 10.7975 9.28279C10.7567 9.38025 10.6969 9.46852 10.6217 9.54241C10.5465 9.6163 10.4574 9.67431 10.3595 9.71303C10.2617 9.75174 10.1572 9.77039 10.0521 9.76787Z" fill="#82AEC9"/>
<path d="M20.4039 9.76787H12.4151C12.31 9.77039 12.2055 9.75174 12.1077 9.71303C12.0098 9.67431 11.9207 9.6163 11.8455 9.54241C11.7703 9.46852 11.7105 9.38025 11.6697 9.28279C11.6289 9.18532 11.6079 9.08063 11.6079 8.97487C11.6079 8.86911 11.6289 8.76442 11.6697 8.66695C11.7105 8.56949 11.7703 8.48121 11.8455 8.40733C11.9207 8.33344 12.0098 8.27543 12.1077 8.23671C12.2055 8.19799 12.31 8.17935 12.4151 8.18187H20.4039C20.509 8.17935 20.6135 8.19799 20.7113 8.23671C20.8091 8.27543 20.8983 8.33344 20.9735 8.40733C21.0487 8.48121 21.1085 8.56949 21.1493 8.66695C21.1901 8.76442 21.2111 8.86911 21.2111 8.97487C21.2111 9.08063 21.1901 9.18532 21.1493 9.28279C21.1085 9.38025 21.0487 9.46852 20.9735 9.54241C20.8983 9.6163 20.8091 9.67431 20.7113 9.71303C20.6135 9.75174 20.509 9.77039 20.4039 9.76787Z" fill="#82AEC9"/>
<path d="M10.0522 12.1712H5.26179C5.1567 12.1737 5.05219 12.1551 4.95437 12.1163C4.85656 12.0776 4.76742 12.0196 4.69221 11.9457C4.617 11.8718 4.55723 11.7836 4.51643 11.6861C4.47562 11.5886 4.45459 11.4839 4.45459 11.3782C4.45459 11.2724 4.47562 11.1677 4.51643 11.0703C4.55723 10.9728 4.617 10.8845 4.69221 10.8107C4.76742 10.7368 4.85656 10.6788 4.95437 10.64C5.05219 10.6013 5.1567 10.5827 5.26179 10.5852H10.0522C10.1573 10.5827 10.2618 10.6013 10.3596 10.64C10.4575 10.6788 10.5466 10.7368 10.6218 10.8107C10.697 10.8845 10.7568 10.9728 10.7976 11.0703C10.8384 11.1677 10.8594 11.2724 10.8594 11.3782C10.8594 11.4839 10.8384 11.5886 10.7976 11.6861C10.7568 11.7836 10.697 11.8718 10.6218 11.9457C10.5466 12.0196 10.4575 12.0776 10.3596 12.1163C10.2618 12.1551 10.1573 12.1737 10.0522 12.1712Z" fill="#82AEC9"/>
<path d="M20.4038 12.1712H17.9894C17.7836 12.1663 17.5879 12.0805 17.444 11.9324C17.3002 11.7842 17.2197 11.5853 17.2197 11.3782C17.2197 11.1711 17.3002 10.9722 17.444 10.824C17.5879 10.6758 17.7836 10.5901 17.9894 10.5852H20.4038C20.5089 10.5827 20.6134 10.6013 20.7113 10.64C20.8091 10.6788 20.8982 10.7368 20.9734 10.8107C21.0486 10.8845 21.1084 10.9728 21.1492 11.0703C21.19 11.1677 21.211 11.2724 21.211 11.3782C21.211 11.4839 21.19 11.5886 21.1492 11.6861C21.1084 11.7836 21.0486 11.8718 20.9734 11.9457C20.8982 12.0196 20.8091 12.0776 20.7113 12.1163C20.6134 12.1551 20.5089 12.1737 20.4038 12.1712Z" fill="#82AEC9"/>
<path d="M10.0513 14.5745H6.84528C6.7402 14.577 6.63566 14.5584 6.53784 14.5197C6.44003 14.4809 6.35089 14.4229 6.27568 14.3491C6.20047 14.2752 6.1407 14.1869 6.0999 14.0894C6.05909 13.992 6.03809 13.8873 6.03809 13.7815C6.03809 13.6758 6.05909 13.5711 6.0999 13.4736C6.1407 13.3761 6.20047 13.2879 6.27568 13.214C6.35089 13.1401 6.44003 13.0821 6.53784 13.0434C6.63566 13.0046 6.7402 12.986 6.84528 12.9885H10.0513C10.1563 12.986 10.2609 13.0046 10.3587 13.0434C10.4565 13.0821 10.5456 13.1401 10.6209 13.214C10.6961 13.2879 10.7558 13.3761 10.7966 13.4736C10.8374 13.5711 10.8585 13.6758 10.8585 13.7815C10.8585 13.8873 10.8374 13.992 10.7966 14.0894C10.7558 14.1869 10.6961 14.2752 10.6209 14.3491C10.5456 14.4229 10.4565 14.4809 10.3587 14.5197C10.2609 14.5584 10.1563 14.577 10.0513 14.5745Z" fill="#82AEC9"/>
<path d="M20.5522 14.5745H17.2052C16.9994 14.5696 16.8037 14.4839 16.6599 14.3357C16.5161 14.1875 16.4355 13.9886 16.4355 13.7815C16.4355 13.5744 16.5161 13.3755 16.6599 13.2273C16.8037 13.0792 16.9994 12.9934 17.2052 12.9885H20.5522C20.6573 12.986 20.7618 13.0046 20.8596 13.0434C20.9574 13.0821 21.0466 13.1401 21.1218 13.214C21.197 13.2879 21.2568 13.3761 21.2976 13.4736C21.3384 13.5711 21.3594 13.6758 21.3594 13.7815C21.3594 13.8873 21.3384 13.992 21.2976 14.0894C21.2568 14.1869 21.197 14.2752 21.1218 14.3491C21.0466 14.4229 20.9574 14.4809 20.8596 14.5197C20.7618 14.5584 20.6573 14.577 20.5522 14.5745Z" fill="#82AEC9"/>
<path d="M10.0521 16.9769H8.43366C8.32858 16.9794 8.22404 16.9607 8.12622 16.922C8.0284 16.8833 7.93927 16.8253 7.86406 16.7514C7.78885 16.6775 7.72911 16.5892 7.6883 16.4918C7.6475 16.3943 7.62646 16.2896 7.62646 16.1839C7.62646 16.0781 7.6475 15.9734 7.6883 15.8759C7.72911 15.7785 7.78885 15.6902 7.86406 15.6163C7.93927 15.5424 8.0284 15.4844 8.12622 15.4457C8.22404 15.407 8.32858 15.3883 8.43366 15.3909H10.0521C10.1572 15.3883 10.2617 15.407 10.3595 15.4457C10.4574 15.4844 10.5465 15.5424 10.6217 15.6163C10.6969 15.6902 10.7567 15.7785 10.7975 15.8759C10.8383 15.9734 10.8593 16.0781 10.8593 16.1839C10.8593 16.2896 10.8383 16.3943 10.7975 16.4918C10.7567 16.5892 10.6969 16.6775 10.6217 16.7514C10.5465 16.8253 10.4574 16.8833 10.3595 16.922C10.2617 16.9607 10.1572 16.9794 10.0521 16.9769Z" fill="#82AEC9"/>
<path d="M15.6282 16.9769H12.4141C12.309 16.9794 12.2045 16.9607 12.1067 16.922C12.0089 16.8833 11.9197 16.8253 11.8445 16.7514C11.7693 16.6775 11.7095 16.5892 11.6687 16.4918C11.6279 16.3943 11.6069 16.2896 11.6069 16.1839C11.6069 16.0781 11.6279 15.9734 11.6687 15.8759C11.7095 15.7785 11.7693 15.6902 11.8445 15.6163C11.9197 15.5424 12.0089 15.4844 12.1067 15.4457C12.2045 15.407 12.309 15.3883 12.4141 15.3909H15.6282C15.7332 15.3883 15.8378 15.407 15.9356 15.4457C16.0334 15.4844 16.1226 15.5424 16.1978 15.6163C16.273 15.6902 16.3327 15.7785 16.3735 15.8759C16.4143 15.9734 16.4354 16.0781 16.4354 16.1839C16.4354 16.2896 16.4143 16.3943 16.3735 16.4918C16.3327 16.5892 16.273 16.6775 16.1978 16.7514C16.1226 16.8253 16.0334 16.8833 15.9356 16.922C15.8378 16.9607 15.7332 16.9794 15.6282 16.9769Z" fill="#82AEC9"/>
<path d="M6.88207 2.37049C6.88207 2.49032 6.84674 2.60745 6.78058 2.70708C6.71441 2.80672 6.62036 2.88437 6.51033 2.93022C6.4003 2.97608 6.27923 2.98808 6.16242 2.9647C6.04561 2.94132 5.93832 2.88362 5.85411 2.79889C5.76989 2.71416 5.71254 2.60621 5.6893 2.48869C5.66607 2.37117 5.678 2.24935 5.72357 2.13865C5.76915 2.02794 5.84632 1.93332 5.94535 1.86675C6.04437 1.80018 6.1608 1.76465 6.27989 1.76465C6.4396 1.76465 6.59275 1.82848 6.70568 1.9421C6.81861 2.05572 6.88207 2.20981 6.88207 2.37049Z" fill="#1D365A"/>
<path d="M6.85912 15.9779C6.85912 16.0977 6.8238 16.2149 6.75763 16.3145C6.69146 16.4141 6.59741 16.4918 6.48738 16.5376C6.37735 16.5835 6.25628 16.5955 6.13947 16.5721C6.02266 16.5487 5.91537 16.491 5.83116 16.4063C5.74694 16.3216 5.68959 16.2136 5.66636 16.0961C5.64312 15.9786 5.65505 15.8568 5.70062 15.7461C5.7462 15.6354 5.8234 15.5407 5.92242 15.4742C6.02145 15.4076 6.13785 15.3721 6.25694 15.3721C6.41665 15.3721 6.56983 15.4359 6.68276 15.5495C6.79568 15.6631 6.85912 15.8172 6.85912 15.9779Z" fill="#1D365A"/>
<path d="M4.866 4.96218H4.06998C3.96543 4.96218 3.86516 4.92039 3.79123 4.84601C3.7173 4.77163 3.67578 4.67075 3.67578 4.56556C3.67578 4.46037 3.7173 4.35949 3.79123 4.28511C3.86516 4.21073 3.96543 4.16895 4.06998 4.16895H4.866C4.97055 4.16895 5.07082 4.21073 5.14475 4.28511C5.21868 4.35949 5.2602 4.46037 5.2602 4.56556C5.2602 4.67075 5.21868 4.77163 5.14475 4.84601C5.07082 4.92039 4.97055 4.96218 4.866 4.96218Z" fill="#1D365A"/>
<path d="M3.27108 7.36452H1.68131C1.57676 7.36452 1.47649 7.32274 1.40256 7.24836C1.32863 7.17398 1.28711 7.07309 1.28711 6.9679C1.28711 6.86272 1.32863 6.76184 1.40256 6.68746C1.47649 6.61308 1.57676 6.57129 1.68131 6.57129H3.27108C3.37563 6.57129 3.4759 6.61308 3.54983 6.68746C3.62376 6.76184 3.66531 6.86272 3.66531 6.9679C3.66531 7.07309 3.62376 7.17398 3.54983 7.24836C3.4759 7.32274 3.37563 7.36452 3.27108 7.36452Z" fill="#1D365A"/>
<path d="M3.28131 11.3616H0.89371C0.789162 11.3616 0.688917 11.3198 0.61499 11.2454C0.541062 11.171 0.499512 11.0702 0.499512 10.965C0.499512 10.8598 0.541062 10.7589 0.61499 10.6845C0.688917 10.6101 0.789162 10.5684 0.89371 10.5684H3.28131C3.38586 10.5684 3.48613 10.6101 3.56006 10.6845C3.63398 10.7589 3.67551 10.8598 3.67551 10.965C3.67551 11.0702 3.63398 11.171 3.56006 11.2454C3.48613 11.3198 3.38586 11.3616 3.28131 11.3616Z" fill="#1D365A"/>
<path d="M4.86909 13.7561H4.06949C3.96494 13.7561 3.86467 13.7143 3.79074 13.64C3.71682 13.5656 3.67529 13.4647 3.67529 13.3595C3.67529 13.2543 3.71682 13.1534 3.79074 13.0791C3.86467 13.0047 3.96494 12.9629 4.06949 12.9629H4.86909C4.97364 12.9629 5.07391 13.0047 5.14784 13.0791C5.22177 13.1534 5.26329 13.2543 5.26329 13.3595C5.26329 13.4647 5.22177 13.5656 5.14784 13.64C5.07391 13.7143 4.97364 13.7561 4.86909 13.7561Z" fill="#1D365A"/>
<path d="M29.611 8.45064C29.8251 8.71852 29.94 9.05289 29.9361 9.39657C29.9421 9.69609 29.8603 9.99077 29.701 10.2439C29.5338 10.4964 29.2976 10.6951 29.021 10.8159C28.6894 10.9607 28.3306 11.0311 27.9693 11.0222H25.395V5.01736H27.8574C28.2165 5.00857 28.5734 5.07594 28.905 5.21511C29.1763 5.32886 29.4083 5.52045 29.5721 5.766C29.7242 6.0046 29.803 6.28302 29.7986 6.56644C29.8096 6.88255 29.7116 7.19275 29.521 7.44435C29.3309 7.68279 29.0728 7.85696 28.7814 7.94344C29.1111 8.00253 29.407 8.18343 29.611 8.45064ZM26.5917 7.4957H27.6868C27.922 7.5111 28.1551 7.44251 28.3449 7.30201C28.4231 7.23351 28.4846 7.14784 28.5247 7.05162C28.5648 6.95539 28.5823 6.85119 28.5759 6.74707C28.582 6.64231 28.5644 6.53753 28.5243 6.44063C28.4843 6.34372 28.423 6.25721 28.3449 6.18761C28.1563 6.04422 27.9227 5.97388 27.6868 5.98942H26.5917V7.4957ZM28.4775 9.83801C28.5598 9.76558 28.6245 9.67515 28.6667 9.57365C28.709 9.47215 28.7275 9.36226 28.721 9.25243C28.7267 9.13835 28.7066 9.02444 28.6622 8.91933C28.6177 8.81421 28.5501 8.72064 28.4645 8.64568C28.2675 8.49085 28.0215 8.41294 27.7719 8.42632H26.5917V10.0439H27.7978C28.0417 10.0589 28.2829 9.98569 28.4779 9.83756" fill="#AB2346"/>
<path d="M32.6835 6.40211C32.943 6.25567 33.2366 6.18136 33.5342 6.1868V7.453H33.2176C33.0578 7.42698 32.8941 7.44043 32.7406 7.4922C32.5871 7.54397 32.4484 7.63251 32.3365 7.75019C32.2245 7.86786 32.1427 8.01116 32.098 8.16772C32.0534 8.32428 32.0472 8.48942 32.08 8.64892V11.0237H30.8833V6.25572H32.0787V6.9958C32.2264 6.74968 32.434 6.54539 32.6817 6.40211" fill="#AB2346"/>
<path d="M35.3034 10.7942C34.9413 10.5935 34.6433 10.2936 34.4438 9.92933C34.2296 9.53389 34.1216 9.08908 34.1304 8.63881C34.1212 8.18746 34.2319 7.7418 34.451 7.34784C34.6569 6.98261 34.9606 6.68294 35.3276 6.48299C35.7106 6.28244 36.136 6.17773 36.5677 6.17773C36.9995 6.17773 37.4248 6.28244 37.8078 6.48299C38.1748 6.68298 38.4785 6.98264 38.6844 7.34784C38.9037 7.74175 39.0146 8.18741 39.0055 8.63881C39.0146 9.09111 38.9008 9.53733 38.6764 9.92933C38.4646 10.2945 38.1568 10.5937 37.7868 10.7942C37.4013 11.0009 36.97 11.1059 36.5332 11.0996C36.1034 11.1062 35.6792 11.001 35.3016 10.7942M37.1448 9.89059C37.3403 9.77968 37.4993 9.61372 37.6023 9.41312C37.7226 9.17338 37.7814 8.90722 37.7734 8.63881C37.7858 8.44963 37.7608 8.25984 37.7 8.08041C37.6391 7.90097 37.5436 7.73543 37.4188 7.59333C37.3072 7.47519 37.1724 7.38169 37.0229 7.3188C36.8735 7.25591 36.7127 7.22499 36.5507 7.22802C36.3899 7.22448 36.2302 7.25521 36.0821 7.31817C35.9339 7.38112 35.8007 7.4749 35.6911 7.59333C35.4441 7.88277 35.3197 8.25812 35.3446 8.63881C35.3196 9.01805 35.4406 9.39243 35.6826 9.68429C35.79 9.8031 35.9215 9.89727 36.0683 9.96038C36.2151 10.0235 36.3737 10.0541 36.5332 10.05C36.7473 10.0507 36.9579 9.99553 37.1448 9.89059Z" fill="#AB2346"/>
<path d="M39.9121 7.33993C40.0865 6.98552 40.3562 6.68744 40.6906 6.47958C41.0218 6.27785 41.4026 6.17346 41.7897 6.17823C42.1121 6.17087 42.4312 6.2449 42.7178 6.39355C42.9676 6.52368 43.1852 6.70836 43.3549 6.93408V6.25571H44.561V11.0237H43.3549V10.3259C43.1897 10.5595 42.9713 10.7499 42.7178 10.8809C42.4287 11.0316 42.1067 11.107 41.7812 11.1002C41.3957 11.104 41.0172 10.9965 40.6906 10.7903C40.3562 10.5767 40.0869 10.2745 39.9121 9.91691C39.715 9.5145 39.6167 9.07041 39.6255 8.62189C39.617 8.17744 39.7153 7.73795 39.9121 7.33993ZM43.1834 7.88586C43.0773 7.68495 42.9172 7.5181 42.7214 7.40434C42.5318 7.29348 42.3162 7.23549 42.0968 7.23632C41.8766 7.2339 41.6599 7.2924 41.4704 7.40543C41.2809 7.51847 41.1259 7.6817 41.0224 7.87731C40.9008 8.10603 40.8403 8.36259 40.8469 8.62189C40.8409 8.88385 40.9013 9.14302 41.0224 9.37503C41.1287 9.57941 41.2884 9.75073 41.4844 9.87051C41.6686 9.9834 41.8802 10.0429 42.0959 10.0426C42.3152 10.0435 42.5308 9.98566 42.7205 9.87502C42.9163 9.76102 43.0764 9.59404 43.1825 9.39305C43.295 9.15819 43.3534 8.90084 43.3534 8.64013C43.3534 8.37942 43.295 8.12207 43.1825 7.88721" fill="#AB2346"/>
<path d="M45.6753 7.33991C45.8479 6.98644 46.1169 6.68958 46.4507 6.48392C46.7846 6.27825 47.1696 6.17224 47.561 6.17822C47.8662 6.17764 48.1674 6.2468 48.4421 6.38047C48.705 6.50193 48.9341 6.68664 49.1092 6.9183V4.65527H50.3238V11.0227H49.1092V10.3173C48.9544 10.5586 48.7391 10.7546 48.4851 10.8854C48.1969 11.0336 47.8766 11.1076 47.553 11.1007C47.1662 11.1042 46.7865 10.9966 46.4583 10.7908C46.1221 10.5781 45.8512 10.2758 45.6758 9.91735C45.4787 9.51495 45.3804 9.07084 45.3892 8.62232C45.3807 8.17788 45.479 7.73793 45.6758 7.33991M48.9471 7.8863C48.8411 7.68545 48.6812 7.5186 48.4855 7.40478C48.296 7.294 48.0806 7.23601 47.8614 7.23676C47.6411 7.23434 47.4245 7.29284 47.235 7.40587C47.0455 7.51891 46.8905 7.68213 46.7869 7.87774C46.6654 8.10647 46.6049 8.36303 46.6114 8.62232C46.6055 8.88428 46.6659 9.14345 46.7869 9.37547C46.8933 9.57985 47.053 9.75117 47.249 9.87095C47.4332 9.98386 47.6448 10.0434 47.8605 10.043C48.0796 10.0439 48.2951 9.98602 48.4846 9.87546C48.6803 9.7614 48.8402 9.59442 48.9462 9.39349C49.0588 9.15867 49.1173 8.9013 49.1173 8.64057C49.1173 8.37984 49.0588 8.12247 48.9462 7.88765" fill="#AB2346"/>
<path d="M52.2185 10.8878C51.9304 10.7626 51.6788 10.5656 51.4874 10.3153C51.3116 10.0844 51.2088 9.80571 51.1924 9.51533H52.3985C52.4095 9.60586 52.4391 9.69311 52.4853 9.77157C52.5316 9.85003 52.5935 9.918 52.6671 9.97117C52.8367 10.0956 53.0429 10.1591 53.2527 10.1513C53.4408 10.1623 53.6276 10.1141 53.7872 10.0135C53.8463 9.97586 53.895 9.92377 53.9286 9.8621C53.9623 9.80042 53.9799 9.73118 53.9798 9.66082C53.9802 9.58561 53.958 9.51204 53.916 9.4498C53.874 9.38756 53.8143 9.33958 53.7447 9.31217C53.5032 9.20524 53.2527 9.12022 52.9962 9.05813C52.7008 8.99025 52.4107 8.90113 52.1281 8.79146C51.9032 8.70003 51.7036 8.55541 51.5461 8.36985C51.3745 8.15318 51.2878 7.88073 51.3025 7.60409C51.3013 7.34594 51.3805 7.0939 51.529 6.88339C51.694 6.65406 51.9191 6.47535 52.1791 6.36718C52.4944 6.23428 52.834 6.16966 53.1757 6.17754C53.6623 6.15221 54.1417 6.30341 54.5269 6.60366C54.6941 6.74548 54.8299 6.92094 54.9257 7.11877C55.0215 7.31659 55.075 7.53239 55.0829 7.75229H53.9368C53.9312 7.66482 53.9074 7.57951 53.8669 7.50191C53.8264 7.42431 53.7701 7.35614 53.7017 7.30185C53.5445 7.20129 53.3636 7.14419 53.1774 7.13629C52.9913 7.12838 52.8063 7.16995 52.6411 7.2568C52.5856 7.29271 52.5402 7.34252 52.5096 7.40134C52.4789 7.46016 52.4639 7.52599 52.4661 7.59238C52.4656 7.6704 52.4881 7.74681 52.5307 7.81199C52.5734 7.87716 52.6342 7.92817 52.7056 7.95859C52.9441 8.0692 53.1935 8.15421 53.4497 8.2122C53.7378 8.28108 54.0207 8.37034 54.2963 8.47931C54.5201 8.5721 54.7181 8.71817 54.8734 8.90497C55.0441 9.121 55.1335 9.39077 55.1259 9.66667C55.1291 9.93112 55.0499 10.1899 54.8993 10.4068C54.7348 10.6355 54.5095 10.813 54.2493 10.9189C53.9362 11.0481 53.6 11.111 53.2617 11.1036C52.9028 11.1095 52.5468 11.0376 52.218 10.8928" fill="#AB2346"/>
<path d="M57.9256 6.39745C58.2118 6.24733 58.5309 6.1719 58.8537 6.17809C59.2408 6.1732 59.6215 6.27743 59.9527 6.47898C60.2862 6.68603 60.5558 6.98237 60.7313 7.33482C60.9289 7.73401 61.0272 8.17546 61.0178 8.62129C61.0265 9.0698 60.9283 9.51387 60.7313 9.91631C60.5563 10.2738 60.287 10.576 59.9527 10.7897C59.6234 10.9967 59.2419 11.1043 58.8537 11.0996C58.5342 11.1063 58.2182 11.0323 57.9345 10.8843C57.6832 10.7529 57.463 10.5686 57.2889 10.3438V13.2951H56.0913V6.25556H57.2889V6.94384C57.4561 6.71431 57.6738 6.52722 57.9256 6.39745ZM59.6192 7.87716C59.5124 7.67796 59.3526 7.51262 59.1576 7.39969C58.9688 7.29126 58.755 7.23485 58.5376 7.23618C58.3224 7.23567 58.1111 7.29373 57.926 7.40419C57.7307 7.52052 57.571 7.68867 57.4644 7.89022C57.3491 8.12272 57.2891 8.37901 57.2891 8.63886C57.2891 8.8987 57.3491 9.15499 57.4644 9.38749C57.5711 9.58901 57.7308 9.75714 57.926 9.87352C58.1129 9.9839 58.3258 10.0417 58.5424 10.0409C58.7591 10.0401 58.9716 9.98076 59.1576 9.86902C59.3525 9.75019 59.5119 9.58074 59.6192 9.37848C59.7411 9.14535 59.8016 8.88464 59.7947 8.62129C59.8013 8.36199 59.7408 8.10586 59.6192 7.87716Z" fill="#AB2346"/>
<path d="M66.2431 9.00022H62.7792C62.7894 9.30703 62.9178 9.59783 63.1374 9.81101C63.3491 10.0066 63.6281 10.1116 63.9155 10.1038C64.1131 10.1156 64.3097 10.0668 64.4792 9.96377C64.6487 9.86073 64.7831 9.70835 64.8646 9.52679H66.1562C66.0235 9.9802 65.7473 10.3776 65.3696 10.6588C64.9559 10.9625 64.4532 11.1183 63.9414 11.1015C63.513 11.1084 63.0901 11.0032 62.7143 10.7961C62.3553 10.5957 62.0614 10.2954 61.8677 9.93128C61.6594 9.53395 61.5549 9.08987 61.5641 8.64076C61.5542 8.18919 61.6572 7.74235 61.8636 7.34124C62.0536 6.9783 62.3449 6.67923 62.7017 6.48089C63.0803 6.28442 63.4999 6.18119 63.9258 6.1797C64.3518 6.17822 64.7721 6.27851 65.152 6.47233C65.5029 6.66203 65.7912 6.95052 65.9816 7.3025C66.1834 7.68202 66.285 8.10729 66.2766 8.53761C66.2778 8.69309 66.2664 8.8484 66.2426 9.00202M65.0365 8.19122C65.039 8.0501 65.0104 7.91016 64.9527 7.78149C64.8951 7.65282 64.8098 7.53861 64.703 7.44709C64.4811 7.25873 64.1981 7.15915 63.9079 7.16736C63.6334 7.15895 63.3659 7.25553 63.1593 7.43763C62.9484 7.63464 62.8161 7.90224 62.7872 8.19032L65.0365 8.19122Z" fill="#AB2346"/>
<path d="M67.2709 7.34331C67.4608 6.9832 67.7485 6.68481 68.1005 6.48296C68.4713 6.27482 68.8905 6.16943 69.3151 6.17756C69.8366 6.15713 70.3499 6.31319 70.7728 6.6208C71.1675 6.93131 71.4414 7.37125 71.5469 7.86402H70.2553C70.1948 7.66871 70.0732 7.49826 69.9087 7.37799C69.7311 7.25583 69.5193 7.1941 69.3043 7.20187C69.1492 7.19545 68.9948 7.22602 68.8537 7.29107C68.7125 7.35612 68.5887 7.45381 68.4922 7.57619C68.2964 7.89412 68.1927 8.26071 68.1927 8.63473C68.1927 9.00874 68.2964 9.37533 68.4922 9.69327C68.5887 9.81564 68.7125 9.91333 68.8537 9.97838C68.9948 10.0434 69.1492 10.074 69.3043 10.0676C69.5133 10.0856 69.722 10.0303 69.895 9.9111C70.068 9.79188 70.1947 9.61607 70.2535 9.41354H71.5451C71.4324 9.90095 71.1577 10.3351 70.7665 10.6442C70.3478 10.9584 69.8349 11.1192 69.3128 11.1C68.8882 11.1081 68.4691 11.0028 68.0982 10.7946C67.7463 10.5927 67.4586 10.2943 67.2686 9.93426C67.0717 9.53132 66.9692 9.08827 66.9692 8.63923C66.9692 8.19019 67.0717 7.74714 67.2686 7.34421" fill="#AB2346"/>
<path d="M73.9029 7.24461V9.55087C73.897 9.61387 73.9043 9.6774 73.9242 9.73742C73.944 9.79745 73.9761 9.85265 74.0184 9.89951C74.1306 9.982 74.2691 10.0202 74.4074 10.0067H74.9635V11.022H74.2109C73.2018 11.022 72.6972 10.5288 72.6972 9.54231V7.24506H72.1309V6.25408H72.6954V5.07617H73.9011V6.25498H74.9617V7.24596L73.9029 7.24461Z" fill="#AB2346"/>
<path d="M77.745 6.40212C78.0045 6.25565 78.2981 6.18134 78.5956 6.1868V7.453H78.2791C78.1192 7.42687 77.9555 7.44024 77.8019 7.49198C77.6484 7.54371 77.5096 7.63225 77.3977 7.74995C77.2857 7.86766 77.2039 8.011 77.1592 8.16761C77.1146 8.32422 77.1085 8.48941 77.1415 8.64892V11.0237H75.9438V6.25572H77.1415V6.9958C77.2892 6.74962 77.4971 6.54531 77.745 6.40212Z" fill="#AB2346"/>
<path d="M83.8956 6.25684V11.0239H82.6895V10.4216C82.5318 10.6314 82.3247 10.7984 82.0869 10.9077C81.8339 11.0262 81.5578 11.0863 81.2788 11.0838C80.9358 11.091 80.5967 11.0096 80.2939 10.8473C80.0064 10.6871 79.7726 10.4445 79.6223 10.1505C79.4523 9.81072 79.3686 9.43388 79.3788 9.05364V6.25684H80.5764V8.88157C80.5554 9.1982 80.6564 9.5108 80.8584 9.75453C80.9575 9.85784 81.0775 9.93856 81.2103 9.99124C81.343 10.0439 81.4855 10.0673 81.628 10.0599C81.7719 10.0679 81.9157 10.0448 82.05 9.9921C82.1842 9.93942 82.3056 9.85841 82.4061 9.75453C82.6082 9.51082 82.7092 9.19821 82.6882 8.88157V6.25684H83.8956Z" fill="#AB2346"/>
<path d="M92.4364 6.7252C92.6216 6.92622 92.7645 7.16292 92.8564 7.42103C92.9483 7.67914 92.9872 7.9533 92.9709 8.22697V11.0233H91.7738V8.39003C91.7948 8.07852 91.6933 7.77116 91.4912 7.53419C91.3907 7.43328 91.2703 7.35472 91.1377 7.30359C91.0052 7.25246 90.8634 7.22989 90.7216 7.23735C90.5792 7.23021 90.4369 7.2529 90.3036 7.304C90.1704 7.35509 90.0491 7.43348 89.9475 7.53419C89.8462 7.6509 89.7688 7.78656 89.7196 7.93341C89.6704 8.08027 89.6506 8.23543 89.6611 8.39003V11.0233H88.4639V8.39003C88.4848 8.07861 88.3835 7.77135 88.1818 7.53419C88.0813 7.43331 87.9609 7.35476 87.8283 7.30363C87.6958 7.2525 87.554 7.22992 87.4122 7.23735C87.2685 7.22961 87.1247 7.252 86.99 7.3031C86.8553 7.35419 86.7326 7.43289 86.6297 7.53419C86.5284 7.65092 86.4509 7.78659 86.4018 7.93344C86.3526 8.08028 86.3327 8.23544 86.3431 8.39003V11.0233H85.1455V6.25629H86.3431V6.83285C86.5006 6.62933 86.7045 6.46707 86.9377 6.35989C87.1882 6.24336 87.4613 6.18457 87.7373 6.18782C88.0825 6.18174 88.4236 6.26306 88.7294 6.4243C89.0157 6.57775 89.2507 6.81278 89.405 7.09997C89.5632 6.82068 89.7958 6.59136 90.0765 6.43781C90.451 6.23356 90.8794 6.15158 91.3023 6.20323C91.7252 6.25488 92.1217 6.43762 92.4368 6.7261" fill="#AB2346"/>
</svg>
