<svg width="13" height="13" viewBox="0 0 13 13" fill="none" xmlns="http://www.w3.org/2000/svg">
<path d="M8.85151 0.850586H3.65354C2.08664 0.850586 0.816406 2.21853 0.816406 3.90597V9.50378C0.816406 11.1912 2.08664 12.5592 3.65354 12.5592H8.85151C10.4184 12.5592 11.6887 11.1912 11.6887 9.50378V3.90597C11.6887 2.21853 10.4184 0.850586 8.85151 0.850586Z" stroke="#0A2804" stroke-width="0.777675" stroke-linecap="round" stroke-linejoin="round"/>
<path d="M6.25228 9.77076C7.8249 9.77076 9.09977 8.39782 9.09977 6.70423C9.09977 5.01063 7.8249 3.6377 6.25228 3.6377C4.67965 3.6377 3.40479 5.01063 3.40479 6.70423C3.40479 8.39782 4.67965 9.77076 6.25228 9.77076Z" stroke="#0A2804" stroke-width="0.777675" stroke-linecap="round" stroke-linejoin="round"/>
<path d="M9.35896 3.07904C9.50193 3.07904 9.61782 2.95422 9.61782 2.80026C9.61782 2.6463 9.50193 2.52148 9.35896 2.52148C9.21599 2.52148 9.1001 2.6463 9.1001 2.80026C9.1001 2.95422 9.21599 3.07904 9.35896 3.07904Z" stroke="#0A2804" stroke-width="0.777675" stroke-linecap="round" stroke-linejoin="round"/>
</svg>
