<svg width="93" height="17" viewBox="0 0 93 17" fill="none" xmlns="http://www.w3.org/2000/svg">
<path d="M15.6282 2.55987H12.4141C12.309 2.56239 12.2045 2.54374 12.1067 2.50502C12.0089 2.4663 11.9197 2.40829 11.8445 2.33441C11.7693 2.26052 11.7095 2.17225 11.6687 2.07478C11.6279 1.97731 11.6069 1.87262 11.6069 1.76686C11.6069 1.6611 11.6279 1.55641 11.6687 1.45895C11.7095 1.36148 11.7693 1.27321 11.8445 1.19932C11.9197 1.12544 12.0089 1.06743 12.1067 1.02871C12.2045 0.989987 12.309 0.971338 12.4141 0.973858H15.6282C15.7332 0.971338 15.8378 0.989987 15.9356 1.02871C16.0334 1.06743 16.1226 1.12544 16.1978 1.19932C16.273 1.27321 16.3327 1.36148 16.3735 1.45895C16.4143 1.55641 16.4354 1.6611 16.4354 1.76686C16.4354 1.87262 16.4143 1.97731 16.3735 2.07478C16.3327 2.17225 16.273 2.26052 16.1978 2.33441C16.1226 2.40829 16.0334 2.4663 15.9356 2.50502C15.8378 2.54374 15.7332 2.56239 15.6282 2.55987Z" fill="#AB2346"/>
<path d="M17.2238 4.96319H12.4146C12.3095 4.96571 12.205 4.94706 12.1072 4.90834C12.0094 4.86962 11.9202 4.81161 11.845 4.73773C11.7698 4.66384 11.71 4.57557 11.6692 4.4781C11.6284 4.38063 11.6074 4.27594 11.6074 4.17018C11.6074 4.06442 11.6284 3.95973 11.6692 3.86227C11.71 3.7648 11.7698 3.67653 11.845 3.60264C11.9202 3.52876 12.0094 3.47075 12.1072 3.43203C12.205 3.39331 12.3095 3.37466 12.4146 3.37718H17.2238C17.3289 3.37466 17.4334 3.39331 17.5312 3.43203C17.6291 3.47075 17.7182 3.52876 17.7934 3.60264C17.8686 3.67653 17.9284 3.7648 17.9692 3.86227C18.01 3.95973 18.031 4.06442 18.031 4.17018C18.031 4.27594 18.01 4.38063 17.9692 4.4781C17.9284 4.57557 17.8686 4.66384 17.7934 4.73773C17.7182 4.81161 17.6291 4.86962 17.5312 4.90834C17.4334 4.94706 17.3289 4.96571 17.2238 4.96319Z" fill="#AB2346"/>
<path d="M18.8073 7.36553H12.4136C12.2079 7.36059 12.0122 7.27488 11.8684 7.1267C11.7245 6.97852 11.644 6.77963 11.644 6.57253C11.644 6.36542 11.7245 6.16653 11.8684 6.01835C12.0122 5.87017 12.2079 5.78446 12.4136 5.77952H18.8073C18.9124 5.777 19.0169 5.79565 19.1147 5.83437C19.2125 5.87309 19.3017 5.9311 19.3769 6.00498C19.4521 6.07887 19.5118 6.16714 19.5526 6.26461C19.5934 6.36208 19.6145 6.46677 19.6145 6.57253C19.6145 6.67829 19.5934 6.78298 19.5526 6.88044C19.5118 6.97791 19.4521 7.06618 19.3769 7.14007C19.3017 7.21395 19.2125 7.27197 19.1147 7.31069C19.0169 7.3494 18.9124 7.36805 18.8073 7.36553Z" fill="#AB2346"/>
<path d="M15.6277 12.1722H12.4136C12.3085 12.1747 12.204 12.156 12.1062 12.1173C12.0084 12.0786 11.9192 12.0206 11.844 11.9467C11.7688 11.8728 11.7091 11.7845 11.6683 11.6871C11.6275 11.5896 11.6064 11.4849 11.6064 11.3792C11.6064 11.2734 11.6275 11.1687 11.6683 11.0713C11.7091 10.9738 11.7688 10.8855 11.844 10.8116C11.9192 10.7377 12.0084 10.6797 12.1062 10.641C12.204 10.6023 12.3085 10.5836 12.4136 10.5862H15.6277C15.7328 10.5836 15.8373 10.6023 15.9351 10.641C16.0329 10.6797 16.1221 10.7377 16.1973 10.8116C16.2725 10.8855 16.3322 10.9738 16.373 11.0713C16.4138 11.1687 16.4349 11.2734 16.4349 11.3792C16.4349 11.4849 16.4138 11.5896 16.373 11.6871C16.3322 11.7845 16.2725 11.8728 16.1973 11.9467C16.1221 12.0206 16.0329 12.0786 15.9351 12.1173C15.8373 12.156 15.7328 12.1747 15.6277 12.1722Z" fill="#AB2346"/>
<path d="M14.8308 14.5755H12.4132C12.3081 14.578 12.2036 14.5594 12.1057 14.5206C12.0079 14.4819 11.9188 14.4239 11.8436 14.35C11.7684 14.2761 11.7086 14.1879 11.6678 14.0904C11.627 13.9929 11.606 13.8882 11.606 13.7825C11.606 13.6767 11.627 13.572 11.6678 13.4746C11.7086 13.3771 11.7684 13.2888 11.8436 13.2149C11.9188 13.1411 12.0079 13.0831 12.1057 13.0443C12.2036 13.0056 12.3081 12.987 12.4132 12.9895H14.8308C14.9358 12.987 15.0404 13.0056 15.1382 13.0443C15.236 13.0831 15.3251 13.1411 15.4003 13.2149C15.4755 13.2888 15.5353 13.3771 15.5761 13.4746C15.6169 13.572 15.6379 13.6767 15.6379 13.7825C15.6379 13.8882 15.6169 13.9929 15.5761 14.0904C15.5353 14.1879 15.4755 14.2761 15.4003 14.35C15.3251 14.4239 15.236 14.4819 15.1382 14.5206C15.0404 14.5594 14.9358 14.578 14.8308 14.5755Z" fill="#AB2346"/>
<path d="M10.0521 2.55987H8.43366C8.32858 2.56239 8.22404 2.54374 8.12622 2.50502C8.0284 2.4663 7.93927 2.40829 7.86406 2.33441C7.78885 2.26052 7.72911 2.17225 7.6883 2.07478C7.6475 1.97731 7.62646 1.87262 7.62646 1.76686C7.62646 1.6611 7.6475 1.55641 7.6883 1.45895C7.72911 1.36148 7.78885 1.27321 7.86406 1.19932C7.93927 1.12544 8.0284 1.06743 8.12622 1.02871C8.22404 0.989987 8.32858 0.971338 8.43366 0.973858H10.0521C10.1572 0.971338 10.2617 0.989987 10.3595 1.02871C10.4574 1.06743 10.5465 1.12544 10.6217 1.19932C10.6969 1.27321 10.7567 1.36148 10.7975 1.45895C10.8383 1.55641 10.8593 1.6611 10.8593 1.76686C10.8593 1.87262 10.8383 1.97731 10.7975 2.07478C10.7567 2.17225 10.6969 2.26052 10.6217 2.33441C10.5465 2.40829 10.4574 2.4663 10.3595 2.50502C10.2617 2.54374 10.1572 2.56239 10.0521 2.55987Z" fill="#82AEC9"/>
<path d="M10.0518 4.96319H6.85114C6.74606 4.96571 6.64155 4.94706 6.54373 4.90834C6.44591 4.86962 6.35678 4.81161 6.28157 4.73773C6.20636 4.66384 6.14659 4.57557 6.10578 4.4781C6.06498 4.38063 6.04395 4.27594 6.04395 4.17018C6.04395 4.06442 6.06498 3.95973 6.10578 3.86227C6.14659 3.7648 6.20636 3.67653 6.28157 3.60264C6.35678 3.52876 6.44591 3.47075 6.54373 3.43203C6.64155 3.39331 6.74606 3.37466 6.85114 3.37718H10.0518C10.1568 3.37466 10.2614 3.39331 10.3592 3.43203C10.457 3.47075 10.5462 3.52876 10.6214 3.60264C10.6966 3.67653 10.7563 3.7648 10.7971 3.86227C10.838 3.95973 10.859 4.06442 10.859 4.17018C10.859 4.27594 10.838 4.38063 10.7971 4.4781C10.7563 4.57557 10.6966 4.66384 10.6214 4.73773C10.5462 4.81161 10.457 4.86962 10.3592 4.90834C10.2614 4.94706 10.1568 4.96571 10.0518 4.96319Z" fill="#82AEC9"/>
<path d="M10.0512 7.36553H5.26667C5.16158 7.36805 5.05705 7.3494 4.95923 7.31069C4.86141 7.27197 4.77228 7.21395 4.69707 7.14007C4.62186 7.06618 4.56209 6.97791 4.52128 6.88044C4.48048 6.78298 4.45947 6.67829 4.45947 6.57253C4.45947 6.46677 4.48048 6.36208 4.52128 6.26461C4.56209 6.16714 4.62186 6.07887 4.69707 6.00498C4.77228 5.9311 4.86141 5.87309 4.95923 5.83437C5.05705 5.79565 5.16158 5.777 5.26667 5.77952H10.0512C10.1563 5.777 10.2609 5.79565 10.3587 5.83437C10.4565 5.87309 10.5456 5.9311 10.6208 6.00498C10.6961 6.07887 10.7558 6.16714 10.7966 6.26461C10.8374 6.36208 10.8584 6.46677 10.8584 6.57253C10.8584 6.67829 10.8374 6.78298 10.7966 6.88044C10.7558 6.97791 10.6961 7.06618 10.6208 7.14007C10.5456 7.21395 10.4565 7.27197 10.3587 7.31069C10.2609 7.3494 10.1563 7.36805 10.0512 7.36553Z" fill="#82AEC9"/>
<path d="M10.0516 9.76885H3.6656C3.56051 9.77137 3.456 9.75272 3.35818 9.714C3.26037 9.67528 3.17123 9.61727 3.09602 9.54339C3.02081 9.4695 2.96104 9.38123 2.92024 9.28376C2.87943 9.1863 2.8584 9.08161 2.8584 8.97585C2.8584 8.87009 2.87943 8.7654 2.92024 8.66793C2.96104 8.57046 3.02081 8.48219 3.09602 8.4083C3.17123 8.33442 3.26037 8.27641 3.35818 8.23769C3.456 8.19897 3.56051 8.18032 3.6656 8.18284H10.0516C10.1567 8.18032 10.2612 8.19897 10.359 8.23769C10.4569 8.27641 10.546 8.33442 10.6212 8.4083C10.6964 8.48219 10.7562 8.57046 10.797 8.66793C10.8378 8.7654 10.8588 8.87009 10.8588 8.97585C10.8588 9.08161 10.8378 9.1863 10.797 9.28376C10.7562 9.38123 10.6964 9.4695 10.6212 9.54339C10.546 9.61727 10.4569 9.67528 10.359 9.714C10.2612 9.75272 10.1567 9.77137 10.0516 9.76885Z" fill="#82AEC9"/>
<path d="M20.4034 9.76885H12.4146C12.3095 9.77137 12.205 9.75272 12.1072 9.714C12.0094 9.67528 11.9202 9.61727 11.845 9.54339C11.7698 9.4695 11.71 9.38123 11.6692 9.28376C11.6284 9.1863 11.6074 9.08161 11.6074 8.97585C11.6074 8.87009 11.6284 8.7654 11.6692 8.66793C11.71 8.57046 11.7698 8.48219 11.845 8.4083C11.9202 8.33442 12.0094 8.27641 12.1072 8.23769C12.205 8.19897 12.3095 8.18032 12.4146 8.18284H20.4034C20.5085 8.18032 20.613 8.19897 20.7108 8.23769C20.8086 8.27641 20.8978 8.33442 20.973 8.4083C21.0482 8.48219 21.108 8.57046 21.1488 8.66793C21.1896 8.7654 21.2106 8.87009 21.2106 8.97585C21.2106 9.08161 21.1896 9.1863 21.1488 9.28376C21.108 9.38123 21.0482 9.4695 20.973 9.54339C20.8978 9.61727 20.8086 9.67528 20.7108 9.714C20.613 9.75272 20.5085 9.77137 20.4034 9.76885Z" fill="#82AEC9"/>
<path d="M10.0517 12.1722H5.2613C5.15621 12.1747 5.0517 12.156 4.95389 12.1173C4.85607 12.0786 4.76693 12.0206 4.69172 11.9467C4.61652 11.8728 4.55674 11.7845 4.51594 11.6871C4.47514 11.5896 4.4541 11.4849 4.4541 11.3792C4.4541 11.2734 4.47514 11.1687 4.51594 11.0713C4.55674 10.9738 4.61652 10.8855 4.69172 10.8116C4.76693 10.7377 4.85607 10.6797 4.95389 10.641C5.0517 10.6023 5.15621 10.5836 5.2613 10.5862H10.0517C10.1568 10.5836 10.2613 10.6023 10.3592 10.641C10.457 10.6797 10.5461 10.7377 10.6213 10.8116C10.6965 10.8855 10.7563 10.9738 10.7971 11.0713C10.8379 11.1687 10.8589 11.2734 10.8589 11.3792C10.8589 11.4849 10.8379 11.5896 10.7971 11.6871C10.7563 11.7845 10.6965 11.8728 10.6213 11.9467C10.5461 12.0206 10.457 12.0786 10.3592 12.1173C10.2613 12.156 10.1568 12.1747 10.0517 12.1722Z" fill="#82AEC9"/>
<path d="M20.4033 12.1722H17.9889C17.7831 12.1672 17.5874 12.0815 17.4436 11.9333C17.2997 11.7852 17.2192 11.5863 17.2192 11.3792C17.2192 11.1721 17.2997 10.9732 17.4436 10.825C17.5874 10.6768 17.7831 10.5911 17.9889 10.5862H20.4033C20.5084 10.5836 20.6129 10.6023 20.7108 10.641C20.8086 10.6797 20.8977 10.7377 20.9729 10.8116C21.0481 10.8855 21.1079 10.9738 21.1487 11.0713C21.1895 11.1687 21.2105 11.2734 21.2105 11.3792C21.2105 11.4849 21.1895 11.5896 21.1487 11.6871C21.1079 11.7845 21.0481 11.8728 20.9729 11.9467C20.8977 12.0206 20.8086 12.0786 20.7108 12.1173C20.6129 12.156 20.5084 12.1747 20.4033 12.1722Z" fill="#82AEC9"/>
<path d="M10.0513 14.5755H6.84528C6.7402 14.578 6.63566 14.5594 6.53784 14.5206C6.44003 14.4819 6.35089 14.4239 6.27568 14.35C6.20047 14.2761 6.1407 14.1879 6.0999 14.0904C6.05909 13.9929 6.03809 13.8882 6.03809 13.7825C6.03809 13.6767 6.05909 13.572 6.0999 13.4746C6.1407 13.3771 6.20047 13.2888 6.27568 13.2149C6.35089 13.1411 6.44003 13.0831 6.53784 13.0443C6.63566 13.0056 6.7402 12.987 6.84528 12.9895H10.0513C10.1563 12.987 10.2609 13.0056 10.3587 13.0443C10.4565 13.0831 10.5456 13.1411 10.6209 13.2149C10.6961 13.2888 10.7558 13.3771 10.7966 13.4746C10.8374 13.572 10.8585 13.6767 10.8585 13.7825C10.8585 13.8882 10.8374 13.9929 10.7966 14.0904C10.7558 14.1879 10.6961 14.2761 10.6209 14.35C10.5456 14.4239 10.4565 14.4819 10.3587 14.5206C10.2609 14.5594 10.1563 14.578 10.0513 14.5755Z" fill="#82AEC9"/>
<path d="M20.5517 14.5755H17.2047C16.9989 14.5706 16.8032 14.4848 16.6594 14.3367C16.5156 14.1885 16.4351 13.9896 16.4351 13.7825C16.4351 13.5754 16.5156 13.3765 16.6594 13.2283C16.8032 13.0801 16.9989 12.9944 17.2047 12.9895H20.5517C20.6568 12.987 20.7613 13.0056 20.8591 13.0443C20.9569 13.0831 21.0461 13.1411 21.1213 13.2149C21.1965 13.2888 21.2563 13.3771 21.2971 13.4746C21.3379 13.572 21.3589 13.6767 21.3589 13.7825C21.3589 13.8882 21.3379 13.9929 21.2971 14.0904C21.2563 14.1879 21.1965 14.2761 21.1213 14.35C21.0461 14.4239 20.9569 14.4819 20.8591 14.5206C20.7613 14.5594 20.6568 14.578 20.5517 14.5755Z" fill="#82AEC9"/>
<path d="M10.0521 16.9778H8.43366C8.32858 16.9804 8.22404 16.9617 8.12622 16.923C8.0284 16.8843 7.93927 16.8263 7.86406 16.7524C7.78885 16.6785 7.72911 16.5902 7.6883 16.4927C7.6475 16.3953 7.62646 16.2906 7.62646 16.1848C7.62646 16.0791 7.6475 15.9744 7.6883 15.8769C7.72911 15.7794 7.78885 15.6912 7.86406 15.6173C7.93927 15.5434 8.0284 15.4854 8.12622 15.4467C8.22404 15.408 8.32858 15.3893 8.43366 15.3918H10.0521C10.1572 15.3893 10.2617 15.408 10.3595 15.4467C10.4574 15.4854 10.5465 15.5434 10.6217 15.6173C10.6969 15.6912 10.7567 15.7794 10.7975 15.8769C10.8383 15.9744 10.8593 16.0791 10.8593 16.1848C10.8593 16.2906 10.8383 16.3953 10.7975 16.4927C10.7567 16.5902 10.6969 16.6785 10.6217 16.7524C10.5465 16.8263 10.4574 16.8843 10.3595 16.923C10.2617 16.9617 10.1572 16.9804 10.0521 16.9778Z" fill="#82AEC9"/>
<path d="M15.6277 16.9778H12.4136C12.3085 16.9804 12.204 16.9617 12.1062 16.923C12.0084 16.8843 11.9192 16.8263 11.844 16.7524C11.7688 16.6785 11.7091 16.5902 11.6683 16.4927C11.6275 16.3953 11.6064 16.2906 11.6064 16.1848C11.6064 16.0791 11.6275 15.9744 11.6683 15.8769C11.7091 15.7794 11.7688 15.6912 11.844 15.6173C11.9192 15.5434 12.0084 15.4854 12.1062 15.4467C12.204 15.408 12.3085 15.3893 12.4136 15.3918H15.6277C15.7328 15.3893 15.8373 15.408 15.9351 15.4467C16.0329 15.4854 16.1221 15.5434 16.1973 15.6173C16.2725 15.6912 16.3322 15.7794 16.373 15.8769C16.4138 15.9744 16.4349 16.0791 16.4349 16.1848C16.4349 16.2906 16.4138 16.3953 16.373 16.4927C16.3322 16.5902 16.2725 16.6785 16.1973 16.7524C16.1221 16.8263 16.0329 16.8843 15.9351 16.923C15.8373 16.9617 15.7328 16.9804 15.6277 16.9778Z" fill="#82AEC9"/>
<path d="M6.88158 2.37147C6.88158 2.4913 6.84626 2.60843 6.78009 2.70806C6.71392 2.80769 6.61987 2.88534 6.50984 2.9312C6.39981 2.97706 6.27874 2.98905 6.16193 2.96568C6.04512 2.9423 5.93783 2.8846 5.85362 2.79987C5.7694 2.71514 5.71205 2.60719 5.68882 2.48967C5.66558 2.37214 5.67751 2.25033 5.72308 2.13962C5.76866 2.02892 5.84583 1.9343 5.94486 1.86773C6.04388 1.80116 6.16031 1.76562 6.2794 1.76562C6.43911 1.76562 6.59226 1.82946 6.70519 1.94307C6.81812 2.05669 6.88158 2.21079 6.88158 2.37147Z" fill="#1D365A"/>
<path d="M6.85863 15.9789C6.85863 16.0987 6.82331 16.2159 6.75714 16.3155C6.69098 16.4151 6.59692 16.4928 6.48689 16.5386C6.37686 16.5845 6.25579 16.5965 6.13898 16.5731C6.02217 16.5497 5.91488 16.492 5.83067 16.4073C5.74645 16.3226 5.6891 16.2146 5.66587 16.0971C5.64263 15.9796 5.65456 15.8577 5.70013 15.747C5.74571 15.6363 5.82291 15.5417 5.92194 15.4751C6.02096 15.4086 6.13736 15.373 6.25645 15.373C6.41616 15.373 6.56934 15.4369 6.68227 15.5505C6.7952 15.6641 6.85863 15.8182 6.85863 15.9789Z" fill="#1D365A"/>
<path d="M4.86551 4.96315H4.06949C3.96494 4.96315 3.86467 4.92137 3.79074 4.84699C3.71682 4.77261 3.67529 4.67173 3.67529 4.56654C3.67529 4.46135 3.71682 4.36047 3.79074 4.28609C3.86467 4.21171 3.96494 4.16992 4.06949 4.16992H4.86551C4.97006 4.16992 5.07033 4.21171 5.14426 4.28609C5.21819 4.36047 5.25971 4.46135 5.25971 4.56654C5.25971 4.67173 5.21819 4.77261 5.14426 4.84699C5.07033 4.92137 4.97006 4.96315 4.86551 4.96315Z" fill="#1D365A"/>
<path d="M3.27059 7.3655H1.68082C1.57627 7.3655 1.476 7.32371 1.40207 7.24933C1.32814 7.17495 1.28662 7.07407 1.28662 6.96888C1.28662 6.86369 1.32814 6.76281 1.40207 6.68843C1.476 6.61405 1.57627 6.57227 1.68082 6.57227H3.27059C3.37514 6.57227 3.47542 6.61405 3.54934 6.68843C3.62327 6.76281 3.66482 6.86369 3.66482 6.96888C3.66482 7.07407 3.62327 7.17495 3.54934 7.24933C3.47542 7.32371 3.37514 7.3655 3.27059 7.3655Z" fill="#1D365A"/>
<path d="M3.28082 11.3626H0.893222C0.788673 11.3626 0.688428 11.3208 0.614501 11.2464C0.540574 11.172 0.499023 11.0711 0.499023 10.966C0.499023 10.8608 0.540574 10.7599 0.614501 10.6855C0.688428 10.6111 0.788673 10.5693 0.893222 10.5693H3.28082C3.38537 10.5693 3.48564 10.6111 3.55957 10.6855C3.6335 10.7599 3.67502 10.8608 3.67502 10.966C3.67502 11.0711 3.6335 11.172 3.55957 11.2464C3.48564 11.3208 3.38537 11.3626 3.28082 11.3626Z" fill="#1D365A"/>
<path d="M4.86909 13.7571H4.06949C3.96494 13.7571 3.86467 13.7153 3.79074 13.6409C3.71682 13.5666 3.67529 13.4657 3.67529 13.3605C3.67529 13.2553 3.71682 13.1544 3.79074 13.08C3.86467 13.0057 3.96494 12.9639 4.06949 12.9639H4.86909C4.97364 12.9639 5.07391 13.0057 5.14784 13.08C5.22177 13.1544 5.26329 13.2553 5.26329 13.3605C5.26329 13.4657 5.22177 13.5666 5.14784 13.6409C5.07391 13.7153 4.97364 13.7571 4.86909 13.7571Z" fill="#1D365A"/>
<path d="M29.6105 8.45162C29.8246 8.7195 29.9395 9.05387 29.9356 9.39755C29.9416 9.69707 29.8599 9.99175 29.7005 10.2448C29.5333 10.4974 29.2972 10.696 29.0205 10.8169C28.689 10.9616 28.3301 11.032 27.9688 11.0232H25.3945V5.01834H27.8569C28.216 5.00954 28.573 5.07692 28.9045 5.21609C29.1758 5.32983 29.4078 5.52143 29.5716 5.76698C29.7237 6.00558 29.8025 6.284 29.7981 6.56742C29.8092 6.88353 29.7111 7.19373 29.5206 7.44533C29.3305 7.68377 29.0723 7.85794 28.7809 7.94442C29.1106 8.00351 29.4065 8.1844 29.6105 8.45162ZM26.5912 7.49668H27.6863C27.9215 7.51208 28.1546 7.44349 28.3444 7.30299C28.4226 7.23449 28.4842 7.14882 28.5242 7.05259C28.5643 6.95637 28.5818 6.85217 28.5754 6.74804C28.5815 6.64329 28.5639 6.53851 28.5239 6.4416C28.4838 6.3447 28.4225 6.25819 28.3444 6.18859C28.1558 6.0452 27.9222 5.97486 27.6863 5.9904H26.5912V7.49668ZM28.477 9.83898C28.5593 9.76656 28.624 9.67613 28.6662 9.57463C28.7085 9.47312 28.727 9.36324 28.7205 9.25341C28.7263 9.13932 28.7061 9.02542 28.6617 8.92031C28.6172 8.81519 28.5497 8.72162 28.464 8.64666C28.267 8.49183 28.021 8.41391 27.7714 8.42729H26.5912V10.0448H27.7974C28.0412 10.0598 28.2824 9.98667 28.4774 9.83853" fill="#AB2346"/>
<path d="M32.683 6.40309C32.9426 6.25665 33.2362 6.18233 33.5337 6.18778V7.45397H33.2171C33.0573 7.42795 32.8936 7.44141 32.7401 7.49318C32.5866 7.54495 32.4479 7.63349 32.336 7.75116C32.224 7.86884 32.1422 8.01213 32.0975 8.16869C32.0529 8.32526 32.0467 8.4904 32.0795 8.6499V11.0246H30.8828V6.2567H32.0782V6.99677C32.2259 6.75066 32.4335 6.54636 32.6812 6.40309" fill="#AB2346"/>
<path d="M35.3029 10.7952C34.9408 10.5945 34.6428 10.2946 34.4433 9.93031C34.2291 9.53487 34.1211 9.09006 34.1299 8.63979C34.1207 8.18843 34.2314 7.74278 34.4505 7.34882C34.6564 6.98359 34.9601 6.68391 35.3271 6.48397C35.7101 6.28342 36.1355 6.17871 36.5672 6.17871C36.999 6.17871 37.4244 6.28342 37.8073 6.48397C38.1743 6.68395 38.478 6.98362 38.684 7.34882C38.9032 7.74273 39.0141 8.18839 39.005 8.63979C39.0141 9.09208 38.9003 9.5383 38.6759 9.93031C38.4641 10.2955 38.1563 10.5947 37.7863 10.7952C37.4008 11.0018 36.9695 11.1069 36.5327 11.1006C36.1029 11.1072 35.6787 11.002 35.3011 10.7952M37.1443 9.89157C37.3398 9.78066 37.4988 9.6147 37.6019 9.4141C37.7221 9.17436 37.7809 8.9082 37.7729 8.63979C37.7853 8.4506 37.7603 8.26082 37.6995 8.08138C37.6386 7.90195 37.5431 7.73641 37.4183 7.59431C37.3067 7.47616 37.1719 7.38267 37.0224 7.31978C36.873 7.25689 36.7122 7.22597 36.5502 7.229C36.3894 7.22546 36.2297 7.25618 36.0816 7.31914C35.9334 7.3821 35.8002 7.47588 35.6906 7.59431C35.4436 7.88375 35.3192 8.2591 35.3441 8.63979C35.3191 9.01903 35.4401 9.3934 35.6821 9.68527C35.7895 9.80408 35.9211 9.89824 36.0678 9.96136C36.2146 10.0245 36.3732 10.055 36.5327 10.051C36.7468 10.0517 36.9574 9.99651 37.1443 9.89157Z" fill="#AB2346"/>
<path d="M39.9116 7.3409C40.086 6.9865 40.3557 6.68842 40.6901 6.48056C41.0213 6.27882 41.4021 6.17444 41.7892 6.17921C42.1116 6.17185 42.4307 6.24588 42.7173 6.39452C42.9671 6.52466 43.1847 6.70934 43.3544 6.93505V6.25669H44.5605V11.0246H43.3544V10.3269C43.1893 10.5605 42.9708 10.7508 42.7173 10.8818C42.4283 11.0326 42.1062 11.108 41.7807 11.1012C41.3952 11.105 41.0167 10.9975 40.6901 10.7913C40.3558 10.5777 40.0864 10.2755 39.9116 9.91789C39.7145 9.51548 39.6163 9.07138 39.6251 8.62286C39.6166 8.17842 39.7148 7.73893 39.9116 7.3409ZM43.1829 7.88684C43.0768 7.68593 42.9167 7.51907 42.7209 7.40532C42.5313 7.29446 42.3157 7.23646 42.0964 7.2373C41.8761 7.23488 41.6594 7.29337 41.4699 7.40641C41.2804 7.51944 41.1255 7.68267 41.0219 7.87828C40.9003 8.10701 40.8398 8.36357 40.8464 8.62286C40.8404 8.88482 40.9009 9.14399 41.0219 9.376C41.1282 9.58039 41.2879 9.75171 41.4839 9.87149C41.6681 9.98437 41.8797 10.0439 42.0954 10.0436C42.3147 10.0445 42.5303 9.98663 42.72 9.876C42.9158 9.762 43.0759 9.59501 43.182 9.39402C43.2945 9.15917 43.3529 8.90181 43.3529 8.64111C43.3529 8.3804 43.2945 8.12305 43.182 7.88819" fill="#AB2346"/>
<path d="M45.6748 7.34089C45.8475 6.98741 46.1164 6.69056 46.4502 6.48489C46.7841 6.27923 47.1691 6.17321 47.5605 6.1792C47.8657 6.17862 48.1669 6.24777 48.4416 6.38145C48.7045 6.5029 48.9336 6.68762 49.1087 6.91928V4.65625H50.3233V11.0237H49.1087V10.3183C48.9539 10.5596 48.7387 10.7555 48.4846 10.8863C48.1964 11.0346 47.8761 11.1086 47.5525 11.1016C47.1657 11.1051 46.786 10.9976 46.4578 10.7917C46.1216 10.5791 45.8507 10.2767 45.6753 9.91832C45.4782 9.51593 45.3799 9.07182 45.3887 8.6233C45.3802 8.17885 45.4785 7.7389 45.6753 7.34089M48.9466 7.88728C48.8406 7.68643 48.6807 7.51958 48.485 7.40576C48.2955 7.29498 48.0801 7.23698 47.8609 7.23774C47.6407 7.23532 47.424 7.29381 47.2345 7.40685C47.045 7.51988 46.89 7.68311 46.7865 7.87872C46.6649 8.10744 46.6044 8.36401 46.6109 8.6233C46.605 8.88526 46.6655 9.14442 46.7865 9.37644C46.8928 9.58083 47.0525 9.75215 47.2485 9.87193C47.4327 9.98484 47.6443 10.0444 47.86 10.044C48.0791 10.0448 48.2946 9.987 48.4841 9.87644C48.6798 9.76237 48.8397 9.59539 48.9457 9.39446C49.0584 9.15964 49.1168 8.90228 49.1168 8.64155C49.1168 8.38082 49.0584 8.12345 48.9457 7.88863" fill="#AB2346"/>
<path d="M52.2185 10.8888C51.9304 10.7636 51.6788 10.5666 51.4874 10.3163C51.3116 10.0854 51.2088 9.80669 51.1924 9.5163H52.3985C52.4095 9.60684 52.4391 9.69409 52.4853 9.77255C52.5316 9.85101 52.5935 9.91897 52.6671 9.97215C52.8367 10.0966 53.0429 10.16 53.2527 10.1523C53.4408 10.1633 53.6276 10.1151 53.7872 10.0145C53.8463 9.97684 53.895 9.92475 53.9286 9.86307C53.9623 9.8014 53.9799 9.73216 53.9798 9.66179C53.9802 9.58659 53.958 9.51302 53.916 9.45078C53.874 9.38854 53.8143 9.34055 53.7447 9.31315C53.5032 9.20622 53.2527 9.1212 52.9962 9.0591C52.7008 8.99123 52.4107 8.90211 52.1281 8.79244C51.9032 8.70101 51.7036 8.55639 51.5461 8.37083C51.3745 8.15416 51.2878 7.88171 51.3025 7.60507C51.3013 7.34692 51.3805 7.09488 51.529 6.88436C51.694 6.65504 51.9191 6.47633 52.1791 6.36816C52.4944 6.23525 52.834 6.17064 53.1757 6.17852C53.6623 6.15318 54.1417 6.30439 54.5269 6.60464C54.6941 6.74645 54.8299 6.92192 54.9257 7.11974C55.0215 7.31757 55.075 7.53337 55.0829 7.75327H53.9368C53.9312 7.6658 53.9074 7.58049 53.8669 7.50289C53.8264 7.42528 53.7701 7.35712 53.7017 7.30282C53.5445 7.20227 53.3636 7.14517 53.1774 7.13726C52.9913 7.12936 52.8063 7.17092 52.6411 7.25778C52.5856 7.29369 52.5402 7.34349 52.5096 7.40231C52.4789 7.46114 52.4639 7.52696 52.4661 7.59336C52.4656 7.67138 52.4881 7.74779 52.5307 7.81296C52.5734 7.87813 52.6342 7.92915 52.7056 7.95957C52.9441 8.07018 53.1935 8.15518 53.4497 8.21317C53.7378 8.28206 54.0207 8.37132 54.2963 8.48028C54.5201 8.57307 54.7181 8.71915 54.8734 8.90595C55.0441 9.12198 55.1335 9.39175 55.1259 9.66765C55.1291 9.9321 55.0499 10.1909 54.8993 10.4077C54.7348 10.6365 54.5095 10.814 54.2493 10.9199C53.9362 11.0491 53.6 11.1119 53.2617 11.1046C52.9028 11.1105 52.5468 11.0386 52.218 10.8938" fill="#AB2346"/>
<path d="M57.9251 6.39843C58.2113 6.2483 58.5304 6.17288 58.8532 6.17906C59.2403 6.17418 59.621 6.27841 59.9523 6.47996C60.2857 6.68701 60.5553 6.98335 60.7308 7.3358C60.9284 7.73498 61.0267 8.17644 61.0173 8.62227C61.0261 9.07077 60.9278 9.51485 60.7308 9.91729C60.5559 10.2748 60.2865 10.5769 59.9523 10.7907C59.6229 10.9977 59.2415 11.1052 58.8532 11.1006C58.5337 11.1073 58.2177 11.0333 57.934 10.8853C57.6827 10.7539 57.4625 10.5695 57.2884 10.3448V13.2961H56.0908V6.25654H57.2884V6.94482C57.4556 6.71529 57.6733 6.52819 57.9251 6.39843ZM59.6187 7.87814C59.5119 7.67893 59.3521 7.5136 59.1571 7.40067C58.9683 7.29223 58.7545 7.23583 58.5371 7.23715C58.3219 7.23665 58.1106 7.2947 57.9255 7.40517C57.7302 7.52149 57.5705 7.68964 57.4639 7.8912C57.3486 8.1237 57.2886 8.37999 57.2886 8.63983C57.2886 8.89968 57.3486 9.15597 57.4639 9.38847C57.5706 9.58998 57.7303 9.75812 57.9255 9.8745C58.1124 9.98488 58.3253 10.0427 58.542 10.0419C58.7586 10.0411 58.9711 9.98173 59.1571 9.86999C59.352 9.75117 59.5114 9.58172 59.6187 9.37946C59.7406 9.14633 59.8011 8.88561 59.7942 8.62227C59.8008 8.36297 59.7403 8.10684 59.6187 7.87814Z" fill="#AB2346"/>
<path d="M66.2431 9.00119H62.7792C62.7894 9.30801 62.9178 9.5988 63.1374 9.81199C63.3491 10.0076 63.6281 10.1126 63.9155 10.1048C64.1131 10.1166 64.3097 10.0678 64.4792 9.96474C64.6487 9.86171 64.7831 9.70933 64.8646 9.52776H66.1562C66.0235 9.98117 65.7473 10.3786 65.3696 10.6597C64.9559 10.9634 64.4532 11.1193 63.9414 11.1025C63.513 11.1094 63.0901 11.0042 62.7143 10.7971C62.3553 10.5967 62.0614 10.2964 61.8677 9.93226C61.6594 9.53493 61.5549 9.09085 61.5641 8.64174C61.5542 8.19017 61.6572 7.74332 61.8636 7.34221C62.0536 6.97928 62.3449 6.68021 62.7017 6.48187C63.0803 6.2854 63.4999 6.18217 63.9258 6.18068C64.3518 6.17919 64.7721 6.27948 65.152 6.47331C65.5029 6.66301 65.7912 6.9515 65.9816 7.30347C66.1834 7.68299 66.285 8.10827 66.2766 8.53859C66.2778 8.69406 66.2664 8.84938 66.2426 9.003M65.0365 8.1922C65.039 8.05107 65.0104 7.91114 64.9527 7.78247C64.8951 7.6538 64.8098 7.53959 64.703 7.44807C64.4811 7.25971 64.1981 7.16013 63.9079 7.16834C63.6334 7.15993 63.3659 7.2565 63.1593 7.43861C62.9484 7.63562 62.8161 7.90322 62.7872 8.1913L65.0365 8.1922Z" fill="#AB2346"/>
<path d="M67.2704 7.34526C67.4603 6.98515 67.748 6.68677 68.1 6.48491C68.4709 6.27677 68.89 6.17139 69.3146 6.17951C69.8361 6.15909 70.3494 6.31515 70.7723 6.62275C71.167 6.93326 71.4409 7.3732 71.5464 7.86597H70.2548C70.1943 7.67066 70.0727 7.50021 69.9082 7.37994C69.7307 7.25778 69.5189 7.19606 69.3039 7.20382C69.1487 7.1974 68.9943 7.22797 68.8532 7.29302C68.712 7.35807 68.5882 7.45577 68.4917 7.57814C68.2959 7.89608 68.1922 8.26267 68.1922 8.63668C68.1922 9.01069 68.2959 9.37728 68.4917 9.69522C68.5882 9.81759 68.712 9.91529 68.8532 9.98034C68.9943 10.0454 69.1487 10.076 69.3039 10.0695C69.5128 10.0876 69.7215 10.0323 69.8945 9.91306C70.0675 9.79383 70.1942 9.61803 70.253 9.4155H71.5446C71.4319 9.90291 71.1572 10.337 70.766 10.6461C70.3473 10.9603 69.8344 11.1211 69.3124 11.102C68.8878 11.1101 68.4686 11.0047 68.0978 10.7966C67.7458 10.5946 67.4581 10.2963 67.2682 9.93621C67.0712 9.53327 66.9688 9.09022 66.9688 8.64118C66.9688 8.19215 67.0712 7.7491 67.2682 7.34616" fill="#AB2346"/>
<path d="M73.9024 7.24558V9.55185C73.8965 9.61484 73.9038 9.67838 73.9237 9.7384C73.9436 9.79842 73.9756 9.85362 74.0179 9.90049C74.1301 9.98298 74.2686 10.0211 74.4069 10.0077H74.963V11.023H74.2104C73.2013 11.023 72.6967 10.5298 72.6967 9.54329V7.24603H72.1304V6.25506H72.6949V5.07715H73.9006V6.25596H74.9612V7.24693L73.9024 7.24558Z" fill="#AB2346"/>
<path d="M77.7445 6.40309C78.004 6.25663 78.2976 6.18231 78.5951 6.18778V7.45397H78.2786C78.1187 7.42784 77.955 7.44122 77.8014 7.49295C77.6479 7.54469 77.5092 7.63322 77.3972 7.75093C77.2852 7.86863 77.2034 8.01197 77.1587 8.16859C77.1141 8.3252 77.108 8.49039 77.141 8.6499V11.0246H75.9434V6.2567H77.141V6.99678C77.2887 6.7506 77.4966 6.54629 77.7445 6.40309Z" fill="#AB2346"/>
<path d="M83.8951 6.25684V11.0239H82.689V10.4216C82.5313 10.6314 82.3242 10.7984 82.0864 10.9077C81.8334 11.0262 81.5574 11.0863 81.2783 11.0838C80.9353 11.091 80.5962 11.0096 80.2934 10.8473C80.0059 10.6871 79.7721 10.4445 79.6218 10.1505C79.4518 9.81072 79.3681 9.43388 79.3783 9.05364V6.25684H80.5759V8.88157C80.5549 9.1982 80.6559 9.5108 80.8579 9.75453C80.957 9.85784 81.077 9.93856 81.2098 9.99124C81.3426 10.0439 81.485 10.0673 81.6275 10.0599C81.7714 10.0679 81.9153 10.0448 82.0495 9.9921C82.1837 9.93942 82.3052 9.85841 82.4056 9.75453C82.6077 9.51082 82.7087 9.19821 82.6877 8.88157V6.25684H83.8951Z" fill="#AB2346"/>
<path d="M92.4359 6.72617C92.6212 6.9272 92.764 7.1639 92.8559 7.42201C92.9478 7.68012 92.9867 7.95428 92.9704 8.22795V11.0243H91.7733V8.39101C91.7943 8.0795 91.6928 7.77214 91.4907 7.53517C91.3902 7.43426 91.2698 7.3557 91.1372 7.30457C91.0047 7.25343 90.8629 7.23087 90.7211 7.23833C90.5787 7.23118 90.4364 7.25388 90.3032 7.30497C90.1699 7.35607 90.0486 7.43446 89.9471 7.53517C89.8457 7.65187 89.7683 7.78753 89.7191 7.93439C89.6699 8.08124 89.6501 8.23641 89.6606 8.39101V11.0243H88.4634V8.39101C88.4843 8.07959 88.383 7.77233 88.1813 7.53517C88.0808 7.43428 87.9604 7.35574 87.8278 7.30461C87.6953 7.25348 87.5535 7.2309 87.4117 7.23833C87.268 7.23059 87.1242 7.25297 86.9895 7.30407C86.8548 7.35517 86.7321 7.43386 86.6292 7.53517C86.5279 7.6519 86.4504 7.78756 86.4013 7.93441C86.3521 8.08126 86.3322 8.23641 86.3426 8.39101V11.0243H85.145V6.25726H86.3426V6.83383C86.5001 6.6303 86.704 6.46805 86.9372 6.36086C87.1877 6.24433 87.4609 6.18555 87.7368 6.18879C88.082 6.18271 88.4231 6.26403 88.7289 6.42528C89.0152 6.57872 89.2503 6.81375 89.4045 7.10094C89.5627 6.82165 89.7953 6.59234 90.076 6.43879C90.4506 6.23454 90.8789 6.15255 91.3019 6.20421C91.7248 6.25586 92.1212 6.43859 92.4363 6.72707" fill="#AB2346"/>
</svg>
