<svg width="12" height="14" viewBox="0 0 12 14" fill="none" xmlns="http://www.w3.org/2000/svg">
<path d="M8.65115 1.27637H3.49151C1.93616 1.27637 0.675293 2.63422 0.675293 4.30922V9.86575C0.675293 11.5407 1.93616 12.8986 3.49151 12.8986H8.65115C10.2065 12.8986 11.4674 11.5407 11.4674 9.86575V4.30922C11.4674 2.63422 10.2065 1.27637 8.65115 1.27637Z" stroke="#0A2804" stroke-width="0.771941" stroke-linecap="round" stroke-linejoin="round"/>
<path d="M6.07161 10.1318C7.63264 10.1318 8.89811 8.76897 8.89811 7.08786C8.89811 5.40675 7.63264 4.04395 6.07161 4.04395C4.51058 4.04395 3.24512 5.40675 3.24512 7.08786C3.24512 8.76897 4.51058 10.1318 6.07161 10.1318Z" stroke="#0A2804" stroke-width="0.771941" stroke-linecap="round" stroke-linejoin="round"/>
<path d="M9.1549 3.48801C9.29682 3.48801 9.41186 3.36412 9.41186 3.21129C9.41186 3.05846 9.29682 2.93457 9.1549 2.93457C9.01299 2.93457 8.89795 3.05846 8.89795 3.21129C8.89795 3.36412 9.01299 3.48801 9.1549 3.48801Z" stroke="#0A2804" stroke-width="0.771941" stroke-linecap="round" stroke-linejoin="round"/>
</svg>
