<svg width="13" height="13" viewBox="0 0 13 13" fill="none" xmlns="http://www.w3.org/2000/svg">
<path d="M9.19746 0.755859H3.93332C2.34646 0.755859 1.06006 2.14122 1.06006 3.85014V9.51922C1.06006 11.2281 2.34646 12.6135 3.93332 12.6135H9.19746C10.7843 12.6135 12.0707 11.2281 12.0707 9.51922V3.85014C12.0707 2.14122 10.7843 0.755859 9.19746 0.755859Z" stroke="#0A2804" stroke-width="0.787576" stroke-linecap="round" stroke-linejoin="round"/>
<path d="M6.56539 9.79025C8.15803 9.79025 9.44913 8.39983 9.44913 6.68467C9.44913 4.96951 8.15803 3.5791 6.56539 3.5791C4.97274 3.5791 3.68164 4.96951 3.68164 6.68467C3.68164 8.39983 4.97274 9.79025 6.56539 9.79025Z" stroke="#0A2804" stroke-width="0.787576" stroke-linecap="round" stroke-linejoin="round"/>
<path d="M9.71138 3.0124C9.85616 3.0124 9.97354 2.886 9.97354 2.73008C9.97354 2.57415 9.85616 2.44775 9.71138 2.44775C9.56659 2.44775 9.44922 2.57415 9.44922 2.73008C9.44922 2.886 9.56659 3.0124 9.71138 3.0124Z" stroke="#0A2804" stroke-width="0.787576" stroke-linecap="round" stroke-linejoin="round"/>
</svg>
