<svg width="93" height="17" viewBox="0 0 93 17" fill="none" xmlns="http://www.w3.org/2000/svg">
<path d="M15.656 2.26202H12.4419C12.3368 2.26454 12.2323 2.24589 12.1345 2.20717C12.0367 2.16845 11.9476 2.11044 11.8724 2.03655C11.7972 1.96267 11.7374 1.87439 11.6966 1.77693C11.6558 1.67946 11.6348 1.57477 11.6348 1.46901C11.6348 1.36325 11.6558 1.25856 11.6966 1.1611C11.7374 1.06363 11.7972 0.975357 11.8724 0.90147C11.9476 0.827584 12.0367 0.769574 12.1345 0.730855C12.2323 0.692135 12.3368 0.673486 12.4419 0.676006H15.656C15.7611 0.673486 15.8656 0.692135 15.9634 0.730855C16.0613 0.769574 16.1504 0.827584 16.2256 0.90147C16.3008 0.975357 16.3606 1.06363 16.4014 1.1611C16.4422 1.25856 16.4632 1.36325 16.4632 1.46901C16.4632 1.57477 16.4422 1.67946 16.4014 1.77693C16.3606 1.87439 16.3008 1.96267 16.2256 2.03655C16.1504 2.11044 16.0613 2.16845 15.9634 2.20717C15.8656 2.24589 15.7611 2.26454 15.656 2.26202Z" fill="#AB2346"/>
<path d="M17.2516 4.66534H12.4424C12.3373 4.66786 12.2328 4.64921 12.135 4.61049C12.0372 4.57177 11.9481 4.51376 11.8728 4.43987C11.7976 4.36599 11.7379 4.27771 11.6971 4.18025C11.6563 4.08278 11.6353 3.97809 11.6353 3.87233C11.6353 3.76657 11.6563 3.66188 11.6971 3.56442C11.7379 3.46695 11.7976 3.37868 11.8728 3.30479C11.9481 3.2309 12.0372 3.17289 12.135 3.13418C12.2328 3.09546 12.3373 3.07681 12.4424 3.07933H17.2516C17.3567 3.07681 17.4613 3.09546 17.5591 3.13418C17.6569 3.17289 17.746 3.2309 17.8212 3.30479C17.8965 3.37868 17.9562 3.46695 17.997 3.56442C18.0378 3.66188 18.0588 3.76657 18.0588 3.87233C18.0588 3.97809 18.0378 4.08278 17.997 4.18025C17.9562 4.27771 17.8965 4.36599 17.8212 4.43987C17.746 4.51376 17.6569 4.57177 17.5591 4.61049C17.4613 4.64921 17.3567 4.66786 17.2516 4.66534Z" fill="#AB2346"/>
<path d="M18.8356 7.06865H12.442C12.2362 7.06372 12.0405 6.97801 11.8967 6.82983C11.7529 6.68165 11.6724 6.48276 11.6724 6.27565C11.6724 6.06855 11.7529 5.86966 11.8967 5.72148C12.0405 5.5733 12.2362 5.48758 12.442 5.48265H18.8356C18.9407 5.48013 19.0452 5.49878 19.143 5.5375C19.2409 5.57621 19.33 5.63422 19.4052 5.70811C19.4804 5.782 19.5402 5.87027 19.581 5.96773C19.6218 6.0652 19.6428 6.16989 19.6428 6.27565C19.6428 6.38141 19.6218 6.4861 19.581 6.58357C19.5402 6.68103 19.4804 6.76931 19.4052 6.84319C19.33 6.91708 19.2409 6.97509 19.143 7.01381C19.0452 7.05253 18.9407 7.07117 18.8356 7.06865Z" fill="#AB2346"/>
<path d="M15.656 11.8743H12.4419C12.3368 11.8768 12.2323 11.8582 12.1345 11.8195C12.0367 11.7808 11.9476 11.7227 11.8724 11.6489C11.7972 11.575 11.7374 11.4867 11.6966 11.3892C11.6558 11.2918 11.6348 11.1871 11.6348 11.0813C11.6348 10.9756 11.6558 10.8709 11.6966 10.7734C11.7374 10.6759 11.7972 10.5877 11.8724 10.5138C11.9476 10.4399 12.0367 10.3819 12.1345 10.3432C12.2323 10.3044 12.3368 10.2858 12.4419 10.2883H15.656C15.7611 10.2858 15.8656 10.3044 15.9634 10.3432C16.0613 10.3819 16.1504 10.4399 16.2256 10.5138C16.3008 10.5877 16.3606 10.6759 16.4014 10.7734C16.4422 10.8709 16.4632 10.9756 16.4632 11.0813C16.4632 11.1871 16.4422 11.2918 16.4014 11.3892C16.3606 11.4867 16.3008 11.575 16.2256 11.6489C16.1504 11.7227 16.0613 11.7808 15.9634 11.8195C15.8656 11.8582 15.7611 11.8768 15.656 11.8743Z" fill="#AB2346"/>
<path d="M14.8586 14.2776H12.441C12.3359 14.2802 12.2314 14.2615 12.1336 14.2228C12.0358 14.1841 11.9466 14.1261 11.8714 14.0522C11.7962 13.9783 11.7364 13.89 11.6956 13.7926C11.6548 13.6951 11.6338 13.5904 11.6338 13.4846C11.6338 13.3789 11.6548 13.2742 11.6956 13.1767C11.7364 13.0793 11.7962 12.991 11.8714 12.9171C11.9466 12.8432 12.0358 12.7852 12.1336 12.7465C12.2314 12.7078 12.3359 12.6891 12.441 12.6916H14.8586C14.9637 12.6891 15.0682 12.7078 15.166 12.7465C15.2638 12.7852 15.353 12.8432 15.4282 12.9171C15.5034 12.991 15.5631 13.0793 15.6039 13.1767C15.6448 13.2742 15.6658 13.3789 15.6658 13.4846C15.6658 13.5904 15.6448 13.6951 15.6039 13.7926C15.5631 13.89 15.5034 13.9783 15.4282 14.0522C15.353 14.1261 15.2638 14.1841 15.166 14.2228C15.0682 14.2615 14.9637 14.2802 14.8586 14.2776Z" fill="#AB2346"/>
<path d="M10.0799 2.26202H8.46149C8.35641 2.26454 8.25187 2.24589 8.15405 2.20717C8.05624 2.16845 7.9671 2.11044 7.89189 2.03655C7.81668 1.96267 7.75694 1.87439 7.71613 1.77693C7.67533 1.67946 7.6543 1.57477 7.6543 1.46901C7.6543 1.36325 7.67533 1.25856 7.71613 1.1611C7.75694 1.06363 7.81668 0.975357 7.89189 0.90147C7.9671 0.827584 8.05624 0.769574 8.15405 0.730855C8.25187 0.692135 8.35641 0.673486 8.46149 0.676006H10.0799C10.185 0.673486 10.2896 0.692135 10.3874 0.730855C10.4852 0.769574 10.5743 0.827584 10.6495 0.90147C10.7247 0.975357 10.7845 1.06363 10.8253 1.1611C10.8661 1.25856 10.8871 1.36325 10.8871 1.46901C10.8871 1.57477 10.8661 1.67946 10.8253 1.77693C10.7845 1.87439 10.7247 1.96267 10.6495 2.03655C10.5743 2.11044 10.4852 2.16845 10.3874 2.20717C10.2896 2.24589 10.185 2.26454 10.0799 2.26202Z" fill="#82AEC9"/>
<path d="M10.0801 4.66534H6.87946C6.77438 4.66786 6.66987 4.64921 6.57205 4.61049C6.47423 4.57177 6.3851 4.51376 6.30989 4.43987C6.23468 4.36599 6.17491 4.27771 6.1341 4.18025C6.0933 4.08278 6.07227 3.97809 6.07227 3.87233C6.07227 3.76657 6.0933 3.66188 6.1341 3.56442C6.17491 3.46695 6.23468 3.37868 6.30989 3.30479C6.3851 3.2309 6.47423 3.17289 6.57205 3.13418C6.66987 3.09546 6.77438 3.07681 6.87946 3.07933H10.0801C10.1852 3.07681 10.2897 3.09546 10.3875 3.13418C10.4853 3.17289 10.5745 3.2309 10.6497 3.30479C10.7249 3.37868 10.7847 3.46695 10.8255 3.56442C10.8663 3.66188 10.8873 3.76657 10.8873 3.87233C10.8873 3.97809 10.8663 4.08278 10.8255 4.18025C10.7847 4.27771 10.7249 4.36599 10.6497 4.43987C10.5745 4.51376 10.4853 4.57177 10.3875 4.61049C10.2897 4.64921 10.1852 4.66786 10.0801 4.66534Z" fill="#82AEC9"/>
<path d="M10.0791 7.06865H5.2945C5.18942 7.07117 5.08488 7.05253 4.98706 7.01381C4.88924 6.97509 4.80011 6.91708 4.7249 6.84319C4.64969 6.76931 4.58992 6.68103 4.54912 6.58357C4.50831 6.4861 4.4873 6.38141 4.4873 6.27565C4.4873 6.16989 4.50831 6.0652 4.54912 5.96773C4.58992 5.87027 4.64969 5.782 4.7249 5.70811C4.80011 5.63422 4.88924 5.57621 4.98706 5.5375C5.08488 5.49878 5.18942 5.48013 5.2945 5.48265H10.0791C10.1842 5.48013 10.2887 5.49878 10.3865 5.5375C10.4843 5.57621 10.5735 5.63422 10.6487 5.70811C10.7239 5.782 10.7837 5.87027 10.8245 5.96773C10.8653 6.0652 10.8863 6.16989 10.8863 6.27565C10.8863 6.38141 10.8653 6.4861 10.8245 6.58357C10.7837 6.68103 10.7239 6.76931 10.6487 6.84319C10.5735 6.91708 10.4843 6.97509 10.3865 7.01381C10.2887 7.05253 10.1842 7.07117 10.0791 7.06865Z" fill="#82AEC9"/>
<path d="M10.08 9.471H3.69392C3.58883 9.47352 3.48432 9.45487 3.3865 9.41615C3.28869 9.37743 3.19955 9.31942 3.12434 9.24554C3.04913 9.17165 2.98936 9.08338 2.94856 8.98591C2.90775 8.88845 2.88672 8.78375 2.88672 8.67799C2.88672 8.57224 2.90775 8.46754 2.94856 8.37008C2.98936 8.27261 3.04913 8.18434 3.12434 8.11045C3.19955 8.03657 3.28869 7.97856 3.3865 7.93984C3.48432 7.90112 3.58883 7.88247 3.69392 7.88499H10.08C10.185 7.88247 10.2896 7.90112 10.3874 7.93984C10.4852 7.97856 10.5743 8.03657 10.6495 8.11045C10.7247 8.18434 10.7845 8.27261 10.8253 8.37008C10.8661 8.46754 10.8871 8.57224 10.8871 8.67799C10.8871 8.78375 10.8661 8.88845 10.8253 8.98591C10.7845 9.08338 10.7247 9.17165 10.6495 9.24554C10.5743 9.31942 10.4852 9.37743 10.3874 9.41615C10.2896 9.45487 10.185 9.47352 10.08 9.471Z" fill="#82AEC9"/>
<path d="M20.4312 9.471H12.4425C12.3374 9.47352 12.2328 9.45487 12.135 9.41615C12.0372 9.37743 11.9481 9.31942 11.8728 9.24554C11.7976 9.17165 11.7379 9.08338 11.6971 8.98591C11.6563 8.88845 11.6353 8.78375 11.6353 8.67799C11.6353 8.57224 11.6563 8.46754 11.6971 8.37008C11.7379 8.27261 11.7976 8.18434 11.8728 8.11045C11.9481 8.03657 12.0372 7.97856 12.135 7.93984C12.2328 7.90112 12.3374 7.88247 12.4425 7.88499H20.4312C20.5363 7.88247 20.6408 7.90112 20.7387 7.93984C20.8365 7.97856 20.9256 8.03657 21.0008 8.11045C21.076 8.18434 21.1358 8.27261 21.1766 8.37008C21.2174 8.46754 21.2384 8.57224 21.2384 8.67799C21.2384 8.78375 21.2174 8.88845 21.1766 8.98591C21.1358 9.08338 21.076 9.17165 21.0008 9.24554C20.9256 9.31942 20.8365 9.37743 20.7387 9.41615C20.6408 9.45487 20.5363 9.47352 20.4312 9.471Z" fill="#82AEC9"/>
<path d="M10.0795 11.8743H5.28913C5.18405 11.8768 5.07954 11.8582 4.98172 11.8195C4.8839 11.7808 4.79477 11.7227 4.71956 11.6489C4.64435 11.575 4.58458 11.4867 4.54377 11.3892C4.50297 11.2918 4.48193 11.1871 4.48193 11.0813C4.48193 10.9756 4.50297 10.8709 4.54377 10.7734C4.58458 10.6759 4.64435 10.5877 4.71956 10.5138C4.79477 10.4399 4.8839 10.3819 4.98172 10.3432C5.07954 10.3044 5.18405 10.2858 5.28913 10.2883H10.0795C10.1846 10.2858 10.2892 10.3044 10.387 10.3432C10.4848 10.3819 10.5739 10.4399 10.6491 10.5138C10.7243 10.5877 10.7841 10.6759 10.8249 10.7734C10.8657 10.8709 10.8867 10.9756 10.8867 11.0813C10.8867 11.1871 10.8657 11.2918 10.8249 11.3892C10.7841 11.4867 10.7243 11.575 10.6491 11.6489C10.5739 11.7227 10.4848 11.7808 10.387 11.8195C10.2892 11.8582 10.1846 11.8768 10.0795 11.8743Z" fill="#82AEC9"/>
<path d="M20.4316 11.8743H18.0172C17.8114 11.8694 17.6157 11.7837 17.4719 11.6355C17.3281 11.4873 17.2476 11.2884 17.2476 11.0813C17.2476 10.8742 17.3281 10.6753 17.4719 10.5271C17.6157 10.379 17.8114 10.2932 18.0172 10.2883H20.4316C20.5367 10.2858 20.6413 10.3044 20.7391 10.3432C20.8369 10.3819 20.926 10.4399 21.0012 10.5138C21.0765 10.5877 21.1362 10.6759 21.177 10.7734C21.2178 10.8709 21.2388 10.9756 21.2388 11.0813C21.2388 11.1871 21.2178 11.2918 21.177 11.3892C21.1362 11.4867 21.0765 11.575 21.0012 11.6489C20.926 11.7227 20.8369 11.7808 20.7391 11.8195C20.6413 11.8582 20.5367 11.8768 20.4316 11.8743Z" fill="#82AEC9"/>
<path d="M10.0791 14.2776H6.87312C6.76803 14.2802 6.66349 14.2615 6.56568 14.2228C6.46786 14.1841 6.37872 14.1261 6.30351 14.0522C6.22831 13.9783 6.16853 13.89 6.12773 13.7926C6.08692 13.6951 6.06592 13.5904 6.06592 13.4846C6.06592 13.3789 6.08692 13.2742 6.12773 13.1767C6.16853 13.0793 6.22831 12.991 6.30351 12.9171C6.37872 12.8432 6.46786 12.7852 6.56568 12.7465C6.66349 12.7078 6.76803 12.6891 6.87312 12.6916H10.0791C10.1842 12.6891 10.2887 12.7078 10.3865 12.7465C10.4843 12.7852 10.5735 12.8432 10.6487 12.9171C10.7239 12.991 10.7837 13.0793 10.8245 13.1767C10.8653 13.2742 10.8863 13.3789 10.8863 13.4846C10.8863 13.5904 10.8653 13.6951 10.8245 13.7926C10.7837 13.89 10.7239 13.9783 10.6487 14.0522C10.5735 14.1261 10.4843 14.1841 10.3865 14.2228C10.2887 14.2615 10.1842 14.2802 10.0791 14.2776Z" fill="#82AEC9"/>
<path d="M20.58 14.2776H17.233C17.0272 14.2727 16.8315 14.187 16.6877 14.0388C16.5439 13.8906 16.4634 13.6917 16.4634 13.4846C16.4634 13.2775 16.5439 13.0786 16.6877 12.9305C16.8315 12.7823 17.0272 12.6966 17.233 12.6916H20.58C20.6851 12.6891 20.7896 12.7078 20.8874 12.7465C20.9853 12.7852 21.0744 12.8432 21.1496 12.9171C21.2248 12.991 21.2846 13.0793 21.3254 13.1767C21.3662 13.2742 21.3872 13.3789 21.3872 13.4846C21.3872 13.5904 21.3662 13.6951 21.3254 13.7926C21.2846 13.89 21.2248 13.9783 21.1496 14.0522C21.0744 14.1261 20.9853 14.1841 20.8874 14.2228C20.7896 14.2615 20.6851 14.2802 20.58 14.2776Z" fill="#82AEC9"/>
<path d="M10.0799 16.68H8.46149C8.35641 16.6825 8.25187 16.6639 8.15405 16.6251C8.05624 16.5864 7.9671 16.5284 7.89189 16.4545C7.81668 16.3806 7.75694 16.2924 7.71613 16.1949C7.67533 16.0974 7.6543 15.9927 7.6543 15.887C7.6543 15.7812 7.67533 15.6765 7.71613 15.5791C7.75694 15.4816 7.81668 15.3933 7.89189 15.3194C7.9671 15.2456 8.05624 15.1875 8.15405 15.1488C8.25187 15.1101 8.35641 15.0915 8.46149 15.094H10.0799C10.185 15.0915 10.2896 15.1101 10.3874 15.1488C10.4852 15.1875 10.5743 15.2456 10.6495 15.3194C10.7247 15.3933 10.7845 15.4816 10.8253 15.5791C10.8661 15.6765 10.8871 15.7812 10.8871 15.887C10.8871 15.9927 10.8661 16.0974 10.8253 16.1949C10.7845 16.2924 10.7247 16.3806 10.6495 16.4545C10.5743 16.5284 10.4852 16.5864 10.3874 16.6251C10.2896 16.6639 10.185 16.6825 10.0799 16.68Z" fill="#82AEC9"/>
<path d="M15.656 16.68H12.4419C12.3368 16.6825 12.2323 16.6639 12.1345 16.6251C12.0367 16.5864 11.9476 16.5284 11.8724 16.4545C11.7972 16.3806 11.7374 16.2924 11.6966 16.1949C11.6558 16.0974 11.6348 15.9927 11.6348 15.887C11.6348 15.7812 11.6558 15.6765 11.6966 15.5791C11.7374 15.4816 11.7972 15.3933 11.8724 15.3194C11.9476 15.2456 12.0367 15.1875 12.1345 15.1488C12.2323 15.1101 12.3368 15.0915 12.4419 15.094H15.656C15.7611 15.0915 15.8656 15.1101 15.9634 15.1488C16.0613 15.1875 16.1504 15.2456 16.2256 15.3194C16.3008 15.3933 16.3606 15.4816 16.4014 15.5791C16.4422 15.6765 16.4632 15.7812 16.4632 15.887C16.4632 15.9927 16.4422 16.0974 16.4014 16.1949C16.3606 16.2924 16.3008 16.3806 16.2256 16.4545C16.1504 16.5284 16.0613 16.5864 15.9634 16.6251C15.8656 16.6639 15.7611 16.6825 15.656 16.68Z" fill="#82AEC9"/>
<path d="M6.90941 2.07362C6.90941 2.19344 6.87409 2.31058 6.80792 2.41021C6.74176 2.50984 6.6477 2.58749 6.53767 2.63335C6.42764 2.6792 6.30657 2.6912 6.18976 2.66782C6.07296 2.64445 5.96566 2.58675 5.88145 2.50202C5.79724 2.41729 5.73988 2.30934 5.71665 2.19181C5.69341 2.07429 5.70534 1.95248 5.75091 1.84177C5.79649 1.73107 5.87366 1.63645 5.97269 1.56988C6.07171 1.50331 6.18814 1.46777 6.30724 1.46777C6.46694 1.46777 6.6201 1.5316 6.73302 1.64522C6.84595 1.75884 6.90941 1.91294 6.90941 2.07362Z" fill="#1D365A"/>
<path d="M6.88646 15.681C6.88646 15.8009 6.85114 15.918 6.78497 16.0176C6.71881 16.1173 6.62475 16.1949 6.51472 16.2408C6.40469 16.2866 6.28362 16.2986 6.16681 16.2752C6.05001 16.2519 5.94271 16.1942 5.8585 16.1094C5.77429 16.0247 5.71693 15.9168 5.6937 15.7992C5.67047 15.6817 5.68239 15.5599 5.72797 15.4492C5.77354 15.3385 5.85074 15.2439 5.94977 15.1773C6.04879 15.1107 6.16519 15.0752 6.28429 15.0752C6.44399 15.0752 6.59717 15.139 6.7101 15.2526C6.82303 15.3663 6.88646 15.5204 6.88646 15.681Z" fill="#1D365A"/>
<path d="M4.89383 4.6653H4.09781C3.99326 4.6653 3.89299 4.62351 3.81906 4.54914C3.74514 4.47476 3.70361 4.37388 3.70361 4.26869C3.70361 4.1635 3.74514 4.06262 3.81906 3.98824C3.89299 3.91386 3.99326 3.87207 4.09781 3.87207H4.89383C4.99838 3.87207 5.09865 3.91386 5.17258 3.98824C5.24651 4.06262 5.28803 4.1635 5.28803 4.26869C5.28803 4.37388 5.24651 4.47476 5.17258 4.54914C5.09865 4.62351 4.99838 4.6653 4.89383 4.6653Z" fill="#1D365A"/>
<path d="M3.29891 7.06862H1.70914C1.60459 7.06862 1.50432 7.02684 1.43039 6.95246C1.35646 6.87808 1.31494 6.77719 1.31494 6.67201C1.31494 6.56682 1.35646 6.46594 1.43039 6.39156C1.50432 6.31718 1.60459 6.27539 1.70914 6.27539H3.29891C3.40346 6.27539 3.50374 6.31718 3.57766 6.39156C3.65159 6.46594 3.69314 6.56682 3.69314 6.67201C3.69314 6.77719 3.65159 6.87808 3.57766 6.95246C3.50374 7.02684 3.40346 7.06862 3.29891 7.06862Z" fill="#1D365A"/>
<path d="M3.30914 11.0647H0.921542C0.816994 11.0647 0.716749 11.0229 0.642822 10.9485C0.568894 10.8742 0.527344 10.7733 0.527344 10.6681C0.527344 10.5629 0.568894 10.462 0.642822 10.3876C0.716749 10.3133 0.816994 10.2715 0.921542 10.2715H3.30914C3.41369 10.2715 3.51396 10.3133 3.58789 10.3876C3.66182 10.462 3.70334 10.5629 3.70334 10.6681C3.70334 10.7733 3.66182 10.8742 3.58789 10.9485C3.51396 11.0229 3.41369 11.0647 3.30914 11.0647Z" fill="#1D365A"/>
<path d="M4.89741 13.4592H4.09781C3.99326 13.4592 3.89299 13.4175 3.81906 13.3431C3.74514 13.2687 3.70361 13.1678 3.70361 13.0626C3.70361 12.9574 3.74514 12.8566 3.81906 12.7822C3.89299 12.7078 3.99326 12.666 4.09781 12.666H4.89741C5.00196 12.666 5.10223 12.7078 5.17616 12.7822C5.25009 12.8566 5.29161 12.9574 5.29161 13.0626C5.29161 13.1678 5.25009 13.2687 5.17616 13.3431C5.10223 13.4175 5.00196 13.4592 4.89741 13.4592Z" fill="#1D365A"/>
<path d="M29.6389 8.15377C29.8529 8.42165 29.9678 8.75601 29.9639 9.0997C29.9699 9.39922 29.8882 9.6939 29.7288 9.94698C29.5616 10.1995 29.3255 10.3982 29.0488 10.519C28.7173 10.6638 28.3584 10.7342 27.9971 10.7253H25.4229V4.72049H27.8852C28.2443 4.71169 28.6013 4.77907 28.9328 4.91824C29.2041 5.03198 29.4361 5.22358 29.5999 5.46913C29.752 5.70772 29.8308 5.98614 29.8264 6.26956C29.8375 6.58567 29.7394 6.89588 29.5489 7.14748C29.3588 7.38592 29.1007 7.56009 28.8093 7.64657C29.139 7.70566 29.4348 7.88655 29.6389 8.15377ZM26.6195 7.19883H27.7146C27.9498 7.21423 28.1829 7.14564 28.3728 7.00514C28.451 6.93663 28.5125 6.85096 28.5525 6.75474C28.5926 6.65852 28.6101 6.55432 28.6038 6.45019C28.6098 6.34543 28.5922 6.24066 28.5522 6.14375C28.5122 6.04685 28.4508 5.96034 28.3728 5.89074C28.1841 5.74735 27.9506 5.677 27.7146 5.69255H26.6195V7.19883ZM28.5053 9.54113C28.5876 9.46871 28.6524 9.37828 28.6946 9.27677C28.7368 9.17527 28.7554 9.06539 28.7488 8.95555C28.7546 8.84147 28.7344 8.72757 28.69 8.62245C28.6456 8.51734 28.578 8.42377 28.4923 8.34881C28.2953 8.19398 28.0493 8.11606 27.7997 8.12944H26.6195V9.74698H27.8257C28.0696 9.76198 28.3107 9.68882 28.5057 9.54068" fill="#AB2346"/>
<path d="M32.7113 6.10524C32.9709 5.95879 33.2645 5.88448 33.562 5.88993V7.15612H33.2454C33.0856 7.1301 32.9219 7.14355 32.7684 7.19533C32.6149 7.2471 32.4762 7.33563 32.3643 7.45331C32.2524 7.57099 32.1705 7.71428 32.1259 7.87084C32.0812 8.02741 32.075 8.19255 32.1079 8.35205V10.7268H30.9111V5.95885H32.1065V6.69892C32.2543 6.4528 32.4618 6.24851 32.7096 6.10524" fill="#AB2346"/>
<path d="M35.3307 10.4973C34.9687 10.2966 34.6706 9.99674 34.4712 9.63246C34.2569 9.23702 34.1489 8.79221 34.1578 8.34194C34.1485 7.89058 34.2592 7.44493 34.4783 7.05097C34.6842 6.68573 34.9879 6.38606 35.3549 6.18612C35.7379 5.98557 36.1633 5.88086 36.5951 5.88086C37.0268 5.88086 37.4522 5.98557 37.8352 6.18612C38.2021 6.3861 38.5059 6.68576 38.7118 7.05097C38.9311 7.44487 39.0419 7.89054 39.0328 8.34194C39.042 8.79423 38.9282 9.24045 38.7037 9.63246C38.4919 9.9976 38.1841 10.2969 37.8141 10.4973C37.4286 10.704 36.9974 10.809 36.5606 10.8027C36.1307 10.8094 35.7065 10.7042 35.329 10.4973M37.1722 9.59372C37.3676 9.4828 37.5267 9.31685 37.6297 9.11625C37.7499 8.87651 37.8087 8.61035 37.8007 8.34194C37.8131 8.15275 37.7882 7.96297 37.7273 7.78353C37.6664 7.6041 37.5709 7.43856 37.4461 7.29646C37.3346 7.17831 37.1997 7.08482 37.0503 7.02193C36.9008 6.95903 36.74 6.92812 36.578 6.93115C36.4173 6.92761 36.2576 6.95833 36.1094 7.02129C35.9613 7.08425 35.828 7.17803 35.7185 7.29646C35.4714 7.5859 35.347 7.96125 35.3719 8.34194C35.3469 8.72118 35.468 9.09555 35.7099 9.38741C35.8173 9.50623 35.9489 9.60039 36.0957 9.6635C36.2424 9.72662 36.401 9.7572 36.5606 9.75317C36.7746 9.75386 36.9852 9.69865 37.1722 9.59372Z" fill="#AB2346"/>
<path d="M39.9399 7.04305C40.1143 6.68864 40.384 6.39057 40.7184 6.18271C41.0497 5.98097 41.4304 5.87658 41.8176 5.88136C42.1399 5.874 42.459 5.94802 42.7456 6.09667C42.9954 6.22681 43.2131 6.41149 43.3827 6.6372V5.95884H44.5888V10.7268H43.3827V10.029C43.2176 10.2627 42.9991 10.453 42.7456 10.584C42.4566 10.7347 42.1345 10.8101 41.809 10.8033C41.4235 10.8072 41.045 10.6996 40.7184 10.4934C40.3841 10.2798 40.1147 9.97763 39.9399 9.62004C39.7428 9.21763 39.6446 8.77353 39.6534 8.32501C39.6449 7.88057 39.7431 7.44108 39.9399 7.04305ZM43.2112 7.58899C43.1051 7.38808 42.9451 7.22122 42.7492 7.10747C42.5596 6.99661 42.344 6.93861 42.1247 6.93945C41.9044 6.93702 41.6877 6.99552 41.4982 7.10856C41.3088 7.22159 41.1538 7.38482 41.0502 7.58043C40.9286 7.80916 40.8681 8.06572 40.8747 8.32501C40.8688 8.58697 40.9292 8.84614 41.0502 9.07815C41.1565 9.28254 41.3163 9.45386 41.5122 9.57364C41.6965 9.68652 41.9081 9.74607 42.1238 9.74571C42.343 9.74662 42.5586 9.68878 42.7483 9.57814C42.9441 9.46415 43.1042 9.29716 43.2103 9.09617C43.3228 8.86132 43.3813 8.60396 43.3813 8.34325C43.3813 8.08255 43.3228 7.82519 43.2103 7.59034" fill="#AB2346"/>
<path d="M45.7026 7.04304C45.8753 6.68956 46.1442 6.39271 46.4781 6.18704C46.8119 5.98138 47.197 5.87536 47.5884 5.88135C47.8935 5.88077 48.1947 5.94992 48.4694 6.0836C48.7323 6.20505 48.9614 6.38977 49.1365 6.62142V4.3584H50.3511V10.7259H49.1365V10.0205C48.9818 10.2617 48.7665 10.4577 48.5124 10.5885C48.2242 10.7367 47.9039 10.8107 47.5803 10.8038C47.1936 10.8073 46.8139 10.6998 46.4857 10.4939C46.1495 10.2813 45.8786 9.97889 45.7031 9.62047C45.506 9.21807 45.4077 8.77397 45.4166 8.32545C45.408 7.881 45.5063 7.44105 45.7031 7.04304M48.9744 7.58943C48.8685 7.38858 48.7085 7.22173 48.5129 7.1079C48.3234 6.99712 48.1079 6.93913 47.8888 6.93989C47.6685 6.93746 47.4518 6.99596 47.2623 7.109C47.0728 7.22203 46.9179 7.38526 46.8143 7.58087C46.6927 7.80959 46.6322 8.06615 46.6388 8.32545C46.6329 8.58741 46.6933 8.84657 46.8143 9.07859C46.9206 9.28298 47.0804 9.45429 47.2763 9.57408C47.4605 9.68698 47.6721 9.74653 47.8879 9.74615C48.107 9.74698 48.3224 9.68915 48.512 9.57858C48.7076 9.46452 48.8675 9.29754 48.9736 9.09661C49.0862 8.86179 49.1447 8.60442 49.1447 8.34369C49.1447 8.08296 49.0862 7.8256 48.9736 7.59078" fill="#AB2346"/>
<path d="M52.2463 10.5909C51.9582 10.4658 51.7066 10.2687 51.5152 10.0184C51.3394 9.78756 51.2366 9.50884 51.2202 9.21845H52.4263C52.4373 9.30899 52.4669 9.39624 52.5132 9.4747C52.5594 9.55316 52.6213 9.62112 52.6949 9.6743C52.8645 9.79874 53.0708 9.8622 53.2805 9.85447C53.4686 9.86544 53.6554 9.81727 53.8151 9.71664C53.8742 9.67899 53.9228 9.62689 53.9565 9.56522C53.9901 9.50355 54.0077 9.4343 54.0076 9.36394C54.008 9.28874 53.9858 9.21517 53.9438 9.15293C53.9019 9.09069 53.8422 9.0427 53.7726 9.0153C53.5311 8.90837 53.2805 8.82335 53.024 8.76125C52.7287 8.69338 52.4385 8.60426 52.1559 8.49459C51.931 8.40316 51.7314 8.25854 51.5739 8.07297C51.4023 7.85631 51.3157 7.58386 51.3303 7.30722C51.3291 7.04907 51.4083 6.79702 51.5569 6.58651C51.7219 6.35719 51.9469 6.17848 52.2069 6.07031C52.5222 5.9374 52.8618 5.87279 53.2035 5.88067C53.6901 5.85533 54.1696 6.00654 54.5547 6.30679C54.7219 6.4486 54.8578 6.62407 54.9535 6.82189C55.0493 7.01972 55.1029 7.23552 55.1107 7.45542H53.9646C53.959 7.36795 53.9352 7.28264 53.8947 7.20504C53.8542 7.12743 53.798 7.05927 53.7296 7.00497C53.5723 6.90442 53.3915 6.84732 53.2053 6.83941C53.0191 6.8315 52.8341 6.87307 52.669 6.95993C52.6134 6.99584 52.5681 7.04564 52.5374 7.10446C52.5067 7.16329 52.4917 7.22911 52.4939 7.29551C52.4934 7.37352 52.5159 7.44994 52.5586 7.51511C52.6012 7.58028 52.662 7.6313 52.7335 7.66172C52.9719 7.77233 53.2213 7.85733 53.4775 7.91532C53.7656 7.98421 54.0485 8.07346 54.3241 8.18243C54.5479 8.27522 54.7459 8.4213 54.9012 8.6081C55.072 8.82413 55.1614 9.09389 55.1537 9.3698C55.1569 9.63425 55.0777 9.89307 54.9272 10.1099C54.7626 10.3387 54.5373 10.5162 54.2771 10.622C53.964 10.7512 53.6278 10.8141 53.2895 10.8067C52.9306 10.8126 52.5747 10.7407 52.2459 10.5959" fill="#AB2346"/>
<path d="M57.9534 6.10058C58.2396 5.95045 58.5587 5.87502 58.8815 5.88121C59.2686 5.87632 59.6493 5.98055 59.9806 6.18211C60.314 6.38916 60.5836 6.6855 60.7591 7.03795C60.9567 7.43713 61.055 7.87859 61.0457 8.32442C61.0544 8.77292 60.9561 9.217 60.7591 9.61944C60.5842 9.97693 60.3148 10.2791 59.9806 10.4928C59.6512 10.6998 59.2698 10.8074 58.8815 10.8028C58.562 10.8094 58.246 10.7354 57.9623 10.5874C57.711 10.4561 57.4908 10.2717 57.3168 10.0469V12.9982H56.1191V5.95869H57.3168V6.64697C57.484 6.41744 57.7017 6.23034 57.9534 6.10058ZM59.647 7.58028C59.5402 7.38108 59.3804 7.21575 59.1855 7.10282C58.9967 6.99438 58.7828 6.93798 58.5654 6.9393C58.3502 6.9388 58.1389 6.99685 57.9538 7.10732C57.7586 7.22364 57.5989 7.39179 57.4923 7.59335C57.3769 7.82585 57.3169 8.08214 57.3169 8.34198C57.3169 8.60183 57.3769 8.85812 57.4923 9.09062C57.5989 9.29213 57.7586 9.46027 57.9538 9.57665C58.1407 9.68702 58.3536 9.74484 58.5703 9.74405C58.7869 9.74326 58.9994 9.68388 59.1855 9.57214C59.3803 9.45331 59.5398 9.28387 59.647 9.08161C59.769 8.84847 59.8294 8.58776 59.8225 8.32442C59.8292 8.06511 59.7687 7.80899 59.647 7.58028Z" fill="#AB2346"/>
<path d="M66.2714 8.70334H62.8075C62.8177 9.01016 62.9461 9.30095 63.1657 9.51414C63.3774 9.70973 63.6565 9.81474 63.9438 9.80693C64.1415 9.81876 64.338 9.76993 64.5075 9.66689C64.677 9.56386 64.8114 9.41147 64.8929 9.22991H66.1845C66.0518 9.68332 65.7756 10.0808 65.3979 10.3619C64.9843 10.6656 64.4816 10.8214 63.9697 10.8047C63.5413 10.8116 63.1184 10.7063 62.7426 10.4993C62.3837 10.2988 62.0897 9.99857 61.896 9.63441C61.6877 9.23708 61.5833 8.793 61.5924 8.34389C61.5826 7.89231 61.6856 7.44547 61.892 7.04436C62.0819 6.68143 62.3732 6.38236 62.7301 6.18402C63.1087 5.98754 63.5282 5.88432 63.9542 5.88283C64.3802 5.88134 64.8004 5.98163 65.1803 6.17546C65.5312 6.36515 65.8195 6.65365 66.0099 7.00562C66.2117 7.38514 66.3133 7.81042 66.305 8.24074C66.3061 8.39621 66.2947 8.55152 66.2709 8.70515M65.0648 7.89435C65.0674 7.75322 65.0387 7.61329 64.9811 7.48462C64.9234 7.35595 64.8381 7.24174 64.7313 7.15022C64.5094 6.96186 64.2264 6.86228 63.9362 6.87049C63.6617 6.86207 63.3942 6.95865 63.1876 7.14076C62.9767 7.33777 62.8444 7.60537 62.8156 7.89345L65.0648 7.89435Z" fill="#AB2346"/>
<path d="M67.2982 7.04741C67.4881 6.6873 67.7758 6.38892 68.1278 6.18706C68.4987 5.97892 68.9178 5.87353 69.3424 5.88166C69.8639 5.86123 70.3772 6.01729 70.8002 6.3249C71.1948 6.63541 71.4687 7.07535 71.5742 7.56812H70.2826C70.2221 7.37281 70.1006 7.20236 69.9361 7.08209C69.7585 6.95993 69.5467 6.89821 69.3317 6.90597C69.1766 6.89955 69.0221 6.93012 68.881 6.99517C68.7399 7.06022 68.616 7.15792 68.5195 7.28029C68.3238 7.59822 68.2201 7.96482 68.2201 8.33883C68.2201 8.71284 68.3238 9.07943 68.5195 9.39737C68.616 9.51974 68.7399 9.61744 68.881 9.68249C69.0221 9.74754 69.1766 9.7781 69.3317 9.77169C69.5406 9.78972 69.7493 9.73443 69.9224 9.6152C70.0954 9.49598 70.222 9.32017 70.2808 9.11765H71.5724C71.4597 9.60505 71.1851 10.0392 70.7939 10.3483C70.3751 10.6625 69.8622 10.8233 69.3402 10.8041C68.9156 10.8123 68.4965 10.7069 68.1256 10.4987C67.7736 10.2968 67.4859 9.99841 67.296 9.63836C67.099 9.23542 66.9966 8.79237 66.9966 8.34333C66.9966 7.89429 67.099 7.45125 67.296 7.04831" fill="#AB2346"/>
<path d="M73.9307 6.94871V9.25497C73.9249 9.31797 73.9321 9.3815 73.952 9.44152C73.9719 9.50155 74.004 9.55675 74.0462 9.60362C74.1585 9.6861 74.2969 9.72425 74.4353 9.71082H74.9913V10.7261H74.2387C73.2296 10.7261 72.725 10.2329 72.725 9.24642V6.94916H72.1587V5.95818H72.7232V4.78027H73.9289V5.95908H74.9895V6.95006L73.9307 6.94871Z" fill="#AB2346"/>
<path d="M77.7728 6.10524C78.0323 5.95878 78.3259 5.88446 78.6234 5.88993V7.15612H78.3069C78.1471 7.12999 77.9833 7.14337 77.8298 7.1951C77.6762 7.24683 77.5375 7.33537 77.4255 7.45308C77.3135 7.57078 77.2317 7.71412 77.1871 7.87073C77.1424 8.02735 77.1363 8.19253 77.1693 8.35205V10.7268H75.9717V5.95885H77.1693V6.69892C77.317 6.45274 77.525 6.24844 77.7728 6.10524Z" fill="#AB2346"/>
<path d="M83.9234 5.95996V10.727H82.7174V10.1248C82.5596 10.3345 82.3526 10.5016 82.1147 10.6108C81.8618 10.7293 81.5857 10.7895 81.3066 10.7869C80.9636 10.7941 80.6245 10.7127 80.3217 10.5504C80.0342 10.3902 79.8004 10.1477 79.6501 9.85359C79.4801 9.51384 79.3964 9.137 79.4066 8.75676V5.95996H80.6042V8.58469C80.5832 8.90133 80.6842 9.21392 80.8862 9.45765C80.9854 9.56096 81.1053 9.64168 81.2381 9.69437C81.3709 9.74705 81.5133 9.77047 81.6558 9.76305C81.7997 9.77104 81.9436 9.74791 82.0778 9.69523C82.212 9.64255 82.3335 9.56154 82.434 9.45765C82.636 9.21395 82.737 8.90133 82.716 8.58469V5.95996H83.9234Z" fill="#AB2346"/>
<path d="M92.4642 6.42832C92.6495 6.62934 92.7924 6.86605 92.8842 7.12416C92.9761 7.38227 93.0151 7.65643 92.9987 7.9301V10.7264H91.8016V8.09316C91.8226 7.78164 91.7211 7.47429 91.519 7.23732C91.4186 7.13641 91.2981 7.05785 91.1656 7.00672C91.033 6.95558 90.8912 6.93302 90.7495 6.94048C90.607 6.93333 90.4647 6.95602 90.3315 7.00712C90.1982 7.05822 90.0769 7.13661 89.9754 7.23732C89.874 7.35402 89.7966 7.48968 89.7474 7.63654C89.6983 7.78339 89.6784 7.93856 89.6889 8.09316V10.7264H88.4917V8.09316C88.5126 7.78174 88.4113 7.47448 88.2096 7.23732C88.1091 7.13643 87.9887 7.05789 87.8562 7.00676C87.7236 6.95563 87.5818 6.93305 87.4401 6.94048C87.2963 6.93274 87.1525 6.95512 87.0178 7.00622C86.8831 7.05732 86.7604 7.13601 86.6575 7.23732C86.5562 7.35405 86.4788 7.48971 86.4296 7.63656C86.3804 7.78341 86.3605 7.93856 86.371 8.09316V10.7264H85.1733V5.95941H86.371V6.53598C86.5284 6.33245 86.7324 6.17019 86.9655 6.06301C87.216 5.94648 87.4892 5.8877 87.7651 5.89094C88.1103 5.88486 88.4514 5.96618 88.7572 6.12743C89.0436 6.28087 89.2786 6.5159 89.4328 6.80309C89.591 6.5238 89.8236 6.29448 90.1043 6.14094C90.4789 5.93669 90.9073 5.8547 91.3302 5.90636C91.7531 5.95801 92.1495 6.14074 92.4646 6.42922" fill="#AB2346"/>
</svg>
