<svg width="93" height="17" viewBox="0 0 93 17" fill="none" xmlns="http://www.w3.org/2000/svg">
<path d="M15.6277 1.59698H12.4136C12.3085 1.5995 12.204 1.58085 12.1062 1.54213C12.0084 1.50341 11.9192 1.4454 11.844 1.37151C11.7688 1.29763 11.7091 1.20936 11.6683 1.11189C11.6275 1.01442 11.6064 0.909732 11.6064 0.803973C11.6064 0.698214 11.6275 0.593522 11.6683 0.496056C11.7091 0.398591 11.7688 0.310318 11.844 0.236431C11.9192 0.162544 12.0084 0.104535 12.1062 0.0658157C12.204 0.0270961 12.3085 0.00844738 12.4136 0.0109674H15.6277C15.7328 0.00844738 15.8373 0.0270961 15.9351 0.0658157C16.0329 0.104535 16.1221 0.162544 16.1973 0.236431C16.2725 0.310318 16.3322 0.398591 16.373 0.496056C16.4138 0.593522 16.4349 0.698214 16.4349 0.803973C16.4349 0.909732 16.4138 1.01442 16.373 1.11189C16.3322 1.20936 16.2725 1.29763 16.1973 1.37151C16.1221 1.4454 16.0329 1.50341 15.9351 1.54213C15.8373 1.58085 15.7328 1.5995 15.6277 1.59698Z" fill="#AB2346"/>
<path d="M17.2233 4.0003H12.4141C12.309 4.00282 12.2045 3.98417 12.1067 3.94545C12.0089 3.90673 11.9197 3.84872 11.8445 3.77484C11.7693 3.70095 11.7095 3.61268 11.6687 3.51521C11.6279 3.41774 11.6069 3.31305 11.6069 3.20729C11.6069 3.10153 11.6279 2.99684 11.6687 2.89938C11.7095 2.80191 11.7693 2.71364 11.8445 2.63975C11.9197 2.56586 12.0089 2.50786 12.1067 2.46914C12.2045 2.43042 12.309 2.41177 12.4141 2.41429H17.2233C17.3284 2.41177 17.4329 2.43042 17.5308 2.46914C17.6286 2.50786 17.7177 2.56586 17.7929 2.63975C17.8681 2.71364 17.9279 2.80191 17.9687 2.89938C18.0095 2.99684 18.0305 3.10153 18.0305 3.20729C18.0305 3.31305 18.0095 3.41774 17.9687 3.51521C17.9279 3.61268 17.8681 3.70095 17.7929 3.77484C17.7177 3.84872 17.6286 3.90673 17.5308 3.94545C17.4329 3.98417 17.3284 4.00282 17.2233 4.0003Z" fill="#AB2346"/>
<path d="M18.8073 6.40264H12.4136C12.2079 6.3977 12.0122 6.31199 11.8684 6.16381C11.7245 6.01563 11.644 5.81674 11.644 5.60964C11.644 5.40253 11.7245 5.20364 11.8684 5.05546C12.0122 4.90728 12.2079 4.82157 12.4136 4.81663H18.8073C18.9124 4.81411 19.0169 4.83276 19.1147 4.87148C19.2125 4.9102 19.3017 4.96821 19.3769 5.04209C19.4521 5.11598 19.5118 5.20425 19.5526 5.30172C19.5934 5.39918 19.6145 5.50388 19.6145 5.60964C19.6145 5.71539 19.5934 5.82009 19.5526 5.91755C19.5118 6.01502 19.4521 6.10329 19.3769 6.17718C19.3017 6.25106 19.2125 6.30907 19.1147 6.34779C19.0169 6.38651 18.9124 6.40516 18.8073 6.40264Z" fill="#AB2346"/>
<path d="M15.6277 11.2093H12.4136C12.3085 11.2118 12.204 11.1932 12.1062 11.1544C12.0084 11.1157 11.9192 11.0577 11.844 10.9838C11.7688 10.9099 11.7091 10.8217 11.6683 10.7242C11.6275 10.6267 11.6064 10.522 11.6064 10.4163C11.6064 10.3105 11.6275 10.2058 11.6683 10.1084C11.7091 10.0109 11.7688 9.92262 11.844 9.84874C11.9192 9.77485 12.0084 9.71684 12.1062 9.67812C12.204 9.6394 12.3085 9.62075 12.4136 9.62327H15.6277C15.7328 9.62075 15.8373 9.6394 15.9351 9.67812C16.0329 9.71684 16.1221 9.77485 16.1973 9.84874C16.2725 9.92262 16.3322 10.0109 16.373 10.1084C16.4138 10.2058 16.4349 10.3105 16.4349 10.4163C16.4349 10.522 16.4138 10.6267 16.373 10.7242C16.3322 10.8217 16.2725 10.9099 16.1973 10.9838C16.1221 11.0577 16.0329 11.1157 15.9351 11.1544C15.8373 11.1932 15.7328 11.2118 15.6277 11.2093Z" fill="#AB2346"/>
<path d="M14.8305 13.6116H12.4129C12.3078 13.6141 12.2033 13.5955 12.1055 13.5568C12.0077 13.5181 11.9185 13.46 11.8433 13.3862C11.7681 13.3123 11.7084 13.224 11.6676 13.1265C11.6267 13.0291 11.6057 12.9244 11.6057 12.8186C11.6057 12.7129 11.6267 12.6082 11.6676 12.5107C11.7084 12.4132 11.7681 12.325 11.8433 12.2511C11.9185 12.1772 12.0077 12.1192 12.1055 12.0805C12.2033 12.0417 12.3078 12.0231 12.4129 12.0256H14.8305C14.9356 12.0231 15.0401 12.0417 15.1379 12.0805C15.2357 12.1192 15.3249 12.1772 15.4001 12.2511C15.4753 12.325 15.5351 12.4132 15.5759 12.5107C15.6167 12.6082 15.6377 12.7129 15.6377 12.8186C15.6377 12.9244 15.6167 13.0291 15.5759 13.1265C15.5351 13.224 15.4753 13.3123 15.4001 13.3862C15.3249 13.46 15.2357 13.5181 15.1379 13.5568C15.0401 13.5955 14.9356 13.6141 14.8305 13.6116Z" fill="#AB2346"/>
<path d="M10.0516 1.59698H8.43317C8.32809 1.5995 8.22355 1.58085 8.12573 1.54213C8.02792 1.50341 7.93878 1.4454 7.86357 1.37151C7.78836 1.29763 7.72862 1.20936 7.68781 1.11189C7.64701 1.01442 7.62598 0.909732 7.62598 0.803973C7.62598 0.698214 7.64701 0.593522 7.68781 0.496056C7.72862 0.398591 7.78836 0.310318 7.86357 0.236431C7.93878 0.162544 8.02792 0.104535 8.12573 0.0658157C8.22355 0.0270961 8.32809 0.00844738 8.43317 0.0109674H10.0516C10.1567 0.00844738 10.2612 0.0270961 10.3591 0.0658157C10.4569 0.104535 10.546 0.162544 10.6212 0.236431C10.6964 0.310318 10.7562 0.398591 10.797 0.496056C10.8378 0.593522 10.8588 0.698214 10.8588 0.803973C10.8588 0.909732 10.8378 1.01442 10.797 1.11189C10.7562 1.20936 10.6964 1.29763 10.6212 1.37151C10.546 1.4454 10.4569 1.50341 10.3591 1.54213C10.2612 1.58085 10.1567 1.5995 10.0516 1.59698Z" fill="#82AEC9"/>
<path d="M10.0518 4.0003H6.85114C6.74606 4.00282 6.64155 3.98417 6.54373 3.94545C6.44591 3.90673 6.35678 3.84872 6.28157 3.77484C6.20636 3.70095 6.14659 3.61268 6.10578 3.51521C6.06498 3.41774 6.04395 3.31305 6.04395 3.20729C6.04395 3.10153 6.06498 2.99684 6.10578 2.89938C6.14659 2.80191 6.20636 2.71364 6.28157 2.63975C6.35678 2.56586 6.44591 2.50786 6.54373 2.46914C6.64155 2.43042 6.74606 2.41177 6.85114 2.41429H10.0518C10.1568 2.41177 10.2614 2.43042 10.3592 2.46914C10.457 2.50786 10.5462 2.56586 10.6214 2.63975C10.6966 2.71364 10.7563 2.80191 10.7971 2.89938C10.838 2.99684 10.859 3.10153 10.859 3.20729C10.859 3.31305 10.838 3.41774 10.7971 3.51521C10.7563 3.61268 10.6966 3.70095 10.6214 3.77484C10.5462 3.84872 10.457 3.90673 10.3592 3.94545C10.2614 3.98417 10.1568 4.00282 10.0518 4.0003Z" fill="#82AEC9"/>
<path d="M10.0508 6.40264H5.26618C5.1611 6.40516 5.05656 6.38651 4.95874 6.34779C4.86092 6.30907 4.77179 6.25106 4.69658 6.17718C4.62137 6.10329 4.5616 6.01502 4.52079 5.91755C4.47999 5.82009 4.45898 5.71539 4.45898 5.60964C4.45898 5.50388 4.47999 5.39918 4.52079 5.30172C4.5616 5.20425 4.62137 5.11598 4.69658 5.04209C4.77179 4.96821 4.86092 4.9102 4.95874 4.87148C5.05656 4.83276 5.1611 4.81411 5.26618 4.81663H10.0508C10.1558 4.81411 10.2604 4.83276 10.3582 4.87148C10.456 4.9102 10.5451 4.96821 10.6204 5.04209C10.6956 5.11598 10.7553 5.20425 10.7961 5.30172C10.8369 5.39918 10.8579 5.50388 10.8579 5.60964C10.8579 5.71539 10.8369 5.82009 10.7961 5.91755C10.7553 6.01502 10.6956 6.10329 10.6204 6.17718C10.5451 6.25106 10.456 6.30907 10.3582 6.34779C10.2604 6.38651 10.1558 6.40516 10.0508 6.40264Z" fill="#82AEC9"/>
<path d="M10.0516 8.80596H3.6656C3.56051 8.80848 3.456 8.78983 3.35818 8.75111C3.26037 8.71239 3.17123 8.65438 3.09602 8.5805C3.02081 8.50661 2.96104 8.41834 2.92024 8.32087C2.87943 8.22341 2.8584 8.11871 2.8584 8.01296C2.8584 7.9072 2.87943 7.80251 2.92024 7.70504C2.96104 7.60757 3.02081 7.5193 3.09602 7.44541C3.17123 7.37153 3.26037 7.31352 3.35818 7.2748C3.456 7.23608 3.56051 7.21743 3.6656 7.21995H10.0516C10.1567 7.21743 10.2612 7.23608 10.359 7.2748C10.4569 7.31352 10.546 7.37153 10.6212 7.44541C10.6964 7.5193 10.7562 7.60757 10.797 7.70504C10.8378 7.80251 10.8588 7.9072 10.8588 8.01296C10.8588 8.11871 10.8378 8.22341 10.797 8.32087C10.7562 8.41834 10.6964 8.50661 10.6212 8.5805C10.546 8.65438 10.4569 8.71239 10.359 8.75111C10.2612 8.78983 10.1567 8.80848 10.0516 8.80596Z" fill="#82AEC9"/>
<path d="M20.4032 8.80596H12.4144C12.3093 8.80848 12.2048 8.78983 12.1069 8.75111C12.0091 8.71239 11.92 8.65438 11.8448 8.5805C11.7696 8.50661 11.7098 8.41834 11.669 8.32087C11.6282 8.22341 11.6072 8.11871 11.6072 8.01296C11.6072 7.9072 11.6282 7.80251 11.669 7.70504C11.7098 7.60757 11.7696 7.5193 11.8448 7.44541C11.92 7.37153 12.0091 7.31352 12.1069 7.2748C12.2048 7.23608 12.3093 7.21743 12.4144 7.21995H20.4032C20.5083 7.21743 20.6128 7.23608 20.7106 7.2748C20.8084 7.31352 20.8975 7.37153 20.9727 7.44541C21.048 7.5193 21.1077 7.60757 21.1485 7.70504C21.1893 7.80251 21.2103 7.9072 21.2103 8.01296C21.2103 8.11871 21.1893 8.22341 21.1485 8.32087C21.1077 8.41834 21.048 8.50661 20.9727 8.5805C20.8975 8.65438 20.8084 8.71239 20.7106 8.75111C20.6128 8.78983 20.5083 8.80848 20.4032 8.80596Z" fill="#82AEC9"/>
<path d="M10.0515 11.2093H5.26105C5.15597 11.2118 5.05146 11.1932 4.95364 11.1544C4.85582 11.1157 4.76669 11.0577 4.69148 10.9838C4.61627 10.9099 4.5565 10.8217 4.5157 10.7242C4.47489 10.6267 4.45386 10.522 4.45386 10.4163C4.45386 10.3105 4.47489 10.2058 4.5157 10.1084C4.5565 10.0109 4.61627 9.92262 4.69148 9.84874C4.76669 9.77485 4.85582 9.71684 4.95364 9.67812C5.05146 9.6394 5.15597 9.62075 5.26105 9.62327H10.0515C10.1566 9.62075 10.2611 9.6394 10.3589 9.67812C10.4567 9.71684 10.5458 9.77485 10.621 9.84874C10.6963 9.92262 10.756 10.0109 10.7968 10.1084C10.8376 10.2058 10.8587 10.3105 10.8587 10.4163C10.8587 10.522 10.8376 10.6267 10.7968 10.7242C10.756 10.8217 10.6963 10.9099 10.621 10.9838C10.5458 11.0577 10.4567 11.1157 10.3589 11.1544C10.2611 11.1932 10.1566 11.2118 10.0515 11.2093Z" fill="#82AEC9"/>
<path d="M20.4033 11.2093H17.9889C17.7831 11.2043 17.5874 11.1186 17.4436 10.9705C17.2997 10.8223 17.2192 10.6234 17.2192 10.4163C17.2192 10.2092 17.2997 10.0103 17.4436 9.8621C17.5874 9.71392 17.7831 9.62821 17.9889 9.62327H20.4033C20.5084 9.62075 20.6129 9.6394 20.7108 9.67812C20.8086 9.71684 20.8977 9.77485 20.9729 9.84874C21.0481 9.92262 21.1079 10.0109 21.1487 10.1084C21.1895 10.2058 21.2105 10.3105 21.2105 10.4163C21.2105 10.522 21.1895 10.6267 21.1487 10.7242C21.1079 10.8217 21.0481 10.9099 20.9729 10.9838C20.8977 11.0577 20.8086 11.1157 20.7108 11.1544C20.6129 11.1932 20.5084 11.2118 20.4033 11.2093Z" fill="#82AEC9"/>
<path d="M10.0505 13.6116H6.84455C6.73946 13.6141 6.63493 13.5955 6.53711 13.5568C6.43929 13.5181 6.35016 13.46 6.27495 13.3862C6.19974 13.3123 6.13997 13.224 6.09916 13.1265C6.05836 13.0291 6.03735 12.9244 6.03735 12.8186C6.03735 12.7129 6.05836 12.6082 6.09916 12.5107C6.13997 12.4132 6.19974 12.325 6.27495 12.2511C6.35016 12.1772 6.43929 12.1192 6.53711 12.0805C6.63493 12.0417 6.73946 12.0231 6.84455 12.0256H10.0505C10.1556 12.0231 10.2601 12.0417 10.358 12.0805C10.4558 12.1192 10.5449 12.1772 10.6201 12.2511C10.6953 12.325 10.7551 12.4132 10.7959 12.5107C10.8367 12.6082 10.8577 12.7129 10.8577 12.8186C10.8577 12.9244 10.8367 13.0291 10.7959 13.1265C10.7551 13.224 10.6953 13.3123 10.6201 13.3862C10.5449 13.46 10.4558 13.5181 10.358 13.5568C10.2601 13.5955 10.1556 13.6141 10.0505 13.6116Z" fill="#82AEC9"/>
<path d="M20.5517 13.6116H17.2047C16.9989 13.6067 16.8032 13.521 16.6594 13.3728C16.5156 13.2246 16.4351 13.0257 16.4351 12.8186C16.4351 12.6115 16.5156 12.4126 16.6594 12.2644C16.8032 12.1163 16.9989 12.0306 17.2047 12.0256H20.5517C20.6568 12.0231 20.7613 12.0417 20.8591 12.0805C20.9569 12.1192 21.0461 12.1772 21.1213 12.2511C21.1965 12.325 21.2563 12.4132 21.2971 12.5107C21.3379 12.6082 21.3589 12.7129 21.3589 12.8186C21.3589 12.9244 21.3379 13.0291 21.2971 13.1265C21.2563 13.224 21.1965 13.3123 21.1213 13.3862C21.0461 13.46 20.9569 13.5181 20.8591 13.5568C20.7613 13.5955 20.6568 13.6141 20.5517 13.6116Z" fill="#82AEC9"/>
<path d="M10.0516 16.0149H8.43317C8.32809 16.0175 8.22355 15.9988 8.12573 15.9601C8.02792 15.9214 7.93878 15.8634 7.86357 15.7895C7.78836 15.7156 7.72862 15.6273 7.68781 15.5299C7.64701 15.4324 7.62598 15.3277 7.62598 15.2219C7.62598 15.1162 7.64701 15.0115 7.68781 14.914C7.72862 14.8166 7.78836 14.7283 7.86357 14.6544C7.93878 14.5805 8.02792 14.5225 8.12573 14.4838C8.22355 14.4451 8.32809 14.4264 8.43317 14.4289H10.0516C10.1567 14.4264 10.2612 14.4451 10.3591 14.4838C10.4569 14.5225 10.546 14.5805 10.6212 14.6544C10.6964 14.7283 10.7562 14.8166 10.797 14.914C10.8378 15.0115 10.8588 15.1162 10.8588 15.2219C10.8588 15.3277 10.8378 15.4324 10.797 15.5299C10.7562 15.6273 10.6964 15.7156 10.6212 15.7895C10.546 15.8634 10.4569 15.9214 10.3591 15.9601C10.2612 15.9988 10.1567 16.0175 10.0516 16.0149Z" fill="#82AEC9"/>
<path d="M15.6277 16.0149H12.4136C12.3085 16.0175 12.204 15.9988 12.1062 15.9601C12.0084 15.9214 11.9192 15.8634 11.844 15.7895C11.7688 15.7156 11.7091 15.6273 11.6683 15.5299C11.6275 15.4324 11.6064 15.3277 11.6064 15.2219C11.6064 15.1162 11.6275 15.0115 11.6683 14.914C11.7091 14.8166 11.7688 14.7283 11.844 14.6544C11.9192 14.5805 12.0084 14.5225 12.1062 14.4838C12.204 14.4451 12.3085 14.4264 12.4136 14.4289H15.6277C15.7328 14.4264 15.8373 14.4451 15.9351 14.4838C16.0329 14.5225 16.1221 14.5805 16.1973 14.6544C16.2725 14.7283 16.3322 14.8166 16.373 14.914C16.4138 15.0115 16.4349 15.1162 16.4349 15.2219C16.4349 15.3277 16.4138 15.4324 16.373 15.5299C16.3322 15.6273 16.2725 15.7156 16.1973 15.7895C16.1221 15.8634 16.0329 15.9214 15.9351 15.9601C15.8373 15.9988 15.7328 16.0175 15.6277 16.0149Z" fill="#82AEC9"/>
<path d="M6.88133 1.40956C6.88133 1.52938 6.84601 1.64652 6.77985 1.74615C6.71368 1.84578 6.61963 1.92343 6.5096 1.96929C6.39957 2.01514 6.27849 2.02714 6.16169 2.00376C6.04488 1.98039 5.93759 1.92268 5.85337 1.83795C5.76916 1.75323 5.71181 1.64527 5.68857 1.52775C5.66534 1.41023 5.67726 1.28841 5.72284 1.17771C5.76841 1.06701 5.84559 0.972385 5.94461 0.905814C6.04364 0.839243 6.16006 0.803711 6.27916 0.803711C6.43886 0.803711 6.59202 0.867542 6.70495 0.98116C6.81787 1.09478 6.88133 1.24888 6.88133 1.40956Z" fill="#1D365A"/>
<path d="M6.85814 15.016C6.85814 15.1358 6.82282 15.253 6.75665 15.3526C6.69049 15.4522 6.59643 15.5299 6.4864 15.5757C6.37637 15.6216 6.2553 15.6336 6.13849 15.6102C6.02169 15.5868 5.91439 15.5291 5.83018 15.4444C5.74597 15.3597 5.68861 15.2517 5.66538 15.1342C5.64214 15.0167 5.65407 14.8949 5.69965 14.7842C5.74522 14.6734 5.82242 14.5788 5.92145 14.5123C6.02047 14.4457 6.13687 14.4102 6.25597 14.4102C6.41567 14.4102 6.56885 14.474 6.68178 14.5876C6.79471 14.7012 6.85814 14.8553 6.85814 15.016Z" fill="#1D365A"/>
<path d="M4.86502 4.00124H4.069C3.96445 4.00124 3.86418 3.95945 3.79026 3.88507C3.71633 3.81069 3.6748 3.70981 3.6748 3.60462C3.6748 3.49944 3.71633 3.39855 3.79026 3.32417C3.86418 3.24979 3.96445 3.20801 4.069 3.20801H4.86502C4.96957 3.20801 5.06985 3.24979 5.14377 3.32417C5.2177 3.39855 5.25922 3.49944 5.25922 3.60462C5.25922 3.70981 5.2177 3.81069 5.14377 3.88507C5.06985 3.95945 4.96957 4.00124 4.86502 4.00124Z" fill="#1D365A"/>
<path d="M3.27011 6.40358H1.68033C1.57578 6.40358 1.47551 6.3618 1.40158 6.28742C1.32766 6.21304 1.28613 6.11216 1.28613 6.00697C1.28613 5.90178 1.32766 5.8009 1.40158 5.72652C1.47551 5.65214 1.57578 5.61035 1.68033 5.61035H3.27011C3.37465 5.61035 3.47493 5.65214 3.54885 5.72652C3.62278 5.8009 3.66433 5.90178 3.66433 6.00697C3.66433 6.11216 3.62278 6.21304 3.54885 6.28742C3.47493 6.3618 3.37465 6.40358 3.27011 6.40358Z" fill="#1D365A"/>
<path d="M3.28082 10.3987H0.893222C0.788673 10.3987 0.688428 10.3569 0.614501 10.2825C0.540574 10.2082 0.499023 10.1073 0.499023 10.0021C0.499023 9.8969 0.540574 9.79601 0.614501 9.72163C0.688428 9.64725 0.788673 9.60547 0.893222 9.60547H3.28082C3.38537 9.60547 3.48564 9.64725 3.55957 9.72163C3.6335 9.79601 3.67502 9.8969 3.67502 10.0021C3.67502 10.1073 3.6335 10.2082 3.55957 10.2825C3.48564 10.3569 3.38537 10.3987 3.28082 10.3987Z" fill="#1D365A"/>
<path d="M4.86885 12.7942H4.06925C3.9647 12.7942 3.86443 12.7524 3.7905 12.678C3.71657 12.6037 3.67505 12.5028 3.67505 12.3976C3.67505 12.2924 3.71657 12.1915 3.7905 12.1171C3.86443 12.0428 3.9647 12.001 4.06925 12.001H4.86885C4.9734 12.001 5.07367 12.0428 5.1476 12.1171C5.22152 12.1915 5.26305 12.2924 5.26305 12.3976C5.26305 12.5028 5.22152 12.6037 5.1476 12.678C5.07367 12.7524 4.9734 12.7942 4.86885 12.7942Z" fill="#1D365A"/>
<path d="M29.6103 7.48873C29.8243 7.75661 29.9392 8.09098 29.9353 8.43466C29.9414 8.73418 29.8596 9.02886 29.7003 9.28194C29.533 9.53451 29.2969 9.73315 29.0202 9.854C28.6887 9.99875 28.3299 10.0691 27.9686 10.0603H25.3943V4.05545H27.8566C28.2158 4.04665 28.5727 4.11403 28.9043 4.2532C29.1756 4.36694 29.4076 4.55854 29.5714 4.80409C29.7234 5.04269 29.8022 5.32111 29.7979 5.60452C29.8089 5.92063 29.7108 6.23084 29.5203 6.48244C29.3302 6.72088 29.0721 6.89505 28.7807 6.98153C29.1104 7.04062 29.4063 7.22151 29.6103 7.48873ZM26.591 6.53379H27.6861C27.9213 6.54919 28.1543 6.4806 28.3442 6.3401C28.4224 6.27159 28.4839 6.18592 28.524 6.0897C28.564 5.99348 28.5815 5.88928 28.5752 5.78515C28.5813 5.68039 28.5636 5.57562 28.5236 5.47871C28.4836 5.38181 28.4222 5.2953 28.3442 5.2257C28.1556 5.08231 27.922 5.01197 27.6861 5.02751H26.591V6.53379ZM28.4767 8.87609C28.5591 8.80367 28.6238 8.71324 28.666 8.61173C28.7082 8.51023 28.7268 8.40035 28.7203 8.29051C28.726 8.17643 28.7059 8.06253 28.6614 7.95741C28.617 7.8523 28.5494 7.75873 28.4637 7.68377C28.2668 7.52894 28.0207 7.45102 27.7711 7.4644H26.591V9.08194H27.7971C28.041 9.09694 28.2822 9.02378 28.4772 8.87564" fill="#AB2346"/>
<path d="M32.6828 5.44118C32.9423 5.29473 33.2359 5.22042 33.5334 5.22587V6.49206H33.2169C33.0571 6.46604 32.8934 6.47949 32.7399 6.53126C32.5864 6.58304 32.4477 6.67157 32.3357 6.78925C32.2238 6.90693 32.142 7.05022 32.0973 7.20678C32.0526 7.36334 32.0464 7.52848 32.0793 7.68798V10.0627H30.8826V5.29478H32.0779V6.03486C32.2257 5.78874 32.4332 5.58445 32.681 5.44118" fill="#AB2346"/>
<path d="M35.3029 9.83227C34.9408 9.63158 34.6428 9.3317 34.4433 8.96742C34.2291 8.57198 34.1211 8.12717 34.1299 7.6769C34.1207 7.22554 34.2314 6.77989 34.4505 6.38593C34.6564 6.0207 34.9601 5.72102 35.3271 5.52108C35.7101 5.32053 36.1355 5.21582 36.5672 5.21582C36.999 5.21582 37.4244 5.32053 37.8073 5.52108C38.1743 5.72106 38.478 6.02073 38.684 6.38593C38.9032 6.77984 39.0141 7.2255 39.005 7.6769C39.0141 8.12919 38.9003 8.57541 38.6759 8.96742C38.4641 9.33257 38.1563 9.63183 37.7863 9.83227C37.4008 10.0389 36.9695 10.144 36.5327 10.1377C36.1029 10.1443 35.6787 10.0391 35.3011 9.83227M37.1443 8.92868C37.3398 8.81777 37.4988 8.65181 37.6019 8.45121C37.7221 8.21147 37.7809 7.94531 37.7729 7.6769C37.7853 7.48771 37.7603 7.29793 37.6995 7.11849C37.6386 6.93906 37.5431 6.77352 37.4183 6.63142C37.3067 6.51327 37.1719 6.41978 37.0224 6.35689C36.873 6.294 36.7122 6.26308 36.5502 6.26611C36.3894 6.26257 36.2297 6.29329 36.0816 6.35625C35.9334 6.41921 35.8002 6.51299 35.6906 6.63142C35.4436 6.92086 35.3192 7.29621 35.3441 7.6769C35.3191 8.05614 35.4401 8.43051 35.6821 8.72238C35.7895 8.84119 35.9211 8.93535 36.0678 8.99847C36.2146 9.06158 36.3732 9.09216 36.5327 9.08813C36.7468 9.08882 36.9574 9.03362 37.1443 8.92868Z" fill="#AB2346"/>
<path d="M39.9116 6.37801C40.086 6.02361 40.3557 5.72553 40.6901 5.51767C41.0213 5.31593 41.4021 5.21154 41.7892 5.21632C42.1116 5.20896 42.4307 5.28299 42.7173 5.43163C42.9671 5.56177 43.1847 5.74645 43.3544 5.97216V5.2938H44.5605V10.0617H43.3544V9.364C43.1893 9.59763 42.9708 9.78795 42.7173 9.91895C42.4283 10.0697 42.1062 10.1451 41.7807 10.1383C41.3952 10.1421 41.0167 10.0346 40.6901 9.82841C40.3558 9.6148 40.0864 9.31259 39.9116 8.955C39.7145 8.55259 39.6163 8.10849 39.6251 7.65997C39.6166 7.21553 39.7148 6.77604 39.9116 6.37801ZM43.1829 6.92395C43.0768 6.72304 42.9167 6.55618 42.7209 6.44243C42.5313 6.33157 42.3157 6.27357 42.0964 6.27441C41.8761 6.27199 41.6594 6.33048 41.4699 6.44352C41.2804 6.55655 41.1255 6.71978 41.0219 6.91539C40.9003 7.14412 40.8398 7.40068 40.8464 7.65997C40.8404 7.92193 40.9009 8.1811 41.0219 8.41311C41.1282 8.6175 41.2879 8.78882 41.4839 8.9086C41.6681 9.02148 41.8797 9.08103 42.0954 9.08067C42.3147 9.08158 42.5303 9.02374 42.72 8.91311C42.9158 8.79911 43.0759 8.63212 43.182 8.43113C43.2945 8.19628 43.3529 7.93892 43.3529 7.67822C43.3529 7.41751 43.2945 7.16016 43.182 6.9253" fill="#AB2346"/>
<path d="M45.6746 6.378C45.8472 6.02452 46.1161 5.72767 46.45 5.522C46.7838 5.31634 47.1689 5.21032 47.5603 5.21631C47.8654 5.21573 48.1667 5.28488 48.4414 5.41856C48.7042 5.54001 48.9333 5.72473 49.1084 5.95639V3.69336H50.323V10.0608H49.1084V9.35543C48.9537 9.59671 48.7384 9.79264 48.4843 9.92344C48.1961 10.0717 47.8759 10.1457 47.5522 10.1388C47.1655 10.1422 46.7858 10.0347 46.4576 9.82884C46.1214 9.61622 45.8505 9.31386 45.675 8.95543C45.4779 8.55304 45.3797 8.10893 45.3885 7.66041C45.38 7.21596 45.4783 6.77601 45.675 6.378M48.9464 6.92439C48.8404 6.72354 48.6805 6.55669 48.4848 6.44287C48.2953 6.33209 48.0799 6.27409 47.8607 6.27485C47.6404 6.27242 47.4237 6.33092 47.2342 6.44396C47.0448 6.55699 46.8898 6.72022 46.7862 6.91583C46.6646 7.14455 46.6042 7.40112 46.6107 7.66041C46.6048 7.92237 46.6652 8.18153 46.7862 8.41355C46.8925 8.61794 47.0523 8.78926 47.2482 8.90904C47.4325 9.02194 47.6441 9.08149 47.8598 9.08111C48.0789 9.08194 48.2943 9.02411 48.4839 8.91355C48.6795 8.79948 48.8395 8.6325 48.9455 8.43157C49.0581 8.19675 49.1166 7.93938 49.1166 7.67866C49.1166 7.41793 49.0581 7.16056 48.9455 6.92574" fill="#AB2346"/>
<path d="M52.2183 9.92591C51.9301 9.80072 51.6785 9.60368 51.4872 9.3534C51.3114 9.12252 51.2086 8.8438 51.1921 8.55341H52.3982C52.4093 8.64395 52.4388 8.7312 52.4851 8.80966C52.5313 8.88812 52.5932 8.95608 52.6669 9.00926C52.8365 9.1337 53.0427 9.19716 53.2525 9.18943C53.4405 9.2004 53.6273 9.15223 53.787 9.0516C53.8461 9.01395 53.8947 8.96186 53.9284 8.90018C53.962 8.83851 53.9796 8.76926 53.9795 8.6989C53.9799 8.6237 53.9577 8.55013 53.9158 8.48789C53.8738 8.42565 53.8141 8.37766 53.7445 8.35026C53.503 8.24333 53.2525 8.15831 52.9959 8.09621C52.7006 8.02834 52.4105 7.93922 52.1278 7.82955C51.903 7.73812 51.7033 7.5935 51.5458 7.40794C51.3742 7.19127 51.2876 6.91882 51.3023 6.64218C51.3011 6.38403 51.3803 6.13199 51.5288 5.92147C51.6938 5.69215 51.9188 5.51344 52.1789 5.40527C52.4941 5.27236 52.8337 5.20775 53.1755 5.21563C53.662 5.19029 54.1415 5.3415 54.5266 5.64175C54.6938 5.78356 54.8297 5.95903 54.9255 6.15685C55.0212 6.35468 55.0748 6.57048 55.0827 6.79038H53.9366C53.931 6.70291 53.9072 6.6176 53.8667 6.54C53.8262 6.46239 53.7699 6.39423 53.7015 6.33993C53.5442 6.23938 53.3634 6.18228 53.1772 6.17437C52.991 6.16646 52.806 6.20803 52.6409 6.29489C52.5853 6.3308 52.54 6.3806 52.5093 6.43942C52.4786 6.49825 52.4637 6.56407 52.4658 6.63047C52.4654 6.70848 52.4879 6.7849 52.5305 6.85007C52.5731 6.91524 52.634 6.96626 52.7054 6.99668C52.9439 7.10729 53.1933 7.19229 53.4494 7.25028C53.7375 7.31917 54.0204 7.40843 54.2961 7.51739C54.5198 7.61018 54.7179 7.75626 54.8731 7.94306C55.0439 8.15909 55.1333 8.42886 55.1256 8.70476C55.1288 8.96921 55.0496 9.22803 54.8991 9.44484C54.7345 9.67362 54.5093 9.85112 54.2491 9.95699C53.936 10.0862 53.5997 10.149 53.2614 10.1417C52.9026 10.1476 52.5466 10.0757 52.2178 9.93087" fill="#AB2346"/>
<path d="M57.9251 5.43554C58.2113 5.28541 58.5304 5.20998 58.8532 5.21617C59.2403 5.21129 59.621 5.31552 59.9523 5.51707C60.2857 5.72412 60.5553 6.02046 60.7308 6.37291C60.9284 6.77209 61.0267 7.21355 61.0173 7.65938C61.0261 8.10788 60.9278 8.55196 60.7308 8.9544C60.5559 9.31189 60.2865 9.61406 59.9523 9.82781C59.6229 10.0348 59.2415 10.1423 58.8532 10.1377C58.5337 10.1444 58.2177 10.0704 57.934 9.9224C57.6827 9.79101 57.4625 9.60664 57.2884 9.38187V12.3332H56.0908V5.29365H57.2884V5.98193C57.4556 5.7524 57.6733 5.5653 57.9251 5.43554ZM59.6187 6.91524C59.5119 6.71604 59.3521 6.55071 59.1571 6.43778C58.9683 6.32934 58.7545 6.27294 58.5371 6.27426C58.3219 6.27376 58.1106 6.33181 57.9255 6.44228C57.7302 6.5586 57.5705 6.72675 57.4639 6.92831C57.3486 7.16081 57.2886 7.4171 57.2886 7.67694C57.2886 7.93679 57.3486 8.19308 57.4639 8.42558C57.5706 8.62709 57.7303 8.79523 57.9255 8.91161C58.1124 9.02199 58.3253 9.0798 58.542 9.07901C58.7586 9.07822 58.9711 9.01884 59.1571 8.9071C59.352 8.78827 59.5114 8.61883 59.6187 8.41657C59.7406 8.18344 59.8011 7.92272 59.7942 7.65938C59.8008 7.40008 59.7403 7.14395 59.6187 6.91524Z" fill="#AB2346"/>
<path d="M66.2426 8.0383H62.7787C62.7889 8.34512 62.9173 8.63591 63.1369 8.8491C63.3486 9.04469 63.6277 9.1497 63.915 9.14189C64.1126 9.15372 64.3092 9.10489 64.4787 9.00185C64.6482 8.89882 64.7826 8.74644 64.8641 8.56487H66.1557C66.023 9.01828 65.7468 9.41572 65.3691 9.69684C64.9555 10.0006 64.4528 10.1564 63.9409 10.1396C63.5125 10.1465 63.0896 10.0413 62.7138 9.83422C62.3548 9.6338 62.0609 9.33353 61.8672 8.96937C61.6589 8.57204 61.5545 8.12796 61.5636 7.67885C61.5538 7.22728 61.6567 6.78043 61.8632 6.37932C62.0531 6.01639 62.3444 5.71732 62.7013 5.51898C63.0798 5.3225 63.4994 5.21928 63.9254 5.21779C64.3513 5.2163 64.7716 5.31659 65.1515 5.51042C65.5024 5.70012 65.7907 5.98861 65.9811 6.34058C66.1829 6.7201 66.2845 7.14538 66.2762 7.5757C66.2773 7.73117 66.2659 7.88648 66.2421 8.04011M65.036 7.22931C65.0386 7.08818 65.0099 6.94825 64.9523 6.81958C64.8946 6.69091 64.8093 6.5767 64.7025 6.48518C64.4806 6.29682 64.1976 6.19724 63.9074 6.20545C63.6329 6.19704 63.3654 6.29361 63.1588 6.47572C62.9479 6.67273 62.8156 6.94033 62.7868 7.22841L65.036 7.22931Z" fill="#AB2346"/>
<path d="M67.2697 6.38237C67.4595 6.02226 67.7472 5.72388 68.0992 5.52202C68.4701 5.31388 68.8893 5.20849 69.3139 5.21662C69.8354 5.19619 70.3486 5.35226 70.7716 5.65986C71.1663 5.97037 71.4402 6.41031 71.5457 6.90308H70.2541C70.1935 6.70777 70.072 6.53732 69.9075 6.41705C69.7299 6.29489 69.5181 6.23317 69.3031 6.24093C69.148 6.23451 68.9936 6.26508 68.8524 6.33013C68.7113 6.39518 68.5875 6.49288 68.491 6.61525C68.2952 6.93318 68.1915 7.29978 68.1915 7.67379C68.1915 8.0478 68.2952 8.41439 68.491 8.73233C68.5875 8.8547 68.7113 8.9524 68.8524 9.01745C68.9936 9.0825 69.148 9.11306 69.3031 9.10665C69.5121 9.12468 69.7208 9.06939 69.8938 8.95017C70.0668 8.83094 70.1935 8.65513 70.2523 8.45261H71.5439C71.4312 8.94002 71.1565 9.37413 70.7653 9.68321C70.3466 9.99741 69.8337 10.1582 69.3116 10.1391C68.887 10.1472 68.4679 10.0418 68.097 9.83366C67.7451 9.63173 67.4574 9.33337 67.2674 8.97332C67.0704 8.57038 66.968 8.12733 66.968 7.67829C66.968 7.22926 67.0704 6.78621 67.2674 6.38327" fill="#AB2346"/>
<path d="M73.9021 6.28367V8.58993C73.8963 8.65293 73.9035 8.71646 73.9234 8.77649C73.9433 8.83651 73.9754 8.89171 74.0176 8.93858C74.1299 9.02107 74.2683 9.05921 74.4067 9.04578H74.9628V10.0611H74.2101C73.201 10.0611 72.6965 9.56785 72.6965 8.58138V6.28412H72.1301V5.29314H72.6947V4.11523H73.9004V5.29405H74.9609V6.28502L73.9021 6.28367Z" fill="#AB2346"/>
<path d="M77.7442 5.44118C78.0037 5.29471 78.2974 5.2204 78.5949 5.22587V6.49206H78.2783C78.1185 6.46593 77.9548 6.47931 77.8012 6.53104C77.6476 6.58277 77.5089 6.67131 77.3969 6.78901C77.285 6.90672 77.2031 7.05006 77.1585 7.20667C77.1139 7.36329 77.1078 7.52847 77.1407 7.68799V10.0627H75.9431V5.29478H77.1407V6.03486C77.2884 5.78868 77.4964 5.58437 77.7442 5.44118Z" fill="#AB2346"/>
<path d="M83.8946 5.29492V10.062H82.6885V9.45972C82.5308 9.6695 82.3237 9.83652 82.0859 9.94574C81.833 10.0643 81.5569 10.1244 81.2778 10.1219C80.9348 10.1291 80.5957 10.0477 80.2929 9.88539C80.0054 9.72516 79.7716 9.48262 79.6213 9.18855C79.4513 8.8488 79.3676 8.47196 79.3778 8.09172V5.29492H80.5754V7.91965C80.5544 8.23629 80.6554 8.54889 80.8574 8.79261C80.9565 8.89592 81.0765 8.97664 81.2093 9.02933C81.3421 9.08201 81.4845 9.10544 81.627 9.09801C81.7709 9.106 81.9148 9.08287 82.049 9.03019C82.1832 8.97751 82.3047 8.8965 82.4051 8.79261C82.6072 8.54891 82.7082 8.23629 82.6872 7.91965V5.29492H83.8946Z" fill="#AB2346"/>
<path d="M92.4356 5.76328C92.6209 5.9643 92.7638 6.20101 92.8557 6.45912C92.9475 6.71723 92.9865 6.99139 92.9702 7.26506V10.0614H91.773V7.42812C91.7941 7.1166 91.6926 6.80925 91.4905 6.57228C91.39 6.47137 91.2696 6.39281 91.137 6.34168C91.0044 6.29054 90.8627 6.26798 90.7209 6.27544C90.5785 6.26829 90.4362 6.29098 90.3029 6.34208C90.1697 6.39318 90.0484 6.47157 89.9468 6.57228C89.8455 6.68898 89.768 6.82464 89.7189 6.9715C89.6697 7.11835 89.6498 7.27352 89.6603 7.42812V10.0614H88.4631V7.42812C88.484 7.1167 88.3828 6.80944 88.1811 6.57228C88.0806 6.47139 87.9602 6.39285 87.8276 6.34172C87.695 6.29059 87.5533 6.26801 87.4115 6.27544C87.2677 6.2677 87.124 6.29008 86.9893 6.34118C86.8545 6.39228 86.7318 6.47097 86.6289 6.57228C86.5277 6.68901 86.4502 6.82467 86.401 6.97152C86.3519 7.11837 86.332 7.27352 86.3424 7.42812V10.0614H85.1448V5.29437H86.3424V5.87094C86.4998 5.66741 86.7038 5.50516 86.937 5.39797C87.1874 5.28144 87.4606 5.22266 87.7366 5.2259C88.0817 5.21982 88.4229 5.30114 88.7286 5.46239C89.015 5.61583 89.25 5.85086 89.4042 6.13805C89.5625 5.85876 89.7951 5.62944 90.0758 5.4759C90.4503 5.27165 90.8787 5.18966 91.3016 5.24132C91.7245 5.29297 92.121 5.4757 92.4361 5.76418" fill="#AB2346"/>
</svg>
