<svg width="13" height="13" viewBox="0 0 13 13" fill="none" xmlns="http://www.w3.org/2000/svg">
<path d="M9.19771 0.536133H3.93356C2.3467 0.536133 1.0603 1.92149 1.0603 3.63041V9.29949C1.0603 11.0084 2.3467 12.3938 3.93356 12.3938H9.19771C10.7846 12.3938 12.071 11.0084 12.071 9.29949V3.63041C12.071 1.92149 10.7846 0.536133 9.19771 0.536133Z" stroke="#0A2804" stroke-width="0.787576" stroke-linecap="round" stroke-linejoin="round"/>
<path d="M6.56563 9.57052C8.15828 9.57052 9.44938 8.18011 9.44938 6.46495C9.44938 4.74979 8.15828 3.35938 6.56563 3.35938C4.97298 3.35938 3.68188 4.74979 3.68188 6.46495C3.68188 8.18011 4.97298 9.57052 6.56563 9.57052Z" stroke="#0A2804" stroke-width="0.787576" stroke-linecap="round" stroke-linejoin="round"/>
<path d="M9.71162 2.79317C9.85641 2.79317 9.97378 2.66676 9.97378 2.51084C9.97378 2.35492 9.85641 2.22852 9.71162 2.22852C9.56684 2.22852 9.44946 2.35492 9.44946 2.51084C9.44946 2.66676 9.56684 2.79317 9.71162 2.79317Z" stroke="#0A2804" stroke-width="0.787576" stroke-linecap="round" stroke-linejoin="round"/>
</svg>
