<svg width="93" height="17" viewBox="0 0 93 17" fill="none" xmlns="http://www.w3.org/2000/svg">
<path d="M15.656 1.88799H12.4419C12.3368 1.89051 12.2323 1.87187 12.1345 1.83315C12.0367 1.79443 11.9476 1.73642 11.8724 1.66253C11.7972 1.58864 11.7374 1.50037 11.6966 1.40291C11.6558 1.30544 11.6348 1.20075 11.6348 1.09499C11.6348 0.989229 11.6558 0.884538 11.6966 0.787072C11.7374 0.689606 11.7972 0.601333 11.8724 0.527447C11.9476 0.45356 12.0367 0.395551 12.1345 0.356831C12.2323 0.318112 12.3368 0.299463 12.4419 0.301983H15.656C15.7611 0.299463 15.8656 0.318112 15.9634 0.356831C16.0613 0.395551 16.1504 0.45356 16.2256 0.527447C16.3008 0.601333 16.3606 0.689606 16.4014 0.787072C16.4422 0.884538 16.4632 0.989229 16.4632 1.09499C16.4632 1.20075 16.4422 1.30544 16.4014 1.40291C16.3606 1.50037 16.3008 1.58864 16.2256 1.66253C16.1504 1.73642 16.0613 1.79443 15.9634 1.83315C15.8656 1.87187 15.7611 1.89051 15.656 1.88799Z" fill="#AB2346"/>
<path d="M17.2516 4.29131H12.4424C12.3373 4.29383 12.2328 4.27519 12.135 4.23647C12.0372 4.19775 11.9481 4.13974 11.8728 4.06585C11.7976 3.99196 11.7379 3.90369 11.6971 3.80623C11.6563 3.70876 11.6353 3.60407 11.6353 3.49831C11.6353 3.39255 11.6563 3.28786 11.6971 3.19039C11.7379 3.09293 11.7976 3.00465 11.8728 2.93077C11.9481 2.85688 12.0372 2.79887 12.135 2.76015C12.2328 2.72143 12.3373 2.70278 12.4424 2.7053H17.2516C17.3567 2.70278 17.4613 2.72143 17.5591 2.76015C17.6569 2.79887 17.746 2.85688 17.8212 2.93077C17.8965 3.00465 17.9562 3.09293 17.997 3.19039C18.0378 3.28786 18.0588 3.39255 18.0588 3.49831C18.0588 3.60407 18.0378 3.70876 17.997 3.80623C17.9562 3.90369 17.8965 3.99196 17.8212 4.06585C17.746 4.13974 17.6569 4.19775 17.5591 4.23647C17.4613 4.27519 17.3567 4.29383 17.2516 4.29131Z" fill="#AB2346"/>
<path d="M18.8356 6.69463H12.442C12.2362 6.6897 12.0405 6.60398 11.8967 6.4558C11.7529 6.30762 11.6724 6.10873 11.6724 5.90163C11.6724 5.69452 11.7529 5.49563 11.8967 5.34745C12.0405 5.19927 12.2362 5.11356 12.442 5.10862H18.8356C18.9407 5.1061 19.0452 5.12475 19.143 5.16347C19.2409 5.20219 19.33 5.2602 19.4052 5.33409C19.4804 5.40797 19.5402 5.49625 19.581 5.59371C19.6218 5.69118 19.6428 5.79587 19.6428 5.90163C19.6428 6.00739 19.6218 6.11208 19.581 6.20954C19.5402 6.30701 19.4804 6.39528 19.4052 6.46917C19.33 6.54306 19.2409 6.60107 19.143 6.63979C19.0452 6.67851 18.9407 6.69715 18.8356 6.69463Z" fill="#AB2346"/>
<path d="M15.656 11.5003H12.4419C12.3368 11.5028 12.2323 11.4842 12.1345 11.4455C12.0367 11.4067 11.9476 11.3487 11.8724 11.2748C11.7972 11.2009 11.7374 11.1127 11.6966 11.0152C11.6558 10.9177 11.6348 10.8131 11.6348 10.7073C11.6348 10.6015 11.6558 10.4968 11.6966 10.3994C11.7374 10.3019 11.7972 10.2136 11.8724 10.1398C11.9476 10.0659 12.0367 10.0079 12.1345 9.96914C12.2323 9.93042 12.3368 9.91177 12.4419 9.91429H15.656C15.7611 9.91177 15.8656 9.93042 15.9634 9.96914C16.0613 10.0079 16.1504 10.0659 16.2256 10.1398C16.3008 10.2136 16.3606 10.3019 16.4014 10.3994C16.4422 10.4968 16.4632 10.6015 16.4632 10.7073C16.4632 10.8131 16.4422 10.9177 16.4014 11.0152C16.3606 11.1127 16.3008 11.2009 16.2256 11.2748C16.1504 11.3487 16.0613 11.4067 15.9634 11.4455C15.8656 11.4842 15.7611 11.5028 15.656 11.5003Z" fill="#AB2346"/>
<path d="M14.8591 13.9036H12.4415C12.3364 13.9061 12.2319 13.8875 12.1341 13.8488C12.0362 13.81 11.9471 13.752 11.8719 13.6782C11.7967 13.6043 11.7369 13.516 11.6961 13.4185C11.6553 13.3211 11.6343 13.2164 11.6343 13.1106C11.6343 13.0049 11.6553 12.9002 11.6961 12.8027C11.7369 12.7052 11.7967 12.617 11.8719 12.5431C11.9471 12.4692 12.0362 12.4112 12.1341 12.3725C12.2319 12.3337 12.3364 12.3151 12.4415 12.3176H14.8591C14.9642 12.3151 15.0687 12.3337 15.1665 12.3725C15.2643 12.4112 15.3534 12.4692 15.4287 12.5431C15.5039 12.617 15.5636 12.7052 15.6044 12.8027C15.6452 12.9002 15.6662 13.0049 15.6662 13.1106C15.6662 13.2164 15.6452 13.3211 15.6044 13.4185C15.5636 13.516 15.5039 13.6043 15.4287 13.6782C15.3534 13.752 15.2643 13.81 15.1665 13.8488C15.0687 13.8875 14.9642 13.9061 14.8591 13.9036Z" fill="#AB2346"/>
<path d="M10.0799 1.88799H8.46149C8.35641 1.89051 8.25187 1.87187 8.15405 1.83315C8.05624 1.79443 7.9671 1.73642 7.89189 1.66253C7.81668 1.58864 7.75694 1.50037 7.71613 1.40291C7.67533 1.30544 7.6543 1.20075 7.6543 1.09499C7.6543 0.989229 7.67533 0.884538 7.71613 0.787072C7.75694 0.689606 7.81668 0.601333 7.89189 0.527447C7.9671 0.45356 8.05624 0.395551 8.15405 0.356831C8.25187 0.318112 8.35641 0.299463 8.46149 0.301983H10.0799C10.185 0.299463 10.2896 0.318112 10.3874 0.356831C10.4852 0.395551 10.5743 0.45356 10.6495 0.527447C10.7247 0.601333 10.7845 0.689606 10.8253 0.787072C10.8661 0.884538 10.8871 0.989229 10.8871 1.09499C10.8871 1.20075 10.8661 1.30544 10.8253 1.40291C10.7845 1.50037 10.7247 1.58864 10.6495 1.66253C10.5743 1.73642 10.4852 1.79443 10.3874 1.83315C10.2896 1.87187 10.185 1.89051 10.0799 1.88799Z" fill="#82AEC9"/>
<path d="M10.0801 4.29131H6.87946C6.77438 4.29383 6.66987 4.27519 6.57205 4.23647C6.47423 4.19775 6.3851 4.13974 6.30989 4.06585C6.23468 3.99196 6.17491 3.90369 6.1341 3.80623C6.0933 3.70876 6.07227 3.60407 6.07227 3.49831C6.07227 3.39255 6.0933 3.28786 6.1341 3.19039C6.17491 3.09293 6.23468 3.00465 6.30989 2.93077C6.3851 2.85688 6.47423 2.79887 6.57205 2.76015C6.66987 2.72143 6.77438 2.70278 6.87946 2.7053H10.0801C10.1852 2.70278 10.2897 2.72143 10.3875 2.76015C10.4853 2.79887 10.5745 2.85688 10.6497 2.93077C10.7249 3.00465 10.7847 3.09293 10.8255 3.19039C10.8663 3.28786 10.8873 3.39255 10.8873 3.49831C10.8873 3.60407 10.8663 3.70876 10.8255 3.80623C10.7847 3.90369 10.7249 3.99196 10.6497 4.06585C10.5745 4.13974 10.4853 4.19775 10.3875 4.23647C10.2897 4.27519 10.1852 4.29383 10.0801 4.29131Z" fill="#82AEC9"/>
<path d="M10.0791 6.69463H5.2945C5.18942 6.69715 5.08488 6.67851 4.98706 6.63979C4.88924 6.60107 4.80011 6.54306 4.7249 6.46917C4.64969 6.39528 4.58992 6.30701 4.54912 6.20954C4.50831 6.11208 4.4873 6.00739 4.4873 5.90163C4.4873 5.79587 4.50831 5.69118 4.54912 5.59371C4.58992 5.49625 4.64969 5.40797 4.7249 5.33409C4.80011 5.2602 4.88924 5.20219 4.98706 5.16347C5.08488 5.12475 5.18942 5.1061 5.2945 5.10862H10.0791C10.1842 5.1061 10.2887 5.12475 10.3865 5.16347C10.4843 5.20219 10.5735 5.2602 10.6487 5.33409C10.7239 5.40797 10.7837 5.49625 10.8245 5.59371C10.8653 5.69118 10.8863 5.79587 10.8863 5.90163C10.8863 6.00739 10.8653 6.11208 10.8245 6.20954C10.7837 6.30701 10.7239 6.39528 10.6487 6.46917C10.5735 6.54306 10.4843 6.60107 10.3865 6.63979C10.2887 6.67851 10.1842 6.69715 10.0791 6.69463Z" fill="#82AEC9"/>
<path d="M10.08 9.09698H3.69392C3.58883 9.0995 3.48432 9.08085 3.3865 9.04213C3.28869 9.00341 3.19955 8.9454 3.12434 8.87151C3.04913 8.79763 2.98936 8.70935 2.94856 8.61189C2.90775 8.51442 2.88672 8.40973 2.88672 8.30397C2.88672 8.19821 2.90775 8.09352 2.94856 7.99605C2.98936 7.89859 3.04913 7.81032 3.12434 7.73643C3.19955 7.66254 3.28869 7.60453 3.3865 7.56581C3.48432 7.52709 3.58883 7.50845 3.69392 7.51097H10.08C10.185 7.50845 10.2896 7.52709 10.3874 7.56581C10.4852 7.60453 10.5743 7.66254 10.6495 7.73643C10.7247 7.81032 10.7845 7.89859 10.8253 7.99605C10.8661 8.09352 10.8871 8.19821 10.8871 8.30397C10.8871 8.40973 10.8661 8.51442 10.8253 8.61189C10.7845 8.70935 10.7247 8.79763 10.6495 8.87151C10.5743 8.9454 10.4852 9.00341 10.3874 9.04213C10.2896 9.08085 10.185 9.0995 10.08 9.09698Z" fill="#82AEC9"/>
<path d="M20.4312 9.09698H12.4425C12.3374 9.0995 12.2328 9.08085 12.135 9.04213C12.0372 9.00341 11.9481 8.9454 11.8728 8.87151C11.7976 8.79763 11.7379 8.70935 11.6971 8.61189C11.6563 8.51442 11.6353 8.40973 11.6353 8.30397C11.6353 8.19821 11.6563 8.09352 11.6971 7.99605C11.7379 7.89859 11.7976 7.81032 11.8728 7.73643C11.9481 7.66254 12.0372 7.60453 12.135 7.56581C12.2328 7.52709 12.3374 7.50845 12.4425 7.51097H20.4312C20.5363 7.50845 20.6408 7.52709 20.7387 7.56581C20.8365 7.60453 20.9256 7.66254 21.0008 7.73643C21.076 7.81032 21.1358 7.89859 21.1766 7.99605C21.2174 8.09352 21.2384 8.19821 21.2384 8.30397C21.2384 8.40973 21.2174 8.51442 21.1766 8.61189C21.1358 8.70935 21.076 8.79763 21.0008 8.87151C20.9256 8.9454 20.8365 9.00341 20.7387 9.04213C20.6408 9.08085 20.5363 9.0995 20.4312 9.09698Z" fill="#82AEC9"/>
<path d="M10.0795 11.5003H5.28913C5.18405 11.5028 5.07954 11.4842 4.98172 11.4455C4.8839 11.4067 4.79477 11.3487 4.71956 11.2748C4.64435 11.2009 4.58458 11.1127 4.54377 11.0152C4.50297 10.9177 4.48193 10.8131 4.48193 10.7073C4.48193 10.6015 4.50297 10.4968 4.54377 10.3994C4.58458 10.3019 4.64435 10.2136 4.71956 10.1398C4.79477 10.0659 4.8839 10.0079 4.98172 9.96914C5.07954 9.93042 5.18405 9.91177 5.28913 9.91429H10.0795C10.1846 9.91177 10.2892 9.93042 10.387 9.96914C10.4848 10.0079 10.5739 10.0659 10.6491 10.1398C10.7243 10.2136 10.7841 10.3019 10.8249 10.3994C10.8657 10.4968 10.8867 10.6015 10.8867 10.7073C10.8867 10.8131 10.8657 10.9177 10.8249 11.0152C10.7841 11.1127 10.7243 11.2009 10.6491 11.2748C10.5739 11.3487 10.4848 11.4067 10.387 11.4455C10.2892 11.4842 10.1846 11.5028 10.0795 11.5003Z" fill="#82AEC9"/>
<path d="M20.4316 11.5003H18.0172C17.8114 11.4954 17.6157 11.4096 17.4719 11.2615C17.3281 11.1133 17.2476 10.9144 17.2476 10.7073C17.2476 10.5002 17.3281 10.3013 17.4719 10.1531C17.6157 10.0049 17.8114 9.91922 18.0172 9.91429H20.4316C20.5367 9.91177 20.6413 9.93042 20.7391 9.96914C20.8369 10.0079 20.926 10.0659 21.0012 10.1398C21.0765 10.2136 21.1362 10.3019 21.177 10.3994C21.2178 10.4968 21.2388 10.6015 21.2388 10.7073C21.2388 10.8131 21.2178 10.9177 21.177 11.0152C21.1362 11.1127 21.0765 11.2009 21.0012 11.2748C20.926 11.3487 20.8369 11.4067 20.7391 11.4455C20.6413 11.4842 20.5367 11.5028 20.4316 11.5003Z" fill="#82AEC9"/>
<path d="M10.0796 13.9036H6.8736C6.76852 13.9061 6.66398 13.8875 6.56616 13.8488C6.46835 13.81 6.37921 13.752 6.304 13.6782C6.22879 13.6043 6.16902 13.516 6.12822 13.4185C6.08741 13.3211 6.06641 13.2164 6.06641 13.1106C6.06641 13.0049 6.08741 12.9002 6.12822 12.8027C6.16902 12.7052 6.22879 12.617 6.304 12.5431C6.37921 12.4692 6.46835 12.4112 6.56616 12.3725C6.66398 12.3337 6.76852 12.3151 6.8736 12.3176H10.0796C10.1847 12.3151 10.2892 12.3337 10.387 12.3725C10.4848 12.4112 10.574 12.4692 10.6492 12.5431C10.7244 12.617 10.7842 12.7052 10.825 12.8027C10.8658 12.9002 10.8868 13.0049 10.8868 13.1106C10.8868 13.2164 10.8658 13.3211 10.825 13.4185C10.7842 13.516 10.7244 13.6043 10.6492 13.6782C10.574 13.752 10.4848 13.81 10.387 13.8488C10.2892 13.8875 10.1847 13.9061 10.0796 13.9036Z" fill="#82AEC9"/>
<path d="M20.58 13.9036H17.233C17.0272 13.8987 16.8315 13.813 16.6877 13.6648C16.5439 13.5166 16.4634 13.3177 16.4634 13.1106C16.4634 12.9035 16.5439 12.7046 16.6877 12.5564C16.8315 12.4083 17.0272 12.3225 17.233 12.3176H20.58C20.6851 12.3151 20.7896 12.3337 20.8874 12.3725C20.9853 12.4112 21.0744 12.4692 21.1496 12.5431C21.2248 12.617 21.2846 12.7052 21.3254 12.8027C21.3662 12.9002 21.3872 13.0049 21.3872 13.1106C21.3872 13.2164 21.3662 13.3211 21.3254 13.4185C21.2846 13.516 21.2248 13.6043 21.1496 13.6782C21.0744 13.752 20.9853 13.81 20.8874 13.8488C20.7896 13.8875 20.6851 13.9061 20.58 13.9036Z" fill="#82AEC9"/>
<path d="M10.0799 16.306H8.46149C8.35641 16.3085 8.25187 16.2898 8.15405 16.2511C8.05624 16.2124 7.9671 16.1544 7.89189 16.0805C7.81668 16.0066 7.75694 15.9183 7.71613 15.8209C7.67533 15.7234 7.6543 15.6187 7.6543 15.513C7.6543 15.4072 7.67533 15.3025 7.71613 15.205C7.75694 15.1076 7.81668 15.0193 7.89189 14.9454C7.9671 14.8715 8.05624 14.8135 8.15405 14.7748C8.25187 14.7361 8.35641 14.7174 8.46149 14.72H10.0799C10.185 14.7174 10.2896 14.7361 10.3874 14.7748C10.4852 14.8135 10.5743 14.8715 10.6495 14.9454C10.7247 15.0193 10.7845 15.1076 10.8253 15.205C10.8661 15.3025 10.8871 15.4072 10.8871 15.513C10.8871 15.6187 10.8661 15.7234 10.8253 15.8209C10.7845 15.9183 10.7247 16.0066 10.6495 16.0805C10.5743 16.1544 10.4852 16.2124 10.3874 16.2511C10.2896 16.2898 10.185 16.3085 10.0799 16.306Z" fill="#82AEC9"/>
<path d="M15.656 16.306H12.4419C12.3368 16.3085 12.2323 16.2898 12.1345 16.2511C12.0367 16.2124 11.9476 16.1544 11.8724 16.0805C11.7972 16.0066 11.7374 15.9183 11.6966 15.8209C11.6558 15.7234 11.6348 15.6187 11.6348 15.513C11.6348 15.4072 11.6558 15.3025 11.6966 15.205C11.7374 15.1076 11.7972 15.0193 11.8724 14.9454C11.9476 14.8715 12.0367 14.8135 12.1345 14.7748C12.2323 14.7361 12.3368 14.7174 12.4419 14.72H15.656C15.7611 14.7174 15.8656 14.7361 15.9634 14.7748C16.0613 14.8135 16.1504 14.8715 16.2256 14.9454C16.3008 15.0193 16.3606 15.1076 16.4014 15.205C16.4422 15.3025 16.4632 15.4072 16.4632 15.513C16.4632 15.6187 16.4422 15.7234 16.4014 15.8209C16.3606 15.9183 16.3008 16.0066 16.2256 16.0805C16.1504 16.1544 16.0613 16.2124 15.9634 16.2511C15.8656 16.2898 15.7611 16.3085 15.656 16.306Z" fill="#82AEC9"/>
<path d="M6.9099 1.6996C6.9099 1.81942 6.87458 1.93656 6.80841 2.03619C6.74224 2.13582 6.64819 2.21347 6.53816 2.25933C6.42813 2.30518 6.30706 2.31718 6.19025 2.2938C6.07344 2.27042 5.96615 2.21272 5.88194 2.12799C5.79772 2.04326 5.74037 1.93531 5.71714 1.81779C5.6939 1.70027 5.70583 1.57845 5.7514 1.46775C5.79698 1.35705 5.87415 1.26242 5.97318 1.19585C6.0722 1.12928 6.18863 1.09375 6.30772 1.09375C6.46743 1.09375 6.62058 1.15758 6.73351 1.2712C6.84644 1.38482 6.9099 1.53892 6.9099 1.6996Z" fill="#1D365A"/>
<path d="M6.88646 15.307C6.88646 15.4268 6.85114 15.544 6.78497 15.6436C6.71881 15.7432 6.62475 15.8209 6.51472 15.8667C6.40469 15.9126 6.28362 15.9246 6.16681 15.9012C6.05001 15.8778 5.94271 15.8201 5.8585 15.7354C5.77429 15.6507 5.71693 15.5427 5.6937 15.4252C5.67047 15.3077 5.68239 15.1859 5.72797 15.0752C5.77354 14.9645 5.85074 14.8698 5.94977 14.8033C6.04879 14.7367 6.16519 14.7012 6.28429 14.7012C6.44399 14.7012 6.59717 14.765 6.7101 14.8786C6.82303 14.9922 6.88646 15.1463 6.88646 15.307Z" fill="#1D365A"/>
<path d="M4.89383 4.29128H4.09781C3.99326 4.29128 3.89299 4.24949 3.81906 4.17511C3.74514 4.10073 3.70361 3.99985 3.70361 3.89466C3.70361 3.78948 3.74514 3.68859 3.81906 3.61421C3.89299 3.53983 3.99326 3.49805 4.09781 3.49805H4.89383C4.99838 3.49805 5.09865 3.53983 5.17258 3.61421C5.24651 3.68859 5.28803 3.78948 5.28803 3.89466C5.28803 3.99985 5.24651 4.10073 5.17258 4.17511C5.09865 4.24949 4.99838 4.29128 4.89383 4.29128Z" fill="#1D365A"/>
<path d="M3.29891 6.69362H1.70914C1.60459 6.69362 1.50432 6.65184 1.43039 6.57746C1.35646 6.50308 1.31494 6.40219 1.31494 6.29701C1.31494 6.19182 1.35646 6.09094 1.43039 6.01656C1.50432 5.94218 1.60459 5.90039 1.70914 5.90039H3.29891C3.40346 5.90039 3.50374 5.94218 3.57766 6.01656C3.65159 6.09094 3.69314 6.19182 3.69314 6.29701C3.69314 6.40219 3.65159 6.50308 3.57766 6.57746C3.50374 6.65184 3.40346 6.69362 3.29891 6.69362Z" fill="#1D365A"/>
<path d="M3.30914 10.6907H0.921542C0.816994 10.6907 0.716749 10.6489 0.642822 10.5745C0.568894 10.5001 0.527344 10.3993 0.527344 10.2941C0.527344 10.1889 0.568894 10.088 0.642822 10.0136C0.716749 9.93925 0.816994 9.89746 0.921542 9.89746H3.30914C3.41369 9.89746 3.51396 9.93925 3.58789 10.0136C3.66182 10.088 3.70334 10.1889 3.70334 10.2941C3.70334 10.3993 3.66182 10.5001 3.58789 10.5745C3.51396 10.6489 3.41369 10.6907 3.30914 10.6907Z" fill="#1D365A"/>
<path d="M4.89741 13.0852H4.09781C3.99326 13.0852 3.89299 13.0434 3.81906 12.9691C3.74514 12.8947 3.70361 12.7938 3.70361 12.6886C3.70361 12.5834 3.74514 12.4825 3.81906 12.4082C3.89299 12.3338 3.99326 12.292 4.09781 12.292H4.89741C5.00196 12.292 5.10223 12.3338 5.17616 12.4082C5.25009 12.4825 5.29161 12.5834 5.29161 12.6886C5.29161 12.7938 5.25009 12.8947 5.17616 12.9691C5.10223 13.0434 5.00196 13.0852 4.89741 13.0852Z" fill="#1D365A"/>
<path d="M29.6389 7.77974C29.8529 8.04762 29.9678 8.38199 29.9639 8.72567C29.9699 9.02519 29.8882 9.31987 29.7288 9.57296C29.5616 9.82553 29.3255 10.0242 29.0488 10.145C28.7173 10.2898 28.3584 10.3602 27.9971 10.3513H25.4229V4.34647H27.8852C28.2443 4.33767 28.6013 4.40505 28.9328 4.54421C29.2041 4.65796 29.4361 4.84956 29.5999 5.0951C29.752 5.3337 29.8308 5.61212 29.8264 5.89554C29.8375 6.21165 29.7394 6.52185 29.5489 6.77345C29.3588 7.0119 29.1007 7.18606 28.8093 7.27254C29.139 7.33164 29.4348 7.51253 29.6389 7.77974ZM26.6195 6.8248H27.7146C27.9498 6.8402 28.1829 6.77161 28.3728 6.63111C28.451 6.56261 28.5125 6.47694 28.5525 6.38072C28.5926 6.28449 28.6101 6.1803 28.6038 6.07617C28.6098 5.97141 28.5922 5.86663 28.5522 5.76973C28.5122 5.67282 28.4508 5.58631 28.3728 5.51672C28.1841 5.37333 27.9506 5.30298 27.7146 5.31852H26.6195V6.8248ZM28.5053 9.16711C28.5876 9.09468 28.6524 9.00425 28.6946 8.90275C28.7368 8.80125 28.7554 8.69137 28.7488 8.58153C28.7546 8.46745 28.7344 8.35354 28.69 8.24843C28.6456 8.14332 28.578 8.04974 28.4923 7.97478C28.2953 7.81995 28.0493 7.74204 27.7997 7.75542H26.6195V9.37296H27.8257C28.0696 9.38796 28.3107 9.31479 28.5057 9.16666" fill="#AB2346"/>
<path d="M32.7113 5.73121C32.9709 5.58477 33.2645 5.51046 33.562 5.5159V6.7821H33.2454C33.0856 6.75608 32.9219 6.76953 32.7684 6.8213C32.6149 6.87307 32.4762 6.96161 32.3643 7.07929C32.2524 7.19697 32.1705 7.34026 32.1259 7.49682C32.0812 7.65338 32.075 7.81852 32.1079 7.97802V10.3528H30.9111V5.58482H32.1065V6.3249C32.2543 6.07878 32.4618 5.87449 32.7096 5.73121" fill="#AB2346"/>
<path d="M35.3312 10.1233C34.9692 9.9226 34.6711 9.62271 34.4716 9.25843C34.2574 8.863 34.1494 8.41819 34.1582 7.96791C34.149 7.51656 34.2597 7.0709 34.4788 6.67694C34.6847 6.31171 34.9884 6.01204 35.3554 5.81209C35.7384 5.61155 36.1638 5.50684 36.5956 5.50684C37.0273 5.50684 37.4527 5.61155 37.8357 5.81209C38.2026 6.01208 38.5064 6.31174 38.7123 6.67694C38.9316 7.07085 39.0424 7.51652 39.0333 7.96791C39.0424 8.42021 38.9286 8.86643 38.7042 9.25843C38.4924 9.62358 38.1846 9.92285 37.8146 10.1233C37.4291 10.33 36.9979 10.435 36.5611 10.4287C36.1312 10.4353 35.707 10.3301 35.3294 10.1233M37.1726 9.21969C37.3681 9.10878 37.5271 8.94283 37.6302 8.74222C37.7504 8.50248 37.8092 8.23632 37.8012 7.96791C37.8136 7.77873 37.7886 7.58895 37.7278 7.40951C37.6669 7.23007 37.5714 7.06453 37.4466 6.92244C37.335 6.80429 37.2002 6.71079 37.0508 6.6479C36.9013 6.58501 36.7405 6.5541 36.5785 6.55712C36.4177 6.55359 36.258 6.58431 36.1099 6.64727C35.9617 6.71023 35.8285 6.804 35.7189 6.92244C35.4719 7.21187 35.3475 7.58722 35.3724 7.96791C35.3474 8.34716 35.4684 8.72153 35.7104 9.01339C35.8178 9.13221 35.9494 9.22637 36.0961 9.28948C36.2429 9.35259 36.4015 9.38317 36.5611 9.37915C36.7751 9.37984 36.9857 9.32463 37.1726 9.21969Z" fill="#AB2346"/>
<path d="M39.9399 6.66903C40.1143 6.31462 40.384 6.01655 40.7184 5.80868C41.0497 5.60695 41.4304 5.50256 41.8176 5.50734C42.1399 5.49997 42.459 5.574 42.7456 5.72265C42.9954 5.85278 43.2131 6.03747 43.3827 6.26318V5.58481H44.5888V10.3528H43.3827V9.65501C43.2176 9.88864 42.9991 10.079 42.7456 10.21C42.4566 10.3607 42.1345 10.4361 41.809 10.4293C41.4235 10.4331 41.045 10.3256 40.7184 10.1194C40.3841 9.90581 40.1147 9.60361 39.9399 9.24601C39.7428 8.8436 39.6446 8.39951 39.6534 7.95099C39.6449 7.50654 39.7431 7.06706 39.9399 6.66903ZM43.2112 7.21497C43.1051 7.01405 42.9451 6.8472 42.7492 6.73344C42.5596 6.62258 42.344 6.56459 42.1247 6.56543C41.9044 6.563 41.6877 6.6215 41.4982 6.73453C41.3088 6.84757 41.1538 7.0108 41.0502 7.20641C40.9286 7.43513 40.8681 7.6917 40.8747 7.95099C40.8688 8.21295 40.9292 8.47212 41.0502 8.70413C41.1565 8.90852 41.3163 9.07983 41.5122 9.19962C41.6965 9.3125 41.9081 9.37204 42.1238 9.37169C42.343 9.3726 42.5586 9.31476 42.7483 9.20412C42.9441 9.09013 43.1042 8.92314 43.2103 8.72215C43.3228 8.48729 43.3813 8.22994 43.3813 7.96923C43.3813 7.70852 43.3228 7.45117 43.2103 7.21632" fill="#AB2346"/>
<path d="M45.7026 6.66901C45.8753 6.31554 46.1442 6.01868 46.4781 5.81302C46.8119 5.60735 47.197 5.50134 47.5884 5.50732C47.8935 5.50674 48.1947 5.5759 48.4694 5.70957C48.7323 5.83103 48.9614 6.01574 49.1365 6.2474V3.98438H50.3511V10.3518H49.1365V9.64644C48.9818 9.88772 48.7665 10.0837 48.5124 10.2145C48.2242 10.3627 47.9039 10.4367 47.5803 10.4298C47.1936 10.4333 46.8139 10.3257 46.4857 10.1199C46.1495 9.90724 45.8786 9.60487 45.7031 9.24645C45.506 8.84405 45.4077 8.39995 45.4166 7.95143C45.408 7.50698 45.5063 7.06703 45.7031 6.66901M48.9744 7.2154C48.8685 7.01455 48.7085 6.8477 48.5129 6.73388C48.3234 6.6231 48.1079 6.56511 47.8888 6.56587C47.6685 6.56344 47.4518 6.62194 47.2623 6.73497C47.0728 6.84801 46.9179 7.01123 46.8143 7.20684C46.6927 7.43557 46.6322 7.69213 46.6388 7.95143C46.6329 8.21338 46.6933 8.47255 46.8143 8.70457C46.9206 8.90896 47.0804 9.08027 47.2763 9.20006C47.4605 9.31296 47.6721 9.37251 47.8879 9.37213C48.107 9.37296 48.3224 9.31512 48.512 9.20456C48.7076 9.0905 48.8675 8.92352 48.9736 8.72259C49.0862 8.48777 49.1447 8.2304 49.1447 7.96967C49.1447 7.70894 49.0862 7.45157 48.9736 7.21675" fill="#AB2346"/>
<path d="M52.2463 10.2169C51.9582 10.0917 51.7066 9.89469 51.5152 9.64441C51.3394 9.41353 51.2366 9.13482 51.2202 8.84443H52.4263C52.4373 8.93496 52.4669 9.02221 52.5132 9.10067C52.5594 9.17913 52.6213 9.2471 52.6949 9.30028C52.8645 9.42472 53.0708 9.48817 53.2805 9.48045C53.4686 9.49142 53.6554 9.44325 53.8151 9.34261C53.8742 9.30496 53.9228 9.25287 53.9565 9.1912C53.9901 9.12952 54.0077 9.06028 54.0076 8.98992C54.008 8.91471 53.9858 8.84114 53.9438 8.7789C53.9019 8.71667 53.8422 8.66868 53.7726 8.64128C53.5311 8.53434 53.2805 8.44932 53.024 8.38723C52.7287 8.31935 52.4385 8.23024 52.1559 8.12056C51.931 8.02913 51.7314 7.88451 51.5739 7.69895C51.4023 7.48228 51.3157 7.20983 51.3303 6.9332C51.3291 6.67504 51.4083 6.423 51.5569 6.21249C51.7219 5.98317 51.9469 5.80446 52.2069 5.69628C52.5222 5.56338 52.8618 5.49876 53.2035 5.50664C53.6901 5.48131 54.1696 5.63251 54.5547 5.93276C54.7219 6.07458 54.8578 6.25004 54.9535 6.44787C55.0493 6.64569 55.1029 6.86149 55.1107 7.08139H53.9646C53.959 6.99392 53.9352 6.90862 53.8947 6.83101C53.8542 6.75341 53.798 6.68524 53.7296 6.63095C53.5723 6.5304 53.3915 6.4733 53.2053 6.46539C53.0191 6.45748 52.8341 6.49905 52.669 6.58591C52.6134 6.62181 52.5681 6.67162 52.5374 6.73044C52.5067 6.78926 52.4917 6.85509 52.4939 6.92148C52.4934 6.9995 52.5159 7.07591 52.5586 7.14109C52.6012 7.20626 52.662 7.25727 52.7335 7.2877C52.9719 7.3983 53.2213 7.48331 53.4775 7.5413C53.7656 7.61018 54.0485 7.69944 54.3241 7.80841C54.5479 7.9012 54.7459 8.04727 54.9012 8.23408C55.072 8.45011 55.1614 8.71987 55.1537 8.99578C55.1569 9.26023 55.0777 9.51904 54.9272 9.73585C54.7626 9.96464 54.5373 10.1421 54.2771 10.248C53.964 10.3772 53.6278 10.4401 53.2895 10.4327C52.9306 10.4386 52.5747 10.3667 52.2459 10.2219" fill="#AB2346"/>
<path d="M57.9534 5.72655C58.2396 5.57643 58.5587 5.501 58.8815 5.50719C59.2686 5.5023 59.6493 5.60653 59.9806 5.80808C60.314 6.01514 60.5836 6.31147 60.7591 6.66393C60.9567 7.06311 61.055 7.50456 61.0457 7.95039C61.0544 8.3989 60.9561 8.84298 60.7591 9.24542C60.5842 9.60291 60.3148 9.90507 59.9806 10.1188C59.6512 10.3258 59.2698 10.4334 58.8815 10.4287C58.562 10.4354 58.246 10.3614 57.9623 10.2134C57.711 10.082 57.4908 9.89766 57.3168 9.67288V12.6242H56.1191V5.58467H57.3168V6.27294C57.484 6.04341 57.7017 5.85632 57.9534 5.72655ZM59.647 7.20626C59.5402 7.00706 59.3804 6.84173 59.1855 6.72879C58.9967 6.62036 58.7828 6.56395 58.5654 6.56528C58.3502 6.56477 58.1389 6.62283 57.9538 6.73329C57.7586 6.84962 57.5989 7.01777 57.4923 7.21932C57.3769 7.45182 57.3169 7.70811 57.3169 7.96796C57.3169 8.22781 57.3769 8.48409 57.4923 8.71659C57.5989 8.91811 57.7586 9.08624 57.9538 9.20262C58.1407 9.313 58.3536 9.37082 58.5703 9.37003C58.7869 9.36923 58.9994 9.30986 59.1855 9.19812C59.3803 9.07929 59.5398 8.90984 59.647 8.70759C59.769 8.47445 59.8294 8.21374 59.8225 7.95039C59.8292 7.69109 59.7687 7.43496 59.647 7.20626Z" fill="#AB2346"/>
<path d="M66.2714 8.32932H62.8075C62.8177 8.63614 62.9461 8.92693 63.1657 9.14012C63.3774 9.33571 63.6565 9.44072 63.9438 9.4329C64.1415 9.44473 64.338 9.3959 64.5075 9.29287C64.677 9.18983 64.8114 9.03745 64.8929 8.85589H66.1845C66.0518 9.3093 65.7756 9.70674 65.3979 9.98785C64.9843 10.2916 64.4816 10.4474 63.9697 10.4306C63.5413 10.4375 63.1184 10.3323 62.7426 10.1252C62.3837 9.92482 62.0897 9.62455 61.896 9.26038C61.6877 8.86306 61.5833 8.41897 61.5924 7.96987C61.5826 7.51829 61.6856 7.07145 61.892 6.67034C62.0819 6.30741 62.3732 6.00833 62.7301 5.80999C63.1087 5.61352 63.5282 5.51029 63.9542 5.50881C64.3802 5.50732 64.8004 5.60761 65.1803 5.80143C65.5312 5.99113 65.8195 6.27962 66.0099 6.6316C66.2117 7.01112 66.3133 7.43639 66.305 7.86672C66.3061 8.02219 66.2947 8.1775 66.2709 8.33112M65.0648 7.52032C65.0674 7.3792 65.0387 7.23926 64.9811 7.11059C64.9234 6.98192 64.8381 6.86772 64.7313 6.77619C64.5094 6.58783 64.2264 6.48826 63.9362 6.49647C63.6617 6.48805 63.3942 6.58463 63.1876 6.76673C62.9767 6.96374 62.8444 7.23135 62.8156 7.51942L65.0648 7.52032Z" fill="#AB2346"/>
<path d="M67.2987 6.67339C67.4886 6.31327 67.7763 6.01489 68.1283 5.81304C68.4992 5.6049 68.9183 5.49951 69.3429 5.50764C69.8644 5.48721 70.3777 5.64327 70.8007 5.95087C71.1953 6.26139 71.4692 6.70133 71.5747 7.1941H70.2831C70.2226 6.99879 70.1011 6.82833 69.9366 6.70807C69.759 6.5859 69.5472 6.52418 69.3322 6.53195C69.1771 6.52553 69.0226 6.5561 68.8815 6.62115C68.7404 6.6862 68.6165 6.78389 68.52 6.90626C68.3243 7.2242 68.2205 7.59079 68.2205 7.9648C68.2205 8.33882 68.3243 8.70541 68.52 9.02334C68.6165 9.14572 68.7404 9.24341 68.8815 9.30846C69.0226 9.37351 69.1771 9.40408 69.3322 9.39766C69.5411 9.4157 69.7498 9.36041 69.9228 9.24118C70.0959 9.12196 70.2225 8.94615 70.2813 8.74362H71.5729C71.4602 9.23103 71.1855 9.66515 70.7944 9.97423C70.3756 10.2884 69.8627 10.4493 69.3407 10.4301C68.9161 10.4382 68.497 10.3328 68.1261 10.1247C67.7741 9.92274 67.4864 9.62439 67.2965 9.26433C67.0995 8.8614 66.9971 8.41835 66.9971 7.96931C66.9971 7.52027 67.0995 7.07722 67.2965 6.67429" fill="#AB2346"/>
<path d="M73.9307 6.57468V8.88095C73.9249 8.94394 73.9321 9.00748 73.952 9.0675C73.9719 9.12753 74.004 9.18273 74.0462 9.22959C74.1585 9.31208 74.2969 9.35023 74.4353 9.3368H74.9913V10.3521H74.2387C73.2296 10.3521 72.725 9.85886 72.725 8.87239V6.57513H72.1587V5.58416H72.7232V4.40625H73.9289V5.58506H74.9895V6.57603L73.9307 6.57468Z" fill="#AB2346"/>
<path d="M77.7728 5.73122C78.0323 5.58475 78.3259 5.51044 78.6234 5.51591V6.7821H78.3069C78.1471 6.75597 77.9833 6.76934 77.8298 6.82108C77.6762 6.87281 77.5375 6.96135 77.4255 7.07905C77.3135 7.19676 77.2317 7.3401 77.1871 7.49671C77.1424 7.65333 77.1363 7.81851 77.1693 7.97803V10.3528H75.9717V5.58482H77.1693V6.3249C77.317 6.07872 77.525 5.87441 77.7728 5.73122Z" fill="#AB2346"/>
<path d="M83.9234 5.58496V10.352H82.7174V9.74976C82.5596 9.95954 82.3526 10.1266 82.1147 10.2358C81.8618 10.3543 81.5857 10.4145 81.3066 10.4119C80.9636 10.4191 80.6245 10.3377 80.3217 10.1754C80.0342 10.0152 79.8004 9.77266 79.6501 9.47859C79.4801 9.13884 79.3964 8.762 79.4066 8.38176V5.58496H80.6042V8.20969C80.5832 8.52633 80.6842 8.83892 80.8862 9.08265C80.9854 9.18596 81.1053 9.26668 81.2381 9.31937C81.3709 9.37205 81.5133 9.39547 81.6558 9.38805C81.7997 9.39604 81.9436 9.37291 82.0778 9.32023C82.212 9.26755 82.3335 9.18654 82.434 9.08265C82.636 8.83895 82.737 8.52633 82.716 8.20969V5.58496H83.9234Z" fill="#AB2346"/>
<path d="M92.4642 6.0543C92.6495 6.25532 92.7924 6.49203 92.8842 6.75014C92.9761 7.00824 93.0151 7.28241 92.9987 7.55607V10.3524H91.8016V7.71914C91.8226 7.40762 91.7211 7.10026 91.519 6.86329C91.4186 6.76239 91.2981 6.68383 91.1656 6.63269C91.033 6.58156 90.8912 6.55899 90.7495 6.56645C90.607 6.55931 90.4647 6.582 90.3315 6.6331C90.1982 6.6842 90.0769 6.76258 89.9754 6.86329C89.874 6.98 89.7966 7.11566 89.7474 7.26251C89.6983 7.40937 89.6784 7.56453 89.6889 7.71914V10.3524H88.4917V7.71914C88.5126 7.40771 88.4113 7.10045 88.2096 6.86329C88.1091 6.76241 87.9887 6.68387 87.8562 6.63273C87.7236 6.5816 87.5818 6.55902 87.4401 6.56645C87.2963 6.55871 87.1525 6.5811 87.0178 6.6322C86.8831 6.6833 86.7604 6.76199 86.6575 6.86329C86.5562 6.98002 86.4788 7.11569 86.4296 7.26254C86.3804 7.40938 86.3605 7.56454 86.371 7.71914V10.3524H85.1733V5.58539H86.371V6.16195C86.5284 5.95843 86.7324 5.79617 86.9655 5.68899C87.216 5.57246 87.4892 5.51367 87.7651 5.51692C88.1103 5.51084 88.4514 5.59216 88.7572 5.7534C89.0436 5.90685 89.2786 6.14188 89.4328 6.42907C89.591 6.14978 89.8236 5.92046 90.1043 5.76692C90.4789 5.56266 90.9073 5.48068 91.3302 5.53233C91.7531 5.58399 92.1495 5.76672 92.4646 6.0552" fill="#AB2346"/>
</svg>
