<svg width="12" height="14" viewBox="0 0 12 14" fill="none" xmlns="http://www.w3.org/2000/svg">
<path d="M8.67067 0.664551H3.32296C1.71092 0.664551 0.404099 2.0719 0.404099 3.80795V9.56701C0.404099 11.3031 1.71092 12.7104 3.32296 12.7104H8.67067C10.2827 12.7104 11.5895 11.3031 11.5895 9.56701V3.80795C11.5895 2.0719 10.2827 0.664551 8.67067 0.664551Z" stroke="#0A2804" stroke-width="0.800077" stroke-linecap="round" stroke-linejoin="round"/>
<path d="M5.99683 9.84196C7.61475 9.84196 8.92634 8.42948 8.92634 6.68709C8.92634 4.94471 7.61475 3.53223 5.99683 3.53223C4.3789 3.53223 3.06731 4.94471 3.06731 6.68709C3.06731 8.42948 4.3789 9.84196 5.99683 9.84196Z" stroke="#0A2804" stroke-width="0.800077" stroke-linecap="round" stroke-linejoin="round"/>
<path d="M9.19266 2.95691C9.33974 2.95691 9.45898 2.82851 9.45898 2.67011C9.45898 2.51171 9.33974 2.3833 9.19266 2.3833C9.04557 2.3833 8.92634 2.51171 8.92634 2.67011C8.92634 2.82851 9.04557 2.95691 9.19266 2.95691Z" stroke="#0A2804" stroke-width="0.800077" stroke-linecap="round" stroke-linejoin="round"/>
</svg>
