<svg width="92" height="17" viewBox="0 0 92 17" fill="none" xmlns="http://www.w3.org/2000/svg">
<path d="M15.1917 2.07672H12.0167C11.9129 2.07921 11.8097 2.06079 11.713 2.02254C11.6164 1.98429 11.5284 1.92699 11.4541 1.854C11.3798 1.78101 11.3207 1.69381 11.2804 1.59753C11.2401 1.50125 11.2194 1.39783 11.2194 1.29336C11.2194 1.18888 11.2401 1.08546 11.2804 0.989182C11.3207 0.892901 11.3798 0.805701 11.4541 0.732712C11.5284 0.659723 11.6164 0.602419 11.713 0.56417C11.8097 0.525921 11.9129 0.507499 12.0167 0.509988H15.1917C15.2955 0.507499 15.3988 0.525921 15.4954 0.56417C15.5921 0.602419 15.6801 0.659723 15.7544 0.732712C15.8287 0.805701 15.8877 0.892901 15.928 0.989182C15.9683 1.08546 15.9891 1.18888 15.9891 1.29336C15.9891 1.39783 15.9683 1.50125 15.928 1.59753C15.8877 1.69381 15.8287 1.78101 15.7544 1.854C15.6801 1.92699 15.5921 1.98429 15.4954 2.02254C15.3988 2.06079 15.2955 2.07921 15.1917 2.07672Z" fill="#AB2346"/>
<path d="M16.7683 4.45075H12.0176C11.9138 4.45324 11.8105 4.43482 11.7139 4.39657C11.6173 4.35832 11.5292 4.30101 11.4549 4.22802C11.3806 4.15504 11.3216 4.06784 11.2813 3.97155C11.241 3.87527 11.2202 3.77185 11.2202 3.66738C11.2202 3.56291 11.241 3.45949 11.2813 3.36321C11.3216 3.26692 11.3806 3.17972 11.4549 3.10674C11.5292 3.03375 11.6173 2.97644 11.7139 2.93819C11.8105 2.89994 11.9138 2.88152 12.0176 2.88401H16.7683C16.8722 2.88152 16.9754 2.89994 17.0721 2.93819C17.1687 2.97644 17.2567 3.03375 17.331 3.10674C17.4053 3.17972 17.4643 3.26692 17.5047 3.36321C17.545 3.45949 17.5657 3.56291 17.5657 3.66738C17.5657 3.77185 17.545 3.87527 17.5047 3.97155C17.4643 4.06784 17.4053 4.15504 17.331 4.22802C17.2567 4.30101 17.1687 4.35832 17.0721 4.39657C16.9754 4.43482 16.8722 4.45324 16.7683 4.45075Z" fill="#AB2346"/>
<path d="M18.3328 6.82428H12.0168C11.8136 6.81941 11.6202 6.73473 11.4782 6.58836C11.3361 6.44198 11.2566 6.2455 11.2566 6.04091C11.2566 5.83633 11.3361 5.63985 11.4782 5.49347C11.6202 5.3471 11.8136 5.26242 12.0168 5.25755H18.3328C18.4366 5.25506 18.5398 5.27348 18.6365 5.31173C18.7331 5.34998 18.8212 5.40728 18.8955 5.48027C18.9697 5.55326 19.0288 5.64046 19.0691 5.73674C19.1094 5.83302 19.1302 5.93644 19.1302 6.04091C19.1302 6.14539 19.1094 6.24881 19.0691 6.34509C19.0288 6.44137 18.9697 6.52857 18.8955 6.60156C18.8212 6.67455 18.7331 6.73185 18.6365 6.7701C18.5398 6.80835 18.4366 6.82677 18.3328 6.82428Z" fill="#AB2346"/>
<path d="M15.1916 11.5723H12.0166C11.9128 11.5748 11.8096 11.5564 11.7129 11.5181C11.6163 11.4799 11.5282 11.4226 11.4539 11.3496C11.3797 11.2766 11.3206 11.1894 11.2803 11.0931C11.24 10.9969 11.2192 10.8934 11.2192 10.789C11.2192 10.6845 11.24 10.5811 11.2803 10.4848C11.3206 10.3885 11.3797 10.3013 11.4539 10.2283C11.5282 10.1553 11.6163 10.098 11.7129 10.0598C11.8096 10.0215 11.9128 10.0031 12.0166 10.0056H15.1916C15.2954 10.0031 15.3987 10.0215 15.4953 10.0598C15.5919 10.098 15.68 10.1553 15.7543 10.2283C15.8286 10.3013 15.8876 10.3885 15.9279 10.4848C15.9682 10.5811 15.989 10.6845 15.989 10.789C15.989 10.8934 15.9682 10.9969 15.9279 11.0931C15.8876 11.1894 15.8286 11.2766 15.7543 11.3496C15.68 11.4226 15.5919 11.4799 15.4953 11.5181C15.3987 11.5564 15.2954 11.5748 15.1916 11.5723Z" fill="#AB2346"/>
<path d="M14.4039 13.9459H12.0156C11.9118 13.9484 11.8086 13.9299 11.712 13.8917C11.6153 13.8534 11.5273 13.7961 11.453 13.7231C11.3787 13.6502 11.3197 13.563 11.2793 13.4667C11.239 13.3704 11.2183 13.267 11.2183 13.1625C11.2183 13.058 11.239 12.9546 11.2793 12.8583C11.3197 12.762 11.3787 12.6748 11.453 12.6019C11.5273 12.5289 11.6153 12.4716 11.712 12.4333C11.8086 12.3951 11.9118 12.3766 12.0156 12.3791H14.4039C14.5077 12.3766 14.6109 12.3951 14.7075 12.4333C14.8042 12.4716 14.8922 12.5289 14.9665 12.6019C15.0408 12.6748 15.0999 12.762 15.1402 12.8583C15.1805 12.9546 15.2012 13.058 15.2012 13.1625C15.2012 13.267 15.1805 13.3704 15.1402 13.4667C15.0999 13.563 15.0408 13.6502 14.9665 13.7231C14.8922 13.7961 14.8042 13.8534 14.7075 13.8917C14.6109 13.9299 14.5077 13.9484 14.4039 13.9459Z" fill="#AB2346"/>
<path d="M9.68351 2.07672H8.08474C7.98093 2.07921 7.87767 2.06079 7.78104 2.02254C7.68441 1.98429 7.59636 1.92699 7.52206 1.854C7.44777 1.78101 7.38875 1.69381 7.34844 1.59753C7.30813 1.50125 7.28735 1.39783 7.28735 1.29336C7.28735 1.18888 7.30813 1.08546 7.34844 0.989182C7.38875 0.892901 7.44777 0.805701 7.52206 0.732712C7.59636 0.659723 7.68441 0.602419 7.78104 0.56417C7.87767 0.525921 7.98093 0.507499 8.08474 0.509988H9.68351C9.78732 0.507499 9.89059 0.525921 9.98722 0.56417C10.0838 0.602419 10.1719 0.659723 10.2462 0.732712C10.3205 0.805701 10.3795 0.892901 10.4198 0.989182C10.4601 1.08546 10.4809 1.18888 10.4809 1.29336C10.4809 1.39783 10.4601 1.50125 10.4198 1.59753C10.3795 1.69381 10.3205 1.78101 10.2462 1.854C10.1719 1.92699 10.0838 1.98429 9.98722 2.02254C9.89059 2.06079 9.78732 2.07921 9.68351 2.07672Z" fill="#82AEC9"/>
<path d="M9.68347 4.45075H6.52175C6.41794 4.45324 6.31471 4.43482 6.21808 4.39657C6.12145 4.35832 6.03339 4.30101 5.9591 4.22802C5.88481 4.15504 5.82576 4.06784 5.78545 3.97155C5.74514 3.87527 5.72437 3.77185 5.72437 3.66738C5.72437 3.56291 5.74514 3.45949 5.78545 3.36321C5.82576 3.26692 5.88481 3.17972 5.9591 3.10674C6.03339 3.03375 6.12145 2.97644 6.21808 2.93819C6.31471 2.89994 6.41794 2.88152 6.52175 2.88401H9.68347C9.78728 2.88152 9.89055 2.89994 9.98718 2.93819C10.0838 2.97644 10.1719 3.03375 10.2462 3.10674C10.3204 3.17972 10.3795 3.26692 10.4198 3.36321C10.4601 3.45949 10.4809 3.56291 10.4809 3.66738C10.4809 3.77185 10.4601 3.87527 10.4198 3.97155C10.3795 4.06784 10.3204 4.15504 10.2462 4.22802C10.1719 4.30101 10.0838 4.35832 9.98718 4.39657C9.89055 4.43482 9.78728 4.45324 9.68347 4.45075Z" fill="#82AEC9"/>
<path d="M9.68275 6.82428H4.95632C4.85251 6.82677 4.74925 6.80835 4.65262 6.7701C4.55599 6.73185 4.46794 6.67455 4.39364 6.60156C4.31935 6.52857 4.2603 6.44137 4.21999 6.34509C4.17969 6.24881 4.15894 6.14539 4.15894 6.04091C4.15894 5.93644 4.17969 5.83302 4.21999 5.73674C4.2603 5.64046 4.31935 5.55326 4.39364 5.48027C4.46794 5.40728 4.55599 5.34998 4.65262 5.31173C4.74925 5.27348 4.85251 5.25506 4.95632 5.25755H9.68275C9.78656 5.25506 9.88982 5.27348 9.98645 5.31173C10.0831 5.34998 10.1711 5.40728 10.2454 5.48027C10.3197 5.55326 10.3788 5.64046 10.4191 5.73674C10.4594 5.83302 10.4801 5.93644 10.4801 6.04091C10.4801 6.14539 10.4594 6.24881 10.4191 6.34509C10.3788 6.44137 10.3197 6.52857 10.2454 6.60156C10.1711 6.67455 10.0831 6.73185 9.98645 6.7701C9.88982 6.80835 9.78656 6.82677 9.68275 6.82428Z" fill="#82AEC9"/>
<path d="M9.68346 9.1983H3.37502C3.27122 9.20079 3.16798 9.18237 3.07135 9.14412C2.97472 9.10587 2.88667 9.04857 2.81237 8.97558C2.73808 8.90259 2.67903 8.81539 2.63872 8.71911C2.59841 8.62283 2.57764 8.51941 2.57764 8.41494C2.57764 8.31046 2.59841 8.20704 2.63872 8.11076C2.67903 8.01448 2.73808 7.92728 2.81237 7.85429C2.88667 7.7813 2.97472 7.724 3.07135 7.68575C3.16798 7.6475 3.27122 7.62908 3.37502 7.63157H9.68346C9.78727 7.62908 9.8905 7.6475 9.98713 7.68575C10.0838 7.724 10.1718 7.7813 10.2461 7.85429C10.3204 7.92728 10.3794 8.01448 10.4198 8.11076C10.4601 8.20704 10.4808 8.31046 10.4808 8.41494C10.4808 8.51941 10.4601 8.62283 10.4198 8.71911C10.3794 8.81539 10.3204 8.90259 10.2461 8.97558C10.1718 9.04857 10.0838 9.10587 9.98713 9.14412C9.8905 9.18237 9.78727 9.20079 9.68346 9.1983Z" fill="#82AEC9"/>
<path d="M19.9091 9.1983H12.0174C11.9135 9.20079 11.8103 9.18237 11.7137 9.14412C11.617 9.10587 11.529 9.04857 11.4547 8.97558C11.3804 8.90259 11.3213 8.81539 11.281 8.71911C11.2407 8.62283 11.22 8.51941 11.22 8.41494C11.22 8.31046 11.2407 8.20704 11.281 8.11076C11.3213 8.01448 11.3804 7.92728 11.4547 7.85429C11.529 7.7813 11.617 7.724 11.7137 7.68575C11.8103 7.6475 11.9135 7.62908 12.0174 7.63157H19.9091C20.0129 7.62908 20.1161 7.6475 20.2127 7.68575C20.3094 7.724 20.3974 7.7813 20.4717 7.85429C20.546 7.92728 20.6051 8.01448 20.6454 8.11076C20.6857 8.20704 20.7064 8.31046 20.7064 8.41494C20.7064 8.51941 20.6857 8.62283 20.6454 8.71911C20.6051 8.81539 20.546 8.90259 20.4717 8.97558C20.3974 9.04857 20.3094 9.10587 20.2127 9.14412C20.1161 9.18237 20.0129 9.20079 19.9091 9.1983Z" fill="#82AEC9"/>
<path d="M9.68315 11.5723H4.95095C4.84714 11.5748 4.7439 11.5564 4.64728 11.5181C4.55065 11.4799 4.46259 11.4226 4.3883 11.3496C4.31401 11.2766 4.25496 11.1894 4.21465 11.0931C4.17434 10.9969 4.15356 10.8934 4.15356 10.789C4.15356 10.6845 4.17434 10.5811 4.21465 10.4848C4.25496 10.3885 4.31401 10.3013 4.3883 10.2283C4.46259 10.1553 4.55065 10.098 4.64728 10.0598C4.7439 10.0215 4.84714 10.0031 4.95095 10.0056H9.68315C9.78696 10.0031 9.89023 10.0215 9.98686 10.0598C10.0835 10.098 10.1715 10.1553 10.2458 10.2283C10.3201 10.3013 10.3791 10.3885 10.4195 10.4848C10.4598 10.5811 10.4805 10.6845 10.4805 10.789C10.4805 10.8934 10.4598 10.9969 10.4195 11.0931C10.3791 11.1894 10.3201 11.2766 10.2458 11.3496C10.1715 11.4226 10.0835 11.4799 9.98686 11.5181C9.89023 11.5564 9.78696 11.5748 9.68315 11.5723Z" fill="#82AEC9"/>
<path d="M19.9092 11.5723H17.5241C17.3208 11.5675 17.1274 11.4828 16.9854 11.3364C16.8433 11.19 16.7638 10.9935 16.7638 10.789C16.7638 10.5844 16.8433 10.3879 16.9854 10.2415C17.1274 10.0951 17.3208 10.0105 17.5241 10.0056H19.9092C20.013 10.0031 20.1163 10.0215 20.2129 10.0598C20.3095 10.098 20.3976 10.1553 20.4719 10.2283C20.5462 10.3013 20.6052 10.3885 20.6455 10.4848C20.6858 10.5811 20.7066 10.6845 20.7066 10.789C20.7066 10.8934 20.6858 10.9969 20.6455 11.0931C20.6052 11.1894 20.5462 11.2766 20.4719 11.3496C20.3976 11.4226 20.3095 11.4799 20.2129 11.5181C20.1163 11.5564 20.013 11.5748 19.9092 11.5723Z" fill="#82AEC9"/>
<path d="M9.68254 13.9459H6.51553C6.41172 13.9484 6.30845 13.9299 6.21182 13.8917C6.11519 13.8534 6.02714 13.7961 5.95285 13.7231C5.87855 13.6502 5.81951 13.563 5.7792 13.4667C5.73889 13.3704 5.71814 13.267 5.71814 13.1625C5.71814 13.058 5.73889 12.9546 5.7792 12.8583C5.81951 12.762 5.87855 12.6748 5.95285 12.6019C6.02714 12.5289 6.11519 12.4716 6.21182 12.4333C6.30845 12.3951 6.41172 12.3766 6.51553 12.3791H9.68254C9.78635 12.3766 9.88961 12.3951 9.98624 12.4333C10.0829 12.4716 10.1709 12.5289 10.2452 12.6019C10.3195 12.6748 10.3786 12.762 10.4189 12.8583C10.4592 12.9546 10.4799 13.058 10.4799 13.1625C10.4799 13.267 10.4592 13.3704 10.4189 13.4667C10.3786 13.563 10.3195 13.6502 10.2452 13.7231C10.1709 13.7961 10.0829 13.8534 9.98624 13.8917C9.88961 13.9299 9.78635 13.9484 9.68254 13.9459Z" fill="#82AEC9"/>
<path d="M20.0558 13.9459H16.7494C16.5461 13.941 16.3528 13.8563 16.2107 13.7099C16.0687 13.5636 15.9891 13.3671 15.9891 13.1625C15.9891 12.9579 16.0687 12.7614 16.2107 12.6151C16.3528 12.4687 16.5461 12.384 16.7494 12.3791H20.0558C20.1596 12.3766 20.2628 12.3951 20.3594 12.4333C20.4561 12.4716 20.5441 12.5289 20.6184 12.6019C20.6927 12.6748 20.7518 12.762 20.7921 12.8583C20.8324 12.9546 20.8531 13.058 20.8531 13.1625C20.8531 13.267 20.8324 13.3704 20.7921 13.4667C20.7518 13.563 20.6927 13.6502 20.6184 13.7231C20.5441 13.7961 20.4561 13.8534 20.3594 13.8917C20.2628 13.9299 20.1596 13.9484 20.0558 13.9459Z" fill="#82AEC9"/>
<path d="M9.68351 16.3199H8.08474C7.98093 16.3224 7.87767 16.304 7.78104 16.2657C7.68441 16.2275 7.59636 16.1702 7.52206 16.0972C7.44777 16.0242 7.38875 15.937 7.34844 15.8407C7.30813 15.7444 7.28735 15.641 7.28735 15.5365C7.28735 15.432 7.30813 15.3286 7.34844 15.2323C7.38875 15.1361 7.44777 15.0489 7.52206 14.9759C7.59636 14.9029 7.68441 14.8456 7.78104 14.8073C7.87767 14.7691 7.98093 14.7507 8.08474 14.7532H9.68351C9.78732 14.7507 9.89059 14.7691 9.98722 14.8073C10.0838 14.8456 10.1719 14.9029 10.2462 14.9759C10.3205 15.0489 10.3795 15.1361 10.4198 15.2323C10.4601 15.3286 10.4809 15.432 10.4809 15.5365C10.4809 15.641 10.4601 15.7444 10.4198 15.8407C10.3795 15.937 10.3205 16.0242 10.2462 16.0972C10.1719 16.1702 10.0838 16.2275 9.98722 16.2657C9.89059 16.304 9.78732 16.3224 9.68351 16.3199Z" fill="#82AEC9"/>
<path d="M15.1916 16.3199H12.0166C11.9128 16.3224 11.8096 16.304 11.7129 16.2657C11.6163 16.2275 11.5282 16.1702 11.4539 16.0972C11.3797 16.0242 11.3206 15.937 11.2803 15.8407C11.24 15.7444 11.2192 15.641 11.2192 15.5365C11.2192 15.432 11.24 15.3286 11.2803 15.2323C11.3206 15.1361 11.3797 15.0489 11.4539 14.9759C11.5282 14.9029 11.6163 14.8456 11.7129 14.8073C11.8096 14.7691 11.9128 14.7507 12.0166 14.7532H15.1916C15.2954 14.7507 15.3987 14.7691 15.4953 14.8073C15.5919 14.8456 15.68 14.9029 15.7543 14.9759C15.8286 15.0489 15.8876 15.1361 15.9279 15.2323C15.9682 15.3286 15.989 15.432 15.989 15.5365C15.989 15.641 15.9682 15.7444 15.9279 15.8407C15.8876 15.937 15.8286 16.0242 15.7543 16.0972C15.68 16.1702 15.5919 16.2275 15.4953 16.2657C15.3987 16.304 15.2954 16.3224 15.1916 16.3199Z" fill="#82AEC9"/>
<path d="M6.55176 1.89096C6.55176 2.00933 6.51686 2.12504 6.4515 2.22346C6.38614 2.32188 6.29323 2.39859 6.18454 2.44389C6.07584 2.48919 5.95624 2.50104 5.84086 2.47795C5.72547 2.45485 5.61948 2.39785 5.53629 2.31415C5.4531 2.23046 5.39644 2.12382 5.37349 2.00772C5.35054 1.89163 5.36232 1.77129 5.40734 1.66193C5.45236 1.55258 5.5286 1.45911 5.62642 1.39334C5.72424 1.32758 5.83925 1.29248 5.9569 1.29248C6.11466 1.29248 6.26596 1.35554 6.37751 1.46777C6.48907 1.58001 6.55176 1.73224 6.55176 1.89096Z" fill="#1D365A"/>
<path d="M6.52893 15.3329C6.52893 15.4512 6.49404 15.5669 6.42868 15.6654C6.36331 15.7638 6.2704 15.8405 6.16171 15.8858C6.05302 15.9311 5.93342 15.9429 5.81803 15.9198C5.70264 15.8967 5.59665 15.8397 5.51346 15.756C5.43027 15.6724 5.37362 15.5657 5.35066 15.4496C5.32771 15.3335 5.33949 15.2132 5.38451 15.1038C5.42954 14.9945 5.5058 14.901 5.60362 14.8352C5.70144 14.7695 5.81643 14.7344 5.93407 14.7344C6.09184 14.7344 6.24316 14.7974 6.35471 14.9097C6.46627 15.0219 6.52893 15.1741 6.52893 15.3329Z" fill="#1D365A"/>
<path d="M4.55991 4.45107H3.77356C3.67029 4.45107 3.57123 4.40979 3.4982 4.33632C3.42517 4.26284 3.38416 4.16319 3.38416 4.05928C3.38416 3.95537 3.42517 3.85571 3.4982 3.78223C3.57123 3.70876 3.67029 3.66748 3.77356 3.66748H4.55991C4.66319 3.66748 4.76224 3.70876 4.83527 3.78223C4.9083 3.85571 4.94932 3.95537 4.94932 4.05928C4.94932 4.16319 4.9083 4.26284 4.83527 4.33632C4.76224 4.40979 4.66319 4.45107 4.55991 4.45107Z" fill="#1D365A"/>
<path d="M2.98452 6.82461H1.41407C1.31079 6.82461 1.21173 6.78333 1.13871 6.70985C1.06568 6.63638 1.02466 6.53672 1.02466 6.43281C1.02466 6.3289 1.06568 6.22925 1.13871 6.15577C1.21173 6.0823 1.31079 6.04102 1.41407 6.04102H2.98452C3.0878 6.04102 3.18685 6.0823 3.25988 6.15577C3.33291 6.22925 3.37396 6.3289 3.37396 6.43281C3.37396 6.53672 3.33291 6.63638 3.25988 6.70985C3.18685 6.78333 3.0878 6.82461 2.98452 6.82461Z" fill="#1D365A"/>
<path d="M2.99482 10.7719H0.636234C0.532956 10.7719 0.433929 10.7306 0.360901 10.6571C0.287872 10.5836 0.246826 10.484 0.246826 10.3801C0.246826 10.2762 0.287872 10.1765 0.360901 10.103C0.433929 10.0296 0.532956 9.98828 0.636234 9.98828H2.99482C3.0981 9.98828 3.19715 10.0296 3.27018 10.103C3.34321 10.1765 3.38422 10.2762 3.38422 10.3801C3.38422 10.484 3.34321 10.5836 3.27018 10.6571C3.19715 10.7306 3.0981 10.7719 2.99482 10.7719Z" fill="#1D365A"/>
<path d="M4.56345 13.1381H3.77356C3.67029 13.1381 3.57123 13.0968 3.4982 13.0233C3.42517 12.9499 3.38416 12.8502 3.38416 12.7463C3.38416 12.6424 3.42517 12.5427 3.4982 12.4692C3.57123 12.3958 3.67029 12.3545 3.77356 12.3545H4.56345C4.66672 12.3545 4.76578 12.3958 4.83881 12.4692C4.91184 12.5427 4.95285 12.6424 4.95285 12.7463C4.95285 12.8502 4.91184 12.9499 4.83881 13.0233C4.76578 13.0968 4.66672 13.1381 4.56345 13.1381Z" fill="#1D365A"/>
<path d="M29.0046 7.89621C29.216 8.16084 29.3295 8.49114 29.3257 8.83065C29.3317 9.12653 29.2509 9.41763 29.0935 9.66763C28.9283 9.91713 28.695 10.1134 28.4217 10.2327C28.0942 10.3757 27.7397 10.4453 27.3828 10.4365H24.8398V4.50466H27.2723C27.627 4.49597 27.9796 4.56253 28.3072 4.7C28.5752 4.81237 28.8044 5.00164 28.9661 5.2442C29.1164 5.4799 29.1942 5.75493 29.1899 6.03491C29.2008 6.34718 29.1039 6.65361 28.9157 6.90215C28.7279 7.1377 28.473 7.30975 28.1851 7.39518C28.5108 7.45355 28.8031 7.63225 29.0046 7.89621ZM26.022 6.95288H27.1038C27.3361 6.96809 27.5663 6.90033 27.7539 6.76154C27.8312 6.69387 27.8919 6.60924 27.9315 6.51419C27.9711 6.41914 27.9884 6.3162 27.9821 6.21334C27.9881 6.10986 27.9707 6.00635 27.9311 5.91063C27.8916 5.8149 27.831 5.72944 27.7539 5.66069C27.5676 5.51904 27.3368 5.44955 27.1038 5.4649H26.022V6.95288ZM27.8848 9.26672C27.9661 9.19517 28.0301 9.10584 28.0718 9.00557C28.1135 8.9053 28.1319 8.79676 28.1254 8.68826C28.1311 8.57556 28.1112 8.46304 28.0673 8.3592C28.0234 8.25537 27.9566 8.16293 27.872 8.08888C27.6774 7.93594 27.4344 7.85897 27.1878 7.87218H26.022V9.47007H27.2135C27.4544 9.48489 27.6926 9.41261 27.8852 9.26627" fill="#AB2346"/>
<path d="M32.0398 5.87361C32.2962 5.72895 32.5862 5.65554 32.8801 5.66092V6.91173H32.5674C32.4095 6.88602 32.2478 6.89931 32.0962 6.95045C31.9446 7.0016 31.8076 7.08906 31.697 7.20531C31.5864 7.32155 31.5056 7.4631 31.4614 7.61776C31.4173 7.77242 31.4112 7.93556 31.4437 8.09312V10.439H30.2615V5.729H31.4423V6.46008C31.5883 6.21696 31.7933 6.01515 32.0381 5.87361" fill="#AB2346"/>
<path d="M34.6276 10.2122C34.27 10.014 33.9755 9.71771 33.7785 9.35786C33.5669 8.96723 33.4602 8.52782 33.4689 8.08302C33.4598 7.63716 33.5691 7.19692 33.7856 6.80774C33.989 6.44695 34.289 6.15092 34.6515 5.9534C35.0299 5.75529 35.4501 5.65186 35.8766 5.65186C36.3031 5.65186 36.7233 5.75529 37.1016 5.9534C37.4641 6.15096 37.7642 6.44698 37.9676 6.80774C38.1842 7.19686 38.2937 7.63711 38.2847 8.08302C38.2937 8.52982 38.1813 8.97062 37.9596 9.35786C37.7504 9.71857 37.4463 10.0142 37.0809 10.2122C36.7 10.4164 36.274 10.5202 35.8425 10.5139C35.4179 10.5205 34.9988 10.4165 34.6259 10.2122M36.4467 9.31959C36.6398 9.21003 36.7969 9.04609 36.8986 8.84792C37.0174 8.6111 37.0755 8.34817 37.0676 8.08302C37.0798 7.89614 37.0552 7.70866 36.9951 7.53141C36.935 7.35415 36.8406 7.19062 36.7173 7.05025C36.6071 6.93354 36.4739 6.84118 36.3263 6.77906C36.1786 6.71693 36.0198 6.68639 35.8598 6.68938C35.7009 6.68589 35.5432 6.71623 35.3968 6.77843C35.2505 6.84062 35.1189 6.93326 35.0106 7.05025C34.7666 7.33617 34.6437 7.70696 34.6683 8.08302C34.6436 8.45766 34.7632 8.82748 35.0022 9.1158C35.1083 9.23317 35.2383 9.32619 35.3833 9.38853C35.5283 9.45088 35.6849 9.48109 35.8425 9.47711C36.054 9.47779 36.262 9.42325 36.4467 9.31959Z" fill="#AB2346"/>
<path d="M39.1805 6.79992C39.3528 6.44982 39.6193 6.15537 39.9496 5.95003C40.2768 5.75075 40.6529 5.64763 41.0354 5.65235C41.3539 5.64508 41.6691 5.7182 41.9522 5.86505C42.1989 5.9936 42.4139 6.17604 42.5815 6.39901V5.72889H43.773V10.4389H42.5815V9.74962C42.4184 9.98041 42.2026 10.1684 41.9522 10.2978C41.6666 10.4467 41.3485 10.5212 41.027 10.5145C40.6461 10.5183 40.2722 10.412 39.9496 10.2084C39.6193 9.99737 39.3532 9.69884 39.1805 9.34559C38.9859 8.94807 38.8888 8.50937 38.8975 8.06631C38.8891 7.62726 38.9862 7.19311 39.1805 6.79992ZM42.4121 7.33923C42.3073 7.14076 42.1492 6.97593 41.9557 6.86355C41.7684 6.75404 41.5554 6.69675 41.3388 6.69758C41.1212 6.69519 40.9071 6.75297 40.7199 6.86463C40.5328 6.97629 40.3797 7.13754 40.2774 7.33077C40.1573 7.55672 40.0975 7.81016 40.104 8.06631C40.0981 8.32508 40.1578 8.5811 40.2774 8.81029C40.3824 9.0122 40.5402 9.18143 40.7338 9.29976C40.9158 9.41127 41.1248 9.47009 41.3379 9.46974C41.5545 9.47064 41.7674 9.4135 41.9548 9.30421C42.1483 9.1916 42.3064 9.02664 42.4113 8.82809C42.5224 8.59609 42.5801 8.34187 42.5801 8.08433C42.5801 7.82679 42.5224 7.57256 42.4113 7.34056" fill="#AB2346"/>
<path d="M44.8733 6.79947C45.0439 6.45029 45.3095 6.15705 45.6393 5.95388C45.9691 5.75071 46.3495 5.64599 46.7362 5.6519C47.0376 5.65133 47.3352 5.71964 47.6065 5.85169C47.8662 5.97167 48.0925 6.15414 48.2655 6.38299V4.14746H49.4653V10.4375H48.2655V9.74072C48.1126 9.97907 47.9 10.1726 47.649 10.3018C47.3643 10.4483 47.0479 10.5214 46.7282 10.5145C46.3462 10.518 45.9711 10.4118 45.6469 10.2084C45.3148 9.99835 45.0471 9.69965 44.8738 9.34559C44.6791 8.94808 44.582 8.50937 44.5907 8.0663C44.5823 7.62725 44.6794 7.19265 44.8738 6.79947M48.1054 7.33922C48.0007 7.14081 47.8427 6.97599 47.6494 6.86355C47.4622 6.75412 47.2494 6.69683 47.0329 6.69758C46.8153 6.69518 46.6013 6.75297 46.4141 6.86463C46.2269 6.97629 46.0738 7.13754 45.9715 7.33077C45.8514 7.55671 45.7916 7.81016 45.7981 8.0663C45.7923 8.32507 45.852 8.58109 45.9715 8.81029C46.0765 9.01219 46.2343 9.18143 46.4279 9.29976C46.6099 9.41129 46.8189 9.47011 47.032 9.46974C47.2485 9.47056 47.4613 9.41342 47.6485 9.30421C47.8418 9.19153 47.9998 9.02658 48.1045 8.82809C48.2158 8.59613 48.2736 8.34189 48.2736 8.08432C48.2736 7.82676 48.2158 7.57252 48.1045 7.34056" fill="#AB2346"/>
<path d="M51.3375 10.3047C51.0529 10.181 50.8043 9.98635 50.6153 9.73912C50.4416 9.51104 50.3401 9.23571 50.3239 8.94885H51.5153C51.5262 9.03829 51.5554 9.12448 51.6011 9.20198C51.6467 9.27949 51.7079 9.34663 51.7807 9.39916C51.9482 9.52209 52.1519 9.58477 52.3591 9.57714C52.5449 9.58798 52.7295 9.54039 52.8872 9.44098C52.9455 9.40379 52.9936 9.35233 53.0268 9.29141C53.0601 9.23048 53.0775 9.16208 53.0774 9.09257C53.0778 9.01828 53.0558 8.94561 53.0144 8.88412C52.9729 8.82264 52.9139 8.77524 52.8452 8.74817C52.6066 8.64253 52.3591 8.55855 52.1057 8.49721C51.814 8.43016 51.5274 8.34212 51.2482 8.23378C51.026 8.14347 50.8288 8.0006 50.6732 7.81729C50.5037 7.60326 50.4181 7.33412 50.4326 7.06085C50.4314 6.80583 50.5097 6.55685 50.6564 6.3489C50.8194 6.12236 51.0417 5.94582 51.2986 5.83896C51.61 5.70768 51.9455 5.64384 52.2831 5.65163C52.7637 5.6266 53.2374 5.77597 53.6178 6.07257C53.783 6.21266 53.9172 6.386 54.0118 6.58142C54.1064 6.77684 54.1593 6.99002 54.1671 7.20724H53.0349C53.0294 7.12084 53.0059 7.03656 52.9659 6.9599C52.9259 6.88324 52.8703 6.81591 52.8027 6.76227C52.6473 6.66294 52.4687 6.60653 52.2848 6.59872C52.1009 6.59091 51.9181 6.63197 51.755 6.71778C51.7001 6.75325 51.6553 6.80245 51.625 6.86055C51.5947 6.91866 51.5799 6.98369 51.5821 7.04928C51.5816 7.12634 51.6038 7.20183 51.6459 7.26621C51.688 7.33059 51.7482 7.38098 51.8187 7.41104C52.0543 7.5203 52.3006 7.60427 52.5537 7.66156C52.8383 7.72961 53.1178 7.81778 53.39 7.92542C53.6111 8.01709 53.8067 8.16138 53.9601 8.34592C54.1288 8.55932 54.2171 8.82581 54.2095 9.09836C54.2127 9.3596 54.1345 9.61527 53.9858 9.82944C53.8232 10.0554 53.6007 10.2308 53.3436 10.3354C53.0343 10.463 52.7022 10.5251 52.368 10.5178C52.0135 10.5237 51.6618 10.4526 51.3371 10.3096" fill="#AB2346"/>
<path d="M56.9751 5.8689C57.2578 5.7206 57.573 5.64609 57.8919 5.6522C58.2743 5.64738 58.6503 5.75034 58.9776 5.94944C59.307 6.15398 59.5733 6.44672 59.7467 6.79488C59.9418 7.18921 60.039 7.6253 60.0297 8.06572C60.0383 8.50877 59.9413 8.94745 59.7467 9.345C59.5739 9.69815 59.3078 9.99664 58.9776 10.2078C58.6522 10.4123 58.2754 10.5185 57.8919 10.5139C57.5763 10.5205 57.2641 10.4474 56.9839 10.3012C56.7356 10.1714 56.5181 9.98932 56.3462 9.76727V12.6827H55.1631V5.72874H56.3462V6.40865C56.5113 6.18191 56.7264 5.99709 56.9751 5.8689ZM58.6481 7.33063C58.5426 7.13385 58.3847 6.97052 58.1921 6.85896C58.0056 6.75185 57.7944 6.69613 57.5796 6.69743C57.3671 6.69694 57.1583 6.75428 56.9755 6.86341C56.7826 6.97832 56.6248 7.14443 56.5195 7.34353C56.4056 7.57321 56.3463 7.82638 56.3463 8.08307C56.3463 8.33976 56.4056 8.59293 56.5195 8.82261C56.6249 9.02167 56.7826 9.18776 56.9755 9.30273C57.1601 9.41176 57.3704 9.46888 57.5844 9.4681C57.7985 9.46731 58.0083 9.40866 58.1921 9.29828C58.3846 9.18089 58.5421 9.01351 58.6481 8.81371C58.7685 8.58341 58.8283 8.32586 58.8215 8.06572C58.828 7.80957 58.7683 7.55655 58.6481 7.33063Z" fill="#AB2346"/>
<path d="M65.1915 8.44006H61.7697C61.7797 8.74315 61.9066 9.03041 62.1235 9.24101C62.3326 9.43422 62.6083 9.53795 62.8921 9.53024C63.0874 9.54192 63.2816 9.49368 63.449 9.3919C63.6164 9.29012 63.7492 9.13959 63.8297 8.96023H65.1057C64.9745 9.40813 64.7017 9.80074 64.3286 10.0784C63.92 10.3785 63.4234 10.5324 62.9178 10.5158C62.4945 10.5227 62.0768 10.4187 61.7056 10.2142C61.351 10.0162 61.0606 9.71955 60.8692 9.35981C60.6635 8.96731 60.5603 8.52863 60.5694 8.08498C60.5596 7.63889 60.6613 7.19748 60.8652 6.80124C61.0529 6.44272 61.3407 6.14728 61.6932 5.95135C62.0671 5.75727 62.4816 5.65529 62.9024 5.65382C63.3232 5.65235 63.7383 5.75143 64.1137 5.9429C64.4603 6.13029 64.745 6.41527 64.9332 6.76297C65.1325 7.13788 65.2328 7.55799 65.2246 7.98308C65.2258 8.13666 65.2145 8.29009 65.191 8.44184M63.9996 7.6409C64.0021 7.50149 63.9738 7.36325 63.9168 7.23615C63.8598 7.10904 63.7756 6.99622 63.6701 6.90581C63.4509 6.71974 63.1713 6.62137 62.8846 6.62948C62.6134 6.62117 62.3492 6.71657 62.1452 6.89647C61.9368 7.09108 61.8062 7.35543 61.7776 7.64001L63.9996 7.6409Z" fill="#AB2346"/>
<path d="M66.2063 6.80373C66.3939 6.44799 66.6781 6.15324 67.0258 5.95384C67.3922 5.74823 67.8062 5.64412 68.2257 5.65215C68.7408 5.63197 69.2479 5.78613 69.6657 6.09C70.0555 6.39674 70.3261 6.83133 70.4303 7.31811H69.1544C69.0947 7.12518 68.9746 6.95679 68.8121 6.83799C68.6367 6.71731 68.4274 6.65634 68.2151 6.66401C68.0618 6.65767 67.9093 6.68786 67.7699 6.75212C67.6304 6.81638 67.5081 6.91289 67.4128 7.03378C67.2194 7.34785 67.1169 7.70999 67.1169 8.07945C67.1169 8.44892 67.2194 8.81106 67.4128 9.12513C67.5081 9.24601 67.6304 9.34252 67.7699 9.40678C67.9093 9.47104 68.0618 9.50124 68.2151 9.4949C68.4215 9.51271 68.6276 9.45809 68.7985 9.34032C68.9695 9.22254 69.0946 9.04887 69.1526 8.84881H70.4286C70.3172 9.33029 70.0459 9.75913 69.6595 10.0645C69.2458 10.3748 68.7391 10.5337 68.2234 10.5148C67.804 10.5228 67.39 10.4187 67.0236 10.2131C66.6759 10.0136 66.3917 9.71887 66.2041 9.36319C66.0095 8.96515 65.9083 8.52749 65.9083 8.0839C65.9083 7.64032 66.0095 7.20266 66.2041 6.80462" fill="#AB2346"/>
<path d="M72.758 6.70653V8.98477C72.7523 9.047 72.7594 9.10976 72.7791 9.16906C72.7987 9.22835 72.8304 9.28288 72.8721 9.32918C72.983 9.41067 73.1198 9.44835 73.2565 9.43508H73.8058V10.438H73.0623C72.0655 10.438 71.567 9.9508 71.567 8.97632V6.70698H71.0076V5.72805H71.5653V4.56445H72.7563V5.72894H73.804V6.70787L72.758 6.70653Z" fill="#AB2346"/>
<path d="M76.5534 5.87362C76.8098 5.72893 77.0998 5.65552 77.3937 5.66092V6.91173H77.081C76.9231 6.88591 76.7614 6.89913 76.6097 6.95023C76.458 7.00134 76.3209 7.0888 76.2103 7.20507C76.0997 7.32135 76.0189 7.46294 75.9748 7.61766C75.9307 7.77237 75.9247 7.93554 75.9572 8.09312V10.439H74.7742V5.729H75.9572V6.46009C76.1031 6.2169 76.3086 6.01507 76.5534 5.87362Z" fill="#AB2346"/>
<path d="M82.6288 5.72949V10.4386H81.4374V9.84367C81.2816 10.0509 81.077 10.2159 80.8421 10.3238C80.5922 10.4409 80.3194 10.5003 80.0438 10.4978C79.7049 10.5049 79.3699 10.4245 79.0708 10.2642C78.7868 10.1059 78.5559 9.8663 78.4074 9.5758C78.2395 9.24018 78.1568 8.86792 78.1668 8.4923V5.72949H79.3499V8.32232C79.3292 8.63511 79.429 8.94391 79.6285 9.18467C79.7264 9.28673 79.8449 9.36647 79.9761 9.41851C80.1072 9.47056 80.248 9.4937 80.3887 9.48636C80.5309 9.49425 80.673 9.47141 80.8056 9.41937C80.9382 9.36733 81.0582 9.2873 81.1574 9.18467C81.357 8.94393 81.4568 8.63512 81.436 8.32232V5.72949H82.6288Z" fill="#AB2346"/>
<path d="M91.0664 6.19229C91.2494 6.39087 91.3906 6.6247 91.4813 6.87968C91.5721 7.13465 91.6106 7.40548 91.5944 7.67582V10.4382H90.4118V7.8369C90.4326 7.52917 90.3323 7.22555 90.1327 6.99146C90.0335 6.89178 89.9145 6.81417 89.7835 6.76366C89.6526 6.71315 89.5125 6.69086 89.3725 6.69822C89.2318 6.69117 89.0912 6.71358 88.9596 6.76406C88.828 6.81454 88.7081 6.89197 88.6078 6.99146C88.5077 7.10674 88.4312 7.24076 88.3826 7.38583C88.3341 7.5309 88.3144 7.68418 88.3248 7.8369V10.4382H87.1422V7.8369C87.1628 7.52926 87.0628 7.22574 86.8635 6.99146C86.7643 6.8918 86.6453 6.81421 86.5144 6.7637C86.3834 6.71319 86.2434 6.69089 86.1033 6.69822C85.9613 6.69058 85.8193 6.71269 85.6862 6.76317C85.5531 6.81365 85.4319 6.89139 85.3303 6.99146C85.2302 7.10677 85.1537 7.24079 85.1051 7.38585C85.0566 7.53091 85.0369 7.68418 85.0472 7.8369V10.4382H83.8641V5.72908H85.0472V6.29864C85.2027 6.09759 85.4042 5.9373 85.6345 5.83142C85.882 5.71631 86.1518 5.65824 86.4244 5.66145C86.7654 5.65544 87.1024 5.73577 87.4044 5.89506C87.6873 6.04664 87.9195 6.27881 88.0718 6.56251C88.2282 6.28661 88.4579 6.06008 88.7352 5.9084C89.1052 5.70663 89.5284 5.62565 89.9461 5.67667C90.3639 5.7277 90.7556 5.90821 91.0668 6.19318" fill="#AB2346"/>
</svg>
