<svg width="13" height="13" viewBox="0 0 13 13" fill="none" xmlns="http://www.w3.org/2000/svg">
<path d="M0.188477 1.85494C0.188477 1.46361 0.329056 1.14077 0.610204 0.886421C0.891352 0.632058 1.25686 0.504883 1.7067 0.504883C2.14851 0.504883 2.50597 0.630098 2.77909 0.880551C3.06024 1.13882 3.20082 1.47535 3.20082 1.89016C3.20082 2.26583 3.06426 2.57888 2.79114 2.82933C2.50999 3.0876 2.14047 3.21674 1.6826 3.21674H1.67055C1.22873 3.21674 0.871278 3.0876 0.598155 2.82933C0.325032 2.57106 0.188477 2.24626 0.188477 1.85494ZM0.345118 12.1271V4.28504H3.02008V12.1271H0.345118ZM4.50215 12.1271H7.17711V7.74824C7.17711 7.4743 7.20924 7.26299 7.2735 7.1143C7.38596 6.84819 7.55666 6.62318 7.7856 6.43927C8.01454 6.25534 8.30171 6.16339 8.64713 6.16339C9.54682 6.16339 9.99666 6.75428 9.99666 7.93607V12.1271H12.6716V7.63084C12.6716 6.47252 12.3905 5.59401 11.8282 4.99529C11.2659 4.39657 10.5228 4.09721 9.59903 4.09721C8.56278 4.09721 7.75548 4.53158 7.17711 5.40031V5.42379H7.16506L7.17711 5.40031V4.28504H4.50215C4.51821 4.53549 4.52625 5.31421 4.52625 6.62123C4.52625 7.92824 4.51821 9.76353 4.50215 12.1271Z" fill="#003A2B"/>
</svg>
