<svg width="15" height="12" viewBox="0 0 15 12" fill="none" xmlns="http://www.w3.org/2000/svg">
<path d="M12.9274 3.23085C12.9357 3.35209 12.9357 3.47391 12.9357 3.5963C12.9357 7.33531 10.1827 11.6466 5.15013 11.6466V11.6449C3.66316 11.647 2.20701 11.2066 0.955566 10.3762C1.67197 10.4654 2.39837 10.4078 3.09322 10.2066C3.78807 10.0053 4.43774 9.66443 5.00509 9.20338C4.43405 9.1922 3.88067 8.99677 3.42233 8.64442C2.96399 8.29207 2.62361 7.80041 2.44878 7.2382C2.85873 7.31993 3.28133 7.30342 3.68414 7.18994C3.06493 7.06051 2.50806 6.71362 2.10798 6.20809C1.7079 5.70255 1.48923 5.0695 1.48906 4.41628V4.38065C1.86962 4.59994 2.29561 4.72134 2.73109 4.73461C2.15173 4.3346 1.74158 3.72133 1.58414 3.01964C1.42669 2.31795 1.53379 1.5806 1.88362 0.957677C2.57082 1.83175 3.42813 2.54661 4.39988 3.05583C5.37163 3.56506 6.43609 3.85727 7.52416 3.91349C7.38862 3.30717 7.44997 2.67157 7.69874 2.10492C7.94751 1.53826 8.36985 1.0721 8.90048 0.778469C9.43112 0.484839 10.0405 0.380088 10.6345 0.480405C11.2285 0.580723 11.7739 0.880523 12.1866 1.33347C12.7997 1.20847 13.3876 0.976047 13.9249 0.646237C13.7207 1.30157 13.2931 1.85784 12.7218 2.21148C13.264 2.14508 13.7936 1.99497 14.2928 1.76616C13.9254 2.33433 13.463 2.8303 12.9274 3.23085Z" fill="#003A2B"/>
</svg>
