<svg width="14" height="13" viewBox="0 0 14 13" fill="none" xmlns="http://www.w3.org/2000/svg">
<path d="M0.561646 2.34566C0.561646 1.94641 0.705073 1.61703 0.991915 1.35753C1.27876 1.09801 1.65167 0.968262 2.11062 0.968262C2.56138 0.968262 2.92608 1.09601 3.20473 1.35154C3.49157 1.61504 3.635 1.95839 3.635 2.3816C3.635 2.76487 3.49568 3.08426 3.21702 3.33979C2.93018 3.60329 2.55318 3.73504 2.08603 3.73504H2.07374C1.62297 3.73504 1.25828 3.60329 0.979622 3.33979C0.700967 3.07629 0.561646 2.74491 0.561646 2.34566ZM0.72146 12.8259V4.82499H3.4506V12.8259H0.72146ZM4.96269 12.8259H7.69183V8.35833C7.69183 8.07884 7.72462 7.86325 7.79018 7.71155C7.90491 7.44005 8.07907 7.21048 8.31265 7.02284C8.54622 6.83519 8.83921 6.74138 9.19163 6.74138C10.1095 6.74138 10.5685 7.34423 10.5685 8.54996V12.8259H13.2976V8.23855C13.2976 7.05678 13.0108 6.16047 12.4371 5.54962C11.8634 4.93877 11.1053 4.63335 10.1628 4.63335C9.10557 4.63335 8.28191 5.07651 7.69183 5.96284V5.9868H7.67954L7.69183 5.96284V4.82499H4.96269C4.97908 5.0805 4.98728 5.875 4.98728 7.20849C4.98728 8.54198 4.97908 10.4144 4.96269 12.8259Z" fill="#003A2B"/>
</svg>
