<svg width="14" height="12" viewBox="0 0 14 12" fill="none" xmlns="http://www.w3.org/2000/svg">
<path d="M12.4299 3.46383C12.4383 3.5855 12.4383 3.70774 12.4383 3.83057C12.4383 7.58277 9.67554 11.9093 4.62521 11.9093V11.9076C3.13299 11.9097 1.67171 11.4677 0.415848 10.6344C1.13478 10.7239 1.86374 10.6661 2.56104 10.4641C3.25834 10.2622 3.91031 9.9201 4.47965 9.45743C3.9066 9.44621 3.35127 9.25009 2.89132 8.89649C2.43136 8.5429 2.08978 8.04951 1.91433 7.48532C2.32572 7.56733 2.74982 7.55076 3.15405 7.43688C2.53265 7.307 1.97382 6.95888 1.57232 6.45157C1.17083 5.94425 0.951392 5.30896 0.951219 4.65344V4.61768C1.33312 4.83775 1.76062 4.95958 2.19763 4.97289C1.61623 4.57147 1.20464 3.95604 1.04664 3.25187C0.888637 2.54771 0.996107 1.80775 1.34717 1.18264C2.0368 2.05979 2.89713 2.77717 3.87231 3.28819C4.84749 3.79922 5.91571 4.09246 7.00761 4.14887C6.87159 3.54042 6.93316 2.90258 7.18281 2.33392C7.43246 1.76527 7.85628 1.29746 8.38879 1.0028C8.9213 0.70813 9.53284 0.60301 10.1289 0.703681C10.725 0.804352 11.2724 1.10521 11.6865 1.55976C12.3018 1.43432 12.8917 1.20107 13.4309 0.870097C13.226 1.52774 12.7969 2.08597 12.2236 2.44087C12.7677 2.37423 13.2992 2.22359 13.8001 1.99397C13.4314 2.56414 12.9674 3.06186 12.4299 3.46383Z" fill="#003A2B"/>
</svg>
