<svg width="14" height="13" viewBox="0 0 14 13" fill="none" xmlns="http://www.w3.org/2000/svg">
<path d="M0.294533 2.26352C0.294533 1.85793 0.440237 1.52332 0.731632 1.2597C1.02303 0.996069 1.40186 0.864258 1.86809 0.864258C2.32601 0.864258 2.69649 0.994037 2.97957 1.25362C3.27097 1.5213 3.41667 1.8701 3.41667 2.30003C3.41667 2.68939 3.27514 3.01385 2.99206 3.27343C2.70067 3.54111 2.31768 3.67496 1.84311 3.67496H1.83062C1.37271 3.67496 1.00222 3.54111 0.719144 3.27343C0.436066 3.00574 0.294533 2.6691 0.294533 2.26352ZM0.456884 12.9101V4.7822H3.22934V12.9101H0.456884ZM4.76544 12.9101H7.53789V8.37163C7.53789 8.08771 7.5712 7.86869 7.6378 7.71458C7.75436 7.43878 7.93128 7.20556 8.16857 7.01495C8.40585 6.82432 8.70349 6.72901 9.0615 6.72901C9.99398 6.72901 10.4602 7.34144 10.4602 8.56631V12.9101H13.2327V8.24995C13.2327 7.04942 12.9413 6.13888 12.3585 5.51834C11.7757 4.89779 11.0056 4.58752 10.0481 4.58752C8.97408 4.58752 8.13734 5.03772 7.53789 5.93812V5.96245H7.52541L7.53789 5.93812V4.7822H4.76544C4.78208 5.04177 4.79041 5.84888 4.79041 7.20354C4.79041 8.55819 4.78208 10.4604 4.76544 12.9101Z" fill="#003A2B"/>
</svg>
