<svg width="17" height="16" viewBox="0 0 17 16" fill="none" xmlns="http://www.w3.org/2000/svg">
<path d="M0.58313 2.53735C0.58313 2.03229 0.764566 1.61562 1.12742 1.28735C1.49028 0.959058 1.96201 0.794922 2.54259 0.794922C3.11281 0.794922 3.57415 0.956528 3.92665 1.27977C4.28951 1.6131 4.47095 2.04744 4.47095 2.5828C4.47095 3.06765 4.2947 3.47168 3.9422 3.79492C3.57935 4.12826 3.10243 4.29492 2.51149 4.29492H2.49594C1.92572 4.29492 1.46437 4.12826 1.11187 3.79492C0.759372 3.46159 0.58313 3.04239 0.58313 2.53735ZM0.785296 15.7949V5.67371H4.23768V15.7949H0.785296ZM6.15048 15.7949H9.60286V10.1434C9.60286 9.78986 9.64434 9.51713 9.72727 9.32522C9.87241 8.98179 10.0927 8.69138 10.3882 8.45401C10.6837 8.21663 11.0543 8.09795 11.5001 8.09795C12.6613 8.09795 13.2419 8.86057 13.2419 10.3858V15.7949H16.6942V9.99189C16.6942 8.49694 16.3314 7.3631 15.6057 6.59038C14.8799 5.81765 13.9209 5.43129 12.7287 5.43129C11.3913 5.43129 10.3493 5.99189 9.60286 7.1131V7.14341H9.58731L9.60286 7.1131V5.67371H6.15048C6.17121 5.99694 6.18159 7.00198 6.18159 8.68886C6.18159 10.3757 6.17121 12.7444 6.15048 15.7949Z" fill="#003A2B"/>
</svg>
