<svg width="13" height="12" viewBox="0 0 13 12" fill="none" xmlns="http://www.w3.org/2000/svg">
<path d="M11.6777 3.54419C11.6858 3.66246 11.6858 3.78128 11.6858 3.90067C11.6858 7.5478 9.00042 11.7532 4.0915 11.7532V11.7515C2.64106 11.7536 1.2207 11.3239 0 10.5139C0.698805 10.601 1.40735 10.5448 2.08513 10.3485C2.76291 10.1522 3.39661 9.81969 3.95002 9.36997C3.39301 9.35907 2.85323 9.16844 2.40616 8.82474C1.95908 8.48105 1.62706 8.00147 1.45652 7.45308C1.8564 7.5328 2.26862 7.51669 2.66153 7.406C2.05753 7.27976 1.51435 6.94139 1.12409 6.44828C0.733844 5.95516 0.520549 5.33766 0.520381 4.70049V4.66574C0.89159 4.87964 1.30712 4.99806 1.73189 5.01101C1.16677 4.62083 0.766704 4.02262 0.613128 3.33818C0.459551 2.65373 0.564012 1.93449 0.905246 1.32688C1.57557 2.17947 2.41181 2.87676 3.35968 3.37348C4.30756 3.87019 5.34586 4.15522 6.40719 4.21006C6.27498 3.61864 6.33483 2.99866 6.57749 2.44593C6.82014 1.89319 7.2321 1.43849 7.7497 1.15207C8.2673 0.865656 8.86171 0.763479 9.44109 0.861331C10.0205 0.959183 10.5525 1.25162 10.9551 1.69344C11.5531 1.57151 12.1266 1.34479 12.6507 1.02309C12.4515 1.66232 12.0344 2.20492 11.4771 2.54987C12.006 2.4851 12.5226 2.33868 13.0095 2.11549C12.6511 2.6697 12.2001 3.15348 11.6777 3.54419Z" fill="#003A2B"/>
</svg>
