<svg width="14" height="13" viewBox="0 0 14 13" fill="none" xmlns="http://www.w3.org/2000/svg">
<path d="M0.651855 2.0423C0.651855 1.63813 0.797047 1.3047 1.08742 1.042C1.37779 0.779297 1.75529 0.647949 2.21988 0.647949C2.67619 0.647949 3.04537 0.777272 3.32746 1.03594C3.61783 1.30269 3.76302 1.65025 3.76302 2.07867C3.76302 2.46666 3.62198 2.78998 3.3399 3.04865C3.04953 3.3154 2.66789 3.44877 2.19499 3.44877H2.18255C1.72624 3.44877 1.35706 3.3154 1.07497 3.04865C0.792891 2.78191 0.651855 2.44645 0.651855 2.0423ZM0.813636 12.6515V4.55212H3.57635V12.6515H0.813636ZM5.10704 12.6515H7.86976V8.12893C7.86976 7.84601 7.90295 7.62776 7.96931 7.47419C8.08546 7.19936 8.26176 6.96696 8.49821 6.77702C8.73466 6.58706 9.03125 6.49208 9.388 6.49208C10.3172 6.49208 10.7818 7.10236 10.7818 8.32292V12.6515H13.5445V8.00768C13.5445 6.81137 13.2541 5.90403 12.6734 5.28567C12.0926 4.66731 11.3252 4.35813 10.3711 4.35813C9.30089 4.35813 8.4671 4.80674 7.86976 5.70398V5.72822H7.85731L7.86976 5.70398V4.55212H5.10704C5.12363 4.81078 5.13193 5.61505 5.13193 6.96495C5.13193 8.31484 5.12363 10.2103 5.10704 12.6515Z" fill="#003A2B"/>
</svg>
