<svg width="14" height="12" viewBox="0 0 14 12" fill="none" xmlns="http://www.w3.org/2000/svg">
<path d="M12.3199 3.49531C12.3281 3.61508 12.3281 3.73542 12.3281 3.85633C12.3281 7.5499 9.60854 11.8088 4.63712 11.8088V11.8071C3.16821 11.8092 1.72977 11.3741 0.49353 10.5538C1.20123 10.642 1.9188 10.585 2.60521 10.3862C3.29161 10.1875 3.93339 9.85071 4.49384 9.39526C3.92974 9.38422 3.38309 9.19116 2.93032 8.84309C2.47755 8.49502 2.1413 8.00934 1.9686 7.45397C2.37356 7.5347 2.79103 7.51839 3.18895 7.40629C2.57726 7.27844 2.02716 6.93576 1.63194 6.43637C1.23672 5.93698 1.02071 5.31162 1.02054 4.66633V4.63114C1.39647 4.84777 1.81729 4.96769 2.24747 4.9808C1.67516 4.58565 1.27 3.97984 1.11446 3.28667C0.958932 2.59351 1.06472 1.86511 1.4103 1.24977C2.08916 2.11322 2.93605 2.81939 3.89599 3.32243C4.85593 3.82546 5.90745 4.11412 6.98229 4.16966C6.8484 3.57071 6.90901 2.94283 7.15476 2.38306C7.40051 1.8233 7.81771 1.3628 8.3419 1.07274C8.86608 0.782675 9.46807 0.679197 10.0548 0.778295C10.6416 0.877393 11.1804 1.17355 11.5881 1.621C12.1937 1.49751 12.7745 1.26791 13.3053 0.942111C13.1035 1.58948 12.6811 2.13899 12.1168 2.48834C12.6524 2.42274 13.1756 2.27445 13.6687 2.04842C13.3057 2.60968 12.849 3.09963 12.3199 3.49531Z" fill="#003A2B"/>
</svg>
