<svg width="13" height="12" viewBox="0 0 13 12" fill="none" xmlns="http://www.w3.org/2000/svg">
<path d="M0.425293 1.43431C0.425293 1.04007 0.566917 0.714831 0.850154 0.458591C1.13339 0.202339 1.50161 0.0742188 1.95479 0.0742188C2.39989 0.0742188 2.76 0.200364 3.03515 0.452678C3.31839 0.712868 3.46001 1.0519 3.46001 1.46979C3.46001 1.84824 3.32244 2.16362 3.04729 2.41593C2.76405 2.67612 2.39179 2.80622 1.93051 2.80622H1.91837C1.47328 2.80622 1.11317 2.67612 0.838015 2.41593C0.562863 2.15574 0.425293 1.82853 0.425293 1.43431ZM0.583098 11.7828V3.88246H3.27793V11.7828H0.583098ZM4.77101 11.7828H7.46584V7.37138C7.46584 7.09541 7.49821 6.88253 7.56295 6.73273C7.67624 6.46465 7.84821 6.23797 8.07885 6.05269C8.30949 5.8674 8.5988 5.77476 8.94678 5.77476C9.85316 5.77476 10.3063 6.37004 10.3063 7.56061V11.7828H13.0012V7.25311C13.0012 6.08619 12.7179 5.20115 12.1514 4.59799C11.585 3.99482 10.8364 3.69323 9.90575 3.69323C8.86181 3.69323 8.04851 4.13083 7.46584 5.00601V5.02967H7.4537L7.46584 5.00601V3.88246H4.77101C4.78719 4.13476 4.79529 4.91927 4.79529 6.236C4.79529 7.55272 4.78719 9.40165 4.77101 11.7828Z" fill="#003A2B"/>
</svg>
