<svg width="14" height="12" viewBox="0 0 14 12" fill="none" xmlns="http://www.w3.org/2000/svg">
<path d="M11.7263 2.94211C11.7344 3.0595 11.7344 3.17745 11.7344 3.29596C11.7344 6.9162 9.06882 11.0906 4.19609 11.0906V11.0889C2.75635 11.091 1.34646 10.6645 0.134766 9.86047C0.828418 9.94689 1.53174 9.89108 2.20452 9.69624C2.8773 9.5014 3.50633 9.17134 4.05566 8.72493C3.50276 8.71411 2.96696 8.52488 2.52318 8.18372C2.0794 7.84256 1.74983 7.36653 1.58055 6.82218C1.97747 6.90131 2.38666 6.88532 2.77667 6.77544C2.17712 6.65013 1.63794 6.31426 1.25057 5.82478C0.863198 5.33531 0.651476 4.72236 0.651309 4.08989V4.05539C1.01978 4.26771 1.43225 4.38526 1.85389 4.39811C1.29294 4.01081 0.895817 3.41702 0.743372 2.73761C0.590928 2.05821 0.694619 1.34428 1.03334 0.741145C1.69871 1.58745 2.52879 2.2796 3.46968 2.77266C4.41056 3.26571 5.44121 3.54863 6.49471 3.60307C6.36348 3.01601 6.42288 2.4006 6.66375 1.85194C6.90462 1.30329 7.31354 0.851933 7.82732 0.567629C8.3411 0.283326 8.93113 0.181903 9.50624 0.279033C10.0813 0.376164 10.6095 0.666442 11.0091 1.10501C11.6027 0.983975 12.1719 0.758932 12.6922 0.439597C12.4944 1.07411 12.0804 1.61271 11.5272 1.95513C12.0523 1.89083 12.565 1.74549 13.0484 1.52395C12.6926 2.07407 12.2449 2.55428 11.7263 2.94211Z" fill="#003A2B"/>
</svg>
