<svg width="1217" height="1498" viewBox="0 0 1217 1498" fill="none" xmlns="http://www.w3.org/2000/svg">
<g filter="url(#filter0_f_1586_96627)">
<path d="M367.933 1073.73C216.946 719.467 276.234 938.507 400.344 539.569C393.229 469.465 429.197 399.209 432.755 323.692C436.312 248.174 508.248 273.479 709.433 348.996C910.617 424.514 748.958 453.376 876.625 613.505C1004.29 773.634 896.388 1010.86 889.274 1019.56C882.159 1028.26 518.92 1427.99 367.933 1073.73Z" fill="url(#paint0_linear_1586_96627)" fill-opacity="0.5"/>
<path d="M367.933 1073.73C216.946 719.467 276.234 938.507 400.344 539.569C393.229 469.465 429.197 399.209 432.755 323.692C436.312 248.174 508.248 273.479 709.433 348.996C910.617 424.514 748.958 453.376 876.625 613.505C1004.29 773.634 896.388 1010.86 889.274 1019.56C882.159 1028.26 518.92 1427.99 367.933 1073.73Z" stroke="black" stroke-width="0.790634"/>
</g>
<defs>
<filter id="filter0_f_1586_96627" x="0.282318" y="0.23642" width="1216.25" height="1497.62" filterUnits="userSpaceOnUse" color-interpolation-filters="sRGB">
<feFlood flood-opacity="0" result="BackgroundImageFix"/>
<feBlend mode="normal" in="SourceGraphic" in2="BackgroundImageFix" result="shape"/>
<feGaussianBlur stdDeviation="138.756" result="effect1_foregroundBlur_1586_96627"/>
</filter>
<linearGradient id="paint0_linear_1586_96627" x1="608.409" y1="278.145" x2="608.409" y2="1219.94" gradientUnits="userSpaceOnUse">
<stop stop-color="white"/>
<stop offset="1" stop-color="#D9D2BC"/>
</linearGradient>
</defs>
</svg>
