<svg width="14" height="13" viewBox="0 0 14 13" fill="none" xmlns="http://www.w3.org/2000/svg">
<path d="M0.661133 2.15216C0.661133 1.74799 0.806325 1.41456 1.0967 1.15187C1.38707 0.88916 1.76456 0.757812 2.22916 0.757812C2.68547 0.757812 3.05465 0.887135 3.33673 1.1458C3.62711 1.41255 3.7723 1.76012 3.7723 2.18853C3.7723 2.57653 3.63126 2.89985 3.34918 3.15852C3.05881 3.42526 2.67717 3.55863 2.20427 3.55863H2.19183C1.73552 3.55863 1.36633 3.42526 1.08425 3.15852C0.802168 2.89177 0.661133 2.55631 0.661133 2.15216ZM0.822913 12.7613V4.66199H3.58563V12.7613H0.822913ZM5.11632 12.7613H7.87903V8.23879C7.87903 7.95587 7.91222 7.73763 7.97859 7.58405C8.09474 7.30922 8.27104 7.07683 8.50749 6.88688C8.74394 6.69692 9.04053 6.60195 9.39728 6.60195C10.3265 6.60195 10.7911 7.21222 10.7911 8.43279V12.7613H13.5538V8.11754C13.5538 6.92123 13.2634 6.0139 12.6827 5.39553C12.1019 4.77717 11.3345 4.46799 10.3804 4.46799C9.31017 4.46799 8.47638 4.91661 7.87903 5.81384V5.83809H7.86659L7.87903 5.81384V4.66199H5.11632C5.13291 4.92064 5.14121 5.72492 5.14121 7.07481C5.14121 8.4247 5.13291 10.3202 5.11632 12.7613Z" fill="#003A2B"/>
</svg>
