<svg width="14" height="13" viewBox="0 0 14 13" fill="none" xmlns="http://www.w3.org/2000/svg">
<path d="M0.307373 1.90314C0.307373 1.49897 0.452565 1.16554 0.742936 0.902844C1.03331 0.640137 1.4108 0.508789 1.8754 0.508789C2.33171 0.508789 2.70089 0.638112 2.98297 0.896781C3.27335 1.16353 3.41854 1.51109 3.41854 1.93951C3.41854 2.3275 3.2775 2.65082 2.99542 2.90949C2.70505 3.17624 2.32341 3.30961 1.85051 3.30961H1.83807C1.38176 3.30961 1.01257 3.17624 0.730491 2.90949C0.448408 2.64275 0.307373 2.30729 0.307373 1.90314ZM0.469154 12.5123V4.41296H3.23187V12.5123H0.469154ZM4.76256 12.5123H7.52527V7.98977C7.52527 7.70685 7.55846 7.4886 7.62483 7.33503C7.74098 7.0602 7.91728 6.8278 8.15373 6.63786C8.39018 6.4479 8.68677 6.35292 9.04352 6.35292C9.97273 6.35292 10.4373 6.9632 10.4373 8.18376V12.5123H13.2V7.86852C13.2 6.67221 12.9097 5.76487 12.3289 5.14651C11.7482 4.52815 10.9807 4.21897 10.0267 4.21897C8.95641 4.21897 8.12262 4.66758 7.52527 5.56482V5.58906H7.51283L7.52527 5.56482V4.41296H4.76256C4.77915 4.67162 4.78745 5.47589 4.78745 6.82579C4.78745 8.17568 4.77915 10.0712 4.76256 12.5123Z" fill="#003A2B"/>
</svg>
