<svg width="18" height="15" viewBox="0 0 18 15" fill="none" xmlns="http://www.w3.org/2000/svg">
<path d="M15.942 3.5224C15.9524 3.67391 15.9524 3.82614 15.9524 3.97909C15.9524 8.65148 12.5121 14.0391 6.22323 14.0391V14.0369C4.36506 14.0395 2.54542 13.4891 0.981567 12.4514C1.87682 12.563 2.78455 12.491 3.65285 12.2395C4.52116 11.988 5.33301 11.562 6.04198 10.9859C5.3284 10.9719 4.63688 10.7277 4.06412 10.2874C3.49137 9.84707 3.06601 9.23268 2.84754 8.53013C3.35982 8.63226 3.88792 8.61163 4.39129 8.46981C3.61749 8.30808 2.92161 7.87459 2.42166 7.24286C1.9217 6.61113 1.64845 5.82004 1.64823 5.00375V4.95924C2.12379 5.23327 2.65613 5.38498 3.20032 5.40156C2.47634 4.90169 1.9638 4.13533 1.76705 3.25847C1.5703 2.38162 1.70413 1.46019 2.14129 0.681772C3.00004 1.77404 4.07137 2.66735 5.2857 3.3037C6.50003 3.94005 7.83022 4.3052 9.1899 4.37545C9.02052 3.61778 9.0972 2.82351 9.40807 2.1154C9.71894 1.40729 10.2467 0.824757 10.9098 0.457827C11.5729 0.0908967 12.3344 -0.0400033 13.0767 0.0853565C13.8189 0.210716 14.5006 0.585357 15.0163 1.15138C15.7824 0.995174 16.517 0.704728 17.1885 0.292585C16.9333 1.11151 16.399 1.80664 15.685 2.24857C16.3627 2.16559 17.0244 1.97801 17.6482 1.69208C17.1891 2.40208 16.6113 3.02186 15.942 3.5224Z" fill="#003A2B"/>
</svg>
