<svg width="15" height="12" viewBox="0 0 15 12" fill="none" xmlns="http://www.w3.org/2000/svg">
<path d="M12.9269 3.05116C12.9353 3.1724 12.9353 3.29422 12.9353 3.41662C12.9353 7.15563 10.1822 11.467 5.14964 11.467V11.4652C3.66267 11.4673 2.20652 11.0269 0.955078 10.1965C1.67149 10.2857 2.39788 10.2281 3.09273 10.0269C3.78758 9.82563 4.43725 9.48474 5.0046 9.02369C4.43356 9.01251 3.88019 8.81708 3.42185 8.46473C2.96351 8.11238 2.62312 7.62072 2.44829 7.05852C2.85824 7.14024 3.28084 7.12373 3.68365 7.01025C3.06444 6.88083 2.50757 6.53393 2.10749 6.0284C1.70741 5.52287 1.48874 4.88981 1.48857 4.23659V4.20096C1.86913 4.42025 2.29512 4.54166 2.7306 4.55493C2.15124 4.15492 1.7411 3.54164 1.58365 2.83996C1.42621 2.13827 1.5333 1.40091 1.88313 0.77799C2.57033 1.65206 3.42764 2.36692 4.39939 2.87615C5.37114 3.38537 6.43561 3.67758 7.52367 3.7338C7.38813 3.12748 7.44948 2.49188 7.69825 1.92523C7.94703 1.35857 8.36936 0.892412 8.9 0.598782C9.43063 0.305151 10.04 0.200401 10.634 0.300718C11.228 0.401035 11.7734 0.700835 12.1861 1.15379C12.7992 1.02879 13.3871 0.79636 13.9244 0.466549C13.7202 1.12188 13.2926 1.67815 12.7213 2.0318C13.2636 1.96539 13.7931 1.81528 14.2923 1.58647C13.9249 2.15464 13.4625 2.65061 12.9269 3.05116Z" fill="#003A2B"/>
</svg>
