<svg width="14" height="13" viewBox="0 0 14 13" fill="none" xmlns="http://www.w3.org/2000/svg">
<path d="M0.307617 1.63312C0.307617 1.22895 0.452809 0.895519 0.74318 0.632824C1.03355 0.370117 1.41105 0.23877 1.87564 0.23877C2.33195 0.23877 2.70114 0.368092 2.98322 0.626762C3.27359 0.893507 3.41878 1.24108 3.41878 1.66949C3.41878 2.05748 3.27775 2.3808 2.99566 2.63947C2.70529 2.90622 2.32365 3.03959 1.85075 3.03959H1.83831C1.382 3.03959 1.01282 2.90622 0.730736 2.63947C0.448652 2.37273 0.307617 2.03727 0.307617 1.63312ZM0.469398 12.2423V4.14294H3.23211V12.2423H0.469398ZM4.7628 12.2423H7.52552V7.71975C7.52552 7.43683 7.55871 7.21858 7.62508 7.06501C7.74122 6.79018 7.91753 6.55778 8.15397 6.36784C8.39042 6.17788 8.68702 6.08291 9.04377 6.08291C9.97297 6.08291 10.4376 6.69318 10.4376 7.91374V12.2423H13.2003V7.5985C13.2003 6.40219 12.9099 5.49485 12.3292 4.87649C11.7484 4.25813 10.981 3.94895 10.0269 3.94895C8.95665 3.94895 8.12286 4.39756 7.52552 5.2948V5.31905H7.51307L7.52552 5.2948V4.14294H4.7628C4.77939 4.4016 4.78769 5.20587 4.78769 6.55577C4.78769 7.90566 4.77939 9.80116 4.7628 12.2423Z" fill="#003A2B"/>
</svg>
